<?xml version="1.0" encoding="UTF-8" standalone="no"?>
<!DOCTYPE svg PUBLIC "-//W3C//DTD SVG 1.1//EN"
 "http://www.w3.org/Graphics/SVG/1.1/DTD/svg11.dtd">
<!-- Generated by graphviz version 12.1.2 (20240928.0832)
 -->
<!-- Title: public.mcp_catalog Pages: 1 -->
<svg width="830pt" height="1253pt"
 viewBox="0.00 0.00 829.58 1252.80" xmlns="http://www.w3.org/2000/svg" xmlns:xlink="http://www.w3.org/1999/xlink">
<g id="graph0" class="graph" transform="scale(1 1) rotate(0) translate(4 1248.8)">
<title>public.mcp_catalog</title>
<polygon fill="white" stroke="none" points="-4,4 -4,-1248.8 825.58,-1248.8 825.58,4 -4,4"/>
<!-- public.mcp_catalog -->
<g id="node1" class="node">
<title>public.mcp_catalog</title>
<polygon fill="#efefef" stroke="none" points="83.19,-697 83.19,-732.6 363.14,-732.6 363.14,-697 83.19,-697"/>
<polygon fill="none" stroke="black" points="83.19,-697 83.19,-732.6 363.14,-732.6 363.14,-697 83.19,-697"/>
<text text-anchor="start" x="90.19" y="-710.4" font-family="Arial Bold" font-size="18.00">public.mcp_catalog</text>
<text text-anchor="start" x="231.65" y="-710.4" font-family="Arial" font-size="14.00">    </text>
<text text-anchor="start" x="262.76" y="-710.4" font-family="Arial" font-size="14.00" fill="#666666">[BASE TABLE]</text>
<polygon fill="none" stroke="black" points="83.19,-666.2 83.19,-697 363.14,-697 363.14,-666.2 83.19,-666.2"/>
<text text-anchor="start" x="90.19" y="-678.4" font-family="Arial" font-size="14.00">id </text>
<text text-anchor="start" x="104.98" y="-678.4" font-family="Arial" font-size="14.00" fill="#666666">[uuid]</text>
<polygon fill="none" stroke="black" points="83.19,-635.4 83.19,-666.2 363.14,-666.2 363.14,-635.4 83.19,-635.4"/>
<text text-anchor="start" x="90.19" y="-647.6" font-family="Arial" font-size="14.00">name </text>
<text text-anchor="start" x="129.1" y="-647.6" font-family="Arial" font-size="14.00" fill="#666666">[varchar(255)]</text>
<polygon fill="none" stroke="black" points="83.19,-604.6 83.19,-635.4 363.14,-635.4 363.14,-604.6 83.19,-604.6"/>
<text text-anchor="start" x="90.19" y="-616.8" font-family="Arial" font-size="14.00">provider </text>
<text text-anchor="start" x="144.66" y="-616.8" font-family="Arial" font-size="14.00" fill="#666666">[varchar(255)]</text>
<polygon fill="none" stroke="black" points="83.19,-573.8 83.19,-604.6 363.14,-604.6 363.14,-573.8 83.19,-573.8"/>
<text text-anchor="start" x="90.19" y="-586" font-family="Arial" font-size="14.00">version </text>
<text text-anchor="start" x="139.22" y="-586" font-family="Arial" font-size="14.00" fill="#666666">[varchar(50)]</text>
<polygon fill="none" stroke="black" points="83.19,-543 83.19,-573.8 363.14,-573.8 363.14,-543 83.19,-543"/>
<text text-anchor="start" x="90.19" y="-555.2" font-family="Arial" font-size="14.00">description </text>
<text text-anchor="start" x="161.79" y="-555.2" font-family="Arial" font-size="14.00" fill="#666666">[text]</text>
<polygon fill="none" stroke="black" points="83.19,-512.2 83.19,-543 363.14,-543 363.14,-512.2 83.19,-512.2"/>
<text text-anchor="start" x="90.19" y="-524.4" font-family="Arial" font-size="14.00">connection_schema </text>
<text text-anchor="start" x="218.61" y="-524.4" font-family="Arial" font-size="14.00" fill="#666666">[jsonb]</text>
<polygon fill="none" stroke="black" points="83.19,-481.4 83.19,-512.2 363.14,-512.2 363.14,-481.4 83.19,-481.4"/>
<text text-anchor="start" x="90.19" y="-493.6" font-family="Arial" font-size="14.00">capabilities </text>
<text text-anchor="start" x="163.35" y="-493.6" font-family="Arial" font-size="14.00" fill="#666666">[jsonb]</text>
<polygon fill="none" stroke="black" points="83.19,-450.6 83.19,-481.4 363.14,-481.4 363.14,-450.6 83.19,-450.6"/>
<text text-anchor="start" x="90.19" y="-462.8" font-family="Arial" font-size="14.00">requires_credentials </text>
<text text-anchor="start" x="220.15" y="-462.8" font-family="Arial" font-size="14.00" fill="#666666">[boolean]</text>
<polygon fill="none" stroke="black" points="83.19,-419.8 83.19,-450.6 363.14,-450.6 363.14,-419.8 83.19,-419.8"/>
<text text-anchor="start" x="90.19" y="-432" font-family="Arial" font-size="14.00">is_approved </text>
<text text-anchor="start" x="170.36" y="-432" font-family="Arial" font-size="14.00" fill="#666666">[boolean]</text>
<polygon fill="none" stroke="black" points="83.19,-389 83.19,-419.8 363.14,-419.8 363.14,-389 83.19,-389"/>
<text text-anchor="start" x="90.19" y="-401.2" font-family="Arial" font-size="14.00">category_id </text>
<text text-anchor="start" x="166.46" y="-401.2" font-family="Arial" font-size="14.00" fill="#666666">[uuid]</text>
<polygon fill="none" stroke="black" points="83.19,-358.2 83.19,-389 363.14,-389 363.14,-358.2 83.19,-358.2"/>
<text text-anchor="start" x="90.19" y="-370.4" font-family="Arial" font-size="14.00">created_at </text>
<text text-anchor="start" x="160.24" y="-370.4" font-family="Arial" font-size="14.00" fill="#666666">[timestamp without time zone]</text>
<polygon fill="none" stroke="black" points="83.19,-327.4 83.19,-358.2 363.14,-358.2 363.14,-327.4 83.19,-327.4"/>
<text text-anchor="start" x="90.19" y="-339.6" font-family="Arial" font-size="14.00">updated_at </text>
<text text-anchor="start" x="164.15" y="-339.6" font-family="Arial" font-size="14.00" fill="#666666">[timestamp without time zone]</text>
<polygon fill="none" stroke="black" stroke-width="3" points="81.69,-325.9 81.69,-734.1 364.64,-734.1 364.64,-325.9 81.69,-325.9"/>
</g>
<!-- public.mcp_categories -->
<g id="node3" class="node">
<title>public.mcp_categories</title>
<polygon fill="#efefef" stroke="none" points="72.7,-166.4 72.7,-202 373.63,-202 373.63,-166.4 72.7,-166.4"/>
<polygon fill="none" stroke="black" points="72.7,-166.4 72.7,-202 373.63,-202 373.63,-166.4 72.7,-166.4"/>
<text text-anchor="start" x="79.7" y="-179.8" font-family="Arial Bold" font-size="18.00">public.mcp_categories</text>
<text text-anchor="start" x="242.14" y="-179.8" font-family="Arial" font-size="14.00">    </text>
<text text-anchor="start" x="273.26" y="-179.8" font-family="Arial" font-size="14.00" fill="#666666">[BASE TABLE]</text>
<polygon fill="none" stroke="black" points="72.7,-135.6 72.7,-166.4 373.63,-166.4 373.63,-135.6 72.7,-135.6"/>
<text text-anchor="start" x="79.7" y="-147.8" font-family="Arial" font-size="14.00">id </text>
<text text-anchor="start" x="94.49" y="-147.8" font-family="Arial" font-size="14.00" fill="#666666">[uuid]</text>
<polygon fill="none" stroke="black" points="72.7,-104.8 72.7,-135.6 373.63,-135.6 373.63,-104.8 72.7,-104.8"/>
<text text-anchor="start" x="79.7" y="-117" font-family="Arial" font-size="14.00">name </text>
<text text-anchor="start" x="118.61" y="-117" font-family="Arial" font-size="14.00" fill="#666666">[varchar(100)]</text>
<polygon fill="none" stroke="black" points="72.7,-74 72.7,-104.8 373.63,-104.8 373.63,-74 72.7,-74"/>
<text text-anchor="start" x="79.7" y="-86.2" font-family="Arial" font-size="14.00">description </text>
<text text-anchor="start" x="151.29" y="-86.2" font-family="Arial" font-size="14.00" fill="#666666">[text]</text>
<polygon fill="none" stroke="black" points="72.7,-43.2 72.7,-74 373.63,-74 373.63,-43.2 72.7,-43.2"/>
<text text-anchor="start" x="79.7" y="-55.4" font-family="Arial" font-size="14.00">created_at </text>
<text text-anchor="start" x="149.75" y="-55.4" font-family="Arial" font-size="14.00" fill="#666666">[timestamp without time zone]</text>
</g>
<!-- public.mcp_catalog&#45;&gt;public.mcp_categories -->
<g id="edge2" class="edge">
<title>public.mcp_catalog:category_id&#45;&gt;public.mcp_categories:id</title>
<path fill="none" stroke="black" d="M374.4,-403.67C477.39,-388.81 483.83,-151 374.63,-151"/>
<polygon fill="black" stroke="black" points="374.44,-403.67 364.15,-399.89 369.12,-404.05 364.8,-404.35 364.8,-404.35 364.8,-404.35 369.12,-404.05 364.79,-408.87 374.44,-403.67"/>
<text text-anchor="start" x="371.14" y="-414.4" font-family="Arial" font-size="10.00">FOREIGN KEY (category_id) REFERENCES mcp_categories(id) ON DELETE SET NULL</text>
</g>
<!-- public.employee_mcp_configs -->
<g id="node2" class="node">
<title>public.employee_mcp_configs</title>
<polygon fill="#efefef" stroke="none" points="43.2,-1166 43.2,-1201.6 403.13,-1201.6 403.13,-1166 43.2,-1166"/>
<polygon fill="none" stroke="black" points="43.2,-1166 43.2,-1201.6 403.13,-1201.6 403.13,-1166 43.2,-1166"/>
<text text-anchor="start" x="50.2" y="-1179.4" font-family="Arial Bold" font-size="18.00">public.employee_mcp_configs</text>
<text text-anchor="start" x="271.64" y="-1179.4" font-family="Arial" font-size="14.00">    </text>
<text text-anchor="start" x="302.76" y="-1179.4" font-family="Arial" font-size="14.00" fill="#666666">[BASE TABLE]</text>
<polygon fill="none" stroke="black" points="43.2,-1135.2 43.2,-1166 403.13,-1166 403.13,-1135.2 43.2,-1135.2"/>
<text text-anchor="start" x="50.2" y="-1147.4" font-family="Arial" font-size="14.00">id </text>
<text text-anchor="start" x="64.99" y="-1147.4" font-family="Arial" font-size="14.00" fill="#666666">[uuid]</text>
<polygon fill="none" stroke="black" points="43.2,-1104.4 43.2,-1135.2 403.13,-1135.2 403.13,-1104.4 43.2,-1104.4"/>
<text text-anchor="start" x="50.2" y="-1116.6" font-family="Arial" font-size="14.00">employee_id </text>
<text text-anchor="start" x="133.48" y="-1116.6" font-family="Arial" font-size="14.00" fill="#666666">[uuid]</text>
<polygon fill="none" stroke="black" points="43.2,-1073.6 43.2,-1104.4 403.13,-1104.4 403.13,-1073.6 43.2,-1073.6"/>
<text text-anchor="start" x="50.2" y="-1085.8" font-family="Arial" font-size="14.00">mcp_catalog_id </text>
<text text-anchor="start" x="152.15" y="-1085.8" font-family="Arial" font-size="14.00" fill="#666666">[uuid]</text>
<polygon fill="none" stroke="black" points="43.2,-1042.8 43.2,-1073.6 403.13,-1073.6 403.13,-1042.8 43.2,-1042.8"/>
<text text-anchor="start" x="50.2" y="-1055" font-family="Arial" font-size="14.00">status </text>
<text text-anchor="start" x="91.44" y="-1055" font-family="Arial" font-size="14.00" fill="#666666">[varchar(50)]</text>
<polygon fill="none" stroke="black" points="43.2,-1012 43.2,-1042.8 403.13,-1042.8 403.13,-1012 43.2,-1012"/>
<text text-anchor="start" x="50.2" y="-1024.2" font-family="Arial" font-size="14.00">connection_config </text>
<text text-anchor="start" x="166.95" y="-1024.2" font-family="Arial" font-size="14.00" fill="#666666">[jsonb]</text>
<polygon fill="none" stroke="black" points="43.2,-981.2 43.2,-1012 403.13,-1012 403.13,-981.2 43.2,-981.2"/>
<text text-anchor="start" x="50.2" y="-993.4" font-family="Arial" font-size="14.00">credentials_encrypted </text>
<text text-anchor="start" x="191.06" y="-993.4" font-family="Arial" font-size="14.00" fill="#666666">[text]</text>
<polygon fill="none" stroke="black" points="43.2,-950.4 43.2,-981.2 403.13,-981.2 403.13,-950.4 43.2,-950.4"/>
<text text-anchor="start" x="50.2" y="-962.6" font-family="Arial" font-size="14.00">sync_token </text>
<text text-anchor="start" x="124.91" y="-962.6" font-family="Arial" font-size="14.00" fill="#666666">[varchar(255)]</text>
<polygon fill="none" stroke="black" points="43.2,-919.6 43.2,-950.4 403.13,-950.4 403.13,-919.6 43.2,-919.6"/>
<text text-anchor="start" x="50.2" y="-931.8" font-family="Arial" font-size="14.00">last_sync_at </text>
<text text-anchor="start" x="131.91" y="-931.8" font-family="Arial" font-size="14.00" fill="#666666">[timestamp without time zone]</text>
<polygon fill="none" stroke="black" points="43.2,-888.8 43.2,-919.6 403.13,-919.6 403.13,-888.8 43.2,-888.8"/>
<text text-anchor="start" x="50.2" y="-901" font-family="Arial" font-size="14.00">created_at </text>
<text text-anchor="start" x="120.25" y="-901" font-family="Arial" font-size="14.00" fill="#666666">[timestamp without time zone]</text>
<polygon fill="none" stroke="black" points="43.2,-858 43.2,-888.8 403.13,-888.8 403.13,-858 43.2,-858"/>
<text text-anchor="start" x="50.2" y="-870.2" font-family="Arial" font-size="14.00">updated_at </text>
<text text-anchor="start" x="124.16" y="-870.2" font-family="Arial" font-size="14.00" fill="#666666">[timestamp without time zone]</text>
</g>
<!-- public.employee_mcp_configs&#45;&gt;public.mcp_catalog -->
<g id="edge1" class="edge">
<title>public.employee_mcp_configs:mcp_catalog_id&#45;&gt;public.mcp_catalog:id</title>
<path fill="none" stroke="black" d="M414.2,-1087.18C491.9,-1057.79 451.55,-681.6 364.14,-681.6"/>
<polygon fill="black" stroke="black" points="414.3,-1087.16 403.66,-1084.51 409.05,-1088.11 404.79,-1088.88 404.79,-1088.88 404.79,-1088.88 409.05,-1088.11 405.26,-1093.37 414.3,-1087.16"/>
<text text-anchor="start" x="411.13" y="-1099" font-family="Arial" font-size="10.00">FOREIGN KEY (mcp_catalog_id) REFERENCES mcp_catalog(id) ON DELETE CASCADE</text>
</g>
</g>
</svg>
