<?xml version="1.0" encoding="UTF-8" standalone="no"?>
<!DOCTYPE svg PUBLIC "-//W3C//DTD SVG 1.1//EN"
 "http://www.w3.org/Graphics/SVG/1.1/DTD/svg11.dtd">
<!-- Generated by graphviz version 12.1.2 (20240928.0832)
 -->
<!-- Title: public.activity_logs Pages: 1 -->
<svg width="1067pt" height="1561pt"
 viewBox="0.00 0.00 1066.81 1560.80" xmlns="http://www.w3.org/2000/svg" xmlns:xlink="http://www.w3.org/1999/xlink">
<g id="graph0" class="graph" transform="scale(1 1) rotate(0) translate(4 1556.8)">
<title>public.activity_logs</title>
<polygon fill="white" stroke="none" points="-4,4 -4,-1556.8 1062.81,-1556.8 1062.81,4 -4,4"/>
<!-- public.activity_logs -->
<g id="node1" class="node">
<title>public.activity_logs</title>
<polygon fill="#efefef" stroke="none" points="378.99,-943.4 378.99,-979 659.96,-979 659.96,-943.4 378.99,-943.4"/>
<polygon fill="none" stroke="black" points="378.99,-943.4 378.99,-979 659.96,-979 659.96,-943.4 378.99,-943.4"/>
<text text-anchor="start" x="385.99" y="-956.8" font-family="Arial Bold" font-size="18.00">public.activity_logs</text>
<text text-anchor="start" x="528.47" y="-956.8" font-family="Arial" font-size="14.00">    </text>
<text text-anchor="start" x="559.59" y="-956.8" font-family="Arial" font-size="14.00" fill="#666666">[BASE TABLE]</text>
<polygon fill="none" stroke="black" points="378.99,-912.6 378.99,-943.4 659.96,-943.4 659.96,-912.6 378.99,-912.6"/>
<text text-anchor="start" x="385.99" y="-924.8" font-family="Arial" font-size="14.00">id </text>
<text text-anchor="start" x="400.78" y="-924.8" font-family="Arial" font-size="14.00" fill="#666666">[uuid]</text>
<polygon fill="none" stroke="black" points="378.99,-881.8 378.99,-912.6 659.96,-912.6 659.96,-881.8 378.99,-881.8"/>
<text text-anchor="start" x="385.99" y="-894" font-family="Arial" font-size="14.00">org_id </text>
<text text-anchor="start" x="428.8" y="-894" font-family="Arial" font-size="14.00" fill="#666666">[uuid]</text>
<polygon fill="none" stroke="black" points="378.99,-851 378.99,-881.8 659.96,-881.8 659.96,-851 378.99,-851"/>
<text text-anchor="start" x="385.99" y="-863.2" font-family="Arial" font-size="14.00">employee_id </text>
<text text-anchor="start" x="469.26" y="-863.2" font-family="Arial" font-size="14.00" fill="#666666">[uuid]</text>
<polygon fill="none" stroke="black" points="378.99,-820.2 378.99,-851 659.96,-851 659.96,-820.2 378.99,-820.2"/>
<text text-anchor="start" x="385.99" y="-832.4" font-family="Arial" font-size="14.00">session_id </text>
<text text-anchor="start" x="456.03" y="-832.4" font-family="Arial" font-size="14.00" fill="#666666">[uuid]</text>
<polygon fill="none" stroke="black" points="378.99,-789.4 378.99,-820.2 659.96,-820.2 659.96,-789.4 378.99,-789.4"/>
<text text-anchor="start" x="385.99" y="-801.6" font-family="Arial" font-size="14.00">client_name </text>
<text text-anchor="start" x="465.37" y="-801.6" font-family="Arial" font-size="14.00" fill="#666666">[varchar(100)]</text>
<polygon fill="none" stroke="black" points="378.99,-758.6 378.99,-789.4 659.96,-789.4 659.96,-758.6 378.99,-758.6"/>
<text text-anchor="start" x="385.99" y="-770.8" font-family="Arial" font-size="14.00">client_version </text>
<text text-anchor="start" x="475.48" y="-770.8" font-family="Arial" font-size="14.00" fill="#666666">[varchar(50)]</text>
<polygon fill="none" stroke="black" points="378.99,-727.8 378.99,-758.6 659.96,-758.6 659.96,-727.8 378.99,-727.8"/>
<text text-anchor="start" x="385.99" y="-740" font-family="Arial" font-size="14.00">event_type </text>
<text text-anchor="start" x="458.38" y="-740" font-family="Arial" font-size="14.00" fill="#666666">[varchar(100)]</text>
<polygon fill="none" stroke="black" points="378.99,-697 378.99,-727.8 659.96,-727.8 659.96,-697 378.99,-697"/>
<text text-anchor="start" x="385.99" y="-709.2" font-family="Arial" font-size="14.00">event_category </text>
<text text-anchor="start" x="485.61" y="-709.2" font-family="Arial" font-size="14.00" fill="#666666">[varchar(50)]</text>
<polygon fill="none" stroke="black" points="378.99,-666.2 378.99,-697 659.96,-697 659.96,-666.2 378.99,-666.2"/>
<text text-anchor="start" x="385.99" y="-678.4" font-family="Arial" font-size="14.00">content </text>
<text text-anchor="start" x="435.8" y="-678.4" font-family="Arial" font-size="14.00" fill="#666666">[text]</text>
<polygon fill="none" stroke="black" points="378.99,-635.4 378.99,-666.2 659.96,-666.2 659.96,-635.4 378.99,-635.4"/>
<text text-anchor="start" x="385.99" y="-647.6" font-family="Arial" font-size="14.00">payload </text>
<text text-anchor="start" x="438.92" y="-647.6" font-family="Arial" font-size="14.00" fill="#666666">[jsonb]</text>
<polygon fill="none" stroke="black" points="378.99,-604.6 378.99,-635.4 659.96,-635.4 659.96,-604.6 378.99,-604.6"/>
<text text-anchor="start" x="385.99" y="-616.8" font-family="Arial" font-size="14.00">created_at </text>
<text text-anchor="start" x="456.04" y="-616.8" font-family="Arial" font-size="14.00" fill="#666666">[timestamp without time zone]</text>
<polygon fill="none" stroke="black" stroke-width="3" points="377.49,-603.1 377.49,-980.5 661.46,-980.5 661.46,-603.1 377.49,-603.1"/>
</g>
<!-- public.organizations -->
<g id="node3" class="node">
<title>public.organizations</title>
<polygon fill="#efefef" stroke="none" points="183,-351.2 183,-386.8 467.95,-386.8 467.95,-351.2 183,-351.2"/>
<polygon fill="none" stroke="black" points="183,-351.2 183,-386.8 467.95,-386.8 467.95,-351.2 183,-351.2"/>
<text text-anchor="start" x="190" y="-364.6" font-family="Arial Bold" font-size="18.00">public.organizations</text>
<text text-anchor="start" x="336.46" y="-364.6" font-family="Arial" font-size="14.00">    </text>
<text text-anchor="start" x="367.58" y="-364.6" font-family="Arial" font-size="14.00" fill="#666666">[BASE TABLE]</text>
<polygon fill="none" stroke="black" points="183,-320.4 183,-351.2 467.95,-351.2 467.95,-320.4 183,-320.4"/>
<text text-anchor="start" x="190" y="-332.6" font-family="Arial" font-size="14.00">id </text>
<text text-anchor="start" x="204.78" y="-332.6" font-family="Arial" font-size="14.00" fill="#666666">[uuid]</text>
<polygon fill="none" stroke="black" points="183,-289.6 183,-320.4 467.95,-320.4 467.95,-289.6 183,-289.6"/>
<text text-anchor="start" x="190" y="-301.8" font-family="Arial" font-size="14.00">name </text>
<text text-anchor="start" x="228.91" y="-301.8" font-family="Arial" font-size="14.00" fill="#666666">[varchar(255)]</text>
<polygon fill="none" stroke="black" points="183,-258.8 183,-289.6 467.95,-289.6 467.95,-258.8 183,-258.8"/>
<text text-anchor="start" x="190" y="-271" font-family="Arial" font-size="14.00">slug </text>
<text text-anchor="start" x="219.57" y="-271" font-family="Arial" font-size="14.00" fill="#666666">[varchar(100)]</text>
<polygon fill="none" stroke="black" points="183,-228 183,-258.8 467.95,-258.8 467.95,-228 183,-228"/>
<text text-anchor="start" x="190" y="-240.2" font-family="Arial" font-size="14.00">settings </text>
<text text-anchor="start" x="242.14" y="-240.2" font-family="Arial" font-size="14.00" fill="#666666">[jsonb]</text>
<polygon fill="none" stroke="black" points="183,-197.2 183,-228 467.95,-228 467.95,-197.2 183,-197.2"/>
<text text-anchor="start" x="190" y="-209.4" font-family="Arial" font-size="14.00">max_employees </text>
<text text-anchor="start" x="295.83" y="-209.4" font-family="Arial" font-size="14.00" fill="#666666">[integer]</text>
<polygon fill="none" stroke="black" points="183,-166.4 183,-197.2 467.95,-197.2 467.95,-166.4 183,-166.4"/>
<text text-anchor="start" x="190" y="-178.6" font-family="Arial" font-size="14.00">created_at </text>
<text text-anchor="start" x="260.05" y="-178.6" font-family="Arial" font-size="14.00" fill="#666666">[timestamp without time zone]</text>
<polygon fill="none" stroke="black" points="183,-135.6 183,-166.4 467.95,-166.4 467.95,-135.6 183,-135.6"/>
<text text-anchor="start" x="190" y="-147.8" font-family="Arial" font-size="14.00">updated_at </text>
<text text-anchor="start" x="263.96" y="-147.8" font-family="Arial" font-size="14.00" fill="#666666">[timestamp without time zone]</text>
</g>
<!-- public.activity_logs&#45;&gt;public.organizations -->
<g id="edge2" class="edge">
<title>public.activity_logs:org_id&#45;&gt;public.organizations:id</title>
<path fill="none" stroke="black" d="M367.82,-896.88C232.37,-888.08 334.91,-698.69 378.99,-558.4 399.8,-492.17 446.89,-496.15 467.95,-430 480.65,-390.1 510.82,-335.8 468.95,-335.8"/>
<polygon fill="black" stroke="black" points="367.66,-896.88 377.51,-901.69 372.99,-897.04 377.32,-897.18 377.32,-897.18 377.32,-897.18 372.99,-897.04 377.8,-892.69 367.66,-896.88"/>
<text text-anchor="start" x="7" y="-907.2" font-family="Arial" font-size="10.00">FOREIGN KEY (org_id) REFERENCES organizations(id) ON DELETE CASCADE</text>
</g>
<!-- public.employees -->
<g id="node4" class="node">
<title>public.employees</title>
<polygon fill="#efefef" stroke="none" points="572.63,-443.6 572.63,-479.2 854.32,-479.2 854.32,-443.6 572.63,-443.6"/>
<polygon fill="none" stroke="black" points="572.63,-443.6 572.63,-479.2 854.32,-479.2 854.32,-443.6 572.63,-443.6"/>
<text text-anchor="start" x="588" y="-457" font-family="Arial Bold" font-size="18.00">public.employees</text>
<text text-anchor="start" x="714.46" y="-457" font-family="Arial" font-size="14.00">    </text>
<text text-anchor="start" x="745.58" y="-457" font-family="Arial" font-size="14.00" fill="#666666">[BASE TABLE]</text>
<polygon fill="none" stroke="black" points="572.63,-412.8 572.63,-443.6 854.32,-443.6 854.32,-412.8 572.63,-412.8"/>
<text text-anchor="start" x="579.63" y="-425" font-family="Arial" font-size="14.00">id </text>
<text text-anchor="start" x="594.42" y="-425" font-family="Arial" font-size="14.00" fill="#666666">[uuid]</text>
<polygon fill="none" stroke="black" points="572.63,-382 572.63,-412.8 854.32,-412.8 854.32,-382 572.63,-382"/>
<text text-anchor="start" x="579.63" y="-394.2" font-family="Arial" font-size="14.00">org_id </text>
<text text-anchor="start" x="622.44" y="-394.2" font-family="Arial" font-size="14.00" fill="#666666">[uuid]</text>
<polygon fill="none" stroke="black" points="572.63,-351.2 572.63,-382 854.32,-382 854.32,-351.2 572.63,-351.2"/>
<text text-anchor="start" x="579.63" y="-363.4" font-family="Arial" font-size="14.00">team_id </text>
<text text-anchor="start" x="633.33" y="-363.4" font-family="Arial" font-size="14.00" fill="#666666">[uuid]</text>
<polygon fill="none" stroke="black" points="572.63,-320.4 572.63,-351.2 854.32,-351.2 854.32,-320.4 572.63,-320.4"/>
<text text-anchor="start" x="579.63" y="-332.6" font-family="Arial" font-size="14.00">role_id </text>
<text text-anchor="start" x="625.55" y="-332.6" font-family="Arial" font-size="14.00" fill="#666666">[uuid]</text>
<polygon fill="none" stroke="black" points="572.63,-289.6 572.63,-320.4 854.32,-320.4 854.32,-289.6 572.63,-289.6"/>
<text text-anchor="start" x="579.63" y="-301.8" font-family="Arial" font-size="14.00">email </text>
<text text-anchor="start" x="616.97" y="-301.8" font-family="Arial" font-size="14.00" fill="#666666">[varchar(255)]</text>
<polygon fill="none" stroke="black" points="572.63,-258.8 572.63,-289.6 854.32,-289.6 854.32,-258.8 572.63,-258.8"/>
<text text-anchor="start" x="579.63" y="-271" font-family="Arial" font-size="14.00">full_name </text>
<text text-anchor="start" x="644.22" y="-271" font-family="Arial" font-size="14.00" fill="#666666">[varchar(255)]</text>
<polygon fill="none" stroke="black" points="572.63,-228 572.63,-258.8 854.32,-258.8 854.32,-228 572.63,-228"/>
<text text-anchor="start" x="579.63" y="-240.2" font-family="Arial" font-size="14.00">password_hash </text>
<text text-anchor="start" x="681.58" y="-240.2" font-family="Arial" font-size="14.00" fill="#666666">[varchar(255)]</text>
<polygon fill="none" stroke="black" points="572.63,-197.2 572.63,-228 854.32,-228 854.32,-197.2 572.63,-197.2"/>
<text text-anchor="start" x="579.63" y="-209.4" font-family="Arial" font-size="14.00">status </text>
<text text-anchor="start" x="620.87" y="-209.4" font-family="Arial" font-size="14.00" fill="#666666">[varchar(50)]</text>
<polygon fill="none" stroke="black" points="572.63,-166.4 572.63,-197.2 854.32,-197.2 854.32,-166.4 572.63,-166.4"/>
<text text-anchor="start" x="579.63" y="-178.6" font-family="Arial" font-size="14.00">preferences </text>
<text text-anchor="start" x="657.45" y="-178.6" font-family="Arial" font-size="14.00" fill="#666666">[jsonb]</text>
<polygon fill="none" stroke="black" points="572.63,-135.6 572.63,-166.4 854.32,-166.4 854.32,-135.6 572.63,-135.6"/>
<text text-anchor="start" x="579.63" y="-147.8" font-family="Arial" font-size="14.00">last_login_at </text>
<text text-anchor="start" x="662.13" y="-147.8" font-family="Arial" font-size="14.00" fill="#666666">[timestamp without time zone]</text>
<polygon fill="none" stroke="black" points="572.63,-104.8 572.63,-135.6 854.32,-135.6 854.32,-104.8 572.63,-104.8"/>
<text text-anchor="start" x="579.63" y="-117" font-family="Arial" font-size="14.00">created_at </text>
<text text-anchor="start" x="649.68" y="-117" font-family="Arial" font-size="14.00" fill="#666666">[timestamp without time zone]</text>
<polygon fill="none" stroke="black" points="572.63,-74 572.63,-104.8 854.32,-104.8 854.32,-74 572.63,-74"/>
<text text-anchor="start" x="579.63" y="-86.2" font-family="Arial" font-size="14.00">updated_at </text>
<text text-anchor="start" x="653.59" y="-86.2" font-family="Arial" font-size="14.00" fill="#666666">[timestamp without time zone]</text>
<polygon fill="none" stroke="black" points="572.63,-43.2 572.63,-74 854.32,-74 854.32,-43.2 572.63,-43.2"/>
<text text-anchor="start" x="579.63" y="-55.4" font-family="Arial" font-size="14.00">deleted_at </text>
<text text-anchor="start" x="648.91" y="-55.4" font-family="Arial" font-size="14.00" fill="#666666">[timestamp without time zone]</text>
</g>
<!-- public.activity_logs&#45;&gt;public.employees -->
<g id="edge3" class="edge">
<title>public.activity_logs:employee_id&#45;&gt;public.employees:id</title>
<path fill="none" stroke="black" d="M671.38,-866C794.59,-856.21 734.28,-669.04 659.96,-558.4 636.55,-523.55 596.17,-557.16 572.63,-522.4 549.15,-487.73 529.76,-428.2 571.63,-428.2"/>
<polygon fill="black" stroke="black" points="671.28,-866 661.12,-861.89 665.95,-866.21 661.63,-866.37 661.63,-866.37 661.63,-866.37 665.95,-866.21 661.47,-870.88 671.28,-866"/>
<text text-anchor="start" x="667.96" y="-876.4" font-family="Arial" font-size="10.00">FOREIGN KEY (employee_id) REFERENCES employees(id) ON DELETE SET NULL</text>
</g>
<!-- public.webhook_deliveries -->
<g id="node2" class="node">
<title>public.webhook_deliveries</title>
<polygon fill="#efefef" stroke="none" points="353,-1474 353,-1509.6 685.94,-1509.6 685.94,-1474 353,-1474"/>
<polygon fill="none" stroke="black" points="353,-1474 353,-1509.6 685.94,-1509.6 685.94,-1474 353,-1474"/>
<text text-anchor="start" x="360" y="-1487.4" font-family="Arial Bold" font-size="18.00">public.webhook_deliveries</text>
<text text-anchor="start" x="554.45" y="-1487.4" font-family="Arial" font-size="14.00">    </text>
<text text-anchor="start" x="585.57" y="-1487.4" font-family="Arial" font-size="14.00" fill="#666666">[BASE TABLE]</text>
<polygon fill="none" stroke="black" points="353,-1443.2 353,-1474 685.94,-1474 685.94,-1443.2 353,-1443.2"/>
<text text-anchor="start" x="360" y="-1455.4" font-family="Arial" font-size="14.00">id </text>
<text text-anchor="start" x="374.79" y="-1455.4" font-family="Arial" font-size="14.00" fill="#666666">[uuid]</text>
<polygon fill="none" stroke="black" points="353,-1412.4 353,-1443.2 685.94,-1443.2 685.94,-1412.4 353,-1412.4"/>
<text text-anchor="start" x="360" y="-1424.6" font-family="Arial" font-size="14.00">destination_id </text>
<text text-anchor="start" x="450.29" y="-1424.6" font-family="Arial" font-size="14.00" fill="#666666">[uuid]</text>
<polygon fill="none" stroke="black" points="353,-1381.6 353,-1412.4 685.94,-1412.4 685.94,-1381.6 353,-1381.6"/>
<text text-anchor="start" x="360" y="-1393.8" font-family="Arial" font-size="14.00">log_id </text>
<text text-anchor="start" x="401.26" y="-1393.8" font-family="Arial" font-size="14.00" fill="#666666">[uuid]</text>
<polygon fill="none" stroke="black" points="353,-1350.8 353,-1381.6 685.94,-1381.6 685.94,-1350.8 353,-1350.8"/>
<text text-anchor="start" x="360" y="-1363" font-family="Arial" font-size="14.00">status </text>
<text text-anchor="start" x="401.25" y="-1363" font-family="Arial" font-size="14.00" fill="#666666">[varchar(50)]</text>
<polygon fill="none" stroke="black" points="353,-1320 353,-1350.8 685.94,-1350.8 685.94,-1320 353,-1320"/>
<text text-anchor="start" x="360" y="-1332.2" font-family="Arial" font-size="14.00">attempts </text>
<text text-anchor="start" x="417.58" y="-1332.2" font-family="Arial" font-size="14.00" fill="#666666">[integer]</text>
<polygon fill="none" stroke="black" points="353,-1289.2 353,-1320 685.94,-1320 685.94,-1289.2 353,-1289.2"/>
<text text-anchor="start" x="360" y="-1301.4" font-family="Arial" font-size="14.00">last_attempt_at </text>
<text text-anchor="start" x="459.62" y="-1301.4" font-family="Arial" font-size="14.00" fill="#666666">[timestamp without time zone]</text>
<polygon fill="none" stroke="black" points="353,-1258.4 353,-1289.2 685.94,-1289.2 685.94,-1258.4 353,-1258.4"/>
<text text-anchor="start" x="360" y="-1270.6" font-family="Arial" font-size="14.00">next_retry_at </text>
<text text-anchor="start" x="445.6" y="-1270.6" font-family="Arial" font-size="14.00" fill="#666666">[timestamp without time zone]</text>
<polygon fill="none" stroke="black" points="353,-1227.6 353,-1258.4 685.94,-1258.4 685.94,-1227.6 353,-1227.6"/>
<text text-anchor="start" x="360" y="-1239.8" font-family="Arial" font-size="14.00">response_status </text>
<text text-anchor="start" x="466.62" y="-1239.8" font-family="Arial" font-size="14.00" fill="#666666">[integer]</text>
<polygon fill="none" stroke="black" points="353,-1196.8 353,-1227.6 685.94,-1227.6 685.94,-1196.8 353,-1196.8"/>
<text text-anchor="start" x="360" y="-1209" font-family="Arial" font-size="14.00">response_body </text>
<text text-anchor="start" x="459.63" y="-1209" font-family="Arial" font-size="14.00" fill="#666666">[text]</text>
<polygon fill="none" stroke="black" points="353,-1166 353,-1196.8 685.94,-1196.8 685.94,-1166 353,-1166"/>
<text text-anchor="start" x="360" y="-1178.2" font-family="Arial" font-size="14.00">error_message </text>
<text text-anchor="start" x="458.05" y="-1178.2" font-family="Arial" font-size="14.00" fill="#666666">[text]</text>
<polygon fill="none" stroke="black" points="353,-1135.2 353,-1166 685.94,-1166 685.94,-1135.2 353,-1135.2"/>
<text text-anchor="start" x="360" y="-1147.4" font-family="Arial" font-size="14.00">created_at </text>
<text text-anchor="start" x="430.05" y="-1147.4" font-family="Arial" font-size="14.00" fill="#666666">[timestamp without time zone]</text>
<polygon fill="none" stroke="black" points="353,-1104.4 353,-1135.2 685.94,-1135.2 685.94,-1104.4 353,-1104.4"/>
<text text-anchor="start" x="360" y="-1116.6" font-family="Arial" font-size="14.00">delivered_at </text>
<text text-anchor="start" x="440.17" y="-1116.6" font-family="Arial" font-size="14.00" fill="#666666">[timestamp without time zone]</text>
</g>
<!-- public.webhook_deliveries&#45;&gt;public.activity_logs -->
<g id="edge1" class="edge">
<title>public.webhook_deliveries:log_id&#45;&gt;public.activity_logs:id</title>
<path fill="none" stroke="black" d="M697.15,-1396.62C894.79,-1381.56 866.26,-928 660.96,-928"/>
<polygon fill="black" stroke="black" points="697.27,-1396.61 687.11,-1392.49 691.94,-1396.81 687.61,-1396.97 687.61,-1396.97 687.61,-1396.97 691.94,-1396.81 687.45,-1401.48 697.27,-1396.61"/>
<text text-anchor="start" x="693.94" y="-1407" font-family="Arial" font-size="10.00">FOREIGN KEY (log_id) REFERENCES activity_logs(id) ON DELETE CASCADE</text>
</g>
</g>
</svg>
