<?xml version="1.0" encoding="UTF-8" standalone="no"?>
<!DOCTYPE svg PUBLIC "-//W3C//DTD SVG 1.1//EN"
 "http://www.w3.org/Graphics/SVG/1.1/DTD/svg11.dtd">
<!-- Generated by graphviz version 12.1.2 (20240928.0832)
 -->
<!-- Title: public.password_reset_tokens Pages: 1 -->
<svg width="806pt" height="879pt"
 viewBox="0.00 0.00 805.92 879.20" xmlns="http://www.w3.org/2000/svg" xmlns:xlink="http://www.w3.org/1999/xlink">
<g id="graph0" class="graph" transform="scale(1 1) rotate(0) translate(4 875.2)">
<title>public.password_reset_tokens</title>
<polygon fill="white" stroke="none" points="-4,4 -4,-875.2 801.92,-875.2 801.92,4 -4,4"/>
<!-- public.password_reset_tokens -->
<g id="node1" class="node">
<title>public.password_reset_tokens</title>
<polygon fill="#efefef" stroke="none" points="46.2,-789.4 46.2,-825 401.15,-825 401.15,-789.4 46.2,-789.4"/>
<polygon fill="none" stroke="black" points="46.2,-789.4 46.2,-825 401.15,-825 401.15,-789.4 46.2,-789.4"/>
<text text-anchor="start" x="53.2" y="-802.8" font-family="Arial Bold" font-size="18.00">public.password_reset_tokens</text>
<text text-anchor="start" x="269.66" y="-802.8" font-family="Arial" font-size="14.00">    </text>
<text text-anchor="start" x="300.77" y="-802.8" font-family="Arial" font-size="14.00" fill="#666666">[BASE TABLE]</text>
<polygon fill="none" stroke="black" points="46.2,-758.6 46.2,-789.4 401.15,-789.4 401.15,-758.6 46.2,-758.6"/>
<text text-anchor="start" x="53.2" y="-770.8" font-family="Arial" font-size="14.00">id </text>
<text text-anchor="start" x="67.99" y="-770.8" font-family="Arial" font-size="14.00" fill="#666666">[uuid]</text>
<polygon fill="none" stroke="black" points="46.2,-727.8 46.2,-758.6 401.15,-758.6 401.15,-727.8 46.2,-727.8"/>
<text text-anchor="start" x="53.2" y="-740" font-family="Arial" font-size="14.00">employee_id </text>
<text text-anchor="start" x="136.48" y="-740" font-family="Arial" font-size="14.00" fill="#666666">[uuid]</text>
<polygon fill="none" stroke="black" points="46.2,-697 46.2,-727.8 401.15,-727.8 401.15,-697 46.2,-697"/>
<text text-anchor="start" x="53.2" y="-709.2" font-family="Arial" font-size="14.00">token </text>
<text text-anchor="start" x="91.34" y="-709.2" font-family="Arial" font-size="14.00" fill="#666666">[varchar(64)]</text>
<polygon fill="none" stroke="black" points="46.2,-666.2 46.2,-697 401.15,-697 401.15,-666.2 46.2,-666.2"/>
<text text-anchor="start" x="53.2" y="-678.4" font-family="Arial" font-size="14.00">expires_at </text>
<text text-anchor="start" x="121.68" y="-678.4" font-family="Arial" font-size="14.00" fill="#666666">[timestamp without time zone]</text>
<polygon fill="none" stroke="black" points="46.2,-635.4 46.2,-666.2 401.15,-666.2 401.15,-635.4 46.2,-635.4"/>
<text text-anchor="start" x="53.2" y="-647.6" font-family="Arial" font-size="14.00">used_at </text>
<text text-anchor="start" x="106.91" y="-647.6" font-family="Arial" font-size="14.00" fill="#666666">[timestamp without time zone]</text>
<polygon fill="none" stroke="black" points="46.2,-604.6 46.2,-635.4 401.15,-635.4 401.15,-604.6 46.2,-604.6"/>
<text text-anchor="start" x="53.2" y="-616.8" font-family="Arial" font-size="14.00">created_at </text>
<text text-anchor="start" x="123.25" y="-616.8" font-family="Arial" font-size="14.00" fill="#666666">[timestamp without time zone]</text>
<polygon fill="none" stroke="black" stroke-width="3" points="44.7,-603.1 44.7,-826.5 402.65,-826.5 402.65,-603.1 44.7,-603.1"/>
</g>
<!-- public.employees -->
<g id="node2" class="node">
<title>public.employees</title>
<polygon fill="#efefef" stroke="none" points="82.83,-443.6 82.83,-479.2 364.52,-479.2 364.52,-443.6 82.83,-443.6"/>
<polygon fill="none" stroke="black" points="82.83,-443.6 82.83,-479.2 364.52,-479.2 364.52,-443.6 82.83,-443.6"/>
<text text-anchor="start" x="98.2" y="-457" font-family="Arial Bold" font-size="18.00">public.employees</text>
<text text-anchor="start" x="224.66" y="-457" font-family="Arial" font-size="14.00">    </text>
<text text-anchor="start" x="255.78" y="-457" font-family="Arial" font-size="14.00" fill="#666666">[BASE TABLE]</text>
<polygon fill="none" stroke="black" points="82.83,-412.8 82.83,-443.6 364.52,-443.6 364.52,-412.8 82.83,-412.8"/>
<text text-anchor="start" x="89.83" y="-425" font-family="Arial" font-size="14.00">id </text>
<text text-anchor="start" x="104.62" y="-425" font-family="Arial" font-size="14.00" fill="#666666">[uuid]</text>
<polygon fill="none" stroke="black" points="82.83,-382 82.83,-412.8 364.52,-412.8 364.52,-382 82.83,-382"/>
<text text-anchor="start" x="89.83" y="-394.2" font-family="Arial" font-size="14.00">org_id </text>
<text text-anchor="start" x="132.64" y="-394.2" font-family="Arial" font-size="14.00" fill="#666666">[uuid]</text>
<polygon fill="none" stroke="black" points="82.83,-351.2 82.83,-382 364.52,-382 364.52,-351.2 82.83,-351.2"/>
<text text-anchor="start" x="89.83" y="-363.4" font-family="Arial" font-size="14.00">team_id </text>
<text text-anchor="start" x="143.53" y="-363.4" font-family="Arial" font-size="14.00" fill="#666666">[uuid]</text>
<polygon fill="none" stroke="black" points="82.83,-320.4 82.83,-351.2 364.52,-351.2 364.52,-320.4 82.83,-320.4"/>
<text text-anchor="start" x="89.83" y="-332.6" font-family="Arial" font-size="14.00">role_id </text>
<text text-anchor="start" x="135.75" y="-332.6" font-family="Arial" font-size="14.00" fill="#666666">[uuid]</text>
<polygon fill="none" stroke="black" points="82.83,-289.6 82.83,-320.4 364.52,-320.4 364.52,-289.6 82.83,-289.6"/>
<text text-anchor="start" x="89.83" y="-301.8" font-family="Arial" font-size="14.00">email </text>
<text text-anchor="start" x="127.17" y="-301.8" font-family="Arial" font-size="14.00" fill="#666666">[varchar(255)]</text>
<polygon fill="none" stroke="black" points="82.83,-258.8 82.83,-289.6 364.52,-289.6 364.52,-258.8 82.83,-258.8"/>
<text text-anchor="start" x="89.83" y="-271" font-family="Arial" font-size="14.00">full_name </text>
<text text-anchor="start" x="154.42" y="-271" font-family="Arial" font-size="14.00" fill="#666666">[varchar(255)]</text>
<polygon fill="none" stroke="black" points="82.83,-228 82.83,-258.8 364.52,-258.8 364.52,-228 82.83,-228"/>
<text text-anchor="start" x="89.83" y="-240.2" font-family="Arial" font-size="14.00">password_hash </text>
<text text-anchor="start" x="191.78" y="-240.2" font-family="Arial" font-size="14.00" fill="#666666">[varchar(255)]</text>
<polygon fill="none" stroke="black" points="82.83,-197.2 82.83,-228 364.52,-228 364.52,-197.2 82.83,-197.2"/>
<text text-anchor="start" x="89.83" y="-209.4" font-family="Arial" font-size="14.00">status </text>
<text text-anchor="start" x="131.07" y="-209.4" font-family="Arial" font-size="14.00" fill="#666666">[varchar(50)]</text>
<polygon fill="none" stroke="black" points="82.83,-166.4 82.83,-197.2 364.52,-197.2 364.52,-166.4 82.83,-166.4"/>
<text text-anchor="start" x="89.83" y="-178.6" font-family="Arial" font-size="14.00">preferences </text>
<text text-anchor="start" x="167.65" y="-178.6" font-family="Arial" font-size="14.00" fill="#666666">[jsonb]</text>
<polygon fill="none" stroke="black" points="82.83,-135.6 82.83,-166.4 364.52,-166.4 364.52,-135.6 82.83,-135.6"/>
<text text-anchor="start" x="89.83" y="-147.8" font-family="Arial" font-size="14.00">last_login_at </text>
<text text-anchor="start" x="172.33" y="-147.8" font-family="Arial" font-size="14.00" fill="#666666">[timestamp without time zone]</text>
<polygon fill="none" stroke="black" points="82.83,-104.8 82.83,-135.6 364.52,-135.6 364.52,-104.8 82.83,-104.8"/>
<text text-anchor="start" x="89.83" y="-117" font-family="Arial" font-size="14.00">created_at </text>
<text text-anchor="start" x="159.88" y="-117" font-family="Arial" font-size="14.00" fill="#666666">[timestamp without time zone]</text>
<polygon fill="none" stroke="black" points="82.83,-74 82.83,-104.8 364.52,-104.8 364.52,-74 82.83,-74"/>
<text text-anchor="start" x="89.83" y="-86.2" font-family="Arial" font-size="14.00">updated_at </text>
<text text-anchor="start" x="163.79" y="-86.2" font-family="Arial" font-size="14.00" fill="#666666">[timestamp without time zone]</text>
<polygon fill="none" stroke="black" points="82.83,-43.2 82.83,-74 364.52,-74 364.52,-43.2 82.83,-43.2"/>
<text text-anchor="start" x="89.83" y="-55.4" font-family="Arial" font-size="14.00">deleted_at </text>
<text text-anchor="start" x="159.11" y="-55.4" font-family="Arial" font-size="14.00" fill="#666666">[timestamp without time zone]</text>
</g>
<!-- public.password_reset_tokens&#45;&gt;public.employees -->
<g id="edge1" class="edge">
<title>public.password_reset_tokens:employee_id&#45;&gt;public.employees:id</title>
<path fill="none" stroke="black" d="M412.06,-740.85C468.81,-712.02 432.41,-428.2 365.52,-428.2"/>
<polygon fill="black" stroke="black" points="412.2,-740.81 401.43,-738.74 407.01,-742.05 402.8,-743.05 402.8,-743.05 402.8,-743.05 407.01,-742.05 403.51,-747.5 412.2,-740.81"/>
<text text-anchor="start" x="409.15" y="-753.2" font-family="Arial" font-size="10.00">FOREIGN KEY (employee_id) REFERENCES employees(id) ON DELETE CASCADE</text>
</g>
</g>
</svg>
