<?xml version="1.0" encoding="UTF-8" standalone="no"?>
<!DOCTYPE svg PUBLIC "-//W3C//DTD SVG 1.1//EN"
 "http://www.w3.org/Graphics/SVG/1.1/DTD/svg11.dtd">
<!-- Generated by graphviz version 12.1.2 (20240928.0832)
 -->
<!-- Title: public.policies Pages: 1 -->
<svg width="841pt" height="664pt"
 viewBox="0.00 0.00 840.66 663.60" xmlns="http://www.w3.org/2000/svg" xmlns:xlink="http://www.w3.org/1999/xlink">
<g id="graph0" class="graph" transform="scale(1 1) rotate(0) translate(4 659.6)">
<title>public.policies</title>
<polygon fill="white" stroke="none" points="-4,4 -4,-659.6 836.66,-659.6 836.66,4 -4,4"/>
<!-- public.policies -->
<g id="node1" class="node">
<title>public.policies</title>
<polygon fill="#efefef" stroke="none" points="286.42,-261.8 286.42,-297.4 559.57,-297.4 559.57,-261.8 286.42,-261.8"/>
<polygon fill="none" stroke="black" points="286.42,-261.8 286.42,-297.4 559.57,-297.4 559.57,-261.8 286.42,-261.8"/>
<text text-anchor="start" x="308.01" y="-275.2" font-family="Arial Bold" font-size="18.00">public.policies</text>
<text text-anchor="start" x="413.49" y="-275.2" font-family="Arial" font-size="14.00">    </text>
<text text-anchor="start" x="444.61" y="-275.2" font-family="Arial" font-size="14.00" fill="#666666">[BASE TABLE]</text>
<polygon fill="none" stroke="black" points="286.42,-231 286.42,-261.8 559.57,-261.8 559.57,-231 286.42,-231"/>
<text text-anchor="start" x="293.42" y="-243.2" font-family="Arial" font-size="14.00">id </text>
<text text-anchor="start" x="308.21" y="-243.2" font-family="Arial" font-size="14.00" fill="#666666">[uuid]</text>
<polygon fill="none" stroke="black" points="286.42,-200.2 286.42,-231 559.57,-231 559.57,-200.2 286.42,-200.2"/>
<text text-anchor="start" x="293.42" y="-212.4" font-family="Arial" font-size="14.00">name </text>
<text text-anchor="start" x="332.33" y="-212.4" font-family="Arial" font-size="14.00" fill="#666666">[varchar(100)]</text>
<polygon fill="none" stroke="black" points="286.42,-169.4 286.42,-200.2 559.57,-200.2 559.57,-169.4 286.42,-169.4"/>
<text text-anchor="start" x="293.42" y="-181.6" font-family="Arial" font-size="14.00">type </text>
<text text-anchor="start" x="323.78" y="-181.6" font-family="Arial" font-size="14.00" fill="#666666">[varchar(50)]</text>
<polygon fill="none" stroke="black" points="286.42,-138.6 286.42,-169.4 559.57,-169.4 559.57,-138.6 286.42,-138.6"/>
<text text-anchor="start" x="293.42" y="-150.8" font-family="Arial" font-size="14.00">rules </text>
<text text-anchor="start" x="327.66" y="-150.8" font-family="Arial" font-size="14.00" fill="#666666">[jsonb]</text>
<polygon fill="none" stroke="black" points="286.42,-107.8 286.42,-138.6 559.57,-138.6 559.57,-107.8 286.42,-107.8"/>
<text text-anchor="start" x="293.42" y="-120" font-family="Arial" font-size="14.00">severity </text>
<text text-anchor="start" x="345.55" y="-120" font-family="Arial" font-size="14.00" fill="#666666">[varchar(20)]</text>
<polygon fill="none" stroke="black" points="286.42,-77 286.42,-107.8 559.57,-107.8 559.57,-77 286.42,-77"/>
<text text-anchor="start" x="293.42" y="-89.2" font-family="Arial" font-size="14.00">created_at </text>
<text text-anchor="start" x="363.47" y="-89.2" font-family="Arial" font-size="14.00" fill="#666666">[timestamp without time zone]</text>
<polygon fill="none" stroke="black" points="286.42,-46.2 286.42,-77 559.57,-77 559.57,-46.2 286.42,-46.2"/>
<text text-anchor="start" x="293.42" y="-58.4" font-family="Arial" font-size="14.00">updated_at </text>
<text text-anchor="start" x="367.38" y="-58.4" font-family="Arial" font-size="14.00" fill="#666666">[timestamp without time zone]</text>
<polygon fill="none" stroke="black" stroke-width="3" points="284.92,-44.7 284.92,-298.9 561.07,-298.9 561.07,-44.7 284.92,-44.7"/>
</g>
<!-- public.team_policies -->
<g id="node2" class="node">
<title>public.team_policies</title>
<polygon fill="#efefef" stroke="none" points="74.02,-576.8 74.02,-612.4 361.97,-612.4 361.97,-576.8 74.02,-576.8"/>
<polygon fill="none" stroke="black" points="74.02,-576.8 74.02,-612.4 361.97,-612.4 361.97,-576.8 74.02,-576.8"/>
<text text-anchor="start" x="81.02" y="-590.2" font-family="Arial Bold" font-size="18.00">public.team_policies</text>
<text text-anchor="start" x="230.48" y="-590.2" font-family="Arial" font-size="14.00">    </text>
<text text-anchor="start" x="261.6" y="-590.2" font-family="Arial" font-size="14.00" fill="#666666">[BASE TABLE]</text>
<polygon fill="none" stroke="black" points="74.02,-546 74.02,-576.8 361.97,-576.8 361.97,-546 74.02,-546"/>
<text text-anchor="start" x="81.02" y="-558.2" font-family="Arial" font-size="14.00">id </text>
<text text-anchor="start" x="95.81" y="-558.2" font-family="Arial" font-size="14.00" fill="#666666">[uuid]</text>
<polygon fill="none" stroke="black" points="74.02,-515.2 74.02,-546 361.97,-546 361.97,-515.2 74.02,-515.2"/>
<text text-anchor="start" x="81.02" y="-527.4" font-family="Arial" font-size="14.00">team_id </text>
<text text-anchor="start" x="134.72" y="-527.4" font-family="Arial" font-size="14.00" fill="#666666">[uuid]</text>
<polygon fill="none" stroke="black" points="74.02,-484.4 74.02,-515.2 361.97,-515.2 361.97,-484.4 74.02,-484.4"/>
<text text-anchor="start" x="81.02" y="-496.6" font-family="Arial" font-size="14.00">policy_id </text>
<text text-anchor="start" x="139.39" y="-496.6" font-family="Arial" font-size="14.00" fill="#666666">[uuid]</text>
<polygon fill="none" stroke="black" points="74.02,-453.6 74.02,-484.4 361.97,-484.4 361.97,-453.6 74.02,-453.6"/>
<text text-anchor="start" x="81.02" y="-465.8" font-family="Arial" font-size="14.00">overrides </text>
<text text-anchor="start" x="142.49" y="-465.8" font-family="Arial" font-size="14.00" fill="#666666">[jsonb]</text>
<polygon fill="none" stroke="black" points="74.02,-422.8 74.02,-453.6 361.97,-453.6 361.97,-422.8 74.02,-422.8"/>
<text text-anchor="start" x="81.02" y="-435" font-family="Arial" font-size="14.00">created_at </text>
<text text-anchor="start" x="151.07" y="-435" font-family="Arial" font-size="14.00" fill="#666666">[timestamp without time zone]</text>
</g>
<!-- public.team_policies&#45;&gt;public.policies -->
<g id="edge1" class="edge">
<title>public.team_policies:policy_id&#45;&gt;public.policies:id</title>
<path fill="none" stroke="black" d="M373.09,-498.72C412.76,-489.38 388.66,-421.49 361.97,-379.6 341.99,-348.23 306.44,-374.95 286.42,-343.6 263.18,-307.19 242.22,-246.4 285.42,-246.4"/>
<polygon fill="black" stroke="black" points="373.25,-498.71 362.83,-495.29 367.94,-499.27 363.63,-499.73 363.63,-499.73 363.63,-499.73 367.94,-499.27 363.78,-504.24 373.25,-498.71"/>
<text text-anchor="start" x="7" y="-509.8" font-family="Arial" font-size="10.00">FOREIGN KEY (policy_id) REFERENCES policies(id) ON DELETE CASCADE</text>
</g>
<!-- public.employee_policies -->
<g id="node3" class="node">
<title>public.employee_policies</title>
<polygon fill="#efefef" stroke="none" points="466.53,-576.8 466.53,-612.4 789.46,-612.4 789.46,-576.8 466.53,-576.8"/>
<polygon fill="none" stroke="black" points="466.53,-576.8 466.53,-612.4 789.46,-612.4 789.46,-576.8 466.53,-576.8"/>
<text text-anchor="start" x="473.53" y="-590.2" font-family="Arial Bold" font-size="18.00">public.employee_policies</text>
<text text-anchor="start" x="657.98" y="-590.2" font-family="Arial" font-size="14.00">    </text>
<text text-anchor="start" x="689.09" y="-590.2" font-family="Arial" font-size="14.00" fill="#666666">[BASE TABLE]</text>
<polygon fill="none" stroke="black" points="466.53,-546 466.53,-576.8 789.46,-576.8 789.46,-546 466.53,-546"/>
<text text-anchor="start" x="473.53" y="-558.2" font-family="Arial" font-size="14.00">id </text>
<text text-anchor="start" x="488.31" y="-558.2" font-family="Arial" font-size="14.00" fill="#666666">[uuid]</text>
<polygon fill="none" stroke="black" points="466.53,-515.2 466.53,-546 789.46,-546 789.46,-515.2 466.53,-515.2"/>
<text text-anchor="start" x="473.53" y="-527.4" font-family="Arial" font-size="14.00">employee_id </text>
<text text-anchor="start" x="556.8" y="-527.4" font-family="Arial" font-size="14.00" fill="#666666">[uuid]</text>
<polygon fill="none" stroke="black" points="466.53,-484.4 466.53,-515.2 789.46,-515.2 789.46,-484.4 466.53,-484.4"/>
<text text-anchor="start" x="473.53" y="-496.6" font-family="Arial" font-size="14.00">policy_id </text>
<text text-anchor="start" x="531.89" y="-496.6" font-family="Arial" font-size="14.00" fill="#666666">[uuid]</text>
<polygon fill="none" stroke="black" points="466.53,-453.6 466.53,-484.4 789.46,-484.4 789.46,-453.6 466.53,-453.6"/>
<text text-anchor="start" x="473.53" y="-465.8" font-family="Arial" font-size="14.00">overrides </text>
<text text-anchor="start" x="535" y="-465.8" font-family="Arial" font-size="14.00" fill="#666666">[jsonb]</text>
<polygon fill="none" stroke="black" points="466.53,-422.8 466.53,-453.6 789.46,-453.6 789.46,-422.8 466.53,-422.8"/>
<text text-anchor="start" x="473.53" y="-435" font-family="Arial" font-size="14.00">created_at </text>
<text text-anchor="start" x="543.58" y="-435" font-family="Arial" font-size="14.00" fill="#666666">[timestamp without time zone]</text>
</g>
<!-- public.employee_policies&#45;&gt;public.policies -->
<g id="edge2" class="edge">
<title>public.employee_policies:policy_id&#45;&gt;public.policies:id</title>
<path fill="none" stroke="black" d="M455.38,-498.71C415.52,-489.24 438.28,-420.45 466.53,-379.6 491.74,-343.13 534.32,-380.04 559.57,-343.6 584.17,-308.09 603.77,-246.4 560.57,-246.4"/>
<polygon fill="black" stroke="black" points="455.25,-498.69 464.71,-504.24 460.56,-499.26 464.86,-499.73 464.86,-499.73 464.86,-499.73 460.56,-499.26 465.68,-495.29 455.25,-498.69"/>
<text text-anchor="start" x="472.53" y="-509.8" font-family="Arial" font-size="10.00">FOREIGN KEY (policy_id) REFERENCES policies(id) ON DELETE CASCADE</text>
</g>
</g>
</svg>
