<?xml version="1.0" encoding="UTF-8" standalone="no"?>
<!DOCTYPE svg PUBLIC "-//W3C//DTD SVG 1.1//EN"
 "http://www.w3.org/Graphics/SVG/1.1/DTD/svg11.dtd">
<!-- Generated by graphviz version 12.1.2 (20240928.0832)
 -->
<!-- Title: public.invitations Pages: 1 -->
<svg width="1521pt" height="1095pt"
 viewBox="0.00 0.00 1521.45 1094.80" xmlns="http://www.w3.org/2000/svg" xmlns:xlink="http://www.w3.org/1999/xlink">
<g id="graph0" class="graph" transform="scale(1 1) rotate(0) translate(4 1090.8)">
<title>public.invitations</title>
<polygon fill="white" stroke="none" points="-4,4 -4,-1090.8 1517.45,-1090.8 1517.45,4 -4,4"/>
<!-- public.invitations -->
<g id="node1" class="node">
<title>public.invitations</title>
<polygon fill="#efefef" stroke="none" points="434,-1005 434,-1040.6 713.35,-1040.6 713.35,-1005 434,-1005"/>
<polygon fill="none" stroke="black" points="434,-1005 434,-1040.6 713.35,-1040.6 713.35,-1005 434,-1005"/>
<text text-anchor="start" x="448.69" y="-1018.4" font-family="Arial Bold" font-size="18.00">public.invitations</text>
<text text-anchor="start" x="574.18" y="-1018.4" font-family="Arial" font-size="14.00">    </text>
<text text-anchor="start" x="605.29" y="-1018.4" font-family="Arial" font-size="14.00" fill="#666666">[BASE TABLE]</text>
<polygon fill="none" stroke="black" points="434,-974.2 434,-1005 713.35,-1005 713.35,-974.2 434,-974.2"/>
<text text-anchor="start" x="441" y="-986.4" font-family="Arial" font-size="14.00">id </text>
<text text-anchor="start" x="455.78" y="-986.4" font-family="Arial" font-size="14.00" fill="#666666">[uuid]</text>
<polygon fill="none" stroke="black" points="434,-943.4 434,-974.2 713.35,-974.2 713.35,-943.4 434,-943.4"/>
<text text-anchor="start" x="441" y="-955.6" font-family="Arial" font-size="14.00">org_id </text>
<text text-anchor="start" x="483.8" y="-955.6" font-family="Arial" font-size="14.00" fill="#666666">[uuid]</text>
<polygon fill="none" stroke="black" points="434,-912.6 434,-943.4 713.35,-943.4 713.35,-912.6 434,-912.6"/>
<text text-anchor="start" x="441" y="-924.8" font-family="Arial" font-size="14.00">inviter_id </text>
<text text-anchor="start" x="500.91" y="-924.8" font-family="Arial" font-size="14.00" fill="#666666">[uuid]</text>
<polygon fill="none" stroke="black" points="434,-881.8 434,-912.6 713.35,-912.6 713.35,-881.8 434,-881.8"/>
<text text-anchor="start" x="441" y="-894" font-family="Arial" font-size="14.00">email </text>
<text text-anchor="start" x="478.34" y="-894" font-family="Arial" font-size="14.00" fill="#666666">[varchar(255)]</text>
<polygon fill="none" stroke="black" points="434,-851 434,-881.8 713.35,-881.8 713.35,-851 434,-851"/>
<text text-anchor="start" x="441" y="-863.2" font-family="Arial" font-size="14.00">role_id </text>
<text text-anchor="start" x="486.91" y="-863.2" font-family="Arial" font-size="14.00" fill="#666666">[uuid]</text>
<polygon fill="none" stroke="black" points="434,-820.2 434,-851 713.35,-851 713.35,-820.2 434,-820.2"/>
<text text-anchor="start" x="441" y="-832.4" font-family="Arial" font-size="14.00">team_id </text>
<text text-anchor="start" x="494.69" y="-832.4" font-family="Arial" font-size="14.00" fill="#666666">[uuid]</text>
<polygon fill="none" stroke="black" points="434,-789.4 434,-820.2 713.35,-820.2 713.35,-789.4 434,-789.4"/>
<text text-anchor="start" x="441" y="-801.6" font-family="Arial" font-size="14.00">token </text>
<text text-anchor="start" x="479.13" y="-801.6" font-family="Arial" font-size="14.00" fill="#666666">[varchar(64)]</text>
<polygon fill="none" stroke="black" points="434,-758.6 434,-789.4 713.35,-789.4 713.35,-758.6 434,-758.6"/>
<text text-anchor="start" x="441" y="-770.8" font-family="Arial" font-size="14.00">status </text>
<text text-anchor="start" x="482.24" y="-770.8" font-family="Arial" font-size="14.00" fill="#666666">[varchar(50)]</text>
<polygon fill="none" stroke="black" points="434,-727.8 434,-758.6 713.35,-758.6 713.35,-727.8 434,-727.8"/>
<text text-anchor="start" x="441" y="-740" font-family="Arial" font-size="14.00">expires_at </text>
<text text-anchor="start" x="509.48" y="-740" font-family="Arial" font-size="14.00" fill="#666666">[timestamp without time zone]</text>
<polygon fill="none" stroke="black" points="434,-697 434,-727.8 713.35,-727.8 713.35,-697 434,-697"/>
<text text-anchor="start" x="441" y="-709.2" font-family="Arial" font-size="14.00">accepted_by </text>
<text text-anchor="start" x="524.28" y="-709.2" font-family="Arial" font-size="14.00" fill="#666666">[uuid]</text>
<polygon fill="none" stroke="black" points="434,-666.2 434,-697 713.35,-697 713.35,-666.2 434,-666.2"/>
<text text-anchor="start" x="441" y="-678.4" font-family="Arial" font-size="14.00">accepted_at </text>
<text text-anchor="start" x="521.17" y="-678.4" font-family="Arial" font-size="14.00" fill="#666666">[timestamp without time zone]</text>
<polygon fill="none" stroke="black" points="434,-635.4 434,-666.2 713.35,-666.2 713.35,-635.4 434,-635.4"/>
<text text-anchor="start" x="441" y="-647.6" font-family="Arial" font-size="14.00">created_at </text>
<text text-anchor="start" x="511.04" y="-647.6" font-family="Arial" font-size="14.00" fill="#666666">[timestamp without time zone]</text>
<polygon fill="none" stroke="black" points="434,-604.6 434,-635.4 713.35,-635.4 713.35,-604.6 434,-604.6"/>
<text text-anchor="start" x="441" y="-616.8" font-family="Arial" font-size="14.00">updated_at </text>
<text text-anchor="start" x="514.95" y="-616.8" font-family="Arial" font-size="14.00" fill="#666666">[timestamp without time zone]</text>
<polygon fill="none" stroke="black" stroke-width="3" points="432.5,-603.1 432.5,-1042.1 714.85,-1042.1 714.85,-603.1 432.5,-603.1"/>
</g>
<!-- public.organizations -->
<g id="node2" class="node">
<title>public.organizations</title>
<polygon fill="#efefef" stroke="none" points="43.2,-351.2 43.2,-386.8 328.15,-386.8 328.15,-351.2 43.2,-351.2"/>
<polygon fill="none" stroke="black" points="43.2,-351.2 43.2,-386.8 328.15,-386.8 328.15,-351.2 43.2,-351.2"/>
<text text-anchor="start" x="50.2" y="-364.6" font-family="Arial Bold" font-size="18.00">public.organizations</text>
<text text-anchor="start" x="196.66" y="-364.6" font-family="Arial" font-size="14.00">    </text>
<text text-anchor="start" x="227.78" y="-364.6" font-family="Arial" font-size="14.00" fill="#666666">[BASE TABLE]</text>
<polygon fill="none" stroke="black" points="43.2,-320.4 43.2,-351.2 328.15,-351.2 328.15,-320.4 43.2,-320.4"/>
<text text-anchor="start" x="50.2" y="-332.6" font-family="Arial" font-size="14.00">id </text>
<text text-anchor="start" x="64.99" y="-332.6" font-family="Arial" font-size="14.00" fill="#666666">[uuid]</text>
<polygon fill="none" stroke="black" points="43.2,-289.6 43.2,-320.4 328.15,-320.4 328.15,-289.6 43.2,-289.6"/>
<text text-anchor="start" x="50.2" y="-301.8" font-family="Arial" font-size="14.00">name </text>
<text text-anchor="start" x="89.11" y="-301.8" font-family="Arial" font-size="14.00" fill="#666666">[varchar(255)]</text>
<polygon fill="none" stroke="black" points="43.2,-258.8 43.2,-289.6 328.15,-289.6 328.15,-258.8 43.2,-258.8"/>
<text text-anchor="start" x="50.2" y="-271" font-family="Arial" font-size="14.00">slug </text>
<text text-anchor="start" x="79.77" y="-271" font-family="Arial" font-size="14.00" fill="#666666">[varchar(100)]</text>
<polygon fill="none" stroke="black" points="43.2,-228 43.2,-258.8 328.15,-258.8 328.15,-228 43.2,-228"/>
<text text-anchor="start" x="50.2" y="-240.2" font-family="Arial" font-size="14.00">settings </text>
<text text-anchor="start" x="102.34" y="-240.2" font-family="Arial" font-size="14.00" fill="#666666">[jsonb]</text>
<polygon fill="none" stroke="black" points="43.2,-197.2 43.2,-228 328.15,-228 328.15,-197.2 43.2,-197.2"/>
<text text-anchor="start" x="50.2" y="-209.4" font-family="Arial" font-size="14.00">max_employees </text>
<text text-anchor="start" x="156.03" y="-209.4" font-family="Arial" font-size="14.00" fill="#666666">[integer]</text>
<polygon fill="none" stroke="black" points="43.2,-166.4 43.2,-197.2 328.15,-197.2 328.15,-166.4 43.2,-166.4"/>
<text text-anchor="start" x="50.2" y="-178.6" font-family="Arial" font-size="14.00">created_at </text>
<text text-anchor="start" x="120.25" y="-178.6" font-family="Arial" font-size="14.00" fill="#666666">[timestamp without time zone]</text>
<polygon fill="none" stroke="black" points="43.2,-135.6 43.2,-166.4 328.15,-166.4 328.15,-135.6 43.2,-135.6"/>
<text text-anchor="start" x="50.2" y="-147.8" font-family="Arial" font-size="14.00">updated_at </text>
<text text-anchor="start" x="124.16" y="-147.8" font-family="Arial" font-size="14.00" fill="#666666">[timestamp without time zone]</text>
</g>
<!-- public.invitations&#45;&gt;public.organizations -->
<g id="edge1" class="edge">
<title>public.invitations:org_id&#45;&gt;public.organizations:id</title>
<path fill="none" stroke="black" d="M423.81,-954.82C366.01,-901.76 396.04,-335.8 329.15,-335.8"/>
<polygon fill="black" stroke="black" points="423.51,-954.69 430.9,-962.8 428.41,-956.81 432.38,-958.53 432.38,-958.53 432.38,-958.53 428.41,-956.81 434.48,-954.54 423.51,-954.69"/>
<text text-anchor="start" x="62.01" y="-968.8" font-family="Arial" font-size="10.00">FOREIGN KEY (org_id) REFERENCES organizations(id) ON DELETE CASCADE</text>
</g>
<!-- public.employees -->
<g id="node3" class="node">
<title>public.employees</title>
<polygon fill="#efefef" stroke="none" points="432.83,-443.6 432.83,-479.2 714.52,-479.2 714.52,-443.6 432.83,-443.6"/>
<polygon fill="none" stroke="black" points="432.83,-443.6 432.83,-479.2 714.52,-479.2 714.52,-443.6 432.83,-443.6"/>
<text text-anchor="start" x="448.2" y="-457" font-family="Arial Bold" font-size="18.00">public.employees</text>
<text text-anchor="start" x="574.66" y="-457" font-family="Arial" font-size="14.00">    </text>
<text text-anchor="start" x="605.78" y="-457" font-family="Arial" font-size="14.00" fill="#666666">[BASE TABLE]</text>
<polygon fill="none" stroke="black" points="432.83,-412.8 432.83,-443.6 714.52,-443.6 714.52,-412.8 432.83,-412.8"/>
<text text-anchor="start" x="439.83" y="-425" font-family="Arial" font-size="14.00">id </text>
<text text-anchor="start" x="454.62" y="-425" font-family="Arial" font-size="14.00" fill="#666666">[uuid]</text>
<polygon fill="none" stroke="black" points="432.83,-382 432.83,-412.8 714.52,-412.8 714.52,-382 432.83,-382"/>
<text text-anchor="start" x="439.83" y="-394.2" font-family="Arial" font-size="14.00">org_id </text>
<text text-anchor="start" x="482.64" y="-394.2" font-family="Arial" font-size="14.00" fill="#666666">[uuid]</text>
<polygon fill="none" stroke="black" points="432.83,-351.2 432.83,-382 714.52,-382 714.52,-351.2 432.83,-351.2"/>
<text text-anchor="start" x="439.83" y="-363.4" font-family="Arial" font-size="14.00">team_id </text>
<text text-anchor="start" x="493.53" y="-363.4" font-family="Arial" font-size="14.00" fill="#666666">[uuid]</text>
<polygon fill="none" stroke="black" points="432.83,-320.4 432.83,-351.2 714.52,-351.2 714.52,-320.4 432.83,-320.4"/>
<text text-anchor="start" x="439.83" y="-332.6" font-family="Arial" font-size="14.00">role_id </text>
<text text-anchor="start" x="485.75" y="-332.6" font-family="Arial" font-size="14.00" fill="#666666">[uuid]</text>
<polygon fill="none" stroke="black" points="432.83,-289.6 432.83,-320.4 714.52,-320.4 714.52,-289.6 432.83,-289.6"/>
<text text-anchor="start" x="439.83" y="-301.8" font-family="Arial" font-size="14.00">email </text>
<text text-anchor="start" x="477.18" y="-301.8" font-family="Arial" font-size="14.00" fill="#666666">[varchar(255)]</text>
<polygon fill="none" stroke="black" points="432.83,-258.8 432.83,-289.6 714.52,-289.6 714.52,-258.8 432.83,-258.8"/>
<text text-anchor="start" x="439.83" y="-271" font-family="Arial" font-size="14.00">full_name </text>
<text text-anchor="start" x="504.42" y="-271" font-family="Arial" font-size="14.00" fill="#666666">[varchar(255)]</text>
<polygon fill="none" stroke="black" points="432.83,-228 432.83,-258.8 714.52,-258.8 714.52,-228 432.83,-228"/>
<text text-anchor="start" x="439.83" y="-240.2" font-family="Arial" font-size="14.00">password_hash </text>
<text text-anchor="start" x="541.78" y="-240.2" font-family="Arial" font-size="14.00" fill="#666666">[varchar(255)]</text>
<polygon fill="none" stroke="black" points="432.83,-197.2 432.83,-228 714.52,-228 714.52,-197.2 432.83,-197.2"/>
<text text-anchor="start" x="439.83" y="-209.4" font-family="Arial" font-size="14.00">status </text>
<text text-anchor="start" x="481.07" y="-209.4" font-family="Arial" font-size="14.00" fill="#666666">[varchar(50)]</text>
<polygon fill="none" stroke="black" points="432.83,-166.4 432.83,-197.2 714.52,-197.2 714.52,-166.4 432.83,-166.4"/>
<text text-anchor="start" x="439.83" y="-178.6" font-family="Arial" font-size="14.00">preferences </text>
<text text-anchor="start" x="517.65" y="-178.6" font-family="Arial" font-size="14.00" fill="#666666">[jsonb]</text>
<polygon fill="none" stroke="black" points="432.83,-135.6 432.83,-166.4 714.52,-166.4 714.52,-135.6 432.83,-135.6"/>
<text text-anchor="start" x="439.83" y="-147.8" font-family="Arial" font-size="14.00">last_login_at </text>
<text text-anchor="start" x="522.33" y="-147.8" font-family="Arial" font-size="14.00" fill="#666666">[timestamp without time zone]</text>
<polygon fill="none" stroke="black" points="432.83,-104.8 432.83,-135.6 714.52,-135.6 714.52,-104.8 432.83,-104.8"/>
<text text-anchor="start" x="439.83" y="-117" font-family="Arial" font-size="14.00">created_at </text>
<text text-anchor="start" x="509.88" y="-117" font-family="Arial" font-size="14.00" fill="#666666">[timestamp without time zone]</text>
<polygon fill="none" stroke="black" points="432.83,-74 432.83,-104.8 714.52,-104.8 714.52,-74 432.83,-74"/>
<text text-anchor="start" x="439.83" y="-86.2" font-family="Arial" font-size="14.00">updated_at </text>
<text text-anchor="start" x="513.79" y="-86.2" font-family="Arial" font-size="14.00" fill="#666666">[timestamp without time zone]</text>
<polygon fill="none" stroke="black" points="432.83,-43.2 432.83,-74 714.52,-74 714.52,-43.2 432.83,-43.2"/>
<text text-anchor="start" x="439.83" y="-55.4" font-family="Arial" font-size="14.00">deleted_at </text>
<text text-anchor="start" x="509.11" y="-55.4" font-family="Arial" font-size="14.00" fill="#666666">[timestamp without time zone]</text>
</g>
<!-- public.invitations&#45;&gt;public.employees -->
<g id="edge2" class="edge">
<title>public.invitations:inviter_id&#45;&gt;public.employees:id</title>
<path fill="none" stroke="black" d="M723.27,-923.37C769.84,-872.99 767.91,-428.2 715.52,-428.2"/>
<polygon fill="black" stroke="black" points="723.53,-923.24 712.58,-923.85 718.79,-925.7 714.95,-927.69 714.95,-927.69 714.95,-927.69 718.79,-925.7 716.72,-931.84 723.53,-923.24"/>
<text text-anchor="start" x="721.35" y="-938" font-family="Arial" font-size="10.00">FOREIGN KEY (inviter_id) REFERENCES employees(id) ON DELETE CASCADE</text>
</g>
<!-- public.invitations&#45;&gt;public.employees -->
<g id="edge5" class="edge">
<title>public.invitations:accepted_by&#45;&gt;public.employees:id</title>
<path fill="none" stroke="black" d="M724.16,-709.94C777.45,-682.17 775.22,-428.2 715.52,-428.2"/>
<polygon fill="black" stroke="black" points="724.38,-709.89 713.58,-707.95 719.2,-711.18 715,-712.24 715,-712.24 715,-712.24 719.2,-711.18 715.77,-716.68 724.38,-709.89"/>
<text text-anchor="start" x="721.35" y="-722.4" font-family="Arial" font-size="10.00">FOREIGN KEY (accepted_by) REFERENCES employees(id) ON DELETE SET NULL</text>
</g>
<!-- public.roles -->
<g id="node4" class="node">
<title>public.roles</title>
<polygon fill="#efefef" stroke="none" points="819.1,-335.8 819.1,-371.4 1092.25,-371.4 1092.25,-335.8 819.1,-335.8"/>
<polygon fill="none" stroke="black" points="819.1,-335.8 819.1,-371.4 1092.25,-371.4 1092.25,-335.8 819.1,-335.8"/>
<text text-anchor="start" x="851.19" y="-349.2" font-family="Arial Bold" font-size="18.00">public.roles</text>
<text text-anchor="start" x="935.67" y="-349.2" font-family="Arial" font-size="14.00">    </text>
<text text-anchor="start" x="966.79" y="-349.2" font-family="Arial" font-size="14.00" fill="#666666">[BASE TABLE]</text>
<polygon fill="none" stroke="black" points="819.1,-305 819.1,-335.8 1092.25,-335.8 1092.25,-305 819.1,-305"/>
<text text-anchor="start" x="826.1" y="-317.2" font-family="Arial" font-size="14.00">id </text>
<text text-anchor="start" x="840.89" y="-317.2" font-family="Arial" font-size="14.00" fill="#666666">[uuid]</text>
<polygon fill="none" stroke="black" points="819.1,-274.2 819.1,-305 1092.25,-305 1092.25,-274.2 819.1,-274.2"/>
<text text-anchor="start" x="826.1" y="-286.4" font-family="Arial" font-size="14.00">name </text>
<text text-anchor="start" x="865.01" y="-286.4" font-family="Arial" font-size="14.00" fill="#666666">[varchar(100)]</text>
<polygon fill="none" stroke="black" points="819.1,-243.4 819.1,-274.2 1092.25,-274.2 1092.25,-243.4 819.1,-243.4"/>
<text text-anchor="start" x="826.1" y="-255.6" font-family="Arial" font-size="14.00">description </text>
<text text-anchor="start" x="897.7" y="-255.6" font-family="Arial" font-size="14.00" fill="#666666">[text]</text>
<polygon fill="none" stroke="black" points="819.1,-212.6 819.1,-243.4 1092.25,-243.4 1092.25,-212.6 819.1,-212.6"/>
<text text-anchor="start" x="826.1" y="-224.8" font-family="Arial" font-size="14.00">permissions </text>
<text text-anchor="start" x="904.68" y="-224.8" font-family="Arial" font-size="14.00" fill="#666666">[jsonb]</text>
<polygon fill="none" stroke="black" points="819.1,-181.8 819.1,-212.6 1092.25,-212.6 1092.25,-181.8 819.1,-181.8"/>
<text text-anchor="start" x="826.1" y="-194" font-family="Arial" font-size="14.00">created_at </text>
<text text-anchor="start" x="896.15" y="-194" font-family="Arial" font-size="14.00" fill="#666666">[timestamp without time zone]</text>
<polygon fill="none" stroke="black" points="819.1,-151 819.1,-181.8 1092.25,-181.8 1092.25,-151 819.1,-151"/>
<text text-anchor="start" x="826.1" y="-163.2" font-family="Arial" font-size="14.00">updated_at </text>
<text text-anchor="start" x="900.06" y="-163.2" font-family="Arial" font-size="14.00" fill="#666666">[timestamp without time zone]</text>
</g>
<!-- public.invitations&#45;&gt;public.roles -->
<g id="edge3" class="edge">
<title>public.invitations:role_id&#45;&gt;public.roles:id</title>
<path fill="none" stroke="black" d="M723.47,-862.01C774.25,-810.33 759.61,-320.4 818.1,-320.4"/>
<polygon fill="black" stroke="black" points="723.66,-861.91 712.7,-862.2 718.86,-864.23 714.96,-866.11 714.96,-866.11 714.96,-866.11 718.86,-864.23 716.61,-870.31 723.66,-861.91"/>
<text text-anchor="start" x="721.35" y="-876.4" font-family="Arial" font-size="10.00">FOREIGN KEY (role_id) REFERENCES roles(id)</text>
</g>
<!-- public.teams -->
<g id="node5" class="node">
<title>public.teams</title>
<polygon fill="#efefef" stroke="none" points="1197.1,-335.8 1197.1,-371.4 1470.25,-371.4 1470.25,-335.8 1197.1,-335.8"/>
<polygon fill="none" stroke="black" points="1197.1,-335.8 1197.1,-371.4 1470.25,-371.4 1470.25,-335.8 1197.1,-335.8"/>
<text text-anchor="start" x="1225.69" y="-349.2" font-family="Arial Bold" font-size="18.00">public.teams</text>
<text text-anchor="start" x="1317.17" y="-349.2" font-family="Arial" font-size="14.00">    </text>
<text text-anchor="start" x="1348.29" y="-349.2" font-family="Arial" font-size="14.00" fill="#666666">[BASE TABLE]</text>
<polygon fill="none" stroke="black" points="1197.1,-305 1197.1,-335.8 1470.25,-335.8 1470.25,-305 1197.1,-305"/>
<text text-anchor="start" x="1204.1" y="-317.2" font-family="Arial" font-size="14.00">id </text>
<text text-anchor="start" x="1218.89" y="-317.2" font-family="Arial" font-size="14.00" fill="#666666">[uuid]</text>
<polygon fill="none" stroke="black" points="1197.1,-274.2 1197.1,-305 1470.25,-305 1470.25,-274.2 1197.1,-274.2"/>
<text text-anchor="start" x="1204.1" y="-286.4" font-family="Arial" font-size="14.00">org_id </text>
<text text-anchor="start" x="1246.91" y="-286.4" font-family="Arial" font-size="14.00" fill="#666666">[uuid]</text>
<polygon fill="none" stroke="black" points="1197.1,-243.4 1197.1,-274.2 1470.25,-274.2 1470.25,-243.4 1197.1,-243.4"/>
<text text-anchor="start" x="1204.1" y="-255.6" font-family="Arial" font-size="14.00">name </text>
<text text-anchor="start" x="1243.01" y="-255.6" font-family="Arial" font-size="14.00" fill="#666666">[varchar(255)]</text>
<polygon fill="none" stroke="black" points="1197.1,-212.6 1197.1,-243.4 1470.25,-243.4 1470.25,-212.6 1197.1,-212.6"/>
<text text-anchor="start" x="1204.1" y="-224.8" font-family="Arial" font-size="14.00">description </text>
<text text-anchor="start" x="1275.7" y="-224.8" font-family="Arial" font-size="14.00" fill="#666666">[text]</text>
<polygon fill="none" stroke="black" points="1197.1,-181.8 1197.1,-212.6 1470.25,-212.6 1470.25,-181.8 1197.1,-181.8"/>
<text text-anchor="start" x="1204.1" y="-194" font-family="Arial" font-size="14.00">created_at </text>
<text text-anchor="start" x="1274.15" y="-194" font-family="Arial" font-size="14.00" fill="#666666">[timestamp without time zone]</text>
<polygon fill="none" stroke="black" points="1197.1,-151 1197.1,-181.8 1470.25,-181.8 1470.25,-151 1197.1,-151"/>
<text text-anchor="start" x="1204.1" y="-163.2" font-family="Arial" font-size="14.00">updated_at </text>
<text text-anchor="start" x="1278.06" y="-163.2" font-family="Arial" font-size="14.00" fill="#666666">[timestamp without time zone]</text>
</g>
<!-- public.invitations&#45;&gt;public.teams -->
<g id="edge4" class="edge">
<title>public.invitations:team_id&#45;&gt;public.teams:id</title>
<path fill="none" stroke="black" d="M724.64,-835.52C952.71,-832.14 1013.94,-715.37 1144.68,-522.4 1196.64,-445.7 1103.46,-320.4 1196.1,-320.4"/>
<polygon fill="black" stroke="black" points="724.69,-835.52 714.66,-831.1 719.35,-835.56 715.02,-835.6 715.02,-835.6 715.02,-835.6 719.35,-835.56 714.72,-840.1 724.69,-835.52"/>
<text text-anchor="start" x="721.35" y="-845.6" font-family="Arial" font-size="10.00">FOREIGN KEY (team_id) REFERENCES teams(id) ON DELETE SET NULL</text>
</g>
</g>
</svg>
