<?xml version="1.0" encoding="UTF-8" standalone="no"?>
<!DOCTYPE svg PUBLIC "-//W3C//DTD SVG 1.1//EN"
 "http://www.w3.org/Graphics/SVG/1.1/DTD/svg11.dtd">
<!-- Generated by graphviz version 12.1.2 (20240928.0832)
 -->
<!-- Title: public.approvals Pages: 1 -->
<svg width="1084pt" height="941pt"
 viewBox="0.00 0.00 1083.68 940.80" xmlns="http://www.w3.org/2000/svg" xmlns:xlink="http://www.w3.org/1999/xlink">
<g id="graph0" class="graph" transform="scale(1 1) rotate(0) translate(4 936.8)">
<title>public.approvals</title>
<polygon fill="white" stroke="none" points="-4,4 -4,-936.8 1079.68,-936.8 1079.68,4 -4,4"/>
<!-- public.approvals -->
<g id="node1" class="node">
<title>public.approvals</title>
<polygon fill="#efefef" stroke="none" points="407.35,-851 407.35,-886.6 682.8,-886.6 682.8,-851 407.35,-851"/>
<polygon fill="none" stroke="black" points="407.35,-851 407.35,-886.6 682.8,-886.6 682.8,-851 407.35,-851"/>
<text text-anchor="start" x="423.1" y="-864.4" font-family="Arial Bold" font-size="18.00">public.approvals</text>
<text text-anchor="start" x="542.57" y="-864.4" font-family="Arial" font-size="14.00">    </text>
<text text-anchor="start" x="573.68" y="-864.4" font-family="Arial" font-size="14.00" fill="#666666">[BASE TABLE]</text>
<polygon fill="none" stroke="black" points="407.35,-820.2 407.35,-851 682.8,-851 682.8,-820.2 407.35,-820.2"/>
<text text-anchor="start" x="414.35" y="-832.4" font-family="Arial" font-size="14.00">id </text>
<text text-anchor="start" x="429.13" y="-832.4" font-family="Arial" font-size="14.00" fill="#666666">[uuid]</text>
<polygon fill="none" stroke="black" points="407.35,-789.4 407.35,-820.2 682.8,-820.2 682.8,-789.4 407.35,-789.4"/>
<text text-anchor="start" x="414.35" y="-801.6" font-family="Arial" font-size="14.00">request_id </text>
<text text-anchor="start" x="483.62" y="-801.6" font-family="Arial" font-size="14.00" fill="#666666">[uuid]</text>
<polygon fill="none" stroke="black" points="407.35,-758.6 407.35,-789.4 682.8,-789.4 682.8,-758.6 407.35,-758.6"/>
<text text-anchor="start" x="414.35" y="-770.8" font-family="Arial" font-size="14.00">approver_id </text>
<text text-anchor="start" x="492.18" y="-770.8" font-family="Arial" font-size="14.00" fill="#666666">[uuid]</text>
<polygon fill="none" stroke="black" points="407.35,-727.8 407.35,-758.6 682.8,-758.6 682.8,-727.8 407.35,-727.8"/>
<text text-anchor="start" x="414.35" y="-740" font-family="Arial" font-size="14.00">status </text>
<text text-anchor="start" x="455.59" y="-740" font-family="Arial" font-size="14.00" fill="#666666">[varchar(50)]</text>
<polygon fill="none" stroke="black" points="407.35,-697 407.35,-727.8 682.8,-727.8 682.8,-697 407.35,-697"/>
<text text-anchor="start" x="414.35" y="-709.2" font-family="Arial" font-size="14.00">comment </text>
<text text-anchor="start" x="475.81" y="-709.2" font-family="Arial" font-size="14.00" fill="#666666">[text]</text>
<polygon fill="none" stroke="black" points="407.35,-666.2 407.35,-697 682.8,-697 682.8,-666.2 407.35,-666.2"/>
<text text-anchor="start" x="414.35" y="-678.4" font-family="Arial" font-size="14.00">created_at </text>
<text text-anchor="start" x="484.4" y="-678.4" font-family="Arial" font-size="14.00" fill="#666666">[timestamp without time zone]</text>
<polygon fill="none" stroke="black" points="407.35,-635.4 407.35,-666.2 682.8,-666.2 682.8,-635.4 407.35,-635.4"/>
<text text-anchor="start" x="414.35" y="-647.6" font-family="Arial" font-size="14.00">resolved_at </text>
<text text-anchor="start" x="490.62" y="-647.6" font-family="Arial" font-size="14.00" fill="#666666">[timestamp without time zone]</text>
<polygon fill="none" stroke="black" stroke-width="3" points="405.85,-633.9 405.85,-888.1 684.3,-888.1 684.3,-633.9 405.85,-633.9"/>
</g>
<!-- public.agent_requests -->
<g id="node2" class="node">
<title>public.agent_requests</title>
<polygon fill="#efefef" stroke="none" points="201.6,-382 201.6,-417.6 496.55,-417.6 496.55,-382 201.6,-382"/>
<polygon fill="none" stroke="black" points="201.6,-382 201.6,-417.6 496.55,-417.6 496.55,-382 201.6,-382"/>
<text text-anchor="start" x="208.6" y="-395.4" font-family="Arial Bold" font-size="18.00">public.agent_requests</text>
<text text-anchor="start" x="365.06" y="-395.4" font-family="Arial" font-size="14.00">    </text>
<text text-anchor="start" x="396.18" y="-395.4" font-family="Arial" font-size="14.00" fill="#666666">[BASE TABLE]</text>
<polygon fill="none" stroke="black" points="201.6,-351.2 201.6,-382 496.55,-382 496.55,-351.2 201.6,-351.2"/>
<text text-anchor="start" x="208.6" y="-363.4" font-family="Arial" font-size="14.00">id </text>
<text text-anchor="start" x="223.39" y="-363.4" font-family="Arial" font-size="14.00" fill="#666666">[uuid]</text>
<polygon fill="none" stroke="black" points="201.6,-320.4 201.6,-351.2 496.55,-351.2 496.55,-320.4 201.6,-320.4"/>
<text text-anchor="start" x="208.6" y="-332.6" font-family="Arial" font-size="14.00">employee_id </text>
<text text-anchor="start" x="291.88" y="-332.6" font-family="Arial" font-size="14.00" fill="#666666">[uuid]</text>
<polygon fill="none" stroke="black" points="201.6,-289.6 201.6,-320.4 496.55,-320.4 496.55,-289.6 201.6,-289.6"/>
<text text-anchor="start" x="208.6" y="-301.8" font-family="Arial" font-size="14.00">request_type </text>
<text text-anchor="start" x="293.44" y="-301.8" font-family="Arial" font-size="14.00" fill="#666666">[varchar(50)]</text>
<polygon fill="none" stroke="black" points="201.6,-258.8 201.6,-289.6 496.55,-289.6 496.55,-258.8 201.6,-258.8"/>
<text text-anchor="start" x="208.6" y="-271" font-family="Arial" font-size="14.00">request_data </text>
<text text-anchor="start" x="294.22" y="-271" font-family="Arial" font-size="14.00" fill="#666666">[jsonb]</text>
<polygon fill="none" stroke="black" points="201.6,-228 201.6,-258.8 496.55,-258.8 496.55,-228 201.6,-228"/>
<text text-anchor="start" x="208.6" y="-240.2" font-family="Arial" font-size="14.00">status </text>
<text text-anchor="start" x="249.85" y="-240.2" font-family="Arial" font-size="14.00" fill="#666666">[varchar(50)]</text>
<polygon fill="none" stroke="black" points="201.6,-197.2 201.6,-228 496.55,-228 496.55,-197.2 201.6,-197.2"/>
<text text-anchor="start" x="208.6" y="-209.4" font-family="Arial" font-size="14.00">reason </text>
<text text-anchor="start" x="255.3" y="-209.4" font-family="Arial" font-size="14.00" fill="#666666">[text]</text>
<polygon fill="none" stroke="black" points="201.6,-166.4 201.6,-197.2 496.55,-197.2 496.55,-166.4 201.6,-166.4"/>
<text text-anchor="start" x="208.6" y="-178.6" font-family="Arial" font-size="14.00">created_at </text>
<text text-anchor="start" x="278.65" y="-178.6" font-family="Arial" font-size="14.00" fill="#666666">[timestamp without time zone]</text>
<polygon fill="none" stroke="black" points="201.6,-135.6 201.6,-166.4 496.55,-166.4 496.55,-135.6 201.6,-135.6"/>
<text text-anchor="start" x="208.6" y="-147.8" font-family="Arial" font-size="14.00">resolved_at </text>
<text text-anchor="start" x="284.87" y="-147.8" font-family="Arial" font-size="14.00" fill="#666666">[timestamp without time zone]</text>
</g>
<!-- public.approvals&#45;&gt;public.agent_requests -->
<g id="edge1" class="edge">
<title>public.approvals:request_id&#45;&gt;public.agent_requests:id</title>
<path fill="none" stroke="black" d="M396.09,-804.59C174.23,-795.05 493.74,-469.61 496.55,-460.8 509.28,-420.91 539.42,-366.6 497.55,-366.6"/>
<polygon fill="black" stroke="black" points="396.02,-804.58 405.92,-809.29 401.35,-804.7 405.68,-804.79 405.68,-804.79 405.68,-804.79 401.35,-804.7 406.11,-800.29 396.02,-804.58"/>
<text text-anchor="start" x="7" y="-814.8" font-family="Arial" font-size="10.00">FOREIGN KEY (request_id) REFERENCES agent_requests(id) ON DELETE CASCADE</text>
</g>
<!-- public.employees -->
<g id="node3" class="node">
<title>public.employees</title>
<polygon fill="#efefef" stroke="none" points="601.23,-474.4 601.23,-510 882.92,-510 882.92,-474.4 601.23,-474.4"/>
<polygon fill="none" stroke="black" points="601.23,-474.4 601.23,-510 882.92,-510 882.92,-474.4 601.23,-474.4"/>
<text text-anchor="start" x="616.6" y="-487.8" font-family="Arial Bold" font-size="18.00">public.employees</text>
<text text-anchor="start" x="743.06" y="-487.8" font-family="Arial" font-size="14.00">    </text>
<text text-anchor="start" x="774.18" y="-487.8" font-family="Arial" font-size="14.00" fill="#666666">[BASE TABLE]</text>
<polygon fill="none" stroke="black" points="601.23,-443.6 601.23,-474.4 882.92,-474.4 882.92,-443.6 601.23,-443.6"/>
<text text-anchor="start" x="608.23" y="-455.8" font-family="Arial" font-size="14.00">id </text>
<text text-anchor="start" x="623.02" y="-455.8" font-family="Arial" font-size="14.00" fill="#666666">[uuid]</text>
<polygon fill="none" stroke="black" points="601.23,-412.8 601.23,-443.6 882.92,-443.6 882.92,-412.8 601.23,-412.8"/>
<text text-anchor="start" x="608.23" y="-425" font-family="Arial" font-size="14.00">org_id </text>
<text text-anchor="start" x="651.04" y="-425" font-family="Arial" font-size="14.00" fill="#666666">[uuid]</text>
<polygon fill="none" stroke="black" points="601.23,-382 601.23,-412.8 882.92,-412.8 882.92,-382 601.23,-382"/>
<text text-anchor="start" x="608.23" y="-394.2" font-family="Arial" font-size="14.00">team_id </text>
<text text-anchor="start" x="661.93" y="-394.2" font-family="Arial" font-size="14.00" fill="#666666">[uuid]</text>
<polygon fill="none" stroke="black" points="601.23,-351.2 601.23,-382 882.92,-382 882.92,-351.2 601.23,-351.2"/>
<text text-anchor="start" x="608.23" y="-363.4" font-family="Arial" font-size="14.00">role_id </text>
<text text-anchor="start" x="654.15" y="-363.4" font-family="Arial" font-size="14.00" fill="#666666">[uuid]</text>
<polygon fill="none" stroke="black" points="601.23,-320.4 601.23,-351.2 882.92,-351.2 882.92,-320.4 601.23,-320.4"/>
<text text-anchor="start" x="608.23" y="-332.6" font-family="Arial" font-size="14.00">email </text>
<text text-anchor="start" x="645.58" y="-332.6" font-family="Arial" font-size="14.00" fill="#666666">[varchar(255)]</text>
<polygon fill="none" stroke="black" points="601.23,-289.6 601.23,-320.4 882.92,-320.4 882.92,-289.6 601.23,-289.6"/>
<text text-anchor="start" x="608.23" y="-301.8" font-family="Arial" font-size="14.00">full_name </text>
<text text-anchor="start" x="672.82" y="-301.8" font-family="Arial" font-size="14.00" fill="#666666">[varchar(255)]</text>
<polygon fill="none" stroke="black" points="601.23,-258.8 601.23,-289.6 882.92,-289.6 882.92,-258.8 601.23,-258.8"/>
<text text-anchor="start" x="608.23" y="-271" font-family="Arial" font-size="14.00">password_hash </text>
<text text-anchor="start" x="710.18" y="-271" font-family="Arial" font-size="14.00" fill="#666666">[varchar(255)]</text>
<polygon fill="none" stroke="black" points="601.23,-228 601.23,-258.8 882.92,-258.8 882.92,-228 601.23,-228"/>
<text text-anchor="start" x="608.23" y="-240.2" font-family="Arial" font-size="14.00">status </text>
<text text-anchor="start" x="649.47" y="-240.2" font-family="Arial" font-size="14.00" fill="#666666">[varchar(50)]</text>
<polygon fill="none" stroke="black" points="601.23,-197.2 601.23,-228 882.92,-228 882.92,-197.2 601.23,-197.2"/>
<text text-anchor="start" x="608.23" y="-209.4" font-family="Arial" font-size="14.00">preferences </text>
<text text-anchor="start" x="686.05" y="-209.4" font-family="Arial" font-size="14.00" fill="#666666">[jsonb]</text>
<polygon fill="none" stroke="black" points="601.23,-166.4 601.23,-197.2 882.92,-197.2 882.92,-166.4 601.23,-166.4"/>
<text text-anchor="start" x="608.23" y="-178.6" font-family="Arial" font-size="14.00">personal_claude_token </text>
<text text-anchor="start" x="756.9" y="-178.6" font-family="Arial" font-size="14.00" fill="#666666">[text]</text>
<polygon fill="none" stroke="black" points="601.23,-135.6 601.23,-166.4 882.92,-166.4 882.92,-135.6 601.23,-135.6"/>
<text text-anchor="start" x="608.23" y="-147.8" font-family="Arial" font-size="14.00">last_login_at </text>
<text text-anchor="start" x="690.73" y="-147.8" font-family="Arial" font-size="14.00" fill="#666666">[timestamp without time zone]</text>
<polygon fill="none" stroke="black" points="601.23,-104.8 601.23,-135.6 882.92,-135.6 882.92,-104.8 601.23,-104.8"/>
<text text-anchor="start" x="608.23" y="-117" font-family="Arial" font-size="14.00">created_at </text>
<text text-anchor="start" x="678.28" y="-117" font-family="Arial" font-size="14.00" fill="#666666">[timestamp without time zone]</text>
<polygon fill="none" stroke="black" points="601.23,-74 601.23,-104.8 882.92,-104.8 882.92,-74 601.23,-74"/>
<text text-anchor="start" x="608.23" y="-86.2" font-family="Arial" font-size="14.00">updated_at </text>
<text text-anchor="start" x="682.19" y="-86.2" font-family="Arial" font-size="14.00" fill="#666666">[timestamp without time zone]</text>
<polygon fill="none" stroke="black" points="601.23,-43.2 601.23,-74 882.92,-74 882.92,-43.2 601.23,-43.2"/>
<text text-anchor="start" x="608.23" y="-55.4" font-family="Arial" font-size="14.00">deleted_at </text>
<text text-anchor="start" x="677.51" y="-55.4" font-family="Arial" font-size="14.00" fill="#666666">[timestamp without time zone]</text>
</g>
<!-- public.approvals&#45;&gt;public.employees -->
<g id="edge2" class="edge">
<title>public.approvals:approver_id&#45;&gt;public.employees:id</title>
<path fill="none" stroke="black" d="M694.15,-773.31C762.5,-763.66 725.81,-654.8 682.8,-589.2 661.08,-556.06 623.04,-586.28 601.23,-553.2 578.18,-518.24 558.36,-459 600.23,-459"/>
<polygon fill="black" stroke="black" points="694.11,-773.31 683.84,-769.49 688.79,-773.67 684.47,-773.96 684.47,-773.96 684.47,-773.96 688.79,-773.67 684.43,-778.47 694.11,-773.31"/>
<text text-anchor="start" x="690.8" y="-784" font-family="Arial" font-size="10.00">FOREIGN KEY (approver_id) REFERENCES employees(id) ON DELETE CASCADE</text>
</g>
</g>
</svg>
