<?xml version="1.0" encoding="UTF-8" standalone="no"?>
<!DOCTYPE svg PUBLIC "-//W3C//DTD SVG 1.1//EN"
 "http://www.w3.org/Graphics/SVG/1.1/DTD/svg11.dtd">
<!-- Generated by graphviz version 12.1.2 (20240928.0832)
 -->
<!-- Title: public.activity_logs Pages: 1 -->
<svg width="1067pt" height="1592pt"
 viewBox="0.00 0.00 1066.81 1591.60" xmlns="http://www.w3.org/2000/svg" xmlns:xlink="http://www.w3.org/1999/xlink">
<g id="graph0" class="graph" transform="scale(1 1) rotate(0) translate(4 1587.6)">
<title>public.activity_logs</title>
<polygon fill="white" stroke="none" points="-4,4 -4,-1587.6 1062.81,-1587.6 1062.81,4 -4,4"/>
<!-- public.activity_logs -->
<g id="node1" class="node">
<title>public.activity_logs</title>
<polygon fill="#efefef" stroke="none" points="378.99,-974.2 378.99,-1009.8 659.96,-1009.8 659.96,-974.2 378.99,-974.2"/>
<polygon fill="none" stroke="black" points="378.99,-974.2 378.99,-1009.8 659.96,-1009.8 659.96,-974.2 378.99,-974.2"/>
<text text-anchor="start" x="385.99" y="-987.6" font-family="Arial Bold" font-size="18.00">public.activity_logs</text>
<text text-anchor="start" x="528.47" y="-987.6" font-family="Arial" font-size="14.00">    </text>
<text text-anchor="start" x="559.59" y="-987.6" font-family="Arial" font-size="14.00" fill="#666666">[BASE TABLE]</text>
<polygon fill="none" stroke="black" points="378.99,-943.4 378.99,-974.2 659.96,-974.2 659.96,-943.4 378.99,-943.4"/>
<text text-anchor="start" x="385.99" y="-955.6" font-family="Arial" font-size="14.00">id </text>
<text text-anchor="start" x="400.78" y="-955.6" font-family="Arial" font-size="14.00" fill="#666666">[uuid]</text>
<polygon fill="none" stroke="black" points="378.99,-912.6 378.99,-943.4 659.96,-943.4 659.96,-912.6 378.99,-912.6"/>
<text text-anchor="start" x="385.99" y="-924.8" font-family="Arial" font-size="14.00">org_id </text>
<text text-anchor="start" x="428.8" y="-924.8" font-family="Arial" font-size="14.00" fill="#666666">[uuid]</text>
<polygon fill="none" stroke="black" points="378.99,-881.8 378.99,-912.6 659.96,-912.6 659.96,-881.8 378.99,-881.8"/>
<text text-anchor="start" x="385.99" y="-894" font-family="Arial" font-size="14.00">employee_id </text>
<text text-anchor="start" x="469.26" y="-894" font-family="Arial" font-size="14.00" fill="#666666">[uuid]</text>
<polygon fill="none" stroke="black" points="378.99,-851 378.99,-881.8 659.96,-881.8 659.96,-851 378.99,-851"/>
<text text-anchor="start" x="385.99" y="-863.2" font-family="Arial" font-size="14.00">session_id </text>
<text text-anchor="start" x="456.03" y="-863.2" font-family="Arial" font-size="14.00" fill="#666666">[uuid]</text>
<polygon fill="none" stroke="black" points="378.99,-820.2 378.99,-851 659.96,-851 659.96,-820.2 378.99,-820.2"/>
<text text-anchor="start" x="385.99" y="-832.4" font-family="Arial" font-size="14.00">client_name </text>
<text text-anchor="start" x="465.37" y="-832.4" font-family="Arial" font-size="14.00" fill="#666666">[varchar(100)]</text>
<polygon fill="none" stroke="black" points="378.99,-789.4 378.99,-820.2 659.96,-820.2 659.96,-789.4 378.99,-789.4"/>
<text text-anchor="start" x="385.99" y="-801.6" font-family="Arial" font-size="14.00">client_version </text>
<text text-anchor="start" x="475.48" y="-801.6" font-family="Arial" font-size="14.00" fill="#666666">[varchar(50)]</text>
<polygon fill="none" stroke="black" points="378.99,-758.6 378.99,-789.4 659.96,-789.4 659.96,-758.6 378.99,-758.6"/>
<text text-anchor="start" x="385.99" y="-770.8" font-family="Arial" font-size="14.00">event_type </text>
<text text-anchor="start" x="458.38" y="-770.8" font-family="Arial" font-size="14.00" fill="#666666">[varchar(100)]</text>
<polygon fill="none" stroke="black" points="378.99,-727.8 378.99,-758.6 659.96,-758.6 659.96,-727.8 378.99,-727.8"/>
<text text-anchor="start" x="385.99" y="-740" font-family="Arial" font-size="14.00">event_category </text>
<text text-anchor="start" x="485.61" y="-740" font-family="Arial" font-size="14.00" fill="#666666">[varchar(50)]</text>
<polygon fill="none" stroke="black" points="378.99,-697 378.99,-727.8 659.96,-727.8 659.96,-697 378.99,-697"/>
<text text-anchor="start" x="385.99" y="-709.2" font-family="Arial" font-size="14.00">content </text>
<text text-anchor="start" x="435.8" y="-709.2" font-family="Arial" font-size="14.00" fill="#666666">[text]</text>
<polygon fill="none" stroke="black" points="378.99,-666.2 378.99,-697 659.96,-697 659.96,-666.2 378.99,-666.2"/>
<text text-anchor="start" x="385.99" y="-678.4" font-family="Arial" font-size="14.00">payload </text>
<text text-anchor="start" x="438.92" y="-678.4" font-family="Arial" font-size="14.00" fill="#666666">[jsonb]</text>
<polygon fill="none" stroke="black" points="378.99,-635.4 378.99,-666.2 659.96,-666.2 659.96,-635.4 378.99,-635.4"/>
<text text-anchor="start" x="385.99" y="-647.6" font-family="Arial" font-size="14.00">created_at </text>
<text text-anchor="start" x="456.04" y="-647.6" font-family="Arial" font-size="14.00" fill="#666666">[timestamp without time zone]</text>
<polygon fill="none" stroke="black" stroke-width="3" points="377.49,-633.9 377.49,-1011.3 661.46,-1011.3 661.46,-633.9 377.49,-633.9"/>
</g>
<!-- public.organizations -->
<g id="node3" class="node">
<title>public.organizations</title>
<polygon fill="#efefef" stroke="none" points="183,-397.4 183,-433 467.95,-433 467.95,-397.4 183,-397.4"/>
<polygon fill="none" stroke="black" points="183,-397.4 183,-433 467.95,-433 467.95,-397.4 183,-397.4"/>
<text text-anchor="start" x="190" y="-410.8" font-family="Arial Bold" font-size="18.00">public.organizations</text>
<text text-anchor="start" x="336.46" y="-410.8" font-family="Arial" font-size="14.00">    </text>
<text text-anchor="start" x="367.58" y="-410.8" font-family="Arial" font-size="14.00" fill="#666666">[BASE TABLE]</text>
<polygon fill="none" stroke="black" points="183,-366.6 183,-397.4 467.95,-397.4 467.95,-366.6 183,-366.6"/>
<text text-anchor="start" x="190" y="-378.8" font-family="Arial" font-size="14.00">id </text>
<text text-anchor="start" x="204.78" y="-378.8" font-family="Arial" font-size="14.00" fill="#666666">[uuid]</text>
<polygon fill="none" stroke="black" points="183,-335.8 183,-366.6 467.95,-366.6 467.95,-335.8 183,-335.8"/>
<text text-anchor="start" x="190" y="-348" font-family="Arial" font-size="14.00">name </text>
<text text-anchor="start" x="228.91" y="-348" font-family="Arial" font-size="14.00" fill="#666666">[varchar(255)]</text>
<polygon fill="none" stroke="black" points="183,-305 183,-335.8 467.95,-335.8 467.95,-305 183,-305"/>
<text text-anchor="start" x="190" y="-317.2" font-family="Arial" font-size="14.00">slug </text>
<text text-anchor="start" x="219.57" y="-317.2" font-family="Arial" font-size="14.00" fill="#666666">[varchar(100)]</text>
<polygon fill="none" stroke="black" points="183,-274.2 183,-305 467.95,-305 467.95,-274.2 183,-274.2"/>
<text text-anchor="start" x="190" y="-286.4" font-family="Arial" font-size="14.00">plan </text>
<text text-anchor="start" x="220.36" y="-286.4" font-family="Arial" font-size="14.00" fill="#666666">[varchar(50)]</text>
<polygon fill="none" stroke="black" points="183,-243.4 183,-274.2 467.95,-274.2 467.95,-243.4 183,-243.4"/>
<text text-anchor="start" x="190" y="-255.6" font-family="Arial" font-size="14.00">settings </text>
<text text-anchor="start" x="242.14" y="-255.6" font-family="Arial" font-size="14.00" fill="#666666">[jsonb]</text>
<polygon fill="none" stroke="black" points="183,-212.6 183,-243.4 467.95,-243.4 467.95,-212.6 183,-212.6"/>
<text text-anchor="start" x="190" y="-224.8" font-family="Arial" font-size="14.00">max_employees </text>
<text text-anchor="start" x="295.83" y="-224.8" font-family="Arial" font-size="14.00" fill="#666666">[integer]</text>
<polygon fill="none" stroke="black" points="183,-181.8 183,-212.6 467.95,-212.6 467.95,-181.8 183,-181.8"/>
<text text-anchor="start" x="190" y="-194" font-family="Arial" font-size="14.00">claude_api_token </text>
<text text-anchor="start" x="303.65" y="-194" font-family="Arial" font-size="14.00" fill="#666666">[text]</text>
<polygon fill="none" stroke="black" points="183,-151 183,-181.8 467.95,-181.8 467.95,-151 183,-151"/>
<text text-anchor="start" x="190" y="-163.2" font-family="Arial" font-size="14.00">created_at </text>
<text text-anchor="start" x="260.05" y="-163.2" font-family="Arial" font-size="14.00" fill="#666666">[timestamp without time zone]</text>
<polygon fill="none" stroke="black" points="183,-120.2 183,-151 467.95,-151 467.95,-120.2 183,-120.2"/>
<text text-anchor="start" x="190" y="-132.4" font-family="Arial" font-size="14.00">updated_at </text>
<text text-anchor="start" x="263.96" y="-132.4" font-family="Arial" font-size="14.00" fill="#666666">[timestamp without time zone]</text>
</g>
<!-- public.activity_logs&#45;&gt;public.organizations -->
<g id="edge2" class="edge">
<title>public.activity_logs:org_id&#45;&gt;public.organizations:id</title>
<path fill="none" stroke="black" d="M367.81,-927.68C232.17,-918.81 330.65,-728.08 378.99,-589.2 400,-528.83 446.71,-536.49 467.95,-476.2 481.86,-436.71 510.82,-382 468.95,-382"/>
<polygon fill="black" stroke="black" points="367.66,-927.67 377.51,-932.49 372.99,-927.84 377.32,-927.98 377.32,-927.98 377.32,-927.98 372.99,-927.84 377.8,-923.49 367.66,-927.67"/>
<text text-anchor="start" x="7" y="-938" font-family="Arial" font-size="10.00">FOREIGN KEY (org_id) REFERENCES organizations(id) ON DELETE CASCADE</text>
</g>
<!-- public.employees -->
<g id="node4" class="node">
<title>public.employees</title>
<polygon fill="#efefef" stroke="none" points="572.63,-474.4 572.63,-510 854.32,-510 854.32,-474.4 572.63,-474.4"/>
<polygon fill="none" stroke="black" points="572.63,-474.4 572.63,-510 854.32,-510 854.32,-474.4 572.63,-474.4"/>
<text text-anchor="start" x="588" y="-487.8" font-family="Arial Bold" font-size="18.00">public.employees</text>
<text text-anchor="start" x="714.46" y="-487.8" font-family="Arial" font-size="14.00">    </text>
<text text-anchor="start" x="745.58" y="-487.8" font-family="Arial" font-size="14.00" fill="#666666">[BASE TABLE]</text>
<polygon fill="none" stroke="black" points="572.63,-443.6 572.63,-474.4 854.32,-474.4 854.32,-443.6 572.63,-443.6"/>
<text text-anchor="start" x="579.63" y="-455.8" font-family="Arial" font-size="14.00">id </text>
<text text-anchor="start" x="594.42" y="-455.8" font-family="Arial" font-size="14.00" fill="#666666">[uuid]</text>
<polygon fill="none" stroke="black" points="572.63,-412.8 572.63,-443.6 854.32,-443.6 854.32,-412.8 572.63,-412.8"/>
<text text-anchor="start" x="579.63" y="-425" font-family="Arial" font-size="14.00">org_id </text>
<text text-anchor="start" x="622.44" y="-425" font-family="Arial" font-size="14.00" fill="#666666">[uuid]</text>
<polygon fill="none" stroke="black" points="572.63,-382 572.63,-412.8 854.32,-412.8 854.32,-382 572.63,-382"/>
<text text-anchor="start" x="579.63" y="-394.2" font-family="Arial" font-size="14.00">team_id </text>
<text text-anchor="start" x="633.33" y="-394.2" font-family="Arial" font-size="14.00" fill="#666666">[uuid]</text>
<polygon fill="none" stroke="black" points="572.63,-351.2 572.63,-382 854.32,-382 854.32,-351.2 572.63,-351.2"/>
<text text-anchor="start" x="579.63" y="-363.4" font-family="Arial" font-size="14.00">role_id </text>
<text text-anchor="start" x="625.55" y="-363.4" font-family="Arial" font-size="14.00" fill="#666666">[uuid]</text>
<polygon fill="none" stroke="black" points="572.63,-320.4 572.63,-351.2 854.32,-351.2 854.32,-320.4 572.63,-320.4"/>
<text text-anchor="start" x="579.63" y="-332.6" font-family="Arial" font-size="14.00">email </text>
<text text-anchor="start" x="616.97" y="-332.6" font-family="Arial" font-size="14.00" fill="#666666">[varchar(255)]</text>
<polygon fill="none" stroke="black" points="572.63,-289.6 572.63,-320.4 854.32,-320.4 854.32,-289.6 572.63,-289.6"/>
<text text-anchor="start" x="579.63" y="-301.8" font-family="Arial" font-size="14.00">full_name </text>
<text text-anchor="start" x="644.22" y="-301.8" font-family="Arial" font-size="14.00" fill="#666666">[varchar(255)]</text>
<polygon fill="none" stroke="black" points="572.63,-258.8 572.63,-289.6 854.32,-289.6 854.32,-258.8 572.63,-258.8"/>
<text text-anchor="start" x="579.63" y="-271" font-family="Arial" font-size="14.00">password_hash </text>
<text text-anchor="start" x="681.58" y="-271" font-family="Arial" font-size="14.00" fill="#666666">[varchar(255)]</text>
<polygon fill="none" stroke="black" points="572.63,-228 572.63,-258.8 854.32,-258.8 854.32,-228 572.63,-228"/>
<text text-anchor="start" x="579.63" y="-240.2" font-family="Arial" font-size="14.00">status </text>
<text text-anchor="start" x="620.87" y="-240.2" font-family="Arial" font-size="14.00" fill="#666666">[varchar(50)]</text>
<polygon fill="none" stroke="black" points="572.63,-197.2 572.63,-228 854.32,-228 854.32,-197.2 572.63,-197.2"/>
<text text-anchor="start" x="579.63" y="-209.4" font-family="Arial" font-size="14.00">preferences </text>
<text text-anchor="start" x="657.45" y="-209.4" font-family="Arial" font-size="14.00" fill="#666666">[jsonb]</text>
<polygon fill="none" stroke="black" points="572.63,-166.4 572.63,-197.2 854.32,-197.2 854.32,-166.4 572.63,-166.4"/>
<text text-anchor="start" x="579.63" y="-178.6" font-family="Arial" font-size="14.00">personal_claude_token </text>
<text text-anchor="start" x="728.3" y="-178.6" font-family="Arial" font-size="14.00" fill="#666666">[text]</text>
<polygon fill="none" stroke="black" points="572.63,-135.6 572.63,-166.4 854.32,-166.4 854.32,-135.6 572.63,-135.6"/>
<text text-anchor="start" x="579.63" y="-147.8" font-family="Arial" font-size="14.00">last_login_at </text>
<text text-anchor="start" x="662.13" y="-147.8" font-family="Arial" font-size="14.00" fill="#666666">[timestamp without time zone]</text>
<polygon fill="none" stroke="black" points="572.63,-104.8 572.63,-135.6 854.32,-135.6 854.32,-104.8 572.63,-104.8"/>
<text text-anchor="start" x="579.63" y="-117" font-family="Arial" font-size="14.00">created_at </text>
<text text-anchor="start" x="649.68" y="-117" font-family="Arial" font-size="14.00" fill="#666666">[timestamp without time zone]</text>
<polygon fill="none" stroke="black" points="572.63,-74 572.63,-104.8 854.32,-104.8 854.32,-74 572.63,-74"/>
<text text-anchor="start" x="579.63" y="-86.2" font-family="Arial" font-size="14.00">updated_at </text>
<text text-anchor="start" x="653.59" y="-86.2" font-family="Arial" font-size="14.00" fill="#666666">[timestamp without time zone]</text>
<polygon fill="none" stroke="black" points="572.63,-43.2 572.63,-74 854.32,-74 854.32,-43.2 572.63,-43.2"/>
<text text-anchor="start" x="579.63" y="-55.4" font-family="Arial" font-size="14.00">deleted_at </text>
<text text-anchor="start" x="648.91" y="-55.4" font-family="Arial" font-size="14.00" fill="#666666">[timestamp without time zone]</text>
</g>
<!-- public.activity_logs&#45;&gt;public.employees -->
<g id="edge3" class="edge">
<title>public.activity_logs:employee_id&#45;&gt;public.employees:id</title>
<path fill="none" stroke="black" d="M671.38,-896.8C794.59,-887.01 734.28,-699.84 659.96,-589.2 636.55,-554.35 596.17,-587.96 572.63,-553.2 549.15,-518.53 529.76,-459 571.63,-459"/>
<polygon fill="black" stroke="black" points="671.28,-896.8 661.12,-892.69 665.95,-897.01 661.63,-897.17 661.63,-897.17 661.63,-897.17 665.95,-897.01 661.47,-901.68 671.28,-896.8"/>
<text text-anchor="start" x="667.96" y="-907.2" font-family="Arial" font-size="10.00">FOREIGN KEY (employee_id) REFERENCES employees(id) ON DELETE SET NULL</text>
</g>
<!-- public.webhook_deliveries -->
<g id="node2" class="node">
<title>public.webhook_deliveries</title>
<polygon fill="#efefef" stroke="none" points="353,-1504.8 353,-1540.4 685.94,-1540.4 685.94,-1504.8 353,-1504.8"/>
<polygon fill="none" stroke="black" points="353,-1504.8 353,-1540.4 685.94,-1540.4 685.94,-1504.8 353,-1504.8"/>
<text text-anchor="start" x="360" y="-1518.2" font-family="Arial Bold" font-size="18.00">public.webhook_deliveries</text>
<text text-anchor="start" x="554.45" y="-1518.2" font-family="Arial" font-size="14.00">    </text>
<text text-anchor="start" x="585.57" y="-1518.2" font-family="Arial" font-size="14.00" fill="#666666">[BASE TABLE]</text>
<polygon fill="none" stroke="black" points="353,-1474 353,-1504.8 685.94,-1504.8 685.94,-1474 353,-1474"/>
<text text-anchor="start" x="360" y="-1486.2" font-family="Arial" font-size="14.00">id </text>
<text text-anchor="start" x="374.79" y="-1486.2" font-family="Arial" font-size="14.00" fill="#666666">[uuid]</text>
<polygon fill="none" stroke="black" points="353,-1443.2 353,-1474 685.94,-1474 685.94,-1443.2 353,-1443.2"/>
<text text-anchor="start" x="360" y="-1455.4" font-family="Arial" font-size="14.00">destination_id </text>
<text text-anchor="start" x="450.29" y="-1455.4" font-family="Arial" font-size="14.00" fill="#666666">[uuid]</text>
<polygon fill="none" stroke="black" points="353,-1412.4 353,-1443.2 685.94,-1443.2 685.94,-1412.4 353,-1412.4"/>
<text text-anchor="start" x="360" y="-1424.6" font-family="Arial" font-size="14.00">log_id </text>
<text text-anchor="start" x="401.26" y="-1424.6" font-family="Arial" font-size="14.00" fill="#666666">[uuid]</text>
<polygon fill="none" stroke="black" points="353,-1381.6 353,-1412.4 685.94,-1412.4 685.94,-1381.6 353,-1381.6"/>
<text text-anchor="start" x="360" y="-1393.8" font-family="Arial" font-size="14.00">status </text>
<text text-anchor="start" x="401.25" y="-1393.8" font-family="Arial" font-size="14.00" fill="#666666">[varchar(50)]</text>
<polygon fill="none" stroke="black" points="353,-1350.8 353,-1381.6 685.94,-1381.6 685.94,-1350.8 353,-1350.8"/>
<text text-anchor="start" x="360" y="-1363" font-family="Arial" font-size="14.00">attempts </text>
<text text-anchor="start" x="417.58" y="-1363" font-family="Arial" font-size="14.00" fill="#666666">[integer]</text>
<polygon fill="none" stroke="black" points="353,-1320 353,-1350.8 685.94,-1350.8 685.94,-1320 353,-1320"/>
<text text-anchor="start" x="360" y="-1332.2" font-family="Arial" font-size="14.00">last_attempt_at </text>
<text text-anchor="start" x="459.62" y="-1332.2" font-family="Arial" font-size="14.00" fill="#666666">[timestamp without time zone]</text>
<polygon fill="none" stroke="black" points="353,-1289.2 353,-1320 685.94,-1320 685.94,-1289.2 353,-1289.2"/>
<text text-anchor="start" x="360" y="-1301.4" font-family="Arial" font-size="14.00">next_retry_at </text>
<text text-anchor="start" x="445.6" y="-1301.4" font-family="Arial" font-size="14.00" fill="#666666">[timestamp without time zone]</text>
<polygon fill="none" stroke="black" points="353,-1258.4 353,-1289.2 685.94,-1289.2 685.94,-1258.4 353,-1258.4"/>
<text text-anchor="start" x="360" y="-1270.6" font-family="Arial" font-size="14.00">response_status </text>
<text text-anchor="start" x="466.62" y="-1270.6" font-family="Arial" font-size="14.00" fill="#666666">[integer]</text>
<polygon fill="none" stroke="black" points="353,-1227.6 353,-1258.4 685.94,-1258.4 685.94,-1227.6 353,-1227.6"/>
<text text-anchor="start" x="360" y="-1239.8" font-family="Arial" font-size="14.00">response_body </text>
<text text-anchor="start" x="459.63" y="-1239.8" font-family="Arial" font-size="14.00" fill="#666666">[text]</text>
<polygon fill="none" stroke="black" points="353,-1196.8 353,-1227.6 685.94,-1227.6 685.94,-1196.8 353,-1196.8"/>
<text text-anchor="start" x="360" y="-1209" font-family="Arial" font-size="14.00">error_message </text>
<text text-anchor="start" x="458.05" y="-1209" font-family="Arial" font-size="14.00" fill="#666666">[text]</text>
<polygon fill="none" stroke="black" points="353,-1166 353,-1196.8 685.94,-1196.8 685.94,-1166 353,-1166"/>
<text text-anchor="start" x="360" y="-1178.2" font-family="Arial" font-size="14.00">created_at </text>
<text text-anchor="start" x="430.05" y="-1178.2" font-family="Arial" font-size="14.00" fill="#666666">[timestamp without time zone]</text>
<polygon fill="none" stroke="black" points="353,-1135.2 353,-1166 685.94,-1166 685.94,-1135.2 353,-1135.2"/>
<text text-anchor="start" x="360" y="-1147.4" font-family="Arial" font-size="14.00">delivered_at </text>
<text text-anchor="start" x="440.17" y="-1147.4" font-family="Arial" font-size="14.00" fill="#666666">[timestamp without time zone]</text>
</g>
<!-- public.webhook_deliveries&#45;&gt;public.activity_logs -->
<g id="edge1" class="edge">
<title>public.webhook_deliveries:log_id&#45;&gt;public.activity_logs:id</title>
<path fill="none" stroke="black" d="M697.15,-1427.42C894.79,-1412.36 866.26,-958.8 660.96,-958.8"/>
<polygon fill="black" stroke="black" points="697.27,-1427.41 687.11,-1423.29 691.94,-1427.61 687.61,-1427.77 687.61,-1427.77 687.61,-1427.77 691.94,-1427.61 687.45,-1432.28 697.27,-1427.41"/>
<text text-anchor="start" x="693.94" y="-1437.8" font-family="Arial" font-size="10.00">FOREIGN KEY (log_id) REFERENCES activity_logs(id) ON DELETE CASCADE</text>
</g>
</g>
</svg>
