<?xml version="1.0" encoding="UTF-8" standalone="no"?>
<!DOCTYPE svg PUBLIC "-//W3C//DTD SVG 1.1//EN"
 "http://www.w3.org/Graphics/SVG/1.1/DTD/svg11.dtd">
<!-- Generated by graphviz version 12.1.2 (20240928.0832)
 -->
<!-- Title: public.roles Pages: 1 -->
<svg width="760pt" height="879pt"
 viewBox="0.00 0.00 759.92 879.20" xmlns="http://www.w3.org/2000/svg" xmlns:xlink="http://www.w3.org/1999/xlink">
<g id="graph0" class="graph" transform="scale(1 1) rotate(0) translate(4 875.2)">
<title>public.roles</title>
<polygon fill="white" stroke="none" points="-4,4 -4,-875.2 755.92,-875.2 755.92,4 -4,4"/>
<!-- public.roles -->
<g id="node1" class="node">
<title>public.roles</title>
<polygon fill="#efefef" stroke="none" points="239.47,-231 239.47,-266.6 512.62,-266.6 512.62,-231 239.47,-231"/>
<polygon fill="none" stroke="black" points="239.47,-231 239.47,-266.6 512.62,-266.6 512.62,-231 239.47,-231"/>
<text text-anchor="start" x="271.56" y="-244.4" font-family="Arial Bold" font-size="18.00">public.roles</text>
<text text-anchor="start" x="356.04" y="-244.4" font-family="Arial" font-size="14.00">    </text>
<text text-anchor="start" x="387.16" y="-244.4" font-family="Arial" font-size="14.00" fill="#666666">[BASE TABLE]</text>
<polygon fill="none" stroke="black" points="239.47,-200.2 239.47,-231 512.62,-231 512.62,-200.2 239.47,-200.2"/>
<text text-anchor="start" x="246.47" y="-212.4" font-family="Arial" font-size="14.00">id </text>
<text text-anchor="start" x="261.26" y="-212.4" font-family="Arial" font-size="14.00" fill="#666666">[uuid]</text>
<polygon fill="none" stroke="black" points="239.47,-169.4 239.47,-200.2 512.62,-200.2 512.62,-169.4 239.47,-169.4"/>
<text text-anchor="start" x="246.47" y="-181.6" font-family="Arial" font-size="14.00">name </text>
<text text-anchor="start" x="285.38" y="-181.6" font-family="Arial" font-size="14.00" fill="#666666">[varchar(100)]</text>
<polygon fill="none" stroke="black" points="239.47,-138.6 239.47,-169.4 512.62,-169.4 512.62,-138.6 239.47,-138.6"/>
<text text-anchor="start" x="246.47" y="-150.8" font-family="Arial" font-size="14.00">description </text>
<text text-anchor="start" x="318.07" y="-150.8" font-family="Arial" font-size="14.00" fill="#666666">[text]</text>
<polygon fill="none" stroke="black" points="239.47,-107.8 239.47,-138.6 512.62,-138.6 512.62,-107.8 239.47,-107.8"/>
<text text-anchor="start" x="246.47" y="-120" font-family="Arial" font-size="14.00">permissions </text>
<text text-anchor="start" x="325.05" y="-120" font-family="Arial" font-size="14.00" fill="#666666">[jsonb]</text>
<polygon fill="none" stroke="black" points="239.47,-77 239.47,-107.8 512.62,-107.8 512.62,-77 239.47,-77"/>
<text text-anchor="start" x="246.47" y="-89.2" font-family="Arial" font-size="14.00">created_at </text>
<text text-anchor="start" x="316.52" y="-89.2" font-family="Arial" font-size="14.00" fill="#666666">[timestamp without time zone]</text>
<polygon fill="none" stroke="black" points="239.47,-46.2 239.47,-77 512.62,-77 512.62,-46.2 239.47,-46.2"/>
<text text-anchor="start" x="246.47" y="-58.4" font-family="Arial" font-size="14.00">updated_at </text>
<text text-anchor="start" x="320.43" y="-58.4" font-family="Arial" font-size="14.00" fill="#666666">[timestamp without time zone]</text>
<polygon fill="none" stroke="black" stroke-width="3" points="237.97,-44.7 237.97,-268.1 514.12,-268.1 514.12,-44.7 237.97,-44.7"/>
</g>
<!-- public.employees -->
<g id="node2" class="node">
<title>public.employees</title>
<polygon fill="#efefef" stroke="none" points="43.2,-792.4 43.2,-828 324.89,-828 324.89,-792.4 43.2,-792.4"/>
<polygon fill="none" stroke="black" points="43.2,-792.4 43.2,-828 324.89,-828 324.89,-792.4 43.2,-792.4"/>
<text text-anchor="start" x="58.57" y="-805.8" font-family="Arial Bold" font-size="18.00">public.employees</text>
<text text-anchor="start" x="185.03" y="-805.8" font-family="Arial" font-size="14.00">    </text>
<text text-anchor="start" x="216.15" y="-805.8" font-family="Arial" font-size="14.00" fill="#666666">[BASE TABLE]</text>
<polygon fill="none" stroke="black" points="43.2,-761.6 43.2,-792.4 324.89,-792.4 324.89,-761.6 43.2,-761.6"/>
<text text-anchor="start" x="50.2" y="-773.8" font-family="Arial" font-size="14.00">id </text>
<text text-anchor="start" x="64.99" y="-773.8" font-family="Arial" font-size="14.00" fill="#666666">[uuid]</text>
<polygon fill="none" stroke="black" points="43.2,-730.8 43.2,-761.6 324.89,-761.6 324.89,-730.8 43.2,-730.8"/>
<text text-anchor="start" x="50.2" y="-743" font-family="Arial" font-size="14.00">org_id </text>
<text text-anchor="start" x="93.01" y="-743" font-family="Arial" font-size="14.00" fill="#666666">[uuid]</text>
<polygon fill="none" stroke="black" points="43.2,-700 43.2,-730.8 324.89,-730.8 324.89,-700 43.2,-700"/>
<text text-anchor="start" x="50.2" y="-712.2" font-family="Arial" font-size="14.00">team_id </text>
<text text-anchor="start" x="103.9" y="-712.2" font-family="Arial" font-size="14.00" fill="#666666">[uuid]</text>
<polygon fill="none" stroke="black" points="43.2,-669.2 43.2,-700 324.89,-700 324.89,-669.2 43.2,-669.2"/>
<text text-anchor="start" x="50.2" y="-681.4" font-family="Arial" font-size="14.00">role_id </text>
<text text-anchor="start" x="96.12" y="-681.4" font-family="Arial" font-size="14.00" fill="#666666">[uuid]</text>
<polygon fill="none" stroke="black" points="43.2,-638.4 43.2,-669.2 324.89,-669.2 324.89,-638.4 43.2,-638.4"/>
<text text-anchor="start" x="50.2" y="-650.6" font-family="Arial" font-size="14.00">email </text>
<text text-anchor="start" x="87.54" y="-650.6" font-family="Arial" font-size="14.00" fill="#666666">[varchar(255)]</text>
<polygon fill="none" stroke="black" points="43.2,-607.6 43.2,-638.4 324.89,-638.4 324.89,-607.6 43.2,-607.6"/>
<text text-anchor="start" x="50.2" y="-619.8" font-family="Arial" font-size="14.00">full_name </text>
<text text-anchor="start" x="114.79" y="-619.8" font-family="Arial" font-size="14.00" fill="#666666">[varchar(255)]</text>
<polygon fill="none" stroke="black" points="43.2,-576.8 43.2,-607.6 324.89,-607.6 324.89,-576.8 43.2,-576.8"/>
<text text-anchor="start" x="50.2" y="-589" font-family="Arial" font-size="14.00">password_hash </text>
<text text-anchor="start" x="152.15" y="-589" font-family="Arial" font-size="14.00" fill="#666666">[varchar(255)]</text>
<polygon fill="none" stroke="black" points="43.2,-546 43.2,-576.8 324.89,-576.8 324.89,-546 43.2,-546"/>
<text text-anchor="start" x="50.2" y="-558.2" font-family="Arial" font-size="14.00">status </text>
<text text-anchor="start" x="91.44" y="-558.2" font-family="Arial" font-size="14.00" fill="#666666">[varchar(50)]</text>
<polygon fill="none" stroke="black" points="43.2,-515.2 43.2,-546 324.89,-546 324.89,-515.2 43.2,-515.2"/>
<text text-anchor="start" x="50.2" y="-527.4" font-family="Arial" font-size="14.00">preferences </text>
<text text-anchor="start" x="128.02" y="-527.4" font-family="Arial" font-size="14.00" fill="#666666">[jsonb]</text>
<polygon fill="none" stroke="black" points="43.2,-484.4 43.2,-515.2 324.89,-515.2 324.89,-484.4 43.2,-484.4"/>
<text text-anchor="start" x="50.2" y="-496.6" font-family="Arial" font-size="14.00">last_login_at </text>
<text text-anchor="start" x="132.7" y="-496.6" font-family="Arial" font-size="14.00" fill="#666666">[timestamp without time zone]</text>
<polygon fill="none" stroke="black" points="43.2,-453.6 43.2,-484.4 324.89,-484.4 324.89,-453.6 43.2,-453.6"/>
<text text-anchor="start" x="50.2" y="-465.8" font-family="Arial" font-size="14.00">created_at </text>
<text text-anchor="start" x="120.25" y="-465.8" font-family="Arial" font-size="14.00" fill="#666666">[timestamp without time zone]</text>
<polygon fill="none" stroke="black" points="43.2,-422.8 43.2,-453.6 324.89,-453.6 324.89,-422.8 43.2,-422.8"/>
<text text-anchor="start" x="50.2" y="-435" font-family="Arial" font-size="14.00">updated_at </text>
<text text-anchor="start" x="124.16" y="-435" font-family="Arial" font-size="14.00" fill="#666666">[timestamp without time zone]</text>
<polygon fill="none" stroke="black" points="43.2,-392 43.2,-422.8 324.89,-422.8 324.89,-392 43.2,-392"/>
<text text-anchor="start" x="50.2" y="-404.2" font-family="Arial" font-size="14.00">deleted_at </text>
<text text-anchor="start" x="119.48" y="-404.2" font-family="Arial" font-size="14.00" fill="#666666">[timestamp without time zone]</text>
</g>
<!-- public.employees&#45;&gt;public.roles -->
<g id="edge1" class="edge">
<title>public.employees:role_id&#45;&gt;public.roles:id</title>
<path fill="none" stroke="black" d="M336.05,-682.7C397.15,-658.38 364.23,-407.88 324.89,-348.8 302.06,-314.51 262.43,-347.01 239.47,-312.8 215.4,-276.93 195.27,-215.6 238.47,-215.6"/>
<polygon fill="black" stroke="black" points="336.05,-682.7 325.39,-680.12 330.8,-683.68 326.55,-684.48 326.55,-684.48 326.55,-684.48 330.8,-683.68 327.04,-688.96 336.05,-682.7"/>
<text text-anchor="start" x="332.89" y="-694.6" font-family="Arial" font-size="10.00">FOREIGN KEY (role_id) REFERENCES roles(id)</text>
</g>
<!-- public.invitations -->
<g id="node3" class="node">
<title>public.invitations</title>
<polygon fill="#efefef" stroke="none" points="429.37,-792.4 429.37,-828 708.72,-828 708.72,-792.4 429.37,-792.4"/>
<polygon fill="none" stroke="black" points="429.37,-792.4 429.37,-828 708.72,-828 708.72,-792.4 429.37,-792.4"/>
<text text-anchor="start" x="444.05" y="-805.8" font-family="Arial Bold" font-size="18.00">public.invitations</text>
<text text-anchor="start" x="569.54" y="-805.8" font-family="Arial" font-size="14.00">    </text>
<text text-anchor="start" x="600.66" y="-805.8" font-family="Arial" font-size="14.00" fill="#666666">[BASE TABLE]</text>
<polygon fill="none" stroke="black" points="429.37,-761.6 429.37,-792.4 708.72,-792.4 708.72,-761.6 429.37,-761.6"/>
<text text-anchor="start" x="436.37" y="-773.8" font-family="Arial" font-size="14.00">id </text>
<text text-anchor="start" x="451.15" y="-773.8" font-family="Arial" font-size="14.00" fill="#666666">[uuid]</text>
<polygon fill="none" stroke="black" points="429.37,-730.8 429.37,-761.6 708.72,-761.6 708.72,-730.8 429.37,-730.8"/>
<text text-anchor="start" x="436.37" y="-743" font-family="Arial" font-size="14.00">org_id </text>
<text text-anchor="start" x="479.17" y="-743" font-family="Arial" font-size="14.00" fill="#666666">[uuid]</text>
<polygon fill="none" stroke="black" points="429.37,-700 429.37,-730.8 708.72,-730.8 708.72,-700 429.37,-700"/>
<text text-anchor="start" x="436.37" y="-712.2" font-family="Arial" font-size="14.00">inviter_id </text>
<text text-anchor="start" x="496.28" y="-712.2" font-family="Arial" font-size="14.00" fill="#666666">[uuid]</text>
<polygon fill="none" stroke="black" points="429.37,-669.2 429.37,-700 708.72,-700 708.72,-669.2 429.37,-669.2"/>
<text text-anchor="start" x="436.37" y="-681.4" font-family="Arial" font-size="14.00">email </text>
<text text-anchor="start" x="473.71" y="-681.4" font-family="Arial" font-size="14.00" fill="#666666">[varchar(255)]</text>
<polygon fill="none" stroke="black" points="429.37,-638.4 429.37,-669.2 708.72,-669.2 708.72,-638.4 429.37,-638.4"/>
<text text-anchor="start" x="436.37" y="-650.6" font-family="Arial" font-size="14.00">role_id </text>
<text text-anchor="start" x="482.28" y="-650.6" font-family="Arial" font-size="14.00" fill="#666666">[uuid]</text>
<polygon fill="none" stroke="black" points="429.37,-607.6 429.37,-638.4 708.72,-638.4 708.72,-607.6 429.37,-607.6"/>
<text text-anchor="start" x="436.37" y="-619.8" font-family="Arial" font-size="14.00">team_id </text>
<text text-anchor="start" x="490.06" y="-619.8" font-family="Arial" font-size="14.00" fill="#666666">[uuid]</text>
<polygon fill="none" stroke="black" points="429.37,-576.8 429.37,-607.6 708.72,-607.6 708.72,-576.8 429.37,-576.8"/>
<text text-anchor="start" x="436.37" y="-589" font-family="Arial" font-size="14.00">token </text>
<text text-anchor="start" x="474.5" y="-589" font-family="Arial" font-size="14.00" fill="#666666">[varchar(64)]</text>
<polygon fill="none" stroke="black" points="429.37,-546 429.37,-576.8 708.72,-576.8 708.72,-546 429.37,-546"/>
<text text-anchor="start" x="436.37" y="-558.2" font-family="Arial" font-size="14.00">status </text>
<text text-anchor="start" x="477.61" y="-558.2" font-family="Arial" font-size="14.00" fill="#666666">[varchar(50)]</text>
<polygon fill="none" stroke="black" points="429.37,-515.2 429.37,-546 708.72,-546 708.72,-515.2 429.37,-515.2"/>
<text text-anchor="start" x="436.37" y="-527.4" font-family="Arial" font-size="14.00">expires_at </text>
<text text-anchor="start" x="504.85" y="-527.4" font-family="Arial" font-size="14.00" fill="#666666">[timestamp without time zone]</text>
<polygon fill="none" stroke="black" points="429.37,-484.4 429.37,-515.2 708.72,-515.2 708.72,-484.4 429.37,-484.4"/>
<text text-anchor="start" x="436.37" y="-496.6" font-family="Arial" font-size="14.00">accepted_by </text>
<text text-anchor="start" x="519.65" y="-496.6" font-family="Arial" font-size="14.00" fill="#666666">[uuid]</text>
<polygon fill="none" stroke="black" points="429.37,-453.6 429.37,-484.4 708.72,-484.4 708.72,-453.6 429.37,-453.6"/>
<text text-anchor="start" x="436.37" y="-465.8" font-family="Arial" font-size="14.00">accepted_at </text>
<text text-anchor="start" x="516.54" y="-465.8" font-family="Arial" font-size="14.00" fill="#666666">[timestamp without time zone]</text>
<polygon fill="none" stroke="black" points="429.37,-422.8 429.37,-453.6 708.72,-453.6 708.72,-422.8 429.37,-422.8"/>
<text text-anchor="start" x="436.37" y="-435" font-family="Arial" font-size="14.00">created_at </text>
<text text-anchor="start" x="506.41" y="-435" font-family="Arial" font-size="14.00" fill="#666666">[timestamp without time zone]</text>
<polygon fill="none" stroke="black" points="429.37,-392 429.37,-422.8 708.72,-422.8 708.72,-392 429.37,-392"/>
<text text-anchor="start" x="436.37" y="-404.2" font-family="Arial" font-size="14.00">updated_at </text>
<text text-anchor="start" x="510.32" y="-404.2" font-family="Arial" font-size="14.00" fill="#666666">[timestamp without time zone]</text>
</g>
<!-- public.invitations&#45;&gt;public.roles -->
<g id="edge2" class="edge">
<title>public.invitations:role_id&#45;&gt;public.roles:id</title>
<path fill="none" stroke="black" d="M418.46,-651.79C363.92,-628.13 394.02,-402.4 429.37,-348.8 451.56,-315.15 490.31,-346.38 512.62,-312.8 536.53,-276.82 556.82,-215.6 513.62,-215.6"/>
<polygon fill="black" stroke="black" points="418.24,-651.75 427.14,-658.14 423.47,-652.81 427.71,-653.67 427.71,-653.67 427.71,-653.67 423.47,-652.81 428.93,-649.32 418.24,-651.75"/>
<text text-anchor="start" x="377.41" y="-637.8" font-family="Arial" font-size="10.00">FOREIGN KEY (role_id) REFERENCES roles(id)</text>
</g>
</g>
</svg>
