<?xml version="1.0" encoding="UTF-8" standalone="no"?>
<!DOCTYPE svg PUBLIC "-//W3C//DTD SVG 1.1//EN"
 "http://www.w3.org/Graphics/SVG/1.1/DTD/svg11.dtd">
<!-- Generated by graphviz version 12.1.2 (20240928.0832)
 -->
<!-- Title: public.tool_policies Pages: 1 -->
<svg width="1305pt" height="1033pt"
 viewBox="0.00 0.00 1304.93 1033.20" xmlns="http://www.w3.org/2000/svg" xmlns:xlink="http://www.w3.org/1999/xlink">
<g id="graph0" class="graph" transform="scale(1 1) rotate(0) translate(4 1029.2)">
<title>public.tool_policies</title>
<polygon fill="white" stroke="none" points="-4,4 -4,-1029.2 1300.93,-1029.2 1300.93,4 -4,4"/>
<!-- public.tool_policies -->
<g id="node1" class="node">
<title>public.tool_policies</title>
<polygon fill="#efefef" stroke="none" points="619.19,-943.4 619.19,-979 900.16,-979 900.16,-943.4 619.19,-943.4"/>
<polygon fill="none" stroke="black" points="619.19,-943.4 619.19,-979 900.16,-979 900.16,-943.4 619.19,-943.4"/>
<text text-anchor="start" x="626.19" y="-956.8" font-family="Arial Bold" font-size="18.00">public.tool_policies</text>
<text text-anchor="start" x="768.67" y="-956.8" font-family="Arial" font-size="14.00">    </text>
<text text-anchor="start" x="799.79" y="-956.8" font-family="Arial" font-size="14.00" fill="#666666">[BASE TABLE]</text>
<polygon fill="none" stroke="black" points="619.19,-912.6 619.19,-943.4 900.16,-943.4 900.16,-912.6 619.19,-912.6"/>
<text text-anchor="start" x="626.19" y="-924.8" font-family="Arial" font-size="14.00">id </text>
<text text-anchor="start" x="640.98" y="-924.8" font-family="Arial" font-size="14.00" fill="#666666">[uuid]</text>
<polygon fill="none" stroke="black" points="619.19,-881.8 619.19,-912.6 900.16,-912.6 900.16,-881.8 619.19,-881.8"/>
<text text-anchor="start" x="626.19" y="-894" font-family="Arial" font-size="14.00">org_id </text>
<text text-anchor="start" x="669" y="-894" font-family="Arial" font-size="14.00" fill="#666666">[uuid]</text>
<polygon fill="none" stroke="black" points="619.19,-851 619.19,-881.8 900.16,-881.8 900.16,-851 619.19,-851"/>
<text text-anchor="start" x="626.19" y="-863.2" font-family="Arial" font-size="14.00">team_id </text>
<text text-anchor="start" x="679.89" y="-863.2" font-family="Arial" font-size="14.00" fill="#666666">[uuid]</text>
<polygon fill="none" stroke="black" points="619.19,-820.2 619.19,-851 900.16,-851 900.16,-820.2 619.19,-820.2"/>
<text text-anchor="start" x="626.19" y="-832.4" font-family="Arial" font-size="14.00">employee_id </text>
<text text-anchor="start" x="709.47" y="-832.4" font-family="Arial" font-size="14.00" fill="#666666">[uuid]</text>
<polygon fill="none" stroke="black" points="619.19,-789.4 619.19,-820.2 900.16,-820.2 900.16,-789.4 619.19,-789.4"/>
<text text-anchor="start" x="626.19" y="-801.6" font-family="Arial" font-size="14.00">tool_name </text>
<text text-anchor="start" x="695.46" y="-801.6" font-family="Arial" font-size="14.00" fill="#666666">[varchar(255)]</text>
<polygon fill="none" stroke="black" points="619.19,-758.6 619.19,-789.4 900.16,-789.4 900.16,-758.6 619.19,-758.6"/>
<text text-anchor="start" x="626.19" y="-770.8" font-family="Arial" font-size="14.00">conditions </text>
<text text-anchor="start" x="693.12" y="-770.8" font-family="Arial" font-size="14.00" fill="#666666">[jsonb]</text>
<polygon fill="none" stroke="black" points="619.19,-727.8 619.19,-758.6 900.16,-758.6 900.16,-727.8 619.19,-727.8"/>
<text text-anchor="start" x="626.19" y="-740" font-family="Arial" font-size="14.00">action </text>
<text text-anchor="start" x="667.44" y="-740" font-family="Arial" font-size="14.00" fill="#666666">[varchar(20)]</text>
<polygon fill="none" stroke="black" points="619.19,-697 619.19,-727.8 900.16,-727.8 900.16,-697 619.19,-697"/>
<text text-anchor="start" x="626.19" y="-709.2" font-family="Arial" font-size="14.00">reason </text>
<text text-anchor="start" x="672.89" y="-709.2" font-family="Arial" font-size="14.00" fill="#666666">[text]</text>
<polygon fill="none" stroke="black" points="619.19,-666.2 619.19,-697 900.16,-697 900.16,-666.2 619.19,-666.2"/>
<text text-anchor="start" x="626.19" y="-678.4" font-family="Arial" font-size="14.00">created_by </text>
<text text-anchor="start" x="699.35" y="-678.4" font-family="Arial" font-size="14.00" fill="#666666">[uuid]</text>
<polygon fill="none" stroke="black" points="619.19,-635.4 619.19,-666.2 900.16,-666.2 900.16,-635.4 619.19,-635.4"/>
<text text-anchor="start" x="626.19" y="-647.6" font-family="Arial" font-size="14.00">created_at </text>
<text text-anchor="start" x="696.24" y="-647.6" font-family="Arial" font-size="14.00" fill="#666666">[timestamp without time zone]</text>
<polygon fill="none" stroke="black" points="619.19,-604.6 619.19,-635.4 900.16,-635.4 900.16,-604.6 619.19,-604.6"/>
<text text-anchor="start" x="626.19" y="-616.8" font-family="Arial" font-size="14.00">updated_at </text>
<text text-anchor="start" x="700.15" y="-616.8" font-family="Arial" font-size="14.00" fill="#666666">[timestamp without time zone]</text>
<polygon fill="none" stroke="black" stroke-width="3" points="617.69,-603.1 617.69,-980.5 901.66,-980.5 901.66,-603.1 617.69,-603.1"/>
</g>
<!-- public.organizations -->
<g id="node2" class="node">
<title>public.organizations</title>
<polygon fill="#efefef" stroke="none" points="43.2,-351.2 43.2,-386.8 328.15,-386.8 328.15,-351.2 43.2,-351.2"/>
<polygon fill="none" stroke="black" points="43.2,-351.2 43.2,-386.8 328.15,-386.8 328.15,-351.2 43.2,-351.2"/>
<text text-anchor="start" x="50.2" y="-364.6" font-family="Arial Bold" font-size="18.00">public.organizations</text>
<text text-anchor="start" x="196.66" y="-364.6" font-family="Arial" font-size="14.00">    </text>
<text text-anchor="start" x="227.78" y="-364.6" font-family="Arial" font-size="14.00" fill="#666666">[BASE TABLE]</text>
<polygon fill="none" stroke="black" points="43.2,-320.4 43.2,-351.2 328.15,-351.2 328.15,-320.4 43.2,-320.4"/>
<text text-anchor="start" x="50.2" y="-332.6" font-family="Arial" font-size="14.00">id </text>
<text text-anchor="start" x="64.99" y="-332.6" font-family="Arial" font-size="14.00" fill="#666666">[uuid]</text>
<polygon fill="none" stroke="black" points="43.2,-289.6 43.2,-320.4 328.15,-320.4 328.15,-289.6 43.2,-289.6"/>
<text text-anchor="start" x="50.2" y="-301.8" font-family="Arial" font-size="14.00">name </text>
<text text-anchor="start" x="89.11" y="-301.8" font-family="Arial" font-size="14.00" fill="#666666">[varchar(255)]</text>
<polygon fill="none" stroke="black" points="43.2,-258.8 43.2,-289.6 328.15,-289.6 328.15,-258.8 43.2,-258.8"/>
<text text-anchor="start" x="50.2" y="-271" font-family="Arial" font-size="14.00">slug </text>
<text text-anchor="start" x="79.77" y="-271" font-family="Arial" font-size="14.00" fill="#666666">[varchar(100)]</text>
<polygon fill="none" stroke="black" points="43.2,-228 43.2,-258.8 328.15,-258.8 328.15,-228 43.2,-228"/>
<text text-anchor="start" x="50.2" y="-240.2" font-family="Arial" font-size="14.00">settings </text>
<text text-anchor="start" x="102.34" y="-240.2" font-family="Arial" font-size="14.00" fill="#666666">[jsonb]</text>
<polygon fill="none" stroke="black" points="43.2,-197.2 43.2,-228 328.15,-228 328.15,-197.2 43.2,-197.2"/>
<text text-anchor="start" x="50.2" y="-209.4" font-family="Arial" font-size="14.00">max_employees </text>
<text text-anchor="start" x="156.03" y="-209.4" font-family="Arial" font-size="14.00" fill="#666666">[integer]</text>
<polygon fill="none" stroke="black" points="43.2,-166.4 43.2,-197.2 328.15,-197.2 328.15,-166.4 43.2,-166.4"/>
<text text-anchor="start" x="50.2" y="-178.6" font-family="Arial" font-size="14.00">created_at </text>
<text text-anchor="start" x="120.25" y="-178.6" font-family="Arial" font-size="14.00" fill="#666666">[timestamp without time zone]</text>
<polygon fill="none" stroke="black" points="43.2,-135.6 43.2,-166.4 328.15,-166.4 328.15,-135.6 43.2,-135.6"/>
<text text-anchor="start" x="50.2" y="-147.8" font-family="Arial" font-size="14.00">updated_at </text>
<text text-anchor="start" x="124.16" y="-147.8" font-family="Arial" font-size="14.00" fill="#666666">[timestamp without time zone]</text>
</g>
<!-- public.tool_policies&#45;&gt;public.organizations -->
<g id="edge1" class="edge">
<title>public.tool_policies:org_id&#45;&gt;public.organizations:id</title>
<path fill="none" stroke="black" d="M608,-897.02C422.07,-890.38 457.99,-699.87 379.68,-522.4 344.99,-443.79 415.07,-335.8 329.15,-335.8"/>
<polygon fill="black" stroke="black" points="607.86,-897.02 617.78,-901.69 613.19,-897.11 617.52,-897.19 617.52,-897.19 617.52,-897.19 613.19,-897.11 617.94,-892.69 607.86,-897.02"/>
<text text-anchor="start" x="247.2" y="-907.2" font-family="Arial" font-size="10.00">FOREIGN KEY (org_id) REFERENCES organizations(id) ON DELETE CASCADE</text>
</g>
<!-- public.teams -->
<g id="node3" class="node">
<title>public.teams</title>
<polygon fill="#efefef" stroke="none" points="432.1,-335.8 432.1,-371.4 705.25,-371.4 705.25,-335.8 432.1,-335.8"/>
<polygon fill="none" stroke="black" points="432.1,-335.8 432.1,-371.4 705.25,-371.4 705.25,-335.8 432.1,-335.8"/>
<text text-anchor="start" x="460.69" y="-349.2" font-family="Arial Bold" font-size="18.00">public.teams</text>
<text text-anchor="start" x="552.17" y="-349.2" font-family="Arial" font-size="14.00">    </text>
<text text-anchor="start" x="583.29" y="-349.2" font-family="Arial" font-size="14.00" fill="#666666">[BASE TABLE]</text>
<polygon fill="none" stroke="black" points="432.1,-305 432.1,-335.8 705.25,-335.8 705.25,-305 432.1,-305"/>
<text text-anchor="start" x="439.1" y="-317.2" font-family="Arial" font-size="14.00">id </text>
<text text-anchor="start" x="453.89" y="-317.2" font-family="Arial" font-size="14.00" fill="#666666">[uuid]</text>
<polygon fill="none" stroke="black" points="432.1,-274.2 432.1,-305 705.25,-305 705.25,-274.2 432.1,-274.2"/>
<text text-anchor="start" x="439.1" y="-286.4" font-family="Arial" font-size="14.00">org_id </text>
<text text-anchor="start" x="481.91" y="-286.4" font-family="Arial" font-size="14.00" fill="#666666">[uuid]</text>
<polygon fill="none" stroke="black" points="432.1,-243.4 432.1,-274.2 705.25,-274.2 705.25,-243.4 432.1,-243.4"/>
<text text-anchor="start" x="439.1" y="-255.6" font-family="Arial" font-size="14.00">name </text>
<text text-anchor="start" x="478.01" y="-255.6" font-family="Arial" font-size="14.00" fill="#666666">[varchar(255)]</text>
<polygon fill="none" stroke="black" points="432.1,-212.6 432.1,-243.4 705.25,-243.4 705.25,-212.6 432.1,-212.6"/>
<text text-anchor="start" x="439.1" y="-224.8" font-family="Arial" font-size="14.00">description </text>
<text text-anchor="start" x="510.7" y="-224.8" font-family="Arial" font-size="14.00" fill="#666666">[text]</text>
<polygon fill="none" stroke="black" points="432.1,-181.8 432.1,-212.6 705.25,-212.6 705.25,-181.8 432.1,-181.8"/>
<text text-anchor="start" x="439.1" y="-194" font-family="Arial" font-size="14.00">created_at </text>
<text text-anchor="start" x="509.15" y="-194" font-family="Arial" font-size="14.00" fill="#666666">[timestamp without time zone]</text>
<polygon fill="none" stroke="black" points="432.1,-151 432.1,-181.8 705.25,-181.8 705.25,-151 432.1,-151"/>
<text text-anchor="start" x="439.1" y="-163.2" font-family="Arial" font-size="14.00">updated_at </text>
<text text-anchor="start" x="513.06" y="-163.2" font-family="Arial" font-size="14.00" fill="#666666">[timestamp without time zone]</text>
</g>
<!-- public.tool_policies&#45;&gt;public.teams -->
<g id="edge2" class="edge">
<title>public.tool_policies:team_id&#45;&gt;public.teams:id</title>
<path fill="none" stroke="black" d="M607.85,-866.04C486.59,-857.14 583.48,-686.81 619.19,-558.4 639.15,-486.64 685.03,-486.28 705.25,-414.6 716.61,-374.3 748.12,-320.4 706.25,-320.4"/>
<polygon fill="black" stroke="black" points="607.86,-866.04 617.7,-870.89 613.19,-866.22 617.52,-866.38 617.52,-866.38 617.52,-866.38 613.19,-866.22 618.01,-861.89 607.86,-866.04"/>
<text text-anchor="start" x="271.67" y="-876.4" font-family="Arial" font-size="10.00">FOREIGN KEY (team_id) REFERENCES teams(id) ON DELETE CASCADE</text>
</g>
<!-- public.employees -->
<g id="node4" class="node">
<title>public.employees</title>
<polygon fill="#efefef" stroke="none" points="809.83,-443.6 809.83,-479.2 1091.52,-479.2 1091.52,-443.6 809.83,-443.6"/>
<polygon fill="none" stroke="black" points="809.83,-443.6 809.83,-479.2 1091.52,-479.2 1091.52,-443.6 809.83,-443.6"/>
<text text-anchor="start" x="825.2" y="-457" font-family="Arial Bold" font-size="18.00">public.employees</text>
<text text-anchor="start" x="951.66" y="-457" font-family="Arial" font-size="14.00">    </text>
<text text-anchor="start" x="982.78" y="-457" font-family="Arial" font-size="14.00" fill="#666666">[BASE TABLE]</text>
<polygon fill="none" stroke="black" points="809.83,-412.8 809.83,-443.6 1091.52,-443.6 1091.52,-412.8 809.83,-412.8"/>
<text text-anchor="start" x="816.83" y="-425" font-family="Arial" font-size="14.00">id </text>
<text text-anchor="start" x="831.62" y="-425" font-family="Arial" font-size="14.00" fill="#666666">[uuid]</text>
<polygon fill="none" stroke="black" points="809.83,-382 809.83,-412.8 1091.52,-412.8 1091.52,-382 809.83,-382"/>
<text text-anchor="start" x="816.83" y="-394.2" font-family="Arial" font-size="14.00">org_id </text>
<text text-anchor="start" x="859.64" y="-394.2" font-family="Arial" font-size="14.00" fill="#666666">[uuid]</text>
<polygon fill="none" stroke="black" points="809.83,-351.2 809.83,-382 1091.52,-382 1091.52,-351.2 809.83,-351.2"/>
<text text-anchor="start" x="816.83" y="-363.4" font-family="Arial" font-size="14.00">team_id </text>
<text text-anchor="start" x="870.53" y="-363.4" font-family="Arial" font-size="14.00" fill="#666666">[uuid]</text>
<polygon fill="none" stroke="black" points="809.83,-320.4 809.83,-351.2 1091.52,-351.2 1091.52,-320.4 809.83,-320.4"/>
<text text-anchor="start" x="816.83" y="-332.6" font-family="Arial" font-size="14.00">role_id </text>
<text text-anchor="start" x="862.75" y="-332.6" font-family="Arial" font-size="14.00" fill="#666666">[uuid]</text>
<polygon fill="none" stroke="black" points="809.83,-289.6 809.83,-320.4 1091.52,-320.4 1091.52,-289.6 809.83,-289.6"/>
<text text-anchor="start" x="816.83" y="-301.8" font-family="Arial" font-size="14.00">email </text>
<text text-anchor="start" x="854.18" y="-301.8" font-family="Arial" font-size="14.00" fill="#666666">[varchar(255)]</text>
<polygon fill="none" stroke="black" points="809.83,-258.8 809.83,-289.6 1091.52,-289.6 1091.52,-258.8 809.83,-258.8"/>
<text text-anchor="start" x="816.83" y="-271" font-family="Arial" font-size="14.00">full_name </text>
<text text-anchor="start" x="881.42" y="-271" font-family="Arial" font-size="14.00" fill="#666666">[varchar(255)]</text>
<polygon fill="none" stroke="black" points="809.83,-228 809.83,-258.8 1091.52,-258.8 1091.52,-228 809.83,-228"/>
<text text-anchor="start" x="816.83" y="-240.2" font-family="Arial" font-size="14.00">password_hash </text>
<text text-anchor="start" x="918.78" y="-240.2" font-family="Arial" font-size="14.00" fill="#666666">[varchar(255)]</text>
<polygon fill="none" stroke="black" points="809.83,-197.2 809.83,-228 1091.52,-228 1091.52,-197.2 809.83,-197.2"/>
<text text-anchor="start" x="816.83" y="-209.4" font-family="Arial" font-size="14.00">status </text>
<text text-anchor="start" x="858.07" y="-209.4" font-family="Arial" font-size="14.00" fill="#666666">[varchar(50)]</text>
<polygon fill="none" stroke="black" points="809.83,-166.4 809.83,-197.2 1091.52,-197.2 1091.52,-166.4 809.83,-166.4"/>
<text text-anchor="start" x="816.83" y="-178.6" font-family="Arial" font-size="14.00">preferences </text>
<text text-anchor="start" x="894.65" y="-178.6" font-family="Arial" font-size="14.00" fill="#666666">[jsonb]</text>
<polygon fill="none" stroke="black" points="809.83,-135.6 809.83,-166.4 1091.52,-166.4 1091.52,-135.6 809.83,-135.6"/>
<text text-anchor="start" x="816.83" y="-147.8" font-family="Arial" font-size="14.00">last_login_at </text>
<text text-anchor="start" x="899.33" y="-147.8" font-family="Arial" font-size="14.00" fill="#666666">[timestamp without time zone]</text>
<polygon fill="none" stroke="black" points="809.83,-104.8 809.83,-135.6 1091.52,-135.6 1091.52,-104.8 809.83,-104.8"/>
<text text-anchor="start" x="816.83" y="-117" font-family="Arial" font-size="14.00">created_at </text>
<text text-anchor="start" x="886.88" y="-117" font-family="Arial" font-size="14.00" fill="#666666">[timestamp without time zone]</text>
<polygon fill="none" stroke="black" points="809.83,-74 809.83,-104.8 1091.52,-104.8 1091.52,-74 809.83,-74"/>
<text text-anchor="start" x="816.83" y="-86.2" font-family="Arial" font-size="14.00">updated_at </text>
<text text-anchor="start" x="890.79" y="-86.2" font-family="Arial" font-size="14.00" fill="#666666">[timestamp without time zone]</text>
<polygon fill="none" stroke="black" points="809.83,-43.2 809.83,-74 1091.52,-74 1091.52,-43.2 809.83,-43.2"/>
<text text-anchor="start" x="816.83" y="-55.4" font-family="Arial" font-size="14.00">deleted_at </text>
<text text-anchor="start" x="886.11" y="-55.4" font-family="Arial" font-size="14.00" fill="#666666">[timestamp without time zone]</text>
</g>
<!-- public.tool_policies&#45;&gt;public.employees -->
<g id="edge3" class="edge">
<title>public.tool_policies:employee_id&#45;&gt;public.employees:id</title>
<path fill="none" stroke="black" d="M911.53,-835.15C1021.13,-825.39 967.45,-657.27 900.16,-558.4 875.84,-522.67 834.27,-558.04 809.83,-522.4 786.15,-487.87 766.96,-428.2 808.83,-428.2"/>
<polygon fill="black" stroke="black" points="911.48,-835.16 901.3,-831.09 906.15,-835.39 901.83,-835.57 901.83,-835.57 901.83,-835.57 906.15,-835.39 901.69,-840.08 911.48,-835.16"/>
<text text-anchor="start" x="908.16" y="-845.6" font-family="Arial" font-size="10.00">FOREIGN KEY (employee_id) REFERENCES employees(id) ON DELETE CASCADE</text>
</g>
<!-- public.tool_policies&#45;&gt;public.employees -->
<g id="edge4" class="edge">
<title>public.tool_policies:created_by&#45;&gt;public.employees:id</title>
<path fill="none" stroke="black" d="M911.3,-680.54C952.49,-671.09 928.96,-600.51 900.16,-558.4 875.76,-522.73 834.27,-558.04 809.83,-522.4 786.15,-487.87 766.96,-428.2 808.83,-428.2"/>
<polygon fill="black" stroke="black" points="911.44,-680.53 901.02,-677.09 906.13,-681.08 901.82,-681.53 901.82,-681.53 901.82,-681.53 906.13,-681.08 901.96,-686.04 911.44,-680.53"/>
<text text-anchor="start" x="908.16" y="-691.6" font-family="Arial" font-size="10.00">FOREIGN KEY (created_by) REFERENCES employees(id) ON DELETE SET NULL</text>
</g>
</g>
</svg>
