<?xml version="1.0" encoding="UTF-8" standalone="no"?>
<!DOCTYPE svg PUBLIC "-//W3C//DTD SVG 1.1//EN"
 "http://www.w3.org/Graphics/SVG/1.1/DTD/svg11.dtd">
<!-- Generated by graphviz version 12.1.2 (20240928.0832)
 -->
<!-- Title: public.organizations Pages: 1 -->
<svg width="2477pt" height="1033pt"
 viewBox="0.00 0.00 2476.73 1033.20" xmlns="http://www.w3.org/2000/svg" xmlns:xlink="http://www.w3.org/1999/xlink">
<g id="graph0" class="graph" transform="scale(1 1) rotate(0) translate(4 1029.2)">
<title>public.organizations</title>
<polygon fill="white" stroke="none" points="-4,4 -4,-1029.2 2472.73,-1029.2 2472.73,4 -4,4"/>
<!-- public.organizations -->
<g id="node1" class="node">
<title>public.organizations</title>
<polygon fill="#efefef" stroke="none" points="1057.94,-261.8 1057.94,-297.4 1342.89,-297.4 1342.89,-261.8 1057.94,-261.8"/>
<polygon fill="none" stroke="black" points="1057.94,-261.8 1057.94,-297.4 1342.89,-297.4 1342.89,-261.8 1057.94,-261.8"/>
<text text-anchor="start" x="1064.94" y="-275.2" font-family="Arial Bold" font-size="18.00">public.organizations</text>
<text text-anchor="start" x="1211.4" y="-275.2" font-family="Arial" font-size="14.00">    </text>
<text text-anchor="start" x="1242.52" y="-275.2" font-family="Arial" font-size="14.00" fill="#666666">[BASE TABLE]</text>
<polygon fill="none" stroke="black" points="1057.94,-231 1057.94,-261.8 1342.89,-261.8 1342.89,-231 1057.94,-231"/>
<text text-anchor="start" x="1064.94" y="-243.2" font-family="Arial" font-size="14.00">id </text>
<text text-anchor="start" x="1079.73" y="-243.2" font-family="Arial" font-size="14.00" fill="#666666">[uuid]</text>
<polygon fill="none" stroke="black" points="1057.94,-200.2 1057.94,-231 1342.89,-231 1342.89,-200.2 1057.94,-200.2"/>
<text text-anchor="start" x="1064.94" y="-212.4" font-family="Arial" font-size="14.00">name </text>
<text text-anchor="start" x="1103.85" y="-212.4" font-family="Arial" font-size="14.00" fill="#666666">[varchar(255)]</text>
<polygon fill="none" stroke="black" points="1057.94,-169.4 1057.94,-200.2 1342.89,-200.2 1342.89,-169.4 1057.94,-169.4"/>
<text text-anchor="start" x="1064.94" y="-181.6" font-family="Arial" font-size="14.00">slug </text>
<text text-anchor="start" x="1094.51" y="-181.6" font-family="Arial" font-size="14.00" fill="#666666">[varchar(100)]</text>
<polygon fill="none" stroke="black" points="1057.94,-138.6 1057.94,-169.4 1342.89,-169.4 1342.89,-138.6 1057.94,-138.6"/>
<text text-anchor="start" x="1064.94" y="-150.8" font-family="Arial" font-size="14.00">settings </text>
<text text-anchor="start" x="1117.08" y="-150.8" font-family="Arial" font-size="14.00" fill="#666666">[jsonb]</text>
<polygon fill="none" stroke="black" points="1057.94,-107.8 1057.94,-138.6 1342.89,-138.6 1342.89,-107.8 1057.94,-107.8"/>
<text text-anchor="start" x="1064.94" y="-120" font-family="Arial" font-size="14.00">max_employees </text>
<text text-anchor="start" x="1170.77" y="-120" font-family="Arial" font-size="14.00" fill="#666666">[integer]</text>
<polygon fill="none" stroke="black" points="1057.94,-77 1057.94,-107.8 1342.89,-107.8 1342.89,-77 1057.94,-77"/>
<text text-anchor="start" x="1064.94" y="-89.2" font-family="Arial" font-size="14.00">created_at </text>
<text text-anchor="start" x="1134.99" y="-89.2" font-family="Arial" font-size="14.00" fill="#666666">[timestamp without time zone]</text>
<polygon fill="none" stroke="black" points="1057.94,-46.2 1057.94,-77 1342.89,-77 1342.89,-46.2 1057.94,-46.2"/>
<text text-anchor="start" x="1064.94" y="-58.4" font-family="Arial" font-size="14.00">updated_at </text>
<text text-anchor="start" x="1138.9" y="-58.4" font-family="Arial" font-size="14.00" fill="#666666">[timestamp without time zone]</text>
<polygon fill="none" stroke="black" stroke-width="3" points="1056.44,-44.7 1056.44,-298.9 1344.39,-298.9 1344.39,-44.7 1056.44,-44.7"/>
</g>
<!-- public.teams -->
<g id="node2" class="node">
<title>public.teams</title>
<polygon fill="#efefef" stroke="none" points="103.85,-777 103.85,-812.6 376.99,-812.6 376.99,-777 103.85,-777"/>
<polygon fill="none" stroke="black" points="103.85,-777 103.85,-812.6 376.99,-812.6 376.99,-777 103.85,-777"/>
<text text-anchor="start" x="132.43" y="-790.4" font-family="Arial Bold" font-size="18.00">public.teams</text>
<text text-anchor="start" x="223.91" y="-790.4" font-family="Arial" font-size="14.00">    </text>
<text text-anchor="start" x="255.03" y="-790.4" font-family="Arial" font-size="14.00" fill="#666666">[BASE TABLE]</text>
<polygon fill="none" stroke="black" points="103.85,-746.2 103.85,-777 376.99,-777 376.99,-746.2 103.85,-746.2"/>
<text text-anchor="start" x="110.85" y="-758.4" font-family="Arial" font-size="14.00">id </text>
<text text-anchor="start" x="125.63" y="-758.4" font-family="Arial" font-size="14.00" fill="#666666">[uuid]</text>
<polygon fill="none" stroke="black" points="103.85,-715.4 103.85,-746.2 376.99,-746.2 376.99,-715.4 103.85,-715.4"/>
<text text-anchor="start" x="110.85" y="-727.6" font-family="Arial" font-size="14.00">org_id </text>
<text text-anchor="start" x="153.65" y="-727.6" font-family="Arial" font-size="14.00" fill="#666666">[uuid]</text>
<polygon fill="none" stroke="black" points="103.85,-684.6 103.85,-715.4 376.99,-715.4 376.99,-684.6 103.85,-684.6"/>
<text text-anchor="start" x="110.85" y="-696.8" font-family="Arial" font-size="14.00">name </text>
<text text-anchor="start" x="149.76" y="-696.8" font-family="Arial" font-size="14.00" fill="#666666">[varchar(255)]</text>
<polygon fill="none" stroke="black" points="103.85,-653.8 103.85,-684.6 376.99,-684.6 376.99,-653.8 103.85,-653.8"/>
<text text-anchor="start" x="110.85" y="-666" font-family="Arial" font-size="14.00">description </text>
<text text-anchor="start" x="182.44" y="-666" font-family="Arial" font-size="14.00" fill="#666666">[text]</text>
<polygon fill="none" stroke="black" points="103.85,-623 103.85,-653.8 376.99,-653.8 376.99,-623 103.85,-623"/>
<text text-anchor="start" x="110.85" y="-635.2" font-family="Arial" font-size="14.00">created_at </text>
<text text-anchor="start" x="180.89" y="-635.2" font-family="Arial" font-size="14.00" fill="#666666">[timestamp without time zone]</text>
<polygon fill="none" stroke="black" points="103.85,-592.2 103.85,-623 376.99,-623 376.99,-592.2 103.85,-592.2"/>
<text text-anchor="start" x="110.85" y="-604.4" font-family="Arial" font-size="14.00">updated_at </text>
<text text-anchor="start" x="184.8" y="-604.4" font-family="Arial" font-size="14.00" fill="#666666">[timestamp without time zone]</text>
</g>
<!-- public.teams&#45;&gt;public.organizations -->
<g id="edge1" class="edge">
<title>public.teams:org_id&#45;&gt;public.organizations:id</title>
<path fill="none" stroke="black" d="M388.06,-728.92C449.53,-703.79 377.98,-434.43 429.42,-379.6 526.96,-275.64 914.39,-246.4 1056.94,-246.4"/>
<polygon fill="black" stroke="black" points="388.15,-728.9 377.49,-726.32 382.9,-729.88 378.65,-730.68 378.65,-730.68 378.65,-730.68 382.9,-729.88 379.14,-735.16 388.15,-728.9"/>
<text text-anchor="start" x="7" y="-740.8" font-family="Arial" font-size="10.00">FOREIGN KEY (org_id) REFERENCES organizations(id) ON DELETE CASCADE</text>
</g>
<!-- public.employees -->
<g id="node3" class="node">
<title>public.employees</title>
<polygon fill="#efefef" stroke="none" points="481.57,-884.8 481.57,-920.4 763.26,-920.4 763.26,-884.8 481.57,-884.8"/>
<polygon fill="none" stroke="black" points="481.57,-884.8 481.57,-920.4 763.26,-920.4 763.26,-884.8 481.57,-884.8"/>
<text text-anchor="start" x="496.94" y="-898.2" font-family="Arial Bold" font-size="18.00">public.employees</text>
<text text-anchor="start" x="623.41" y="-898.2" font-family="Arial" font-size="14.00">    </text>
<text text-anchor="start" x="654.52" y="-898.2" font-family="Arial" font-size="14.00" fill="#666666">[BASE TABLE]</text>
<polygon fill="none" stroke="black" points="481.57,-854 481.57,-884.8 763.26,-884.8 763.26,-854 481.57,-854"/>
<text text-anchor="start" x="488.57" y="-866.2" font-family="Arial" font-size="14.00">id </text>
<text text-anchor="start" x="503.36" y="-866.2" font-family="Arial" font-size="14.00" fill="#666666">[uuid]</text>
<polygon fill="none" stroke="black" points="481.57,-823.2 481.57,-854 763.26,-854 763.26,-823.2 481.57,-823.2"/>
<text text-anchor="start" x="488.57" y="-835.4" font-family="Arial" font-size="14.00">org_id </text>
<text text-anchor="start" x="531.38" y="-835.4" font-family="Arial" font-size="14.00" fill="#666666">[uuid]</text>
<polygon fill="none" stroke="black" points="481.57,-792.4 481.57,-823.2 763.26,-823.2 763.26,-792.4 481.57,-792.4"/>
<text text-anchor="start" x="488.57" y="-804.6" font-family="Arial" font-size="14.00">team_id </text>
<text text-anchor="start" x="542.27" y="-804.6" font-family="Arial" font-size="14.00" fill="#666666">[uuid]</text>
<polygon fill="none" stroke="black" points="481.57,-761.6 481.57,-792.4 763.26,-792.4 763.26,-761.6 481.57,-761.6"/>
<text text-anchor="start" x="488.57" y="-773.8" font-family="Arial" font-size="14.00">role_id </text>
<text text-anchor="start" x="534.49" y="-773.8" font-family="Arial" font-size="14.00" fill="#666666">[uuid]</text>
<polygon fill="none" stroke="black" points="481.57,-730.8 481.57,-761.6 763.26,-761.6 763.26,-730.8 481.57,-730.8"/>
<text text-anchor="start" x="488.57" y="-743" font-family="Arial" font-size="14.00">email </text>
<text text-anchor="start" x="525.92" y="-743" font-family="Arial" font-size="14.00" fill="#666666">[varchar(255)]</text>
<polygon fill="none" stroke="black" points="481.57,-700 481.57,-730.8 763.26,-730.8 763.26,-700 481.57,-700"/>
<text text-anchor="start" x="488.57" y="-712.2" font-family="Arial" font-size="14.00">full_name </text>
<text text-anchor="start" x="553.17" y="-712.2" font-family="Arial" font-size="14.00" fill="#666666">[varchar(255)]</text>
<polygon fill="none" stroke="black" points="481.57,-669.2 481.57,-700 763.26,-700 763.26,-669.2 481.57,-669.2"/>
<text text-anchor="start" x="488.57" y="-681.4" font-family="Arial" font-size="14.00">password_hash </text>
<text text-anchor="start" x="590.52" y="-681.4" font-family="Arial" font-size="14.00" fill="#666666">[varchar(255)]</text>
<polygon fill="none" stroke="black" points="481.57,-638.4 481.57,-669.2 763.26,-669.2 763.26,-638.4 481.57,-638.4"/>
<text text-anchor="start" x="488.57" y="-650.6" font-family="Arial" font-size="14.00">status </text>
<text text-anchor="start" x="529.81" y="-650.6" font-family="Arial" font-size="14.00" fill="#666666">[varchar(50)]</text>
<polygon fill="none" stroke="black" points="481.57,-607.6 481.57,-638.4 763.26,-638.4 763.26,-607.6 481.57,-607.6"/>
<text text-anchor="start" x="488.57" y="-619.8" font-family="Arial" font-size="14.00">preferences </text>
<text text-anchor="start" x="566.39" y="-619.8" font-family="Arial" font-size="14.00" fill="#666666">[jsonb]</text>
<polygon fill="none" stroke="black" points="481.57,-576.8 481.57,-607.6 763.26,-607.6 763.26,-576.8 481.57,-576.8"/>
<text text-anchor="start" x="488.57" y="-589" font-family="Arial" font-size="14.00">last_login_at </text>
<text text-anchor="start" x="571.08" y="-589" font-family="Arial" font-size="14.00" fill="#666666">[timestamp without time zone]</text>
<polygon fill="none" stroke="black" points="481.57,-546 481.57,-576.8 763.26,-576.8 763.26,-546 481.57,-546"/>
<text text-anchor="start" x="488.57" y="-558.2" font-family="Arial" font-size="14.00">created_at </text>
<text text-anchor="start" x="558.62" y="-558.2" font-family="Arial" font-size="14.00" fill="#666666">[timestamp without time zone]</text>
<polygon fill="none" stroke="black" points="481.57,-515.2 481.57,-546 763.26,-546 763.26,-515.2 481.57,-515.2"/>
<text text-anchor="start" x="488.57" y="-527.4" font-family="Arial" font-size="14.00">updated_at </text>
<text text-anchor="start" x="562.53" y="-527.4" font-family="Arial" font-size="14.00" fill="#666666">[timestamp without time zone]</text>
<polygon fill="none" stroke="black" points="481.57,-484.4 481.57,-515.2 763.26,-515.2 763.26,-484.4 481.57,-484.4"/>
<text text-anchor="start" x="488.57" y="-496.6" font-family="Arial" font-size="14.00">deleted_at </text>
<text text-anchor="start" x="557.86" y="-496.6" font-family="Arial" font-size="14.00" fill="#666666">[timestamp without time zone]</text>
</g>
<!-- public.employees&#45;&gt;public.organizations -->
<g id="edge2" class="edge">
<title>public.employees:org_id&#45;&gt;public.organizations:id</title>
<path fill="none" stroke="black" d="M774.58,-837.17C859.27,-811.97 760.47,-461.86 815.42,-379.6 883.51,-277.66 934.36,-246.4 1056.94,-246.4"/>
<polygon fill="black" stroke="black" points="774.5,-837.18 763.97,-834.1 769.21,-837.91 764.92,-838.51 764.92,-838.51 764.92,-838.51 769.21,-837.91 765.21,-843.01 774.5,-837.18"/>
<text text-anchor="start" x="771.26" y="-848.6" font-family="Arial" font-size="10.00">FOREIGN KEY (org_id) REFERENCES organizations(id) ON DELETE CASCADE</text>
</g>
<!-- public.tool_policies -->
<g id="node4" class="node">
<title>public.tool_policies</title>
<polygon fill="#efefef" stroke="none" points="867.93,-854 867.93,-889.6 1148.9,-889.6 1148.9,-854 867.93,-854"/>
<polygon fill="none" stroke="black" points="867.93,-854 867.93,-889.6 1148.9,-889.6 1148.9,-854 867.93,-854"/>
<text text-anchor="start" x="874.93" y="-867.4" font-family="Arial Bold" font-size="18.00">public.tool_policies</text>
<text text-anchor="start" x="1017.41" y="-867.4" font-family="Arial" font-size="14.00">    </text>
<text text-anchor="start" x="1048.53" y="-867.4" font-family="Arial" font-size="14.00" fill="#666666">[BASE TABLE]</text>
<polygon fill="none" stroke="black" points="867.93,-823.2 867.93,-854 1148.9,-854 1148.9,-823.2 867.93,-823.2"/>
<text text-anchor="start" x="874.93" y="-835.4" font-family="Arial" font-size="14.00">id </text>
<text text-anchor="start" x="889.72" y="-835.4" font-family="Arial" font-size="14.00" fill="#666666">[uuid]</text>
<polygon fill="none" stroke="black" points="867.93,-792.4 867.93,-823.2 1148.9,-823.2 1148.9,-792.4 867.93,-792.4"/>
<text text-anchor="start" x="874.93" y="-804.6" font-family="Arial" font-size="14.00">org_id </text>
<text text-anchor="start" x="917.74" y="-804.6" font-family="Arial" font-size="14.00" fill="#666666">[uuid]</text>
<polygon fill="none" stroke="black" points="867.93,-761.6 867.93,-792.4 1148.9,-792.4 1148.9,-761.6 867.93,-761.6"/>
<text text-anchor="start" x="874.93" y="-773.8" font-family="Arial" font-size="14.00">team_id </text>
<text text-anchor="start" x="928.63" y="-773.8" font-family="Arial" font-size="14.00" fill="#666666">[uuid]</text>
<polygon fill="none" stroke="black" points="867.93,-730.8 867.93,-761.6 1148.9,-761.6 1148.9,-730.8 867.93,-730.8"/>
<text text-anchor="start" x="874.93" y="-743" font-family="Arial" font-size="14.00">employee_id </text>
<text text-anchor="start" x="958.21" y="-743" font-family="Arial" font-size="14.00" fill="#666666">[uuid]</text>
<polygon fill="none" stroke="black" points="867.93,-700 867.93,-730.8 1148.9,-730.8 1148.9,-700 867.93,-700"/>
<text text-anchor="start" x="874.93" y="-712.2" font-family="Arial" font-size="14.00">tool_name </text>
<text text-anchor="start" x="944.2" y="-712.2" font-family="Arial" font-size="14.00" fill="#666666">[varchar(255)]</text>
<polygon fill="none" stroke="black" points="867.93,-669.2 867.93,-700 1148.9,-700 1148.9,-669.2 867.93,-669.2"/>
<text text-anchor="start" x="874.93" y="-681.4" font-family="Arial" font-size="14.00">conditions </text>
<text text-anchor="start" x="941.86" y="-681.4" font-family="Arial" font-size="14.00" fill="#666666">[jsonb]</text>
<polygon fill="none" stroke="black" points="867.93,-638.4 867.93,-669.2 1148.9,-669.2 1148.9,-638.4 867.93,-638.4"/>
<text text-anchor="start" x="874.93" y="-650.6" font-family="Arial" font-size="14.00">action </text>
<text text-anchor="start" x="916.18" y="-650.6" font-family="Arial" font-size="14.00" fill="#666666">[varchar(20)]</text>
<polygon fill="none" stroke="black" points="867.93,-607.6 867.93,-638.4 1148.9,-638.4 1148.9,-607.6 867.93,-607.6"/>
<text text-anchor="start" x="874.93" y="-619.8" font-family="Arial" font-size="14.00">reason </text>
<text text-anchor="start" x="921.63" y="-619.8" font-family="Arial" font-size="14.00" fill="#666666">[text]</text>
<polygon fill="none" stroke="black" points="867.93,-576.8 867.93,-607.6 1148.9,-607.6 1148.9,-576.8 867.93,-576.8"/>
<text text-anchor="start" x="874.93" y="-589" font-family="Arial" font-size="14.00">created_by </text>
<text text-anchor="start" x="948.09" y="-589" font-family="Arial" font-size="14.00" fill="#666666">[uuid]</text>
<polygon fill="none" stroke="black" points="867.93,-546 867.93,-576.8 1148.9,-576.8 1148.9,-546 867.93,-546"/>
<text text-anchor="start" x="874.93" y="-558.2" font-family="Arial" font-size="14.00">created_at </text>
<text text-anchor="start" x="944.98" y="-558.2" font-family="Arial" font-size="14.00" fill="#666666">[timestamp without time zone]</text>
<polygon fill="none" stroke="black" points="867.93,-515.2 867.93,-546 1148.9,-546 1148.9,-515.2 867.93,-515.2"/>
<text text-anchor="start" x="874.93" y="-527.4" font-family="Arial" font-size="14.00">updated_at </text>
<text text-anchor="start" x="948.89" y="-527.4" font-family="Arial" font-size="14.00" fill="#666666">[timestamp without time zone]</text>
</g>
<!-- public.tool_policies&#45;&gt;public.organizations -->
<g id="edge3" class="edge">
<title>public.tool_policies:org_id&#45;&gt;public.organizations:id</title>
<path fill="none" stroke="black" d="M1159.94,-805.96C1219.43,-782.41 1170.53,-539.6 1148.9,-472 1127.59,-405.39 1079.5,-410.13 1057.94,-343.6 1044.63,-302.5 1013.74,-246.4 1056.94,-246.4"/>
<polygon fill="black" stroke="black" points="1160.07,-805.94 1149.42,-803.31 1154.82,-806.9 1150.56,-807.68 1150.56,-807.68 1150.56,-807.68 1154.82,-806.9 1151.04,-812.17 1160.07,-805.94"/>
<text text-anchor="start" x="778.91" y="-817.8" font-family="Arial" font-size="10.00">FOREIGN KEY (org_id) REFERENCES organizations(id) ON DELETE CASCADE</text>
</g>
<!-- public.activity_logs -->
<g id="node5" class="node">
<title>public.activity_logs</title>
<polygon fill="#efefef" stroke="none" points="1252.93,-854 1252.93,-889.6 1533.9,-889.6 1533.9,-854 1252.93,-854"/>
<polygon fill="none" stroke="black" points="1252.93,-854 1252.93,-889.6 1533.9,-889.6 1533.9,-854 1252.93,-854"/>
<text text-anchor="start" x="1259.93" y="-867.4" font-family="Arial Bold" font-size="18.00">public.activity_logs</text>
<text text-anchor="start" x="1402.41" y="-867.4" font-family="Arial" font-size="14.00">    </text>
<text text-anchor="start" x="1433.53" y="-867.4" font-family="Arial" font-size="14.00" fill="#666666">[BASE TABLE]</text>
<polygon fill="none" stroke="black" points="1252.93,-823.2 1252.93,-854 1533.9,-854 1533.9,-823.2 1252.93,-823.2"/>
<text text-anchor="start" x="1259.93" y="-835.4" font-family="Arial" font-size="14.00">id </text>
<text text-anchor="start" x="1274.72" y="-835.4" font-family="Arial" font-size="14.00" fill="#666666">[uuid]</text>
<polygon fill="none" stroke="black" points="1252.93,-792.4 1252.93,-823.2 1533.9,-823.2 1533.9,-792.4 1252.93,-792.4"/>
<text text-anchor="start" x="1259.93" y="-804.6" font-family="Arial" font-size="14.00">org_id </text>
<text text-anchor="start" x="1302.74" y="-804.6" font-family="Arial" font-size="14.00" fill="#666666">[uuid]</text>
<polygon fill="none" stroke="black" points="1252.93,-761.6 1252.93,-792.4 1533.9,-792.4 1533.9,-761.6 1252.93,-761.6"/>
<text text-anchor="start" x="1259.93" y="-773.8" font-family="Arial" font-size="14.00">employee_id </text>
<text text-anchor="start" x="1343.21" y="-773.8" font-family="Arial" font-size="14.00" fill="#666666">[uuid]</text>
<polygon fill="none" stroke="black" points="1252.93,-730.8 1252.93,-761.6 1533.9,-761.6 1533.9,-730.8 1252.93,-730.8"/>
<text text-anchor="start" x="1259.93" y="-743" font-family="Arial" font-size="14.00">session_id </text>
<text text-anchor="start" x="1329.97" y="-743" font-family="Arial" font-size="14.00" fill="#666666">[uuid]</text>
<polygon fill="none" stroke="black" points="1252.93,-700 1252.93,-730.8 1533.9,-730.8 1533.9,-700 1252.93,-700"/>
<text text-anchor="start" x="1259.93" y="-712.2" font-family="Arial" font-size="14.00">client_name </text>
<text text-anchor="start" x="1339.31" y="-712.2" font-family="Arial" font-size="14.00" fill="#666666">[varchar(100)]</text>
<polygon fill="none" stroke="black" points="1252.93,-669.2 1252.93,-700 1533.9,-700 1533.9,-669.2 1252.93,-669.2"/>
<text text-anchor="start" x="1259.93" y="-681.4" font-family="Arial" font-size="14.00">client_version </text>
<text text-anchor="start" x="1349.42" y="-681.4" font-family="Arial" font-size="14.00" fill="#666666">[varchar(50)]</text>
<polygon fill="none" stroke="black" points="1252.93,-638.4 1252.93,-669.2 1533.9,-669.2 1533.9,-638.4 1252.93,-638.4"/>
<text text-anchor="start" x="1259.93" y="-650.6" font-family="Arial" font-size="14.00">event_type </text>
<text text-anchor="start" x="1332.32" y="-650.6" font-family="Arial" font-size="14.00" fill="#666666">[varchar(100)]</text>
<polygon fill="none" stroke="black" points="1252.93,-607.6 1252.93,-638.4 1533.9,-638.4 1533.9,-607.6 1252.93,-607.6"/>
<text text-anchor="start" x="1259.93" y="-619.8" font-family="Arial" font-size="14.00">event_category </text>
<text text-anchor="start" x="1359.55" y="-619.8" font-family="Arial" font-size="14.00" fill="#666666">[varchar(50)]</text>
<polygon fill="none" stroke="black" points="1252.93,-576.8 1252.93,-607.6 1533.9,-607.6 1533.9,-576.8 1252.93,-576.8"/>
<text text-anchor="start" x="1259.93" y="-589" font-family="Arial" font-size="14.00">content </text>
<text text-anchor="start" x="1309.75" y="-589" font-family="Arial" font-size="14.00" fill="#666666">[text]</text>
<polygon fill="none" stroke="black" points="1252.93,-546 1252.93,-576.8 1533.9,-576.8 1533.9,-546 1252.93,-546"/>
<text text-anchor="start" x="1259.93" y="-558.2" font-family="Arial" font-size="14.00">payload </text>
<text text-anchor="start" x="1312.86" y="-558.2" font-family="Arial" font-size="14.00" fill="#666666">[jsonb]</text>
<polygon fill="none" stroke="black" points="1252.93,-515.2 1252.93,-546 1533.9,-546 1533.9,-515.2 1252.93,-515.2"/>
<text text-anchor="start" x="1259.93" y="-527.4" font-family="Arial" font-size="14.00">created_at </text>
<text text-anchor="start" x="1329.98" y="-527.4" font-family="Arial" font-size="14.00" fill="#666666">[timestamp without time zone]</text>
</g>
<!-- public.activity_logs&#45;&gt;public.organizations -->
<g id="edge4" class="edge">
<title>public.activity_logs:org_id&#45;&gt;public.organizations:id</title>
<path fill="none" stroke="black" d="M1241.9,-805.96C1182.42,-782.41 1231.48,-539.66 1252.93,-472 1273.99,-405.58 1321.59,-409.94 1342.89,-343.6 1356.1,-302.47 1387.09,-246.4 1343.89,-246.4"/>
<polygon fill="black" stroke="black" points="1241.77,-805.94 1250.79,-812.17 1247.02,-806.9 1251.28,-807.68 1251.28,-807.68 1251.28,-807.68 1247.02,-806.9 1252.42,-803.31 1241.77,-805.94"/>
<text text-anchor="start" x="975.44" y="-791.8" font-family="Arial" font-size="10.00">FOREIGN KEY (org_id) REFERENCES organizations(id) ON DELETE CASCADE</text>
</g>
<!-- public.webhook_destinations -->
<g id="node6" class="node">
<title>public.webhook_destinations</title>
<polygon fill="#efefef" stroke="none" points="1637.94,-946.4 1637.94,-982 1986.9,-982 1986.9,-946.4 1637.94,-946.4"/>
<polygon fill="none" stroke="black" points="1637.94,-946.4 1637.94,-982 1986.9,-982 1986.9,-946.4 1637.94,-946.4"/>
<text text-anchor="start" x="1644.94" y="-959.8" font-family="Arial Bold" font-size="18.00">public.webhook_destinations</text>
<text text-anchor="start" x="1855.41" y="-959.8" font-family="Arial" font-size="14.00">    </text>
<text text-anchor="start" x="1886.53" y="-959.8" font-family="Arial" font-size="14.00" fill="#666666">[BASE TABLE]</text>
<polygon fill="none" stroke="black" points="1637.94,-915.6 1637.94,-946.4 1986.9,-946.4 1986.9,-915.6 1637.94,-915.6"/>
<text text-anchor="start" x="1644.94" y="-927.8" font-family="Arial" font-size="14.00">id </text>
<text text-anchor="start" x="1659.72" y="-927.8" font-family="Arial" font-size="14.00" fill="#666666">[uuid]</text>
<polygon fill="none" stroke="black" points="1637.94,-884.8 1637.94,-915.6 1986.9,-915.6 1986.9,-884.8 1637.94,-884.8"/>
<text text-anchor="start" x="1644.94" y="-897" font-family="Arial" font-size="14.00">org_id </text>
<text text-anchor="start" x="1687.74" y="-897" font-family="Arial" font-size="14.00" fill="#666666">[uuid]</text>
<polygon fill="none" stroke="black" points="1637.94,-854 1637.94,-884.8 1986.9,-884.8 1986.9,-854 1637.94,-854"/>
<text text-anchor="start" x="1644.94" y="-866.2" font-family="Arial" font-size="14.00">name </text>
<text text-anchor="start" x="1683.85" y="-866.2" font-family="Arial" font-size="14.00" fill="#666666">[varchar(100)]</text>
<polygon fill="none" stroke="black" points="1637.94,-823.2 1637.94,-854 1986.9,-854 1986.9,-823.2 1637.94,-823.2"/>
<text text-anchor="start" x="1644.94" y="-835.4" font-family="Arial" font-size="14.00">url </text>
<text text-anchor="start" x="1664.39" y="-835.4" font-family="Arial" font-size="14.00" fill="#666666">[text]</text>
<polygon fill="none" stroke="black" points="1637.94,-792.4 1637.94,-823.2 1986.9,-823.2 1986.9,-792.4 1637.94,-792.4"/>
<text text-anchor="start" x="1644.94" y="-804.6" font-family="Arial" font-size="14.00">auth_type </text>
<text text-anchor="start" x="1710.32" y="-804.6" font-family="Arial" font-size="14.00" fill="#666666">[varchar(50)]</text>
<polygon fill="none" stroke="black" points="1637.94,-761.6 1637.94,-792.4 1986.9,-792.4 1986.9,-761.6 1637.94,-761.6"/>
<text text-anchor="start" x="1644.94" y="-773.8" font-family="Arial" font-size="14.00">auth_config </text>
<text text-anchor="start" x="1721.22" y="-773.8" font-family="Arial" font-size="14.00" fill="#666666">[jsonb]</text>
<polygon fill="none" stroke="black" points="1637.94,-730.8 1637.94,-761.6 1986.9,-761.6 1986.9,-730.8 1637.94,-730.8"/>
<text text-anchor="start" x="1644.94" y="-743" font-family="Arial" font-size="14.00">event_types </text>
<text text-anchor="start" x="1724.32" y="-743" font-family="Arial" font-size="14.00" fill="#666666">[text[]]</text>
<polygon fill="none" stroke="black" points="1637.94,-700 1637.94,-730.8 1986.9,-730.8 1986.9,-700 1637.94,-700"/>
<text text-anchor="start" x="1644.94" y="-712.2" font-family="Arial" font-size="14.00">event_filter </text>
<text text-anchor="start" x="1717.31" y="-712.2" font-family="Arial" font-size="14.00" fill="#666666">[jsonb]</text>
<polygon fill="none" stroke="black" points="1637.94,-669.2 1637.94,-700 1986.9,-700 1986.9,-669.2 1637.94,-669.2"/>
<text text-anchor="start" x="1644.94" y="-681.4" font-family="Arial" font-size="14.00">enabled </text>
<text text-anchor="start" x="1698.65" y="-681.4" font-family="Arial" font-size="14.00" fill="#666666">[boolean]</text>
<polygon fill="none" stroke="black" points="1637.94,-638.4 1637.94,-669.2 1986.9,-669.2 1986.9,-638.4 1637.94,-638.4"/>
<text text-anchor="start" x="1644.94" y="-650.6" font-family="Arial" font-size="14.00">batch_size </text>
<text text-anchor="start" x="1715.76" y="-650.6" font-family="Arial" font-size="14.00" fill="#666666">[integer]</text>
<polygon fill="none" stroke="black" points="1637.94,-607.6 1637.94,-638.4 1986.9,-638.4 1986.9,-607.6 1637.94,-607.6"/>
<text text-anchor="start" x="1644.94" y="-619.8" font-family="Arial" font-size="14.00">timeout_ms </text>
<text text-anchor="start" x="1721.19" y="-619.8" font-family="Arial" font-size="14.00" fill="#666666">[integer]</text>
<polygon fill="none" stroke="black" points="1637.94,-576.8 1637.94,-607.6 1986.9,-607.6 1986.9,-576.8 1637.94,-576.8"/>
<text text-anchor="start" x="1644.94" y="-589" font-family="Arial" font-size="14.00">retry_max </text>
<text text-anchor="start" x="1711.06" y="-589" font-family="Arial" font-size="14.00" fill="#666666">[integer]</text>
<polygon fill="none" stroke="black" points="1637.94,-546 1637.94,-576.8 1986.9,-576.8 1986.9,-546 1637.94,-546"/>
<text text-anchor="start" x="1644.94" y="-558.2" font-family="Arial" font-size="14.00">retry_backoff_ms </text>
<text text-anchor="start" x="1756.2" y="-558.2" font-family="Arial" font-size="14.00" fill="#666666">[integer]</text>
<polygon fill="none" stroke="black" points="1637.94,-515.2 1637.94,-546 1986.9,-546 1986.9,-515.2 1637.94,-515.2"/>
<text text-anchor="start" x="1644.94" y="-527.4" font-family="Arial" font-size="14.00">signing_secret </text>
<text text-anchor="start" x="1739.1" y="-527.4" font-family="Arial" font-size="14.00" fill="#666666">[varchar(255)]</text>
<polygon fill="none" stroke="black" points="1637.94,-484.4 1637.94,-515.2 1986.9,-515.2 1986.9,-484.4 1637.94,-484.4"/>
<text text-anchor="start" x="1644.94" y="-496.6" font-family="Arial" font-size="14.00">created_by </text>
<text text-anchor="start" x="1718.1" y="-496.6" font-family="Arial" font-size="14.00" fill="#666666">[uuid]</text>
<polygon fill="none" stroke="black" points="1637.94,-453.6 1637.94,-484.4 1986.9,-484.4 1986.9,-453.6 1637.94,-453.6"/>
<text text-anchor="start" x="1644.94" y="-465.8" font-family="Arial" font-size="14.00">created_at </text>
<text text-anchor="start" x="1714.98" y="-465.8" font-family="Arial" font-size="14.00" fill="#666666">[timestamp without time zone]</text>
<polygon fill="none" stroke="black" points="1637.94,-422.8 1637.94,-453.6 1986.9,-453.6 1986.9,-422.8 1637.94,-422.8"/>
<text text-anchor="start" x="1644.94" y="-435" font-family="Arial" font-size="14.00">updated_at </text>
<text text-anchor="start" x="1718.9" y="-435" font-family="Arial" font-size="14.00" fill="#666666">[timestamp without time zone]</text>
</g>
<!-- public.webhook_destinations&#45;&gt;public.organizations -->
<g id="edge5" class="edge">
<title>public.webhook_destinations:org_id&#45;&gt;public.organizations:id</title>
<path fill="none" stroke="black" d="M1627.69,-895.52C1583.21,-846.33 1616.52,-425.28 1586.42,-379.6 1518.75,-276.91 1466.87,-246.4 1343.89,-246.4"/>
<polygon fill="black" stroke="black" points="1627.72,-895.53 1634.61,-904.06 1632.48,-897.94 1636.34,-899.9 1636.34,-899.9 1636.34,-899.9 1632.48,-897.94 1638.67,-896.03 1627.72,-895.53"/>
<text text-anchor="start" x="1643.94" y="-910.2" font-family="Arial" font-size="10.00">FOREIGN KEY (org_id) REFERENCES organizations(id) ON DELETE CASCADE</text>
</g>
<!-- public.invitations -->
<g id="node7" class="node">
<title>public.invitations</title>
<polygon fill="#efefef" stroke="none" points="2091.74,-884.8 2091.74,-920.4 2371.1,-920.4 2371.1,-884.8 2091.74,-884.8"/>
<polygon fill="none" stroke="black" points="2091.74,-884.8 2091.74,-920.4 2371.1,-920.4 2371.1,-884.8 2091.74,-884.8"/>
<text text-anchor="start" x="2106.43" y="-898.2" font-family="Arial Bold" font-size="18.00">public.invitations</text>
<text text-anchor="start" x="2231.92" y="-898.2" font-family="Arial" font-size="14.00">    </text>
<text text-anchor="start" x="2263.04" y="-898.2" font-family="Arial" font-size="14.00" fill="#666666">[BASE TABLE]</text>
<polygon fill="none" stroke="black" points="2091.74,-854 2091.74,-884.8 2371.1,-884.8 2371.1,-854 2091.74,-854"/>
<text text-anchor="start" x="2098.74" y="-866.2" font-family="Arial" font-size="14.00">id </text>
<text text-anchor="start" x="2113.52" y="-866.2" font-family="Arial" font-size="14.00" fill="#666666">[uuid]</text>
<polygon fill="none" stroke="black" points="2091.74,-823.2 2091.74,-854 2371.1,-854 2371.1,-823.2 2091.74,-823.2"/>
<text text-anchor="start" x="2098.74" y="-835.4" font-family="Arial" font-size="14.00">org_id </text>
<text text-anchor="start" x="2141.55" y="-835.4" font-family="Arial" font-size="14.00" fill="#666666">[uuid]</text>
<polygon fill="none" stroke="black" points="2091.74,-792.4 2091.74,-823.2 2371.1,-823.2 2371.1,-792.4 2091.74,-792.4"/>
<text text-anchor="start" x="2098.74" y="-804.6" font-family="Arial" font-size="14.00">inviter_id </text>
<text text-anchor="start" x="2158.66" y="-804.6" font-family="Arial" font-size="14.00" fill="#666666">[uuid]</text>
<polygon fill="none" stroke="black" points="2091.74,-761.6 2091.74,-792.4 2371.1,-792.4 2371.1,-761.6 2091.74,-761.6"/>
<text text-anchor="start" x="2098.74" y="-773.8" font-family="Arial" font-size="14.00">email </text>
<text text-anchor="start" x="2136.08" y="-773.8" font-family="Arial" font-size="14.00" fill="#666666">[varchar(255)]</text>
<polygon fill="none" stroke="black" points="2091.74,-730.8 2091.74,-761.6 2371.1,-761.6 2371.1,-730.8 2091.74,-730.8"/>
<text text-anchor="start" x="2098.74" y="-743" font-family="Arial" font-size="14.00">role_id </text>
<text text-anchor="start" x="2144.66" y="-743" font-family="Arial" font-size="14.00" fill="#666666">[uuid]</text>
<polygon fill="none" stroke="black" points="2091.74,-700 2091.74,-730.8 2371.1,-730.8 2371.1,-700 2091.74,-700"/>
<text text-anchor="start" x="2098.74" y="-712.2" font-family="Arial" font-size="14.00">team_id </text>
<text text-anchor="start" x="2152.44" y="-712.2" font-family="Arial" font-size="14.00" fill="#666666">[uuid]</text>
<polygon fill="none" stroke="black" points="2091.74,-669.2 2091.74,-700 2371.1,-700 2371.1,-669.2 2091.74,-669.2"/>
<text text-anchor="start" x="2098.74" y="-681.4" font-family="Arial" font-size="14.00">token </text>
<text text-anchor="start" x="2136.88" y="-681.4" font-family="Arial" font-size="14.00" fill="#666666">[varchar(64)]</text>
<polygon fill="none" stroke="black" points="2091.74,-638.4 2091.74,-669.2 2371.1,-669.2 2371.1,-638.4 2091.74,-638.4"/>
<text text-anchor="start" x="2098.74" y="-650.6" font-family="Arial" font-size="14.00">status </text>
<text text-anchor="start" x="2139.98" y="-650.6" font-family="Arial" font-size="14.00" fill="#666666">[varchar(50)]</text>
<polygon fill="none" stroke="black" points="2091.74,-607.6 2091.74,-638.4 2371.1,-638.4 2371.1,-607.6 2091.74,-607.6"/>
<text text-anchor="start" x="2098.74" y="-619.8" font-family="Arial" font-size="14.00">expires_at </text>
<text text-anchor="start" x="2167.22" y="-619.8" font-family="Arial" font-size="14.00" fill="#666666">[timestamp without time zone]</text>
<polygon fill="none" stroke="black" points="2091.74,-576.8 2091.74,-607.6 2371.1,-607.6 2371.1,-576.8 2091.74,-576.8"/>
<text text-anchor="start" x="2098.74" y="-589" font-family="Arial" font-size="14.00">accepted_by </text>
<text text-anchor="start" x="2182.02" y="-589" font-family="Arial" font-size="14.00" fill="#666666">[uuid]</text>
<polygon fill="none" stroke="black" points="2091.74,-546 2091.74,-576.8 2371.1,-576.8 2371.1,-546 2091.74,-546"/>
<text text-anchor="start" x="2098.74" y="-558.2" font-family="Arial" font-size="14.00">accepted_at </text>
<text text-anchor="start" x="2178.91" y="-558.2" font-family="Arial" font-size="14.00" fill="#666666">[timestamp without time zone]</text>
<polygon fill="none" stroke="black" points="2091.74,-515.2 2091.74,-546 2371.1,-546 2371.1,-515.2 2091.74,-515.2"/>
<text text-anchor="start" x="2098.74" y="-527.4" font-family="Arial" font-size="14.00">created_at </text>
<text text-anchor="start" x="2168.79" y="-527.4" font-family="Arial" font-size="14.00" fill="#666666">[timestamp without time zone]</text>
<polygon fill="none" stroke="black" points="2091.74,-484.4 2091.74,-515.2 2371.1,-515.2 2371.1,-484.4 2091.74,-484.4"/>
<text text-anchor="start" x="2098.74" y="-496.6" font-family="Arial" font-size="14.00">updated_at </text>
<text text-anchor="start" x="2172.7" y="-496.6" font-family="Arial" font-size="14.00" fill="#666666">[timestamp without time zone]</text>
</g>
<!-- public.invitations&#45;&gt;public.organizations -->
<g id="edge6" class="edge">
<title>public.invitations:org_id&#45;&gt;public.organizations:id</title>
<path fill="none" stroke="black" d="M2080.47,-837.13C1996.6,-811.28 2106.59,-452.22 2039.42,-379.6 1932.56,-264.08 1501.26,-246.4 1343.89,-246.4"/>
<polygon fill="black" stroke="black" points="2080.51,-837.14 2089.77,-843.01 2085.79,-837.89 2090.08,-838.51 2090.08,-838.51 2090.08,-838.51 2085.79,-837.89 2091.05,-834.1 2080.51,-837.14"/>
<text text-anchor="start" x="2097.74" y="-848.6" font-family="Arial" font-size="10.00">FOREIGN KEY (org_id) REFERENCES organizations(id) ON DELETE CASCADE</text>
</g>
</g>
</svg>
