<?xml version="1.0" encoding="UTF-8" standalone="no"?>
<!DOCTYPE svg PUBLIC "-//W3C//DTD SVG 1.1//EN"
 "http://www.w3.org/Graphics/SVG/1.1/DTD/svg11.dtd">
<!-- Generated by graphviz version 12.1.2 (20240928.0832)
 -->
<!-- Title: public.v_pending_approvals Pages: 1 -->
<svg width="394pt" height="444pt"
 viewBox="0.00 0.00 393.54 444.00" xmlns="http://www.w3.org/2000/svg" xmlns:xlink="http://www.w3.org/1999/xlink">
<g id="graph0" class="graph" transform="scale(1 1) rotate(0) translate(4 440)">
<title>public.v_pending_approvals</title>
<polygon fill="white" stroke="none" points="-4,4 -4,-440 389.54,-440 389.54,4 -4,4"/>
<!-- public.v_pending_approvals -->
<g id="node1" class="node">
<title>public.v_pending_approvals</title>
<polygon fill="#efefef" stroke="none" points="46.2,-354.2 46.2,-389.8 339.34,-389.8 339.34,-354.2 46.2,-354.2"/>
<polygon fill="none" stroke="black" points="46.2,-354.2 46.2,-389.8 339.34,-389.8 339.34,-354.2 46.2,-354.2"/>
<text text-anchor="start" x="53.2" y="-367.6" font-family="Arial Bold" font-size="18.00">public.v_pending_approvals</text>
<text text-anchor="start" x="257.66" y="-367.6" font-family="Arial" font-size="14.00">    </text>
<text text-anchor="start" x="288.78" y="-367.6" font-family="Arial" font-size="14.00" fill="#666666">[VIEW]</text>
<polygon fill="none" stroke="black" points="46.2,-323.4 46.2,-354.2 339.34,-354.2 339.34,-323.4 46.2,-323.4"/>
<text text-anchor="start" x="53.2" y="-335.6" font-family="Arial" font-size="14.00">request_id </text>
<text text-anchor="start" x="122.47" y="-335.6" font-family="Arial" font-size="14.00" fill="#666666">[uuid]</text>
<polygon fill="none" stroke="black" points="46.2,-292.6 46.2,-323.4 339.34,-323.4 339.34,-292.6 46.2,-292.6"/>
<text text-anchor="start" x="53.2" y="-304.8" font-family="Arial" font-size="14.00">request_type </text>
<text text-anchor="start" x="138.03" y="-304.8" font-family="Arial" font-size="14.00" fill="#666666">[varchar(50)]</text>
<polygon fill="none" stroke="black" points="46.2,-261.8 46.2,-292.6 339.34,-292.6 339.34,-261.8 46.2,-261.8"/>
<text text-anchor="start" x="53.2" y="-274" font-family="Arial" font-size="14.00">request_data </text>
<text text-anchor="start" x="138.82" y="-274" font-family="Arial" font-size="14.00" fill="#666666">[jsonb]</text>
<polygon fill="none" stroke="black" points="46.2,-231 46.2,-261.8 339.34,-261.8 339.34,-231 46.2,-231"/>
<text text-anchor="start" x="53.2" y="-243.2" font-family="Arial" font-size="14.00">reason </text>
<text text-anchor="start" x="99.9" y="-243.2" font-family="Arial" font-size="14.00" fill="#666666">[text]</text>
<polygon fill="none" stroke="black" points="46.2,-200.2 46.2,-231 339.34,-231 339.34,-200.2 46.2,-200.2"/>
<text text-anchor="start" x="53.2" y="-212.4" font-family="Arial" font-size="14.00">requested_at </text>
<text text-anchor="start" x="138.82" y="-212.4" font-family="Arial" font-size="14.00" fill="#666666">[timestamp without time zone]</text>
<polygon fill="none" stroke="black" points="46.2,-169.4 46.2,-200.2 339.34,-200.2 339.34,-169.4 46.2,-169.4"/>
<text text-anchor="start" x="53.2" y="-181.6" font-family="Arial" font-size="14.00">employee_id </text>
<text text-anchor="start" x="136.48" y="-181.6" font-family="Arial" font-size="14.00" fill="#666666">[uuid]</text>
<polygon fill="none" stroke="black" points="46.2,-138.6 46.2,-169.4 339.34,-169.4 339.34,-138.6 46.2,-138.6"/>
<text text-anchor="start" x="53.2" y="-150.8" font-family="Arial" font-size="14.00">requester_name </text>
<text text-anchor="start" x="159.04" y="-150.8" font-family="Arial" font-size="14.00" fill="#666666">[varchar(255)]</text>
<polygon fill="none" stroke="black" points="46.2,-107.8 46.2,-138.6 339.34,-138.6 339.34,-107.8 46.2,-107.8"/>
<text text-anchor="start" x="53.2" y="-120" font-family="Arial" font-size="14.00">requester_email </text>
<text text-anchor="start" x="157.48" y="-120" font-family="Arial" font-size="14.00" fill="#666666">[varchar(255)]</text>
<polygon fill="none" stroke="black" points="46.2,-77 46.2,-107.8 339.34,-107.8 339.34,-77 46.2,-77"/>
<text text-anchor="start" x="53.2" y="-89.2" font-family="Arial" font-size="14.00">team_name </text>
<text text-anchor="start" x="131.02" y="-89.2" font-family="Arial" font-size="14.00" fill="#666666">[varchar(255)]</text>
<polygon fill="none" stroke="black" points="46.2,-46.2 46.2,-77 339.34,-77 339.34,-46.2 46.2,-46.2"/>
<text text-anchor="start" x="53.2" y="-58.4" font-family="Arial" font-size="14.00">org_name </text>
<text text-anchor="start" x="120.13" y="-58.4" font-family="Arial" font-size="14.00" fill="#666666">[varchar(255)]</text>
<polygon fill="none" stroke="black" stroke-width="3" points="44.7,-44.7 44.7,-391.3 340.84,-391.3 340.84,-44.7 44.7,-44.7"/>
</g>
</g>
</svg>
