<?xml version="1.0" encoding="UTF-8" standalone="no"?>
<!DOCTYPE svg PUBLIC "-//W3C//DTD SVG 1.1//EN"
 "http://www.w3.org/Graphics/SVG/1.1/DTD/svg11.dtd">
<!-- Generated by graphviz version 12.1.2 (20240928.0832)
 -->
<!-- Title: public.teams Pages: 1 -->
<svg width="1594pt" height="1253pt"
 viewBox="0.00 0.00 1594.41 1252.80" xmlns="http://www.w3.org/2000/svg" xmlns:xlink="http://www.w3.org/1999/xlink">
<g id="graph0" class="graph" transform="scale(1 1) rotate(0) translate(4 1248.8)">
<title>public.teams</title>
<polygon fill="white" stroke="none" points="-4,4 -4,-1248.8 1590.41,-1248.8 1590.41,4 -4,4"/>
<!-- public.teams -->
<g id="node1" class="node">
<title>public.teams</title>
<polygon fill="#efefef" stroke="none" points="654.55,-604.6 654.55,-640.2 927.69,-640.2 927.69,-604.6 654.55,-604.6"/>
<polygon fill="none" stroke="black" points="654.55,-604.6 654.55,-640.2 927.69,-640.2 927.69,-604.6 654.55,-604.6"/>
<text text-anchor="start" x="683.14" y="-618" font-family="Arial Bold" font-size="18.00">public.teams</text>
<text text-anchor="start" x="774.61" y="-618" font-family="Arial" font-size="14.00">    </text>
<text text-anchor="start" x="805.73" y="-618" font-family="Arial" font-size="14.00" fill="#666666">[BASE TABLE]</text>
<polygon fill="none" stroke="black" points="654.55,-573.8 654.55,-604.6 927.69,-604.6 927.69,-573.8 654.55,-573.8"/>
<text text-anchor="start" x="661.55" y="-586" font-family="Arial" font-size="14.00">id </text>
<text text-anchor="start" x="676.33" y="-586" font-family="Arial" font-size="14.00" fill="#666666">[uuid]</text>
<polygon fill="none" stroke="black" points="654.55,-543 654.55,-573.8 927.69,-573.8 927.69,-543 654.55,-543"/>
<text text-anchor="start" x="661.55" y="-555.2" font-family="Arial" font-size="14.00">org_id </text>
<text text-anchor="start" x="704.36" y="-555.2" font-family="Arial" font-size="14.00" fill="#666666">[uuid]</text>
<polygon fill="none" stroke="black" points="654.55,-512.2 654.55,-543 927.69,-543 927.69,-512.2 654.55,-512.2"/>
<text text-anchor="start" x="661.55" y="-524.4" font-family="Arial" font-size="14.00">name </text>
<text text-anchor="start" x="700.46" y="-524.4" font-family="Arial" font-size="14.00" fill="#666666">[varchar(255)]</text>
<polygon fill="none" stroke="black" points="654.55,-481.4 654.55,-512.2 927.69,-512.2 927.69,-481.4 654.55,-481.4"/>
<text text-anchor="start" x="661.55" y="-493.6" font-family="Arial" font-size="14.00">description </text>
<text text-anchor="start" x="733.14" y="-493.6" font-family="Arial" font-size="14.00" fill="#666666">[text]</text>
<polygon fill="none" stroke="black" points="654.55,-450.6 654.55,-481.4 927.69,-481.4 927.69,-450.6 654.55,-450.6"/>
<text text-anchor="start" x="661.55" y="-462.8" font-family="Arial" font-size="14.00">created_at </text>
<text text-anchor="start" x="731.6" y="-462.8" font-family="Arial" font-size="14.00" fill="#666666">[timestamp without time zone]</text>
<polygon fill="none" stroke="black" points="654.55,-419.8 654.55,-450.6 927.69,-450.6 927.69,-419.8 654.55,-419.8"/>
<text text-anchor="start" x="661.55" y="-432" font-family="Arial" font-size="14.00">updated_at </text>
<text text-anchor="start" x="735.51" y="-432" font-family="Arial" font-size="14.00" fill="#666666">[timestamp without time zone]</text>
<polygon fill="none" stroke="black" stroke-width="3" points="653.05,-418.3 653.05,-641.7 929.19,-641.7 929.19,-418.3 653.05,-418.3"/>
</g>
<!-- public.organizations -->
<g id="node6" class="node">
<title>public.organizations</title>
<polygon fill="#efefef" stroke="none" points="648.65,-258.8 648.65,-294.4 933.6,-294.4 933.6,-258.8 648.65,-258.8"/>
<polygon fill="none" stroke="black" points="648.65,-258.8 648.65,-294.4 933.6,-294.4 933.6,-258.8 648.65,-258.8"/>
<text text-anchor="start" x="655.65" y="-272.2" font-family="Arial Bold" font-size="18.00">public.organizations</text>
<text text-anchor="start" x="802.11" y="-272.2" font-family="Arial" font-size="14.00">    </text>
<text text-anchor="start" x="833.22" y="-272.2" font-family="Arial" font-size="14.00" fill="#666666">[BASE TABLE]</text>
<polygon fill="none" stroke="black" points="648.65,-228 648.65,-258.8 933.6,-258.8 933.6,-228 648.65,-228"/>
<text text-anchor="start" x="655.65" y="-240.2" font-family="Arial" font-size="14.00">id </text>
<text text-anchor="start" x="670.43" y="-240.2" font-family="Arial" font-size="14.00" fill="#666666">[uuid]</text>
<polygon fill="none" stroke="black" points="648.65,-197.2 648.65,-228 933.6,-228 933.6,-197.2 648.65,-197.2"/>
<text text-anchor="start" x="655.65" y="-209.4" font-family="Arial" font-size="14.00">name </text>
<text text-anchor="start" x="694.56" y="-209.4" font-family="Arial" font-size="14.00" fill="#666666">[varchar(255)]</text>
<polygon fill="none" stroke="black" points="648.65,-166.4 648.65,-197.2 933.6,-197.2 933.6,-166.4 648.65,-166.4"/>
<text text-anchor="start" x="655.65" y="-178.6" font-family="Arial" font-size="14.00">slug </text>
<text text-anchor="start" x="685.22" y="-178.6" font-family="Arial" font-size="14.00" fill="#666666">[varchar(100)]</text>
<polygon fill="none" stroke="black" points="648.65,-135.6 648.65,-166.4 933.6,-166.4 933.6,-135.6 648.65,-135.6"/>
<text text-anchor="start" x="655.65" y="-147.8" font-family="Arial" font-size="14.00">settings </text>
<text text-anchor="start" x="707.78" y="-147.8" font-family="Arial" font-size="14.00" fill="#666666">[jsonb]</text>
<polygon fill="none" stroke="black" points="648.65,-104.8 648.65,-135.6 933.6,-135.6 933.6,-104.8 648.65,-104.8"/>
<text text-anchor="start" x="655.65" y="-117" font-family="Arial" font-size="14.00">max_employees </text>
<text text-anchor="start" x="761.47" y="-117" font-family="Arial" font-size="14.00" fill="#666666">[integer]</text>
<polygon fill="none" stroke="black" points="648.65,-74 648.65,-104.8 933.6,-104.8 933.6,-74 648.65,-74"/>
<text text-anchor="start" x="655.65" y="-86.2" font-family="Arial" font-size="14.00">created_at </text>
<text text-anchor="start" x="725.69" y="-86.2" font-family="Arial" font-size="14.00" fill="#666666">[timestamp without time zone]</text>
<polygon fill="none" stroke="black" points="648.65,-43.2 648.65,-74 933.6,-74 933.6,-43.2 648.65,-43.2"/>
<text text-anchor="start" x="655.65" y="-55.4" font-family="Arial" font-size="14.00">updated_at </text>
<text text-anchor="start" x="729.6" y="-55.4" font-family="Arial" font-size="14.00" fill="#666666">[timestamp without time zone]</text>
</g>
<!-- public.teams&#45;&gt;public.organizations -->
<g id="edge5" class="edge">
<title>public.teams:org_id&#45;&gt;public.organizations:id</title>
<path fill="none" stroke="black" d="M939.1,-557.8C1068.92,-542.61 1071.06,-243.4 934.6,-243.4"/>
<polygon fill="black" stroke="black" points="939.01,-557.81 928.77,-553.89 933.68,-558.11 929.36,-558.36 929.36,-558.36 929.36,-558.36 933.68,-558.11 929.28,-562.87 939.01,-557.81"/>
<text text-anchor="start" x="935.69" y="-568.4" font-family="Arial" font-size="10.00">FOREIGN KEY (org_id) REFERENCES organizations(id) ON DELETE CASCADE</text>
</g>
<!-- public.employees -->
<g id="node2" class="node">
<title>public.employees</title>
<polygon fill="#efefef" stroke="none" points="70.28,-1166 70.28,-1201.6 351.96,-1201.6 351.96,-1166 70.28,-1166"/>
<polygon fill="none" stroke="black" points="70.28,-1166 70.28,-1201.6 351.96,-1201.6 351.96,-1166 70.28,-1166"/>
<text text-anchor="start" x="85.64" y="-1179.4" font-family="Arial Bold" font-size="18.00">public.employees</text>
<text text-anchor="start" x="212.11" y="-1179.4" font-family="Arial" font-size="14.00">    </text>
<text text-anchor="start" x="243.23" y="-1179.4" font-family="Arial" font-size="14.00" fill="#666666">[BASE TABLE]</text>
<polygon fill="none" stroke="black" points="70.28,-1135.2 70.28,-1166 351.96,-1166 351.96,-1135.2 70.28,-1135.2"/>
<text text-anchor="start" x="77.28" y="-1147.4" font-family="Arial" font-size="14.00">id </text>
<text text-anchor="start" x="92.06" y="-1147.4" font-family="Arial" font-size="14.00" fill="#666666">[uuid]</text>
<polygon fill="none" stroke="black" points="70.28,-1104.4 70.28,-1135.2 351.96,-1135.2 351.96,-1104.4 70.28,-1104.4"/>
<text text-anchor="start" x="77.28" y="-1116.6" font-family="Arial" font-size="14.00">org_id </text>
<text text-anchor="start" x="120.08" y="-1116.6" font-family="Arial" font-size="14.00" fill="#666666">[uuid]</text>
<polygon fill="none" stroke="black" points="70.28,-1073.6 70.28,-1104.4 351.96,-1104.4 351.96,-1073.6 70.28,-1073.6"/>
<text text-anchor="start" x="77.28" y="-1085.8" font-family="Arial" font-size="14.00">team_id </text>
<text text-anchor="start" x="130.97" y="-1085.8" font-family="Arial" font-size="14.00" fill="#666666">[uuid]</text>
<polygon fill="none" stroke="black" points="70.28,-1042.8 70.28,-1073.6 351.96,-1073.6 351.96,-1042.8 70.28,-1042.8"/>
<text text-anchor="start" x="77.28" y="-1055" font-family="Arial" font-size="14.00">role_id </text>
<text text-anchor="start" x="123.19" y="-1055" font-family="Arial" font-size="14.00" fill="#666666">[uuid]</text>
<polygon fill="none" stroke="black" points="70.28,-1012 70.28,-1042.8 351.96,-1042.8 351.96,-1012 70.28,-1012"/>
<text text-anchor="start" x="77.28" y="-1024.2" font-family="Arial" font-size="14.00">email </text>
<text text-anchor="start" x="114.62" y="-1024.2" font-family="Arial" font-size="14.00" fill="#666666">[varchar(255)]</text>
<polygon fill="none" stroke="black" points="70.28,-981.2 70.28,-1012 351.96,-1012 351.96,-981.2 70.28,-981.2"/>
<text text-anchor="start" x="77.28" y="-993.4" font-family="Arial" font-size="14.00">full_name </text>
<text text-anchor="start" x="141.87" y="-993.4" font-family="Arial" font-size="14.00" fill="#666666">[varchar(255)]</text>
<polygon fill="none" stroke="black" points="70.28,-950.4 70.28,-981.2 351.96,-981.2 351.96,-950.4 70.28,-950.4"/>
<text text-anchor="start" x="77.28" y="-962.6" font-family="Arial" font-size="14.00">password_hash </text>
<text text-anchor="start" x="179.23" y="-962.6" font-family="Arial" font-size="14.00" fill="#666666">[varchar(255)]</text>
<polygon fill="none" stroke="black" points="70.28,-919.6 70.28,-950.4 351.96,-950.4 351.96,-919.6 70.28,-919.6"/>
<text text-anchor="start" x="77.28" y="-931.8" font-family="Arial" font-size="14.00">status </text>
<text text-anchor="start" x="118.52" y="-931.8" font-family="Arial" font-size="14.00" fill="#666666">[varchar(50)]</text>
<polygon fill="none" stroke="black" points="70.28,-888.8 70.28,-919.6 351.96,-919.6 351.96,-888.8 70.28,-888.8"/>
<text text-anchor="start" x="77.28" y="-901" font-family="Arial" font-size="14.00">preferences </text>
<text text-anchor="start" x="155.1" y="-901" font-family="Arial" font-size="14.00" fill="#666666">[jsonb]</text>
<polygon fill="none" stroke="black" points="70.28,-858 70.28,-888.8 351.96,-888.8 351.96,-858 70.28,-858"/>
<text text-anchor="start" x="77.28" y="-870.2" font-family="Arial" font-size="14.00">last_login_at </text>
<text text-anchor="start" x="159.78" y="-870.2" font-family="Arial" font-size="14.00" fill="#666666">[timestamp without time zone]</text>
<polygon fill="none" stroke="black" points="70.28,-827.2 70.28,-858 351.96,-858 351.96,-827.2 70.28,-827.2"/>
<text text-anchor="start" x="77.28" y="-839.4" font-family="Arial" font-size="14.00">created_at </text>
<text text-anchor="start" x="147.32" y="-839.4" font-family="Arial" font-size="14.00" fill="#666666">[timestamp without time zone]</text>
<polygon fill="none" stroke="black" points="70.28,-796.4 70.28,-827.2 351.96,-827.2 351.96,-796.4 70.28,-796.4"/>
<text text-anchor="start" x="77.28" y="-808.6" font-family="Arial" font-size="14.00">updated_at </text>
<text text-anchor="start" x="151.23" y="-808.6" font-family="Arial" font-size="14.00" fill="#666666">[timestamp without time zone]</text>
<polygon fill="none" stroke="black" points="70.28,-765.6 70.28,-796.4 351.96,-796.4 351.96,-765.6 70.28,-765.6"/>
<text text-anchor="start" x="77.28" y="-777.8" font-family="Arial" font-size="14.00">deleted_at </text>
<text text-anchor="start" x="146.56" y="-777.8" font-family="Arial" font-size="14.00" fill="#666666">[timestamp without time zone]</text>
</g>
<!-- public.employees&#45;&gt;public.teams -->
<g id="edge1" class="edge">
<title>public.employees:team_id&#45;&gt;public.teams:id</title>
<path fill="none" stroke="black" d="M363.1,-1087.24C428.45,-1062.59 359.15,-786.82 404.12,-722.4 476.06,-619.35 527.87,-589.2 653.55,-589.2"/>
<polygon fill="black" stroke="black" points="363.15,-1087.23 352.52,-1084.51 357.89,-1088.14 353.62,-1088.89 353.62,-1088.89 353.62,-1088.89 357.89,-1088.14 354.07,-1093.38 363.15,-1087.23"/>
<text text-anchor="start" x="7" y="-1099" font-family="Arial" font-size="10.00">FOREIGN KEY (team_id) REFERENCES teams(id) ON DELETE SET NULL</text>
</g>
<!-- public.tool_policies -->
<g id="node3" class="node">
<title>public.tool_policies</title>
<polygon fill="#efefef" stroke="none" points="456.64,-1135.2 456.64,-1170.8 737.6,-1170.8 737.6,-1135.2 456.64,-1135.2"/>
<polygon fill="none" stroke="black" points="456.64,-1135.2 456.64,-1170.8 737.6,-1170.8 737.6,-1135.2 456.64,-1135.2"/>
<text text-anchor="start" x="463.64" y="-1148.6" font-family="Arial Bold" font-size="18.00">public.tool_policies</text>
<text text-anchor="start" x="606.12" y="-1148.6" font-family="Arial" font-size="14.00">    </text>
<text text-anchor="start" x="637.23" y="-1148.6" font-family="Arial" font-size="14.00" fill="#666666">[BASE TABLE]</text>
<polygon fill="none" stroke="black" points="456.64,-1104.4 456.64,-1135.2 737.6,-1135.2 737.6,-1104.4 456.64,-1104.4"/>
<text text-anchor="start" x="463.64" y="-1116.6" font-family="Arial" font-size="14.00">id </text>
<text text-anchor="start" x="478.42" y="-1116.6" font-family="Arial" font-size="14.00" fill="#666666">[uuid]</text>
<polygon fill="none" stroke="black" points="456.64,-1073.6 456.64,-1104.4 737.6,-1104.4 737.6,-1073.6 456.64,-1073.6"/>
<text text-anchor="start" x="463.64" y="-1085.8" font-family="Arial" font-size="14.00">org_id </text>
<text text-anchor="start" x="506.44" y="-1085.8" font-family="Arial" font-size="14.00" fill="#666666">[uuid]</text>
<polygon fill="none" stroke="black" points="456.64,-1042.8 456.64,-1073.6 737.6,-1073.6 737.6,-1042.8 456.64,-1042.8"/>
<text text-anchor="start" x="463.64" y="-1055" font-family="Arial" font-size="14.00">team_id </text>
<text text-anchor="start" x="517.33" y="-1055" font-family="Arial" font-size="14.00" fill="#666666">[uuid]</text>
<polygon fill="none" stroke="black" points="456.64,-1012 456.64,-1042.8 737.6,-1042.8 737.6,-1012 456.64,-1012"/>
<text text-anchor="start" x="463.64" y="-1024.2" font-family="Arial" font-size="14.00">employee_id </text>
<text text-anchor="start" x="546.91" y="-1024.2" font-family="Arial" font-size="14.00" fill="#666666">[uuid]</text>
<polygon fill="none" stroke="black" points="456.64,-981.2 456.64,-1012 737.6,-1012 737.6,-981.2 456.64,-981.2"/>
<text text-anchor="start" x="463.64" y="-993.4" font-family="Arial" font-size="14.00">tool_name </text>
<text text-anchor="start" x="532.9" y="-993.4" font-family="Arial" font-size="14.00" fill="#666666">[varchar(255)]</text>
<polygon fill="none" stroke="black" points="456.64,-950.4 456.64,-981.2 737.6,-981.2 737.6,-950.4 456.64,-950.4"/>
<text text-anchor="start" x="463.64" y="-962.6" font-family="Arial" font-size="14.00">conditions </text>
<text text-anchor="start" x="530.57" y="-962.6" font-family="Arial" font-size="14.00" fill="#666666">[jsonb]</text>
<polygon fill="none" stroke="black" points="456.64,-919.6 456.64,-950.4 737.6,-950.4 737.6,-919.6 456.64,-919.6"/>
<text text-anchor="start" x="463.64" y="-931.8" font-family="Arial" font-size="14.00">action </text>
<text text-anchor="start" x="504.88" y="-931.8" font-family="Arial" font-size="14.00" fill="#666666">[varchar(20)]</text>
<polygon fill="none" stroke="black" points="456.64,-888.8 456.64,-919.6 737.6,-919.6 737.6,-888.8 456.64,-888.8"/>
<text text-anchor="start" x="463.64" y="-901" font-family="Arial" font-size="14.00">reason </text>
<text text-anchor="start" x="510.33" y="-901" font-family="Arial" font-size="14.00" fill="#666666">[text]</text>
<polygon fill="none" stroke="black" points="456.64,-858 456.64,-888.8 737.6,-888.8 737.6,-858 456.64,-858"/>
<text text-anchor="start" x="463.64" y="-870.2" font-family="Arial" font-size="14.00">created_by </text>
<text text-anchor="start" x="536.79" y="-870.2" font-family="Arial" font-size="14.00" fill="#666666">[uuid]</text>
<polygon fill="none" stroke="black" points="456.64,-827.2 456.64,-858 737.6,-858 737.6,-827.2 456.64,-827.2"/>
<text text-anchor="start" x="463.64" y="-839.4" font-family="Arial" font-size="14.00">created_at </text>
<text text-anchor="start" x="533.68" y="-839.4" font-family="Arial" font-size="14.00" fill="#666666">[timestamp without time zone]</text>
<polygon fill="none" stroke="black" points="456.64,-796.4 456.64,-827.2 737.6,-827.2 737.6,-796.4 456.64,-796.4"/>
<text text-anchor="start" x="463.64" y="-808.6" font-family="Arial" font-size="14.00">updated_at </text>
<text text-anchor="start" x="537.59" y="-808.6" font-family="Arial" font-size="14.00" fill="#666666">[timestamp without time zone]</text>
</g>
<!-- public.tool_policies&#45;&gt;public.teams -->
<g id="edge2" class="edge">
<title>public.tool_policies:team_id&#45;&gt;public.teams:id</title>
<path fill="none" stroke="black" d="M748.78,-1056.08C802.1,-1032.07 765.38,-810.94 737.6,-753.2 717.07,-710.51 675.23,-729.02 654.55,-686.4 635.68,-647.53 610.35,-589.2 653.55,-589.2"/>
<polygon fill="black" stroke="black" points="748.72,-1056.09 738.02,-1053.73 743.5,-1057.18 739.26,-1058.06 739.26,-1058.06 739.26,-1058.06 743.5,-1057.18 739.85,-1062.54 748.72,-1056.09"/>
<text text-anchor="start" x="392.09" y="-1068.2" font-family="Arial" font-size="10.00">FOREIGN KEY (team_id) REFERENCES teams(id) ON DELETE CASCADE</text>
</g>
<!-- public.team_policies -->
<g id="node4" class="node">
<title>public.team_policies</title>
<polygon fill="#efefef" stroke="none" points="842.15,-1042.8 842.15,-1078.4 1130.09,-1078.4 1130.09,-1042.8 842.15,-1042.8"/>
<polygon fill="none" stroke="black" points="842.15,-1042.8 842.15,-1078.4 1130.09,-1078.4 1130.09,-1042.8 842.15,-1042.8"/>
<text text-anchor="start" x="849.15" y="-1056.2" font-family="Arial Bold" font-size="18.00">public.team_policies</text>
<text text-anchor="start" x="998.6" y="-1056.2" font-family="Arial" font-size="14.00">    </text>
<text text-anchor="start" x="1029.72" y="-1056.2" font-family="Arial" font-size="14.00" fill="#666666">[BASE TABLE]</text>
<polygon fill="none" stroke="black" points="842.15,-1012 842.15,-1042.8 1130.09,-1042.8 1130.09,-1012 842.15,-1012"/>
<text text-anchor="start" x="849.15" y="-1024.2" font-family="Arial" font-size="14.00">id </text>
<text text-anchor="start" x="863.93" y="-1024.2" font-family="Arial" font-size="14.00" fill="#666666">[uuid]</text>
<polygon fill="none" stroke="black" points="842.15,-981.2 842.15,-1012 1130.09,-1012 1130.09,-981.2 842.15,-981.2"/>
<text text-anchor="start" x="849.15" y="-993.4" font-family="Arial" font-size="14.00">team_id </text>
<text text-anchor="start" x="902.84" y="-993.4" font-family="Arial" font-size="14.00" fill="#666666">[uuid]</text>
<polygon fill="none" stroke="black" points="842.15,-950.4 842.15,-981.2 1130.09,-981.2 1130.09,-950.4 842.15,-950.4"/>
<text text-anchor="start" x="849.15" y="-962.6" font-family="Arial" font-size="14.00">policy_id </text>
<text text-anchor="start" x="907.51" y="-962.6" font-family="Arial" font-size="14.00" fill="#666666">[uuid]</text>
<polygon fill="none" stroke="black" points="842.15,-919.6 842.15,-950.4 1130.09,-950.4 1130.09,-919.6 842.15,-919.6"/>
<text text-anchor="start" x="849.15" y="-931.8" font-family="Arial" font-size="14.00">overrides </text>
<text text-anchor="start" x="910.62" y="-931.8" font-family="Arial" font-size="14.00" fill="#666666">[jsonb]</text>
<polygon fill="none" stroke="black" points="842.15,-888.8 842.15,-919.6 1130.09,-919.6 1130.09,-888.8 842.15,-888.8"/>
<text text-anchor="start" x="849.15" y="-901" font-family="Arial" font-size="14.00">created_at </text>
<text text-anchor="start" x="919.19" y="-901" font-family="Arial" font-size="14.00" fill="#666666">[timestamp without time zone]</text>
</g>
<!-- public.team_policies&#45;&gt;public.teams -->
<g id="edge3" class="edge">
<title>public.team_policies:team_id&#45;&gt;public.teams:id</title>
<path fill="none" stroke="black" d="M830.89,-996.06C718.05,-983.36 911.26,-750.32 927.69,-686.4 938.45,-644.56 971.89,-589.2 928.69,-589.2"/>
<polygon fill="black" stroke="black" points="830.83,-996.06 840.58,-1001.08 836.15,-996.34 840.48,-996.56 840.48,-996.56 840.48,-996.56 836.15,-996.34 841.05,-992.09 830.83,-996.06"/>
<text text-anchor="start" x="583.01" y="-980.6" font-family="Arial" font-size="10.00">FOREIGN KEY (team_id) REFERENCES teams(id) ON DELETE CASCADE</text>
</g>
<!-- public.invitations -->
<g id="node5" class="node">
<title>public.invitations</title>
<polygon fill="#efefef" stroke="none" points="1234.44,-1166 1234.44,-1201.6 1513.8,-1201.6 1513.8,-1166 1234.44,-1166"/>
<polygon fill="none" stroke="black" points="1234.44,-1166 1234.44,-1201.6 1513.8,-1201.6 1513.8,-1166 1234.44,-1166"/>
<text text-anchor="start" x="1249.13" y="-1179.4" font-family="Arial Bold" font-size="18.00">public.invitations</text>
<text text-anchor="start" x="1374.62" y="-1179.4" font-family="Arial" font-size="14.00">    </text>
<text text-anchor="start" x="1405.74" y="-1179.4" font-family="Arial" font-size="14.00" fill="#666666">[BASE TABLE]</text>
<polygon fill="none" stroke="black" points="1234.44,-1135.2 1234.44,-1166 1513.8,-1166 1513.8,-1135.2 1234.44,-1135.2"/>
<text text-anchor="start" x="1241.44" y="-1147.4" font-family="Arial" font-size="14.00">id </text>
<text text-anchor="start" x="1256.23" y="-1147.4" font-family="Arial" font-size="14.00" fill="#666666">[uuid]</text>
<polygon fill="none" stroke="black" points="1234.44,-1104.4 1234.44,-1135.2 1513.8,-1135.2 1513.8,-1104.4 1234.44,-1104.4"/>
<text text-anchor="start" x="1241.44" y="-1116.6" font-family="Arial" font-size="14.00">org_id </text>
<text text-anchor="start" x="1284.25" y="-1116.6" font-family="Arial" font-size="14.00" fill="#666666">[uuid]</text>
<polygon fill="none" stroke="black" points="1234.44,-1073.6 1234.44,-1104.4 1513.8,-1104.4 1513.8,-1073.6 1234.44,-1073.6"/>
<text text-anchor="start" x="1241.44" y="-1085.8" font-family="Arial" font-size="14.00">inviter_id </text>
<text text-anchor="start" x="1301.36" y="-1085.8" font-family="Arial" font-size="14.00" fill="#666666">[uuid]</text>
<polygon fill="none" stroke="black" points="1234.44,-1042.8 1234.44,-1073.6 1513.8,-1073.6 1513.8,-1042.8 1234.44,-1042.8"/>
<text text-anchor="start" x="1241.44" y="-1055" font-family="Arial" font-size="14.00">email </text>
<text text-anchor="start" x="1278.79" y="-1055" font-family="Arial" font-size="14.00" fill="#666666">[varchar(255)]</text>
<polygon fill="none" stroke="black" points="1234.44,-1012 1234.44,-1042.8 1513.8,-1042.8 1513.8,-1012 1234.44,-1012"/>
<text text-anchor="start" x="1241.44" y="-1024.2" font-family="Arial" font-size="14.00">role_id </text>
<text text-anchor="start" x="1287.36" y="-1024.2" font-family="Arial" font-size="14.00" fill="#666666">[uuid]</text>
<polygon fill="none" stroke="black" points="1234.44,-981.2 1234.44,-1012 1513.8,-1012 1513.8,-981.2 1234.44,-981.2"/>
<text text-anchor="start" x="1241.44" y="-993.4" font-family="Arial" font-size="14.00">team_id </text>
<text text-anchor="start" x="1295.14" y="-993.4" font-family="Arial" font-size="14.00" fill="#666666">[uuid]</text>
<polygon fill="none" stroke="black" points="1234.44,-950.4 1234.44,-981.2 1513.8,-981.2 1513.8,-950.4 1234.44,-950.4"/>
<text text-anchor="start" x="1241.44" y="-962.6" font-family="Arial" font-size="14.00">token </text>
<text text-anchor="start" x="1279.58" y="-962.6" font-family="Arial" font-size="14.00" fill="#666666">[varchar(64)]</text>
<polygon fill="none" stroke="black" points="1234.44,-919.6 1234.44,-950.4 1513.8,-950.4 1513.8,-919.6 1234.44,-919.6"/>
<text text-anchor="start" x="1241.44" y="-931.8" font-family="Arial" font-size="14.00">status </text>
<text text-anchor="start" x="1282.68" y="-931.8" font-family="Arial" font-size="14.00" fill="#666666">[varchar(50)]</text>
<polygon fill="none" stroke="black" points="1234.44,-888.8 1234.44,-919.6 1513.8,-919.6 1513.8,-888.8 1234.44,-888.8"/>
<text text-anchor="start" x="1241.44" y="-901" font-family="Arial" font-size="14.00">expires_at </text>
<text text-anchor="start" x="1309.92" y="-901" font-family="Arial" font-size="14.00" fill="#666666">[timestamp without time zone]</text>
<polygon fill="none" stroke="black" points="1234.44,-858 1234.44,-888.8 1513.8,-888.8 1513.8,-858 1234.44,-858"/>
<text text-anchor="start" x="1241.44" y="-870.2" font-family="Arial" font-size="14.00">accepted_by </text>
<text text-anchor="start" x="1324.72" y="-870.2" font-family="Arial" font-size="14.00" fill="#666666">[uuid]</text>
<polygon fill="none" stroke="black" points="1234.44,-827.2 1234.44,-858 1513.8,-858 1513.8,-827.2 1234.44,-827.2"/>
<text text-anchor="start" x="1241.44" y="-839.4" font-family="Arial" font-size="14.00">accepted_at </text>
<text text-anchor="start" x="1321.61" y="-839.4" font-family="Arial" font-size="14.00" fill="#666666">[timestamp without time zone]</text>
<polygon fill="none" stroke="black" points="1234.44,-796.4 1234.44,-827.2 1513.8,-827.2 1513.8,-796.4 1234.44,-796.4"/>
<text text-anchor="start" x="1241.44" y="-808.6" font-family="Arial" font-size="14.00">created_at </text>
<text text-anchor="start" x="1311.49" y="-808.6" font-family="Arial" font-size="14.00" fill="#666666">[timestamp without time zone]</text>
<polygon fill="none" stroke="black" points="1234.44,-765.6 1234.44,-796.4 1513.8,-796.4 1513.8,-765.6 1234.44,-765.6"/>
<text text-anchor="start" x="1241.44" y="-777.8" font-family="Arial" font-size="14.00">updated_at </text>
<text text-anchor="start" x="1315.4" y="-777.8" font-family="Arial" font-size="14.00" fill="#666666">[timestamp without time zone]</text>
</g>
<!-- public.invitations&#45;&gt;public.teams -->
<g id="edge4" class="edge">
<title>public.invitations:team_id&#45;&gt;public.teams:id</title>
<path fill="none" stroke="black" d="M1223.34,-994.22C1176.89,-970.07 1216.71,-769.25 1182.12,-722.4 1106.54,-620.03 1055.94,-589.2 928.69,-589.2"/>
<polygon fill="black" stroke="black" points="1223.38,-994.23 1232.08,-1000.9 1228.58,-995.45 1232.79,-996.45 1232.79,-996.45 1232.79,-996.45 1228.58,-995.45 1234.15,-992.14 1223.38,-994.23"/>
<text text-anchor="start" x="1240.44" y="-1006.6" font-family="Arial" font-size="10.00">FOREIGN KEY (team_id) REFERENCES teams(id) ON DELETE SET NULL</text>
</g>
</g>
</svg>
