<?xml version="1.0" encoding="UTF-8" standalone="no"?>
<!DOCTYPE svg PUBLIC "-//W3C//DTD SVG 1.1//EN"
 "http://www.w3.org/Graphics/SVG/1.1/DTD/svg11.dtd">
<!-- Generated by graphviz version 12.1.2 (20240928.0832)
 -->
<!-- Title: public.usage_records Pages: 1 -->
<svg width="1074pt" height="1064pt"
 viewBox="0.00 0.00 1074.15 1064.00" xmlns="http://www.w3.org/2000/svg" xmlns:xlink="http://www.w3.org/1999/xlink">
<g id="graph0" class="graph" transform="scale(1 1) rotate(0) translate(4 1060)">
<title>public.usage_records</title>
<polygon fill="white" stroke="none" points="-4,4 -4,-1060 1070.15,-1060 1070.15,4 -4,4"/>
<!-- public.usage_records -->
<g id="node1" class="node">
<title>public.usage_records</title>
<polygon fill="#efefef" stroke="none" points="378.99,-974.2 378.99,-1009.8 669.92,-1009.8 669.92,-974.2 378.99,-974.2"/>
<polygon fill="none" stroke="black" points="378.99,-974.2 378.99,-1009.8 669.92,-1009.8 669.92,-974.2 378.99,-974.2"/>
<text text-anchor="start" x="385.99" y="-987.6" font-family="Arial Bold" font-size="18.00">public.usage_records</text>
<text text-anchor="start" x="538.44" y="-987.6" font-family="Arial" font-size="14.00">    </text>
<text text-anchor="start" x="569.55" y="-987.6" font-family="Arial" font-size="14.00" fill="#666666">[BASE TABLE]</text>
<polygon fill="none" stroke="black" points="378.99,-943.4 378.99,-974.2 669.92,-974.2 669.92,-943.4 378.99,-943.4"/>
<text text-anchor="start" x="385.99" y="-955.6" font-family="Arial" font-size="14.00">id </text>
<text text-anchor="start" x="400.78" y="-955.6" font-family="Arial" font-size="14.00" fill="#666666">[uuid]</text>
<polygon fill="none" stroke="black" points="378.99,-912.6 378.99,-943.4 669.92,-943.4 669.92,-912.6 378.99,-912.6"/>
<text text-anchor="start" x="385.99" y="-924.8" font-family="Arial" font-size="14.00">org_id </text>
<text text-anchor="start" x="428.8" y="-924.8" font-family="Arial" font-size="14.00" fill="#666666">[uuid]</text>
<polygon fill="none" stroke="black" points="378.99,-881.8 378.99,-912.6 669.92,-912.6 669.92,-881.8 378.99,-881.8"/>
<text text-anchor="start" x="385.99" y="-894" font-family="Arial" font-size="14.00">employee_id </text>
<text text-anchor="start" x="469.26" y="-894" font-family="Arial" font-size="14.00" fill="#666666">[uuid]</text>
<polygon fill="none" stroke="black" points="378.99,-851 378.99,-881.8 669.92,-881.8 669.92,-851 378.99,-851"/>
<text text-anchor="start" x="385.99" y="-863.2" font-family="Arial" font-size="14.00">resource_type </text>
<text text-anchor="start" x="478.6" y="-863.2" font-family="Arial" font-size="14.00" fill="#666666">[varchar(50)]</text>
<polygon fill="none" stroke="black" points="378.99,-820.2 378.99,-851 669.92,-851 669.92,-820.2 378.99,-820.2"/>
<text text-anchor="start" x="385.99" y="-832.4" font-family="Arial" font-size="14.00">quantity </text>
<text text-anchor="start" x="438.91" y="-832.4" font-family="Arial" font-size="14.00" fill="#666666">[bigint]</text>
<polygon fill="none" stroke="black" points="378.99,-789.4 378.99,-820.2 669.92,-820.2 669.92,-789.4 378.99,-789.4"/>
<text text-anchor="start" x="385.99" y="-801.6" font-family="Arial" font-size="14.00">cost_usd </text>
<text text-anchor="start" x="445.91" y="-801.6" font-family="Arial" font-size="14.00" fill="#666666">[numeric(10,4)]</text>
<polygon fill="none" stroke="black" points="378.99,-758.6 378.99,-789.4 669.92,-789.4 669.92,-758.6 378.99,-758.6"/>
<text text-anchor="start" x="385.99" y="-770.8" font-family="Arial" font-size="14.00">period_start </text>
<text text-anchor="start" x="463.81" y="-770.8" font-family="Arial" font-size="14.00" fill="#666666">[timestamp without time zone]</text>
<polygon fill="none" stroke="black" points="378.99,-727.8 378.99,-758.6 669.92,-758.6 669.92,-727.8 378.99,-727.8"/>
<text text-anchor="start" x="385.99" y="-740" font-family="Arial" font-size="14.00">period_end </text>
<text text-anchor="start" x="459.94" y="-740" font-family="Arial" font-size="14.00" fill="#666666">[timestamp without time zone]</text>
<polygon fill="none" stroke="black" points="378.99,-697 378.99,-727.8 669.92,-727.8 669.92,-697 378.99,-697"/>
<text text-anchor="start" x="385.99" y="-709.2" font-family="Arial" font-size="14.00">metadata </text>
<text text-anchor="start" x="448.25" y="-709.2" font-family="Arial" font-size="14.00" fill="#666666">[jsonb]</text>
<polygon fill="none" stroke="black" points="378.99,-666.2 378.99,-697 669.92,-697 669.92,-666.2 378.99,-666.2"/>
<text text-anchor="start" x="385.99" y="-678.4" font-family="Arial" font-size="14.00">token_source </text>
<text text-anchor="start" x="473.93" y="-678.4" font-family="Arial" font-size="14.00" fill="#666666">[varchar(20)]</text>
<polygon fill="none" stroke="black" points="378.99,-635.4 378.99,-666.2 669.92,-666.2 669.92,-635.4 378.99,-635.4"/>
<text text-anchor="start" x="385.99" y="-647.6" font-family="Arial" font-size="14.00">created_at </text>
<text text-anchor="start" x="456.04" y="-647.6" font-family="Arial" font-size="14.00" fill="#666666">[timestamp without time zone]</text>
<polygon fill="none" stroke="black" stroke-width="3" points="377.49,-633.9 377.49,-1011.3 671.42,-1011.3 671.42,-633.9 377.49,-633.9"/>
</g>
<!-- public.organizations -->
<g id="node2" class="node">
<title>public.organizations</title>
<polygon fill="#efefef" stroke="none" points="187.98,-397.4 187.98,-433 472.93,-433 472.93,-397.4 187.98,-397.4"/>
<polygon fill="none" stroke="black" points="187.98,-397.4 187.98,-433 472.93,-433 472.93,-397.4 187.98,-397.4"/>
<text text-anchor="start" x="194.98" y="-410.8" font-family="Arial Bold" font-size="18.00">public.organizations</text>
<text text-anchor="start" x="341.44" y="-410.8" font-family="Arial" font-size="14.00">    </text>
<text text-anchor="start" x="372.56" y="-410.8" font-family="Arial" font-size="14.00" fill="#666666">[BASE TABLE]</text>
<polygon fill="none" stroke="black" points="187.98,-366.6 187.98,-397.4 472.93,-397.4 472.93,-366.6 187.98,-366.6"/>
<text text-anchor="start" x="194.98" y="-378.8" font-family="Arial" font-size="14.00">id </text>
<text text-anchor="start" x="209.77" y="-378.8" font-family="Arial" font-size="14.00" fill="#666666">[uuid]</text>
<polygon fill="none" stroke="black" points="187.98,-335.8 187.98,-366.6 472.93,-366.6 472.93,-335.8 187.98,-335.8"/>
<text text-anchor="start" x="194.98" y="-348" font-family="Arial" font-size="14.00">name </text>
<text text-anchor="start" x="233.89" y="-348" font-family="Arial" font-size="14.00" fill="#666666">[varchar(255)]</text>
<polygon fill="none" stroke="black" points="187.98,-305 187.98,-335.8 472.93,-335.8 472.93,-305 187.98,-305"/>
<text text-anchor="start" x="194.98" y="-317.2" font-family="Arial" font-size="14.00">slug </text>
<text text-anchor="start" x="224.55" y="-317.2" font-family="Arial" font-size="14.00" fill="#666666">[varchar(100)]</text>
<polygon fill="none" stroke="black" points="187.98,-274.2 187.98,-305 472.93,-305 472.93,-274.2 187.98,-274.2"/>
<text text-anchor="start" x="194.98" y="-286.4" font-family="Arial" font-size="14.00">plan </text>
<text text-anchor="start" x="225.34" y="-286.4" font-family="Arial" font-size="14.00" fill="#666666">[varchar(50)]</text>
<polygon fill="none" stroke="black" points="187.98,-243.4 187.98,-274.2 472.93,-274.2 472.93,-243.4 187.98,-243.4"/>
<text text-anchor="start" x="194.98" y="-255.6" font-family="Arial" font-size="14.00">settings </text>
<text text-anchor="start" x="247.12" y="-255.6" font-family="Arial" font-size="14.00" fill="#666666">[jsonb]</text>
<polygon fill="none" stroke="black" points="187.98,-212.6 187.98,-243.4 472.93,-243.4 472.93,-212.6 187.98,-212.6"/>
<text text-anchor="start" x="194.98" y="-224.8" font-family="Arial" font-size="14.00">max_employees </text>
<text text-anchor="start" x="300.81" y="-224.8" font-family="Arial" font-size="14.00" fill="#666666">[integer]</text>
<polygon fill="none" stroke="black" points="187.98,-181.8 187.98,-212.6 472.93,-212.6 472.93,-181.8 187.98,-181.8"/>
<text text-anchor="start" x="194.98" y="-194" font-family="Arial" font-size="14.00">claude_api_token </text>
<text text-anchor="start" x="308.63" y="-194" font-family="Arial" font-size="14.00" fill="#666666">[text]</text>
<polygon fill="none" stroke="black" points="187.98,-151 187.98,-181.8 472.93,-181.8 472.93,-151 187.98,-151"/>
<text text-anchor="start" x="194.98" y="-163.2" font-family="Arial" font-size="14.00">created_at </text>
<text text-anchor="start" x="265.03" y="-163.2" font-family="Arial" font-size="14.00" fill="#666666">[timestamp without time zone]</text>
<polygon fill="none" stroke="black" points="187.98,-120.2 187.98,-151 472.93,-151 472.93,-120.2 187.98,-120.2"/>
<text text-anchor="start" x="194.98" y="-132.4" font-family="Arial" font-size="14.00">updated_at </text>
<text text-anchor="start" x="268.94" y="-132.4" font-family="Arial" font-size="14.00" fill="#666666">[timestamp without time zone]</text>
</g>
<!-- public.usage_records&#45;&gt;public.organizations -->
<g id="edge1" class="edge">
<title>public.usage_records:org_id&#45;&gt;public.organizations:id</title>
<path fill="none" stroke="black" d="M367.81,-927.68C232.08,-918.78 328.81,-727.42 378.99,-589.2 401.28,-527.81 450.41,-537.5 472.93,-476.2 487.37,-436.9 515.8,-382 473.93,-382"/>
<polygon fill="black" stroke="black" points="367.66,-927.67 377.51,-932.49 372.99,-927.84 377.32,-927.98 377.32,-927.98 377.32,-927.98 372.99,-927.84 377.8,-923.49 367.66,-927.67"/>
<text text-anchor="start" x="7" y="-938" font-family="Arial" font-size="10.00">FOREIGN KEY (org_id) REFERENCES organizations(id) ON DELETE CASCADE</text>
</g>
<!-- public.employees -->
<g id="node3" class="node">
<title>public.employees</title>
<polygon fill="#efefef" stroke="none" points="577.61,-474.4 577.61,-510 859.3,-510 859.3,-474.4 577.61,-474.4"/>
<polygon fill="none" stroke="black" points="577.61,-474.4 577.61,-510 859.3,-510 859.3,-474.4 577.61,-474.4"/>
<text text-anchor="start" x="592.98" y="-487.8" font-family="Arial Bold" font-size="18.00">public.employees</text>
<text text-anchor="start" x="719.45" y="-487.8" font-family="Arial" font-size="14.00">    </text>
<text text-anchor="start" x="750.56" y="-487.8" font-family="Arial" font-size="14.00" fill="#666666">[BASE TABLE]</text>
<polygon fill="none" stroke="black" points="577.61,-443.6 577.61,-474.4 859.3,-474.4 859.3,-443.6 577.61,-443.6"/>
<text text-anchor="start" x="584.61" y="-455.8" font-family="Arial" font-size="14.00">id </text>
<text text-anchor="start" x="599.4" y="-455.8" font-family="Arial" font-size="14.00" fill="#666666">[uuid]</text>
<polygon fill="none" stroke="black" points="577.61,-412.8 577.61,-443.6 859.3,-443.6 859.3,-412.8 577.61,-412.8"/>
<text text-anchor="start" x="584.61" y="-425" font-family="Arial" font-size="14.00">org_id </text>
<text text-anchor="start" x="627.42" y="-425" font-family="Arial" font-size="14.00" fill="#666666">[uuid]</text>
<polygon fill="none" stroke="black" points="577.61,-382 577.61,-412.8 859.3,-412.8 859.3,-382 577.61,-382"/>
<text text-anchor="start" x="584.61" y="-394.2" font-family="Arial" font-size="14.00">team_id </text>
<text text-anchor="start" x="638.31" y="-394.2" font-family="Arial" font-size="14.00" fill="#666666">[uuid]</text>
<polygon fill="none" stroke="black" points="577.61,-351.2 577.61,-382 859.3,-382 859.3,-351.2 577.61,-351.2"/>
<text text-anchor="start" x="584.61" y="-363.4" font-family="Arial" font-size="14.00">role_id </text>
<text text-anchor="start" x="630.53" y="-363.4" font-family="Arial" font-size="14.00" fill="#666666">[uuid]</text>
<polygon fill="none" stroke="black" points="577.61,-320.4 577.61,-351.2 859.3,-351.2 859.3,-320.4 577.61,-320.4"/>
<text text-anchor="start" x="584.61" y="-332.6" font-family="Arial" font-size="14.00">email </text>
<text text-anchor="start" x="621.96" y="-332.6" font-family="Arial" font-size="14.00" fill="#666666">[varchar(255)]</text>
<polygon fill="none" stroke="black" points="577.61,-289.6 577.61,-320.4 859.3,-320.4 859.3,-289.6 577.61,-289.6"/>
<text text-anchor="start" x="584.61" y="-301.8" font-family="Arial" font-size="14.00">full_name </text>
<text text-anchor="start" x="649.21" y="-301.8" font-family="Arial" font-size="14.00" fill="#666666">[varchar(255)]</text>
<polygon fill="none" stroke="black" points="577.61,-258.8 577.61,-289.6 859.3,-289.6 859.3,-258.8 577.61,-258.8"/>
<text text-anchor="start" x="584.61" y="-271" font-family="Arial" font-size="14.00">password_hash </text>
<text text-anchor="start" x="686.56" y="-271" font-family="Arial" font-size="14.00" fill="#666666">[varchar(255)]</text>
<polygon fill="none" stroke="black" points="577.61,-228 577.61,-258.8 859.3,-258.8 859.3,-228 577.61,-228"/>
<text text-anchor="start" x="584.61" y="-240.2" font-family="Arial" font-size="14.00">status </text>
<text text-anchor="start" x="625.85" y="-240.2" font-family="Arial" font-size="14.00" fill="#666666">[varchar(50)]</text>
<polygon fill="none" stroke="black" points="577.61,-197.2 577.61,-228 859.3,-228 859.3,-197.2 577.61,-197.2"/>
<text text-anchor="start" x="584.61" y="-209.4" font-family="Arial" font-size="14.00">preferences </text>
<text text-anchor="start" x="662.43" y="-209.4" font-family="Arial" font-size="14.00" fill="#666666">[jsonb]</text>
<polygon fill="none" stroke="black" points="577.61,-166.4 577.61,-197.2 859.3,-197.2 859.3,-166.4 577.61,-166.4"/>
<text text-anchor="start" x="584.61" y="-178.6" font-family="Arial" font-size="14.00">personal_claude_token </text>
<text text-anchor="start" x="733.28" y="-178.6" font-family="Arial" font-size="14.00" fill="#666666">[text]</text>
<polygon fill="none" stroke="black" points="577.61,-135.6 577.61,-166.4 859.3,-166.4 859.3,-135.6 577.61,-135.6"/>
<text text-anchor="start" x="584.61" y="-147.8" font-family="Arial" font-size="14.00">last_login_at </text>
<text text-anchor="start" x="667.12" y="-147.8" font-family="Arial" font-size="14.00" fill="#666666">[timestamp without time zone]</text>
<polygon fill="none" stroke="black" points="577.61,-104.8 577.61,-135.6 859.3,-135.6 859.3,-104.8 577.61,-104.8"/>
<text text-anchor="start" x="584.61" y="-117" font-family="Arial" font-size="14.00">created_at </text>
<text text-anchor="start" x="654.66" y="-117" font-family="Arial" font-size="14.00" fill="#666666">[timestamp without time zone]</text>
<polygon fill="none" stroke="black" points="577.61,-74 577.61,-104.8 859.3,-104.8 859.3,-74 577.61,-74"/>
<text text-anchor="start" x="584.61" y="-86.2" font-family="Arial" font-size="14.00">updated_at </text>
<text text-anchor="start" x="658.57" y="-86.2" font-family="Arial" font-size="14.00" fill="#666666">[timestamp without time zone]</text>
<polygon fill="none" stroke="black" points="577.61,-43.2 577.61,-74 859.3,-74 859.3,-43.2 577.61,-43.2"/>
<text text-anchor="start" x="584.61" y="-55.4" font-family="Arial" font-size="14.00">deleted_at </text>
<text text-anchor="start" x="653.9" y="-55.4" font-family="Arial" font-size="14.00" fill="#666666">[timestamp without time zone]</text>
</g>
<!-- public.usage_records&#45;&gt;public.employees -->
<g id="edge2" class="edge">
<title>public.usage_records:employee_id&#45;&gt;public.employees:id</title>
<path fill="none" stroke="black" d="M681.34,-896.8C804.61,-886.97 745.3,-699.12 669.92,-589.2 645.02,-552.88 602.65,-589.43 577.61,-553.2 553.81,-518.76 534.74,-459 576.61,-459"/>
<polygon fill="black" stroke="black" points="681.25,-896.8 671.09,-892.69 675.92,-897.01 671.59,-897.17 671.59,-897.17 671.59,-897.17 675.92,-897.01 671.43,-901.68 681.25,-896.8"/>
<text text-anchor="start" x="677.92" y="-907.2" font-family="Arial" font-size="10.00">FOREIGN KEY (employee_id) REFERENCES employees(id) ON DELETE SET NULL</text>
</g>
</g>
</svg>
