<?xml version="1.0" encoding="UTF-8" standalone="no"?>
<!DOCTYPE svg PUBLIC "-//W3C//DTD SVG 1.1//EN"
 "http://www.w3.org/Graphics/SVG/1.1/DTD/svg11.dtd">
<!-- Generated by graphviz version 12.1.2 (20240928.0832)
 -->
<!-- Title: public.organizations Pages: 1 -->
<svg width="3236pt" height="1095pt"
 viewBox="0.00 0.00 3235.81 1094.80" xmlns="http://www.w3.org/2000/svg" xmlns:xlink="http://www.w3.org/1999/xlink">
<g id="graph0" class="graph" transform="scale(1 1) rotate(0) translate(4 1090.8)">
<title>public.organizations</title>
<polygon fill="white" stroke="none" points="-4,4 -4,-1090.8 3231.81,-1090.8 3231.81,4 -4,4"/>
<!-- public.organizations -->
<g id="node1" class="node">
<title>public.organizations</title>
<polygon fill="#efefef" stroke="none" points="1422.02,-323.4 1422.02,-359 1706.97,-359 1706.97,-323.4 1422.02,-323.4"/>
<polygon fill="none" stroke="black" points="1422.02,-323.4 1422.02,-359 1706.97,-359 1706.97,-323.4 1422.02,-323.4"/>
<text text-anchor="start" x="1429.02" y="-336.8" font-family="Arial Bold" font-size="18.00">public.organizations</text>
<text text-anchor="start" x="1575.48" y="-336.8" font-family="Arial" font-size="14.00">    </text>
<text text-anchor="start" x="1606.6" y="-336.8" font-family="Arial" font-size="14.00" fill="#666666">[BASE TABLE]</text>
<polygon fill="none" stroke="black" points="1422.02,-292.6 1422.02,-323.4 1706.97,-323.4 1706.97,-292.6 1422.02,-292.6"/>
<text text-anchor="start" x="1429.02" y="-304.8" font-family="Arial" font-size="14.00">id </text>
<text text-anchor="start" x="1443.81" y="-304.8" font-family="Arial" font-size="14.00" fill="#666666">[uuid]</text>
<polygon fill="none" stroke="black" points="1422.02,-261.8 1422.02,-292.6 1706.97,-292.6 1706.97,-261.8 1422.02,-261.8"/>
<text text-anchor="start" x="1429.02" y="-274" font-family="Arial" font-size="14.00">name </text>
<text text-anchor="start" x="1467.93" y="-274" font-family="Arial" font-size="14.00" fill="#666666">[varchar(255)]</text>
<polygon fill="none" stroke="black" points="1422.02,-231 1422.02,-261.8 1706.97,-261.8 1706.97,-231 1422.02,-231"/>
<text text-anchor="start" x="1429.02" y="-243.2" font-family="Arial" font-size="14.00">slug </text>
<text text-anchor="start" x="1458.59" y="-243.2" font-family="Arial" font-size="14.00" fill="#666666">[varchar(100)]</text>
<polygon fill="none" stroke="black" points="1422.02,-200.2 1422.02,-231 1706.97,-231 1706.97,-200.2 1422.02,-200.2"/>
<text text-anchor="start" x="1429.02" y="-212.4" font-family="Arial" font-size="14.00">plan </text>
<text text-anchor="start" x="1459.38" y="-212.4" font-family="Arial" font-size="14.00" fill="#666666">[varchar(50)]</text>
<polygon fill="none" stroke="black" points="1422.02,-169.4 1422.02,-200.2 1706.97,-200.2 1706.97,-169.4 1422.02,-169.4"/>
<text text-anchor="start" x="1429.02" y="-181.6" font-family="Arial" font-size="14.00">settings </text>
<text text-anchor="start" x="1481.16" y="-181.6" font-family="Arial" font-size="14.00" fill="#666666">[jsonb]</text>
<polygon fill="none" stroke="black" points="1422.02,-138.6 1422.02,-169.4 1706.97,-169.4 1706.97,-138.6 1422.02,-138.6"/>
<text text-anchor="start" x="1429.02" y="-150.8" font-family="Arial" font-size="14.00">max_employees </text>
<text text-anchor="start" x="1534.85" y="-150.8" font-family="Arial" font-size="14.00" fill="#666666">[integer]</text>
<polygon fill="none" stroke="black" points="1422.02,-107.8 1422.02,-138.6 1706.97,-138.6 1706.97,-107.8 1422.02,-107.8"/>
<text text-anchor="start" x="1429.02" y="-120" font-family="Arial" font-size="14.00">claude_api_token </text>
<text text-anchor="start" x="1542.67" y="-120" font-family="Arial" font-size="14.00" fill="#666666">[text]</text>
<polygon fill="none" stroke="black" points="1422.02,-77 1422.02,-107.8 1706.97,-107.8 1706.97,-77 1422.02,-77"/>
<text text-anchor="start" x="1429.02" y="-89.2" font-family="Arial" font-size="14.00">created_at </text>
<text text-anchor="start" x="1499.07" y="-89.2" font-family="Arial" font-size="14.00" fill="#666666">[timestamp without time zone]</text>
<polygon fill="none" stroke="black" points="1422.02,-46.2 1422.02,-77 1706.97,-77 1706.97,-46.2 1422.02,-46.2"/>
<text text-anchor="start" x="1429.02" y="-58.4" font-family="Arial" font-size="14.00">updated_at </text>
<text text-anchor="start" x="1502.98" y="-58.4" font-family="Arial" font-size="14.00" fill="#666666">[timestamp without time zone]</text>
<polygon fill="none" stroke="black" stroke-width="3" points="1420.52,-44.7 1420.52,-360.5 1708.47,-360.5 1708.47,-44.7 1420.52,-44.7"/>
</g>
<!-- public.subscriptions -->
<g id="node2" class="node">
<title>public.subscriptions</title>
<polygon fill="#efefef" stroke="none" points="43.2,-900.2 43.2,-935.8 363.79,-935.8 363.79,-900.2 43.2,-900.2"/>
<polygon fill="none" stroke="black" points="43.2,-900.2 43.2,-935.8 363.79,-935.8 363.79,-900.2 43.2,-900.2"/>
<text text-anchor="start" x="69.01" y="-913.6" font-family="Arial Bold" font-size="18.00">public.subscriptions</text>
<text text-anchor="start" x="213.5" y="-913.6" font-family="Arial" font-size="14.00">    </text>
<text text-anchor="start" x="244.61" y="-913.6" font-family="Arial" font-size="14.00" fill="#666666">[BASE TABLE]</text>
<polygon fill="none" stroke="black" points="43.2,-869.4 43.2,-900.2 363.79,-900.2 363.79,-869.4 43.2,-869.4"/>
<text text-anchor="start" x="50.2" y="-881.6" font-family="Arial" font-size="14.00">id </text>
<text text-anchor="start" x="64.99" y="-881.6" font-family="Arial" font-size="14.00" fill="#666666">[uuid]</text>
<polygon fill="none" stroke="black" points="43.2,-838.6 43.2,-869.4 363.79,-869.4 363.79,-838.6 43.2,-838.6"/>
<text text-anchor="start" x="50.2" y="-850.8" font-family="Arial" font-size="14.00">org_id </text>
<text text-anchor="start" x="93.01" y="-850.8" font-family="Arial" font-size="14.00" fill="#666666">[uuid]</text>
<polygon fill="none" stroke="black" points="43.2,-807.8 43.2,-838.6 363.79,-838.6 363.79,-807.8 43.2,-807.8"/>
<text text-anchor="start" x="50.2" y="-820" font-family="Arial" font-size="14.00">plan_type </text>
<text text-anchor="start" x="114.81" y="-820" font-family="Arial" font-size="14.00" fill="#666666">[varchar(50)]</text>
<polygon fill="none" stroke="black" points="43.2,-777 43.2,-807.8 363.79,-807.8 363.79,-777 43.2,-777"/>
<text text-anchor="start" x="50.2" y="-789.2" font-family="Arial" font-size="14.00">monthly_budget_usd </text>
<text text-anchor="start" x="184.08" y="-789.2" font-family="Arial" font-size="14.00" fill="#666666">[numeric(10,2)]</text>
<polygon fill="none" stroke="black" points="43.2,-746.2 43.2,-777 363.79,-777 363.79,-746.2 43.2,-746.2"/>
<text text-anchor="start" x="50.2" y="-758.4" font-family="Arial" font-size="14.00">current_spending_usd </text>
<text text-anchor="start" x="192.63" y="-758.4" font-family="Arial" font-size="14.00" fill="#666666">[numeric(10,2)]</text>
<polygon fill="none" stroke="black" points="43.2,-715.4 43.2,-746.2 363.79,-746.2 363.79,-715.4 43.2,-715.4"/>
<text text-anchor="start" x="50.2" y="-727.6" font-family="Arial" font-size="14.00">billing_period_start </text>
<text text-anchor="start" x="171.61" y="-727.6" font-family="Arial" font-size="14.00" fill="#666666">[timestamp without time zone]</text>
<polygon fill="none" stroke="black" points="43.2,-684.6 43.2,-715.4 363.79,-715.4 363.79,-684.6 43.2,-684.6"/>
<text text-anchor="start" x="50.2" y="-696.8" font-family="Arial" font-size="14.00">billing_period_end </text>
<text text-anchor="start" x="167.74" y="-696.8" font-family="Arial" font-size="14.00" fill="#666666">[timestamp without time zone]</text>
<polygon fill="none" stroke="black" points="43.2,-653.8 43.2,-684.6 363.79,-684.6 363.79,-653.8 43.2,-653.8"/>
<text text-anchor="start" x="50.2" y="-666" font-family="Arial" font-size="14.00">status </text>
<text text-anchor="start" x="91.44" y="-666" font-family="Arial" font-size="14.00" fill="#666666">[varchar(50)]</text>
<polygon fill="none" stroke="black" points="43.2,-623 43.2,-653.8 363.79,-653.8 363.79,-623 43.2,-623"/>
<text text-anchor="start" x="50.2" y="-635.2" font-family="Arial" font-size="14.00">created_at </text>
<text text-anchor="start" x="120.25" y="-635.2" font-family="Arial" font-size="14.00" fill="#666666">[timestamp without time zone]</text>
<polygon fill="none" stroke="black" points="43.2,-592.2 43.2,-623 363.79,-623 363.79,-592.2 43.2,-592.2"/>
<text text-anchor="start" x="50.2" y="-604.4" font-family="Arial" font-size="14.00">updated_at </text>
<text text-anchor="start" x="124.16" y="-604.4" font-family="Arial" font-size="14.00" fill="#666666">[timestamp without time zone]</text>
</g>
<!-- public.subscriptions&#45;&gt;public.organizations -->
<g id="edge1" class="edge">
<title>public.subscriptions:org_id&#45;&gt;public.organizations:id</title>
<path fill="none" stroke="black" d="M374.73,-852.45C449.14,-827.31 352.99,-504.3 415.5,-441.2 494.81,-361.13 1308.32,-308 1421.02,-308"/>
<polygon fill="black" stroke="black" points="375,-852.41 364.43,-849.5 369.73,-853.23 365.45,-853.9 365.45,-853.9 365.45,-853.9 369.73,-853.23 365.82,-858.39 375,-852.41"/>
<text text-anchor="start" x="182.8" y="-838" font-family="Arial" font-size="10.00">FOREIGN KEY (org_id) REFERENCES organizations(id) ON DELETE CASCADE</text>
</g>
<!-- public.teams -->
<g id="node3" class="node">
<title>public.teams</title>
<polygon fill="#efefef" stroke="none" points="467.92,-838.6 467.92,-874.2 741.07,-874.2 741.07,-838.6 467.92,-838.6"/>
<polygon fill="none" stroke="black" points="467.92,-838.6 467.92,-874.2 741.07,-874.2 741.07,-838.6 467.92,-838.6"/>
<text text-anchor="start" x="496.51" y="-852" font-family="Arial Bold" font-size="18.00">public.teams</text>
<text text-anchor="start" x="587.99" y="-852" font-family="Arial" font-size="14.00">    </text>
<text text-anchor="start" x="619.11" y="-852" font-family="Arial" font-size="14.00" fill="#666666">[BASE TABLE]</text>
<polygon fill="none" stroke="black" points="467.92,-807.8 467.92,-838.6 741.07,-838.6 741.07,-807.8 467.92,-807.8"/>
<text text-anchor="start" x="474.92" y="-820" font-family="Arial" font-size="14.00">id </text>
<text text-anchor="start" x="489.71" y="-820" font-family="Arial" font-size="14.00" fill="#666666">[uuid]</text>
<polygon fill="none" stroke="black" points="467.92,-777 467.92,-807.8 741.07,-807.8 741.07,-777 467.92,-777"/>
<text text-anchor="start" x="474.92" y="-789.2" font-family="Arial" font-size="14.00">org_id </text>
<text text-anchor="start" x="517.73" y="-789.2" font-family="Arial" font-size="14.00" fill="#666666">[uuid]</text>
<polygon fill="none" stroke="black" points="467.92,-746.2 467.92,-777 741.07,-777 741.07,-746.2 467.92,-746.2"/>
<text text-anchor="start" x="474.92" y="-758.4" font-family="Arial" font-size="14.00">name </text>
<text text-anchor="start" x="513.83" y="-758.4" font-family="Arial" font-size="14.00" fill="#666666">[varchar(255)]</text>
<polygon fill="none" stroke="black" points="467.92,-715.4 467.92,-746.2 741.07,-746.2 741.07,-715.4 467.92,-715.4"/>
<text text-anchor="start" x="474.92" y="-727.6" font-family="Arial" font-size="14.00">description </text>
<text text-anchor="start" x="546.52" y="-727.6" font-family="Arial" font-size="14.00" fill="#666666">[text]</text>
<polygon fill="none" stroke="black" points="467.92,-684.6 467.92,-715.4 741.07,-715.4 741.07,-684.6 467.92,-684.6"/>
<text text-anchor="start" x="474.92" y="-696.8" font-family="Arial" font-size="14.00">created_at </text>
<text text-anchor="start" x="544.97" y="-696.8" font-family="Arial" font-size="14.00" fill="#666666">[timestamp without time zone]</text>
<polygon fill="none" stroke="black" points="467.92,-653.8 467.92,-684.6 741.07,-684.6 741.07,-653.8 467.92,-653.8"/>
<text text-anchor="start" x="474.92" y="-666" font-family="Arial" font-size="14.00">updated_at </text>
<text text-anchor="start" x="548.88" y="-666" font-family="Arial" font-size="14.00" fill="#666666">[timestamp without time zone]</text>
</g>
<!-- public.teams&#45;&gt;public.organizations -->
<g id="edge2" class="edge">
<title>public.teams:org_id&#45;&gt;public.organizations:id</title>
<path fill="none" stroke="black" d="M752.13,-790.52C813.61,-765.39 742.06,-496.03 793.5,-441.2 891.03,-337.24 1278.46,-308 1421.02,-308"/>
<polygon fill="black" stroke="black" points="752.23,-790.5 741.57,-787.92 746.98,-791.48 742.73,-792.28 742.73,-792.28 742.73,-792.28 746.98,-791.48 743.22,-796.76 752.23,-790.5"/>
<text text-anchor="start" x="560.07" y="-776.4" font-family="Arial" font-size="10.00">FOREIGN KEY (org_id) REFERENCES organizations(id) ON DELETE CASCADE</text>
</g>
<!-- public.employees -->
<g id="node4" class="node">
<title>public.employees</title>
<polygon fill="#efefef" stroke="none" points="845.65,-961.8 845.65,-997.4 1127.34,-997.4 1127.34,-961.8 845.65,-961.8"/>
<polygon fill="none" stroke="black" points="845.65,-961.8 845.65,-997.4 1127.34,-997.4 1127.34,-961.8 845.65,-961.8"/>
<text text-anchor="start" x="861.02" y="-975.2" font-family="Arial Bold" font-size="18.00">public.employees</text>
<text text-anchor="start" x="987.48" y="-975.2" font-family="Arial" font-size="14.00">    </text>
<text text-anchor="start" x="1018.6" y="-975.2" font-family="Arial" font-size="14.00" fill="#666666">[BASE TABLE]</text>
<polygon fill="none" stroke="black" points="845.65,-931 845.65,-961.8 1127.34,-961.8 1127.34,-931 845.65,-931"/>
<text text-anchor="start" x="852.65" y="-943.2" font-family="Arial" font-size="14.00">id </text>
<text text-anchor="start" x="867.44" y="-943.2" font-family="Arial" font-size="14.00" fill="#666666">[uuid]</text>
<polygon fill="none" stroke="black" points="845.65,-900.2 845.65,-931 1127.34,-931 1127.34,-900.2 845.65,-900.2"/>
<text text-anchor="start" x="852.65" y="-912.4" font-family="Arial" font-size="14.00">org_id </text>
<text text-anchor="start" x="895.46" y="-912.4" font-family="Arial" font-size="14.00" fill="#666666">[uuid]</text>
<polygon fill="none" stroke="black" points="845.65,-869.4 845.65,-900.2 1127.34,-900.2 1127.34,-869.4 845.65,-869.4"/>
<text text-anchor="start" x="852.65" y="-881.6" font-family="Arial" font-size="14.00">team_id </text>
<text text-anchor="start" x="906.35" y="-881.6" font-family="Arial" font-size="14.00" fill="#666666">[uuid]</text>
<polygon fill="none" stroke="black" points="845.65,-838.6 845.65,-869.4 1127.34,-869.4 1127.34,-838.6 845.65,-838.6"/>
<text text-anchor="start" x="852.65" y="-850.8" font-family="Arial" font-size="14.00">role_id </text>
<text text-anchor="start" x="898.57" y="-850.8" font-family="Arial" font-size="14.00" fill="#666666">[uuid]</text>
<polygon fill="none" stroke="black" points="845.65,-807.8 845.65,-838.6 1127.34,-838.6 1127.34,-807.8 845.65,-807.8"/>
<text text-anchor="start" x="852.65" y="-820" font-family="Arial" font-size="14.00">email </text>
<text text-anchor="start" x="890" y="-820" font-family="Arial" font-size="14.00" fill="#666666">[varchar(255)]</text>
<polygon fill="none" stroke="black" points="845.65,-777 845.65,-807.8 1127.34,-807.8 1127.34,-777 845.65,-777"/>
<text text-anchor="start" x="852.65" y="-789.2" font-family="Arial" font-size="14.00">full_name </text>
<text text-anchor="start" x="917.24" y="-789.2" font-family="Arial" font-size="14.00" fill="#666666">[varchar(255)]</text>
<polygon fill="none" stroke="black" points="845.65,-746.2 845.65,-777 1127.34,-777 1127.34,-746.2 845.65,-746.2"/>
<text text-anchor="start" x="852.65" y="-758.4" font-family="Arial" font-size="14.00">password_hash </text>
<text text-anchor="start" x="954.6" y="-758.4" font-family="Arial" font-size="14.00" fill="#666666">[varchar(255)]</text>
<polygon fill="none" stroke="black" points="845.65,-715.4 845.65,-746.2 1127.34,-746.2 1127.34,-715.4 845.65,-715.4"/>
<text text-anchor="start" x="852.65" y="-727.6" font-family="Arial" font-size="14.00">status </text>
<text text-anchor="start" x="893.89" y="-727.6" font-family="Arial" font-size="14.00" fill="#666666">[varchar(50)]</text>
<polygon fill="none" stroke="black" points="845.65,-684.6 845.65,-715.4 1127.34,-715.4 1127.34,-684.6 845.65,-684.6"/>
<text text-anchor="start" x="852.65" y="-696.8" font-family="Arial" font-size="14.00">preferences </text>
<text text-anchor="start" x="930.47" y="-696.8" font-family="Arial" font-size="14.00" fill="#666666">[jsonb]</text>
<polygon fill="none" stroke="black" points="845.65,-653.8 845.65,-684.6 1127.34,-684.6 1127.34,-653.8 845.65,-653.8"/>
<text text-anchor="start" x="852.65" y="-666" font-family="Arial" font-size="14.00">personal_claude_token </text>
<text text-anchor="start" x="1001.32" y="-666" font-family="Arial" font-size="14.00" fill="#666666">[text]</text>
<polygon fill="none" stroke="black" points="845.65,-623 845.65,-653.8 1127.34,-653.8 1127.34,-623 845.65,-623"/>
<text text-anchor="start" x="852.65" y="-635.2" font-family="Arial" font-size="14.00">last_login_at </text>
<text text-anchor="start" x="935.15" y="-635.2" font-family="Arial" font-size="14.00" fill="#666666">[timestamp without time zone]</text>
<polygon fill="none" stroke="black" points="845.65,-592.2 845.65,-623 1127.34,-623 1127.34,-592.2 845.65,-592.2"/>
<text text-anchor="start" x="852.65" y="-604.4" font-family="Arial" font-size="14.00">created_at </text>
<text text-anchor="start" x="922.7" y="-604.4" font-family="Arial" font-size="14.00" fill="#666666">[timestamp without time zone]</text>
<polygon fill="none" stroke="black" points="845.65,-561.4 845.65,-592.2 1127.34,-592.2 1127.34,-561.4 845.65,-561.4"/>
<text text-anchor="start" x="852.65" y="-573.6" font-family="Arial" font-size="14.00">updated_at </text>
<text text-anchor="start" x="926.61" y="-573.6" font-family="Arial" font-size="14.00" fill="#666666">[timestamp without time zone]</text>
<polygon fill="none" stroke="black" points="845.65,-530.6 845.65,-561.4 1127.34,-561.4 1127.34,-530.6 845.65,-530.6"/>
<text text-anchor="start" x="852.65" y="-542.8" font-family="Arial" font-size="14.00">deleted_at </text>
<text text-anchor="start" x="921.93" y="-542.8" font-family="Arial" font-size="14.00" fill="#666666">[timestamp without time zone]</text>
</g>
<!-- public.employees&#45;&gt;public.organizations -->
<g id="edge3" class="edge">
<title>public.employees:org_id&#45;&gt;public.organizations:id</title>
<path fill="none" stroke="black" d="M1138.46,-914.27C1226.81,-889.55 1122.77,-526.46 1179.5,-441.2 1247.4,-339.14 1298.43,-308 1421.02,-308"/>
<polygon fill="black" stroke="black" points="1138.59,-914.26 1128.09,-911.09 1133.3,-914.95 1129,-915.51 1129,-915.51 1129,-915.51 1133.3,-914.95 1129.26,-920.02 1138.59,-914.26"/>
<text text-anchor="start" x="1135.34" y="-925.6" font-family="Arial" font-size="10.00">FOREIGN KEY (org_id) REFERENCES organizations(id) ON DELETE CASCADE</text>
</g>
<!-- public.tool_policies -->
<g id="node5" class="node">
<title>public.tool_policies</title>
<polygon fill="#efefef" stroke="none" points="1232.01,-915.6 1232.01,-951.2 1512.98,-951.2 1512.98,-915.6 1232.01,-915.6"/>
<polygon fill="none" stroke="black" points="1232.01,-915.6 1232.01,-951.2 1512.98,-951.2 1512.98,-915.6 1232.01,-915.6"/>
<text text-anchor="start" x="1239.01" y="-929" font-family="Arial Bold" font-size="18.00">public.tool_policies</text>
<text text-anchor="start" x="1381.49" y="-929" font-family="Arial" font-size="14.00">    </text>
<text text-anchor="start" x="1412.61" y="-929" font-family="Arial" font-size="14.00" fill="#666666">[BASE TABLE]</text>
<polygon fill="none" stroke="black" points="1232.01,-884.8 1232.01,-915.6 1512.98,-915.6 1512.98,-884.8 1232.01,-884.8"/>
<text text-anchor="start" x="1239.01" y="-897" font-family="Arial" font-size="14.00">id </text>
<text text-anchor="start" x="1253.8" y="-897" font-family="Arial" font-size="14.00" fill="#666666">[uuid]</text>
<polygon fill="none" stroke="black" points="1232.01,-854 1232.01,-884.8 1512.98,-884.8 1512.98,-854 1232.01,-854"/>
<text text-anchor="start" x="1239.01" y="-866.2" font-family="Arial" font-size="14.00">org_id </text>
<text text-anchor="start" x="1281.82" y="-866.2" font-family="Arial" font-size="14.00" fill="#666666">[uuid]</text>
<polygon fill="none" stroke="black" points="1232.01,-823.2 1232.01,-854 1512.98,-854 1512.98,-823.2 1232.01,-823.2"/>
<text text-anchor="start" x="1239.01" y="-835.4" font-family="Arial" font-size="14.00">team_id </text>
<text text-anchor="start" x="1292.71" y="-835.4" font-family="Arial" font-size="14.00" fill="#666666">[uuid]</text>
<polygon fill="none" stroke="black" points="1232.01,-792.4 1232.01,-823.2 1512.98,-823.2 1512.98,-792.4 1232.01,-792.4"/>
<text text-anchor="start" x="1239.01" y="-804.6" font-family="Arial" font-size="14.00">employee_id </text>
<text text-anchor="start" x="1322.29" y="-804.6" font-family="Arial" font-size="14.00" fill="#666666">[uuid]</text>
<polygon fill="none" stroke="black" points="1232.01,-761.6 1232.01,-792.4 1512.98,-792.4 1512.98,-761.6 1232.01,-761.6"/>
<text text-anchor="start" x="1239.01" y="-773.8" font-family="Arial" font-size="14.00">tool_name </text>
<text text-anchor="start" x="1308.28" y="-773.8" font-family="Arial" font-size="14.00" fill="#666666">[varchar(255)]</text>
<polygon fill="none" stroke="black" points="1232.01,-730.8 1232.01,-761.6 1512.98,-761.6 1512.98,-730.8 1232.01,-730.8"/>
<text text-anchor="start" x="1239.01" y="-743" font-family="Arial" font-size="14.00">conditions </text>
<text text-anchor="start" x="1305.94" y="-743" font-family="Arial" font-size="14.00" fill="#666666">[jsonb]</text>
<polygon fill="none" stroke="black" points="1232.01,-700 1232.01,-730.8 1512.98,-730.8 1512.98,-700 1232.01,-700"/>
<text text-anchor="start" x="1239.01" y="-712.2" font-family="Arial" font-size="14.00">action </text>
<text text-anchor="start" x="1280.26" y="-712.2" font-family="Arial" font-size="14.00" fill="#666666">[varchar(20)]</text>
<polygon fill="none" stroke="black" points="1232.01,-669.2 1232.01,-700 1512.98,-700 1512.98,-669.2 1232.01,-669.2"/>
<text text-anchor="start" x="1239.01" y="-681.4" font-family="Arial" font-size="14.00">reason </text>
<text text-anchor="start" x="1285.71" y="-681.4" font-family="Arial" font-size="14.00" fill="#666666">[text]</text>
<polygon fill="none" stroke="black" points="1232.01,-638.4 1232.01,-669.2 1512.98,-669.2 1512.98,-638.4 1232.01,-638.4"/>
<text text-anchor="start" x="1239.01" y="-650.6" font-family="Arial" font-size="14.00">created_by </text>
<text text-anchor="start" x="1312.17" y="-650.6" font-family="Arial" font-size="14.00" fill="#666666">[uuid]</text>
<polygon fill="none" stroke="black" points="1232.01,-607.6 1232.01,-638.4 1512.98,-638.4 1512.98,-607.6 1232.01,-607.6"/>
<text text-anchor="start" x="1239.01" y="-619.8" font-family="Arial" font-size="14.00">created_at </text>
<text text-anchor="start" x="1309.06" y="-619.8" font-family="Arial" font-size="14.00" fill="#666666">[timestamp without time zone]</text>
<polygon fill="none" stroke="black" points="1232.01,-576.8 1232.01,-607.6 1512.98,-607.6 1512.98,-576.8 1232.01,-576.8"/>
<text text-anchor="start" x="1239.01" y="-589" font-family="Arial" font-size="14.00">updated_at </text>
<text text-anchor="start" x="1312.97" y="-589" font-family="Arial" font-size="14.00" fill="#666666">[timestamp without time zone]</text>
</g>
<!-- public.tool_policies&#45;&gt;public.organizations -->
<g id="edge4" class="edge">
<title>public.tool_policies:org_id&#45;&gt;public.organizations:id</title>
<path fill="none" stroke="black" d="M1524.02,-867.56C1583.51,-844.01 1534.61,-601.2 1512.98,-533.6 1491.67,-466.99 1443.58,-471.73 1422.02,-405.2 1408.71,-364.1 1377.82,-308 1421.02,-308"/>
<polygon fill="black" stroke="black" points="1524.15,-867.54 1513.5,-864.91 1518.9,-868.5 1514.64,-869.28 1514.64,-869.28 1514.64,-869.28 1518.9,-868.5 1515.12,-873.77 1524.15,-867.54"/>
<text text-anchor="start" x="1142.99" y="-879.4" font-family="Arial" font-size="10.00">FOREIGN KEY (org_id) REFERENCES organizations(id) ON DELETE CASCADE</text>
</g>
<!-- public.activity_logs -->
<g id="node6" class="node">
<title>public.activity_logs</title>
<polygon fill="#efefef" stroke="none" points="1617.01,-915.6 1617.01,-951.2 1897.98,-951.2 1897.98,-915.6 1617.01,-915.6"/>
<polygon fill="none" stroke="black" points="1617.01,-915.6 1617.01,-951.2 1897.98,-951.2 1897.98,-915.6 1617.01,-915.6"/>
<text text-anchor="start" x="1624.01" y="-929" font-family="Arial Bold" font-size="18.00">public.activity_logs</text>
<text text-anchor="start" x="1766.49" y="-929" font-family="Arial" font-size="14.00">    </text>
<text text-anchor="start" x="1797.61" y="-929" font-family="Arial" font-size="14.00" fill="#666666">[BASE TABLE]</text>
<polygon fill="none" stroke="black" points="1617.01,-884.8 1617.01,-915.6 1897.98,-915.6 1897.98,-884.8 1617.01,-884.8"/>
<text text-anchor="start" x="1624.01" y="-897" font-family="Arial" font-size="14.00">id </text>
<text text-anchor="start" x="1638.8" y="-897" font-family="Arial" font-size="14.00" fill="#666666">[uuid]</text>
<polygon fill="none" stroke="black" points="1617.01,-854 1617.01,-884.8 1897.98,-884.8 1897.98,-854 1617.01,-854"/>
<text text-anchor="start" x="1624.01" y="-866.2" font-family="Arial" font-size="14.00">org_id </text>
<text text-anchor="start" x="1666.82" y="-866.2" font-family="Arial" font-size="14.00" fill="#666666">[uuid]</text>
<polygon fill="none" stroke="black" points="1617.01,-823.2 1617.01,-854 1897.98,-854 1897.98,-823.2 1617.01,-823.2"/>
<text text-anchor="start" x="1624.01" y="-835.4" font-family="Arial" font-size="14.00">employee_id </text>
<text text-anchor="start" x="1707.29" y="-835.4" font-family="Arial" font-size="14.00" fill="#666666">[uuid]</text>
<polygon fill="none" stroke="black" points="1617.01,-792.4 1617.01,-823.2 1897.98,-823.2 1897.98,-792.4 1617.01,-792.4"/>
<text text-anchor="start" x="1624.01" y="-804.6" font-family="Arial" font-size="14.00">session_id </text>
<text text-anchor="start" x="1694.05" y="-804.6" font-family="Arial" font-size="14.00" fill="#666666">[uuid]</text>
<polygon fill="none" stroke="black" points="1617.01,-761.6 1617.01,-792.4 1897.98,-792.4 1897.98,-761.6 1617.01,-761.6"/>
<text text-anchor="start" x="1624.01" y="-773.8" font-family="Arial" font-size="14.00">client_name </text>
<text text-anchor="start" x="1703.39" y="-773.8" font-family="Arial" font-size="14.00" fill="#666666">[varchar(100)]</text>
<polygon fill="none" stroke="black" points="1617.01,-730.8 1617.01,-761.6 1897.98,-761.6 1897.98,-730.8 1617.01,-730.8"/>
<text text-anchor="start" x="1624.01" y="-743" font-family="Arial" font-size="14.00">client_version </text>
<text text-anchor="start" x="1713.5" y="-743" font-family="Arial" font-size="14.00" fill="#666666">[varchar(50)]</text>
<polygon fill="none" stroke="black" points="1617.01,-700 1617.01,-730.8 1897.98,-730.8 1897.98,-700 1617.01,-700"/>
<text text-anchor="start" x="1624.01" y="-712.2" font-family="Arial" font-size="14.00">event_type </text>
<text text-anchor="start" x="1696.4" y="-712.2" font-family="Arial" font-size="14.00" fill="#666666">[varchar(100)]</text>
<polygon fill="none" stroke="black" points="1617.01,-669.2 1617.01,-700 1897.98,-700 1897.98,-669.2 1617.01,-669.2"/>
<text text-anchor="start" x="1624.01" y="-681.4" font-family="Arial" font-size="14.00">event_category </text>
<text text-anchor="start" x="1723.63" y="-681.4" font-family="Arial" font-size="14.00" fill="#666666">[varchar(50)]</text>
<polygon fill="none" stroke="black" points="1617.01,-638.4 1617.01,-669.2 1897.98,-669.2 1897.98,-638.4 1617.01,-638.4"/>
<text text-anchor="start" x="1624.01" y="-650.6" font-family="Arial" font-size="14.00">content </text>
<text text-anchor="start" x="1673.83" y="-650.6" font-family="Arial" font-size="14.00" fill="#666666">[text]</text>
<polygon fill="none" stroke="black" points="1617.01,-607.6 1617.01,-638.4 1897.98,-638.4 1897.98,-607.6 1617.01,-607.6"/>
<text text-anchor="start" x="1624.01" y="-619.8" font-family="Arial" font-size="14.00">payload </text>
<text text-anchor="start" x="1676.94" y="-619.8" font-family="Arial" font-size="14.00" fill="#666666">[jsonb]</text>
<polygon fill="none" stroke="black" points="1617.01,-576.8 1617.01,-607.6 1897.98,-607.6 1897.98,-576.8 1617.01,-576.8"/>
<text text-anchor="start" x="1624.01" y="-589" font-family="Arial" font-size="14.00">created_at </text>
<text text-anchor="start" x="1694.06" y="-589" font-family="Arial" font-size="14.00" fill="#666666">[timestamp without time zone]</text>
</g>
<!-- public.activity_logs&#45;&gt;public.organizations -->
<g id="edge5" class="edge">
<title>public.activity_logs:org_id&#45;&gt;public.organizations:id</title>
<path fill="none" stroke="black" d="M1605.98,-867.56C1546.5,-844.01 1595.56,-601.26 1617.01,-533.6 1638.07,-467.18 1685.67,-471.54 1706.97,-405.2 1720.18,-364.07 1751.17,-308 1707.97,-308"/>
<polygon fill="black" stroke="black" points="1605.85,-867.54 1614.87,-873.77 1611.09,-868.5 1615.35,-869.28 1615.35,-869.28 1615.35,-869.28 1611.09,-868.5 1616.49,-864.91 1605.85,-867.54"/>
<text text-anchor="start" x="1339.52" y="-853.4" font-family="Arial" font-size="10.00">FOREIGN KEY (org_id) REFERENCES organizations(id) ON DELETE CASCADE</text>
</g>
<!-- public.usage_records -->
<g id="node7" class="node">
<title>public.usage_records</title>
<polygon fill="#efefef" stroke="none" points="2002.03,-915.6 2002.03,-951.2 2292.96,-951.2 2292.96,-915.6 2002.03,-915.6"/>
<polygon fill="none" stroke="black" points="2002.03,-915.6 2002.03,-951.2 2292.96,-951.2 2292.96,-915.6 2002.03,-915.6"/>
<text text-anchor="start" x="2009.03" y="-929" font-family="Arial Bold" font-size="18.00">public.usage_records</text>
<text text-anchor="start" x="2161.47" y="-929" font-family="Arial" font-size="14.00">    </text>
<text text-anchor="start" x="2192.59" y="-929" font-family="Arial" font-size="14.00" fill="#666666">[BASE TABLE]</text>
<polygon fill="none" stroke="black" points="2002.03,-884.8 2002.03,-915.6 2292.96,-915.6 2292.96,-884.8 2002.03,-884.8"/>
<text text-anchor="start" x="2009.03" y="-897" font-family="Arial" font-size="14.00">id </text>
<text text-anchor="start" x="2023.81" y="-897" font-family="Arial" font-size="14.00" fill="#666666">[uuid]</text>
<polygon fill="none" stroke="black" points="2002.03,-854 2002.03,-884.8 2292.96,-884.8 2292.96,-854 2002.03,-854"/>
<text text-anchor="start" x="2009.03" y="-866.2" font-family="Arial" font-size="14.00">org_id </text>
<text text-anchor="start" x="2051.83" y="-866.2" font-family="Arial" font-size="14.00" fill="#666666">[uuid]</text>
<polygon fill="none" stroke="black" points="2002.03,-823.2 2002.03,-854 2292.96,-854 2292.96,-823.2 2002.03,-823.2"/>
<text text-anchor="start" x="2009.03" y="-835.4" font-family="Arial" font-size="14.00">employee_id </text>
<text text-anchor="start" x="2092.3" y="-835.4" font-family="Arial" font-size="14.00" fill="#666666">[uuid]</text>
<polygon fill="none" stroke="black" points="2002.03,-792.4 2002.03,-823.2 2292.96,-823.2 2292.96,-792.4 2002.03,-792.4"/>
<text text-anchor="start" x="2009.03" y="-804.6" font-family="Arial" font-size="14.00">resource_type </text>
<text text-anchor="start" x="2101.63" y="-804.6" font-family="Arial" font-size="14.00" fill="#666666">[varchar(50)]</text>
<polygon fill="none" stroke="black" points="2002.03,-761.6 2002.03,-792.4 2292.96,-792.4 2292.96,-761.6 2002.03,-761.6"/>
<text text-anchor="start" x="2009.03" y="-773.8" font-family="Arial" font-size="14.00">quantity </text>
<text text-anchor="start" x="2061.95" y="-773.8" font-family="Arial" font-size="14.00" fill="#666666">[bigint]</text>
<polygon fill="none" stroke="black" points="2002.03,-730.8 2002.03,-761.6 2292.96,-761.6 2292.96,-730.8 2002.03,-730.8"/>
<text text-anchor="start" x="2009.03" y="-743" font-family="Arial" font-size="14.00">cost_usd </text>
<text text-anchor="start" x="2068.95" y="-743" font-family="Arial" font-size="14.00" fill="#666666">[numeric(10,4)]</text>
<polygon fill="none" stroke="black" points="2002.03,-700 2002.03,-730.8 2292.96,-730.8 2292.96,-700 2002.03,-700"/>
<text text-anchor="start" x="2009.03" y="-712.2" font-family="Arial" font-size="14.00">period_start </text>
<text text-anchor="start" x="2086.85" y="-712.2" font-family="Arial" font-size="14.00" fill="#666666">[timestamp without time zone]</text>
<polygon fill="none" stroke="black" points="2002.03,-669.2 2002.03,-700 2292.96,-700 2292.96,-669.2 2002.03,-669.2"/>
<text text-anchor="start" x="2009.03" y="-681.4" font-family="Arial" font-size="14.00">period_end </text>
<text text-anchor="start" x="2082.98" y="-681.4" font-family="Arial" font-size="14.00" fill="#666666">[timestamp without time zone]</text>
<polygon fill="none" stroke="black" points="2002.03,-638.4 2002.03,-669.2 2292.96,-669.2 2292.96,-638.4 2002.03,-638.4"/>
<text text-anchor="start" x="2009.03" y="-650.6" font-family="Arial" font-size="14.00">metadata </text>
<text text-anchor="start" x="2071.29" y="-650.6" font-family="Arial" font-size="14.00" fill="#666666">[jsonb]</text>
<polygon fill="none" stroke="black" points="2002.03,-607.6 2002.03,-638.4 2292.96,-638.4 2292.96,-607.6 2002.03,-607.6"/>
<text text-anchor="start" x="2009.03" y="-619.8" font-family="Arial" font-size="14.00">token_source </text>
<text text-anchor="start" x="2096.97" y="-619.8" font-family="Arial" font-size="14.00" fill="#666666">[varchar(20)]</text>
<polygon fill="none" stroke="black" points="2002.03,-576.8 2002.03,-607.6 2292.96,-607.6 2292.96,-576.8 2002.03,-576.8"/>
<text text-anchor="start" x="2009.03" y="-589" font-family="Arial" font-size="14.00">created_at </text>
<text text-anchor="start" x="2079.08" y="-589" font-family="Arial" font-size="14.00" fill="#666666">[timestamp without time zone]</text>
</g>
<!-- public.usage_records&#45;&gt;public.organizations -->
<g id="edge6" class="edge">
<title>public.usage_records:org_id&#45;&gt;public.organizations:id</title>
<path fill="none" stroke="black" d="M1991.15,-867.99C1912.34,-843.89 2002.06,-517.71 1950.5,-441.2 1881.77,-339.22 1830.95,-308 1707.97,-308"/>
<polygon fill="black" stroke="black" points="1990.8,-867.94 2000.06,-873.81 1996.08,-868.69 2000.37,-869.31 2000.37,-869.31 2000.37,-869.31 1996.08,-868.69 2001.33,-864.9 1990.8,-867.94"/>
<text text-anchor="start" x="2008.03" y="-879.4" font-family="Arial" font-size="10.00">FOREIGN KEY (org_id) REFERENCES organizations(id) ON DELETE CASCADE</text>
</g>
<!-- public.webhook_destinations -->
<g id="node8" class="node">
<title>public.webhook_destinations</title>
<polygon fill="#efefef" stroke="none" points="2397.02,-1008 2397.02,-1043.6 2745.98,-1043.6 2745.98,-1008 2397.02,-1008"/>
<polygon fill="none" stroke="black" points="2397.02,-1008 2397.02,-1043.6 2745.98,-1043.6 2745.98,-1008 2397.02,-1008"/>
<text text-anchor="start" x="2404.02" y="-1021.4" font-family="Arial Bold" font-size="18.00">public.webhook_destinations</text>
<text text-anchor="start" x="2614.49" y="-1021.4" font-family="Arial" font-size="14.00">    </text>
<text text-anchor="start" x="2645.6" y="-1021.4" font-family="Arial" font-size="14.00" fill="#666666">[BASE TABLE]</text>
<polygon fill="none" stroke="black" points="2397.02,-977.2 2397.02,-1008 2745.98,-1008 2745.98,-977.2 2397.02,-977.2"/>
<text text-anchor="start" x="2404.02" y="-989.4" font-family="Arial" font-size="14.00">id </text>
<text text-anchor="start" x="2418.8" y="-989.4" font-family="Arial" font-size="14.00" fill="#666666">[uuid]</text>
<polygon fill="none" stroke="black" points="2397.02,-946.4 2397.02,-977.2 2745.98,-977.2 2745.98,-946.4 2397.02,-946.4"/>
<text text-anchor="start" x="2404.02" y="-958.6" font-family="Arial" font-size="14.00">org_id </text>
<text text-anchor="start" x="2446.82" y="-958.6" font-family="Arial" font-size="14.00" fill="#666666">[uuid]</text>
<polygon fill="none" stroke="black" points="2397.02,-915.6 2397.02,-946.4 2745.98,-946.4 2745.98,-915.6 2397.02,-915.6"/>
<text text-anchor="start" x="2404.02" y="-927.8" font-family="Arial" font-size="14.00">name </text>
<text text-anchor="start" x="2442.93" y="-927.8" font-family="Arial" font-size="14.00" fill="#666666">[varchar(100)]</text>
<polygon fill="none" stroke="black" points="2397.02,-884.8 2397.02,-915.6 2745.98,-915.6 2745.98,-884.8 2397.02,-884.8"/>
<text text-anchor="start" x="2404.02" y="-897" font-family="Arial" font-size="14.00">url </text>
<text text-anchor="start" x="2423.46" y="-897" font-family="Arial" font-size="14.00" fill="#666666">[text]</text>
<polygon fill="none" stroke="black" points="2397.02,-854 2397.02,-884.8 2745.98,-884.8 2745.98,-854 2397.02,-854"/>
<text text-anchor="start" x="2404.02" y="-866.2" font-family="Arial" font-size="14.00">auth_type </text>
<text text-anchor="start" x="2469.4" y="-866.2" font-family="Arial" font-size="14.00" fill="#666666">[varchar(50)]</text>
<polygon fill="none" stroke="black" points="2397.02,-823.2 2397.02,-854 2745.98,-854 2745.98,-823.2 2397.02,-823.2"/>
<text text-anchor="start" x="2404.02" y="-835.4" font-family="Arial" font-size="14.00">auth_config </text>
<text text-anchor="start" x="2480.3" y="-835.4" font-family="Arial" font-size="14.00" fill="#666666">[jsonb]</text>
<polygon fill="none" stroke="black" points="2397.02,-792.4 2397.02,-823.2 2745.98,-823.2 2745.98,-792.4 2397.02,-792.4"/>
<text text-anchor="start" x="2404.02" y="-804.6" font-family="Arial" font-size="14.00">event_types </text>
<text text-anchor="start" x="2483.4" y="-804.6" font-family="Arial" font-size="14.00" fill="#666666">[text[]]</text>
<polygon fill="none" stroke="black" points="2397.02,-761.6 2397.02,-792.4 2745.98,-792.4 2745.98,-761.6 2397.02,-761.6"/>
<text text-anchor="start" x="2404.02" y="-773.8" font-family="Arial" font-size="14.00">event_filter </text>
<text text-anchor="start" x="2476.39" y="-773.8" font-family="Arial" font-size="14.00" fill="#666666">[jsonb]</text>
<polygon fill="none" stroke="black" points="2397.02,-730.8 2397.02,-761.6 2745.98,-761.6 2745.98,-730.8 2397.02,-730.8"/>
<text text-anchor="start" x="2404.02" y="-743" font-family="Arial" font-size="14.00">enabled </text>
<text text-anchor="start" x="2457.73" y="-743" font-family="Arial" font-size="14.00" fill="#666666">[boolean]</text>
<polygon fill="none" stroke="black" points="2397.02,-700 2397.02,-730.8 2745.98,-730.8 2745.98,-700 2397.02,-700"/>
<text text-anchor="start" x="2404.02" y="-712.2" font-family="Arial" font-size="14.00">batch_size </text>
<text text-anchor="start" x="2474.84" y="-712.2" font-family="Arial" font-size="14.00" fill="#666666">[integer]</text>
<polygon fill="none" stroke="black" points="2397.02,-669.2 2397.02,-700 2745.98,-700 2745.98,-669.2 2397.02,-669.2"/>
<text text-anchor="start" x="2404.02" y="-681.4" font-family="Arial" font-size="14.00">timeout_ms </text>
<text text-anchor="start" x="2480.26" y="-681.4" font-family="Arial" font-size="14.00" fill="#666666">[integer]</text>
<polygon fill="none" stroke="black" points="2397.02,-638.4 2397.02,-669.2 2745.98,-669.2 2745.98,-638.4 2397.02,-638.4"/>
<text text-anchor="start" x="2404.02" y="-650.6" font-family="Arial" font-size="14.00">retry_max </text>
<text text-anchor="start" x="2470.14" y="-650.6" font-family="Arial" font-size="14.00" fill="#666666">[integer]</text>
<polygon fill="none" stroke="black" points="2397.02,-607.6 2397.02,-638.4 2745.98,-638.4 2745.98,-607.6 2397.02,-607.6"/>
<text text-anchor="start" x="2404.02" y="-619.8" font-family="Arial" font-size="14.00">retry_backoff_ms </text>
<text text-anchor="start" x="2515.28" y="-619.8" font-family="Arial" font-size="14.00" fill="#666666">[integer]</text>
<polygon fill="none" stroke="black" points="2397.02,-576.8 2397.02,-607.6 2745.98,-607.6 2745.98,-576.8 2397.02,-576.8"/>
<text text-anchor="start" x="2404.02" y="-589" font-family="Arial" font-size="14.00">signing_secret </text>
<text text-anchor="start" x="2498.18" y="-589" font-family="Arial" font-size="14.00" fill="#666666">[varchar(255)]</text>
<polygon fill="none" stroke="black" points="2397.02,-546 2397.02,-576.8 2745.98,-576.8 2745.98,-546 2397.02,-546"/>
<text text-anchor="start" x="2404.02" y="-558.2" font-family="Arial" font-size="14.00">created_by </text>
<text text-anchor="start" x="2477.17" y="-558.2" font-family="Arial" font-size="14.00" fill="#666666">[uuid]</text>
<polygon fill="none" stroke="black" points="2397.02,-515.2 2397.02,-546 2745.98,-546 2745.98,-515.2 2397.02,-515.2"/>
<text text-anchor="start" x="2404.02" y="-527.4" font-family="Arial" font-size="14.00">created_at </text>
<text text-anchor="start" x="2474.06" y="-527.4" font-family="Arial" font-size="14.00" fill="#666666">[timestamp without time zone]</text>
<polygon fill="none" stroke="black" points="2397.02,-484.4 2397.02,-515.2 2745.98,-515.2 2745.98,-484.4 2397.02,-484.4"/>
<text text-anchor="start" x="2404.02" y="-496.6" font-family="Arial" font-size="14.00">updated_at </text>
<text text-anchor="start" x="2477.97" y="-496.6" font-family="Arial" font-size="14.00" fill="#666666">[timestamp without time zone]</text>
</g>
<!-- public.webhook_destinations&#45;&gt;public.organizations -->
<g id="edge7" class="edge">
<title>public.webhook_destinations:org_id&#45;&gt;public.organizations:id</title>
<path fill="none" stroke="black" d="M2385.86,-960.55C2288.52,-935.01 2420.65,-525.05 2345.5,-441.2 2248.89,-333.43 1852.7,-308 1707.97,-308"/>
<polygon fill="black" stroke="black" points="2385.76,-960.54 2395.13,-966.23 2391.05,-961.19 2395.35,-961.72 2395.35,-961.72 2395.35,-961.72 2391.05,-961.19 2396.23,-957.29 2385.76,-960.54"/>
<text text-anchor="start" x="2025.03" y="-971.8" font-family="Arial" font-size="10.00">FOREIGN KEY (org_id) REFERENCES organizations(id) ON DELETE CASCADE</text>
</g>
<!-- public.invitations -->
<g id="node9" class="node">
<title>public.invitations</title>
<polygon fill="#efefef" stroke="none" points="2850.82,-946.4 2850.82,-982 3130.17,-982 3130.17,-946.4 2850.82,-946.4"/>
<polygon fill="none" stroke="black" points="2850.82,-946.4 2850.82,-982 3130.17,-982 3130.17,-946.4 2850.82,-946.4"/>
<text text-anchor="start" x="2865.51" y="-959.8" font-family="Arial Bold" font-size="18.00">public.invitations</text>
<text text-anchor="start" x="2991" y="-959.8" font-family="Arial" font-size="14.00">    </text>
<text text-anchor="start" x="3022.11" y="-959.8" font-family="Arial" font-size="14.00" fill="#666666">[BASE TABLE]</text>
<polygon fill="none" stroke="black" points="2850.82,-915.6 2850.82,-946.4 3130.17,-946.4 3130.17,-915.6 2850.82,-915.6"/>
<text text-anchor="start" x="2857.82" y="-927.8" font-family="Arial" font-size="14.00">id </text>
<text text-anchor="start" x="2872.6" y="-927.8" font-family="Arial" font-size="14.00" fill="#666666">[uuid]</text>
<polygon fill="none" stroke="black" points="2850.82,-884.8 2850.82,-915.6 3130.17,-915.6 3130.17,-884.8 2850.82,-884.8"/>
<text text-anchor="start" x="2857.82" y="-897" font-family="Arial" font-size="14.00">org_id </text>
<text text-anchor="start" x="2900.62" y="-897" font-family="Arial" font-size="14.00" fill="#666666">[uuid]</text>
<polygon fill="none" stroke="black" points="2850.82,-854 2850.82,-884.8 3130.17,-884.8 3130.17,-854 2850.82,-854"/>
<text text-anchor="start" x="2857.82" y="-866.2" font-family="Arial" font-size="14.00">inviter_id </text>
<text text-anchor="start" x="2917.73" y="-866.2" font-family="Arial" font-size="14.00" fill="#666666">[uuid]</text>
<polygon fill="none" stroke="black" points="2850.82,-823.2 2850.82,-854 3130.17,-854 3130.17,-823.2 2850.82,-823.2"/>
<text text-anchor="start" x="2857.82" y="-835.4" font-family="Arial" font-size="14.00">email </text>
<text text-anchor="start" x="2895.16" y="-835.4" font-family="Arial" font-size="14.00" fill="#666666">[varchar(255)]</text>
<polygon fill="none" stroke="black" points="2850.82,-792.4 2850.82,-823.2 3130.17,-823.2 3130.17,-792.4 2850.82,-792.4"/>
<text text-anchor="start" x="2857.82" y="-804.6" font-family="Arial" font-size="14.00">role_id </text>
<text text-anchor="start" x="2903.73" y="-804.6" font-family="Arial" font-size="14.00" fill="#666666">[uuid]</text>
<polygon fill="none" stroke="black" points="2850.82,-761.6 2850.82,-792.4 3130.17,-792.4 3130.17,-761.6 2850.82,-761.6"/>
<text text-anchor="start" x="2857.82" y="-773.8" font-family="Arial" font-size="14.00">team_id </text>
<text text-anchor="start" x="2911.51" y="-773.8" font-family="Arial" font-size="14.00" fill="#666666">[uuid]</text>
<polygon fill="none" stroke="black" points="2850.82,-730.8 2850.82,-761.6 3130.17,-761.6 3130.17,-730.8 2850.82,-730.8"/>
<text text-anchor="start" x="2857.82" y="-743" font-family="Arial" font-size="14.00">token </text>
<text text-anchor="start" x="2895.95" y="-743" font-family="Arial" font-size="14.00" fill="#666666">[varchar(64)]</text>
<polygon fill="none" stroke="black" points="2850.82,-700 2850.82,-730.8 3130.17,-730.8 3130.17,-700 2850.82,-700"/>
<text text-anchor="start" x="2857.82" y="-712.2" font-family="Arial" font-size="14.00">status </text>
<text text-anchor="start" x="2899.06" y="-712.2" font-family="Arial" font-size="14.00" fill="#666666">[varchar(50)]</text>
<polygon fill="none" stroke="black" points="2850.82,-669.2 2850.82,-700 3130.17,-700 3130.17,-669.2 2850.82,-669.2"/>
<text text-anchor="start" x="2857.82" y="-681.4" font-family="Arial" font-size="14.00">expires_at </text>
<text text-anchor="start" x="2926.3" y="-681.4" font-family="Arial" font-size="14.00" fill="#666666">[timestamp without time zone]</text>
<polygon fill="none" stroke="black" points="2850.82,-638.4 2850.82,-669.2 3130.17,-669.2 3130.17,-638.4 2850.82,-638.4"/>
<text text-anchor="start" x="2857.82" y="-650.6" font-family="Arial" font-size="14.00">accepted_by </text>
<text text-anchor="start" x="2941.1" y="-650.6" font-family="Arial" font-size="14.00" fill="#666666">[uuid]</text>
<polygon fill="none" stroke="black" points="2850.82,-607.6 2850.82,-638.4 3130.17,-638.4 3130.17,-607.6 2850.82,-607.6"/>
<text text-anchor="start" x="2857.82" y="-619.8" font-family="Arial" font-size="14.00">accepted_at </text>
<text text-anchor="start" x="2937.99" y="-619.8" font-family="Arial" font-size="14.00" fill="#666666">[timestamp without time zone]</text>
<polygon fill="none" stroke="black" points="2850.82,-576.8 2850.82,-607.6 3130.17,-607.6 3130.17,-576.8 2850.82,-576.8"/>
<text text-anchor="start" x="2857.82" y="-589" font-family="Arial" font-size="14.00">created_at </text>
<text text-anchor="start" x="2927.87" y="-589" font-family="Arial" font-size="14.00" fill="#666666">[timestamp without time zone]</text>
<polygon fill="none" stroke="black" points="2850.82,-546 2850.82,-576.8 3130.17,-576.8 3130.17,-546 2850.82,-546"/>
<text text-anchor="start" x="2857.82" y="-558.2" font-family="Arial" font-size="14.00">updated_at </text>
<text text-anchor="start" x="2931.78" y="-558.2" font-family="Arial" font-size="14.00" fill="#666666">[timestamp without time zone]</text>
</g>
<!-- public.invitations&#45;&gt;public.organizations -->
<g id="edge8" class="edge">
<title>public.invitations:org_id&#45;&gt;public.organizations:id</title>
<path fill="none" stroke="black" d="M2839.56,-898.72C2755.85,-872.71 2868.09,-511.51 2798.5,-441.2 2712.62,-354.44 1830.04,-308 1707.97,-308"/>
<polygon fill="black" stroke="black" points="2839.59,-898.73 2848.84,-904.61 2844.87,-899.49 2849.16,-900.1 2849.16,-900.1 2849.16,-900.1 2844.87,-899.49 2850.13,-895.7 2839.59,-898.73"/>
<text text-anchor="start" x="2856.82" y="-910.2" font-family="Arial" font-size="10.00">FOREIGN KEY (org_id) REFERENCES organizations(id) ON DELETE CASCADE</text>
</g>
</g>
</svg>
