<?xml version="1.0" encoding="UTF-8" standalone="no"?>
<!DOCTYPE svg PUBLIC "-//W3C//DTD SVG 1.1//EN"
 "http://www.w3.org/Graphics/SVG/1.1/DTD/svg11.dtd">
<!-- Generated by graphviz version 12.1.2 (20240928.0832)
 -->
<!-- Title: public.organizations Pages: 1 -->
<svg width="2002pt" height="910pt"
 viewBox="0.00 0.00 2002.02 910.00" xmlns="http://www.w3.org/2000/svg" xmlns:xlink="http://www.w3.org/1999/xlink">
<g id="graph0" class="graph" transform="scale(1 1) rotate(0) translate(4 906)">
<title>public.organizations</title>
<polygon fill="white" stroke="none" points="-4,4 -4,-906 1998.02,-906 1998.02,4 -4,4"/>
<!-- public.organizations -->
<g id="node1" class="node">
<title>public.organizations</title>
<polygon fill="#efefef" stroke="none" points="844.02,-323.4 844.02,-359 1128.97,-359 1128.97,-323.4 844.02,-323.4"/>
<polygon fill="none" stroke="black" points="844.02,-323.4 844.02,-359 1128.97,-359 1128.97,-323.4 844.02,-323.4"/>
<text text-anchor="start" x="851.02" y="-336.8" font-family="Arial Bold" font-size="18.00">public.organizations</text>
<text text-anchor="start" x="997.48" y="-336.8" font-family="Arial" font-size="14.00">    </text>
<text text-anchor="start" x="1028.6" y="-336.8" font-family="Arial" font-size="14.00" fill="#666666">[BASE TABLE]</text>
<polygon fill="none" stroke="black" points="844.02,-292.6 844.02,-323.4 1128.97,-323.4 1128.97,-292.6 844.02,-292.6"/>
<text text-anchor="start" x="851.02" y="-304.8" font-family="Arial" font-size="14.00">id </text>
<text text-anchor="start" x="865.81" y="-304.8" font-family="Arial" font-size="14.00" fill="#666666">[uuid]</text>
<polygon fill="none" stroke="black" points="844.02,-261.8 844.02,-292.6 1128.97,-292.6 1128.97,-261.8 844.02,-261.8"/>
<text text-anchor="start" x="851.02" y="-274" font-family="Arial" font-size="14.00">name </text>
<text text-anchor="start" x="889.93" y="-274" font-family="Arial" font-size="14.00" fill="#666666">[varchar(255)]</text>
<polygon fill="none" stroke="black" points="844.02,-231 844.02,-261.8 1128.97,-261.8 1128.97,-231 844.02,-231"/>
<text text-anchor="start" x="851.02" y="-243.2" font-family="Arial" font-size="14.00">slug </text>
<text text-anchor="start" x="880.59" y="-243.2" font-family="Arial" font-size="14.00" fill="#666666">[varchar(100)]</text>
<polygon fill="none" stroke="black" points="844.02,-200.2 844.02,-231 1128.97,-231 1128.97,-200.2 844.02,-200.2"/>
<text text-anchor="start" x="851.02" y="-212.4" font-family="Arial" font-size="14.00">plan </text>
<text text-anchor="start" x="881.38" y="-212.4" font-family="Arial" font-size="14.00" fill="#666666">[varchar(50)]</text>
<polygon fill="none" stroke="black" points="844.02,-169.4 844.02,-200.2 1128.97,-200.2 1128.97,-169.4 844.02,-169.4"/>
<text text-anchor="start" x="851.02" y="-181.6" font-family="Arial" font-size="14.00">settings </text>
<text text-anchor="start" x="903.16" y="-181.6" font-family="Arial" font-size="14.00" fill="#666666">[jsonb]</text>
<polygon fill="none" stroke="black" points="844.02,-138.6 844.02,-169.4 1128.97,-169.4 1128.97,-138.6 844.02,-138.6"/>
<text text-anchor="start" x="851.02" y="-150.8" font-family="Arial" font-size="14.00">max_employees </text>
<text text-anchor="start" x="956.85" y="-150.8" font-family="Arial" font-size="14.00" fill="#666666">[integer]</text>
<polygon fill="none" stroke="black" points="844.02,-107.8 844.02,-138.6 1128.97,-138.6 1128.97,-107.8 844.02,-107.8"/>
<text text-anchor="start" x="851.02" y="-120" font-family="Arial" font-size="14.00">max_agents_per_employee </text>
<text text-anchor="start" x="1027.69" y="-120" font-family="Arial" font-size="14.00" fill="#666666">[integer]</text>
<polygon fill="none" stroke="black" points="844.02,-77 844.02,-107.8 1128.97,-107.8 1128.97,-77 844.02,-77"/>
<text text-anchor="start" x="851.02" y="-89.2" font-family="Arial" font-size="14.00">created_at </text>
<text text-anchor="start" x="921.07" y="-89.2" font-family="Arial" font-size="14.00" fill="#666666">[timestamp without time zone]</text>
<polygon fill="none" stroke="black" points="844.02,-46.2 844.02,-77 1128.97,-77 1128.97,-46.2 844.02,-46.2"/>
<text text-anchor="start" x="851.02" y="-58.4" font-family="Arial" font-size="14.00">updated_at </text>
<text text-anchor="start" x="924.98" y="-58.4" font-family="Arial" font-size="14.00" fill="#666666">[timestamp without time zone]</text>
<polygon fill="none" stroke="black" stroke-width="3" points="842.52,-44.7 842.52,-360.5 1130.47,-360.5 1130.47,-44.7 842.52,-44.7"/>
</g>
<!-- public.subscriptions -->
<g id="node2" class="node">
<title>public.subscriptions</title>
<polygon fill="#efefef" stroke="none" points="43.2,-807.8 43.2,-843.4 363.79,-843.4 363.79,-807.8 43.2,-807.8"/>
<polygon fill="none" stroke="black" points="43.2,-807.8 43.2,-843.4 363.79,-843.4 363.79,-807.8 43.2,-807.8"/>
<text text-anchor="start" x="69.01" y="-821.2" font-family="Arial Bold" font-size="18.00">public.subscriptions</text>
<text text-anchor="start" x="213.5" y="-821.2" font-family="Arial" font-size="14.00">    </text>
<text text-anchor="start" x="244.61" y="-821.2" font-family="Arial" font-size="14.00" fill="#666666">[BASE TABLE]</text>
<polygon fill="none" stroke="black" points="43.2,-777 43.2,-807.8 363.79,-807.8 363.79,-777 43.2,-777"/>
<text text-anchor="start" x="50.2" y="-789.2" font-family="Arial" font-size="14.00">id </text>
<text text-anchor="start" x="64.99" y="-789.2" font-family="Arial" font-size="14.00" fill="#666666">[uuid]</text>
<polygon fill="none" stroke="black" points="43.2,-746.2 43.2,-777 363.79,-777 363.79,-746.2 43.2,-746.2"/>
<text text-anchor="start" x="50.2" y="-758.4" font-family="Arial" font-size="14.00">org_id </text>
<text text-anchor="start" x="93.01" y="-758.4" font-family="Arial" font-size="14.00" fill="#666666">[uuid]</text>
<polygon fill="none" stroke="black" points="43.2,-715.4 43.2,-746.2 363.79,-746.2 363.79,-715.4 43.2,-715.4"/>
<text text-anchor="start" x="50.2" y="-727.6" font-family="Arial" font-size="14.00">plan_type </text>
<text text-anchor="start" x="114.81" y="-727.6" font-family="Arial" font-size="14.00" fill="#666666">[varchar(50)]</text>
<polygon fill="none" stroke="black" points="43.2,-684.6 43.2,-715.4 363.79,-715.4 363.79,-684.6 43.2,-684.6"/>
<text text-anchor="start" x="50.2" y="-696.8" font-family="Arial" font-size="14.00">monthly_budget_usd </text>
<text text-anchor="start" x="184.08" y="-696.8" font-family="Arial" font-size="14.00" fill="#666666">[numeric(10,2)]</text>
<polygon fill="none" stroke="black" points="43.2,-653.8 43.2,-684.6 363.79,-684.6 363.79,-653.8 43.2,-653.8"/>
<text text-anchor="start" x="50.2" y="-666" font-family="Arial" font-size="14.00">current_spending_usd </text>
<text text-anchor="start" x="192.63" y="-666" font-family="Arial" font-size="14.00" fill="#666666">[numeric(10,2)]</text>
<polygon fill="none" stroke="black" points="43.2,-623 43.2,-653.8 363.79,-653.8 363.79,-623 43.2,-623"/>
<text text-anchor="start" x="50.2" y="-635.2" font-family="Arial" font-size="14.00">billing_period_start </text>
<text text-anchor="start" x="171.61" y="-635.2" font-family="Arial" font-size="14.00" fill="#666666">[timestamp without time zone]</text>
<polygon fill="none" stroke="black" points="43.2,-592.2 43.2,-623 363.79,-623 363.79,-592.2 43.2,-592.2"/>
<text text-anchor="start" x="50.2" y="-604.4" font-family="Arial" font-size="14.00">billing_period_end </text>
<text text-anchor="start" x="167.74" y="-604.4" font-family="Arial" font-size="14.00" fill="#666666">[timestamp without time zone]</text>
<polygon fill="none" stroke="black" points="43.2,-561.4 43.2,-592.2 363.79,-592.2 363.79,-561.4 43.2,-561.4"/>
<text text-anchor="start" x="50.2" y="-573.6" font-family="Arial" font-size="14.00">status </text>
<text text-anchor="start" x="91.44" y="-573.6" font-family="Arial" font-size="14.00" fill="#666666">[varchar(50)]</text>
<polygon fill="none" stroke="black" points="43.2,-530.6 43.2,-561.4 363.79,-561.4 363.79,-530.6 43.2,-530.6"/>
<text text-anchor="start" x="50.2" y="-542.8" font-family="Arial" font-size="14.00">created_at </text>
<text text-anchor="start" x="120.25" y="-542.8" font-family="Arial" font-size="14.00" fill="#666666">[timestamp without time zone]</text>
<polygon fill="none" stroke="black" points="43.2,-499.8 43.2,-530.6 363.79,-530.6 363.79,-499.8 43.2,-499.8"/>
<text text-anchor="start" x="50.2" y="-512" font-family="Arial" font-size="14.00">updated_at </text>
<text text-anchor="start" x="124.16" y="-512" font-family="Arial" font-size="14.00" fill="#666666">[timestamp without time zone]</text>
</g>
<!-- public.subscriptions&#45;&gt;public.organizations -->
<g id="edge1" class="edge">
<title>public.subscriptions:org_id&#45;&gt;public.organizations:id</title>
<path fill="none" stroke="black" d="M374.72,-759.61C430.22,-735.14 370.75,-492.96 415.5,-441.2 480.58,-365.92 743.51,-308 843.02,-308"/>
<polygon fill="black" stroke="black" points="374.92,-759.56 364.23,-757.12 369.69,-760.62 365.45,-761.47 365.45,-761.47 365.45,-761.47 369.69,-760.62 366.01,-765.95 374.92,-759.56"/>
<text text-anchor="start" x="182.8" y="-745.6" font-family="Arial" font-size="10.00">FOREIGN KEY (org_id) REFERENCES organizations(id) ON DELETE CASCADE</text>
</g>
<!-- public.teams -->
<g id="node3" class="node">
<title>public.teams</title>
<polygon fill="#efefef" stroke="none" points="467.92,-746.2 467.92,-781.8 741.07,-781.8 741.07,-746.2 467.92,-746.2"/>
<polygon fill="none" stroke="black" points="467.92,-746.2 467.92,-781.8 741.07,-781.8 741.07,-746.2 467.92,-746.2"/>
<text text-anchor="start" x="496.51" y="-759.6" font-family="Arial Bold" font-size="18.00">public.teams</text>
<text text-anchor="start" x="587.99" y="-759.6" font-family="Arial" font-size="14.00">    </text>
<text text-anchor="start" x="619.11" y="-759.6" font-family="Arial" font-size="14.00" fill="#666666">[BASE TABLE]</text>
<polygon fill="none" stroke="black" points="467.92,-715.4 467.92,-746.2 741.07,-746.2 741.07,-715.4 467.92,-715.4"/>
<text text-anchor="start" x="474.92" y="-727.6" font-family="Arial" font-size="14.00">id </text>
<text text-anchor="start" x="489.71" y="-727.6" font-family="Arial" font-size="14.00" fill="#666666">[uuid]</text>
<polygon fill="none" stroke="black" points="467.92,-684.6 467.92,-715.4 741.07,-715.4 741.07,-684.6 467.92,-684.6"/>
<text text-anchor="start" x="474.92" y="-696.8" font-family="Arial" font-size="14.00">org_id </text>
<text text-anchor="start" x="517.73" y="-696.8" font-family="Arial" font-size="14.00" fill="#666666">[uuid]</text>
<polygon fill="none" stroke="black" points="467.92,-653.8 467.92,-684.6 741.07,-684.6 741.07,-653.8 467.92,-653.8"/>
<text text-anchor="start" x="474.92" y="-666" font-family="Arial" font-size="14.00">name </text>
<text text-anchor="start" x="513.83" y="-666" font-family="Arial" font-size="14.00" fill="#666666">[varchar(255)]</text>
<polygon fill="none" stroke="black" points="467.92,-623 467.92,-653.8 741.07,-653.8 741.07,-623 467.92,-623"/>
<text text-anchor="start" x="474.92" y="-635.2" font-family="Arial" font-size="14.00">description </text>
<text text-anchor="start" x="546.52" y="-635.2" font-family="Arial" font-size="14.00" fill="#666666">[text]</text>
<polygon fill="none" stroke="black" points="467.92,-592.2 467.92,-623 741.07,-623 741.07,-592.2 467.92,-592.2"/>
<text text-anchor="start" x="474.92" y="-604.4" font-family="Arial" font-size="14.00">created_at </text>
<text text-anchor="start" x="544.97" y="-604.4" font-family="Arial" font-size="14.00" fill="#666666">[timestamp without time zone]</text>
<polygon fill="none" stroke="black" points="467.92,-561.4 467.92,-592.2 741.07,-592.2 741.07,-561.4 467.92,-561.4"/>
<text text-anchor="start" x="474.92" y="-573.6" font-family="Arial" font-size="14.00">updated_at </text>
<text text-anchor="start" x="548.88" y="-573.6" font-family="Arial" font-size="14.00" fill="#666666">[timestamp without time zone]</text>
</g>
<!-- public.teams&#45;&gt;public.organizations -->
<g id="edge2" class="edge">
<title>public.teams:org_id&#45;&gt;public.organizations:id</title>
<path fill="none" stroke="black" d="M752.13,-697.71C797.96,-675.27 778.51,-494.09 793.5,-441.2 810.71,-380.43 779.86,-308 843.02,-308"/>
<polygon fill="black" stroke="black" points="752.15,-697.71 741.4,-695.54 746.94,-698.89 742.72,-699.85 742.72,-699.85 742.72,-699.85 746.94,-698.89 743.39,-704.31 752.15,-697.71"/>
<text text-anchor="start" x="749.07" y="-710" font-family="Arial" font-size="10.00">FOREIGN KEY (org_id) REFERENCES organizations(id) ON DELETE CASCADE</text>
</g>
<!-- public.employees -->
<g id="node4" class="node">
<title>public.employees</title>
<polygon fill="#efefef" stroke="none" points="845.65,-823.2 845.65,-858.8 1127.34,-858.8 1127.34,-823.2 845.65,-823.2"/>
<polygon fill="none" stroke="black" points="845.65,-823.2 845.65,-858.8 1127.34,-858.8 1127.34,-823.2 845.65,-823.2"/>
<text text-anchor="start" x="861.02" y="-836.6" font-family="Arial Bold" font-size="18.00">public.employees</text>
<text text-anchor="start" x="987.48" y="-836.6" font-family="Arial" font-size="14.00">    </text>
<text text-anchor="start" x="1018.6" y="-836.6" font-family="Arial" font-size="14.00" fill="#666666">[BASE TABLE]</text>
<polygon fill="none" stroke="black" points="845.65,-792.4 845.65,-823.2 1127.34,-823.2 1127.34,-792.4 845.65,-792.4"/>
<text text-anchor="start" x="852.65" y="-804.6" font-family="Arial" font-size="14.00">id </text>
<text text-anchor="start" x="867.44" y="-804.6" font-family="Arial" font-size="14.00" fill="#666666">[uuid]</text>
<polygon fill="none" stroke="black" points="845.65,-761.6 845.65,-792.4 1127.34,-792.4 1127.34,-761.6 845.65,-761.6"/>
<text text-anchor="start" x="852.65" y="-773.8" font-family="Arial" font-size="14.00">org_id </text>
<text text-anchor="start" x="895.46" y="-773.8" font-family="Arial" font-size="14.00" fill="#666666">[uuid]</text>
<polygon fill="none" stroke="black" points="845.65,-730.8 845.65,-761.6 1127.34,-761.6 1127.34,-730.8 845.65,-730.8"/>
<text text-anchor="start" x="852.65" y="-743" font-family="Arial" font-size="14.00">team_id </text>
<text text-anchor="start" x="906.35" y="-743" font-family="Arial" font-size="14.00" fill="#666666">[uuid]</text>
<polygon fill="none" stroke="black" points="845.65,-700 845.65,-730.8 1127.34,-730.8 1127.34,-700 845.65,-700"/>
<text text-anchor="start" x="852.65" y="-712.2" font-family="Arial" font-size="14.00">role_id </text>
<text text-anchor="start" x="898.57" y="-712.2" font-family="Arial" font-size="14.00" fill="#666666">[uuid]</text>
<polygon fill="none" stroke="black" points="845.65,-669.2 845.65,-700 1127.34,-700 1127.34,-669.2 845.65,-669.2"/>
<text text-anchor="start" x="852.65" y="-681.4" font-family="Arial" font-size="14.00">email </text>
<text text-anchor="start" x="890" y="-681.4" font-family="Arial" font-size="14.00" fill="#666666">[varchar(255)]</text>
<polygon fill="none" stroke="black" points="845.65,-638.4 845.65,-669.2 1127.34,-669.2 1127.34,-638.4 845.65,-638.4"/>
<text text-anchor="start" x="852.65" y="-650.6" font-family="Arial" font-size="14.00">full_name </text>
<text text-anchor="start" x="917.24" y="-650.6" font-family="Arial" font-size="14.00" fill="#666666">[varchar(255)]</text>
<polygon fill="none" stroke="black" points="845.65,-607.6 845.65,-638.4 1127.34,-638.4 1127.34,-607.6 845.65,-607.6"/>
<text text-anchor="start" x="852.65" y="-619.8" font-family="Arial" font-size="14.00">status </text>
<text text-anchor="start" x="893.89" y="-619.8" font-family="Arial" font-size="14.00" fill="#666666">[varchar(50)]</text>
<polygon fill="none" stroke="black" points="845.65,-576.8 845.65,-607.6 1127.34,-607.6 1127.34,-576.8 845.65,-576.8"/>
<text text-anchor="start" x="852.65" y="-589" font-family="Arial" font-size="14.00">preferences </text>
<text text-anchor="start" x="930.47" y="-589" font-family="Arial" font-size="14.00" fill="#666666">[jsonb]</text>
<polygon fill="none" stroke="black" points="845.65,-546 845.65,-576.8 1127.34,-576.8 1127.34,-546 845.65,-546"/>
<text text-anchor="start" x="852.65" y="-558.2" font-family="Arial" font-size="14.00">last_login_at </text>
<text text-anchor="start" x="935.15" y="-558.2" font-family="Arial" font-size="14.00" fill="#666666">[timestamp without time zone]</text>
<polygon fill="none" stroke="black" points="845.65,-515.2 845.65,-546 1127.34,-546 1127.34,-515.2 845.65,-515.2"/>
<text text-anchor="start" x="852.65" y="-527.4" font-family="Arial" font-size="14.00">created_at </text>
<text text-anchor="start" x="922.7" y="-527.4" font-family="Arial" font-size="14.00" fill="#666666">[timestamp without time zone]</text>
<polygon fill="none" stroke="black" points="845.65,-484.4 845.65,-515.2 1127.34,-515.2 1127.34,-484.4 845.65,-484.4"/>
<text text-anchor="start" x="852.65" y="-496.6" font-family="Arial" font-size="14.00">updated_at </text>
<text text-anchor="start" x="926.61" y="-496.6" font-family="Arial" font-size="14.00" fill="#666666">[timestamp without time zone]</text>
</g>
<!-- public.employees&#45;&gt;public.organizations -->
<g id="edge3" class="edge">
<title>public.employees:org_id&#45;&gt;public.organizations:id</title>
<path fill="none" stroke="black" d="M1137.25,-772.05C1180.45,-721.93 1178.93,-308 1129.97,-308"/>
<polygon fill="black" stroke="black" points="1137.37,-771.98 1126.45,-772.9 1132.71,-774.57 1128.92,-776.68 1128.92,-776.68 1128.92,-776.68 1132.71,-774.57 1130.82,-780.77 1137.37,-771.98"/>
<text text-anchor="start" x="757.35" y="-787" font-family="Arial" font-size="10.00">FOREIGN KEY (org_id) REFERENCES organizations(id) ON DELETE CASCADE</text>
</g>
<!-- public.activity_logs -->
<g id="node5" class="node">
<title>public.activity_logs</title>
<polygon fill="#efefef" stroke="none" points="1232.01,-761.6 1232.01,-797.2 1512.98,-797.2 1512.98,-761.6 1232.01,-761.6"/>
<polygon fill="none" stroke="black" points="1232.01,-761.6 1232.01,-797.2 1512.98,-797.2 1512.98,-761.6 1232.01,-761.6"/>
<text text-anchor="start" x="1239.01" y="-775" font-family="Arial Bold" font-size="18.00">public.activity_logs</text>
<text text-anchor="start" x="1381.49" y="-775" font-family="Arial" font-size="14.00">    </text>
<text text-anchor="start" x="1412.61" y="-775" font-family="Arial" font-size="14.00" fill="#666666">[BASE TABLE]</text>
<polygon fill="none" stroke="black" points="1232.01,-730.8 1232.01,-761.6 1512.98,-761.6 1512.98,-730.8 1232.01,-730.8"/>
<text text-anchor="start" x="1239.01" y="-743" font-family="Arial" font-size="14.00">id </text>
<text text-anchor="start" x="1253.8" y="-743" font-family="Arial" font-size="14.00" fill="#666666">[uuid]</text>
<polygon fill="none" stroke="black" points="1232.01,-700 1232.01,-730.8 1512.98,-730.8 1512.98,-700 1232.01,-700"/>
<text text-anchor="start" x="1239.01" y="-712.2" font-family="Arial" font-size="14.00">org_id </text>
<text text-anchor="start" x="1281.82" y="-712.2" font-family="Arial" font-size="14.00" fill="#666666">[uuid]</text>
<polygon fill="none" stroke="black" points="1232.01,-669.2 1232.01,-700 1512.98,-700 1512.98,-669.2 1232.01,-669.2"/>
<text text-anchor="start" x="1239.01" y="-681.4" font-family="Arial" font-size="14.00">employee_id </text>
<text text-anchor="start" x="1322.29" y="-681.4" font-family="Arial" font-size="14.00" fill="#666666">[uuid]</text>
<polygon fill="none" stroke="black" points="1232.01,-638.4 1232.01,-669.2 1512.98,-669.2 1512.98,-638.4 1232.01,-638.4"/>
<text text-anchor="start" x="1239.01" y="-650.6" font-family="Arial" font-size="14.00">event_type </text>
<text text-anchor="start" x="1311.4" y="-650.6" font-family="Arial" font-size="14.00" fill="#666666">[varchar(100)]</text>
<polygon fill="none" stroke="black" points="1232.01,-607.6 1232.01,-638.4 1512.98,-638.4 1512.98,-607.6 1232.01,-607.6"/>
<text text-anchor="start" x="1239.01" y="-619.8" font-family="Arial" font-size="14.00">event_category </text>
<text text-anchor="start" x="1338.63" y="-619.8" font-family="Arial" font-size="14.00" fill="#666666">[varchar(50)]</text>
<polygon fill="none" stroke="black" points="1232.01,-576.8 1232.01,-607.6 1512.98,-607.6 1512.98,-576.8 1232.01,-576.8"/>
<text text-anchor="start" x="1239.01" y="-589" font-family="Arial" font-size="14.00">payload </text>
<text text-anchor="start" x="1291.94" y="-589" font-family="Arial" font-size="14.00" fill="#666666">[jsonb]</text>
<polygon fill="none" stroke="black" points="1232.01,-546 1232.01,-576.8 1512.98,-576.8 1512.98,-546 1232.01,-546"/>
<text text-anchor="start" x="1239.01" y="-558.2" font-family="Arial" font-size="14.00">created_at </text>
<text text-anchor="start" x="1309.06" y="-558.2" font-family="Arial" font-size="14.00" fill="#666666">[timestamp without time zone]</text>
</g>
<!-- public.activity_logs&#45;&gt;public.organizations -->
<g id="edge4" class="edge">
<title>public.activity_logs:org_id&#45;&gt;public.organizations:id</title>
<path fill="none" stroke="black" d="M1221,-713.27C1172.03,-690.8 1195.11,-497.44 1179.5,-441.2 1162.6,-380.34 1193.13,-308 1129.97,-308"/>
<polygon fill="black" stroke="black" points="1220.9,-713.24 1229.75,-719.73 1226.12,-714.36 1230.36,-715.26 1230.36,-715.26 1230.36,-715.26 1226.12,-714.36 1231.62,-710.93 1220.9,-713.24"/>
<text text-anchor="start" x="1238.01" y="-725.4" font-family="Arial" font-size="10.00">FOREIGN KEY (org_id) REFERENCES organizations(id) ON DELETE CASCADE</text>
</g>
<!-- public.usage_records -->
<g id="node6" class="node">
<title>public.usage_records</title>
<polygon fill="#efefef" stroke="none" points="1617.03,-823.2 1617.03,-858.8 1907.96,-858.8 1907.96,-823.2 1617.03,-823.2"/>
<polygon fill="none" stroke="black" points="1617.03,-823.2 1617.03,-858.8 1907.96,-858.8 1907.96,-823.2 1617.03,-823.2"/>
<text text-anchor="start" x="1624.03" y="-836.6" font-family="Arial Bold" font-size="18.00">public.usage_records</text>
<text text-anchor="start" x="1776.47" y="-836.6" font-family="Arial" font-size="14.00">    </text>
<text text-anchor="start" x="1807.59" y="-836.6" font-family="Arial" font-size="14.00" fill="#666666">[BASE TABLE]</text>
<polygon fill="none" stroke="black" points="1617.03,-792.4 1617.03,-823.2 1907.96,-823.2 1907.96,-792.4 1617.03,-792.4"/>
<text text-anchor="start" x="1624.03" y="-804.6" font-family="Arial" font-size="14.00">id </text>
<text text-anchor="start" x="1638.81" y="-804.6" font-family="Arial" font-size="14.00" fill="#666666">[uuid]</text>
<polygon fill="none" stroke="black" points="1617.03,-761.6 1617.03,-792.4 1907.96,-792.4 1907.96,-761.6 1617.03,-761.6"/>
<text text-anchor="start" x="1624.03" y="-773.8" font-family="Arial" font-size="14.00">org_id </text>
<text text-anchor="start" x="1666.83" y="-773.8" font-family="Arial" font-size="14.00" fill="#666666">[uuid]</text>
<polygon fill="none" stroke="black" points="1617.03,-730.8 1617.03,-761.6 1907.96,-761.6 1907.96,-730.8 1617.03,-730.8"/>
<text text-anchor="start" x="1624.03" y="-743" font-family="Arial" font-size="14.00">employee_id </text>
<text text-anchor="start" x="1707.3" y="-743" font-family="Arial" font-size="14.00" fill="#666666">[uuid]</text>
<polygon fill="none" stroke="black" points="1617.03,-700 1617.03,-730.8 1907.96,-730.8 1907.96,-700 1617.03,-700"/>
<text text-anchor="start" x="1624.03" y="-712.2" font-family="Arial" font-size="14.00">agent_config_id </text>
<text text-anchor="start" x="1726.78" y="-712.2" font-family="Arial" font-size="14.00" fill="#666666">[uuid]</text>
<polygon fill="none" stroke="black" points="1617.03,-669.2 1617.03,-700 1907.96,-700 1907.96,-669.2 1617.03,-669.2"/>
<text text-anchor="start" x="1624.03" y="-681.4" font-family="Arial" font-size="14.00">resource_type </text>
<text text-anchor="start" x="1716.63" y="-681.4" font-family="Arial" font-size="14.00" fill="#666666">[varchar(50)]</text>
<polygon fill="none" stroke="black" points="1617.03,-638.4 1617.03,-669.2 1907.96,-669.2 1907.96,-638.4 1617.03,-638.4"/>
<text text-anchor="start" x="1624.03" y="-650.6" font-family="Arial" font-size="14.00">quantity </text>
<text text-anchor="start" x="1676.95" y="-650.6" font-family="Arial" font-size="14.00" fill="#666666">[bigint]</text>
<polygon fill="none" stroke="black" points="1617.03,-607.6 1617.03,-638.4 1907.96,-638.4 1907.96,-607.6 1617.03,-607.6"/>
<text text-anchor="start" x="1624.03" y="-619.8" font-family="Arial" font-size="14.00">cost_usd </text>
<text text-anchor="start" x="1683.95" y="-619.8" font-family="Arial" font-size="14.00" fill="#666666">[numeric(10,4)]</text>
<polygon fill="none" stroke="black" points="1617.03,-576.8 1617.03,-607.6 1907.96,-607.6 1907.96,-576.8 1617.03,-576.8"/>
<text text-anchor="start" x="1624.03" y="-589" font-family="Arial" font-size="14.00">period_start </text>
<text text-anchor="start" x="1701.85" y="-589" font-family="Arial" font-size="14.00" fill="#666666">[timestamp without time zone]</text>
<polygon fill="none" stroke="black" points="1617.03,-546 1617.03,-576.8 1907.96,-576.8 1907.96,-546 1617.03,-546"/>
<text text-anchor="start" x="1624.03" y="-558.2" font-family="Arial" font-size="14.00">period_end </text>
<text text-anchor="start" x="1697.98" y="-558.2" font-family="Arial" font-size="14.00" fill="#666666">[timestamp without time zone]</text>
<polygon fill="none" stroke="black" points="1617.03,-515.2 1617.03,-546 1907.96,-546 1907.96,-515.2 1617.03,-515.2"/>
<text text-anchor="start" x="1624.03" y="-527.4" font-family="Arial" font-size="14.00">metadata </text>
<text text-anchor="start" x="1686.29" y="-527.4" font-family="Arial" font-size="14.00" fill="#666666">[jsonb]</text>
<polygon fill="none" stroke="black" points="1617.03,-484.4 1617.03,-515.2 1907.96,-515.2 1907.96,-484.4 1617.03,-484.4"/>
<text text-anchor="start" x="1624.03" y="-496.6" font-family="Arial" font-size="14.00">created_at </text>
<text text-anchor="start" x="1694.08" y="-496.6" font-family="Arial" font-size="14.00" fill="#666666">[timestamp without time zone]</text>
</g>
<!-- public.usage_records&#45;&gt;public.organizations -->
<g id="edge5" class="edge">
<title>public.usage_records:org_id&#45;&gt;public.organizations:id</title>
<path fill="none" stroke="black" d="M1606.01,-775.07C1547.52,-750.32 1612.37,-495.55 1565.5,-441.2 1499.4,-364.56 1231.18,-308 1129.97,-308"/>
<polygon fill="black" stroke="black" points="1605.88,-775.04 1614.85,-781.35 1611.12,-776.05 1615.37,-776.87 1615.37,-776.87 1615.37,-776.87 1611.12,-776.05 1616.55,-772.52 1605.88,-775.04"/>
<text text-anchor="start" x="1623.03" y="-787" font-family="Arial" font-size="10.00">FOREIGN KEY (org_id) REFERENCES organizations(id) ON DELETE CASCADE</text>
</g>
</g>
</svg>
