<?xml version="1.0" encoding="UTF-8" standalone="no"?>
<!DOCTYPE svg PUBLIC "-//W3C//DTD SVG 1.1//EN"
 "http://www.w3.org/Graphics/SVG/1.1/DTD/svg11.dtd">
<!-- Generated by graphviz version 12.1.2 (20240928.0832)
 -->
<!-- Title: public.teams Pages: 1 -->
<svg width="929pt" height="1284pt"
 viewBox="0.00 0.00 928.68 1283.60" xmlns="http://www.w3.org/2000/svg" xmlns:xlink="http://www.w3.org/1999/xlink">
<g id="graph0" class="graph" transform="scale(1 1) rotate(0) translate(4 1279.6)">
<title>public.teams</title>
<polygon fill="white" stroke="none" points="-4,4 -4,-1279.6 924.68,-1279.6 924.68,4 -4,4"/>
<!-- public.teams -->
<g id="node1" class="node">
<title>public.teams</title>
<polygon fill="#efefef" stroke="none" points="268.55,-666.2 268.55,-701.8 541.69,-701.8 541.69,-666.2 268.55,-666.2"/>
<polygon fill="none" stroke="black" points="268.55,-666.2 268.55,-701.8 541.69,-701.8 541.69,-666.2 268.55,-666.2"/>
<text text-anchor="start" x="297.14" y="-679.6" font-family="Arial Bold" font-size="18.00">public.teams</text>
<text text-anchor="start" x="388.61" y="-679.6" font-family="Arial" font-size="14.00">    </text>
<text text-anchor="start" x="419.73" y="-679.6" font-family="Arial" font-size="14.00" fill="#666666">[BASE TABLE]</text>
<polygon fill="none" stroke="black" points="268.55,-635.4 268.55,-666.2 541.69,-666.2 541.69,-635.4 268.55,-635.4"/>
<text text-anchor="start" x="275.55" y="-647.6" font-family="Arial" font-size="14.00">id </text>
<text text-anchor="start" x="290.33" y="-647.6" font-family="Arial" font-size="14.00" fill="#666666">[uuid]</text>
<polygon fill="none" stroke="black" points="268.55,-604.6 268.55,-635.4 541.69,-635.4 541.69,-604.6 268.55,-604.6"/>
<text text-anchor="start" x="275.55" y="-616.8" font-family="Arial" font-size="14.00">org_id </text>
<text text-anchor="start" x="318.36" y="-616.8" font-family="Arial" font-size="14.00" fill="#666666">[uuid]</text>
<polygon fill="none" stroke="black" points="268.55,-573.8 268.55,-604.6 541.69,-604.6 541.69,-573.8 268.55,-573.8"/>
<text text-anchor="start" x="275.55" y="-586" font-family="Arial" font-size="14.00">name </text>
<text text-anchor="start" x="314.46" y="-586" font-family="Arial" font-size="14.00" fill="#666666">[varchar(255)]</text>
<polygon fill="none" stroke="black" points="268.55,-543 268.55,-573.8 541.69,-573.8 541.69,-543 268.55,-543"/>
<text text-anchor="start" x="275.55" y="-555.2" font-family="Arial" font-size="14.00">description </text>
<text text-anchor="start" x="347.14" y="-555.2" font-family="Arial" font-size="14.00" fill="#666666">[text]</text>
<polygon fill="none" stroke="black" points="268.55,-512.2 268.55,-543 541.69,-543 541.69,-512.2 268.55,-512.2"/>
<text text-anchor="start" x="275.55" y="-524.4" font-family="Arial" font-size="14.00">created_at </text>
<text text-anchor="start" x="345.6" y="-524.4" font-family="Arial" font-size="14.00" fill="#666666">[timestamp without time zone]</text>
<polygon fill="none" stroke="black" points="268.55,-481.4 268.55,-512.2 541.69,-512.2 541.69,-481.4 268.55,-481.4"/>
<text text-anchor="start" x="275.55" y="-493.6" font-family="Arial" font-size="14.00">updated_at </text>
<text text-anchor="start" x="349.51" y="-493.6" font-family="Arial" font-size="14.00" fill="#666666">[timestamp without time zone]</text>
<polygon fill="none" stroke="black" stroke-width="3" points="267.05,-479.9 267.05,-703.3 543.19,-703.3 543.19,-479.9 267.05,-479.9"/>
</g>
<!-- public.organizations -->
<g id="node4" class="node">
<title>public.organizations</title>
<polygon fill="#efefef" stroke="none" points="262.65,-320.4 262.65,-356 547.6,-356 547.6,-320.4 262.65,-320.4"/>
<polygon fill="none" stroke="black" points="262.65,-320.4 262.65,-356 547.6,-356 547.6,-320.4 262.65,-320.4"/>
<text text-anchor="start" x="269.65" y="-333.8" font-family="Arial Bold" font-size="18.00">public.organizations</text>
<text text-anchor="start" x="416.11" y="-333.8" font-family="Arial" font-size="14.00">    </text>
<text text-anchor="start" x="447.22" y="-333.8" font-family="Arial" font-size="14.00" fill="#666666">[BASE TABLE]</text>
<polygon fill="none" stroke="black" points="262.65,-289.6 262.65,-320.4 547.6,-320.4 547.6,-289.6 262.65,-289.6"/>
<text text-anchor="start" x="269.65" y="-301.8" font-family="Arial" font-size="14.00">id </text>
<text text-anchor="start" x="284.43" y="-301.8" font-family="Arial" font-size="14.00" fill="#666666">[uuid]</text>
<polygon fill="none" stroke="black" points="262.65,-258.8 262.65,-289.6 547.6,-289.6 547.6,-258.8 262.65,-258.8"/>
<text text-anchor="start" x="269.65" y="-271" font-family="Arial" font-size="14.00">name </text>
<text text-anchor="start" x="308.56" y="-271" font-family="Arial" font-size="14.00" fill="#666666">[varchar(255)]</text>
<polygon fill="none" stroke="black" points="262.65,-228 262.65,-258.8 547.6,-258.8 547.6,-228 262.65,-228"/>
<text text-anchor="start" x="269.65" y="-240.2" font-family="Arial" font-size="14.00">slug </text>
<text text-anchor="start" x="299.22" y="-240.2" font-family="Arial" font-size="14.00" fill="#666666">[varchar(100)]</text>
<polygon fill="none" stroke="black" points="262.65,-197.2 262.65,-228 547.6,-228 547.6,-197.2 262.65,-197.2"/>
<text text-anchor="start" x="269.65" y="-209.4" font-family="Arial" font-size="14.00">plan </text>
<text text-anchor="start" x="300" y="-209.4" font-family="Arial" font-size="14.00" fill="#666666">[varchar(50)]</text>
<polygon fill="none" stroke="black" points="262.65,-166.4 262.65,-197.2 547.6,-197.2 547.6,-166.4 262.65,-166.4"/>
<text text-anchor="start" x="269.65" y="-178.6" font-family="Arial" font-size="14.00">settings </text>
<text text-anchor="start" x="321.78" y="-178.6" font-family="Arial" font-size="14.00" fill="#666666">[jsonb]</text>
<polygon fill="none" stroke="black" points="262.65,-135.6 262.65,-166.4 547.6,-166.4 547.6,-135.6 262.65,-135.6"/>
<text text-anchor="start" x="269.65" y="-147.8" font-family="Arial" font-size="14.00">max_employees </text>
<text text-anchor="start" x="375.47" y="-147.8" font-family="Arial" font-size="14.00" fill="#666666">[integer]</text>
<polygon fill="none" stroke="black" points="262.65,-104.8 262.65,-135.6 547.6,-135.6 547.6,-104.8 262.65,-104.8"/>
<text text-anchor="start" x="269.65" y="-117" font-family="Arial" font-size="14.00">max_agents_per_employee </text>
<text text-anchor="start" x="446.31" y="-117" font-family="Arial" font-size="14.00" fill="#666666">[integer]</text>
<polygon fill="none" stroke="black" points="262.65,-74 262.65,-104.8 547.6,-104.8 547.6,-74 262.65,-74"/>
<text text-anchor="start" x="269.65" y="-86.2" font-family="Arial" font-size="14.00">created_at </text>
<text text-anchor="start" x="339.69" y="-86.2" font-family="Arial" font-size="14.00" fill="#666666">[timestamp without time zone]</text>
<polygon fill="none" stroke="black" points="262.65,-43.2 262.65,-74 547.6,-74 547.6,-43.2 262.65,-43.2"/>
<text text-anchor="start" x="269.65" y="-55.4" font-family="Arial" font-size="14.00">updated_at </text>
<text text-anchor="start" x="343.6" y="-55.4" font-family="Arial" font-size="14.00" fill="#666666">[timestamp without time zone]</text>
</g>
<!-- public.teams&#45;&gt;public.organizations -->
<g id="edge3" class="edge">
<title>public.teams:org_id&#45;&gt;public.organizations:id</title>
<path fill="none" stroke="black" d="M553.1,-619.4C682.92,-604.21 685.06,-305 548.6,-305"/>
<polygon fill="black" stroke="black" points="553.01,-619.41 542.77,-615.49 547.68,-619.71 543.36,-619.96 543.36,-619.96 543.36,-619.96 547.68,-619.71 543.28,-624.47 553.01,-619.41"/>
<text text-anchor="start" x="549.69" y="-630" font-family="Arial" font-size="10.00">FOREIGN KEY (org_id) REFERENCES organizations(id) ON DELETE CASCADE</text>
</g>
<!-- public.employees -->
<g id="node2" class="node">
<title>public.employees</title>
<polygon fill="#efefef" stroke="none" points="70.28,-1196.8 70.28,-1232.4 351.96,-1232.4 351.96,-1196.8 70.28,-1196.8"/>
<polygon fill="none" stroke="black" points="70.28,-1196.8 70.28,-1232.4 351.96,-1232.4 351.96,-1196.8 70.28,-1196.8"/>
<text text-anchor="start" x="85.64" y="-1210.2" font-family="Arial Bold" font-size="18.00">public.employees</text>
<text text-anchor="start" x="212.11" y="-1210.2" font-family="Arial" font-size="14.00">    </text>
<text text-anchor="start" x="243.23" y="-1210.2" font-family="Arial" font-size="14.00" fill="#666666">[BASE TABLE]</text>
<polygon fill="none" stroke="black" points="70.28,-1166 70.28,-1196.8 351.96,-1196.8 351.96,-1166 70.28,-1166"/>
<text text-anchor="start" x="77.28" y="-1178.2" font-family="Arial" font-size="14.00">id </text>
<text text-anchor="start" x="92.06" y="-1178.2" font-family="Arial" font-size="14.00" fill="#666666">[uuid]</text>
<polygon fill="none" stroke="black" points="70.28,-1135.2 70.28,-1166 351.96,-1166 351.96,-1135.2 70.28,-1135.2"/>
<text text-anchor="start" x="77.28" y="-1147.4" font-family="Arial" font-size="14.00">org_id </text>
<text text-anchor="start" x="120.08" y="-1147.4" font-family="Arial" font-size="14.00" fill="#666666">[uuid]</text>
<polygon fill="none" stroke="black" points="70.28,-1104.4 70.28,-1135.2 351.96,-1135.2 351.96,-1104.4 70.28,-1104.4"/>
<text text-anchor="start" x="77.28" y="-1116.6" font-family="Arial" font-size="14.00">team_id </text>
<text text-anchor="start" x="130.97" y="-1116.6" font-family="Arial" font-size="14.00" fill="#666666">[uuid]</text>
<polygon fill="none" stroke="black" points="70.28,-1073.6 70.28,-1104.4 351.96,-1104.4 351.96,-1073.6 70.28,-1073.6"/>
<text text-anchor="start" x="77.28" y="-1085.8" font-family="Arial" font-size="14.00">role_id </text>
<text text-anchor="start" x="123.19" y="-1085.8" font-family="Arial" font-size="14.00" fill="#666666">[uuid]</text>
<polygon fill="none" stroke="black" points="70.28,-1042.8 70.28,-1073.6 351.96,-1073.6 351.96,-1042.8 70.28,-1042.8"/>
<text text-anchor="start" x="77.28" y="-1055" font-family="Arial" font-size="14.00">email </text>
<text text-anchor="start" x="114.62" y="-1055" font-family="Arial" font-size="14.00" fill="#666666">[varchar(255)]</text>
<polygon fill="none" stroke="black" points="70.28,-1012 70.28,-1042.8 351.96,-1042.8 351.96,-1012 70.28,-1012"/>
<text text-anchor="start" x="77.28" y="-1024.2" font-family="Arial" font-size="14.00">full_name </text>
<text text-anchor="start" x="141.87" y="-1024.2" font-family="Arial" font-size="14.00" fill="#666666">[varchar(255)]</text>
<polygon fill="none" stroke="black" points="70.28,-981.2 70.28,-1012 351.96,-1012 351.96,-981.2 70.28,-981.2"/>
<text text-anchor="start" x="77.28" y="-993.4" font-family="Arial" font-size="14.00">password_hash </text>
<text text-anchor="start" x="179.23" y="-993.4" font-family="Arial" font-size="14.00" fill="#666666">[varchar(255)]</text>
<polygon fill="none" stroke="black" points="70.28,-950.4 70.28,-981.2 351.96,-981.2 351.96,-950.4 70.28,-950.4"/>
<text text-anchor="start" x="77.28" y="-962.6" font-family="Arial" font-size="14.00">status </text>
<text text-anchor="start" x="118.52" y="-962.6" font-family="Arial" font-size="14.00" fill="#666666">[varchar(50)]</text>
<polygon fill="none" stroke="black" points="70.28,-919.6 70.28,-950.4 351.96,-950.4 351.96,-919.6 70.28,-919.6"/>
<text text-anchor="start" x="77.28" y="-931.8" font-family="Arial" font-size="14.00">preferences </text>
<text text-anchor="start" x="155.1" y="-931.8" font-family="Arial" font-size="14.00" fill="#666666">[jsonb]</text>
<polygon fill="none" stroke="black" points="70.28,-888.8 70.28,-919.6 351.96,-919.6 351.96,-888.8 70.28,-888.8"/>
<text text-anchor="start" x="77.28" y="-901" font-family="Arial" font-size="14.00">last_login_at </text>
<text text-anchor="start" x="159.78" y="-901" font-family="Arial" font-size="14.00" fill="#666666">[timestamp without time zone]</text>
<polygon fill="none" stroke="black" points="70.28,-858 70.28,-888.8 351.96,-888.8 351.96,-858 70.28,-858"/>
<text text-anchor="start" x="77.28" y="-870.2" font-family="Arial" font-size="14.00">created_at </text>
<text text-anchor="start" x="147.32" y="-870.2" font-family="Arial" font-size="14.00" fill="#666666">[timestamp without time zone]</text>
<polygon fill="none" stroke="black" points="70.28,-827.2 70.28,-858 351.96,-858 351.96,-827.2 70.28,-827.2"/>
<text text-anchor="start" x="77.28" y="-839.4" font-family="Arial" font-size="14.00">updated_at </text>
<text text-anchor="start" x="151.23" y="-839.4" font-family="Arial" font-size="14.00" fill="#666666">[timestamp without time zone]</text>
</g>
<!-- public.employees&#45;&gt;public.teams -->
<g id="edge1" class="edge">
<title>public.employees:team_id&#45;&gt;public.teams:id</title>
<path fill="none" stroke="black" d="M363.13,-1117.9C424.2,-1093.59 391.05,-843.25 351.96,-784 329.73,-750.29 290.91,-781.62 268.55,-748 244.63,-712.03 224.35,-650.8 267.55,-650.8"/>
<polygon fill="black" stroke="black" points="363.12,-1117.9 352.47,-1115.32 357.88,-1118.88 353.62,-1119.68 353.62,-1119.68 353.62,-1119.68 357.88,-1118.88 354.12,-1124.16 363.12,-1117.9"/>
<text text-anchor="start" x="7" y="-1129.8" font-family="Arial" font-size="10.00">FOREIGN KEY (team_id) REFERENCES teams(id) ON DELETE SET NULL</text>
</g>
<!-- public.team_policies -->
<g id="node3" class="node">
<title>public.team_policies</title>
<polygon fill="#efefef" stroke="none" points="456.15,-1089 456.15,-1124.6 744.09,-1124.6 744.09,-1089 456.15,-1089"/>
<polygon fill="none" stroke="black" points="456.15,-1089 456.15,-1124.6 744.09,-1124.6 744.09,-1089 456.15,-1089"/>
<text text-anchor="start" x="463.15" y="-1102.4" font-family="Arial Bold" font-size="18.00">public.team_policies</text>
<text text-anchor="start" x="612.6" y="-1102.4" font-family="Arial" font-size="14.00">    </text>
<text text-anchor="start" x="643.72" y="-1102.4" font-family="Arial" font-size="14.00" fill="#666666">[BASE TABLE]</text>
<polygon fill="none" stroke="black" points="456.15,-1058.2 456.15,-1089 744.09,-1089 744.09,-1058.2 456.15,-1058.2"/>
<text text-anchor="start" x="463.15" y="-1070.4" font-family="Arial" font-size="14.00">id </text>
<text text-anchor="start" x="477.93" y="-1070.4" font-family="Arial" font-size="14.00" fill="#666666">[uuid]</text>
<polygon fill="none" stroke="black" points="456.15,-1027.4 456.15,-1058.2 744.09,-1058.2 744.09,-1027.4 456.15,-1027.4"/>
<text text-anchor="start" x="463.15" y="-1039.6" font-family="Arial" font-size="14.00">team_id </text>
<text text-anchor="start" x="516.84" y="-1039.6" font-family="Arial" font-size="14.00" fill="#666666">[uuid]</text>
<polygon fill="none" stroke="black" points="456.15,-996.6 456.15,-1027.4 744.09,-1027.4 744.09,-996.6 456.15,-996.6"/>
<text text-anchor="start" x="463.15" y="-1008.8" font-family="Arial" font-size="14.00">policy_id </text>
<text text-anchor="start" x="521.51" y="-1008.8" font-family="Arial" font-size="14.00" fill="#666666">[uuid]</text>
<polygon fill="none" stroke="black" points="456.15,-965.8 456.15,-996.6 744.09,-996.6 744.09,-965.8 456.15,-965.8"/>
<text text-anchor="start" x="463.15" y="-978" font-family="Arial" font-size="14.00">overrides </text>
<text text-anchor="start" x="524.62" y="-978" font-family="Arial" font-size="14.00" fill="#666666">[jsonb]</text>
<polygon fill="none" stroke="black" points="456.15,-935 456.15,-965.8 744.09,-965.8 744.09,-935 456.15,-935"/>
<text text-anchor="start" x="463.15" y="-947.2" font-family="Arial" font-size="14.00">created_at </text>
<text text-anchor="start" x="533.19" y="-947.2" font-family="Arial" font-size="14.00" fill="#666666">[timestamp without time zone]</text>
</g>
<!-- public.team_policies&#45;&gt;public.teams -->
<g id="edge2" class="edge">
<title>public.team_policies:team_id&#45;&gt;public.teams:id</title>
<path fill="none" stroke="black" d="M445.08,-1042.38C319.35,-1031.25 526.35,-802.71 541.69,-748 553.36,-706.4 585.89,-650.8 542.69,-650.8"/>
<polygon fill="black" stroke="black" points="444.82,-1042.37 454.62,-1047.28 450.15,-1042.59 454.48,-1042.77 454.48,-1042.77 454.48,-1042.77 450.15,-1042.59 455,-1038.29 444.82,-1042.37"/>
<text text-anchor="start" x="462.15" y="-1052.8" font-family="Arial" font-size="10.00">FOREIGN KEY (team_id) REFERENCES teams(id) ON DELETE CASCADE</text>
</g>
</g>
</svg>
