<?xml version="1.0" encoding="UTF-8" standalone="no"?>
<!DOCTYPE svg PUBLIC "-//W3C//DTD SVG 1.1//EN"
 "http://www.w3.org/Graphics/SVG/1.1/DTD/svg11.dtd">
<!-- Generated by graphviz version 12.1.2 (20240928.0832)
 -->
<!-- Title: public.activity_logs Pages: 1 -->
<svg width="1064pt" height="941pt"
 viewBox="0.00 0.00 1064.18 940.80" xmlns="http://www.w3.org/2000/svg" xmlns:xlink="http://www.w3.org/1999/xlink">
<g id="graph0" class="graph" transform="scale(1 1) rotate(0) translate(4 936.8)">
<title>public.activity_logs</title>
<polygon fill="white" stroke="none" points="-4,4 -4,-936.8 1060.18,-936.8 1060.18,4 -4,4"/>
<!-- public.activity_logs -->
<g id="node1" class="node">
<title>public.activity_logs</title>
<polygon fill="#efefef" stroke="none" points="378.99,-851 378.99,-886.6 659.96,-886.6 659.96,-851 378.99,-851"/>
<polygon fill="none" stroke="black" points="378.99,-851 378.99,-886.6 659.96,-886.6 659.96,-851 378.99,-851"/>
<text text-anchor="start" x="385.99" y="-864.4" font-family="Arial Bold" font-size="18.00">public.activity_logs</text>
<text text-anchor="start" x="528.47" y="-864.4" font-family="Arial" font-size="14.00">    </text>
<text text-anchor="start" x="559.59" y="-864.4" font-family="Arial" font-size="14.00" fill="#666666">[BASE TABLE]</text>
<polygon fill="none" stroke="black" points="378.99,-820.2 378.99,-851 659.96,-851 659.96,-820.2 378.99,-820.2"/>
<text text-anchor="start" x="385.99" y="-832.4" font-family="Arial" font-size="14.00">id </text>
<text text-anchor="start" x="400.78" y="-832.4" font-family="Arial" font-size="14.00" fill="#666666">[uuid]</text>
<polygon fill="none" stroke="black" points="378.99,-789.4 378.99,-820.2 659.96,-820.2 659.96,-789.4 378.99,-789.4"/>
<text text-anchor="start" x="385.99" y="-801.6" font-family="Arial" font-size="14.00">org_id </text>
<text text-anchor="start" x="428.8" y="-801.6" font-family="Arial" font-size="14.00" fill="#666666">[uuid]</text>
<polygon fill="none" stroke="black" points="378.99,-758.6 378.99,-789.4 659.96,-789.4 659.96,-758.6 378.99,-758.6"/>
<text text-anchor="start" x="385.99" y="-770.8" font-family="Arial" font-size="14.00">employee_id </text>
<text text-anchor="start" x="469.26" y="-770.8" font-family="Arial" font-size="14.00" fill="#666666">[uuid]</text>
<polygon fill="none" stroke="black" points="378.99,-727.8 378.99,-758.6 659.96,-758.6 659.96,-727.8 378.99,-727.8"/>
<text text-anchor="start" x="385.99" y="-740" font-family="Arial" font-size="14.00">event_type </text>
<text text-anchor="start" x="458.38" y="-740" font-family="Arial" font-size="14.00" fill="#666666">[varchar(100)]</text>
<polygon fill="none" stroke="black" points="378.99,-697 378.99,-727.8 659.96,-727.8 659.96,-697 378.99,-697"/>
<text text-anchor="start" x="385.99" y="-709.2" font-family="Arial" font-size="14.00">event_category </text>
<text text-anchor="start" x="485.61" y="-709.2" font-family="Arial" font-size="14.00" fill="#666666">[varchar(50)]</text>
<polygon fill="none" stroke="black" points="378.99,-666.2 378.99,-697 659.96,-697 659.96,-666.2 378.99,-666.2"/>
<text text-anchor="start" x="385.99" y="-678.4" font-family="Arial" font-size="14.00">payload </text>
<text text-anchor="start" x="438.92" y="-678.4" font-family="Arial" font-size="14.00" fill="#666666">[jsonb]</text>
<polygon fill="none" stroke="black" points="378.99,-635.4 378.99,-666.2 659.96,-666.2 659.96,-635.4 378.99,-635.4"/>
<text text-anchor="start" x="385.99" y="-647.6" font-family="Arial" font-size="14.00">created_at </text>
<text text-anchor="start" x="456.04" y="-647.6" font-family="Arial" font-size="14.00" fill="#666666">[timestamp without time zone]</text>
<polygon fill="none" stroke="black" stroke-width="3" points="377.49,-633.9 377.49,-888.1 661.46,-888.1 661.46,-633.9 377.49,-633.9"/>
</g>
<!-- public.organizations -->
<g id="node2" class="node">
<title>public.organizations</title>
<polygon fill="#efefef" stroke="none" points="183,-412.8 183,-448.4 467.95,-448.4 467.95,-412.8 183,-412.8"/>
<polygon fill="none" stroke="black" points="183,-412.8 183,-448.4 467.95,-448.4 467.95,-412.8 183,-412.8"/>
<text text-anchor="start" x="190" y="-426.2" font-family="Arial Bold" font-size="18.00">public.organizations</text>
<text text-anchor="start" x="336.46" y="-426.2" font-family="Arial" font-size="14.00">    </text>
<text text-anchor="start" x="367.58" y="-426.2" font-family="Arial" font-size="14.00" fill="#666666">[BASE TABLE]</text>
<polygon fill="none" stroke="black" points="183,-382 183,-412.8 467.95,-412.8 467.95,-382 183,-382"/>
<text text-anchor="start" x="190" y="-394.2" font-family="Arial" font-size="14.00">id </text>
<text text-anchor="start" x="204.78" y="-394.2" font-family="Arial" font-size="14.00" fill="#666666">[uuid]</text>
<polygon fill="none" stroke="black" points="183,-351.2 183,-382 467.95,-382 467.95,-351.2 183,-351.2"/>
<text text-anchor="start" x="190" y="-363.4" font-family="Arial" font-size="14.00">name </text>
<text text-anchor="start" x="228.91" y="-363.4" font-family="Arial" font-size="14.00" fill="#666666">[varchar(255)]</text>
<polygon fill="none" stroke="black" points="183,-320.4 183,-351.2 467.95,-351.2 467.95,-320.4 183,-320.4"/>
<text text-anchor="start" x="190" y="-332.6" font-family="Arial" font-size="14.00">slug </text>
<text text-anchor="start" x="219.57" y="-332.6" font-family="Arial" font-size="14.00" fill="#666666">[varchar(100)]</text>
<polygon fill="none" stroke="black" points="183,-289.6 183,-320.4 467.95,-320.4 467.95,-289.6 183,-289.6"/>
<text text-anchor="start" x="190" y="-301.8" font-family="Arial" font-size="14.00">plan </text>
<text text-anchor="start" x="220.36" y="-301.8" font-family="Arial" font-size="14.00" fill="#666666">[varchar(50)]</text>
<polygon fill="none" stroke="black" points="183,-258.8 183,-289.6 467.95,-289.6 467.95,-258.8 183,-258.8"/>
<text text-anchor="start" x="190" y="-271" font-family="Arial" font-size="14.00">settings </text>
<text text-anchor="start" x="242.14" y="-271" font-family="Arial" font-size="14.00" fill="#666666">[jsonb]</text>
<polygon fill="none" stroke="black" points="183,-228 183,-258.8 467.95,-258.8 467.95,-228 183,-228"/>
<text text-anchor="start" x="190" y="-240.2" font-family="Arial" font-size="14.00">max_employees </text>
<text text-anchor="start" x="295.83" y="-240.2" font-family="Arial" font-size="14.00" fill="#666666">[integer]</text>
<polygon fill="none" stroke="black" points="183,-197.2 183,-228 467.95,-228 467.95,-197.2 183,-197.2"/>
<text text-anchor="start" x="190" y="-209.4" font-family="Arial" font-size="14.00">max_agents_per_employee </text>
<text text-anchor="start" x="366.67" y="-209.4" font-family="Arial" font-size="14.00" fill="#666666">[integer]</text>
<polygon fill="none" stroke="black" points="183,-166.4 183,-197.2 467.95,-197.2 467.95,-166.4 183,-166.4"/>
<text text-anchor="start" x="190" y="-178.6" font-family="Arial" font-size="14.00">created_at </text>
<text text-anchor="start" x="260.05" y="-178.6" font-family="Arial" font-size="14.00" fill="#666666">[timestamp without time zone]</text>
<polygon fill="none" stroke="black" points="183,-135.6 183,-166.4 467.95,-166.4 467.95,-135.6 183,-135.6"/>
<text text-anchor="start" x="190" y="-147.8" font-family="Arial" font-size="14.00">updated_at </text>
<text text-anchor="start" x="263.96" y="-147.8" font-family="Arial" font-size="14.00" fill="#666666">[timestamp without time zone]</text>
<polygon fill="none" stroke="black" points="183,-104.8 183,-135.6 467.95,-135.6 467.95,-104.8 183,-104.8"/>
<text text-anchor="start" x="190" y="-117" font-family="Arial" font-size="14.00">claude_api_token </text>
<text text-anchor="start" x="303.65" y="-117" font-family="Arial" font-size="14.00" fill="#666666">[text]</text>
</g>
<!-- public.activity_logs&#45;&gt;public.organizations -->
<g id="edge1" class="edge">
<title>public.activity_logs:org_id&#45;&gt;public.organizations:id</title>
<path fill="none" stroke="black" d="M367.57,-804.68C82.54,-797.76 463.64,-502.54 467.95,-491.6 483.28,-452.64 510.82,-397.4 468.95,-397.4"/>
<polygon fill="black" stroke="black" points="367.66,-804.68 377.6,-809.3 372.99,-804.74 377.32,-804.79 377.32,-804.79 377.32,-804.79 372.99,-804.74 377.71,-800.3 367.66,-804.68"/>
<text text-anchor="start" x="7" y="-814.8" font-family="Arial" font-size="10.00">FOREIGN KEY (org_id) REFERENCES organizations(id) ON DELETE CASCADE</text>
</g>
<!-- public.employees -->
<g id="node3" class="node">
<title>public.employees</title>
<polygon fill="#efefef" stroke="none" points="572.63,-474.4 572.63,-510 854.32,-510 854.32,-474.4 572.63,-474.4"/>
<polygon fill="none" stroke="black" points="572.63,-474.4 572.63,-510 854.32,-510 854.32,-474.4 572.63,-474.4"/>
<text text-anchor="start" x="588" y="-487.8" font-family="Arial Bold" font-size="18.00">public.employees</text>
<text text-anchor="start" x="714.46" y="-487.8" font-family="Arial" font-size="14.00">    </text>
<text text-anchor="start" x="745.58" y="-487.8" font-family="Arial" font-size="14.00" fill="#666666">[BASE TABLE]</text>
<polygon fill="none" stroke="black" points="572.63,-443.6 572.63,-474.4 854.32,-474.4 854.32,-443.6 572.63,-443.6"/>
<text text-anchor="start" x="579.63" y="-455.8" font-family="Arial" font-size="14.00">id </text>
<text text-anchor="start" x="594.42" y="-455.8" font-family="Arial" font-size="14.00" fill="#666666">[uuid]</text>
<polygon fill="none" stroke="black" points="572.63,-412.8 572.63,-443.6 854.32,-443.6 854.32,-412.8 572.63,-412.8"/>
<text text-anchor="start" x="579.63" y="-425" font-family="Arial" font-size="14.00">org_id </text>
<text text-anchor="start" x="622.44" y="-425" font-family="Arial" font-size="14.00" fill="#666666">[uuid]</text>
<polygon fill="none" stroke="black" points="572.63,-382 572.63,-412.8 854.32,-412.8 854.32,-382 572.63,-382"/>
<text text-anchor="start" x="579.63" y="-394.2" font-family="Arial" font-size="14.00">team_id </text>
<text text-anchor="start" x="633.33" y="-394.2" font-family="Arial" font-size="14.00" fill="#666666">[uuid]</text>
<polygon fill="none" stroke="black" points="572.63,-351.2 572.63,-382 854.32,-382 854.32,-351.2 572.63,-351.2"/>
<text text-anchor="start" x="579.63" y="-363.4" font-family="Arial" font-size="14.00">role_id </text>
<text text-anchor="start" x="625.55" y="-363.4" font-family="Arial" font-size="14.00" fill="#666666">[uuid]</text>
<polygon fill="none" stroke="black" points="572.63,-320.4 572.63,-351.2 854.32,-351.2 854.32,-320.4 572.63,-320.4"/>
<text text-anchor="start" x="579.63" y="-332.6" font-family="Arial" font-size="14.00">email </text>
<text text-anchor="start" x="616.97" y="-332.6" font-family="Arial" font-size="14.00" fill="#666666">[varchar(255)]</text>
<polygon fill="none" stroke="black" points="572.63,-289.6 572.63,-320.4 854.32,-320.4 854.32,-289.6 572.63,-289.6"/>
<text text-anchor="start" x="579.63" y="-301.8" font-family="Arial" font-size="14.00">full_name </text>
<text text-anchor="start" x="644.22" y="-301.8" font-family="Arial" font-size="14.00" fill="#666666">[varchar(255)]</text>
<polygon fill="none" stroke="black" points="572.63,-258.8 572.63,-289.6 854.32,-289.6 854.32,-258.8 572.63,-258.8"/>
<text text-anchor="start" x="579.63" y="-271" font-family="Arial" font-size="14.00">password_hash </text>
<text text-anchor="start" x="681.58" y="-271" font-family="Arial" font-size="14.00" fill="#666666">[varchar(255)]</text>
<polygon fill="none" stroke="black" points="572.63,-228 572.63,-258.8 854.32,-258.8 854.32,-228 572.63,-228"/>
<text text-anchor="start" x="579.63" y="-240.2" font-family="Arial" font-size="14.00">status </text>
<text text-anchor="start" x="620.87" y="-240.2" font-family="Arial" font-size="14.00" fill="#666666">[varchar(50)]</text>
<polygon fill="none" stroke="black" points="572.63,-197.2 572.63,-228 854.32,-228 854.32,-197.2 572.63,-197.2"/>
<text text-anchor="start" x="579.63" y="-209.4" font-family="Arial" font-size="14.00">preferences </text>
<text text-anchor="start" x="657.45" y="-209.4" font-family="Arial" font-size="14.00" fill="#666666">[jsonb]</text>
<polygon fill="none" stroke="black" points="572.63,-166.4 572.63,-197.2 854.32,-197.2 854.32,-166.4 572.63,-166.4"/>
<text text-anchor="start" x="579.63" y="-178.6" font-family="Arial" font-size="14.00">last_login_at </text>
<text text-anchor="start" x="662.13" y="-178.6" font-family="Arial" font-size="14.00" fill="#666666">[timestamp without time zone]</text>
<polygon fill="none" stroke="black" points="572.63,-135.6 572.63,-166.4 854.32,-166.4 854.32,-135.6 572.63,-135.6"/>
<text text-anchor="start" x="579.63" y="-147.8" font-family="Arial" font-size="14.00">created_at </text>
<text text-anchor="start" x="649.68" y="-147.8" font-family="Arial" font-size="14.00" fill="#666666">[timestamp without time zone]</text>
<polygon fill="none" stroke="black" points="572.63,-104.8 572.63,-135.6 854.32,-135.6 854.32,-104.8 572.63,-104.8"/>
<text text-anchor="start" x="579.63" y="-117" font-family="Arial" font-size="14.00">updated_at </text>
<text text-anchor="start" x="653.59" y="-117" font-family="Arial" font-size="14.00" fill="#666666">[timestamp without time zone]</text>
<polygon fill="none" stroke="black" points="572.63,-74 572.63,-104.8 854.32,-104.8 854.32,-74 572.63,-74"/>
<text text-anchor="start" x="579.63" y="-86.2" font-family="Arial" font-size="14.00">deleted_at </text>
<text text-anchor="start" x="648.91" y="-86.2" font-family="Arial" font-size="14.00" fill="#666666">[timestamp without time zone]</text>
<polygon fill="none" stroke="black" points="572.63,-43.2 572.63,-74 854.32,-74 854.32,-43.2 572.63,-43.2"/>
<text text-anchor="start" x="579.63" y="-55.4" font-family="Arial" font-size="14.00">personal_claude_token </text>
<text text-anchor="start" x="728.3" y="-55.4" font-family="Arial" font-size="14.00" fill="#666666">[text]</text>
</g>
<!-- public.activity_logs&#45;&gt;public.employees -->
<g id="edge2" class="edge">
<title>public.activity_logs:employee_id&#45;&gt;public.employees:id</title>
<path fill="none" stroke="black" d="M671.31,-773.31C739.73,-763.62 703.77,-654.27 659.96,-589.2 636.51,-554.38 596.17,-587.96 572.63,-553.2 549.15,-518.53 529.76,-459 571.63,-459"/>
<polygon fill="black" stroke="black" points="671.27,-773.31 660.99,-769.49 665.95,-773.67 661.63,-773.96 661.63,-773.96 661.63,-773.96 665.95,-773.67 661.59,-778.47 671.27,-773.31"/>
<text text-anchor="start" x="667.96" y="-784" font-family="Arial" font-size="10.00">FOREIGN KEY (employee_id) REFERENCES employees(id) ON DELETE SET NULL</text>
</g>
</g>
</svg>
