<?xml version="1.0" encoding="UTF-8" standalone="no"?>
<!DOCTYPE svg PUBLIC "-//W3C//DTD SVG 1.1//EN"
 "http://www.w3.org/Graphics/SVG/1.1/DTD/svg11.dtd">
<!-- Generated by graphviz version 12.1.2 (20240928.0832)
 -->
<!-- Title: public.activity_logs Pages: 1 -->
<svg width="1143pt" height="1033pt"
 viewBox="0.00 0.00 1143.45 1033.20" xmlns="http://www.w3.org/2000/svg" xmlns:xlink="http://www.w3.org/1999/xlink">
<g id="graph0" class="graph" transform="scale(1 1) rotate(0) translate(4 1029.2)">
<title>public.activity_logs</title>
<polygon fill="white" stroke="none" points="-4,4 -4,-1029.2 1139.45,-1029.2 1139.45,4 -4,4"/>
<!-- public.activity_logs -->
<g id="node1" class="node">
<title>public.activity_logs</title>
<polygon fill="#efefef" stroke="none" points="433.19,-943.4 433.19,-979 714.16,-979 714.16,-943.4 433.19,-943.4"/>
<polygon fill="none" stroke="black" points="433.19,-943.4 433.19,-979 714.16,-979 714.16,-943.4 433.19,-943.4"/>
<text text-anchor="start" x="440.19" y="-956.8" font-family="Arial Bold" font-size="18.00">public.activity_logs</text>
<text text-anchor="start" x="582.67" y="-956.8" font-family="Arial" font-size="14.00">    </text>
<text text-anchor="start" x="613.79" y="-956.8" font-family="Arial" font-size="14.00" fill="#666666">[BASE TABLE]</text>
<polygon fill="none" stroke="black" points="433.19,-912.6 433.19,-943.4 714.16,-943.4 714.16,-912.6 433.19,-912.6"/>
<text text-anchor="start" x="440.19" y="-924.8" font-family="Arial" font-size="14.00">id </text>
<text text-anchor="start" x="454.98" y="-924.8" font-family="Arial" font-size="14.00" fill="#666666">[uuid]</text>
<polygon fill="none" stroke="black" points="433.19,-881.8 433.19,-912.6 714.16,-912.6 714.16,-881.8 433.19,-881.8"/>
<text text-anchor="start" x="440.19" y="-894" font-family="Arial" font-size="14.00">org_id </text>
<text text-anchor="start" x="483" y="-894" font-family="Arial" font-size="14.00" fill="#666666">[uuid]</text>
<polygon fill="none" stroke="black" points="433.19,-851 433.19,-881.8 714.16,-881.8 714.16,-851 433.19,-851"/>
<text text-anchor="start" x="440.19" y="-863.2" font-family="Arial" font-size="14.00">employee_id </text>
<text text-anchor="start" x="523.47" y="-863.2" font-family="Arial" font-size="14.00" fill="#666666">[uuid]</text>
<polygon fill="none" stroke="black" points="433.19,-820.2 433.19,-851 714.16,-851 714.16,-820.2 433.19,-820.2"/>
<text text-anchor="start" x="440.19" y="-832.4" font-family="Arial" font-size="14.00">session_id </text>
<text text-anchor="start" x="510.23" y="-832.4" font-family="Arial" font-size="14.00" fill="#666666">[uuid]</text>
<polygon fill="none" stroke="black" points="433.19,-789.4 433.19,-820.2 714.16,-820.2 714.16,-789.4 433.19,-789.4"/>
<text text-anchor="start" x="440.19" y="-801.6" font-family="Arial" font-size="14.00">agent_id </text>
<text text-anchor="start" x="497.8" y="-801.6" font-family="Arial" font-size="14.00" fill="#666666">[uuid]</text>
<polygon fill="none" stroke="black" points="433.19,-758.6 433.19,-789.4 714.16,-789.4 714.16,-758.6 433.19,-758.6"/>
<text text-anchor="start" x="440.19" y="-770.8" font-family="Arial" font-size="14.00">event_type </text>
<text text-anchor="start" x="512.58" y="-770.8" font-family="Arial" font-size="14.00" fill="#666666">[varchar(100)]</text>
<polygon fill="none" stroke="black" points="433.19,-727.8 433.19,-758.6 714.16,-758.6 714.16,-727.8 433.19,-727.8"/>
<text text-anchor="start" x="440.19" y="-740" font-family="Arial" font-size="14.00">event_category </text>
<text text-anchor="start" x="539.81" y="-740" font-family="Arial" font-size="14.00" fill="#666666">[varchar(50)]</text>
<polygon fill="none" stroke="black" points="433.19,-697 433.19,-727.8 714.16,-727.8 714.16,-697 433.19,-697"/>
<text text-anchor="start" x="440.19" y="-709.2" font-family="Arial" font-size="14.00">content </text>
<text text-anchor="start" x="490" y="-709.2" font-family="Arial" font-size="14.00" fill="#666666">[text]</text>
<polygon fill="none" stroke="black" points="433.19,-666.2 433.19,-697 714.16,-697 714.16,-666.2 433.19,-666.2"/>
<text text-anchor="start" x="440.19" y="-678.4" font-family="Arial" font-size="14.00">payload </text>
<text text-anchor="start" x="493.12" y="-678.4" font-family="Arial" font-size="14.00" fill="#666666">[jsonb]</text>
<polygon fill="none" stroke="black" points="433.19,-635.4 433.19,-666.2 714.16,-666.2 714.16,-635.4 433.19,-635.4"/>
<text text-anchor="start" x="440.19" y="-647.6" font-family="Arial" font-size="14.00">created_at </text>
<text text-anchor="start" x="510.24" y="-647.6" font-family="Arial" font-size="14.00" fill="#666666">[timestamp without time zone]</text>
<polygon fill="none" stroke="black" stroke-width="3" points="431.69,-633.9 431.69,-980.5 715.66,-980.5 715.66,-633.9 431.69,-633.9"/>
</g>
<!-- public.organizations -->
<g id="node2" class="node">
<title>public.organizations</title>
<polygon fill="#efefef" stroke="none" points="43.2,-412.8 43.2,-448.4 328.15,-448.4 328.15,-412.8 43.2,-412.8"/>
<polygon fill="none" stroke="black" points="43.2,-412.8 43.2,-448.4 328.15,-448.4 328.15,-412.8 43.2,-412.8"/>
<text text-anchor="start" x="50.2" y="-426.2" font-family="Arial Bold" font-size="18.00">public.organizations</text>
<text text-anchor="start" x="196.66" y="-426.2" font-family="Arial" font-size="14.00">    </text>
<text text-anchor="start" x="227.78" y="-426.2" font-family="Arial" font-size="14.00" fill="#666666">[BASE TABLE]</text>
<polygon fill="none" stroke="black" points="43.2,-382 43.2,-412.8 328.15,-412.8 328.15,-382 43.2,-382"/>
<text text-anchor="start" x="50.2" y="-394.2" font-family="Arial" font-size="14.00">id </text>
<text text-anchor="start" x="64.99" y="-394.2" font-family="Arial" font-size="14.00" fill="#666666">[uuid]</text>
<polygon fill="none" stroke="black" points="43.2,-351.2 43.2,-382 328.15,-382 328.15,-351.2 43.2,-351.2"/>
<text text-anchor="start" x="50.2" y="-363.4" font-family="Arial" font-size="14.00">name </text>
<text text-anchor="start" x="89.11" y="-363.4" font-family="Arial" font-size="14.00" fill="#666666">[varchar(255)]</text>
<polygon fill="none" stroke="black" points="43.2,-320.4 43.2,-351.2 328.15,-351.2 328.15,-320.4 43.2,-320.4"/>
<text text-anchor="start" x="50.2" y="-332.6" font-family="Arial" font-size="14.00">slug </text>
<text text-anchor="start" x="79.77" y="-332.6" font-family="Arial" font-size="14.00" fill="#666666">[varchar(100)]</text>
<polygon fill="none" stroke="black" points="43.2,-289.6 43.2,-320.4 328.15,-320.4 328.15,-289.6 43.2,-289.6"/>
<text text-anchor="start" x="50.2" y="-301.8" font-family="Arial" font-size="14.00">plan </text>
<text text-anchor="start" x="80.56" y="-301.8" font-family="Arial" font-size="14.00" fill="#666666">[varchar(50)]</text>
<polygon fill="none" stroke="black" points="43.2,-258.8 43.2,-289.6 328.15,-289.6 328.15,-258.8 43.2,-258.8"/>
<text text-anchor="start" x="50.2" y="-271" font-family="Arial" font-size="14.00">settings </text>
<text text-anchor="start" x="102.34" y="-271" font-family="Arial" font-size="14.00" fill="#666666">[jsonb]</text>
<polygon fill="none" stroke="black" points="43.2,-228 43.2,-258.8 328.15,-258.8 328.15,-228 43.2,-228"/>
<text text-anchor="start" x="50.2" y="-240.2" font-family="Arial" font-size="14.00">max_employees </text>
<text text-anchor="start" x="156.03" y="-240.2" font-family="Arial" font-size="14.00" fill="#666666">[integer]</text>
<polygon fill="none" stroke="black" points="43.2,-197.2 43.2,-228 328.15,-228 328.15,-197.2 43.2,-197.2"/>
<text text-anchor="start" x="50.2" y="-209.4" font-family="Arial" font-size="14.00">max_agents_per_employee </text>
<text text-anchor="start" x="226.87" y="-209.4" font-family="Arial" font-size="14.00" fill="#666666">[integer]</text>
<polygon fill="none" stroke="black" points="43.2,-166.4 43.2,-197.2 328.15,-197.2 328.15,-166.4 43.2,-166.4"/>
<text text-anchor="start" x="50.2" y="-178.6" font-family="Arial" font-size="14.00">claude_api_token </text>
<text text-anchor="start" x="163.85" y="-178.6" font-family="Arial" font-size="14.00" fill="#666666">[text]</text>
<polygon fill="none" stroke="black" points="43.2,-135.6 43.2,-166.4 328.15,-166.4 328.15,-135.6 43.2,-135.6"/>
<text text-anchor="start" x="50.2" y="-147.8" font-family="Arial" font-size="14.00">created_at </text>
<text text-anchor="start" x="120.25" y="-147.8" font-family="Arial" font-size="14.00" fill="#666666">[timestamp without time zone]</text>
<polygon fill="none" stroke="black" points="43.2,-104.8 43.2,-135.6 328.15,-135.6 328.15,-104.8 43.2,-104.8"/>
<text text-anchor="start" x="50.2" y="-117" font-family="Arial" font-size="14.00">updated_at </text>
<text text-anchor="start" x="124.16" y="-117" font-family="Arial" font-size="14.00" fill="#666666">[timestamp without time zone]</text>
</g>
<!-- public.activity_logs&#45;&gt;public.organizations -->
<g id="edge1" class="edge">
<title>public.activity_logs:org_id&#45;&gt;public.organizations:id</title>
<path fill="none" stroke="black" d="M423.18,-892.57C376.45,-842.19 382.64,-397.4 329.15,-397.4"/>
<polygon fill="black" stroke="black" points="423,-892.48 429.84,-901.05 427.74,-894.92 431.6,-896.89 431.6,-896.89 431.6,-896.89 427.74,-894.92 433.95,-893.04 423,-892.48"/>
<text text-anchor="start" x="61.2" y="-907.2" font-family="Arial" font-size="10.00">FOREIGN KEY (org_id) REFERENCES organizations(id) ON DELETE CASCADE</text>
</g>
<!-- public.employees -->
<g id="node3" class="node">
<title>public.employees</title>
<polygon fill="#efefef" stroke="none" points="432.83,-474.4 432.83,-510 714.52,-510 714.52,-474.4 432.83,-474.4"/>
<polygon fill="none" stroke="black" points="432.83,-474.4 432.83,-510 714.52,-510 714.52,-474.4 432.83,-474.4"/>
<text text-anchor="start" x="448.2" y="-487.8" font-family="Arial Bold" font-size="18.00">public.employees</text>
<text text-anchor="start" x="574.66" y="-487.8" font-family="Arial" font-size="14.00">    </text>
<text text-anchor="start" x="605.78" y="-487.8" font-family="Arial" font-size="14.00" fill="#666666">[BASE TABLE]</text>
<polygon fill="none" stroke="black" points="432.83,-443.6 432.83,-474.4 714.52,-474.4 714.52,-443.6 432.83,-443.6"/>
<text text-anchor="start" x="439.83" y="-455.8" font-family="Arial" font-size="14.00">id </text>
<text text-anchor="start" x="454.62" y="-455.8" font-family="Arial" font-size="14.00" fill="#666666">[uuid]</text>
<polygon fill="none" stroke="black" points="432.83,-412.8 432.83,-443.6 714.52,-443.6 714.52,-412.8 432.83,-412.8"/>
<text text-anchor="start" x="439.83" y="-425" font-family="Arial" font-size="14.00">org_id </text>
<text text-anchor="start" x="482.64" y="-425" font-family="Arial" font-size="14.00" fill="#666666">[uuid]</text>
<polygon fill="none" stroke="black" points="432.83,-382 432.83,-412.8 714.52,-412.8 714.52,-382 432.83,-382"/>
<text text-anchor="start" x="439.83" y="-394.2" font-family="Arial" font-size="14.00">team_id </text>
<text text-anchor="start" x="493.53" y="-394.2" font-family="Arial" font-size="14.00" fill="#666666">[uuid]</text>
<polygon fill="none" stroke="black" points="432.83,-351.2 432.83,-382 714.52,-382 714.52,-351.2 432.83,-351.2"/>
<text text-anchor="start" x="439.83" y="-363.4" font-family="Arial" font-size="14.00">role_id </text>
<text text-anchor="start" x="485.75" y="-363.4" font-family="Arial" font-size="14.00" fill="#666666">[uuid]</text>
<polygon fill="none" stroke="black" points="432.83,-320.4 432.83,-351.2 714.52,-351.2 714.52,-320.4 432.83,-320.4"/>
<text text-anchor="start" x="439.83" y="-332.6" font-family="Arial" font-size="14.00">email </text>
<text text-anchor="start" x="477.18" y="-332.6" font-family="Arial" font-size="14.00" fill="#666666">[varchar(255)]</text>
<polygon fill="none" stroke="black" points="432.83,-289.6 432.83,-320.4 714.52,-320.4 714.52,-289.6 432.83,-289.6"/>
<text text-anchor="start" x="439.83" y="-301.8" font-family="Arial" font-size="14.00">full_name </text>
<text text-anchor="start" x="504.42" y="-301.8" font-family="Arial" font-size="14.00" fill="#666666">[varchar(255)]</text>
<polygon fill="none" stroke="black" points="432.83,-258.8 432.83,-289.6 714.52,-289.6 714.52,-258.8 432.83,-258.8"/>
<text text-anchor="start" x="439.83" y="-271" font-family="Arial" font-size="14.00">password_hash </text>
<text text-anchor="start" x="541.78" y="-271" font-family="Arial" font-size="14.00" fill="#666666">[varchar(255)]</text>
<polygon fill="none" stroke="black" points="432.83,-228 432.83,-258.8 714.52,-258.8 714.52,-228 432.83,-228"/>
<text text-anchor="start" x="439.83" y="-240.2" font-family="Arial" font-size="14.00">status </text>
<text text-anchor="start" x="481.07" y="-240.2" font-family="Arial" font-size="14.00" fill="#666666">[varchar(50)]</text>
<polygon fill="none" stroke="black" points="432.83,-197.2 432.83,-228 714.52,-228 714.52,-197.2 432.83,-197.2"/>
<text text-anchor="start" x="439.83" y="-209.4" font-family="Arial" font-size="14.00">preferences </text>
<text text-anchor="start" x="517.65" y="-209.4" font-family="Arial" font-size="14.00" fill="#666666">[jsonb]</text>
<polygon fill="none" stroke="black" points="432.83,-166.4 432.83,-197.2 714.52,-197.2 714.52,-166.4 432.83,-166.4"/>
<text text-anchor="start" x="439.83" y="-178.6" font-family="Arial" font-size="14.00">personal_claude_token </text>
<text text-anchor="start" x="588.5" y="-178.6" font-family="Arial" font-size="14.00" fill="#666666">[text]</text>
<polygon fill="none" stroke="black" points="432.83,-135.6 432.83,-166.4 714.52,-166.4 714.52,-135.6 432.83,-135.6"/>
<text text-anchor="start" x="439.83" y="-147.8" font-family="Arial" font-size="14.00">last_login_at </text>
<text text-anchor="start" x="522.33" y="-147.8" font-family="Arial" font-size="14.00" fill="#666666">[timestamp without time zone]</text>
<polygon fill="none" stroke="black" points="432.83,-104.8 432.83,-135.6 714.52,-135.6 714.52,-104.8 432.83,-104.8"/>
<text text-anchor="start" x="439.83" y="-117" font-family="Arial" font-size="14.00">created_at </text>
<text text-anchor="start" x="509.88" y="-117" font-family="Arial" font-size="14.00" fill="#666666">[timestamp without time zone]</text>
<polygon fill="none" stroke="black" points="432.83,-74 432.83,-104.8 714.52,-104.8 714.52,-74 432.83,-74"/>
<text text-anchor="start" x="439.83" y="-86.2" font-family="Arial" font-size="14.00">updated_at </text>
<text text-anchor="start" x="513.79" y="-86.2" font-family="Arial" font-size="14.00" fill="#666666">[timestamp without time zone]</text>
<polygon fill="none" stroke="black" points="432.83,-43.2 432.83,-74 714.52,-74 714.52,-43.2 432.83,-43.2"/>
<text text-anchor="start" x="439.83" y="-55.4" font-family="Arial" font-size="14.00">deleted_at </text>
<text text-anchor="start" x="509.11" y="-55.4" font-family="Arial" font-size="14.00" fill="#666666">[timestamp without time zone]</text>
</g>
<!-- public.activity_logs&#45;&gt;public.employees -->
<g id="edge2" class="edge">
<title>public.activity_logs:employee_id&#45;&gt;public.employees:id</title>
<path fill="none" stroke="black" d="M723.81,-860.95C760.26,-812.6 757.69,-459 715.52,-459"/>
<polygon fill="black" stroke="black" points="723.9,-860.89 713.04,-862.41 719.39,-863.73 715.73,-866.04 715.73,-866.04 715.73,-866.04 719.39,-863.73 717.84,-870.03 723.9,-860.89"/>
<text text-anchor="start" x="722.16" y="-876.4" font-family="Arial" font-size="10.00">FOREIGN KEY (employee_id) REFERENCES employees(id) ON DELETE SET NULL</text>
</g>
<!-- public.agents -->
<g id="node4" class="node">
<title>public.agents</title>
<polygon fill="#efefef" stroke="none" points="819.1,-443.6 819.1,-479.2 1092.25,-479.2 1092.25,-443.6 819.1,-443.6"/>
<polygon fill="none" stroke="black" points="819.1,-443.6 819.1,-479.2 1092.25,-479.2 1092.25,-443.6 819.1,-443.6"/>
<text text-anchor="start" x="845.69" y="-457" font-family="Arial Bold" font-size="18.00">public.agents</text>
<text text-anchor="start" x="941.17" y="-457" font-family="Arial" font-size="14.00">    </text>
<text text-anchor="start" x="972.29" y="-457" font-family="Arial" font-size="14.00" fill="#666666">[BASE TABLE]</text>
<polygon fill="none" stroke="black" points="819.1,-412.8 819.1,-443.6 1092.25,-443.6 1092.25,-412.8 819.1,-412.8"/>
<text text-anchor="start" x="826.1" y="-425" font-family="Arial" font-size="14.00">id </text>
<text text-anchor="start" x="840.89" y="-425" font-family="Arial" font-size="14.00" fill="#666666">[uuid]</text>
<polygon fill="none" stroke="black" points="819.1,-382 819.1,-412.8 1092.25,-412.8 1092.25,-382 819.1,-382"/>
<text text-anchor="start" x="826.1" y="-394.2" font-family="Arial" font-size="14.00">name </text>
<text text-anchor="start" x="865.01" y="-394.2" font-family="Arial" font-size="14.00" fill="#666666">[varchar(255)]</text>
<polygon fill="none" stroke="black" points="819.1,-351.2 819.1,-382 1092.25,-382 1092.25,-351.2 819.1,-351.2"/>
<text text-anchor="start" x="826.1" y="-363.4" font-family="Arial" font-size="14.00">type </text>
<text text-anchor="start" x="856.45" y="-363.4" font-family="Arial" font-size="14.00" fill="#666666">[varchar(100)]</text>
<polygon fill="none" stroke="black" points="819.1,-320.4 819.1,-351.2 1092.25,-351.2 1092.25,-320.4 819.1,-320.4"/>
<text text-anchor="start" x="826.1" y="-332.6" font-family="Arial" font-size="14.00">description </text>
<text text-anchor="start" x="897.7" y="-332.6" font-family="Arial" font-size="14.00" fill="#666666">[text]</text>
<polygon fill="none" stroke="black" points="819.1,-289.6 819.1,-320.4 1092.25,-320.4 1092.25,-289.6 819.1,-289.6"/>
<text text-anchor="start" x="826.1" y="-301.8" font-family="Arial" font-size="14.00">provider </text>
<text text-anchor="start" x="880.57" y="-301.8" font-family="Arial" font-size="14.00" fill="#666666">[varchar(100)]</text>
<polygon fill="none" stroke="black" points="819.1,-258.8 819.1,-289.6 1092.25,-289.6 1092.25,-258.8 819.1,-258.8"/>
<text text-anchor="start" x="826.1" y="-271" font-family="Arial" font-size="14.00">default_config </text>
<text text-anchor="start" x="917.17" y="-271" font-family="Arial" font-size="14.00" fill="#666666">[jsonb]</text>
<polygon fill="none" stroke="black" points="819.1,-228 819.1,-258.8 1092.25,-258.8 1092.25,-228 819.1,-228"/>
<text text-anchor="start" x="826.1" y="-240.2" font-family="Arial" font-size="14.00">capabilities </text>
<text text-anchor="start" x="899.25" y="-240.2" font-family="Arial" font-size="14.00" fill="#666666">[jsonb]</text>
<polygon fill="none" stroke="black" points="819.1,-197.2 819.1,-228 1092.25,-228 1092.25,-197.2 819.1,-197.2"/>
<text text-anchor="start" x="826.1" y="-209.4" font-family="Arial" font-size="14.00">llm_provider </text>
<text text-anchor="start" x="906.24" y="-209.4" font-family="Arial" font-size="14.00" fill="#666666">[varchar(50)]</text>
<polygon fill="none" stroke="black" points="819.1,-166.4 819.1,-197.2 1092.25,-197.2 1092.25,-166.4 819.1,-166.4"/>
<text text-anchor="start" x="826.1" y="-178.6" font-family="Arial" font-size="14.00">llm_model </text>
<text text-anchor="start" x="893.79" y="-178.6" font-family="Arial" font-size="14.00" fill="#666666">[varchar(100)]</text>
<polygon fill="none" stroke="black" points="819.1,-135.6 819.1,-166.4 1092.25,-166.4 1092.25,-135.6 819.1,-135.6"/>
<text text-anchor="start" x="826.1" y="-147.8" font-family="Arial" font-size="14.00">is_public </text>
<text text-anchor="start" x="884.47" y="-147.8" font-family="Arial" font-size="14.00" fill="#666666">[boolean]</text>
<polygon fill="none" stroke="black" points="819.1,-104.8 819.1,-135.6 1092.25,-135.6 1092.25,-104.8 819.1,-104.8"/>
<text text-anchor="start" x="826.1" y="-117" font-family="Arial" font-size="14.00">created_at </text>
<text text-anchor="start" x="896.15" y="-117" font-family="Arial" font-size="14.00" fill="#666666">[timestamp without time zone]</text>
<polygon fill="none" stroke="black" points="819.1,-74 819.1,-104.8 1092.25,-104.8 1092.25,-74 819.1,-74"/>
<text text-anchor="start" x="826.1" y="-86.2" font-family="Arial" font-size="14.00">updated_at </text>
<text text-anchor="start" x="900.06" y="-86.2" font-family="Arial" font-size="14.00" fill="#666666">[timestamp without time zone]</text>
</g>
<!-- public.activity_logs&#45;&gt;public.agents -->
<g id="edge3" class="edge">
<title>public.activity_logs:agent_id&#45;&gt;public.agents:id</title>
<path fill="none" stroke="black" d="M725.06,-802.95C796.39,-774.54 734.9,-428.2 818.1,-428.2"/>
<polygon fill="black" stroke="black" points="725.32,-802.9 714.66,-800.32 720.07,-803.88 715.82,-804.68 715.82,-804.68 715.82,-804.68 720.07,-803.88 716.31,-809.16 725.32,-802.9"/>
<text text-anchor="start" x="722.16" y="-814.8" font-family="Arial" font-size="10.00">FOREIGN KEY (agent_id) REFERENCES agents(id) ON DELETE SET NULL</text>
</g>
</g>
</svg>
