<?xml version="1.0" encoding="UTF-8" standalone="no"?>
<!DOCTYPE svg PUBLIC "-//W3C//DTD SVG 1.1//EN"
 "http://www.w3.org/Graphics/SVG/1.1/DTD/svg11.dtd">
<!-- Generated by graphviz version 12.1.2 (20240928.0832)
 -->
<!-- Title: public.usage_records Pages: 1 -->
<svg width="1238pt" height="1033pt"
 viewBox="0.00 0.00 1237.83 1033.20" xmlns="http://www.w3.org/2000/svg" xmlns:xlink="http://www.w3.org/1999/xlink">
<g id="graph0" class="graph" transform="scale(1 1) rotate(0) translate(4 1029.2)">
<title>public.usage_records</title>
<polygon fill="white" stroke="none" points="-4,4 -4,-1029.2 1233.83,-1029.2 1233.83,4 -4,4"/>
<!-- public.usage_records -->
<g id="node1" class="node">
<title>public.usage_records</title>
<polygon fill="#efefef" stroke="none" points="428.21,-943.4 428.21,-979 719.14,-979 719.14,-943.4 428.21,-943.4"/>
<polygon fill="none" stroke="black" points="428.21,-943.4 428.21,-979 719.14,-979 719.14,-943.4 428.21,-943.4"/>
<text text-anchor="start" x="435.21" y="-956.8" font-family="Arial Bold" font-size="18.00">public.usage_records</text>
<text text-anchor="start" x="587.65" y="-956.8" font-family="Arial" font-size="14.00">    </text>
<text text-anchor="start" x="618.77" y="-956.8" font-family="Arial" font-size="14.00" fill="#666666">[BASE TABLE]</text>
<polygon fill="none" stroke="black" points="428.21,-912.6 428.21,-943.4 719.14,-943.4 719.14,-912.6 428.21,-912.6"/>
<text text-anchor="start" x="435.21" y="-924.8" font-family="Arial" font-size="14.00">id </text>
<text text-anchor="start" x="449.99" y="-924.8" font-family="Arial" font-size="14.00" fill="#666666">[uuid]</text>
<polygon fill="none" stroke="black" points="428.21,-881.8 428.21,-912.6 719.14,-912.6 719.14,-881.8 428.21,-881.8"/>
<text text-anchor="start" x="435.21" y="-894" font-family="Arial" font-size="14.00">org_id </text>
<text text-anchor="start" x="478.01" y="-894" font-family="Arial" font-size="14.00" fill="#666666">[uuid]</text>
<polygon fill="none" stroke="black" points="428.21,-851 428.21,-881.8 719.14,-881.8 719.14,-851 428.21,-851"/>
<text text-anchor="start" x="435.21" y="-863.2" font-family="Arial" font-size="14.00">employee_id </text>
<text text-anchor="start" x="518.48" y="-863.2" font-family="Arial" font-size="14.00" fill="#666666">[uuid]</text>
<polygon fill="none" stroke="black" points="428.21,-820.2 428.21,-851 719.14,-851 719.14,-820.2 428.21,-820.2"/>
<text text-anchor="start" x="435.21" y="-832.4" font-family="Arial" font-size="14.00">agent_config_id </text>
<text text-anchor="start" x="537.96" y="-832.4" font-family="Arial" font-size="14.00" fill="#666666">[uuid]</text>
<polygon fill="none" stroke="black" points="428.21,-789.4 428.21,-820.2 719.14,-820.2 719.14,-789.4 428.21,-789.4"/>
<text text-anchor="start" x="435.21" y="-801.6" font-family="Arial" font-size="14.00">resource_type </text>
<text text-anchor="start" x="527.81" y="-801.6" font-family="Arial" font-size="14.00" fill="#666666">[varchar(50)]</text>
<polygon fill="none" stroke="black" points="428.21,-758.6 428.21,-789.4 719.14,-789.4 719.14,-758.6 428.21,-758.6"/>
<text text-anchor="start" x="435.21" y="-770.8" font-family="Arial" font-size="14.00">quantity </text>
<text text-anchor="start" x="488.13" y="-770.8" font-family="Arial" font-size="14.00" fill="#666666">[bigint]</text>
<polygon fill="none" stroke="black" points="428.21,-727.8 428.21,-758.6 719.14,-758.6 719.14,-727.8 428.21,-727.8"/>
<text text-anchor="start" x="435.21" y="-740" font-family="Arial" font-size="14.00">cost_usd </text>
<text text-anchor="start" x="495.13" y="-740" font-family="Arial" font-size="14.00" fill="#666666">[numeric(10,4)]</text>
<polygon fill="none" stroke="black" points="428.21,-697 428.21,-727.8 719.14,-727.8 719.14,-697 428.21,-697"/>
<text text-anchor="start" x="435.21" y="-709.2" font-family="Arial" font-size="14.00">period_start </text>
<text text-anchor="start" x="513.03" y="-709.2" font-family="Arial" font-size="14.00" fill="#666666">[timestamp without time zone]</text>
<polygon fill="none" stroke="black" points="428.21,-666.2 428.21,-697 719.14,-697 719.14,-666.2 428.21,-666.2"/>
<text text-anchor="start" x="435.21" y="-678.4" font-family="Arial" font-size="14.00">period_end </text>
<text text-anchor="start" x="509.16" y="-678.4" font-family="Arial" font-size="14.00" fill="#666666">[timestamp without time zone]</text>
<polygon fill="none" stroke="black" points="428.21,-635.4 428.21,-666.2 719.14,-666.2 719.14,-635.4 428.21,-635.4"/>
<text text-anchor="start" x="435.21" y="-647.6" font-family="Arial" font-size="14.00">metadata </text>
<text text-anchor="start" x="497.47" y="-647.6" font-family="Arial" font-size="14.00" fill="#666666">[jsonb]</text>
<polygon fill="none" stroke="black" points="428.21,-604.6 428.21,-635.4 719.14,-635.4 719.14,-604.6 428.21,-604.6"/>
<text text-anchor="start" x="435.21" y="-616.8" font-family="Arial" font-size="14.00">created_at </text>
<text text-anchor="start" x="505.26" y="-616.8" font-family="Arial" font-size="14.00" fill="#666666">[timestamp without time zone]</text>
<polygon fill="none" stroke="black" stroke-width="3" points="426.71,-603.1 426.71,-980.5 720.64,-980.5 720.64,-603.1 426.71,-603.1"/>
</g>
<!-- public.organizations -->
<g id="node2" class="node">
<title>public.organizations</title>
<polygon fill="#efefef" stroke="none" points="43.2,-382 43.2,-417.6 328.15,-417.6 328.15,-382 43.2,-382"/>
<polygon fill="none" stroke="black" points="43.2,-382 43.2,-417.6 328.15,-417.6 328.15,-382 43.2,-382"/>
<text text-anchor="start" x="50.2" y="-395.4" font-family="Arial Bold" font-size="18.00">public.organizations</text>
<text text-anchor="start" x="196.66" y="-395.4" font-family="Arial" font-size="14.00">    </text>
<text text-anchor="start" x="227.78" y="-395.4" font-family="Arial" font-size="14.00" fill="#666666">[BASE TABLE]</text>
<polygon fill="none" stroke="black" points="43.2,-351.2 43.2,-382 328.15,-382 328.15,-351.2 43.2,-351.2"/>
<text text-anchor="start" x="50.2" y="-363.4" font-family="Arial" font-size="14.00">id </text>
<text text-anchor="start" x="64.99" y="-363.4" font-family="Arial" font-size="14.00" fill="#666666">[uuid]</text>
<polygon fill="none" stroke="black" points="43.2,-320.4 43.2,-351.2 328.15,-351.2 328.15,-320.4 43.2,-320.4"/>
<text text-anchor="start" x="50.2" y="-332.6" font-family="Arial" font-size="14.00">name </text>
<text text-anchor="start" x="89.11" y="-332.6" font-family="Arial" font-size="14.00" fill="#666666">[varchar(255)]</text>
<polygon fill="none" stroke="black" points="43.2,-289.6 43.2,-320.4 328.15,-320.4 328.15,-289.6 43.2,-289.6"/>
<text text-anchor="start" x="50.2" y="-301.8" font-family="Arial" font-size="14.00">slug </text>
<text text-anchor="start" x="79.77" y="-301.8" font-family="Arial" font-size="14.00" fill="#666666">[varchar(100)]</text>
<polygon fill="none" stroke="black" points="43.2,-258.8 43.2,-289.6 328.15,-289.6 328.15,-258.8 43.2,-258.8"/>
<text text-anchor="start" x="50.2" y="-271" font-family="Arial" font-size="14.00">plan </text>
<text text-anchor="start" x="80.56" y="-271" font-family="Arial" font-size="14.00" fill="#666666">[varchar(50)]</text>
<polygon fill="none" stroke="black" points="43.2,-228 43.2,-258.8 328.15,-258.8 328.15,-228 43.2,-228"/>
<text text-anchor="start" x="50.2" y="-240.2" font-family="Arial" font-size="14.00">settings </text>
<text text-anchor="start" x="102.34" y="-240.2" font-family="Arial" font-size="14.00" fill="#666666">[jsonb]</text>
<polygon fill="none" stroke="black" points="43.2,-197.2 43.2,-228 328.15,-228 328.15,-197.2 43.2,-197.2"/>
<text text-anchor="start" x="50.2" y="-209.4" font-family="Arial" font-size="14.00">max_employees </text>
<text text-anchor="start" x="156.03" y="-209.4" font-family="Arial" font-size="14.00" fill="#666666">[integer]</text>
<polygon fill="none" stroke="black" points="43.2,-166.4 43.2,-197.2 328.15,-197.2 328.15,-166.4 43.2,-166.4"/>
<text text-anchor="start" x="50.2" y="-178.6" font-family="Arial" font-size="14.00">max_agents_per_employee </text>
<text text-anchor="start" x="226.87" y="-178.6" font-family="Arial" font-size="14.00" fill="#666666">[integer]</text>
<polygon fill="none" stroke="black" points="43.2,-135.6 43.2,-166.4 328.15,-166.4 328.15,-135.6 43.2,-135.6"/>
<text text-anchor="start" x="50.2" y="-147.8" font-family="Arial" font-size="14.00">created_at </text>
<text text-anchor="start" x="120.25" y="-147.8" font-family="Arial" font-size="14.00" fill="#666666">[timestamp without time zone]</text>
<polygon fill="none" stroke="black" points="43.2,-104.8 43.2,-135.6 328.15,-135.6 328.15,-104.8 43.2,-104.8"/>
<text text-anchor="start" x="50.2" y="-117" font-family="Arial" font-size="14.00">updated_at </text>
<text text-anchor="start" x="124.16" y="-117" font-family="Arial" font-size="14.00" fill="#666666">[timestamp without time zone]</text>
</g>
<!-- public.usage_records&#45;&gt;public.organizations -->
<g id="edge1" class="edge">
<title>public.usage_records:org_id&#45;&gt;public.organizations:id</title>
<path fill="none" stroke="black" d="M418.08,-892.61C369.4,-840.75 385.83,-366.6 329.15,-366.6"/>
<polygon fill="black" stroke="black" points="417.97,-892.56 424.89,-901.07 422.74,-894.96 426.61,-896.9 426.61,-896.9 426.61,-896.9 422.74,-894.96 428.93,-893.03 417.97,-892.56"/>
<text text-anchor="start" x="56.22" y="-907.2" font-family="Arial" font-size="10.00">FOREIGN KEY (org_id) REFERENCES organizations(id) ON DELETE CASCADE</text>
</g>
<!-- public.employees -->
<g id="node3" class="node">
<title>public.employees</title>
<polygon fill="#efefef" stroke="none" points="432.83,-443.6 432.83,-479.2 714.52,-479.2 714.52,-443.6 432.83,-443.6"/>
<polygon fill="none" stroke="black" points="432.83,-443.6 432.83,-479.2 714.52,-479.2 714.52,-443.6 432.83,-443.6"/>
<text text-anchor="start" x="448.2" y="-457" font-family="Arial Bold" font-size="18.00">public.employees</text>
<text text-anchor="start" x="574.66" y="-457" font-family="Arial" font-size="14.00">    </text>
<text text-anchor="start" x="605.78" y="-457" font-family="Arial" font-size="14.00" fill="#666666">[BASE TABLE]</text>
<polygon fill="none" stroke="black" points="432.83,-412.8 432.83,-443.6 714.52,-443.6 714.52,-412.8 432.83,-412.8"/>
<text text-anchor="start" x="439.83" y="-425" font-family="Arial" font-size="14.00">id </text>
<text text-anchor="start" x="454.62" y="-425" font-family="Arial" font-size="14.00" fill="#666666">[uuid]</text>
<polygon fill="none" stroke="black" points="432.83,-382 432.83,-412.8 714.52,-412.8 714.52,-382 432.83,-382"/>
<text text-anchor="start" x="439.83" y="-394.2" font-family="Arial" font-size="14.00">org_id </text>
<text text-anchor="start" x="482.64" y="-394.2" font-family="Arial" font-size="14.00" fill="#666666">[uuid]</text>
<polygon fill="none" stroke="black" points="432.83,-351.2 432.83,-382 714.52,-382 714.52,-351.2 432.83,-351.2"/>
<text text-anchor="start" x="439.83" y="-363.4" font-family="Arial" font-size="14.00">team_id </text>
<text text-anchor="start" x="493.53" y="-363.4" font-family="Arial" font-size="14.00" fill="#666666">[uuid]</text>
<polygon fill="none" stroke="black" points="432.83,-320.4 432.83,-351.2 714.52,-351.2 714.52,-320.4 432.83,-320.4"/>
<text text-anchor="start" x="439.83" y="-332.6" font-family="Arial" font-size="14.00">role_id </text>
<text text-anchor="start" x="485.75" y="-332.6" font-family="Arial" font-size="14.00" fill="#666666">[uuid]</text>
<polygon fill="none" stroke="black" points="432.83,-289.6 432.83,-320.4 714.52,-320.4 714.52,-289.6 432.83,-289.6"/>
<text text-anchor="start" x="439.83" y="-301.8" font-family="Arial" font-size="14.00">email </text>
<text text-anchor="start" x="477.18" y="-301.8" font-family="Arial" font-size="14.00" fill="#666666">[varchar(255)]</text>
<polygon fill="none" stroke="black" points="432.83,-258.8 432.83,-289.6 714.52,-289.6 714.52,-258.8 432.83,-258.8"/>
<text text-anchor="start" x="439.83" y="-271" font-family="Arial" font-size="14.00">full_name </text>
<text text-anchor="start" x="504.42" y="-271" font-family="Arial" font-size="14.00" fill="#666666">[varchar(255)]</text>
<polygon fill="none" stroke="black" points="432.83,-228 432.83,-258.8 714.52,-258.8 714.52,-228 432.83,-228"/>
<text text-anchor="start" x="439.83" y="-240.2" font-family="Arial" font-size="14.00">password_hash </text>
<text text-anchor="start" x="541.78" y="-240.2" font-family="Arial" font-size="14.00" fill="#666666">[varchar(255)]</text>
<polygon fill="none" stroke="black" points="432.83,-197.2 432.83,-228 714.52,-228 714.52,-197.2 432.83,-197.2"/>
<text text-anchor="start" x="439.83" y="-209.4" font-family="Arial" font-size="14.00">status </text>
<text text-anchor="start" x="481.07" y="-209.4" font-family="Arial" font-size="14.00" fill="#666666">[varchar(50)]</text>
<polygon fill="none" stroke="black" points="432.83,-166.4 432.83,-197.2 714.52,-197.2 714.52,-166.4 432.83,-166.4"/>
<text text-anchor="start" x="439.83" y="-178.6" font-family="Arial" font-size="14.00">preferences </text>
<text text-anchor="start" x="517.65" y="-178.6" font-family="Arial" font-size="14.00" fill="#666666">[jsonb]</text>
<polygon fill="none" stroke="black" points="432.83,-135.6 432.83,-166.4 714.52,-166.4 714.52,-135.6 432.83,-135.6"/>
<text text-anchor="start" x="439.83" y="-147.8" font-family="Arial" font-size="14.00">last_login_at </text>
<text text-anchor="start" x="522.33" y="-147.8" font-family="Arial" font-size="14.00" fill="#666666">[timestamp without time zone]</text>
<polygon fill="none" stroke="black" points="432.83,-104.8 432.83,-135.6 714.52,-135.6 714.52,-104.8 432.83,-104.8"/>
<text text-anchor="start" x="439.83" y="-117" font-family="Arial" font-size="14.00">created_at </text>
<text text-anchor="start" x="509.88" y="-117" font-family="Arial" font-size="14.00" fill="#666666">[timestamp without time zone]</text>
<polygon fill="none" stroke="black" points="432.83,-74 432.83,-104.8 714.52,-104.8 714.52,-74 432.83,-74"/>
<text text-anchor="start" x="439.83" y="-86.2" font-family="Arial" font-size="14.00">updated_at </text>
<text text-anchor="start" x="513.79" y="-86.2" font-family="Arial" font-size="14.00" fill="#666666">[timestamp without time zone]</text>
<polygon fill="none" stroke="black" points="432.83,-43.2 432.83,-74 714.52,-74 714.52,-43.2 432.83,-43.2"/>
<text text-anchor="start" x="439.83" y="-55.4" font-family="Arial" font-size="14.00">deleted_at </text>
<text text-anchor="start" x="509.11" y="-55.4" font-family="Arial" font-size="14.00" fill="#666666">[timestamp without time zone]</text>
</g>
<!-- public.usage_records&#45;&gt;public.employees -->
<g id="edge2" class="edge">
<title>public.usage_records:employee_id&#45;&gt;public.employees:id</title>
<path fill="none" stroke="black" d="M728.9,-861.17C768.06,-811.73 761.07,-428.2 715.52,-428.2"/>
<polygon fill="black" stroke="black" points="729.02,-861.1 718.12,-862.36 724.44,-863.84 720.72,-866.06 720.72,-866.06 720.72,-866.06 724.44,-863.84 722.74,-870.09 729.02,-861.1"/>
<text text-anchor="start" x="727.14" y="-876.4" font-family="Arial" font-size="10.00">FOREIGN KEY (employee_id) REFERENCES employees(id) ON DELETE SET NULL</text>
</g>
<!-- public.employee_agent_configs -->
<g id="node4" class="node">
<title>public.employee_agent_configs</title>
<polygon fill="#efefef" stroke="none" points="818.72,-382 818.72,-417.6 1186.63,-417.6 1186.63,-382 818.72,-382"/>
<polygon fill="none" stroke="black" points="818.72,-382 818.72,-417.6 1186.63,-417.6 1186.63,-382 818.72,-382"/>
<text text-anchor="start" x="825.72" y="-395.4" font-family="Arial Bold" font-size="18.00">public.employee_agent_configs</text>
<text text-anchor="start" x="1055.15" y="-395.4" font-family="Arial" font-size="14.00">    </text>
<text text-anchor="start" x="1086.26" y="-395.4" font-family="Arial" font-size="14.00" fill="#666666">[BASE TABLE]</text>
<polygon fill="none" stroke="black" points="818.72,-351.2 818.72,-382 1186.63,-382 1186.63,-351.2 818.72,-351.2"/>
<text text-anchor="start" x="825.72" y="-363.4" font-family="Arial" font-size="14.00">id </text>
<text text-anchor="start" x="840.5" y="-363.4" font-family="Arial" font-size="14.00" fill="#666666">[uuid]</text>
<polygon fill="none" stroke="black" points="818.72,-320.4 818.72,-351.2 1186.63,-351.2 1186.63,-320.4 818.72,-320.4"/>
<text text-anchor="start" x="825.72" y="-332.6" font-family="Arial" font-size="14.00">employee_id </text>
<text text-anchor="start" x="908.99" y="-332.6" font-family="Arial" font-size="14.00" fill="#666666">[uuid]</text>
<polygon fill="none" stroke="black" points="818.72,-289.6 818.72,-320.4 1186.63,-320.4 1186.63,-289.6 818.72,-289.6"/>
<text text-anchor="start" x="825.72" y="-301.8" font-family="Arial" font-size="14.00">agent_id </text>
<text text-anchor="start" x="883.32" y="-301.8" font-family="Arial" font-size="14.00" fill="#666666">[uuid]</text>
<polygon fill="none" stroke="black" points="818.72,-258.8 818.72,-289.6 1186.63,-289.6 1186.63,-258.8 818.72,-258.8"/>
<text text-anchor="start" x="825.72" y="-271" font-family="Arial" font-size="14.00">config_override </text>
<text text-anchor="start" x="925.33" y="-271" font-family="Arial" font-size="14.00" fill="#666666">[jsonb]</text>
<polygon fill="none" stroke="black" points="818.72,-228 818.72,-258.8 1186.63,-258.8 1186.63,-228 818.72,-228"/>
<text text-anchor="start" x="825.72" y="-240.2" font-family="Arial" font-size="14.00">is_enabled </text>
<text text-anchor="start" x="897.33" y="-240.2" font-family="Arial" font-size="14.00" fill="#666666">[boolean]</text>
<polygon fill="none" stroke="black" points="818.72,-197.2 818.72,-228 1186.63,-228 1186.63,-197.2 818.72,-197.2"/>
<text text-anchor="start" x="825.72" y="-209.4" font-family="Arial" font-size="14.00">sync_token </text>
<text text-anchor="start" x="900.43" y="-209.4" font-family="Arial" font-size="14.00" fill="#666666">[varchar(255)]</text>
<polygon fill="none" stroke="black" points="818.72,-166.4 818.72,-197.2 1186.63,-197.2 1186.63,-166.4 818.72,-166.4"/>
<text text-anchor="start" x="825.72" y="-178.6" font-family="Arial" font-size="14.00">last_synced_at </text>
<text text-anchor="start" x="923" y="-178.6" font-family="Arial" font-size="14.00" fill="#666666">[timestamp without time zone]</text>
<polygon fill="none" stroke="black" points="818.72,-135.6 818.72,-166.4 1186.63,-166.4 1186.63,-135.6 818.72,-135.6"/>
<text text-anchor="start" x="825.72" y="-147.8" font-family="Arial" font-size="14.00">created_at </text>
<text text-anchor="start" x="895.76" y="-147.8" font-family="Arial" font-size="14.00" fill="#666666">[timestamp without time zone]</text>
<polygon fill="none" stroke="black" points="818.72,-104.8 818.72,-135.6 1186.63,-135.6 1186.63,-104.8 818.72,-104.8"/>
<text text-anchor="start" x="825.72" y="-117" font-family="Arial" font-size="14.00">updated_at </text>
<text text-anchor="start" x="899.67" y="-117" font-family="Arial" font-size="14.00" fill="#666666">[timestamp without time zone]</text>
</g>
<!-- public.usage_records&#45;&gt;public.employee_agent_configs -->
<g id="edge3" class="edge">
<title>public.usage_records:agent_config_id&#45;&gt;public.employee_agent_configs:id</title>
<path fill="none" stroke="black" d="M730.3,-833.99C818.97,-804.09 714.9,-366.6 817.72,-366.6"/>
<polygon fill="black" stroke="black" points="730.35,-833.99 719.77,-831.1 725.08,-834.82 720.8,-835.5 720.8,-835.5 720.8,-835.5 725.08,-834.82 721.18,-839.99 730.35,-833.99"/>
<text text-anchor="start" x="727.14" y="-845.6" font-family="Arial" font-size="10.00">FOREIGN KEY (agent_config_id) REFERENCES employee_agent_configs(id) ON DELETE SET NULL</text>
</g>
</g>
</svg>
