<?xml version="1.0" encoding="UTF-8" standalone="no"?>
<!DOCTYPE svg PUBLIC "-//W3C//DTD SVG 1.1//EN"
 "http://www.w3.org/Graphics/SVG/1.1/DTD/svg11.dtd">
<!-- Generated by graphviz version 12.1.2 (20240928.0832)
 -->
<!-- Title: public.system_prompts Pages: 1 -->
<svg width="720pt" height="910pt"
 viewBox="0.00 0.00 720.28 910.00" xmlns="http://www.w3.org/2000/svg" xmlns:xlink="http://www.w3.org/1999/xlink">
<g id="graph0" class="graph" transform="scale(1 1) rotate(0) translate(4 906)">
<title>public.system_prompts</title>
<polygon fill="white" stroke="none" points="-4,4 -4,-906 716.28,-906 716.28,4 -4,4"/>
<!-- public.system_prompts -->
<g id="node1" class="node">
<title>public.system_prompts</title>
<polygon fill="#efefef" stroke="none" points="46.2,-820.2 46.2,-855.8 352.18,-855.8 352.18,-820.2 46.2,-820.2"/>
<polygon fill="none" stroke="black" points="46.2,-820.2 46.2,-855.8 352.18,-855.8 352.18,-820.2 46.2,-820.2"/>
<text text-anchor="start" x="53.2" y="-833.6" font-family="Arial Bold" font-size="18.00">public.system_prompts</text>
<text text-anchor="start" x="220.69" y="-833.6" font-family="Arial" font-size="14.00">    </text>
<text text-anchor="start" x="251.81" y="-833.6" font-family="Arial" font-size="14.00" fill="#666666">[BASE TABLE]</text>
<polygon fill="none" stroke="black" points="46.2,-789.4 46.2,-820.2 352.18,-820.2 352.18,-789.4 46.2,-789.4"/>
<text text-anchor="start" x="53.2" y="-801.6" font-family="Arial" font-size="14.00">id </text>
<text text-anchor="start" x="67.99" y="-801.6" font-family="Arial" font-size="14.00" fill="#666666">[uuid]</text>
<polygon fill="none" stroke="black" points="46.2,-758.6 46.2,-789.4 352.18,-789.4 352.18,-758.6 46.2,-758.6"/>
<text text-anchor="start" x="53.2" y="-770.8" font-family="Arial" font-size="14.00">scope_type </text>
<text text-anchor="start" x="128.7" y="-770.8" font-family="Arial" font-size="14.00" fill="#666666">[varchar(20)]</text>
<polygon fill="none" stroke="black" points="46.2,-727.8 46.2,-758.6 352.18,-758.6 352.18,-727.8 46.2,-727.8"/>
<text text-anchor="start" x="53.2" y="-740" font-family="Arial" font-size="14.00">scope_id </text>
<text text-anchor="start" x="113.13" y="-740" font-family="Arial" font-size="14.00" fill="#666666">[uuid]</text>
<polygon fill="none" stroke="black" points="46.2,-697 46.2,-727.8 352.18,-727.8 352.18,-697 46.2,-697"/>
<text text-anchor="start" x="53.2" y="-709.2" font-family="Arial" font-size="14.00">agent_id </text>
<text text-anchor="start" x="110.81" y="-709.2" font-family="Arial" font-size="14.00" fill="#666666">[uuid]</text>
<polygon fill="none" stroke="black" points="46.2,-666.2 46.2,-697 352.18,-697 352.18,-666.2 46.2,-666.2"/>
<text text-anchor="start" x="53.2" y="-678.4" font-family="Arial" font-size="14.00">prompt </text>
<text text-anchor="start" x="100.66" y="-678.4" font-family="Arial" font-size="14.00" fill="#666666">[text]</text>
<polygon fill="none" stroke="black" points="46.2,-635.4 46.2,-666.2 352.18,-666.2 352.18,-635.4 46.2,-635.4"/>
<text text-anchor="start" x="53.2" y="-647.6" font-family="Arial" font-size="14.00">priority </text>
<text text-anchor="start" x="99.1" y="-647.6" font-family="Arial" font-size="14.00" fill="#666666">[integer]</text>
<polygon fill="none" stroke="black" points="46.2,-604.6 46.2,-635.4 352.18,-635.4 352.18,-604.6 46.2,-604.6"/>
<text text-anchor="start" x="53.2" y="-616.8" font-family="Arial" font-size="14.00">created_at </text>
<text text-anchor="start" x="123.25" y="-616.8" font-family="Arial" font-size="14.00" fill="#666666">[timestamp without time zone]</text>
<polygon fill="none" stroke="black" points="46.2,-573.8 46.2,-604.6 352.18,-604.6 352.18,-573.8 46.2,-573.8"/>
<text text-anchor="start" x="53.2" y="-586" font-family="Arial" font-size="14.00">updated_at </text>
<text text-anchor="start" x="127.16" y="-586" font-family="Arial" font-size="14.00" fill="#666666">[timestamp without time zone]</text>
<polygon fill="none" stroke="black" stroke-width="3" points="44.7,-572.3 44.7,-857.3 353.68,-857.3 353.68,-572.3 44.7,-572.3"/>
</g>
<!-- public.agents -->
<g id="node2" class="node">
<title>public.agents</title>
<polygon fill="#efefef" stroke="none" points="62.62,-412.8 62.62,-448.4 335.76,-448.4 335.76,-412.8 62.62,-412.8"/>
<polygon fill="none" stroke="black" points="62.62,-412.8 62.62,-448.4 335.76,-448.4 335.76,-412.8 62.62,-412.8"/>
<text text-anchor="start" x="89.21" y="-426.2" font-family="Arial Bold" font-size="18.00">public.agents</text>
<text text-anchor="start" x="184.68" y="-426.2" font-family="Arial" font-size="14.00">    </text>
<text text-anchor="start" x="215.8" y="-426.2" font-family="Arial" font-size="14.00" fill="#666666">[BASE TABLE]</text>
<polygon fill="none" stroke="black" points="62.62,-382 62.62,-412.8 335.76,-412.8 335.76,-382 62.62,-382"/>
<text text-anchor="start" x="69.62" y="-394.2" font-family="Arial" font-size="14.00">id </text>
<text text-anchor="start" x="84.41" y="-394.2" font-family="Arial" font-size="14.00" fill="#666666">[uuid]</text>
<polygon fill="none" stroke="black" points="62.62,-351.2 62.62,-382 335.76,-382 335.76,-351.2 62.62,-351.2"/>
<text text-anchor="start" x="69.62" y="-363.4" font-family="Arial" font-size="14.00">name </text>
<text text-anchor="start" x="108.53" y="-363.4" font-family="Arial" font-size="14.00" fill="#666666">[varchar(255)]</text>
<polygon fill="none" stroke="black" points="62.62,-320.4 62.62,-351.2 335.76,-351.2 335.76,-320.4 62.62,-320.4"/>
<text text-anchor="start" x="69.62" y="-332.6" font-family="Arial" font-size="14.00">type </text>
<text text-anchor="start" x="99.97" y="-332.6" font-family="Arial" font-size="14.00" fill="#666666">[varchar(100)]</text>
<polygon fill="none" stroke="black" points="62.62,-289.6 62.62,-320.4 335.76,-320.4 335.76,-289.6 62.62,-289.6"/>
<text text-anchor="start" x="69.62" y="-301.8" font-family="Arial" font-size="14.00">description </text>
<text text-anchor="start" x="141.21" y="-301.8" font-family="Arial" font-size="14.00" fill="#666666">[text]</text>
<polygon fill="none" stroke="black" points="62.62,-258.8 62.62,-289.6 335.76,-289.6 335.76,-258.8 62.62,-258.8"/>
<text text-anchor="start" x="69.62" y="-271" font-family="Arial" font-size="14.00">provider </text>
<text text-anchor="start" x="124.09" y="-271" font-family="Arial" font-size="14.00" fill="#666666">[varchar(100)]</text>
<polygon fill="none" stroke="black" points="62.62,-228 62.62,-258.8 335.76,-258.8 335.76,-228 62.62,-228"/>
<text text-anchor="start" x="69.62" y="-240.2" font-family="Arial" font-size="14.00">default_config </text>
<text text-anchor="start" x="160.69" y="-240.2" font-family="Arial" font-size="14.00" fill="#666666">[jsonb]</text>
<polygon fill="none" stroke="black" points="62.62,-197.2 62.62,-228 335.76,-228 335.76,-197.2 62.62,-197.2"/>
<text text-anchor="start" x="69.62" y="-209.4" font-family="Arial" font-size="14.00">capabilities </text>
<text text-anchor="start" x="142.77" y="-209.4" font-family="Arial" font-size="14.00" fill="#666666">[jsonb]</text>
<polygon fill="none" stroke="black" points="62.62,-166.4 62.62,-197.2 335.76,-197.2 335.76,-166.4 62.62,-166.4"/>
<text text-anchor="start" x="69.62" y="-178.6" font-family="Arial" font-size="14.00">llm_provider </text>
<text text-anchor="start" x="149.76" y="-178.6" font-family="Arial" font-size="14.00" fill="#666666">[varchar(50)]</text>
<polygon fill="none" stroke="black" points="62.62,-135.6 62.62,-166.4 335.76,-166.4 335.76,-135.6 62.62,-135.6"/>
<text text-anchor="start" x="69.62" y="-147.8" font-family="Arial" font-size="14.00">llm_model </text>
<text text-anchor="start" x="137.31" y="-147.8" font-family="Arial" font-size="14.00" fill="#666666">[varchar(100)]</text>
<polygon fill="none" stroke="black" points="62.62,-104.8 62.62,-135.6 335.76,-135.6 335.76,-104.8 62.62,-104.8"/>
<text text-anchor="start" x="69.62" y="-117" font-family="Arial" font-size="14.00">is_public </text>
<text text-anchor="start" x="127.98" y="-117" font-family="Arial" font-size="14.00" fill="#666666">[boolean]</text>
<polygon fill="none" stroke="black" points="62.62,-74 62.62,-104.8 335.76,-104.8 335.76,-74 62.62,-74"/>
<text text-anchor="start" x="69.62" y="-86.2" font-family="Arial" font-size="14.00">created_at </text>
<text text-anchor="start" x="139.67" y="-86.2" font-family="Arial" font-size="14.00" fill="#666666">[timestamp without time zone]</text>
<polygon fill="none" stroke="black" points="62.62,-43.2 62.62,-74 335.76,-74 335.76,-43.2 62.62,-43.2"/>
<text text-anchor="start" x="69.62" y="-55.4" font-family="Arial" font-size="14.00">updated_at </text>
<text text-anchor="start" x="143.58" y="-55.4" font-family="Arial" font-size="14.00" fill="#666666">[timestamp without time zone]</text>
</g>
<!-- public.system_prompts&#45;&gt;public.agents -->
<g id="edge1" class="edge">
<title>public.system_prompts:agent_id&#45;&gt;public.agents:id</title>
<path fill="none" stroke="black" d="M363.2,-710.05C421.47,-681.22 403.3,-397.4 336.76,-397.4"/>
<polygon fill="black" stroke="black" points="363.24,-710.03 352.48,-707.94 358.05,-711.26 353.83,-712.25 353.83,-712.25 353.83,-712.25 358.05,-711.26 354.54,-716.7 363.24,-710.03"/>
<text text-anchor="start" x="360.18" y="-722.4" font-family="Arial" font-size="10.00">FOREIGN KEY (agent_id) REFERENCES agents(id) ON DELETE CASCADE</text>
</g>
</g>
</svg>
