<?xml version="1.0" encoding="UTF-8" standalone="no"?>
<!DOCTYPE svg PUBLIC "-//W3C//DTD SVG 1.1//EN"
 "http://www.w3.org/Graphics/SVG/1.1/DTD/svg11.dtd">
<!-- Generated by graphviz version 12.1.2 (20240928.0832)
 -->
<!-- Title: public.employee_mcp_configs Pages: 1 -->
<svg width="1183pt" height="1002pt"
 viewBox="0.00 0.00 1183.15 1002.40" xmlns="http://www.w3.org/2000/svg" xmlns:xlink="http://www.w3.org/1999/xlink">
<g id="graph0" class="graph" transform="scale(1 1) rotate(0) translate(4 998.4)">
<title>public.employee_mcp_configs</title>
<polygon fill="white" stroke="none" points="-4,4 -4,-998.4 1179.15,-998.4 1179.15,4 -4,4"/>
<!-- public.employee_mcp_configs -->
<g id="node1" class="node">
<title>public.employee_mcp_configs</title>
<polygon fill="#efefef" stroke="none" points="396.77,-912.6 396.77,-948.2 756.7,-948.2 756.7,-912.6 396.77,-912.6"/>
<polygon fill="none" stroke="black" points="396.77,-912.6 396.77,-948.2 756.7,-948.2 756.7,-912.6 396.77,-912.6"/>
<text text-anchor="start" x="403.77" y="-926" font-family="Arial Bold" font-size="18.00">public.employee_mcp_configs</text>
<text text-anchor="start" x="625.21" y="-926" font-family="Arial" font-size="14.00">    </text>
<text text-anchor="start" x="656.33" y="-926" font-family="Arial" font-size="14.00" fill="#666666">[BASE TABLE]</text>
<polygon fill="none" stroke="black" points="396.77,-881.8 396.77,-912.6 756.7,-912.6 756.7,-881.8 396.77,-881.8"/>
<text text-anchor="start" x="403.77" y="-894" font-family="Arial" font-size="14.00">id </text>
<text text-anchor="start" x="418.56" y="-894" font-family="Arial" font-size="14.00" fill="#666666">[uuid]</text>
<polygon fill="none" stroke="black" points="396.77,-851 396.77,-881.8 756.7,-881.8 756.7,-851 396.77,-851"/>
<text text-anchor="start" x="403.77" y="-863.2" font-family="Arial" font-size="14.00">employee_id </text>
<text text-anchor="start" x="487.05" y="-863.2" font-family="Arial" font-size="14.00" fill="#666666">[uuid]</text>
<polygon fill="none" stroke="black" points="396.77,-820.2 396.77,-851 756.7,-851 756.7,-820.2 396.77,-820.2"/>
<text text-anchor="start" x="403.77" y="-832.4" font-family="Arial" font-size="14.00">mcp_catalog_id </text>
<text text-anchor="start" x="505.72" y="-832.4" font-family="Arial" font-size="14.00" fill="#666666">[uuid]</text>
<polygon fill="none" stroke="black" points="396.77,-789.4 396.77,-820.2 756.7,-820.2 756.7,-789.4 396.77,-789.4"/>
<text text-anchor="start" x="403.77" y="-801.6" font-family="Arial" font-size="14.00">status </text>
<text text-anchor="start" x="445.01" y="-801.6" font-family="Arial" font-size="14.00" fill="#666666">[varchar(50)]</text>
<polygon fill="none" stroke="black" points="396.77,-758.6 396.77,-789.4 756.7,-789.4 756.7,-758.6 396.77,-758.6"/>
<text text-anchor="start" x="403.77" y="-770.8" font-family="Arial" font-size="14.00">connection_config </text>
<text text-anchor="start" x="520.52" y="-770.8" font-family="Arial" font-size="14.00" fill="#666666">[jsonb]</text>
<polygon fill="none" stroke="black" points="396.77,-727.8 396.77,-758.6 756.7,-758.6 756.7,-727.8 396.77,-727.8"/>
<text text-anchor="start" x="403.77" y="-740" font-family="Arial" font-size="14.00">credentials_encrypted </text>
<text text-anchor="start" x="544.63" y="-740" font-family="Arial" font-size="14.00" fill="#666666">[text]</text>
<polygon fill="none" stroke="black" points="396.77,-697 396.77,-727.8 756.7,-727.8 756.7,-697 396.77,-697"/>
<text text-anchor="start" x="403.77" y="-709.2" font-family="Arial" font-size="14.00">sync_token </text>
<text text-anchor="start" x="478.48" y="-709.2" font-family="Arial" font-size="14.00" fill="#666666">[varchar(255)]</text>
<polygon fill="none" stroke="black" points="396.77,-666.2 396.77,-697 756.7,-697 756.7,-666.2 396.77,-666.2"/>
<text text-anchor="start" x="403.77" y="-678.4" font-family="Arial" font-size="14.00">last_sync_at </text>
<text text-anchor="start" x="485.48" y="-678.4" font-family="Arial" font-size="14.00" fill="#666666">[timestamp without time zone]</text>
<polygon fill="none" stroke="black" points="396.77,-635.4 396.77,-666.2 756.7,-666.2 756.7,-635.4 396.77,-635.4"/>
<text text-anchor="start" x="403.77" y="-647.6" font-family="Arial" font-size="14.00">created_at </text>
<text text-anchor="start" x="473.82" y="-647.6" font-family="Arial" font-size="14.00" fill="#666666">[timestamp without time zone]</text>
<polygon fill="none" stroke="black" points="396.77,-604.6 396.77,-635.4 756.7,-635.4 756.7,-604.6 396.77,-604.6"/>
<text text-anchor="start" x="403.77" y="-616.8" font-family="Arial" font-size="14.00">updated_at </text>
<text text-anchor="start" x="477.73" y="-616.8" font-family="Arial" font-size="14.00" fill="#666666">[timestamp without time zone]</text>
<polygon fill="none" stroke="black" stroke-width="3" points="395.27,-603.1 395.27,-949.7 758.2,-949.7 758.2,-603.1 395.27,-603.1"/>
</g>
<!-- public.employees -->
<g id="node2" class="node">
<title>public.employees</title>
<polygon fill="#efefef" stroke="none" points="243.89,-443.6 243.89,-479.2 525.58,-479.2 525.58,-443.6 243.89,-443.6"/>
<polygon fill="none" stroke="black" points="243.89,-443.6 243.89,-479.2 525.58,-479.2 525.58,-443.6 243.89,-443.6"/>
<text text-anchor="start" x="259.26" y="-457" font-family="Arial Bold" font-size="18.00">public.employees</text>
<text text-anchor="start" x="385.73" y="-457" font-family="Arial" font-size="14.00">    </text>
<text text-anchor="start" x="416.84" y="-457" font-family="Arial" font-size="14.00" fill="#666666">[BASE TABLE]</text>
<polygon fill="none" stroke="black" points="243.89,-412.8 243.89,-443.6 525.58,-443.6 525.58,-412.8 243.89,-412.8"/>
<text text-anchor="start" x="250.89" y="-425" font-family="Arial" font-size="14.00">id </text>
<text text-anchor="start" x="265.68" y="-425" font-family="Arial" font-size="14.00" fill="#666666">[uuid]</text>
<polygon fill="none" stroke="black" points="243.89,-382 243.89,-412.8 525.58,-412.8 525.58,-382 243.89,-382"/>
<text text-anchor="start" x="250.89" y="-394.2" font-family="Arial" font-size="14.00">org_id </text>
<text text-anchor="start" x="293.7" y="-394.2" font-family="Arial" font-size="14.00" fill="#666666">[uuid]</text>
<polygon fill="none" stroke="black" points="243.89,-351.2 243.89,-382 525.58,-382 525.58,-351.2 243.89,-351.2"/>
<text text-anchor="start" x="250.89" y="-363.4" font-family="Arial" font-size="14.00">team_id </text>
<text text-anchor="start" x="304.59" y="-363.4" font-family="Arial" font-size="14.00" fill="#666666">[uuid]</text>
<polygon fill="none" stroke="black" points="243.89,-320.4 243.89,-351.2 525.58,-351.2 525.58,-320.4 243.89,-320.4"/>
<text text-anchor="start" x="250.89" y="-332.6" font-family="Arial" font-size="14.00">role_id </text>
<text text-anchor="start" x="296.81" y="-332.6" font-family="Arial" font-size="14.00" fill="#666666">[uuid]</text>
<polygon fill="none" stroke="black" points="243.89,-289.6 243.89,-320.4 525.58,-320.4 525.58,-289.6 243.89,-289.6"/>
<text text-anchor="start" x="250.89" y="-301.8" font-family="Arial" font-size="14.00">email </text>
<text text-anchor="start" x="288.24" y="-301.8" font-family="Arial" font-size="14.00" fill="#666666">[varchar(255)]</text>
<polygon fill="none" stroke="black" points="243.89,-258.8 243.89,-289.6 525.58,-289.6 525.58,-258.8 243.89,-258.8"/>
<text text-anchor="start" x="250.89" y="-271" font-family="Arial" font-size="14.00">full_name </text>
<text text-anchor="start" x="315.49" y="-271" font-family="Arial" font-size="14.00" fill="#666666">[varchar(255)]</text>
<polygon fill="none" stroke="black" points="243.89,-228 243.89,-258.8 525.58,-258.8 525.58,-228 243.89,-228"/>
<text text-anchor="start" x="250.89" y="-240.2" font-family="Arial" font-size="14.00">password_hash </text>
<text text-anchor="start" x="352.84" y="-240.2" font-family="Arial" font-size="14.00" fill="#666666">[varchar(255)]</text>
<polygon fill="none" stroke="black" points="243.89,-197.2 243.89,-228 525.58,-228 525.58,-197.2 243.89,-197.2"/>
<text text-anchor="start" x="250.89" y="-209.4" font-family="Arial" font-size="14.00">status </text>
<text text-anchor="start" x="292.13" y="-209.4" font-family="Arial" font-size="14.00" fill="#666666">[varchar(50)]</text>
<polygon fill="none" stroke="black" points="243.89,-166.4 243.89,-197.2 525.58,-197.2 525.58,-166.4 243.89,-166.4"/>
<text text-anchor="start" x="250.89" y="-178.6" font-family="Arial" font-size="14.00">preferences </text>
<text text-anchor="start" x="328.71" y="-178.6" font-family="Arial" font-size="14.00" fill="#666666">[jsonb]</text>
<polygon fill="none" stroke="black" points="243.89,-135.6 243.89,-166.4 525.58,-166.4 525.58,-135.6 243.89,-135.6"/>
<text text-anchor="start" x="250.89" y="-147.8" font-family="Arial" font-size="14.00">last_login_at </text>
<text text-anchor="start" x="333.4" y="-147.8" font-family="Arial" font-size="14.00" fill="#666666">[timestamp without time zone]</text>
<polygon fill="none" stroke="black" points="243.89,-104.8 243.89,-135.6 525.58,-135.6 525.58,-104.8 243.89,-104.8"/>
<text text-anchor="start" x="250.89" y="-117" font-family="Arial" font-size="14.00">created_at </text>
<text text-anchor="start" x="320.94" y="-117" font-family="Arial" font-size="14.00" fill="#666666">[timestamp without time zone]</text>
<polygon fill="none" stroke="black" points="243.89,-74 243.89,-104.8 525.58,-104.8 525.58,-74 243.89,-74"/>
<text text-anchor="start" x="250.89" y="-86.2" font-family="Arial" font-size="14.00">updated_at </text>
<text text-anchor="start" x="324.85" y="-86.2" font-family="Arial" font-size="14.00" fill="#666666">[timestamp without time zone]</text>
<polygon fill="none" stroke="black" points="243.89,-43.2 243.89,-74 525.58,-74 525.58,-43.2 243.89,-43.2"/>
<text text-anchor="start" x="250.89" y="-55.4" font-family="Arial" font-size="14.00">deleted_at </text>
<text text-anchor="start" x="320.18" y="-55.4" font-family="Arial" font-size="14.00" fill="#666666">[timestamp without time zone]</text>
</g>
<!-- public.employee_mcp_configs&#45;&gt;public.employees -->
<g id="edge1" class="edge">
<title>public.employee_mcp_configs:employee_id&#45;&gt;public.employees:id</title>
<path fill="none" stroke="black" d="M385.34,-865.99C261.8,-855.96 316.03,-664.44 396.77,-558.4 432.78,-511.11 489.4,-569.56 525.58,-522.4 551.07,-489.18 568.45,-428.2 526.58,-428.2"/>
<polygon fill="black" stroke="black" points="385.45,-865.99 395.26,-870.88 390.78,-866.2 395.1,-866.37 395.1,-866.37 395.1,-866.37 390.78,-866.2 395.61,-861.89 385.45,-865.99"/>
<text text-anchor="start" x="7" y="-876.4" font-family="Arial" font-size="10.00">FOREIGN KEY (employee_id) REFERENCES employees(id) ON DELETE CASCADE</text>
</g>
<!-- public.mcp_catalog -->
<g id="node3" class="node">
<title>public.mcp_catalog</title>
<polygon fill="#efefef" stroke="none" points="629.77,-428.2 629.77,-463.8 909.71,-463.8 909.71,-428.2 629.77,-428.2"/>
<polygon fill="none" stroke="black" points="629.77,-428.2 629.77,-463.8 909.71,-463.8 909.71,-428.2 629.77,-428.2"/>
<text text-anchor="start" x="636.77" y="-441.6" font-family="Arial Bold" font-size="18.00">public.mcp_catalog</text>
<text text-anchor="start" x="778.22" y="-441.6" font-family="Arial" font-size="14.00">    </text>
<text text-anchor="start" x="809.34" y="-441.6" font-family="Arial" font-size="14.00" fill="#666666">[BASE TABLE]</text>
<polygon fill="none" stroke="black" points="629.77,-397.4 629.77,-428.2 909.71,-428.2 909.71,-397.4 629.77,-397.4"/>
<text text-anchor="start" x="636.77" y="-409.6" font-family="Arial" font-size="14.00">id </text>
<text text-anchor="start" x="651.55" y="-409.6" font-family="Arial" font-size="14.00" fill="#666666">[uuid]</text>
<polygon fill="none" stroke="black" points="629.77,-366.6 629.77,-397.4 909.71,-397.4 909.71,-366.6 629.77,-366.6"/>
<text text-anchor="start" x="636.77" y="-378.8" font-family="Arial" font-size="14.00">name </text>
<text text-anchor="start" x="675.68" y="-378.8" font-family="Arial" font-size="14.00" fill="#666666">[varchar(255)]</text>
<polygon fill="none" stroke="black" points="629.77,-335.8 629.77,-366.6 909.71,-366.6 909.71,-335.8 629.77,-335.8"/>
<text text-anchor="start" x="636.77" y="-348" font-family="Arial" font-size="14.00">provider </text>
<text text-anchor="start" x="691.24" y="-348" font-family="Arial" font-size="14.00" fill="#666666">[varchar(255)]</text>
<polygon fill="none" stroke="black" points="629.77,-305 629.77,-335.8 909.71,-335.8 909.71,-305 629.77,-305"/>
<text text-anchor="start" x="636.77" y="-317.2" font-family="Arial" font-size="14.00">version </text>
<text text-anchor="start" x="685.79" y="-317.2" font-family="Arial" font-size="14.00" fill="#666666">[varchar(50)]</text>
<polygon fill="none" stroke="black" points="629.77,-274.2 629.77,-305 909.71,-305 909.71,-274.2 629.77,-274.2"/>
<text text-anchor="start" x="636.77" y="-286.4" font-family="Arial" font-size="14.00">description </text>
<text text-anchor="start" x="708.36" y="-286.4" font-family="Arial" font-size="14.00" fill="#666666">[text]</text>
<polygon fill="none" stroke="black" points="629.77,-243.4 629.77,-274.2 909.71,-274.2 909.71,-243.4 629.77,-243.4"/>
<text text-anchor="start" x="636.77" y="-255.6" font-family="Arial" font-size="14.00">connection_schema </text>
<text text-anchor="start" x="765.18" y="-255.6" font-family="Arial" font-size="14.00" fill="#666666">[jsonb]</text>
<polygon fill="none" stroke="black" points="629.77,-212.6 629.77,-243.4 909.71,-243.4 909.71,-212.6 629.77,-212.6"/>
<text text-anchor="start" x="636.77" y="-224.8" font-family="Arial" font-size="14.00">capabilities </text>
<text text-anchor="start" x="709.92" y="-224.8" font-family="Arial" font-size="14.00" fill="#666666">[jsonb]</text>
<polygon fill="none" stroke="black" points="629.77,-181.8 629.77,-212.6 909.71,-212.6 909.71,-181.8 629.77,-181.8"/>
<text text-anchor="start" x="636.77" y="-194" font-family="Arial" font-size="14.00">requires_credentials </text>
<text text-anchor="start" x="766.73" y="-194" font-family="Arial" font-size="14.00" fill="#666666">[boolean]</text>
<polygon fill="none" stroke="black" points="629.77,-151 629.77,-181.8 909.71,-181.8 909.71,-151 629.77,-151"/>
<text text-anchor="start" x="636.77" y="-163.2" font-family="Arial" font-size="14.00">is_approved </text>
<text text-anchor="start" x="716.93" y="-163.2" font-family="Arial" font-size="14.00" fill="#666666">[boolean]</text>
<polygon fill="none" stroke="black" points="629.77,-120.2 629.77,-151 909.71,-151 909.71,-120.2 629.77,-120.2"/>
<text text-anchor="start" x="636.77" y="-132.4" font-family="Arial" font-size="14.00">category_id </text>
<text text-anchor="start" x="713.04" y="-132.4" font-family="Arial" font-size="14.00" fill="#666666">[uuid]</text>
<polygon fill="none" stroke="black" points="629.77,-89.4 629.77,-120.2 909.71,-120.2 909.71,-89.4 629.77,-89.4"/>
<text text-anchor="start" x="636.77" y="-101.6" font-family="Arial" font-size="14.00">created_at </text>
<text text-anchor="start" x="706.81" y="-101.6" font-family="Arial" font-size="14.00" fill="#666666">[timestamp without time zone]</text>
<polygon fill="none" stroke="black" points="629.77,-58.6 629.77,-89.4 909.71,-89.4 909.71,-58.6 629.77,-58.6"/>
<text text-anchor="start" x="636.77" y="-70.8" font-family="Arial" font-size="14.00">updated_at </text>
<text text-anchor="start" x="710.73" y="-70.8" font-family="Arial" font-size="14.00" fill="#666666">[timestamp without time zone]</text>
</g>
<!-- public.employee_mcp_configs&#45;&gt;public.mcp_catalog -->
<g id="edge2" class="edge">
<title>public.employee_mcp_configs:mcp_catalog_id&#45;&gt;public.mcp_catalog:id</title>
<path fill="none" stroke="black" d="M768.08,-835.16C877.66,-825.4 823.72,-657.45 756.7,-558.4 722.6,-507.99 664.05,-557.29 629.77,-507 606.18,-472.4 586.9,-412.8 628.77,-412.8"/>
<polygon fill="black" stroke="black" points="768.03,-835.16 757.84,-831.09 762.7,-835.39 758.37,-835.57 758.37,-835.57 758.37,-835.57 762.7,-835.39 758.23,-840.08 768.03,-835.16"/>
<text text-anchor="start" x="764.7" y="-845.6" font-family="Arial" font-size="10.00">FOREIGN KEY (mcp_catalog_id) REFERENCES mcp_catalog(id) ON DELETE CASCADE</text>
</g>
</g>
</svg>
