<?xml version="1.0" encoding="UTF-8" standalone="no"?>
<!DOCTYPE svg PUBLIC "-//W3C//DTD SVG 1.1//EN"
 "http://www.w3.org/Graphics/SVG/1.1/DTD/svg11.dtd">
<!-- Generated by graphviz version 12.1.2 (20240928.0832)
 -->
<!-- Title: public.policies Pages: 1 -->
<svg width="1233pt" height="664pt"
 viewBox="0.00 0.00 1232.66 663.60" xmlns="http://www.w3.org/2000/svg" xmlns:xlink="http://www.w3.org/1999/xlink">
<g id="graph0" class="graph" transform="scale(1 1) rotate(0) translate(4 659.6)">
<title>public.policies</title>
<polygon fill="white" stroke="none" points="-4,4 -4,-659.6 1228.66,-659.6 1228.66,4 -4,4"/>
<!-- public.policies -->
<g id="node1" class="node">
<title>public.policies</title>
<polygon fill="#efefef" stroke="none" points="473.42,-261.8 473.42,-297.4 746.57,-297.4 746.57,-261.8 473.42,-261.8"/>
<polygon fill="none" stroke="black" points="473.42,-261.8 473.42,-297.4 746.57,-297.4 746.57,-261.8 473.42,-261.8"/>
<text text-anchor="start" x="495.01" y="-275.2" font-family="Arial Bold" font-size="18.00">public.policies</text>
<text text-anchor="start" x="600.49" y="-275.2" font-family="Arial" font-size="14.00">    </text>
<text text-anchor="start" x="631.61" y="-275.2" font-family="Arial" font-size="14.00" fill="#666666">[BASE TABLE]</text>
<polygon fill="none" stroke="black" points="473.42,-231 473.42,-261.8 746.57,-261.8 746.57,-231 473.42,-231"/>
<text text-anchor="start" x="480.42" y="-243.2" font-family="Arial" font-size="14.00">id </text>
<text text-anchor="start" x="495.21" y="-243.2" font-family="Arial" font-size="14.00" fill="#666666">[uuid]</text>
<polygon fill="none" stroke="black" points="473.42,-200.2 473.42,-231 746.57,-231 746.57,-200.2 473.42,-200.2"/>
<text text-anchor="start" x="480.42" y="-212.4" font-family="Arial" font-size="14.00">name </text>
<text text-anchor="start" x="519.33" y="-212.4" font-family="Arial" font-size="14.00" fill="#666666">[varchar(100)]</text>
<polygon fill="none" stroke="black" points="473.42,-169.4 473.42,-200.2 746.57,-200.2 746.57,-169.4 473.42,-169.4"/>
<text text-anchor="start" x="480.42" y="-181.6" font-family="Arial" font-size="14.00">type </text>
<text text-anchor="start" x="510.78" y="-181.6" font-family="Arial" font-size="14.00" fill="#666666">[varchar(50)]</text>
<polygon fill="none" stroke="black" points="473.42,-138.6 473.42,-169.4 746.57,-169.4 746.57,-138.6 473.42,-138.6"/>
<text text-anchor="start" x="480.42" y="-150.8" font-family="Arial" font-size="14.00">rules </text>
<text text-anchor="start" x="514.66" y="-150.8" font-family="Arial" font-size="14.00" fill="#666666">[jsonb]</text>
<polygon fill="none" stroke="black" points="473.42,-107.8 473.42,-138.6 746.57,-138.6 746.57,-107.8 473.42,-107.8"/>
<text text-anchor="start" x="480.42" y="-120" font-family="Arial" font-size="14.00">severity </text>
<text text-anchor="start" x="532.55" y="-120" font-family="Arial" font-size="14.00" fill="#666666">[varchar(20)]</text>
<polygon fill="none" stroke="black" points="473.42,-77 473.42,-107.8 746.57,-107.8 746.57,-77 473.42,-77"/>
<text text-anchor="start" x="480.42" y="-89.2" font-family="Arial" font-size="14.00">created_at </text>
<text text-anchor="start" x="550.47" y="-89.2" font-family="Arial" font-size="14.00" fill="#666666">[timestamp without time zone]</text>
<polygon fill="none" stroke="black" points="473.42,-46.2 473.42,-77 746.57,-77 746.57,-46.2 473.42,-46.2"/>
<text text-anchor="start" x="480.42" y="-58.4" font-family="Arial" font-size="14.00">updated_at </text>
<text text-anchor="start" x="554.38" y="-58.4" font-family="Arial" font-size="14.00" fill="#666666">[timestamp without time zone]</text>
<polygon fill="none" stroke="black" stroke-width="3" points="471.92,-44.7 471.92,-298.9 748.07,-298.9 748.07,-44.7 471.92,-44.7"/>
</g>
<!-- public.agent_policies -->
<g id="node2" class="node">
<title>public.agent_policies</title>
<polygon fill="#efefef" stroke="none" points="70.02,-546 70.02,-581.6 361.97,-581.6 361.97,-546 70.02,-546"/>
<polygon fill="none" stroke="black" points="70.02,-546 70.02,-581.6 361.97,-581.6 361.97,-546 70.02,-546"/>
<text text-anchor="start" x="77.02" y="-559.4" font-family="Arial Bold" font-size="18.00">public.agent_policies</text>
<text text-anchor="start" x="230.48" y="-559.4" font-family="Arial" font-size="14.00">    </text>
<text text-anchor="start" x="261.6" y="-559.4" font-family="Arial" font-size="14.00" fill="#666666">[BASE TABLE]</text>
<polygon fill="none" stroke="black" points="70.02,-515.2 70.02,-546 361.97,-546 361.97,-515.2 70.02,-515.2"/>
<text text-anchor="start" x="77.02" y="-527.4" font-family="Arial" font-size="14.00">agent_id </text>
<text text-anchor="start" x="134.63" y="-527.4" font-family="Arial" font-size="14.00" fill="#666666">[uuid]</text>
<polygon fill="none" stroke="black" points="70.02,-484.4 70.02,-515.2 361.97,-515.2 361.97,-484.4 70.02,-484.4"/>
<text text-anchor="start" x="77.02" y="-496.6" font-family="Arial" font-size="14.00">policy_id </text>
<text text-anchor="start" x="135.39" y="-496.6" font-family="Arial" font-size="14.00" fill="#666666">[uuid]</text>
<polygon fill="none" stroke="black" points="70.02,-453.6 70.02,-484.4 361.97,-484.4 361.97,-453.6 70.02,-453.6"/>
<text text-anchor="start" x="77.02" y="-465.8" font-family="Arial" font-size="14.00">created_at </text>
<text text-anchor="start" x="147.07" y="-465.8" font-family="Arial" font-size="14.00" fill="#666666">[timestamp without time zone]</text>
</g>
<!-- public.agent_policies&#45;&gt;public.policies -->
<g id="edge1" class="edge">
<title>public.agent_policies:policy_id&#45;&gt;public.policies:id</title>
<path fill="none" stroke="black" d="M373.13,-498.99C417.36,-491.23 392.48,-429.45 414,-379.6 439.61,-320.25 407.78,-246.4 472.42,-246.4"/>
<polygon fill="black" stroke="black" points="373.27,-498.98 362.94,-495.29 367.95,-499.4 363.64,-499.75 363.64,-499.75 363.64,-499.75 367.95,-499.4 363.66,-504.26 373.27,-498.98"/>
<text text-anchor="start" x="7" y="-509.8" font-family="Arial" font-size="10.00">FOREIGN KEY (policy_id) REFERENCES policies(id) ON DELETE CASCADE</text>
</g>
<!-- public.team_policies -->
<g id="node3" class="node">
<title>public.team_policies</title>
<polygon fill="#efefef" stroke="none" points="466.02,-576.8 466.02,-612.4 753.97,-612.4 753.97,-576.8 466.02,-576.8"/>
<polygon fill="none" stroke="black" points="466.02,-576.8 466.02,-612.4 753.97,-612.4 753.97,-576.8 466.02,-576.8"/>
<text text-anchor="start" x="473.02" y="-590.2" font-family="Arial Bold" font-size="18.00">public.team_policies</text>
<text text-anchor="start" x="622.48" y="-590.2" font-family="Arial" font-size="14.00">    </text>
<text text-anchor="start" x="653.6" y="-590.2" font-family="Arial" font-size="14.00" fill="#666666">[BASE TABLE]</text>
<polygon fill="none" stroke="black" points="466.02,-546 466.02,-576.8 753.97,-576.8 753.97,-546 466.02,-546"/>
<text text-anchor="start" x="473.02" y="-558.2" font-family="Arial" font-size="14.00">id </text>
<text text-anchor="start" x="487.81" y="-558.2" font-family="Arial" font-size="14.00" fill="#666666">[uuid]</text>
<polygon fill="none" stroke="black" points="466.02,-515.2 466.02,-546 753.97,-546 753.97,-515.2 466.02,-515.2"/>
<text text-anchor="start" x="473.02" y="-527.4" font-family="Arial" font-size="14.00">team_id </text>
<text text-anchor="start" x="526.72" y="-527.4" font-family="Arial" font-size="14.00" fill="#666666">[uuid]</text>
<polygon fill="none" stroke="black" points="466.02,-484.4 466.02,-515.2 753.97,-515.2 753.97,-484.4 466.02,-484.4"/>
<text text-anchor="start" x="473.02" y="-496.6" font-family="Arial" font-size="14.00">policy_id </text>
<text text-anchor="start" x="531.39" y="-496.6" font-family="Arial" font-size="14.00" fill="#666666">[uuid]</text>
<polygon fill="none" stroke="black" points="466.02,-453.6 466.02,-484.4 753.97,-484.4 753.97,-453.6 466.02,-453.6"/>
<text text-anchor="start" x="473.02" y="-465.8" font-family="Arial" font-size="14.00">overrides </text>
<text text-anchor="start" x="534.49" y="-465.8" font-family="Arial" font-size="14.00" fill="#666666">[jsonb]</text>
<polygon fill="none" stroke="black" points="466.02,-422.8 466.02,-453.6 753.97,-453.6 753.97,-422.8 466.02,-422.8"/>
<text text-anchor="start" x="473.02" y="-435" font-family="Arial" font-size="14.00">created_at </text>
<text text-anchor="start" x="543.07" y="-435" font-family="Arial" font-size="14.00" fill="#666666">[timestamp without time zone]</text>
</g>
<!-- public.team_policies&#45;&gt;public.policies -->
<g id="edge2" class="edge">
<title>public.team_policies:policy_id&#45;&gt;public.policies:id</title>
<path fill="none" stroke="black" d="M764.79,-496.95C810.19,-469.11 800.38,-246.4 747.57,-246.4"/>
<polygon fill="black" stroke="black" points="764.9,-496.92 754.04,-495.38 759.77,-498.41 755.61,-499.61 755.61,-499.61 755.61,-499.61 759.77,-498.41 756.54,-504.03 764.9,-496.92"/>
<text text-anchor="start" x="399" y="-509.8" font-family="Arial" font-size="10.00">FOREIGN KEY (policy_id) REFERENCES policies(id) ON DELETE CASCADE</text>
</g>
<!-- public.employee_policies -->
<g id="node4" class="node">
<title>public.employee_policies</title>
<polygon fill="#efefef" stroke="none" points="858.53,-576.8 858.53,-612.4 1181.46,-612.4 1181.46,-576.8 858.53,-576.8"/>
<polygon fill="none" stroke="black" points="858.53,-576.8 858.53,-612.4 1181.46,-612.4 1181.46,-576.8 858.53,-576.8"/>
<text text-anchor="start" x="865.53" y="-590.2" font-family="Arial Bold" font-size="18.00">public.employee_policies</text>
<text text-anchor="start" x="1049.98" y="-590.2" font-family="Arial" font-size="14.00">    </text>
<text text-anchor="start" x="1081.09" y="-590.2" font-family="Arial" font-size="14.00" fill="#666666">[BASE TABLE]</text>
<polygon fill="none" stroke="black" points="858.53,-546 858.53,-576.8 1181.46,-576.8 1181.46,-546 858.53,-546"/>
<text text-anchor="start" x="865.53" y="-558.2" font-family="Arial" font-size="14.00">id </text>
<text text-anchor="start" x="880.31" y="-558.2" font-family="Arial" font-size="14.00" fill="#666666">[uuid]</text>
<polygon fill="none" stroke="black" points="858.53,-515.2 858.53,-546 1181.46,-546 1181.46,-515.2 858.53,-515.2"/>
<text text-anchor="start" x="865.53" y="-527.4" font-family="Arial" font-size="14.00">employee_id </text>
<text text-anchor="start" x="948.8" y="-527.4" font-family="Arial" font-size="14.00" fill="#666666">[uuid]</text>
<polygon fill="none" stroke="black" points="858.53,-484.4 858.53,-515.2 1181.46,-515.2 1181.46,-484.4 858.53,-484.4"/>
<text text-anchor="start" x="865.53" y="-496.6" font-family="Arial" font-size="14.00">policy_id </text>
<text text-anchor="start" x="923.89" y="-496.6" font-family="Arial" font-size="14.00" fill="#666666">[uuid]</text>
<polygon fill="none" stroke="black" points="858.53,-453.6 858.53,-484.4 1181.46,-484.4 1181.46,-453.6 858.53,-453.6"/>
<text text-anchor="start" x="865.53" y="-465.8" font-family="Arial" font-size="14.00">overrides </text>
<text text-anchor="start" x="927" y="-465.8" font-family="Arial" font-size="14.00" fill="#666666">[jsonb]</text>
<polygon fill="none" stroke="black" points="858.53,-422.8 858.53,-453.6 1181.46,-453.6 1181.46,-422.8 858.53,-422.8"/>
<text text-anchor="start" x="865.53" y="-435" font-family="Arial" font-size="14.00">created_at </text>
<text text-anchor="start" x="935.58" y="-435" font-family="Arial" font-size="14.00" fill="#666666">[timestamp without time zone]</text>
</g>
<!-- public.employee_policies&#45;&gt;public.policies -->
<g id="edge3" class="edge">
<title>public.employee_policies:policy_id&#45;&gt;public.policies:id</title>
<path fill="none" stroke="black" d="M847.35,-498.99C803.02,-491.24 827.63,-429.49 806,-379.6 780.28,-320.29 812.21,-246.4 747.57,-246.4"/>
<polygon fill="black" stroke="black" points="847.23,-498.98 856.84,-504.26 852.54,-499.4 856.86,-499.75 856.86,-499.75 856.86,-499.75 852.54,-499.4 857.55,-495.29 847.23,-498.98"/>
<text text-anchor="start" x="592.3" y="-483.8" font-family="Arial" font-size="10.00">FOREIGN KEY (policy_id) REFERENCES policies(id) ON DELETE CASCADE</text>
</g>
</g>
</svg>
