<?xml version="1.0" encoding="UTF-8" standalone="no"?>
<!DOCTYPE svg PUBLIC "-//W3C//DTD SVG 1.1//EN"
 "http://www.w3.org/Graphics/SVG/1.1/DTD/svg11.dtd">
<!-- Generated by graphviz version 12.1.2 (20240928.0832)
 -->
<!-- Title: public.team_policies Pages: 1 -->
<svg width="1014pt" height="664pt"
 viewBox="0.00 0.00 1014.43 663.60" xmlns="http://www.w3.org/2000/svg" xmlns:xlink="http://www.w3.org/1999/xlink">
<g id="graph0" class="graph" transform="scale(1 1) rotate(0) translate(4 659.6)">
<title>public.team_policies</title>
<polygon fill="white" stroke="none" points="-4,4 -4,-659.6 1010.43,-659.6 1010.43,4 -4,4"/>
<!-- public.team_policies -->
<g id="node1" class="node">
<title>public.team_policies</title>
<polygon fill="#efefef" stroke="none" points="354.52,-573.8 354.52,-609.4 642.46,-609.4 642.46,-573.8 354.52,-573.8"/>
<polygon fill="none" stroke="black" points="354.52,-573.8 354.52,-609.4 642.46,-609.4 642.46,-573.8 354.52,-573.8"/>
<text text-anchor="start" x="361.52" y="-587.2" font-family="Arial Bold" font-size="18.00">public.team_policies</text>
<text text-anchor="start" x="510.97" y="-587.2" font-family="Arial" font-size="14.00">    </text>
<text text-anchor="start" x="542.09" y="-587.2" font-family="Arial" font-size="14.00" fill="#666666">[BASE TABLE]</text>
<polygon fill="none" stroke="black" points="354.52,-543 354.52,-573.8 642.46,-573.8 642.46,-543 354.52,-543"/>
<text text-anchor="start" x="361.52" y="-555.2" font-family="Arial" font-size="14.00">id </text>
<text text-anchor="start" x="376.3" y="-555.2" font-family="Arial" font-size="14.00" fill="#666666">[uuid]</text>
<polygon fill="none" stroke="black" points="354.52,-512.2 354.52,-543 642.46,-543 642.46,-512.2 354.52,-512.2"/>
<text text-anchor="start" x="361.52" y="-524.4" font-family="Arial" font-size="14.00">team_id </text>
<text text-anchor="start" x="415.21" y="-524.4" font-family="Arial" font-size="14.00" fill="#666666">[uuid]</text>
<polygon fill="none" stroke="black" points="354.52,-481.4 354.52,-512.2 642.46,-512.2 642.46,-481.4 354.52,-481.4"/>
<text text-anchor="start" x="361.52" y="-493.6" font-family="Arial" font-size="14.00">policy_id </text>
<text text-anchor="start" x="419.88" y="-493.6" font-family="Arial" font-size="14.00" fill="#666666">[uuid]</text>
<polygon fill="none" stroke="black" points="354.52,-450.6 354.52,-481.4 642.46,-481.4 642.46,-450.6 354.52,-450.6"/>
<text text-anchor="start" x="361.52" y="-462.8" font-family="Arial" font-size="14.00">overrides </text>
<text text-anchor="start" x="422.99" y="-462.8" font-family="Arial" font-size="14.00" fill="#666666">[jsonb]</text>
<polygon fill="none" stroke="black" points="354.52,-419.8 354.52,-450.6 642.46,-450.6 642.46,-419.8 354.52,-419.8"/>
<text text-anchor="start" x="361.52" y="-432" font-family="Arial" font-size="14.00">created_at </text>
<text text-anchor="start" x="431.56" y="-432" font-family="Arial" font-size="14.00" fill="#666666">[timestamp without time zone]</text>
<polygon fill="none" stroke="black" stroke-width="3" points="353.02,-418.3 353.02,-610.9 643.96,-610.9 643.96,-418.3 353.02,-418.3"/>
</g>
<!-- public.teams -->
<g id="node2" class="node">
<title>public.teams</title>
<polygon fill="#efefef" stroke="none" points="172.92,-243.4 172.92,-279 446.06,-279 446.06,-243.4 172.92,-243.4"/>
<polygon fill="none" stroke="black" points="172.92,-243.4 172.92,-279 446.06,-279 446.06,-243.4 172.92,-243.4"/>
<text text-anchor="start" x="201.51" y="-256.8" font-family="Arial Bold" font-size="18.00">public.teams</text>
<text text-anchor="start" x="292.98" y="-256.8" font-family="Arial" font-size="14.00">    </text>
<text text-anchor="start" x="324.1" y="-256.8" font-family="Arial" font-size="14.00" fill="#666666">[BASE TABLE]</text>
<polygon fill="none" stroke="black" points="172.92,-212.6 172.92,-243.4 446.06,-243.4 446.06,-212.6 172.92,-212.6"/>
<text text-anchor="start" x="179.92" y="-224.8" font-family="Arial" font-size="14.00">id </text>
<text text-anchor="start" x="194.7" y="-224.8" font-family="Arial" font-size="14.00" fill="#666666">[uuid]</text>
<polygon fill="none" stroke="black" points="172.92,-181.8 172.92,-212.6 446.06,-212.6 446.06,-181.8 172.92,-181.8"/>
<text text-anchor="start" x="179.92" y="-194" font-family="Arial" font-size="14.00">org_id </text>
<text text-anchor="start" x="222.73" y="-194" font-family="Arial" font-size="14.00" fill="#666666">[uuid]</text>
<polygon fill="none" stroke="black" points="172.92,-151 172.92,-181.8 446.06,-181.8 446.06,-151 172.92,-151"/>
<text text-anchor="start" x="179.92" y="-163.2" font-family="Arial" font-size="14.00">name </text>
<text text-anchor="start" x="218.83" y="-163.2" font-family="Arial" font-size="14.00" fill="#666666">[varchar(255)]</text>
<polygon fill="none" stroke="black" points="172.92,-120.2 172.92,-151 446.06,-151 446.06,-120.2 172.92,-120.2"/>
<text text-anchor="start" x="179.92" y="-132.4" font-family="Arial" font-size="14.00">description </text>
<text text-anchor="start" x="251.51" y="-132.4" font-family="Arial" font-size="14.00" fill="#666666">[text]</text>
<polygon fill="none" stroke="black" points="172.92,-89.4 172.92,-120.2 446.06,-120.2 446.06,-89.4 172.92,-89.4"/>
<text text-anchor="start" x="179.92" y="-101.6" font-family="Arial" font-size="14.00">created_at </text>
<text text-anchor="start" x="249.97" y="-101.6" font-family="Arial" font-size="14.00" fill="#666666">[timestamp without time zone]</text>
<polygon fill="none" stroke="black" points="172.92,-58.6 172.92,-89.4 446.06,-89.4 446.06,-58.6 172.92,-58.6"/>
<text text-anchor="start" x="179.92" y="-70.8" font-family="Arial" font-size="14.00">updated_at </text>
<text text-anchor="start" x="253.88" y="-70.8" font-family="Arial" font-size="14.00" fill="#666666">[timestamp without time zone]</text>
</g>
<!-- public.team_policies&#45;&gt;public.teams -->
<g id="edge1" class="edge">
<title>public.team_policies:team_id&#45;&gt;public.teams:id</title>
<path fill="none" stroke="black" d="M343.2,-526.77C288.86,-517.31 321.65,-429.33 354.52,-373.6 378.22,-333.41 422.28,-362.34 446.06,-322.2 467.41,-286.18 488.93,-228 447.06,-228"/>
<polygon fill="black" stroke="black" points="343.22,-526.77 352.82,-532.06 348.53,-527.2 352.85,-527.55 352.85,-527.55 352.85,-527.55 348.53,-527.2 353.54,-523.09 343.22,-526.77"/>
<text text-anchor="start" x="7" y="-537.6" font-family="Arial" font-size="10.00">FOREIGN KEY (team_id) REFERENCES teams(id) ON DELETE CASCADE</text>
</g>
<!-- public.policies -->
<g id="node3" class="node">
<title>public.policies</title>
<polygon fill="#efefef" stroke="none" points="550.92,-258.8 550.92,-294.4 824.06,-294.4 824.06,-258.8 550.92,-258.8"/>
<polygon fill="none" stroke="black" points="550.92,-258.8 550.92,-294.4 824.06,-294.4 824.06,-258.8 550.92,-258.8"/>
<text text-anchor="start" x="572.51" y="-272.2" font-family="Arial Bold" font-size="18.00">public.policies</text>
<text text-anchor="start" x="677.98" y="-272.2" font-family="Arial" font-size="14.00">    </text>
<text text-anchor="start" x="709.1" y="-272.2" font-family="Arial" font-size="14.00" fill="#666666">[BASE TABLE]</text>
<polygon fill="none" stroke="black" points="550.92,-228 550.92,-258.8 824.06,-258.8 824.06,-228 550.92,-228"/>
<text text-anchor="start" x="557.92" y="-240.2" font-family="Arial" font-size="14.00">id </text>
<text text-anchor="start" x="572.7" y="-240.2" font-family="Arial" font-size="14.00" fill="#666666">[uuid]</text>
<polygon fill="none" stroke="black" points="550.92,-197.2 550.92,-228 824.06,-228 824.06,-197.2 550.92,-197.2"/>
<text text-anchor="start" x="557.92" y="-209.4" font-family="Arial" font-size="14.00">name </text>
<text text-anchor="start" x="596.83" y="-209.4" font-family="Arial" font-size="14.00" fill="#666666">[varchar(100)]</text>
<polygon fill="none" stroke="black" points="550.92,-166.4 550.92,-197.2 824.06,-197.2 824.06,-166.4 550.92,-166.4"/>
<text text-anchor="start" x="557.92" y="-178.6" font-family="Arial" font-size="14.00">type </text>
<text text-anchor="start" x="588.27" y="-178.6" font-family="Arial" font-size="14.00" fill="#666666">[varchar(50)]</text>
<polygon fill="none" stroke="black" points="550.92,-135.6 550.92,-166.4 824.06,-166.4 824.06,-135.6 550.92,-135.6"/>
<text text-anchor="start" x="557.92" y="-147.8" font-family="Arial" font-size="14.00">rules </text>
<text text-anchor="start" x="592.15" y="-147.8" font-family="Arial" font-size="14.00" fill="#666666">[jsonb]</text>
<polygon fill="none" stroke="black" points="550.92,-104.8 550.92,-135.6 824.06,-135.6 824.06,-104.8 550.92,-104.8"/>
<text text-anchor="start" x="557.92" y="-117" font-family="Arial" font-size="14.00">severity </text>
<text text-anchor="start" x="610.04" y="-117" font-family="Arial" font-size="14.00" fill="#666666">[varchar(20)]</text>
<polygon fill="none" stroke="black" points="550.92,-74 550.92,-104.8 824.06,-104.8 824.06,-74 550.92,-74"/>
<text text-anchor="start" x="557.92" y="-86.2" font-family="Arial" font-size="14.00">created_at </text>
<text text-anchor="start" x="627.97" y="-86.2" font-family="Arial" font-size="14.00" fill="#666666">[timestamp without time zone]</text>
<polygon fill="none" stroke="black" points="550.92,-43.2 550.92,-74 824.06,-74 824.06,-43.2 550.92,-43.2"/>
<text text-anchor="start" x="557.92" y="-55.4" font-family="Arial" font-size="14.00">updated_at </text>
<text text-anchor="start" x="631.88" y="-55.4" font-family="Arial" font-size="14.00" fill="#666666">[timestamp without time zone]</text>
</g>
<!-- public.team_policies&#45;&gt;public.policies -->
<g id="edge2" class="edge">
<title>public.team_policies:policy_id&#45;&gt;public.policies:id</title>
<path fill="none" stroke="black" d="M653.6,-495.74C694.81,-486.28 671.36,-415.64 642.46,-373.6 617.7,-337.57 575.73,-373.6 550.92,-337.6 527.16,-303.12 508.05,-243.4 549.92,-243.4"/>
<polygon fill="black" stroke="black" points="653.74,-495.73 643.33,-492.29 648.44,-496.28 644.13,-496.73 644.13,-496.73 644.13,-496.73 648.44,-496.28 644.26,-501.24 653.74,-495.73"/>
<text text-anchor="start" x="650.46" y="-506.8" font-family="Arial" font-size="10.00">FOREIGN KEY (policy_id) REFERENCES policies(id) ON DELETE CASCADE</text>
</g>
</g>
</svg>
