<?xml version="1.0" encoding="UTF-8" standalone="no"?>
<!DOCTYPE svg PUBLIC "-//W3C//DTD SVG 1.1//EN"
 "http://www.w3.org/Graphics/SVG/1.1/DTD/svg11.dtd">
<!-- Generated by graphviz version 12.1.2 (20240928.0832)
 -->
<!-- Title: public.webhook_destinations Pages: 1 -->
<svg width="1180pt" height="1776pt"
 viewBox="0.00 0.00 1180.32 1776.40" xmlns="http://www.w3.org/2000/svg" xmlns:xlink="http://www.w3.org/1999/xlink">
<g id="graph0" class="graph" transform="scale(1 1) rotate(0) translate(4 1772.4)">
<title>public.webhook_destinations</title>
<polygon fill="white" stroke="none" points="-4,4 -4,-1772.4 1176.32,-1772.4 1176.32,4 -4,4"/>
<!-- public.webhook_destinations -->
<g id="node1" class="node">
<title>public.webhook_destinations</title>
<polygon fill="#efefef" stroke="none" points="378.99,-1159 378.99,-1194.6 727.95,-1194.6 727.95,-1159 378.99,-1159"/>
<polygon fill="none" stroke="black" points="378.99,-1159 378.99,-1194.6 727.95,-1194.6 727.95,-1159 378.99,-1159"/>
<text text-anchor="start" x="385.99" y="-1172.4" font-family="Arial Bold" font-size="18.00">public.webhook_destinations</text>
<text text-anchor="start" x="596.46" y="-1172.4" font-family="Arial" font-size="14.00">    </text>
<text text-anchor="start" x="627.58" y="-1172.4" font-family="Arial" font-size="14.00" fill="#666666">[BASE TABLE]</text>
<polygon fill="none" stroke="black" points="378.99,-1128.2 378.99,-1159 727.95,-1159 727.95,-1128.2 378.99,-1128.2"/>
<text text-anchor="start" x="385.99" y="-1140.4" font-family="Arial" font-size="14.00">id </text>
<text text-anchor="start" x="400.78" y="-1140.4" font-family="Arial" font-size="14.00" fill="#666666">[uuid]</text>
<polygon fill="none" stroke="black" points="378.99,-1097.4 378.99,-1128.2 727.95,-1128.2 727.95,-1097.4 378.99,-1097.4"/>
<text text-anchor="start" x="385.99" y="-1109.6" font-family="Arial" font-size="14.00">org_id </text>
<text text-anchor="start" x="428.8" y="-1109.6" font-family="Arial" font-size="14.00" fill="#666666">[uuid]</text>
<polygon fill="none" stroke="black" points="378.99,-1066.6 378.99,-1097.4 727.95,-1097.4 727.95,-1066.6 378.99,-1066.6"/>
<text text-anchor="start" x="385.99" y="-1078.8" font-family="Arial" font-size="14.00">name </text>
<text text-anchor="start" x="424.9" y="-1078.8" font-family="Arial" font-size="14.00" fill="#666666">[varchar(100)]</text>
<polygon fill="none" stroke="black" points="378.99,-1035.8 378.99,-1066.6 727.95,-1066.6 727.95,-1035.8 378.99,-1035.8"/>
<text text-anchor="start" x="385.99" y="-1048" font-family="Arial" font-size="14.00">url </text>
<text text-anchor="start" x="405.44" y="-1048" font-family="Arial" font-size="14.00" fill="#666666">[text]</text>
<polygon fill="none" stroke="black" points="378.99,-1005 378.99,-1035.8 727.95,-1035.8 727.95,-1005 378.99,-1005"/>
<text text-anchor="start" x="385.99" y="-1017.2" font-family="Arial" font-size="14.00">auth_type </text>
<text text-anchor="start" x="451.38" y="-1017.2" font-family="Arial" font-size="14.00" fill="#666666">[varchar(50)]</text>
<polygon fill="none" stroke="black" points="378.99,-974.2 378.99,-1005 727.95,-1005 727.95,-974.2 378.99,-974.2"/>
<text text-anchor="start" x="385.99" y="-986.4" font-family="Arial" font-size="14.00">auth_config </text>
<text text-anchor="start" x="462.27" y="-986.4" font-family="Arial" font-size="14.00" fill="#666666">[jsonb]</text>
<polygon fill="none" stroke="black" points="378.99,-943.4 378.99,-974.2 727.95,-974.2 727.95,-943.4 378.99,-943.4"/>
<text text-anchor="start" x="385.99" y="-955.6" font-family="Arial" font-size="14.00">event_types </text>
<text text-anchor="start" x="465.38" y="-955.6" font-family="Arial" font-size="14.00" fill="#666666">[text[]]</text>
<polygon fill="none" stroke="black" points="378.99,-912.6 378.99,-943.4 727.95,-943.4 727.95,-912.6 378.99,-912.6"/>
<text text-anchor="start" x="385.99" y="-924.8" font-family="Arial" font-size="14.00">event_filter </text>
<text text-anchor="start" x="458.36" y="-924.8" font-family="Arial" font-size="14.00" fill="#666666">[jsonb]</text>
<polygon fill="none" stroke="black" points="378.99,-881.8 378.99,-912.6 727.95,-912.6 727.95,-881.8 378.99,-881.8"/>
<text text-anchor="start" x="385.99" y="-894" font-family="Arial" font-size="14.00">enabled </text>
<text text-anchor="start" x="439.71" y="-894" font-family="Arial" font-size="14.00" fill="#666666">[boolean]</text>
<polygon fill="none" stroke="black" points="378.99,-851 378.99,-881.8 727.95,-881.8 727.95,-851 378.99,-851"/>
<text text-anchor="start" x="385.99" y="-863.2" font-family="Arial" font-size="14.00">batch_size </text>
<text text-anchor="start" x="456.81" y="-863.2" font-family="Arial" font-size="14.00" fill="#666666">[integer]</text>
<polygon fill="none" stroke="black" points="378.99,-820.2 378.99,-851 727.95,-851 727.95,-820.2 378.99,-820.2"/>
<text text-anchor="start" x="385.99" y="-832.4" font-family="Arial" font-size="14.00">timeout_ms </text>
<text text-anchor="start" x="462.24" y="-832.4" font-family="Arial" font-size="14.00" fill="#666666">[integer]</text>
<polygon fill="none" stroke="black" points="378.99,-789.4 378.99,-820.2 727.95,-820.2 727.95,-789.4 378.99,-789.4"/>
<text text-anchor="start" x="385.99" y="-801.6" font-family="Arial" font-size="14.00">retry_max </text>
<text text-anchor="start" x="452.11" y="-801.6" font-family="Arial" font-size="14.00" fill="#666666">[integer]</text>
<polygon fill="none" stroke="black" points="378.99,-758.6 378.99,-789.4 727.95,-789.4 727.95,-758.6 378.99,-758.6"/>
<text text-anchor="start" x="385.99" y="-770.8" font-family="Arial" font-size="14.00">retry_backoff_ms </text>
<text text-anchor="start" x="497.25" y="-770.8" font-family="Arial" font-size="14.00" fill="#666666">[integer]</text>
<polygon fill="none" stroke="black" points="378.99,-727.8 378.99,-758.6 727.95,-758.6 727.95,-727.8 378.99,-727.8"/>
<text text-anchor="start" x="385.99" y="-740" font-family="Arial" font-size="14.00">signing_secret </text>
<text text-anchor="start" x="480.15" y="-740" font-family="Arial" font-size="14.00" fill="#666666">[varchar(255)]</text>
<polygon fill="none" stroke="black" points="378.99,-697 378.99,-727.8 727.95,-727.8 727.95,-697 378.99,-697"/>
<text text-anchor="start" x="385.99" y="-709.2" font-family="Arial" font-size="14.00">created_by </text>
<text text-anchor="start" x="459.15" y="-709.2" font-family="Arial" font-size="14.00" fill="#666666">[uuid]</text>
<polygon fill="none" stroke="black" points="378.99,-666.2 378.99,-697 727.95,-697 727.95,-666.2 378.99,-666.2"/>
<text text-anchor="start" x="385.99" y="-678.4" font-family="Arial" font-size="14.00">created_at </text>
<text text-anchor="start" x="456.04" y="-678.4" font-family="Arial" font-size="14.00" fill="#666666">[timestamp without time zone]</text>
<polygon fill="none" stroke="black" points="378.99,-635.4 378.99,-666.2 727.95,-666.2 727.95,-635.4 378.99,-635.4"/>
<text text-anchor="start" x="385.99" y="-647.6" font-family="Arial" font-size="14.00">updated_at </text>
<text text-anchor="start" x="459.95" y="-647.6" font-family="Arial" font-size="14.00" fill="#666666">[timestamp without time zone]</text>
<polygon fill="none" stroke="black" stroke-width="3" points="377.49,-633.9 377.49,-1196.1 729.45,-1196.1 729.45,-633.9 377.49,-633.9"/>
</g>
<!-- public.organizations -->
<g id="node3" class="node">
<title>public.organizations</title>
<polygon fill="#efefef" stroke="none" points="216.99,-397.4 216.99,-433 501.94,-433 501.94,-397.4 216.99,-397.4"/>
<polygon fill="none" stroke="black" points="216.99,-397.4 216.99,-433 501.94,-433 501.94,-397.4 216.99,-397.4"/>
<text text-anchor="start" x="223.99" y="-410.8" font-family="Arial Bold" font-size="18.00">public.organizations</text>
<text text-anchor="start" x="370.46" y="-410.8" font-family="Arial" font-size="14.00">    </text>
<text text-anchor="start" x="401.57" y="-410.8" font-family="Arial" font-size="14.00" fill="#666666">[BASE TABLE]</text>
<polygon fill="none" stroke="black" points="216.99,-366.6 216.99,-397.4 501.94,-397.4 501.94,-366.6 216.99,-366.6"/>
<text text-anchor="start" x="223.99" y="-378.8" font-family="Arial" font-size="14.00">id </text>
<text text-anchor="start" x="238.78" y="-378.8" font-family="Arial" font-size="14.00" fill="#666666">[uuid]</text>
<polygon fill="none" stroke="black" points="216.99,-335.8 216.99,-366.6 501.94,-366.6 501.94,-335.8 216.99,-335.8"/>
<text text-anchor="start" x="223.99" y="-348" font-family="Arial" font-size="14.00">name </text>
<text text-anchor="start" x="262.9" y="-348" font-family="Arial" font-size="14.00" fill="#666666">[varchar(255)]</text>
<polygon fill="none" stroke="black" points="216.99,-305 216.99,-335.8 501.94,-335.8 501.94,-305 216.99,-305"/>
<text text-anchor="start" x="223.99" y="-317.2" font-family="Arial" font-size="14.00">slug </text>
<text text-anchor="start" x="253.57" y="-317.2" font-family="Arial" font-size="14.00" fill="#666666">[varchar(100)]</text>
<polygon fill="none" stroke="black" points="216.99,-274.2 216.99,-305 501.94,-305 501.94,-274.2 216.99,-274.2"/>
<text text-anchor="start" x="223.99" y="-286.4" font-family="Arial" font-size="14.00">plan </text>
<text text-anchor="start" x="254.35" y="-286.4" font-family="Arial" font-size="14.00" fill="#666666">[varchar(50)]</text>
<polygon fill="none" stroke="black" points="216.99,-243.4 216.99,-274.2 501.94,-274.2 501.94,-243.4 216.99,-243.4"/>
<text text-anchor="start" x="223.99" y="-255.6" font-family="Arial" font-size="14.00">settings </text>
<text text-anchor="start" x="276.13" y="-255.6" font-family="Arial" font-size="14.00" fill="#666666">[jsonb]</text>
<polygon fill="none" stroke="black" points="216.99,-212.6 216.99,-243.4 501.94,-243.4 501.94,-212.6 216.99,-212.6"/>
<text text-anchor="start" x="223.99" y="-224.8" font-family="Arial" font-size="14.00">max_employees </text>
<text text-anchor="start" x="329.82" y="-224.8" font-family="Arial" font-size="14.00" fill="#666666">[integer]</text>
<polygon fill="none" stroke="black" points="216.99,-181.8 216.99,-212.6 501.94,-212.6 501.94,-181.8 216.99,-181.8"/>
<text text-anchor="start" x="223.99" y="-194" font-family="Arial" font-size="14.00">claude_api_token </text>
<text text-anchor="start" x="337.64" y="-194" font-family="Arial" font-size="14.00" fill="#666666">[text]</text>
<polygon fill="none" stroke="black" points="216.99,-151 216.99,-181.8 501.94,-181.8 501.94,-151 216.99,-151"/>
<text text-anchor="start" x="223.99" y="-163.2" font-family="Arial" font-size="14.00">created_at </text>
<text text-anchor="start" x="294.04" y="-163.2" font-family="Arial" font-size="14.00" fill="#666666">[timestamp without time zone]</text>
<polygon fill="none" stroke="black" points="216.99,-120.2 216.99,-151 501.94,-151 501.94,-120.2 216.99,-120.2"/>
<text text-anchor="start" x="223.99" y="-132.4" font-family="Arial" font-size="14.00">updated_at </text>
<text text-anchor="start" x="297.95" y="-132.4" font-family="Arial" font-size="14.00" fill="#666666">[timestamp without time zone]</text>
</g>
<!-- public.webhook_destinations&#45;&gt;public.organizations -->
<g id="edge2" class="edge">
<title>public.webhook_destinations:org_id&#45;&gt;public.organizations:id</title>
<path fill="none" stroke="black" d="M367.68,-1112.59C149.5,-1103.42 286.64,-798.96 378.99,-589.2 408.9,-521.27 471.74,-544 501.94,-476.2 518.98,-437.95 544.81,-382 502.94,-382"/>
<polygon fill="black" stroke="black" points="367.66,-1112.59 377.56,-1117.29 372.99,-1112.7 377.32,-1112.79 377.32,-1112.79 377.32,-1112.79 372.99,-1112.7 377.75,-1108.29 367.66,-1112.59"/>
<text text-anchor="start" x="7" y="-1122.8" font-family="Arial" font-size="10.00">FOREIGN KEY (org_id) REFERENCES organizations(id) ON DELETE CASCADE</text>
</g>
<!-- public.employees -->
<g id="node4" class="node">
<title>public.employees</title>
<polygon fill="#efefef" stroke="none" points="606.63,-474.4 606.63,-510 888.31,-510 888.31,-474.4 606.63,-474.4"/>
<polygon fill="none" stroke="black" points="606.63,-474.4 606.63,-510 888.31,-510 888.31,-474.4 606.63,-474.4"/>
<text text-anchor="start" x="621.99" y="-487.8" font-family="Arial Bold" font-size="18.00">public.employees</text>
<text text-anchor="start" x="748.46" y="-487.8" font-family="Arial" font-size="14.00">    </text>
<text text-anchor="start" x="779.58" y="-487.8" font-family="Arial" font-size="14.00" fill="#666666">[BASE TABLE]</text>
<polygon fill="none" stroke="black" points="606.63,-443.6 606.63,-474.4 888.31,-474.4 888.31,-443.6 606.63,-443.6"/>
<text text-anchor="start" x="613.63" y="-455.8" font-family="Arial" font-size="14.00">id </text>
<text text-anchor="start" x="628.41" y="-455.8" font-family="Arial" font-size="14.00" fill="#666666">[uuid]</text>
<polygon fill="none" stroke="black" points="606.63,-412.8 606.63,-443.6 888.31,-443.6 888.31,-412.8 606.63,-412.8"/>
<text text-anchor="start" x="613.63" y="-425" font-family="Arial" font-size="14.00">org_id </text>
<text text-anchor="start" x="656.43" y="-425" font-family="Arial" font-size="14.00" fill="#666666">[uuid]</text>
<polygon fill="none" stroke="black" points="606.63,-382 606.63,-412.8 888.31,-412.8 888.31,-382 606.63,-382"/>
<text text-anchor="start" x="613.63" y="-394.2" font-family="Arial" font-size="14.00">team_id </text>
<text text-anchor="start" x="667.32" y="-394.2" font-family="Arial" font-size="14.00" fill="#666666">[uuid]</text>
<polygon fill="none" stroke="black" points="606.63,-351.2 606.63,-382 888.31,-382 888.31,-351.2 606.63,-351.2"/>
<text text-anchor="start" x="613.63" y="-363.4" font-family="Arial" font-size="14.00">role_id </text>
<text text-anchor="start" x="659.54" y="-363.4" font-family="Arial" font-size="14.00" fill="#666666">[uuid]</text>
<polygon fill="none" stroke="black" points="606.63,-320.4 606.63,-351.2 888.31,-351.2 888.31,-320.4 606.63,-320.4"/>
<text text-anchor="start" x="613.63" y="-332.6" font-family="Arial" font-size="14.00">email </text>
<text text-anchor="start" x="650.97" y="-332.6" font-family="Arial" font-size="14.00" fill="#666666">[varchar(255)]</text>
<polygon fill="none" stroke="black" points="606.63,-289.6 606.63,-320.4 888.31,-320.4 888.31,-289.6 606.63,-289.6"/>
<text text-anchor="start" x="613.63" y="-301.8" font-family="Arial" font-size="14.00">full_name </text>
<text text-anchor="start" x="678.22" y="-301.8" font-family="Arial" font-size="14.00" fill="#666666">[varchar(255)]</text>
<polygon fill="none" stroke="black" points="606.63,-258.8 606.63,-289.6 888.31,-289.6 888.31,-258.8 606.63,-258.8"/>
<text text-anchor="start" x="613.63" y="-271" font-family="Arial" font-size="14.00">password_hash </text>
<text text-anchor="start" x="715.58" y="-271" font-family="Arial" font-size="14.00" fill="#666666">[varchar(255)]</text>
<polygon fill="none" stroke="black" points="606.63,-228 606.63,-258.8 888.31,-258.8 888.31,-228 606.63,-228"/>
<text text-anchor="start" x="613.63" y="-240.2" font-family="Arial" font-size="14.00">status </text>
<text text-anchor="start" x="654.87" y="-240.2" font-family="Arial" font-size="14.00" fill="#666666">[varchar(50)]</text>
<polygon fill="none" stroke="black" points="606.63,-197.2 606.63,-228 888.31,-228 888.31,-197.2 606.63,-197.2"/>
<text text-anchor="start" x="613.63" y="-209.4" font-family="Arial" font-size="14.00">preferences </text>
<text text-anchor="start" x="691.45" y="-209.4" font-family="Arial" font-size="14.00" fill="#666666">[jsonb]</text>
<polygon fill="none" stroke="black" points="606.63,-166.4 606.63,-197.2 888.31,-197.2 888.31,-166.4 606.63,-166.4"/>
<text text-anchor="start" x="613.63" y="-178.6" font-family="Arial" font-size="14.00">personal_claude_token </text>
<text text-anchor="start" x="762.29" y="-178.6" font-family="Arial" font-size="14.00" fill="#666666">[text]</text>
<polygon fill="none" stroke="black" points="606.63,-135.6 606.63,-166.4 888.31,-166.4 888.31,-135.6 606.63,-135.6"/>
<text text-anchor="start" x="613.63" y="-147.8" font-family="Arial" font-size="14.00">last_login_at </text>
<text text-anchor="start" x="696.13" y="-147.8" font-family="Arial" font-size="14.00" fill="#666666">[timestamp without time zone]</text>
<polygon fill="none" stroke="black" points="606.63,-104.8 606.63,-135.6 888.31,-135.6 888.31,-104.8 606.63,-104.8"/>
<text text-anchor="start" x="613.63" y="-117" font-family="Arial" font-size="14.00">created_at </text>
<text text-anchor="start" x="683.67" y="-117" font-family="Arial" font-size="14.00" fill="#666666">[timestamp without time zone]</text>
<polygon fill="none" stroke="black" points="606.63,-74 606.63,-104.8 888.31,-104.8 888.31,-74 606.63,-74"/>
<text text-anchor="start" x="613.63" y="-86.2" font-family="Arial" font-size="14.00">updated_at </text>
<text text-anchor="start" x="687.58" y="-86.2" font-family="Arial" font-size="14.00" fill="#666666">[timestamp without time zone]</text>
<polygon fill="none" stroke="black" points="606.63,-43.2 606.63,-74 888.31,-74 888.31,-43.2 606.63,-43.2"/>
<text text-anchor="start" x="613.63" y="-55.4" font-family="Arial" font-size="14.00">deleted_at </text>
<text text-anchor="start" x="682.91" y="-55.4" font-family="Arial" font-size="14.00" fill="#666666">[timestamp without time zone]</text>
</g>
<!-- public.webhook_destinations&#45;&gt;public.employees -->
<g id="edge3" class="edge">
<title>public.webhook_destinations:created_by&#45;&gt;public.employees:id</title>
<path fill="none" stroke="black" d="M739.11,-711.32C780.54,-701.7 758.63,-629.96 727.95,-589.2 694.12,-544.26 640.51,-598.1 606.63,-553.2 581.4,-519.78 563.76,-459 605.63,-459"/>
<polygon fill="black" stroke="black" points="739.23,-711.31 728.81,-707.89 733.92,-711.87 729.62,-712.33 729.62,-712.33 729.62,-712.33 733.92,-711.87 729.76,-716.84 739.23,-711.31"/>
<text text-anchor="start" x="735.95" y="-722.4" font-family="Arial" font-size="10.00">FOREIGN KEY (created_by) REFERENCES employees(id) ON DELETE SET NULL</text>
</g>
<!-- public.webhook_deliveries -->
<g id="node2" class="node">
<title>public.webhook_deliveries</title>
<polygon fill="#efefef" stroke="none" points="387,-1689.6 387,-1725.2 719.94,-1725.2 719.94,-1689.6 387,-1689.6"/>
<polygon fill="none" stroke="black" points="387,-1689.6 387,-1725.2 719.94,-1725.2 719.94,-1689.6 387,-1689.6"/>
<text text-anchor="start" x="394" y="-1703" font-family="Arial Bold" font-size="18.00">public.webhook_deliveries</text>
<text text-anchor="start" x="588.45" y="-1703" font-family="Arial" font-size="14.00">    </text>
<text text-anchor="start" x="619.57" y="-1703" font-family="Arial" font-size="14.00" fill="#666666">[BASE TABLE]</text>
<polygon fill="none" stroke="black" points="387,-1658.8 387,-1689.6 719.94,-1689.6 719.94,-1658.8 387,-1658.8"/>
<text text-anchor="start" x="394" y="-1671" font-family="Arial" font-size="14.00">id </text>
<text text-anchor="start" x="408.79" y="-1671" font-family="Arial" font-size="14.00" fill="#666666">[uuid]</text>
<polygon fill="none" stroke="black" points="387,-1628 387,-1658.8 719.94,-1658.8 719.94,-1628 387,-1628"/>
<text text-anchor="start" x="394" y="-1640.2" font-family="Arial" font-size="14.00">destination_id </text>
<text text-anchor="start" x="484.29" y="-1640.2" font-family="Arial" font-size="14.00" fill="#666666">[uuid]</text>
<polygon fill="none" stroke="black" points="387,-1597.2 387,-1628 719.94,-1628 719.94,-1597.2 387,-1597.2"/>
<text text-anchor="start" x="394" y="-1609.4" font-family="Arial" font-size="14.00">log_id </text>
<text text-anchor="start" x="435.26" y="-1609.4" font-family="Arial" font-size="14.00" fill="#666666">[uuid]</text>
<polygon fill="none" stroke="black" points="387,-1566.4 387,-1597.2 719.94,-1597.2 719.94,-1566.4 387,-1566.4"/>
<text text-anchor="start" x="394" y="-1578.6" font-family="Arial" font-size="14.00">status </text>
<text text-anchor="start" x="435.24" y="-1578.6" font-family="Arial" font-size="14.00" fill="#666666">[varchar(50)]</text>
<polygon fill="none" stroke="black" points="387,-1535.6 387,-1566.4 719.94,-1566.4 719.94,-1535.6 387,-1535.6"/>
<text text-anchor="start" x="394" y="-1547.8" font-family="Arial" font-size="14.00">attempts </text>
<text text-anchor="start" x="451.58" y="-1547.8" font-family="Arial" font-size="14.00" fill="#666666">[integer]</text>
<polygon fill="none" stroke="black" points="387,-1504.8 387,-1535.6 719.94,-1535.6 719.94,-1504.8 387,-1504.8"/>
<text text-anchor="start" x="394" y="-1517" font-family="Arial" font-size="14.00">last_attempt_at </text>
<text text-anchor="start" x="493.61" y="-1517" font-family="Arial" font-size="14.00" fill="#666666">[timestamp without time zone]</text>
<polygon fill="none" stroke="black" points="387,-1474 387,-1504.8 719.94,-1504.8 719.94,-1474 387,-1474"/>
<text text-anchor="start" x="394" y="-1486.2" font-family="Arial" font-size="14.00">next_retry_at </text>
<text text-anchor="start" x="479.6" y="-1486.2" font-family="Arial" font-size="14.00" fill="#666666">[timestamp without time zone]</text>
<polygon fill="none" stroke="black" points="387,-1443.2 387,-1474 719.94,-1474 719.94,-1443.2 387,-1443.2"/>
<text text-anchor="start" x="394" y="-1455.4" font-family="Arial" font-size="14.00">response_status </text>
<text text-anchor="start" x="500.62" y="-1455.4" font-family="Arial" font-size="14.00" fill="#666666">[integer]</text>
<polygon fill="none" stroke="black" points="387,-1412.4 387,-1443.2 719.94,-1443.2 719.94,-1412.4 387,-1412.4"/>
<text text-anchor="start" x="394" y="-1424.6" font-family="Arial" font-size="14.00">response_body </text>
<text text-anchor="start" x="493.63" y="-1424.6" font-family="Arial" font-size="14.00" fill="#666666">[text]</text>
<polygon fill="none" stroke="black" points="387,-1381.6 387,-1412.4 719.94,-1412.4 719.94,-1381.6 387,-1381.6"/>
<text text-anchor="start" x="394" y="-1393.8" font-family="Arial" font-size="14.00">error_message </text>
<text text-anchor="start" x="492.04" y="-1393.8" font-family="Arial" font-size="14.00" fill="#666666">[text]</text>
<polygon fill="none" stroke="black" points="387,-1350.8 387,-1381.6 719.94,-1381.6 719.94,-1350.8 387,-1350.8"/>
<text text-anchor="start" x="394" y="-1363" font-family="Arial" font-size="14.00">created_at </text>
<text text-anchor="start" x="464.05" y="-1363" font-family="Arial" font-size="14.00" fill="#666666">[timestamp without time zone]</text>
<polygon fill="none" stroke="black" points="387,-1320 387,-1350.8 719.94,-1350.8 719.94,-1320 387,-1320"/>
<text text-anchor="start" x="394" y="-1332.2" font-family="Arial" font-size="14.00">delivered_at </text>
<text text-anchor="start" x="474.17" y="-1332.2" font-family="Arial" font-size="14.00" fill="#666666">[timestamp without time zone]</text>
</g>
<!-- public.webhook_deliveries&#45;&gt;public.webhook_destinations -->
<g id="edge1" class="edge">
<title>public.webhook_deliveries:destination_id&#45;&gt;public.webhook_destinations:id</title>
<path fill="none" stroke="black" d="M731.2,-1643.04C943.29,-1627.9 947.64,-1143.6 728.95,-1143.6"/>
<polygon fill="black" stroke="black" points="731.27,-1643.04 721.11,-1638.89 725.94,-1643.22 721.61,-1643.38 721.61,-1643.38 721.61,-1643.38 725.94,-1643.22 721.43,-1647.89 731.27,-1643.04"/>
<text text-anchor="start" x="727.94" y="-1653.4" font-family="Arial" font-size="10.00">FOREIGN KEY (destination_id) REFERENCES webhook_destinations(id) ON DELETE CASCADE</text>
</g>
</g>
</svg>
