<?xml version="1.0" encoding="UTF-8" standalone="no"?>
<!DOCTYPE svg PUBLIC "-//W3C//DTD SVG 1.1//EN"
 "http://www.w3.org/Graphics/SVG/1.1/DTD/svg11.dtd">
<!-- Generated by graphviz version 12.1.2 (20240928.0832)
 -->
<!-- Title: public.employee_skills Pages: 1 -->
<svg width="1086pt" height="941pt"
 viewBox="0.00 0.00 1085.93 940.80" xmlns="http://www.w3.org/2000/svg" xmlns:xlink="http://www.w3.org/1999/xlink">
<g id="graph0" class="graph" transform="scale(1 1) rotate(0) translate(4 936.8)">
<title>public.employee_skills</title>
<polygon fill="white" stroke="none" points="-4,4 -4,-936.8 1081.93,-936.8 1081.93,4 -4,4"/>
<!-- public.employee_skills -->
<g id="node1" class="node">
<title>public.employee_skills</title>
<polygon fill="#efefef" stroke="none" points="396.77,-851 396.77,-886.6 701.74,-886.6 701.74,-851 396.77,-851"/>
<polygon fill="none" stroke="black" points="396.77,-851 396.77,-886.6 701.74,-886.6 701.74,-851 396.77,-851"/>
<text text-anchor="start" x="403.77" y="-864.4" font-family="Arial Bold" font-size="18.00">public.employee_skills</text>
<text text-anchor="start" x="570.25" y="-864.4" font-family="Arial" font-size="14.00">    </text>
<text text-anchor="start" x="601.36" y="-864.4" font-family="Arial" font-size="14.00" fill="#666666">[BASE TABLE]</text>
<polygon fill="none" stroke="black" points="396.77,-820.2 396.77,-851 701.74,-851 701.74,-820.2 396.77,-820.2"/>
<text text-anchor="start" x="403.77" y="-832.4" font-family="Arial" font-size="14.00">id </text>
<text text-anchor="start" x="418.56" y="-832.4" font-family="Arial" font-size="14.00" fill="#666666">[uuid]</text>
<polygon fill="none" stroke="black" points="396.77,-789.4 396.77,-820.2 701.74,-820.2 701.74,-789.4 396.77,-789.4"/>
<text text-anchor="start" x="403.77" y="-801.6" font-family="Arial" font-size="14.00">employee_id </text>
<text text-anchor="start" x="487.05" y="-801.6" font-family="Arial" font-size="14.00" fill="#666666">[uuid]</text>
<polygon fill="none" stroke="black" points="396.77,-758.6 396.77,-789.4 701.74,-789.4 701.74,-758.6 396.77,-758.6"/>
<text text-anchor="start" x="403.77" y="-770.8" font-family="Arial" font-size="14.00">skill_id </text>
<text text-anchor="start" x="449.68" y="-770.8" font-family="Arial" font-size="14.00" fill="#666666">[uuid]</text>
<polygon fill="none" stroke="black" points="396.77,-727.8 396.77,-758.6 701.74,-758.6 701.74,-727.8 396.77,-727.8"/>
<text text-anchor="start" x="403.77" y="-740" font-family="Arial" font-size="14.00">is_enabled </text>
<text text-anchor="start" x="475.39" y="-740" font-family="Arial" font-size="14.00" fill="#666666">[boolean]</text>
<polygon fill="none" stroke="black" points="396.77,-697 396.77,-727.8 701.74,-727.8 701.74,-697 396.77,-697"/>
<text text-anchor="start" x="403.77" y="-709.2" font-family="Arial" font-size="14.00">config </text>
<text text-anchor="start" x="445.02" y="-709.2" font-family="Arial" font-size="14.00" fill="#666666">[jsonb]</text>
<polygon fill="none" stroke="black" points="396.77,-666.2 396.77,-697 701.74,-697 701.74,-666.2 396.77,-666.2"/>
<text text-anchor="start" x="403.77" y="-678.4" font-family="Arial" font-size="14.00">created_at </text>
<text text-anchor="start" x="473.82" y="-678.4" font-family="Arial" font-size="14.00" fill="#666666">[timestamp without time zone]</text>
<polygon fill="none" stroke="black" points="396.77,-635.4 396.77,-666.2 701.74,-666.2 701.74,-635.4 396.77,-635.4"/>
<text text-anchor="start" x="403.77" y="-647.6" font-family="Arial" font-size="14.00">updated_at </text>
<text text-anchor="start" x="477.73" y="-647.6" font-family="Arial" font-size="14.00" fill="#666666">[timestamp without time zone]</text>
<polygon fill="none" stroke="black" stroke-width="3" points="395.27,-633.9 395.27,-888.1 703.24,-888.1 703.24,-633.9 395.27,-633.9"/>
</g>
<!-- public.employees -->
<g id="node2" class="node">
<title>public.employees</title>
<polygon fill="#efefef" stroke="none" points="216.41,-474.4 216.41,-510 498.1,-510 498.1,-474.4 216.41,-474.4"/>
<polygon fill="none" stroke="black" points="216.41,-474.4 216.41,-510 498.1,-510 498.1,-474.4 216.41,-474.4"/>
<text text-anchor="start" x="231.78" y="-487.8" font-family="Arial Bold" font-size="18.00">public.employees</text>
<text text-anchor="start" x="358.24" y="-487.8" font-family="Arial" font-size="14.00">    </text>
<text text-anchor="start" x="389.36" y="-487.8" font-family="Arial" font-size="14.00" fill="#666666">[BASE TABLE]</text>
<polygon fill="none" stroke="black" points="216.41,-443.6 216.41,-474.4 498.1,-474.4 498.1,-443.6 216.41,-443.6"/>
<text text-anchor="start" x="223.41" y="-455.8" font-family="Arial" font-size="14.00">id </text>
<text text-anchor="start" x="238.2" y="-455.8" font-family="Arial" font-size="14.00" fill="#666666">[uuid]</text>
<polygon fill="none" stroke="black" points="216.41,-412.8 216.41,-443.6 498.1,-443.6 498.1,-412.8 216.41,-412.8"/>
<text text-anchor="start" x="223.41" y="-425" font-family="Arial" font-size="14.00">org_id </text>
<text text-anchor="start" x="266.22" y="-425" font-family="Arial" font-size="14.00" fill="#666666">[uuid]</text>
<polygon fill="none" stroke="black" points="216.41,-382 216.41,-412.8 498.1,-412.8 498.1,-382 216.41,-382"/>
<text text-anchor="start" x="223.41" y="-394.2" font-family="Arial" font-size="14.00">team_id </text>
<text text-anchor="start" x="277.11" y="-394.2" font-family="Arial" font-size="14.00" fill="#666666">[uuid]</text>
<polygon fill="none" stroke="black" points="216.41,-351.2 216.41,-382 498.1,-382 498.1,-351.2 216.41,-351.2"/>
<text text-anchor="start" x="223.41" y="-363.4" font-family="Arial" font-size="14.00">role_id </text>
<text text-anchor="start" x="269.33" y="-363.4" font-family="Arial" font-size="14.00" fill="#666666">[uuid]</text>
<polygon fill="none" stroke="black" points="216.41,-320.4 216.41,-351.2 498.1,-351.2 498.1,-320.4 216.41,-320.4"/>
<text text-anchor="start" x="223.41" y="-332.6" font-family="Arial" font-size="14.00">email </text>
<text text-anchor="start" x="260.75" y="-332.6" font-family="Arial" font-size="14.00" fill="#666666">[varchar(255)]</text>
<polygon fill="none" stroke="black" points="216.41,-289.6 216.41,-320.4 498.1,-320.4 498.1,-289.6 216.41,-289.6"/>
<text text-anchor="start" x="223.41" y="-301.8" font-family="Arial" font-size="14.00">full_name </text>
<text text-anchor="start" x="288" y="-301.8" font-family="Arial" font-size="14.00" fill="#666666">[varchar(255)]</text>
<polygon fill="none" stroke="black" points="216.41,-258.8 216.41,-289.6 498.1,-289.6 498.1,-258.8 216.41,-258.8"/>
<text text-anchor="start" x="223.41" y="-271" font-family="Arial" font-size="14.00">password_hash </text>
<text text-anchor="start" x="325.36" y="-271" font-family="Arial" font-size="14.00" fill="#666666">[varchar(255)]</text>
<polygon fill="none" stroke="black" points="216.41,-228 216.41,-258.8 498.1,-258.8 498.1,-228 216.41,-228"/>
<text text-anchor="start" x="223.41" y="-240.2" font-family="Arial" font-size="14.00">status </text>
<text text-anchor="start" x="264.65" y="-240.2" font-family="Arial" font-size="14.00" fill="#666666">[varchar(50)]</text>
<polygon fill="none" stroke="black" points="216.41,-197.2 216.41,-228 498.1,-228 498.1,-197.2 216.41,-197.2"/>
<text text-anchor="start" x="223.41" y="-209.4" font-family="Arial" font-size="14.00">preferences </text>
<text text-anchor="start" x="301.23" y="-209.4" font-family="Arial" font-size="14.00" fill="#666666">[jsonb]</text>
<polygon fill="none" stroke="black" points="216.41,-166.4 216.41,-197.2 498.1,-197.2 498.1,-166.4 216.41,-166.4"/>
<text text-anchor="start" x="223.41" y="-178.6" font-family="Arial" font-size="14.00">personal_claude_token </text>
<text text-anchor="start" x="372.08" y="-178.6" font-family="Arial" font-size="14.00" fill="#666666">[text]</text>
<polygon fill="none" stroke="black" points="216.41,-135.6 216.41,-166.4 498.1,-166.4 498.1,-135.6 216.41,-135.6"/>
<text text-anchor="start" x="223.41" y="-147.8" font-family="Arial" font-size="14.00">last_login_at </text>
<text text-anchor="start" x="305.91" y="-147.8" font-family="Arial" font-size="14.00" fill="#666666">[timestamp without time zone]</text>
<polygon fill="none" stroke="black" points="216.41,-104.8 216.41,-135.6 498.1,-135.6 498.1,-104.8 216.41,-104.8"/>
<text text-anchor="start" x="223.41" y="-117" font-family="Arial" font-size="14.00">created_at </text>
<text text-anchor="start" x="293.46" y="-117" font-family="Arial" font-size="14.00" fill="#666666">[timestamp without time zone]</text>
<polygon fill="none" stroke="black" points="216.41,-74 216.41,-104.8 498.1,-104.8 498.1,-74 216.41,-74"/>
<text text-anchor="start" x="223.41" y="-86.2" font-family="Arial" font-size="14.00">updated_at </text>
<text text-anchor="start" x="297.37" y="-86.2" font-family="Arial" font-size="14.00" fill="#666666">[timestamp without time zone]</text>
<polygon fill="none" stroke="black" points="216.41,-43.2 216.41,-74 498.1,-74 498.1,-43.2 216.41,-43.2"/>
<text text-anchor="start" x="223.41" y="-55.4" font-family="Arial" font-size="14.00">deleted_at </text>
<text text-anchor="start" x="292.69" y="-55.4" font-family="Arial" font-size="14.00" fill="#666666">[timestamp without time zone]</text>
</g>
<!-- public.employee_skills&#45;&gt;public.employees -->
<g id="edge1" class="edge">
<title>public.employee_skills:employee_id&#45;&gt;public.employees:id</title>
<path fill="none" stroke="black" d="M385.41,-804.21C303.12,-794.42 343.44,-664.38 396.77,-589.2 424.43,-550.22 470.33,-592.1 498.1,-553.2 522.43,-519.12 540.97,-459 499.1,-459"/>
<polygon fill="black" stroke="black" points="385.45,-804.21 395.18,-809.27 390.78,-804.52 395.1,-804.76 395.1,-804.76 395.1,-804.76 390.78,-804.52 395.69,-800.29 385.45,-804.21"/>
<text text-anchor="start" x="7" y="-814.8" font-family="Arial" font-size="10.00">FOREIGN KEY (employee_id) REFERENCES employees(id) ON DELETE CASCADE</text>
</g>
<!-- public.skill_catalog -->
<g id="node3" class="node">
<title>public.skill_catalog</title>
<polygon fill="#efefef" stroke="none" points="602.27,-412.8 602.27,-448.4 882.23,-448.4 882.23,-412.8 602.27,-412.8"/>
<polygon fill="none" stroke="black" points="602.27,-412.8 602.27,-448.4 882.23,-448.4 882.23,-412.8 602.27,-412.8"/>
<text text-anchor="start" x="609.27" y="-426.2" font-family="Arial Bold" font-size="18.00">public.skill_catalog</text>
<text text-anchor="start" x="750.74" y="-426.2" font-family="Arial" font-size="14.00">    </text>
<text text-anchor="start" x="781.86" y="-426.2" font-family="Arial" font-size="14.00" fill="#666666">[BASE TABLE]</text>
<polygon fill="none" stroke="black" points="602.27,-382 602.27,-412.8 882.23,-412.8 882.23,-382 602.27,-382"/>
<text text-anchor="start" x="609.27" y="-394.2" font-family="Arial" font-size="14.00">id </text>
<text text-anchor="start" x="624.06" y="-394.2" font-family="Arial" font-size="14.00" fill="#666666">[uuid]</text>
<polygon fill="none" stroke="black" points="602.27,-351.2 602.27,-382 882.23,-382 882.23,-351.2 602.27,-351.2"/>
<text text-anchor="start" x="609.27" y="-363.4" font-family="Arial" font-size="14.00">name </text>
<text text-anchor="start" x="648.19" y="-363.4" font-family="Arial" font-size="14.00" fill="#666666">[varchar(100)]</text>
<polygon fill="none" stroke="black" points="602.27,-320.4 602.27,-351.2 882.23,-351.2 882.23,-320.4 602.27,-320.4"/>
<text text-anchor="start" x="609.27" y="-332.6" font-family="Arial" font-size="14.00">description </text>
<text text-anchor="start" x="680.87" y="-332.6" font-family="Arial" font-size="14.00" fill="#666666">[text]</text>
<polygon fill="none" stroke="black" points="602.27,-289.6 602.27,-320.4 882.23,-320.4 882.23,-289.6 602.27,-289.6"/>
<text text-anchor="start" x="609.27" y="-301.8" font-family="Arial" font-size="14.00">category </text>
<text text-anchor="start" x="666.86" y="-301.8" font-family="Arial" font-size="14.00" fill="#666666">[varchar(50)]</text>
<polygon fill="none" stroke="black" points="602.27,-258.8 602.27,-289.6 882.23,-289.6 882.23,-258.8 602.27,-258.8"/>
<text text-anchor="start" x="609.27" y="-271" font-family="Arial" font-size="14.00">version </text>
<text text-anchor="start" x="658.3" y="-271" font-family="Arial" font-size="14.00" fill="#666666">[varchar(20)]</text>
<polygon fill="none" stroke="black" points="602.27,-228 602.27,-258.8 882.23,-258.8 882.23,-228 602.27,-228"/>
<text text-anchor="start" x="609.27" y="-240.2" font-family="Arial" font-size="14.00">files </text>
<text text-anchor="start" x="638.06" y="-240.2" font-family="Arial" font-size="14.00" fill="#666666">[jsonb]</text>
<polygon fill="none" stroke="black" points="602.27,-197.2 602.27,-228 882.23,-228 882.23,-197.2 602.27,-197.2"/>
<text text-anchor="start" x="609.27" y="-209.4" font-family="Arial" font-size="14.00">dependencies </text>
<text text-anchor="start" x="700.35" y="-209.4" font-family="Arial" font-size="14.00" fill="#666666">[jsonb]</text>
<polygon fill="none" stroke="black" points="602.27,-166.4 602.27,-197.2 882.23,-197.2 882.23,-166.4 602.27,-166.4"/>
<text text-anchor="start" x="609.27" y="-178.6" font-family="Arial" font-size="14.00">is_active </text>
<text text-anchor="start" x="667.63" y="-178.6" font-family="Arial" font-size="14.00" fill="#666666">[boolean]</text>
<polygon fill="none" stroke="black" points="602.27,-135.6 602.27,-166.4 882.23,-166.4 882.23,-135.6 602.27,-135.6"/>
<text text-anchor="start" x="609.27" y="-147.8" font-family="Arial" font-size="14.00">created_at </text>
<text text-anchor="start" x="679.32" y="-147.8" font-family="Arial" font-size="14.00" fill="#666666">[timestamp without time zone]</text>
<polygon fill="none" stroke="black" points="602.27,-104.8 602.27,-135.6 882.23,-135.6 882.23,-104.8 602.27,-104.8"/>
<text text-anchor="start" x="609.27" y="-117" font-family="Arial" font-size="14.00">updated_at </text>
<text text-anchor="start" x="683.23" y="-117" font-family="Arial" font-size="14.00" fill="#666666">[timestamp without time zone]</text>
</g>
<!-- public.employee_skills&#45;&gt;public.skill_catalog -->
<g id="edge2" class="edge">
<title>public.employee_skills:skill_id&#45;&gt;public.skill_catalog:id</title>
<path fill="none" stroke="black" d="M713.01,-773.35C780.31,-764.26 732.29,-661.45 701.74,-589.2 677.61,-532.16 626.55,-548.58 602.27,-491.6 585.87,-453.08 559.41,-397.4 601.27,-397.4"/>
<polygon fill="black" stroke="black" points="713.05,-773.35 702.79,-769.49 707.73,-773.69 703.4,-773.96 703.4,-773.96 703.4,-773.96 707.73,-773.69 703.35,-778.47 713.05,-773.35"/>
<text text-anchor="start" x="709.74" y="-784" font-family="Arial" font-size="10.00">FOREIGN KEY (skill_id) REFERENCES skill_catalog(id) ON DELETE CASCADE</text>
</g>
</g>
</svg>
