<?xml version="1.0" encoding="UTF-8" standalone="no"?>
<!DOCTYPE svg PUBLIC "-//W3C//DTD SVG 1.1//EN"
 "http://www.w3.org/Graphics/SVG/1.1/DTD/svg11.dtd">
<!-- Generated by graphviz version 12.1.2 (20240928.0832)
 -->
<!-- Title: public.mcp_categories Pages: 1 -->
<svg width="758pt" height="879pt"
 viewBox="0.00 0.00 758.08 879.20" xmlns="http://www.w3.org/2000/svg" xmlns:xlink="http://www.w3.org/1999/xlink">
<g id="graph0" class="graph" transform="scale(1 1) rotate(0) translate(4 875.2)">
<title>public.mcp_categories</title>
<polygon fill="white" stroke="none" points="-4,4 -4,-875.2 754.08,-875.2 754.08,4 -4,4"/>
<!-- public.mcp_categories -->
<g id="node1" class="node">
<title>public.mcp_categories</title>
<polygon fill="#efefef" stroke="none" points="46.2,-169.4 46.2,-205 347.13,-205 347.13,-169.4 46.2,-169.4"/>
<polygon fill="none" stroke="black" points="46.2,-169.4 46.2,-205 347.13,-205 347.13,-169.4 46.2,-169.4"/>
<text text-anchor="start" x="53.2" y="-182.8" font-family="Arial Bold" font-size="18.00">public.mcp_categories</text>
<text text-anchor="start" x="215.64" y="-182.8" font-family="Arial" font-size="14.00">    </text>
<text text-anchor="start" x="246.76" y="-182.8" font-family="Arial" font-size="14.00" fill="#666666">[BASE TABLE]</text>
<polygon fill="none" stroke="black" points="46.2,-138.6 46.2,-169.4 347.13,-169.4 347.13,-138.6 46.2,-138.6"/>
<text text-anchor="start" x="53.2" y="-150.8" font-family="Arial" font-size="14.00">id </text>
<text text-anchor="start" x="67.99" y="-150.8" font-family="Arial" font-size="14.00" fill="#666666">[uuid]</text>
<polygon fill="none" stroke="black" points="46.2,-107.8 46.2,-138.6 347.13,-138.6 347.13,-107.8 46.2,-107.8"/>
<text text-anchor="start" x="53.2" y="-120" font-family="Arial" font-size="14.00">name </text>
<text text-anchor="start" x="92.11" y="-120" font-family="Arial" font-size="14.00" fill="#666666">[varchar(100)]</text>
<polygon fill="none" stroke="black" points="46.2,-77 46.2,-107.8 347.13,-107.8 347.13,-77 46.2,-77"/>
<text text-anchor="start" x="53.2" y="-89.2" font-family="Arial" font-size="14.00">description </text>
<text text-anchor="start" x="124.79" y="-89.2" font-family="Arial" font-size="14.00" fill="#666666">[text]</text>
<polygon fill="none" stroke="black" points="46.2,-46.2 46.2,-77 347.13,-77 347.13,-46.2 46.2,-46.2"/>
<text text-anchor="start" x="53.2" y="-58.4" font-family="Arial" font-size="14.00">created_at </text>
<text text-anchor="start" x="123.25" y="-58.4" font-family="Arial" font-size="14.00" fill="#666666">[timestamp without time zone]</text>
<polygon fill="none" stroke="black" stroke-width="3" points="44.7,-44.7 44.7,-206.5 348.63,-206.5 348.63,-44.7 44.7,-44.7"/>
</g>
<!-- public.mcp_catalog -->
<g id="node2" class="node">
<title>public.mcp_catalog</title>
<polygon fill="#efefef" stroke="none" points="56.69,-792.4 56.69,-828 336.63,-828 336.63,-792.4 56.69,-792.4"/>
<polygon fill="none" stroke="black" points="56.69,-792.4 56.69,-828 336.63,-828 336.63,-792.4 56.69,-792.4"/>
<text text-anchor="start" x="63.69" y="-805.8" font-family="Arial Bold" font-size="18.00">public.mcp_catalog</text>
<text text-anchor="start" x="205.15" y="-805.8" font-family="Arial" font-size="14.00">    </text>
<text text-anchor="start" x="236.26" y="-805.8" font-family="Arial" font-size="14.00" fill="#666666">[BASE TABLE]</text>
<polygon fill="none" stroke="black" points="56.69,-761.6 56.69,-792.4 336.63,-792.4 336.63,-761.6 56.69,-761.6"/>
<text text-anchor="start" x="63.69" y="-773.8" font-family="Arial" font-size="14.00">id </text>
<text text-anchor="start" x="78.48" y="-773.8" font-family="Arial" font-size="14.00" fill="#666666">[uuid]</text>
<polygon fill="none" stroke="black" points="56.69,-730.8 56.69,-761.6 336.63,-761.6 336.63,-730.8 56.69,-730.8"/>
<text text-anchor="start" x="63.69" y="-743" font-family="Arial" font-size="14.00">name </text>
<text text-anchor="start" x="102.6" y="-743" font-family="Arial" font-size="14.00" fill="#666666">[varchar(255)]</text>
<polygon fill="none" stroke="black" points="56.69,-700 56.69,-730.8 336.63,-730.8 336.63,-700 56.69,-700"/>
<text text-anchor="start" x="63.69" y="-712.2" font-family="Arial" font-size="14.00">provider </text>
<text text-anchor="start" x="118.16" y="-712.2" font-family="Arial" font-size="14.00" fill="#666666">[varchar(255)]</text>
<polygon fill="none" stroke="black" points="56.69,-669.2 56.69,-700 336.63,-700 336.63,-669.2 56.69,-669.2"/>
<text text-anchor="start" x="63.69" y="-681.4" font-family="Arial" font-size="14.00">version </text>
<text text-anchor="start" x="112.71" y="-681.4" font-family="Arial" font-size="14.00" fill="#666666">[varchar(50)]</text>
<polygon fill="none" stroke="black" points="56.69,-638.4 56.69,-669.2 336.63,-669.2 336.63,-638.4 56.69,-638.4"/>
<text text-anchor="start" x="63.69" y="-650.6" font-family="Arial" font-size="14.00">description </text>
<text text-anchor="start" x="135.29" y="-650.6" font-family="Arial" font-size="14.00" fill="#666666">[text]</text>
<polygon fill="none" stroke="black" points="56.69,-607.6 56.69,-638.4 336.63,-638.4 336.63,-607.6 56.69,-607.6"/>
<text text-anchor="start" x="63.69" y="-619.8" font-family="Arial" font-size="14.00">connection_schema </text>
<text text-anchor="start" x="192.11" y="-619.8" font-family="Arial" font-size="14.00" fill="#666666">[jsonb]</text>
<polygon fill="none" stroke="black" points="56.69,-576.8 56.69,-607.6 336.63,-607.6 336.63,-576.8 56.69,-576.8"/>
<text text-anchor="start" x="63.69" y="-589" font-family="Arial" font-size="14.00">capabilities </text>
<text text-anchor="start" x="136.85" y="-589" font-family="Arial" font-size="14.00" fill="#666666">[jsonb]</text>
<polygon fill="none" stroke="black" points="56.69,-546 56.69,-576.8 336.63,-576.8 336.63,-546 56.69,-546"/>
<text text-anchor="start" x="63.69" y="-558.2" font-family="Arial" font-size="14.00">requires_credentials </text>
<text text-anchor="start" x="193.65" y="-558.2" font-family="Arial" font-size="14.00" fill="#666666">[boolean]</text>
<polygon fill="none" stroke="black" points="56.69,-515.2 56.69,-546 336.63,-546 336.63,-515.2 56.69,-515.2"/>
<text text-anchor="start" x="63.69" y="-527.4" font-family="Arial" font-size="14.00">is_approved </text>
<text text-anchor="start" x="143.86" y="-527.4" font-family="Arial" font-size="14.00" fill="#666666">[boolean]</text>
<polygon fill="none" stroke="black" points="56.69,-484.4 56.69,-515.2 336.63,-515.2 336.63,-484.4 56.69,-484.4"/>
<text text-anchor="start" x="63.69" y="-496.6" font-family="Arial" font-size="14.00">category_id </text>
<text text-anchor="start" x="139.96" y="-496.6" font-family="Arial" font-size="14.00" fill="#666666">[uuid]</text>
<polygon fill="none" stroke="black" points="56.69,-453.6 56.69,-484.4 336.63,-484.4 336.63,-453.6 56.69,-453.6"/>
<text text-anchor="start" x="63.69" y="-465.8" font-family="Arial" font-size="14.00">created_at </text>
<text text-anchor="start" x="133.74" y="-465.8" font-family="Arial" font-size="14.00" fill="#666666">[timestamp without time zone]</text>
<polygon fill="none" stroke="black" points="56.69,-422.8 56.69,-453.6 336.63,-453.6 336.63,-422.8 56.69,-422.8"/>
<text text-anchor="start" x="63.69" y="-435" font-family="Arial" font-size="14.00">updated_at </text>
<text text-anchor="start" x="137.65" y="-435" font-family="Arial" font-size="14.00" fill="#666666">[timestamp without time zone]</text>
<polygon fill="none" stroke="black" points="56.69,-392 56.69,-422.8 336.63,-422.8 336.63,-392 56.69,-392"/>
<text text-anchor="start" x="63.69" y="-404.2" font-family="Arial" font-size="14.00">docker_image </text>
<text text-anchor="start" x="155.52" y="-404.2" font-family="Arial" font-size="14.00" fill="#666666">[varchar(255)]</text>
<polygon fill="none" stroke="black" points="56.69,-361.2 56.69,-392 336.63,-392 336.63,-361.2 56.69,-361.2"/>
<text text-anchor="start" x="63.69" y="-373.4" font-family="Arial" font-size="14.00">config_template </text>
<text text-anchor="start" x="166.42" y="-373.4" font-family="Arial" font-size="14.00" fill="#666666">[jsonb]</text>
<polygon fill="none" stroke="black" points="56.69,-330.4 56.69,-361.2 336.63,-361.2 336.63,-330.4 56.69,-330.4"/>
<text text-anchor="start" x="63.69" y="-342.6" font-family="Arial" font-size="14.00">required_env_vars </text>
<text text-anchor="start" x="183.54" y="-342.6" font-family="Arial" font-size="14.00" fill="#666666">[jsonb]</text>
</g>
<!-- public.mcp_catalog&#45;&gt;public.mcp_categories -->
<g id="edge1" class="edge">
<title>public.mcp_catalog:category_id&#45;&gt;public.mcp_categories:id</title>
<path fill="none" stroke="black" d="M347.59,-497.77C415.28,-469.43 421.55,-154 348.13,-154"/>
<polygon fill="black" stroke="black" points="347.76,-497.73 337.06,-495.32 342.53,-498.8 338.29,-499.67 338.29,-499.67 338.29,-499.67 342.53,-498.8 338.86,-504.14 347.76,-497.73"/>
<text text-anchor="start" x="344.63" y="-509.8" font-family="Arial" font-size="10.00">FOREIGN KEY (category_id) REFERENCES mcp_categories(id) ON DELETE SET NULL</text>
</g>
</g>
</svg>
