<?xml version="1.0" encoding="UTF-8" standalone="no"?>
<!DOCTYPE svg PUBLIC "-//W3C//DTD SVG 1.1//EN"
 "http://www.w3.org/Graphics/SVG/1.1/DTD/svg11.dtd">
<!-- Generated by graphviz version 12.1.2 (20240928.0832)
 -->
<!-- Title: public.skill_catalog Pages: 1 -->
<svg width="732pt" height="818pt"
 viewBox="0.00 0.00 732.35 817.60" xmlns="http://www.w3.org/2000/svg" xmlns:xlink="http://www.w3.org/1999/xlink">
<g id="graph0" class="graph" transform="scale(1 1) rotate(0) translate(4 813.6)">
<title>public.skill_catalog</title>
<polygon fill="white" stroke="none" points="-4,4 -4,-813.6 728.35,-813.6 728.35,4 -4,4"/>
<!-- public.skill_catalog -->
<g id="node1" class="node">
<title>public.skill_catalog</title>
<polygon fill="#efefef" stroke="none" points="55.7,-354.2 55.7,-389.8 335.66,-389.8 335.66,-354.2 55.7,-354.2"/>
<polygon fill="none" stroke="black" points="55.7,-354.2 55.7,-389.8 335.66,-389.8 335.66,-354.2 55.7,-354.2"/>
<text text-anchor="start" x="62.7" y="-367.6" font-family="Arial Bold" font-size="18.00">public.skill_catalog</text>
<text text-anchor="start" x="204.17" y="-367.6" font-family="Arial" font-size="14.00">    </text>
<text text-anchor="start" x="235.29" y="-367.6" font-family="Arial" font-size="14.00" fill="#666666">[BASE TABLE]</text>
<polygon fill="none" stroke="black" points="55.7,-323.4 55.7,-354.2 335.66,-354.2 335.66,-323.4 55.7,-323.4"/>
<text text-anchor="start" x="62.7" y="-335.6" font-family="Arial" font-size="14.00">id </text>
<text text-anchor="start" x="77.49" y="-335.6" font-family="Arial" font-size="14.00" fill="#666666">[uuid]</text>
<polygon fill="none" stroke="black" points="55.7,-292.6 55.7,-323.4 335.66,-323.4 335.66,-292.6 55.7,-292.6"/>
<text text-anchor="start" x="62.7" y="-304.8" font-family="Arial" font-size="14.00">name </text>
<text text-anchor="start" x="101.61" y="-304.8" font-family="Arial" font-size="14.00" fill="#666666">[varchar(100)]</text>
<polygon fill="none" stroke="black" points="55.7,-261.8 55.7,-292.6 335.66,-292.6 335.66,-261.8 55.7,-261.8"/>
<text text-anchor="start" x="62.7" y="-274" font-family="Arial" font-size="14.00">description </text>
<text text-anchor="start" x="134.3" y="-274" font-family="Arial" font-size="14.00" fill="#666666">[text]</text>
<polygon fill="none" stroke="black" points="55.7,-231 55.7,-261.8 335.66,-261.8 335.66,-231 55.7,-231"/>
<text text-anchor="start" x="62.7" y="-243.2" font-family="Arial" font-size="14.00">category </text>
<text text-anchor="start" x="120.29" y="-243.2" font-family="Arial" font-size="14.00" fill="#666666">[varchar(50)]</text>
<polygon fill="none" stroke="black" points="55.7,-200.2 55.7,-231 335.66,-231 335.66,-200.2 55.7,-200.2"/>
<text text-anchor="start" x="62.7" y="-212.4" font-family="Arial" font-size="14.00">version </text>
<text text-anchor="start" x="111.72" y="-212.4" font-family="Arial" font-size="14.00" fill="#666666">[varchar(20)]</text>
<polygon fill="none" stroke="black" points="55.7,-169.4 55.7,-200.2 335.66,-200.2 335.66,-169.4 55.7,-169.4"/>
<text text-anchor="start" x="62.7" y="-181.6" font-family="Arial" font-size="14.00">files </text>
<text text-anchor="start" x="91.49" y="-181.6" font-family="Arial" font-size="14.00" fill="#666666">[jsonb]</text>
<polygon fill="none" stroke="black" points="55.7,-138.6 55.7,-169.4 335.66,-169.4 335.66,-138.6 55.7,-138.6"/>
<text text-anchor="start" x="62.7" y="-150.8" font-family="Arial" font-size="14.00">dependencies </text>
<text text-anchor="start" x="153.78" y="-150.8" font-family="Arial" font-size="14.00" fill="#666666">[jsonb]</text>
<polygon fill="none" stroke="black" points="55.7,-107.8 55.7,-138.6 335.66,-138.6 335.66,-107.8 55.7,-107.8"/>
<text text-anchor="start" x="62.7" y="-120" font-family="Arial" font-size="14.00">is_active </text>
<text text-anchor="start" x="121.06" y="-120" font-family="Arial" font-size="14.00" fill="#666666">[boolean]</text>
<polygon fill="none" stroke="black" points="55.7,-77 55.7,-107.8 335.66,-107.8 335.66,-77 55.7,-77"/>
<text text-anchor="start" x="62.7" y="-89.2" font-family="Arial" font-size="14.00">created_at </text>
<text text-anchor="start" x="132.75" y="-89.2" font-family="Arial" font-size="14.00" fill="#666666">[timestamp without time zone]</text>
<polygon fill="none" stroke="black" points="55.7,-46.2 55.7,-77 335.66,-77 335.66,-46.2 55.7,-46.2"/>
<text text-anchor="start" x="62.7" y="-58.4" font-family="Arial" font-size="14.00">updated_at </text>
<text text-anchor="start" x="136.66" y="-58.4" font-family="Arial" font-size="14.00" fill="#666666">[timestamp without time zone]</text>
<polygon fill="none" stroke="black" stroke-width="3" points="54.2,-44.7 54.2,-391.3 337.16,-391.3 337.16,-44.7 54.2,-44.7"/>
</g>
<!-- public.employee_skills -->
<g id="node2" class="node">
<title>public.employee_skills</title>
<polygon fill="#efefef" stroke="none" points="43.2,-730.8 43.2,-766.4 348.16,-766.4 348.16,-730.8 43.2,-730.8"/>
<polygon fill="none" stroke="black" points="43.2,-730.8 43.2,-766.4 348.16,-766.4 348.16,-730.8 43.2,-730.8"/>
<text text-anchor="start" x="50.2" y="-744.2" font-family="Arial Bold" font-size="18.00">public.employee_skills</text>
<text text-anchor="start" x="216.67" y="-744.2" font-family="Arial" font-size="14.00">    </text>
<text text-anchor="start" x="247.79" y="-744.2" font-family="Arial" font-size="14.00" fill="#666666">[BASE TABLE]</text>
<polygon fill="none" stroke="black" points="43.2,-700 43.2,-730.8 348.16,-730.8 348.16,-700 43.2,-700"/>
<text text-anchor="start" x="50.2" y="-712.2" font-family="Arial" font-size="14.00">id </text>
<text text-anchor="start" x="64.99" y="-712.2" font-family="Arial" font-size="14.00" fill="#666666">[uuid]</text>
<polygon fill="none" stroke="black" points="43.2,-669.2 43.2,-700 348.16,-700 348.16,-669.2 43.2,-669.2"/>
<text text-anchor="start" x="50.2" y="-681.4" font-family="Arial" font-size="14.00">employee_id </text>
<text text-anchor="start" x="133.48" y="-681.4" font-family="Arial" font-size="14.00" fill="#666666">[uuid]</text>
<polygon fill="none" stroke="black" points="43.2,-638.4 43.2,-669.2 348.16,-669.2 348.16,-638.4 43.2,-638.4"/>
<text text-anchor="start" x="50.2" y="-650.6" font-family="Arial" font-size="14.00">skill_id </text>
<text text-anchor="start" x="96.1" y="-650.6" font-family="Arial" font-size="14.00" fill="#666666">[uuid]</text>
<polygon fill="none" stroke="black" points="43.2,-607.6 43.2,-638.4 348.16,-638.4 348.16,-607.6 43.2,-607.6"/>
<text text-anchor="start" x="50.2" y="-619.8" font-family="Arial" font-size="14.00">is_enabled </text>
<text text-anchor="start" x="121.81" y="-619.8" font-family="Arial" font-size="14.00" fill="#666666">[boolean]</text>
<polygon fill="none" stroke="black" points="43.2,-576.8 43.2,-607.6 348.16,-607.6 348.16,-576.8 43.2,-576.8"/>
<text text-anchor="start" x="50.2" y="-589" font-family="Arial" font-size="14.00">config </text>
<text text-anchor="start" x="91.45" y="-589" font-family="Arial" font-size="14.00" fill="#666666">[jsonb]</text>
<polygon fill="none" stroke="black" points="43.2,-546 43.2,-576.8 348.16,-576.8 348.16,-546 43.2,-546"/>
<text text-anchor="start" x="50.2" y="-558.2" font-family="Arial" font-size="14.00">created_at </text>
<text text-anchor="start" x="120.25" y="-558.2" font-family="Arial" font-size="14.00" fill="#666666">[timestamp without time zone]</text>
<polygon fill="none" stroke="black" points="43.2,-515.2 43.2,-546 348.16,-546 348.16,-515.2 43.2,-515.2"/>
<text text-anchor="start" x="50.2" y="-527.4" font-family="Arial" font-size="14.00">updated_at </text>
<text text-anchor="start" x="124.16" y="-527.4" font-family="Arial" font-size="14.00" fill="#666666">[timestamp without time zone]</text>
</g>
<!-- public.employee_skills&#45;&gt;public.skill_catalog -->
<g id="edge1" class="edge">
<title>public.employee_skills:skill_id&#45;&gt;public.skill_catalog:id</title>
<path fill="none" stroke="black" d="M359.2,-651.45C417.8,-622.62 403.16,-338.8 336.66,-338.8"/>
<polygon fill="black" stroke="black" points="359.22,-651.44 348.46,-649.34 354.03,-652.66 349.81,-653.65 349.81,-653.65 349.81,-653.65 354.03,-652.66 350.52,-658.1 359.22,-651.44"/>
<text text-anchor="start" x="356.16" y="-663.8" font-family="Arial" font-size="10.00">FOREIGN KEY (skill_id) REFERENCES skill_catalog(id) ON DELETE CASCADE</text>
</g>
</g>
</svg>
