<?xml version="1.0" encoding="UTF-8" standalone="no"?>
<!DOCTYPE svg PUBLIC "-//W3C//DTD SVG 1.1//EN"
 "http://www.w3.org/Graphics/SVG/1.1/DTD/svg11.dtd">
<!-- Generated by graphviz version 12.1.2 (20240928.0832)
 -->
<!-- Title: public.activity_logs Pages: 1 -->
<svg width="1143pt" height="1561pt"
 viewBox="0.00 0.00 1143.45 1560.80" xmlns="http://www.w3.org/2000/svg" xmlns:xlink="http://www.w3.org/1999/xlink">
<g id="graph0" class="graph" transform="scale(1 1) rotate(0) translate(4 1556.8)">
<title>public.activity_logs</title>
<polygon fill="white" stroke="none" points="-4,4 -4,-1556.8 1139.45,-1556.8 1139.45,4 -4,4"/>
<!-- public.activity_logs -->
<g id="node1" class="node">
<title>public.activity_logs</title>
<polygon fill="#efefef" stroke="none" points="433.19,-943.4 433.19,-979 714.16,-979 714.16,-943.4 433.19,-943.4"/>
<polygon fill="none" stroke="black" points="433.19,-943.4 433.19,-979 714.16,-979 714.16,-943.4 433.19,-943.4"/>
<text text-anchor="start" x="440.19" y="-956.8" font-family="Arial Bold" font-size="18.00">public.activity_logs</text>
<text text-anchor="start" x="582.67" y="-956.8" font-family="Arial" font-size="14.00">    </text>
<text text-anchor="start" x="613.79" y="-956.8" font-family="Arial" font-size="14.00" fill="#666666">[BASE TABLE]</text>
<polygon fill="none" stroke="black" points="433.19,-912.6 433.19,-943.4 714.16,-943.4 714.16,-912.6 433.19,-912.6"/>
<text text-anchor="start" x="440.19" y="-924.8" font-family="Arial" font-size="14.00">id </text>
<text text-anchor="start" x="454.98" y="-924.8" font-family="Arial" font-size="14.00" fill="#666666">[uuid]</text>
<polygon fill="none" stroke="black" points="433.19,-881.8 433.19,-912.6 714.16,-912.6 714.16,-881.8 433.19,-881.8"/>
<text text-anchor="start" x="440.19" y="-894" font-family="Arial" font-size="14.00">org_id </text>
<text text-anchor="start" x="483" y="-894" font-family="Arial" font-size="14.00" fill="#666666">[uuid]</text>
<polygon fill="none" stroke="black" points="433.19,-851 433.19,-881.8 714.16,-881.8 714.16,-851 433.19,-851"/>
<text text-anchor="start" x="440.19" y="-863.2" font-family="Arial" font-size="14.00">employee_id </text>
<text text-anchor="start" x="523.47" y="-863.2" font-family="Arial" font-size="14.00" fill="#666666">[uuid]</text>
<polygon fill="none" stroke="black" points="433.19,-820.2 433.19,-851 714.16,-851 714.16,-820.2 433.19,-820.2"/>
<text text-anchor="start" x="440.19" y="-832.4" font-family="Arial" font-size="14.00">session_id </text>
<text text-anchor="start" x="510.23" y="-832.4" font-family="Arial" font-size="14.00" fill="#666666">[uuid]</text>
<polygon fill="none" stroke="black" points="433.19,-789.4 433.19,-820.2 714.16,-820.2 714.16,-789.4 433.19,-789.4"/>
<text text-anchor="start" x="440.19" y="-801.6" font-family="Arial" font-size="14.00">agent_id </text>
<text text-anchor="start" x="497.8" y="-801.6" font-family="Arial" font-size="14.00" fill="#666666">[uuid]</text>
<polygon fill="none" stroke="black" points="433.19,-758.6 433.19,-789.4 714.16,-789.4 714.16,-758.6 433.19,-758.6"/>
<text text-anchor="start" x="440.19" y="-770.8" font-family="Arial" font-size="14.00">event_type </text>
<text text-anchor="start" x="512.58" y="-770.8" font-family="Arial" font-size="14.00" fill="#666666">[varchar(100)]</text>
<polygon fill="none" stroke="black" points="433.19,-727.8 433.19,-758.6 714.16,-758.6 714.16,-727.8 433.19,-727.8"/>
<text text-anchor="start" x="440.19" y="-740" font-family="Arial" font-size="14.00">event_category </text>
<text text-anchor="start" x="539.81" y="-740" font-family="Arial" font-size="14.00" fill="#666666">[varchar(50)]</text>
<polygon fill="none" stroke="black" points="433.19,-697 433.19,-727.8 714.16,-727.8 714.16,-697 433.19,-697"/>
<text text-anchor="start" x="440.19" y="-709.2" font-family="Arial" font-size="14.00">content </text>
<text text-anchor="start" x="490" y="-709.2" font-family="Arial" font-size="14.00" fill="#666666">[text]</text>
<polygon fill="none" stroke="black" points="433.19,-666.2 433.19,-697 714.16,-697 714.16,-666.2 433.19,-666.2"/>
<text text-anchor="start" x="440.19" y="-678.4" font-family="Arial" font-size="14.00">payload </text>
<text text-anchor="start" x="493.12" y="-678.4" font-family="Arial" font-size="14.00" fill="#666666">[jsonb]</text>
<polygon fill="none" stroke="black" points="433.19,-635.4 433.19,-666.2 714.16,-666.2 714.16,-635.4 433.19,-635.4"/>
<text text-anchor="start" x="440.19" y="-647.6" font-family="Arial" font-size="14.00">created_at </text>
<text text-anchor="start" x="510.24" y="-647.6" font-family="Arial" font-size="14.00" fill="#666666">[timestamp without time zone]</text>
<polygon fill="none" stroke="black" stroke-width="3" points="431.69,-633.9 431.69,-980.5 715.66,-980.5 715.66,-633.9 431.69,-633.9"/>
</g>
<!-- public.organizations -->
<g id="node3" class="node">
<title>public.organizations</title>
<polygon fill="#efefef" stroke="none" points="43.2,-412.8 43.2,-448.4 328.15,-448.4 328.15,-412.8 43.2,-412.8"/>
<polygon fill="none" stroke="black" points="43.2,-412.8 43.2,-448.4 328.15,-448.4 328.15,-412.8 43.2,-412.8"/>
<text text-anchor="start" x="50.2" y="-426.2" font-family="Arial Bold" font-size="18.00">public.organizations</text>
<text text-anchor="start" x="196.66" y="-426.2" font-family="Arial" font-size="14.00">    </text>
<text text-anchor="start" x="227.78" y="-426.2" font-family="Arial" font-size="14.00" fill="#666666">[BASE TABLE]</text>
<polygon fill="none" stroke="black" points="43.2,-382 43.2,-412.8 328.15,-412.8 328.15,-382 43.2,-382"/>
<text text-anchor="start" x="50.2" y="-394.2" font-family="Arial" font-size="14.00">id </text>
<text text-anchor="start" x="64.99" y="-394.2" font-family="Arial" font-size="14.00" fill="#666666">[uuid]</text>
<polygon fill="none" stroke="black" points="43.2,-351.2 43.2,-382 328.15,-382 328.15,-351.2 43.2,-351.2"/>
<text text-anchor="start" x="50.2" y="-363.4" font-family="Arial" font-size="14.00">name </text>
<text text-anchor="start" x="89.11" y="-363.4" font-family="Arial" font-size="14.00" fill="#666666">[varchar(255)]</text>
<polygon fill="none" stroke="black" points="43.2,-320.4 43.2,-351.2 328.15,-351.2 328.15,-320.4 43.2,-320.4"/>
<text text-anchor="start" x="50.2" y="-332.6" font-family="Arial" font-size="14.00">slug </text>
<text text-anchor="start" x="79.77" y="-332.6" font-family="Arial" font-size="14.00" fill="#666666">[varchar(100)]</text>
<polygon fill="none" stroke="black" points="43.2,-289.6 43.2,-320.4 328.15,-320.4 328.15,-289.6 43.2,-289.6"/>
<text text-anchor="start" x="50.2" y="-301.8" font-family="Arial" font-size="14.00">plan </text>
<text text-anchor="start" x="80.56" y="-301.8" font-family="Arial" font-size="14.00" fill="#666666">[varchar(50)]</text>
<polygon fill="none" stroke="black" points="43.2,-258.8 43.2,-289.6 328.15,-289.6 328.15,-258.8 43.2,-258.8"/>
<text text-anchor="start" x="50.2" y="-271" font-family="Arial" font-size="14.00">settings </text>
<text text-anchor="start" x="102.34" y="-271" font-family="Arial" font-size="14.00" fill="#666666">[jsonb]</text>
<polygon fill="none" stroke="black" points="43.2,-228 43.2,-258.8 328.15,-258.8 328.15,-228 43.2,-228"/>
<text text-anchor="start" x="50.2" y="-240.2" font-family="Arial" font-size="14.00">max_employees </text>
<text text-anchor="start" x="156.03" y="-240.2" font-family="Arial" font-size="14.00" fill="#666666">[integer]</text>
<polygon fill="none" stroke="black" points="43.2,-197.2 43.2,-228 328.15,-228 328.15,-197.2 43.2,-197.2"/>
<text text-anchor="start" x="50.2" y="-209.4" font-family="Arial" font-size="14.00">max_agents_per_employee </text>
<text text-anchor="start" x="226.87" y="-209.4" font-family="Arial" font-size="14.00" fill="#666666">[integer]</text>
<polygon fill="none" stroke="black" points="43.2,-166.4 43.2,-197.2 328.15,-197.2 328.15,-166.4 43.2,-166.4"/>
<text text-anchor="start" x="50.2" y="-178.6" font-family="Arial" font-size="14.00">claude_api_token </text>
<text text-anchor="start" x="163.85" y="-178.6" font-family="Arial" font-size="14.00" fill="#666666">[text]</text>
<polygon fill="none" stroke="black" points="43.2,-135.6 43.2,-166.4 328.15,-166.4 328.15,-135.6 43.2,-135.6"/>
<text text-anchor="start" x="50.2" y="-147.8" font-family="Arial" font-size="14.00">created_at </text>
<text text-anchor="start" x="120.25" y="-147.8" font-family="Arial" font-size="14.00" fill="#666666">[timestamp without time zone]</text>
<polygon fill="none" stroke="black" points="43.2,-104.8 43.2,-135.6 328.15,-135.6 328.15,-104.8 43.2,-104.8"/>
<text text-anchor="start" x="50.2" y="-117" font-family="Arial" font-size="14.00">updated_at </text>
<text text-anchor="start" x="124.16" y="-117" font-family="Arial" font-size="14.00" fill="#666666">[timestamp without time zone]</text>
</g>
<!-- public.activity_logs&#45;&gt;public.organizations -->
<g id="edge2" class="edge">
<title>public.activity_logs:org_id&#45;&gt;public.organizations:id</title>
<path fill="none" stroke="black" d="M423.18,-892.57C376.45,-842.19 382.64,-397.4 329.15,-397.4"/>
<polygon fill="black" stroke="black" points="423,-892.48 429.84,-901.05 427.74,-894.92 431.6,-896.89 431.6,-896.89 431.6,-896.89 427.74,-894.92 433.95,-893.04 423,-892.48"/>
<text text-anchor="start" x="61.2" y="-907.2" font-family="Arial" font-size="10.00">FOREIGN KEY (org_id) REFERENCES organizations(id) ON DELETE CASCADE</text>
</g>
<!-- public.employees -->
<g id="node4" class="node">
<title>public.employees</title>
<polygon fill="#efefef" stroke="none" points="432.83,-474.4 432.83,-510 714.52,-510 714.52,-474.4 432.83,-474.4"/>
<polygon fill="none" stroke="black" points="432.83,-474.4 432.83,-510 714.52,-510 714.52,-474.4 432.83,-474.4"/>
<text text-anchor="start" x="448.2" y="-487.8" font-family="Arial Bold" font-size="18.00">public.employees</text>
<text text-anchor="start" x="574.66" y="-487.8" font-family="Arial" font-size="14.00">    </text>
<text text-anchor="start" x="605.78" y="-487.8" font-family="Arial" font-size="14.00" fill="#666666">[BASE TABLE]</text>
<polygon fill="none" stroke="black" points="432.83,-443.6 432.83,-474.4 714.52,-474.4 714.52,-443.6 432.83,-443.6"/>
<text text-anchor="start" x="439.83" y="-455.8" font-family="Arial" font-size="14.00">id </text>
<text text-anchor="start" x="454.62" y="-455.8" font-family="Arial" font-size="14.00" fill="#666666">[uuid]</text>
<polygon fill="none" stroke="black" points="432.83,-412.8 432.83,-443.6 714.52,-443.6 714.52,-412.8 432.83,-412.8"/>
<text text-anchor="start" x="439.83" y="-425" font-family="Arial" font-size="14.00">org_id </text>
<text text-anchor="start" x="482.64" y="-425" font-family="Arial" font-size="14.00" fill="#666666">[uuid]</text>
<polygon fill="none" stroke="black" points="432.83,-382 432.83,-412.8 714.52,-412.8 714.52,-382 432.83,-382"/>
<text text-anchor="start" x="439.83" y="-394.2" font-family="Arial" font-size="14.00">team_id </text>
<text text-anchor="start" x="493.53" y="-394.2" font-family="Arial" font-size="14.00" fill="#666666">[uuid]</text>
<polygon fill="none" stroke="black" points="432.83,-351.2 432.83,-382 714.52,-382 714.52,-351.2 432.83,-351.2"/>
<text text-anchor="start" x="439.83" y="-363.4" font-family="Arial" font-size="14.00">role_id </text>
<text text-anchor="start" x="485.75" y="-363.4" font-family="Arial" font-size="14.00" fill="#666666">[uuid]</text>
<polygon fill="none" stroke="black" points="432.83,-320.4 432.83,-351.2 714.52,-351.2 714.52,-320.4 432.83,-320.4"/>
<text text-anchor="start" x="439.83" y="-332.6" font-family="Arial" font-size="14.00">email </text>
<text text-anchor="start" x="477.18" y="-332.6" font-family="Arial" font-size="14.00" fill="#666666">[varchar(255)]</text>
<polygon fill="none" stroke="black" points="432.83,-289.6 432.83,-320.4 714.52,-320.4 714.52,-289.6 432.83,-289.6"/>
<text text-anchor="start" x="439.83" y="-301.8" font-family="Arial" font-size="14.00">full_name </text>
<text text-anchor="start" x="504.42" y="-301.8" font-family="Arial" font-size="14.00" fill="#666666">[varchar(255)]</text>
<polygon fill="none" stroke="black" points="432.83,-258.8 432.83,-289.6 714.52,-289.6 714.52,-258.8 432.83,-258.8"/>
<text text-anchor="start" x="439.83" y="-271" font-family="Arial" font-size="14.00">password_hash </text>
<text text-anchor="start" x="541.78" y="-271" font-family="Arial" font-size="14.00" fill="#666666">[varchar(255)]</text>
<polygon fill="none" stroke="black" points="432.83,-228 432.83,-258.8 714.52,-258.8 714.52,-228 432.83,-228"/>
<text text-anchor="start" x="439.83" y="-240.2" font-family="Arial" font-size="14.00">status </text>
<text text-anchor="start" x="481.07" y="-240.2" font-family="Arial" font-size="14.00" fill="#666666">[varchar(50)]</text>
<polygon fill="none" stroke="black" points="432.83,-197.2 432.83,-228 714.52,-228 714.52,-197.2 432.83,-197.2"/>
<text text-anchor="start" x="439.83" y="-209.4" font-family="Arial" font-size="14.00">preferences </text>
<text text-anchor="start" x="517.65" y="-209.4" font-family="Arial" font-size="14.00" fill="#666666">[jsonb]</text>
<polygon fill="none" stroke="black" points="432.83,-166.4 432.83,-197.2 714.52,-197.2 714.52,-166.4 432.83,-166.4"/>
<text text-anchor="start" x="439.83" y="-178.6" font-family="Arial" font-size="14.00">personal_claude_token </text>
<text text-anchor="start" x="588.5" y="-178.6" font-family="Arial" font-size="14.00" fill="#666666">[text]</text>
<polygon fill="none" stroke="black" points="432.83,-135.6 432.83,-166.4 714.52,-166.4 714.52,-135.6 432.83,-135.6"/>
<text text-anchor="start" x="439.83" y="-147.8" font-family="Arial" font-size="14.00">last_login_at </text>
<text text-anchor="start" x="522.33" y="-147.8" font-family="Arial" font-size="14.00" fill="#666666">[timestamp without time zone]</text>
<polygon fill="none" stroke="black" points="432.83,-104.8 432.83,-135.6 714.52,-135.6 714.52,-104.8 432.83,-104.8"/>
<text text-anchor="start" x="439.83" y="-117" font-family="Arial" font-size="14.00">created_at </text>
<text text-anchor="start" x="509.88" y="-117" font-family="Arial" font-size="14.00" fill="#666666">[timestamp without time zone]</text>
<polygon fill="none" stroke="black" points="432.83,-74 432.83,-104.8 714.52,-104.8 714.52,-74 432.83,-74"/>
<text text-anchor="start" x="439.83" y="-86.2" font-family="Arial" font-size="14.00">updated_at </text>
<text text-anchor="start" x="513.79" y="-86.2" font-family="Arial" font-size="14.00" fill="#666666">[timestamp without time zone]</text>
<polygon fill="none" stroke="black" points="432.83,-43.2 432.83,-74 714.52,-74 714.52,-43.2 432.83,-43.2"/>
<text text-anchor="start" x="439.83" y="-55.4" font-family="Arial" font-size="14.00">deleted_at </text>
<text text-anchor="start" x="509.11" y="-55.4" font-family="Arial" font-size="14.00" fill="#666666">[timestamp without time zone]</text>
</g>
<!-- public.activity_logs&#45;&gt;public.employees -->
<g id="edge3" class="edge">
<title>public.activity_logs:employee_id&#45;&gt;public.employees:id</title>
<path fill="none" stroke="black" d="M723.81,-860.95C760.26,-812.6 757.69,-459 715.52,-459"/>
<polygon fill="black" stroke="black" points="723.9,-860.89 713.04,-862.41 719.39,-863.73 715.73,-866.04 715.73,-866.04 715.73,-866.04 719.39,-863.73 717.84,-870.03 723.9,-860.89"/>
<text text-anchor="start" x="722.16" y="-876.4" font-family="Arial" font-size="10.00">FOREIGN KEY (employee_id) REFERENCES employees(id) ON DELETE SET NULL</text>
</g>
<!-- public.agents -->
<g id="node5" class="node">
<title>public.agents</title>
<polygon fill="#efefef" stroke="none" points="819.1,-459 819.1,-494.6 1092.25,-494.6 1092.25,-459 819.1,-459"/>
<polygon fill="none" stroke="black" points="819.1,-459 819.1,-494.6 1092.25,-494.6 1092.25,-459 819.1,-459"/>
<text text-anchor="start" x="845.69" y="-472.4" font-family="Arial Bold" font-size="18.00">public.agents</text>
<text text-anchor="start" x="941.17" y="-472.4" font-family="Arial" font-size="14.00">    </text>
<text text-anchor="start" x="972.29" y="-472.4" font-family="Arial" font-size="14.00" fill="#666666">[BASE TABLE]</text>
<polygon fill="none" stroke="black" points="819.1,-428.2 819.1,-459 1092.25,-459 1092.25,-428.2 819.1,-428.2"/>
<text text-anchor="start" x="826.1" y="-440.4" font-family="Arial" font-size="14.00">id </text>
<text text-anchor="start" x="840.89" y="-440.4" font-family="Arial" font-size="14.00" fill="#666666">[uuid]</text>
<polygon fill="none" stroke="black" points="819.1,-397.4 819.1,-428.2 1092.25,-428.2 1092.25,-397.4 819.1,-397.4"/>
<text text-anchor="start" x="826.1" y="-409.6" font-family="Arial" font-size="14.00">name </text>
<text text-anchor="start" x="865.01" y="-409.6" font-family="Arial" font-size="14.00" fill="#666666">[varchar(255)]</text>
<polygon fill="none" stroke="black" points="819.1,-366.6 819.1,-397.4 1092.25,-397.4 1092.25,-366.6 819.1,-366.6"/>
<text text-anchor="start" x="826.1" y="-378.8" font-family="Arial" font-size="14.00">type </text>
<text text-anchor="start" x="856.45" y="-378.8" font-family="Arial" font-size="14.00" fill="#666666">[varchar(100)]</text>
<polygon fill="none" stroke="black" points="819.1,-335.8 819.1,-366.6 1092.25,-366.6 1092.25,-335.8 819.1,-335.8"/>
<text text-anchor="start" x="826.1" y="-348" font-family="Arial" font-size="14.00">description </text>
<text text-anchor="start" x="897.7" y="-348" font-family="Arial" font-size="14.00" fill="#666666">[text]</text>
<polygon fill="none" stroke="black" points="819.1,-305 819.1,-335.8 1092.25,-335.8 1092.25,-305 819.1,-305"/>
<text text-anchor="start" x="826.1" y="-317.2" font-family="Arial" font-size="14.00">provider </text>
<text text-anchor="start" x="880.57" y="-317.2" font-family="Arial" font-size="14.00" fill="#666666">[varchar(100)]</text>
<polygon fill="none" stroke="black" points="819.1,-274.2 819.1,-305 1092.25,-305 1092.25,-274.2 819.1,-274.2"/>
<text text-anchor="start" x="826.1" y="-286.4" font-family="Arial" font-size="14.00">docker_image </text>
<text text-anchor="start" x="917.93" y="-286.4" font-family="Arial" font-size="14.00" fill="#666666">[varchar(255)]</text>
<polygon fill="none" stroke="black" points="819.1,-243.4 819.1,-274.2 1092.25,-274.2 1092.25,-243.4 819.1,-243.4"/>
<text text-anchor="start" x="826.1" y="-255.6" font-family="Arial" font-size="14.00">default_config </text>
<text text-anchor="start" x="917.17" y="-255.6" font-family="Arial" font-size="14.00" fill="#666666">[jsonb]</text>
<polygon fill="none" stroke="black" points="819.1,-212.6 819.1,-243.4 1092.25,-243.4 1092.25,-212.6 819.1,-212.6"/>
<text text-anchor="start" x="826.1" y="-224.8" font-family="Arial" font-size="14.00">capabilities </text>
<text text-anchor="start" x="899.25" y="-224.8" font-family="Arial" font-size="14.00" fill="#666666">[jsonb]</text>
<polygon fill="none" stroke="black" points="819.1,-181.8 819.1,-212.6 1092.25,-212.6 1092.25,-181.8 819.1,-181.8"/>
<text text-anchor="start" x="826.1" y="-194" font-family="Arial" font-size="14.00">llm_provider </text>
<text text-anchor="start" x="906.24" y="-194" font-family="Arial" font-size="14.00" fill="#666666">[varchar(50)]</text>
<polygon fill="none" stroke="black" points="819.1,-151 819.1,-181.8 1092.25,-181.8 1092.25,-151 819.1,-151"/>
<text text-anchor="start" x="826.1" y="-163.2" font-family="Arial" font-size="14.00">llm_model </text>
<text text-anchor="start" x="893.79" y="-163.2" font-family="Arial" font-size="14.00" fill="#666666">[varchar(100)]</text>
<polygon fill="none" stroke="black" points="819.1,-120.2 819.1,-151 1092.25,-151 1092.25,-120.2 819.1,-120.2"/>
<text text-anchor="start" x="826.1" y="-132.4" font-family="Arial" font-size="14.00">is_public </text>
<text text-anchor="start" x="884.47" y="-132.4" font-family="Arial" font-size="14.00" fill="#666666">[boolean]</text>
<polygon fill="none" stroke="black" points="819.1,-89.4 819.1,-120.2 1092.25,-120.2 1092.25,-89.4 819.1,-89.4"/>
<text text-anchor="start" x="826.1" y="-101.6" font-family="Arial" font-size="14.00">created_at </text>
<text text-anchor="start" x="896.15" y="-101.6" font-family="Arial" font-size="14.00" fill="#666666">[timestamp without time zone]</text>
<polygon fill="none" stroke="black" points="819.1,-58.6 819.1,-89.4 1092.25,-89.4 1092.25,-58.6 819.1,-58.6"/>
<text text-anchor="start" x="826.1" y="-70.8" font-family="Arial" font-size="14.00">updated_at </text>
<text text-anchor="start" x="900.06" y="-70.8" font-family="Arial" font-size="14.00" fill="#666666">[timestamp without time zone]</text>
</g>
<!-- public.activity_logs&#45;&gt;public.agents -->
<g id="edge4" class="edge">
<title>public.activity_logs:agent_id&#45;&gt;public.agents:id</title>
<path fill="none" stroke="black" d="M725.13,-802.86C793.4,-774.43 738.23,-443.6 818.1,-443.6"/>
<polygon fill="black" stroke="black" points="725.3,-802.82 714.63,-800.32 720.07,-803.84 715.82,-804.67 715.82,-804.67 715.82,-804.67 720.07,-803.84 716.35,-809.15 725.3,-802.82"/>
<text text-anchor="start" x="722.16" y="-814.8" font-family="Arial" font-size="10.00">FOREIGN KEY (agent_id) REFERENCES agents(id) ON DELETE SET NULL</text>
</g>
<!-- public.webhook_deliveries -->
<g id="node2" class="node">
<title>public.webhook_deliveries</title>
<polygon fill="#efefef" stroke="none" points="407.21,-1474 407.21,-1509.6 740.14,-1509.6 740.14,-1474 407.21,-1474"/>
<polygon fill="none" stroke="black" points="407.21,-1474 407.21,-1509.6 740.14,-1509.6 740.14,-1474 407.21,-1474"/>
<text text-anchor="start" x="414.21" y="-1487.4" font-family="Arial Bold" font-size="18.00">public.webhook_deliveries</text>
<text text-anchor="start" x="608.66" y="-1487.4" font-family="Arial" font-size="14.00">    </text>
<text text-anchor="start" x="639.77" y="-1487.4" font-family="Arial" font-size="14.00" fill="#666666">[BASE TABLE]</text>
<polygon fill="none" stroke="black" points="407.21,-1443.2 407.21,-1474 740.14,-1474 740.14,-1443.2 407.21,-1443.2"/>
<text text-anchor="start" x="414.21" y="-1455.4" font-family="Arial" font-size="14.00">id </text>
<text text-anchor="start" x="428.99" y="-1455.4" font-family="Arial" font-size="14.00" fill="#666666">[uuid]</text>
<polygon fill="none" stroke="black" points="407.21,-1412.4 407.21,-1443.2 740.14,-1443.2 740.14,-1412.4 407.21,-1412.4"/>
<text text-anchor="start" x="414.21" y="-1424.6" font-family="Arial" font-size="14.00">destination_id </text>
<text text-anchor="start" x="504.49" y="-1424.6" font-family="Arial" font-size="14.00" fill="#666666">[uuid]</text>
<polygon fill="none" stroke="black" points="407.21,-1381.6 407.21,-1412.4 740.14,-1412.4 740.14,-1381.6 407.21,-1381.6"/>
<text text-anchor="start" x="414.21" y="-1393.8" font-family="Arial" font-size="14.00">log_id </text>
<text text-anchor="start" x="455.46" y="-1393.8" font-family="Arial" font-size="14.00" fill="#666666">[uuid]</text>
<polygon fill="none" stroke="black" points="407.21,-1350.8 407.21,-1381.6 740.14,-1381.6 740.14,-1350.8 407.21,-1350.8"/>
<text text-anchor="start" x="414.21" y="-1363" font-family="Arial" font-size="14.00">status </text>
<text text-anchor="start" x="455.45" y="-1363" font-family="Arial" font-size="14.00" fill="#666666">[varchar(50)]</text>
<polygon fill="none" stroke="black" points="407.21,-1320 407.21,-1350.8 740.14,-1350.8 740.14,-1320 407.21,-1320"/>
<text text-anchor="start" x="414.21" y="-1332.2" font-family="Arial" font-size="14.00">attempts </text>
<text text-anchor="start" x="471.78" y="-1332.2" font-family="Arial" font-size="14.00" fill="#666666">[integer]</text>
<polygon fill="none" stroke="black" points="407.21,-1289.2 407.21,-1320 740.14,-1320 740.14,-1289.2 407.21,-1289.2"/>
<text text-anchor="start" x="414.21" y="-1301.4" font-family="Arial" font-size="14.00">last_attempt_at </text>
<text text-anchor="start" x="513.82" y="-1301.4" font-family="Arial" font-size="14.00" fill="#666666">[timestamp without time zone]</text>
<polygon fill="none" stroke="black" points="407.21,-1258.4 407.21,-1289.2 740.14,-1289.2 740.14,-1258.4 407.21,-1258.4"/>
<text text-anchor="start" x="414.21" y="-1270.6" font-family="Arial" font-size="14.00">next_retry_at </text>
<text text-anchor="start" x="499.81" y="-1270.6" font-family="Arial" font-size="14.00" fill="#666666">[timestamp without time zone]</text>
<polygon fill="none" stroke="black" points="407.21,-1227.6 407.21,-1258.4 740.14,-1258.4 740.14,-1227.6 407.21,-1227.6"/>
<text text-anchor="start" x="414.21" y="-1239.8" font-family="Arial" font-size="14.00">response_status </text>
<text text-anchor="start" x="520.83" y="-1239.8" font-family="Arial" font-size="14.00" fill="#666666">[integer]</text>
<polygon fill="none" stroke="black" points="407.21,-1196.8 407.21,-1227.6 740.14,-1227.6 740.14,-1196.8 407.21,-1196.8"/>
<text text-anchor="start" x="414.21" y="-1209" font-family="Arial" font-size="14.00">response_body </text>
<text text-anchor="start" x="513.83" y="-1209" font-family="Arial" font-size="14.00" fill="#666666">[text]</text>
<polygon fill="none" stroke="black" points="407.21,-1166 407.21,-1196.8 740.14,-1196.8 740.14,-1166 407.21,-1166"/>
<text text-anchor="start" x="414.21" y="-1178.2" font-family="Arial" font-size="14.00">error_message </text>
<text text-anchor="start" x="512.25" y="-1178.2" font-family="Arial" font-size="14.00" fill="#666666">[text]</text>
<polygon fill="none" stroke="black" points="407.21,-1135.2 407.21,-1166 740.14,-1166 740.14,-1135.2 407.21,-1135.2"/>
<text text-anchor="start" x="414.21" y="-1147.4" font-family="Arial" font-size="14.00">created_at </text>
<text text-anchor="start" x="484.25" y="-1147.4" font-family="Arial" font-size="14.00" fill="#666666">[timestamp without time zone]</text>
<polygon fill="none" stroke="black" points="407.21,-1104.4 407.21,-1135.2 740.14,-1135.2 740.14,-1104.4 407.21,-1104.4"/>
<text text-anchor="start" x="414.21" y="-1116.6" font-family="Arial" font-size="14.00">delivered_at </text>
<text text-anchor="start" x="494.37" y="-1116.6" font-family="Arial" font-size="14.00" fill="#666666">[timestamp without time zone]</text>
</g>
<!-- public.webhook_deliveries&#45;&gt;public.activity_logs -->
<g id="edge1" class="edge">
<title>public.webhook_deliveries:log_id&#45;&gt;public.activity_logs:id</title>
<path fill="none" stroke="black" d="M751.35,-1396.62C949,-1381.56 920.46,-928 715.16,-928"/>
<polygon fill="black" stroke="black" points="751.47,-1396.61 741.31,-1392.49 746.14,-1396.81 741.81,-1396.97 741.81,-1396.97 741.81,-1396.97 746.14,-1396.81 741.65,-1401.48 751.47,-1396.61"/>
<text text-anchor="start" x="748.14" y="-1407" font-family="Arial" font-size="10.00">FOREIGN KEY (log_id) REFERENCES activity_logs(id) ON DELETE CASCADE</text>
</g>
</g>
</svg>
