<?xml version="1.0" encoding="UTF-8" standalone="no"?>
<!DOCTYPE svg PUBLIC "-//W3C//DTD SVG 1.1//EN"
 "http://www.w3.org/Graphics/SVG/1.1/DTD/svg11.dtd">
<!-- Generated by graphviz version 12.1.2 (20240928.0832)
 -->
<!-- Title: public.sessions Pages: 1 -->
<svg width="723pt" height="910pt"
 viewBox="0.00 0.00 723.43 910.00" xmlns="http://www.w3.org/2000/svg" xmlns:xlink="http://www.w3.org/1999/xlink">
<g id="graph0" class="graph" transform="scale(1 1) rotate(0) translate(4 906)">
<title>public.sessions</title>
<polygon fill="white" stroke="none" points="-4,4 -4,-906 719.43,-906 719.43,4 -4,4"/>
<!-- public.sessions -->
<g id="node1" class="node">
<title>public.sessions</title>
<polygon fill="#efefef" stroke="none" points="49.43,-820.2 49.43,-855.8 318.66,-855.8 318.66,-820.2 49.43,-820.2"/>
<polygon fill="none" stroke="black" points="49.43,-820.2 49.43,-855.8 318.66,-855.8 318.66,-820.2 49.43,-820.2"/>
<text text-anchor="start" x="67.55" y="-833.6" font-family="Arial Bold" font-size="18.00">public.sessions</text>
<text text-anchor="start" x="176.05" y="-833.6" font-family="Arial" font-size="14.00">    </text>
<text text-anchor="start" x="207.17" y="-833.6" font-family="Arial" font-size="14.00" fill="#666666">[BASE TABLE]</text>
<polygon fill="none" stroke="black" points="49.43,-789.4 49.43,-820.2 318.66,-820.2 318.66,-789.4 49.43,-789.4"/>
<text text-anchor="start" x="56.43" y="-801.6" font-family="Arial" font-size="14.00">id </text>
<text text-anchor="start" x="71.21" y="-801.6" font-family="Arial" font-size="14.00" fill="#666666">[uuid]</text>
<polygon fill="none" stroke="black" points="49.43,-758.6 49.43,-789.4 318.66,-789.4 318.66,-758.6 49.43,-758.6"/>
<text text-anchor="start" x="56.43" y="-770.8" font-family="Arial" font-size="14.00">employee_id </text>
<text text-anchor="start" x="139.7" y="-770.8" font-family="Arial" font-size="14.00" fill="#666666">[uuid]</text>
<polygon fill="none" stroke="black" points="49.43,-727.8 49.43,-758.6 318.66,-758.6 318.66,-727.8 49.43,-727.8"/>
<text text-anchor="start" x="56.43" y="-740" font-family="Arial" font-size="14.00">token_hash </text>
<text text-anchor="start" x="132.71" y="-740" font-family="Arial" font-size="14.00" fill="#666666">[varchar(255)]</text>
<polygon fill="none" stroke="black" points="49.43,-697 49.43,-727.8 318.66,-727.8 318.66,-697 49.43,-697"/>
<text text-anchor="start" x="56.43" y="-709.2" font-family="Arial" font-size="14.00">ip_address </text>
<text text-anchor="start" x="128.81" y="-709.2" font-family="Arial" font-size="14.00" fill="#666666">[varchar(45)]</text>
<polygon fill="none" stroke="black" points="49.43,-666.2 49.43,-697 318.66,-697 318.66,-666.2 49.43,-666.2"/>
<text text-anchor="start" x="56.43" y="-678.4" font-family="Arial" font-size="14.00">user_agent </text>
<text text-anchor="start" x="130.37" y="-678.4" font-family="Arial" font-size="14.00" fill="#666666">[text]</text>
<polygon fill="none" stroke="black" points="49.43,-635.4 49.43,-666.2 318.66,-666.2 318.66,-635.4 49.43,-635.4"/>
<text text-anchor="start" x="56.43" y="-647.6" font-family="Arial" font-size="14.00">expires_at </text>
<text text-anchor="start" x="124.91" y="-647.6" font-family="Arial" font-size="14.00" fill="#666666">[timestamp without time zone]</text>
<polygon fill="none" stroke="black" points="49.43,-604.6 49.43,-635.4 318.66,-635.4 318.66,-604.6 49.43,-604.6"/>
<text text-anchor="start" x="56.43" y="-616.8" font-family="Arial" font-size="14.00">created_at </text>
<text text-anchor="start" x="126.48" y="-616.8" font-family="Arial" font-size="14.00" fill="#666666">[timestamp without time zone]</text>
<polygon fill="none" stroke="black" stroke-width="3" points="47.93,-603.1 47.93,-857.3 320.16,-857.3 320.16,-603.1 47.93,-603.1"/>
</g>
<!-- public.employees -->
<g id="node2" class="node">
<title>public.employees</title>
<polygon fill="#efefef" stroke="none" points="43.2,-443.6 43.2,-479.2 324.89,-479.2 324.89,-443.6 43.2,-443.6"/>
<polygon fill="none" stroke="black" points="43.2,-443.6 43.2,-479.2 324.89,-479.2 324.89,-443.6 43.2,-443.6"/>
<text text-anchor="start" x="58.57" y="-457" font-family="Arial Bold" font-size="18.00">public.employees</text>
<text text-anchor="start" x="185.03" y="-457" font-family="Arial" font-size="14.00">    </text>
<text text-anchor="start" x="216.15" y="-457" font-family="Arial" font-size="14.00" fill="#666666">[BASE TABLE]</text>
<polygon fill="none" stroke="black" points="43.2,-412.8 43.2,-443.6 324.89,-443.6 324.89,-412.8 43.2,-412.8"/>
<text text-anchor="start" x="50.2" y="-425" font-family="Arial" font-size="14.00">id </text>
<text text-anchor="start" x="64.99" y="-425" font-family="Arial" font-size="14.00" fill="#666666">[uuid]</text>
<polygon fill="none" stroke="black" points="43.2,-382 43.2,-412.8 324.89,-412.8 324.89,-382 43.2,-382"/>
<text text-anchor="start" x="50.2" y="-394.2" font-family="Arial" font-size="14.00">org_id </text>
<text text-anchor="start" x="93.01" y="-394.2" font-family="Arial" font-size="14.00" fill="#666666">[uuid]</text>
<polygon fill="none" stroke="black" points="43.2,-351.2 43.2,-382 324.89,-382 324.89,-351.2 43.2,-351.2"/>
<text text-anchor="start" x="50.2" y="-363.4" font-family="Arial" font-size="14.00">team_id </text>
<text text-anchor="start" x="103.9" y="-363.4" font-family="Arial" font-size="14.00" fill="#666666">[uuid]</text>
<polygon fill="none" stroke="black" points="43.2,-320.4 43.2,-351.2 324.89,-351.2 324.89,-320.4 43.2,-320.4"/>
<text text-anchor="start" x="50.2" y="-332.6" font-family="Arial" font-size="14.00">role_id </text>
<text text-anchor="start" x="96.12" y="-332.6" font-family="Arial" font-size="14.00" fill="#666666">[uuid]</text>
<polygon fill="none" stroke="black" points="43.2,-289.6 43.2,-320.4 324.89,-320.4 324.89,-289.6 43.2,-289.6"/>
<text text-anchor="start" x="50.2" y="-301.8" font-family="Arial" font-size="14.00">email </text>
<text text-anchor="start" x="87.54" y="-301.8" font-family="Arial" font-size="14.00" fill="#666666">[varchar(255)]</text>
<polygon fill="none" stroke="black" points="43.2,-258.8 43.2,-289.6 324.89,-289.6 324.89,-258.8 43.2,-258.8"/>
<text text-anchor="start" x="50.2" y="-271" font-family="Arial" font-size="14.00">full_name </text>
<text text-anchor="start" x="114.79" y="-271" font-family="Arial" font-size="14.00" fill="#666666">[varchar(255)]</text>
<polygon fill="none" stroke="black" points="43.2,-228 43.2,-258.8 324.89,-258.8 324.89,-228 43.2,-228"/>
<text text-anchor="start" x="50.2" y="-240.2" font-family="Arial" font-size="14.00">password_hash </text>
<text text-anchor="start" x="152.15" y="-240.2" font-family="Arial" font-size="14.00" fill="#666666">[varchar(255)]</text>
<polygon fill="none" stroke="black" points="43.2,-197.2 43.2,-228 324.89,-228 324.89,-197.2 43.2,-197.2"/>
<text text-anchor="start" x="50.2" y="-209.4" font-family="Arial" font-size="14.00">status </text>
<text text-anchor="start" x="91.44" y="-209.4" font-family="Arial" font-size="14.00" fill="#666666">[varchar(50)]</text>
<polygon fill="none" stroke="black" points="43.2,-166.4 43.2,-197.2 324.89,-197.2 324.89,-166.4 43.2,-166.4"/>
<text text-anchor="start" x="50.2" y="-178.6" font-family="Arial" font-size="14.00">preferences </text>
<text text-anchor="start" x="128.02" y="-178.6" font-family="Arial" font-size="14.00" fill="#666666">[jsonb]</text>
<polygon fill="none" stroke="black" points="43.2,-135.6 43.2,-166.4 324.89,-166.4 324.89,-135.6 43.2,-135.6"/>
<text text-anchor="start" x="50.2" y="-147.8" font-family="Arial" font-size="14.00">last_login_at </text>
<text text-anchor="start" x="132.7" y="-147.8" font-family="Arial" font-size="14.00" fill="#666666">[timestamp without time zone]</text>
<polygon fill="none" stroke="black" points="43.2,-104.8 43.2,-135.6 324.89,-135.6 324.89,-104.8 43.2,-104.8"/>
<text text-anchor="start" x="50.2" y="-117" font-family="Arial" font-size="14.00">created_at </text>
<text text-anchor="start" x="120.25" y="-117" font-family="Arial" font-size="14.00" fill="#666666">[timestamp without time zone]</text>
<polygon fill="none" stroke="black" points="43.2,-74 43.2,-104.8 324.89,-104.8 324.89,-74 43.2,-74"/>
<text text-anchor="start" x="50.2" y="-86.2" font-family="Arial" font-size="14.00">updated_at </text>
<text text-anchor="start" x="124.16" y="-86.2" font-family="Arial" font-size="14.00" fill="#666666">[timestamp without time zone]</text>
<polygon fill="none" stroke="black" points="43.2,-43.2 43.2,-74 324.89,-74 324.89,-43.2 43.2,-43.2"/>
<text text-anchor="start" x="50.2" y="-55.4" font-family="Arial" font-size="14.00">deleted_at </text>
<text text-anchor="start" x="119.48" y="-55.4" font-family="Arial" font-size="14.00" fill="#666666">[timestamp without time zone]</text>
</g>
<!-- public.sessions&#45;&gt;public.employees -->
<g id="edge1" class="edge">
<title>public.sessions:employee_id&#45;&gt;public.employees:id</title>
<path fill="none" stroke="black" d="M329.59,-771.97C396.91,-743.63 399.29,-428.2 325.89,-428.2"/>
<polygon fill="black" stroke="black" points="329.79,-771.93 319.09,-769.52 324.56,-773 320.32,-773.87 320.32,-773.87 320.32,-773.87 324.56,-773 320.89,-778.34 329.79,-771.93"/>
<text text-anchor="start" x="326.66" y="-784" font-family="Arial" font-size="10.00">FOREIGN KEY (employee_id) REFERENCES employees(id) ON DELETE CASCADE</text>
</g>
</g>
</svg>
