<?xml version="1.0" encoding="UTF-8" standalone="no"?>
<!DOCTYPE svg PUBLIC "-//W3C//DTD SVG 1.1//EN"
 "http://www.w3.org/Graphics/SVG/1.1/DTD/svg11.dtd">
<!-- Generated by graphviz version 12.1.2 (20240928.0832)
 -->
<!-- Title: public.organizations Pages: 1 -->
<svg width="2428pt" height="972pt"
 viewBox="0.00 0.00 2428.02 971.60" xmlns="http://www.w3.org/2000/svg" xmlns:xlink="http://www.w3.org/1999/xlink">
<g id="graph0" class="graph" transform="scale(1 1) rotate(0) translate(4 967.6)">
<title>public.organizations</title>
<polygon fill="white" stroke="none" points="-4,4 -4,-967.6 2424.02,-967.6 2424.02,4 -4,4"/>
<!-- public.organizations -->
<g id="node1" class="node">
<title>public.organizations</title>
<polygon fill="#efefef" stroke="none" points="1047.02,-323.4 1047.02,-359 1331.97,-359 1331.97,-323.4 1047.02,-323.4"/>
<polygon fill="none" stroke="black" points="1047.02,-323.4 1047.02,-359 1331.97,-359 1331.97,-323.4 1047.02,-323.4"/>
<text text-anchor="start" x="1054.02" y="-336.8" font-family="Arial Bold" font-size="18.00">public.organizations</text>
<text text-anchor="start" x="1200.48" y="-336.8" font-family="Arial" font-size="14.00">    </text>
<text text-anchor="start" x="1231.6" y="-336.8" font-family="Arial" font-size="14.00" fill="#666666">[BASE TABLE]</text>
<polygon fill="none" stroke="black" points="1047.02,-292.6 1047.02,-323.4 1331.97,-323.4 1331.97,-292.6 1047.02,-292.6"/>
<text text-anchor="start" x="1054.02" y="-304.8" font-family="Arial" font-size="14.00">id </text>
<text text-anchor="start" x="1068.81" y="-304.8" font-family="Arial" font-size="14.00" fill="#666666">[uuid]</text>
<polygon fill="none" stroke="black" points="1047.02,-261.8 1047.02,-292.6 1331.97,-292.6 1331.97,-261.8 1047.02,-261.8"/>
<text text-anchor="start" x="1054.02" y="-274" font-family="Arial" font-size="14.00">name </text>
<text text-anchor="start" x="1092.93" y="-274" font-family="Arial" font-size="14.00" fill="#666666">[varchar(255)]</text>
<polygon fill="none" stroke="black" points="1047.02,-231 1047.02,-261.8 1331.97,-261.8 1331.97,-231 1047.02,-231"/>
<text text-anchor="start" x="1054.02" y="-243.2" font-family="Arial" font-size="14.00">slug </text>
<text text-anchor="start" x="1083.59" y="-243.2" font-family="Arial" font-size="14.00" fill="#666666">[varchar(100)]</text>
<polygon fill="none" stroke="black" points="1047.02,-200.2 1047.02,-231 1331.97,-231 1331.97,-200.2 1047.02,-200.2"/>
<text text-anchor="start" x="1054.02" y="-212.4" font-family="Arial" font-size="14.00">plan </text>
<text text-anchor="start" x="1084.38" y="-212.4" font-family="Arial" font-size="14.00" fill="#666666">[varchar(50)]</text>
<polygon fill="none" stroke="black" points="1047.02,-169.4 1047.02,-200.2 1331.97,-200.2 1331.97,-169.4 1047.02,-169.4"/>
<text text-anchor="start" x="1054.02" y="-181.6" font-family="Arial" font-size="14.00">settings </text>
<text text-anchor="start" x="1106.16" y="-181.6" font-family="Arial" font-size="14.00" fill="#666666">[jsonb]</text>
<polygon fill="none" stroke="black" points="1047.02,-138.6 1047.02,-169.4 1331.97,-169.4 1331.97,-138.6 1047.02,-138.6"/>
<text text-anchor="start" x="1054.02" y="-150.8" font-family="Arial" font-size="14.00">max_employees </text>
<text text-anchor="start" x="1159.85" y="-150.8" font-family="Arial" font-size="14.00" fill="#666666">[integer]</text>
<polygon fill="none" stroke="black" points="1047.02,-107.8 1047.02,-138.6 1331.97,-138.6 1331.97,-107.8 1047.02,-107.8"/>
<text text-anchor="start" x="1054.02" y="-120" font-family="Arial" font-size="14.00">max_agents_per_employee </text>
<text text-anchor="start" x="1230.69" y="-120" font-family="Arial" font-size="14.00" fill="#666666">[integer]</text>
<polygon fill="none" stroke="black" points="1047.02,-77 1047.02,-107.8 1331.97,-107.8 1331.97,-77 1047.02,-77"/>
<text text-anchor="start" x="1054.02" y="-89.2" font-family="Arial" font-size="14.00">created_at </text>
<text text-anchor="start" x="1124.07" y="-89.2" font-family="Arial" font-size="14.00" fill="#666666">[timestamp without time zone]</text>
<polygon fill="none" stroke="black" points="1047.02,-46.2 1047.02,-77 1331.97,-77 1331.97,-46.2 1047.02,-46.2"/>
<text text-anchor="start" x="1054.02" y="-58.4" font-family="Arial" font-size="14.00">updated_at </text>
<text text-anchor="start" x="1127.98" y="-58.4" font-family="Arial" font-size="14.00" fill="#666666">[timestamp without time zone]</text>
<polygon fill="none" stroke="black" stroke-width="3" points="1045.52,-44.7 1045.52,-360.5 1333.47,-360.5 1333.47,-44.7 1045.52,-44.7"/>
</g>
<!-- public.subscriptions -->
<g id="node2" class="node">
<title>public.subscriptions</title>
<polygon fill="#efefef" stroke="none" points="43.2,-838.6 43.2,-874.2 363.79,-874.2 363.79,-838.6 43.2,-838.6"/>
<polygon fill="none" stroke="black" points="43.2,-838.6 43.2,-874.2 363.79,-874.2 363.79,-838.6 43.2,-838.6"/>
<text text-anchor="start" x="69.01" y="-852" font-family="Arial Bold" font-size="18.00">public.subscriptions</text>
<text text-anchor="start" x="213.5" y="-852" font-family="Arial" font-size="14.00">    </text>
<text text-anchor="start" x="244.61" y="-852" font-family="Arial" font-size="14.00" fill="#666666">[BASE TABLE]</text>
<polygon fill="none" stroke="black" points="43.2,-807.8 43.2,-838.6 363.79,-838.6 363.79,-807.8 43.2,-807.8"/>
<text text-anchor="start" x="50.2" y="-820" font-family="Arial" font-size="14.00">id </text>
<text text-anchor="start" x="64.99" y="-820" font-family="Arial" font-size="14.00" fill="#666666">[uuid]</text>
<polygon fill="none" stroke="black" points="43.2,-777 43.2,-807.8 363.79,-807.8 363.79,-777 43.2,-777"/>
<text text-anchor="start" x="50.2" y="-789.2" font-family="Arial" font-size="14.00">org_id </text>
<text text-anchor="start" x="93.01" y="-789.2" font-family="Arial" font-size="14.00" fill="#666666">[uuid]</text>
<polygon fill="none" stroke="black" points="43.2,-746.2 43.2,-777 363.79,-777 363.79,-746.2 43.2,-746.2"/>
<text text-anchor="start" x="50.2" y="-758.4" font-family="Arial" font-size="14.00">plan_type </text>
<text text-anchor="start" x="114.81" y="-758.4" font-family="Arial" font-size="14.00" fill="#666666">[varchar(50)]</text>
<polygon fill="none" stroke="black" points="43.2,-715.4 43.2,-746.2 363.79,-746.2 363.79,-715.4 43.2,-715.4"/>
<text text-anchor="start" x="50.2" y="-727.6" font-family="Arial" font-size="14.00">monthly_budget_usd </text>
<text text-anchor="start" x="184.08" y="-727.6" font-family="Arial" font-size="14.00" fill="#666666">[numeric(10,2)]</text>
<polygon fill="none" stroke="black" points="43.2,-684.6 43.2,-715.4 363.79,-715.4 363.79,-684.6 43.2,-684.6"/>
<text text-anchor="start" x="50.2" y="-696.8" font-family="Arial" font-size="14.00">current_spending_usd </text>
<text text-anchor="start" x="192.63" y="-696.8" font-family="Arial" font-size="14.00" fill="#666666">[numeric(10,2)]</text>
<polygon fill="none" stroke="black" points="43.2,-653.8 43.2,-684.6 363.79,-684.6 363.79,-653.8 43.2,-653.8"/>
<text text-anchor="start" x="50.2" y="-666" font-family="Arial" font-size="14.00">billing_period_start </text>
<text text-anchor="start" x="171.61" y="-666" font-family="Arial" font-size="14.00" fill="#666666">[timestamp without time zone]</text>
<polygon fill="none" stroke="black" points="43.2,-623 43.2,-653.8 363.79,-653.8 363.79,-623 43.2,-623"/>
<text text-anchor="start" x="50.2" y="-635.2" font-family="Arial" font-size="14.00">billing_period_end </text>
<text text-anchor="start" x="167.74" y="-635.2" font-family="Arial" font-size="14.00" fill="#666666">[timestamp without time zone]</text>
<polygon fill="none" stroke="black" points="43.2,-592.2 43.2,-623 363.79,-623 363.79,-592.2 43.2,-592.2"/>
<text text-anchor="start" x="50.2" y="-604.4" font-family="Arial" font-size="14.00">status </text>
<text text-anchor="start" x="91.44" y="-604.4" font-family="Arial" font-size="14.00" fill="#666666">[varchar(50)]</text>
<polygon fill="none" stroke="black" points="43.2,-561.4 43.2,-592.2 363.79,-592.2 363.79,-561.4 43.2,-561.4"/>
<text text-anchor="start" x="50.2" y="-573.6" font-family="Arial" font-size="14.00">created_at </text>
<text text-anchor="start" x="120.25" y="-573.6" font-family="Arial" font-size="14.00" fill="#666666">[timestamp without time zone]</text>
<polygon fill="none" stroke="black" points="43.2,-530.6 43.2,-561.4 363.79,-561.4 363.79,-530.6 43.2,-530.6"/>
<text text-anchor="start" x="50.2" y="-542.8" font-family="Arial" font-size="14.00">updated_at </text>
<text text-anchor="start" x="124.16" y="-542.8" font-family="Arial" font-size="14.00" fill="#666666">[timestamp without time zone]</text>
</g>
<!-- public.subscriptions&#45;&gt;public.organizations -->
<g id="edge1" class="edge">
<title>public.subscriptions:org_id&#45;&gt;public.organizations:id</title>
<path fill="none" stroke="black" d="M374.85,-790.52C436.25,-765.39 364.1,-496.04 415.5,-441.2 513.43,-336.71 902.81,-308 1046.02,-308"/>
<polygon fill="black" stroke="black" points="374.95,-790.5 364.29,-787.92 369.71,-791.48 365.45,-792.28 365.45,-792.28 365.45,-792.28 369.71,-791.48 365.95,-796.76 374.95,-790.5"/>
<text text-anchor="start" x="182.8" y="-776.4" font-family="Arial" font-size="10.00">FOREIGN KEY (org_id) REFERENCES organizations(id) ON DELETE CASCADE</text>
</g>
<!-- public.teams -->
<g id="node3" class="node">
<title>public.teams</title>
<polygon fill="#efefef" stroke="none" points="467.92,-777 467.92,-812.6 741.07,-812.6 741.07,-777 467.92,-777"/>
<polygon fill="none" stroke="black" points="467.92,-777 467.92,-812.6 741.07,-812.6 741.07,-777 467.92,-777"/>
<text text-anchor="start" x="496.51" y="-790.4" font-family="Arial Bold" font-size="18.00">public.teams</text>
<text text-anchor="start" x="587.99" y="-790.4" font-family="Arial" font-size="14.00">    </text>
<text text-anchor="start" x="619.11" y="-790.4" font-family="Arial" font-size="14.00" fill="#666666">[BASE TABLE]</text>
<polygon fill="none" stroke="black" points="467.92,-746.2 467.92,-777 741.07,-777 741.07,-746.2 467.92,-746.2"/>
<text text-anchor="start" x="474.92" y="-758.4" font-family="Arial" font-size="14.00">id </text>
<text text-anchor="start" x="489.71" y="-758.4" font-family="Arial" font-size="14.00" fill="#666666">[uuid]</text>
<polygon fill="none" stroke="black" points="467.92,-715.4 467.92,-746.2 741.07,-746.2 741.07,-715.4 467.92,-715.4"/>
<text text-anchor="start" x="474.92" y="-727.6" font-family="Arial" font-size="14.00">org_id </text>
<text text-anchor="start" x="517.73" y="-727.6" font-family="Arial" font-size="14.00" fill="#666666">[uuid]</text>
<polygon fill="none" stroke="black" points="467.92,-684.6 467.92,-715.4 741.07,-715.4 741.07,-684.6 467.92,-684.6"/>
<text text-anchor="start" x="474.92" y="-696.8" font-family="Arial" font-size="14.00">name </text>
<text text-anchor="start" x="513.83" y="-696.8" font-family="Arial" font-size="14.00" fill="#666666">[varchar(255)]</text>
<polygon fill="none" stroke="black" points="467.92,-653.8 467.92,-684.6 741.07,-684.6 741.07,-653.8 467.92,-653.8"/>
<text text-anchor="start" x="474.92" y="-666" font-family="Arial" font-size="14.00">description </text>
<text text-anchor="start" x="546.52" y="-666" font-family="Arial" font-size="14.00" fill="#666666">[text]</text>
<polygon fill="none" stroke="black" points="467.92,-623 467.92,-653.8 741.07,-653.8 741.07,-623 467.92,-623"/>
<text text-anchor="start" x="474.92" y="-635.2" font-family="Arial" font-size="14.00">created_at </text>
<text text-anchor="start" x="544.97" y="-635.2" font-family="Arial" font-size="14.00" fill="#666666">[timestamp without time zone]</text>
<polygon fill="none" stroke="black" points="467.92,-592.2 467.92,-623 741.07,-623 741.07,-592.2 467.92,-592.2"/>
<text text-anchor="start" x="474.92" y="-604.4" font-family="Arial" font-size="14.00">updated_at </text>
<text text-anchor="start" x="548.88" y="-604.4" font-family="Arial" font-size="14.00" fill="#666666">[timestamp without time zone]</text>
</g>
<!-- public.teams&#45;&gt;public.organizations -->
<g id="edge2" class="edge">
<title>public.teams:org_id&#45;&gt;public.organizations:id</title>
<path fill="none" stroke="black" d="M752.08,-728.6C801.78,-704.56 757.14,-491 793.5,-441.2 868.31,-338.71 919.13,-308 1046.02,-308"/>
<polygon fill="black" stroke="black" points="752.16,-728.58 741.43,-726.33 746.95,-729.73 742.72,-730.66 742.72,-730.66 742.72,-730.66 746.95,-729.73 743.36,-735.12 752.16,-728.58"/>
<text text-anchor="start" x="749.07" y="-740.8" font-family="Arial" font-size="10.00">FOREIGN KEY (org_id) REFERENCES organizations(id) ON DELETE CASCADE</text>
</g>
<!-- public.employees -->
<g id="node4" class="node">
<title>public.employees</title>
<polygon fill="#efefef" stroke="none" points="845.65,-884.8 845.65,-920.4 1127.34,-920.4 1127.34,-884.8 845.65,-884.8"/>
<polygon fill="none" stroke="black" points="845.65,-884.8 845.65,-920.4 1127.34,-920.4 1127.34,-884.8 845.65,-884.8"/>
<text text-anchor="start" x="861.02" y="-898.2" font-family="Arial Bold" font-size="18.00">public.employees</text>
<text text-anchor="start" x="987.48" y="-898.2" font-family="Arial" font-size="14.00">    </text>
<text text-anchor="start" x="1018.6" y="-898.2" font-family="Arial" font-size="14.00" fill="#666666">[BASE TABLE]</text>
<polygon fill="none" stroke="black" points="845.65,-854 845.65,-884.8 1127.34,-884.8 1127.34,-854 845.65,-854"/>
<text text-anchor="start" x="852.65" y="-866.2" font-family="Arial" font-size="14.00">id </text>
<text text-anchor="start" x="867.44" y="-866.2" font-family="Arial" font-size="14.00" fill="#666666">[uuid]</text>
<polygon fill="none" stroke="black" points="845.65,-823.2 845.65,-854 1127.34,-854 1127.34,-823.2 845.65,-823.2"/>
<text text-anchor="start" x="852.65" y="-835.4" font-family="Arial" font-size="14.00">org_id </text>
<text text-anchor="start" x="895.46" y="-835.4" font-family="Arial" font-size="14.00" fill="#666666">[uuid]</text>
<polygon fill="none" stroke="black" points="845.65,-792.4 845.65,-823.2 1127.34,-823.2 1127.34,-792.4 845.65,-792.4"/>
<text text-anchor="start" x="852.65" y="-804.6" font-family="Arial" font-size="14.00">team_id </text>
<text text-anchor="start" x="906.35" y="-804.6" font-family="Arial" font-size="14.00" fill="#666666">[uuid]</text>
<polygon fill="none" stroke="black" points="845.65,-761.6 845.65,-792.4 1127.34,-792.4 1127.34,-761.6 845.65,-761.6"/>
<text text-anchor="start" x="852.65" y="-773.8" font-family="Arial" font-size="14.00">role_id </text>
<text text-anchor="start" x="898.57" y="-773.8" font-family="Arial" font-size="14.00" fill="#666666">[uuid]</text>
<polygon fill="none" stroke="black" points="845.65,-730.8 845.65,-761.6 1127.34,-761.6 1127.34,-730.8 845.65,-730.8"/>
<text text-anchor="start" x="852.65" y="-743" font-family="Arial" font-size="14.00">email </text>
<text text-anchor="start" x="890" y="-743" font-family="Arial" font-size="14.00" fill="#666666">[varchar(255)]</text>
<polygon fill="none" stroke="black" points="845.65,-700 845.65,-730.8 1127.34,-730.8 1127.34,-700 845.65,-700"/>
<text text-anchor="start" x="852.65" y="-712.2" font-family="Arial" font-size="14.00">full_name </text>
<text text-anchor="start" x="917.24" y="-712.2" font-family="Arial" font-size="14.00" fill="#666666">[varchar(255)]</text>
<polygon fill="none" stroke="black" points="845.65,-669.2 845.65,-700 1127.34,-700 1127.34,-669.2 845.65,-669.2"/>
<text text-anchor="start" x="852.65" y="-681.4" font-family="Arial" font-size="14.00">password_hash </text>
<text text-anchor="start" x="954.6" y="-681.4" font-family="Arial" font-size="14.00" fill="#666666">[varchar(255)]</text>
<polygon fill="none" stroke="black" points="845.65,-638.4 845.65,-669.2 1127.34,-669.2 1127.34,-638.4 845.65,-638.4"/>
<text text-anchor="start" x="852.65" y="-650.6" font-family="Arial" font-size="14.00">status </text>
<text text-anchor="start" x="893.89" y="-650.6" font-family="Arial" font-size="14.00" fill="#666666">[varchar(50)]</text>
<polygon fill="none" stroke="black" points="845.65,-607.6 845.65,-638.4 1127.34,-638.4 1127.34,-607.6 845.65,-607.6"/>
<text text-anchor="start" x="852.65" y="-619.8" font-family="Arial" font-size="14.00">preferences </text>
<text text-anchor="start" x="930.47" y="-619.8" font-family="Arial" font-size="14.00" fill="#666666">[jsonb]</text>
<polygon fill="none" stroke="black" points="845.65,-576.8 845.65,-607.6 1127.34,-607.6 1127.34,-576.8 845.65,-576.8"/>
<text text-anchor="start" x="852.65" y="-589" font-family="Arial" font-size="14.00">last_login_at </text>
<text text-anchor="start" x="935.15" y="-589" font-family="Arial" font-size="14.00" fill="#666666">[timestamp without time zone]</text>
<polygon fill="none" stroke="black" points="845.65,-546 845.65,-576.8 1127.34,-576.8 1127.34,-546 845.65,-546"/>
<text text-anchor="start" x="852.65" y="-558.2" font-family="Arial" font-size="14.00">created_at </text>
<text text-anchor="start" x="922.7" y="-558.2" font-family="Arial" font-size="14.00" fill="#666666">[timestamp without time zone]</text>
<polygon fill="none" stroke="black" points="845.65,-515.2 845.65,-546 1127.34,-546 1127.34,-515.2 845.65,-515.2"/>
<text text-anchor="start" x="852.65" y="-527.4" font-family="Arial" font-size="14.00">updated_at </text>
<text text-anchor="start" x="926.61" y="-527.4" font-family="Arial" font-size="14.00" fill="#666666">[timestamp without time zone]</text>
<polygon fill="none" stroke="black" points="845.65,-484.4 845.65,-515.2 1127.34,-515.2 1127.34,-484.4 845.65,-484.4"/>
<text text-anchor="start" x="852.65" y="-496.6" font-family="Arial" font-size="14.00">deleted_at </text>
<text text-anchor="start" x="921.93" y="-496.6" font-family="Arial" font-size="14.00" fill="#666666">[timestamp without time zone]</text>
</g>
<!-- public.employees&#45;&gt;public.organizations -->
<g id="edge3" class="edge">
<title>public.employees:org_id&#45;&gt;public.organizations:id</title>
<path fill="none" stroke="black" d="M1136.91,-833.21C1169.43,-788.2 1149.65,-475.56 1127.34,-441.2 1106.03,-408.39 1068.45,-437.92 1047.02,-405.2 1023.35,-369.06 1002.82,-308 1046.02,-308"/>
<polygon fill="black" stroke="black" points="1137.09,-833.1 1126.23,-834.61 1132.57,-835.94 1128.91,-838.24 1128.91,-838.24 1128.91,-838.24 1132.57,-835.94 1131.02,-842.23 1137.09,-833.1"/>
<text text-anchor="start" x="757.35" y="-848.6" font-family="Arial" font-size="10.00">FOREIGN KEY (org_id) REFERENCES organizations(id) ON DELETE CASCADE</text>
</g>
<!-- public.org_agent_configs -->
<g id="node5" class="node">
<title>public.org_agent_configs</title>
<polygon fill="#efefef" stroke="none" points="1231.52,-792.4 1231.52,-828 1553.47,-828 1553.47,-792.4 1231.52,-792.4"/>
<polygon fill="none" stroke="black" points="1231.52,-792.4 1231.52,-828 1553.47,-828 1553.47,-792.4 1231.52,-792.4"/>
<text text-anchor="start" x="1238.52" y="-805.8" font-family="Arial Bold" font-size="18.00">public.org_agent_configs</text>
<text text-anchor="start" x="1421.98" y="-805.8" font-family="Arial" font-size="14.00">    </text>
<text text-anchor="start" x="1453.1" y="-805.8" font-family="Arial" font-size="14.00" fill="#666666">[BASE TABLE]</text>
<polygon fill="none" stroke="black" points="1231.52,-761.6 1231.52,-792.4 1553.47,-792.4 1553.47,-761.6 1231.52,-761.6"/>
<text text-anchor="start" x="1238.52" y="-773.8" font-family="Arial" font-size="14.00">id </text>
<text text-anchor="start" x="1253.31" y="-773.8" font-family="Arial" font-size="14.00" fill="#666666">[uuid]</text>
<polygon fill="none" stroke="black" points="1231.52,-730.8 1231.52,-761.6 1553.47,-761.6 1553.47,-730.8 1231.52,-730.8"/>
<text text-anchor="start" x="1238.52" y="-743" font-family="Arial" font-size="14.00">org_id </text>
<text text-anchor="start" x="1281.33" y="-743" font-family="Arial" font-size="14.00" fill="#666666">[uuid]</text>
<polygon fill="none" stroke="black" points="1231.52,-700 1231.52,-730.8 1553.47,-730.8 1553.47,-700 1231.52,-700"/>
<text text-anchor="start" x="1238.52" y="-712.2" font-family="Arial" font-size="14.00">agent_id </text>
<text text-anchor="start" x="1296.13" y="-712.2" font-family="Arial" font-size="14.00" fill="#666666">[uuid]</text>
<polygon fill="none" stroke="black" points="1231.52,-669.2 1231.52,-700 1553.47,-700 1553.47,-669.2 1231.52,-669.2"/>
<text text-anchor="start" x="1238.52" y="-681.4" font-family="Arial" font-size="14.00">config </text>
<text text-anchor="start" x="1279.77" y="-681.4" font-family="Arial" font-size="14.00" fill="#666666">[jsonb]</text>
<polygon fill="none" stroke="black" points="1231.52,-638.4 1231.52,-669.2 1553.47,-669.2 1553.47,-638.4 1231.52,-638.4"/>
<text text-anchor="start" x="1238.52" y="-650.6" font-family="Arial" font-size="14.00">is_enabled </text>
<text text-anchor="start" x="1310.14" y="-650.6" font-family="Arial" font-size="14.00" fill="#666666">[boolean]</text>
<polygon fill="none" stroke="black" points="1231.52,-607.6 1231.52,-638.4 1553.47,-638.4 1553.47,-607.6 1231.52,-607.6"/>
<text text-anchor="start" x="1238.52" y="-619.8" font-family="Arial" font-size="14.00">created_at </text>
<text text-anchor="start" x="1308.57" y="-619.8" font-family="Arial" font-size="14.00" fill="#666666">[timestamp without time zone]</text>
<polygon fill="none" stroke="black" points="1231.52,-576.8 1231.52,-607.6 1553.47,-607.6 1553.47,-576.8 1231.52,-576.8"/>
<text text-anchor="start" x="1238.52" y="-589" font-family="Arial" font-size="14.00">updated_at </text>
<text text-anchor="start" x="1312.48" y="-589" font-family="Arial" font-size="14.00" fill="#666666">[timestamp without time zone]</text>
</g>
<!-- public.org_agent_configs&#45;&gt;public.organizations -->
<g id="edge4" class="edge">
<title>public.org_agent_configs:org_id&#45;&gt;public.organizations:id</title>
<path fill="none" stroke="black" d="M1220.17,-745.64C1141.02,-736.62 1201.73,-619.37 1231.52,-533.6 1255.3,-465.16 1308.01,-473.58 1331.97,-405.2 1346.26,-364.43 1376.17,-308 1332.97,-308"/>
<polygon fill="black" stroke="black" points="1220.2,-745.65 1229.95,-750.68 1225.53,-745.93 1229.86,-746.16 1229.86,-746.16 1229.86,-746.16 1225.53,-745.93 1230.43,-741.69 1220.2,-745.65"/>
<text text-anchor="start" x="1237.52" y="-756.2" font-family="Arial" font-size="10.00">FOREIGN KEY (org_id) REFERENCES organizations(id) ON DELETE CASCADE</text>
</g>
<!-- public.activity_logs -->
<g id="node6" class="node">
<title>public.activity_logs</title>
<polygon fill="#efefef" stroke="none" points="1658.01,-792.4 1658.01,-828 1938.98,-828 1938.98,-792.4 1658.01,-792.4"/>
<polygon fill="none" stroke="black" points="1658.01,-792.4 1658.01,-828 1938.98,-828 1938.98,-792.4 1658.01,-792.4"/>
<text text-anchor="start" x="1665.01" y="-805.8" font-family="Arial Bold" font-size="18.00">public.activity_logs</text>
<text text-anchor="start" x="1807.49" y="-805.8" font-family="Arial" font-size="14.00">    </text>
<text text-anchor="start" x="1838.61" y="-805.8" font-family="Arial" font-size="14.00" fill="#666666">[BASE TABLE]</text>
<polygon fill="none" stroke="black" points="1658.01,-761.6 1658.01,-792.4 1938.98,-792.4 1938.98,-761.6 1658.01,-761.6"/>
<text text-anchor="start" x="1665.01" y="-773.8" font-family="Arial" font-size="14.00">id </text>
<text text-anchor="start" x="1679.8" y="-773.8" font-family="Arial" font-size="14.00" fill="#666666">[uuid]</text>
<polygon fill="none" stroke="black" points="1658.01,-730.8 1658.01,-761.6 1938.98,-761.6 1938.98,-730.8 1658.01,-730.8"/>
<text text-anchor="start" x="1665.01" y="-743" font-family="Arial" font-size="14.00">org_id </text>
<text text-anchor="start" x="1707.82" y="-743" font-family="Arial" font-size="14.00" fill="#666666">[uuid]</text>
<polygon fill="none" stroke="black" points="1658.01,-700 1658.01,-730.8 1938.98,-730.8 1938.98,-700 1658.01,-700"/>
<text text-anchor="start" x="1665.01" y="-712.2" font-family="Arial" font-size="14.00">employee_id </text>
<text text-anchor="start" x="1748.29" y="-712.2" font-family="Arial" font-size="14.00" fill="#666666">[uuid]</text>
<polygon fill="none" stroke="black" points="1658.01,-669.2 1658.01,-700 1938.98,-700 1938.98,-669.2 1658.01,-669.2"/>
<text text-anchor="start" x="1665.01" y="-681.4" font-family="Arial" font-size="14.00">event_type </text>
<text text-anchor="start" x="1737.4" y="-681.4" font-family="Arial" font-size="14.00" fill="#666666">[varchar(100)]</text>
<polygon fill="none" stroke="black" points="1658.01,-638.4 1658.01,-669.2 1938.98,-669.2 1938.98,-638.4 1658.01,-638.4"/>
<text text-anchor="start" x="1665.01" y="-650.6" font-family="Arial" font-size="14.00">event_category </text>
<text text-anchor="start" x="1764.63" y="-650.6" font-family="Arial" font-size="14.00" fill="#666666">[varchar(50)]</text>
<polygon fill="none" stroke="black" points="1658.01,-607.6 1658.01,-638.4 1938.98,-638.4 1938.98,-607.6 1658.01,-607.6"/>
<text text-anchor="start" x="1665.01" y="-619.8" font-family="Arial" font-size="14.00">payload </text>
<text text-anchor="start" x="1717.94" y="-619.8" font-family="Arial" font-size="14.00" fill="#666666">[jsonb]</text>
<polygon fill="none" stroke="black" points="1658.01,-576.8 1658.01,-607.6 1938.98,-607.6 1938.98,-576.8 1658.01,-576.8"/>
<text text-anchor="start" x="1665.01" y="-589" font-family="Arial" font-size="14.00">created_at </text>
<text text-anchor="start" x="1735.06" y="-589" font-family="Arial" font-size="14.00" fill="#666666">[timestamp without time zone]</text>
</g>
<!-- public.activity_logs&#45;&gt;public.organizations -->
<g id="edge5" class="edge">
<title>public.activity_logs:org_id&#45;&gt;public.organizations:id</title>
<path fill="none" stroke="black" d="M1646.84,-744.03C1594.36,-719.45 1644.39,-493.25 1605.5,-441.2 1524.8,-333.21 1467.79,-308 1332.97,-308"/>
<polygon fill="black" stroke="black" points="1646.9,-744.04 1655.75,-750.53 1652.12,-745.16 1656.36,-746.06 1656.36,-746.06 1656.36,-746.06 1652.12,-745.16 1657.62,-741.73 1646.9,-744.04"/>
<text text-anchor="start" x="1664.01" y="-756.2" font-family="Arial" font-size="10.00">FOREIGN KEY (org_id) REFERENCES organizations(id) ON DELETE CASCADE</text>
</g>
<!-- public.usage_records -->
<g id="node7" class="node">
<title>public.usage_records</title>
<polygon fill="#efefef" stroke="none" points="2043.03,-854 2043.03,-889.6 2333.96,-889.6 2333.96,-854 2043.03,-854"/>
<polygon fill="none" stroke="black" points="2043.03,-854 2043.03,-889.6 2333.96,-889.6 2333.96,-854 2043.03,-854"/>
<text text-anchor="start" x="2050.03" y="-867.4" font-family="Arial Bold" font-size="18.00">public.usage_records</text>
<text text-anchor="start" x="2202.47" y="-867.4" font-family="Arial" font-size="14.00">    </text>
<text text-anchor="start" x="2233.59" y="-867.4" font-family="Arial" font-size="14.00" fill="#666666">[BASE TABLE]</text>
<polygon fill="none" stroke="black" points="2043.03,-823.2 2043.03,-854 2333.96,-854 2333.96,-823.2 2043.03,-823.2"/>
<text text-anchor="start" x="2050.03" y="-835.4" font-family="Arial" font-size="14.00">id </text>
<text text-anchor="start" x="2064.81" y="-835.4" font-family="Arial" font-size="14.00" fill="#666666">[uuid]</text>
<polygon fill="none" stroke="black" points="2043.03,-792.4 2043.03,-823.2 2333.96,-823.2 2333.96,-792.4 2043.03,-792.4"/>
<text text-anchor="start" x="2050.03" y="-804.6" font-family="Arial" font-size="14.00">org_id </text>
<text text-anchor="start" x="2092.83" y="-804.6" font-family="Arial" font-size="14.00" fill="#666666">[uuid]</text>
<polygon fill="none" stroke="black" points="2043.03,-761.6 2043.03,-792.4 2333.96,-792.4 2333.96,-761.6 2043.03,-761.6"/>
<text text-anchor="start" x="2050.03" y="-773.8" font-family="Arial" font-size="14.00">employee_id </text>
<text text-anchor="start" x="2133.3" y="-773.8" font-family="Arial" font-size="14.00" fill="#666666">[uuid]</text>
<polygon fill="none" stroke="black" points="2043.03,-730.8 2043.03,-761.6 2333.96,-761.6 2333.96,-730.8 2043.03,-730.8"/>
<text text-anchor="start" x="2050.03" y="-743" font-family="Arial" font-size="14.00">agent_config_id </text>
<text text-anchor="start" x="2152.78" y="-743" font-family="Arial" font-size="14.00" fill="#666666">[uuid]</text>
<polygon fill="none" stroke="black" points="2043.03,-700 2043.03,-730.8 2333.96,-730.8 2333.96,-700 2043.03,-700"/>
<text text-anchor="start" x="2050.03" y="-712.2" font-family="Arial" font-size="14.00">resource_type </text>
<text text-anchor="start" x="2142.63" y="-712.2" font-family="Arial" font-size="14.00" fill="#666666">[varchar(50)]</text>
<polygon fill="none" stroke="black" points="2043.03,-669.2 2043.03,-700 2333.96,-700 2333.96,-669.2 2043.03,-669.2"/>
<text text-anchor="start" x="2050.03" y="-681.4" font-family="Arial" font-size="14.00">quantity </text>
<text text-anchor="start" x="2102.95" y="-681.4" font-family="Arial" font-size="14.00" fill="#666666">[bigint]</text>
<polygon fill="none" stroke="black" points="2043.03,-638.4 2043.03,-669.2 2333.96,-669.2 2333.96,-638.4 2043.03,-638.4"/>
<text text-anchor="start" x="2050.03" y="-650.6" font-family="Arial" font-size="14.00">cost_usd </text>
<text text-anchor="start" x="2109.95" y="-650.6" font-family="Arial" font-size="14.00" fill="#666666">[numeric(10,4)]</text>
<polygon fill="none" stroke="black" points="2043.03,-607.6 2043.03,-638.4 2333.96,-638.4 2333.96,-607.6 2043.03,-607.6"/>
<text text-anchor="start" x="2050.03" y="-619.8" font-family="Arial" font-size="14.00">period_start </text>
<text text-anchor="start" x="2127.85" y="-619.8" font-family="Arial" font-size="14.00" fill="#666666">[timestamp without time zone]</text>
<polygon fill="none" stroke="black" points="2043.03,-576.8 2043.03,-607.6 2333.96,-607.6 2333.96,-576.8 2043.03,-576.8"/>
<text text-anchor="start" x="2050.03" y="-589" font-family="Arial" font-size="14.00">period_end </text>
<text text-anchor="start" x="2123.98" y="-589" font-family="Arial" font-size="14.00" fill="#666666">[timestamp without time zone]</text>
<polygon fill="none" stroke="black" points="2043.03,-546 2043.03,-576.8 2333.96,-576.8 2333.96,-546 2043.03,-546"/>
<text text-anchor="start" x="2050.03" y="-558.2" font-family="Arial" font-size="14.00">metadata </text>
<text text-anchor="start" x="2112.29" y="-558.2" font-family="Arial" font-size="14.00" fill="#666666">[jsonb]</text>
<polygon fill="none" stroke="black" points="2043.03,-515.2 2043.03,-546 2333.96,-546 2333.96,-515.2 2043.03,-515.2"/>
<text text-anchor="start" x="2050.03" y="-527.4" font-family="Arial" font-size="14.00">created_at </text>
<text text-anchor="start" x="2120.08" y="-527.4" font-family="Arial" font-size="14.00" fill="#666666">[timestamp without time zone]</text>
</g>
<!-- public.usage_records&#45;&gt;public.organizations -->
<g id="edge6" class="edge">
<title>public.usage_records:org_id&#45;&gt;public.organizations:id</title>
<path fill="none" stroke="black" d="M2031.95,-805.99C1967.41,-780.75 2045.27,-498.45 1991.5,-441.2 1889.28,-332.38 1482.27,-308 1332.97,-308"/>
<polygon fill="black" stroke="black" points="2031.86,-805.98 2040.91,-812.17 2037.11,-806.92 2041.37,-807.68 2041.37,-807.68 2041.37,-807.68 2037.11,-806.92 2042.49,-803.31 2031.86,-805.98"/>
<text text-anchor="start" x="2049.03" y="-817.8" font-family="Arial" font-size="10.00">FOREIGN KEY (org_id) REFERENCES organizations(id) ON DELETE CASCADE</text>
</g>
</g>
</svg>
