<?xml version="1.0" encoding="UTF-8" standalone="no"?>
<!DOCTYPE svg PUBLIC "-//W3C//DTD SVG 1.1//EN"
 "http://www.w3.org/Graphics/SVG/1.1/DTD/svg11.dtd">
<!-- Generated by graphviz version 12.1.2 (20240928.0832)
 -->
<!-- Title: public.invitations Pages: 1 -->
<svg width="1521pt" height="1126pt"
 viewBox="0.00 0.00 1521.45 1125.60" xmlns="http://www.w3.org/2000/svg" xmlns:xlink="http://www.w3.org/1999/xlink">
<g id="graph0" class="graph" transform="scale(1 1) rotate(0) translate(4 1121.6)">
<title>public.invitations</title>
<polygon fill="white" stroke="none" points="-4,4 -4,-1121.6 1517.45,-1121.6 1517.45,4 -4,4"/>
<!-- public.invitations -->
<g id="node1" class="node">
<title>public.invitations</title>
<polygon fill="#efefef" stroke="none" points="434,-1035.8 434,-1071.4 713.35,-1071.4 713.35,-1035.8 434,-1035.8"/>
<polygon fill="none" stroke="black" points="434,-1035.8 434,-1071.4 713.35,-1071.4 713.35,-1035.8 434,-1035.8"/>
<text text-anchor="start" x="448.69" y="-1049.2" font-family="Arial Bold" font-size="18.00">public.invitations</text>
<text text-anchor="start" x="574.18" y="-1049.2" font-family="Arial" font-size="14.00">    </text>
<text text-anchor="start" x="605.29" y="-1049.2" font-family="Arial" font-size="14.00" fill="#666666">[BASE TABLE]</text>
<polygon fill="none" stroke="black" points="434,-1005 434,-1035.8 713.35,-1035.8 713.35,-1005 434,-1005"/>
<text text-anchor="start" x="441" y="-1017.2" font-family="Arial" font-size="14.00">id </text>
<text text-anchor="start" x="455.78" y="-1017.2" font-family="Arial" font-size="14.00" fill="#666666">[uuid]</text>
<polygon fill="none" stroke="black" points="434,-974.2 434,-1005 713.35,-1005 713.35,-974.2 434,-974.2"/>
<text text-anchor="start" x="441" y="-986.4" font-family="Arial" font-size="14.00">org_id </text>
<text text-anchor="start" x="483.8" y="-986.4" font-family="Arial" font-size="14.00" fill="#666666">[uuid]</text>
<polygon fill="none" stroke="black" points="434,-943.4 434,-974.2 713.35,-974.2 713.35,-943.4 434,-943.4"/>
<text text-anchor="start" x="441" y="-955.6" font-family="Arial" font-size="14.00">inviter_id </text>
<text text-anchor="start" x="500.91" y="-955.6" font-family="Arial" font-size="14.00" fill="#666666">[uuid]</text>
<polygon fill="none" stroke="black" points="434,-912.6 434,-943.4 713.35,-943.4 713.35,-912.6 434,-912.6"/>
<text text-anchor="start" x="441" y="-924.8" font-family="Arial" font-size="14.00">email </text>
<text text-anchor="start" x="478.34" y="-924.8" font-family="Arial" font-size="14.00" fill="#666666">[varchar(255)]</text>
<polygon fill="none" stroke="black" points="434,-881.8 434,-912.6 713.35,-912.6 713.35,-881.8 434,-881.8"/>
<text text-anchor="start" x="441" y="-894" font-family="Arial" font-size="14.00">role_id </text>
<text text-anchor="start" x="486.91" y="-894" font-family="Arial" font-size="14.00" fill="#666666">[uuid]</text>
<polygon fill="none" stroke="black" points="434,-851 434,-881.8 713.35,-881.8 713.35,-851 434,-851"/>
<text text-anchor="start" x="441" y="-863.2" font-family="Arial" font-size="14.00">team_id </text>
<text text-anchor="start" x="494.69" y="-863.2" font-family="Arial" font-size="14.00" fill="#666666">[uuid]</text>
<polygon fill="none" stroke="black" points="434,-820.2 434,-851 713.35,-851 713.35,-820.2 434,-820.2"/>
<text text-anchor="start" x="441" y="-832.4" font-family="Arial" font-size="14.00">token </text>
<text text-anchor="start" x="479.13" y="-832.4" font-family="Arial" font-size="14.00" fill="#666666">[varchar(64)]</text>
<polygon fill="none" stroke="black" points="434,-789.4 434,-820.2 713.35,-820.2 713.35,-789.4 434,-789.4"/>
<text text-anchor="start" x="441" y="-801.6" font-family="Arial" font-size="14.00">status </text>
<text text-anchor="start" x="482.24" y="-801.6" font-family="Arial" font-size="14.00" fill="#666666">[varchar(50)]</text>
<polygon fill="none" stroke="black" points="434,-758.6 434,-789.4 713.35,-789.4 713.35,-758.6 434,-758.6"/>
<text text-anchor="start" x="441" y="-770.8" font-family="Arial" font-size="14.00">expires_at </text>
<text text-anchor="start" x="509.48" y="-770.8" font-family="Arial" font-size="14.00" fill="#666666">[timestamp without time zone]</text>
<polygon fill="none" stroke="black" points="434,-727.8 434,-758.6 713.35,-758.6 713.35,-727.8 434,-727.8"/>
<text text-anchor="start" x="441" y="-740" font-family="Arial" font-size="14.00">accepted_by </text>
<text text-anchor="start" x="524.28" y="-740" font-family="Arial" font-size="14.00" fill="#666666">[uuid]</text>
<polygon fill="none" stroke="black" points="434,-697 434,-727.8 713.35,-727.8 713.35,-697 434,-697"/>
<text text-anchor="start" x="441" y="-709.2" font-family="Arial" font-size="14.00">accepted_at </text>
<text text-anchor="start" x="521.17" y="-709.2" font-family="Arial" font-size="14.00" fill="#666666">[timestamp without time zone]</text>
<polygon fill="none" stroke="black" points="434,-666.2 434,-697 713.35,-697 713.35,-666.2 434,-666.2"/>
<text text-anchor="start" x="441" y="-678.4" font-family="Arial" font-size="14.00">created_at </text>
<text text-anchor="start" x="511.04" y="-678.4" font-family="Arial" font-size="14.00" fill="#666666">[timestamp without time zone]</text>
<polygon fill="none" stroke="black" points="434,-635.4 434,-666.2 713.35,-666.2 713.35,-635.4 434,-635.4"/>
<text text-anchor="start" x="441" y="-647.6" font-family="Arial" font-size="14.00">updated_at </text>
<text text-anchor="start" x="514.95" y="-647.6" font-family="Arial" font-size="14.00" fill="#666666">[timestamp without time zone]</text>
<polygon fill="none" stroke="black" stroke-width="3" points="432.5,-633.9 432.5,-1072.9 714.85,-1072.9 714.85,-633.9 432.5,-633.9"/>
</g>
<!-- public.organizations -->
<g id="node2" class="node">
<title>public.organizations</title>
<polygon fill="#efefef" stroke="none" points="43.2,-397.4 43.2,-433 328.15,-433 328.15,-397.4 43.2,-397.4"/>
<polygon fill="none" stroke="black" points="43.2,-397.4 43.2,-433 328.15,-433 328.15,-397.4 43.2,-397.4"/>
<text text-anchor="start" x="50.2" y="-410.8" font-family="Arial Bold" font-size="18.00">public.organizations</text>
<text text-anchor="start" x="196.66" y="-410.8" font-family="Arial" font-size="14.00">    </text>
<text text-anchor="start" x="227.78" y="-410.8" font-family="Arial" font-size="14.00" fill="#666666">[BASE TABLE]</text>
<polygon fill="none" stroke="black" points="43.2,-366.6 43.2,-397.4 328.15,-397.4 328.15,-366.6 43.2,-366.6"/>
<text text-anchor="start" x="50.2" y="-378.8" font-family="Arial" font-size="14.00">id </text>
<text text-anchor="start" x="64.99" y="-378.8" font-family="Arial" font-size="14.00" fill="#666666">[uuid]</text>
<polygon fill="none" stroke="black" points="43.2,-335.8 43.2,-366.6 328.15,-366.6 328.15,-335.8 43.2,-335.8"/>
<text text-anchor="start" x="50.2" y="-348" font-family="Arial" font-size="14.00">name </text>
<text text-anchor="start" x="89.11" y="-348" font-family="Arial" font-size="14.00" fill="#666666">[varchar(255)]</text>
<polygon fill="none" stroke="black" points="43.2,-305 43.2,-335.8 328.15,-335.8 328.15,-305 43.2,-305"/>
<text text-anchor="start" x="50.2" y="-317.2" font-family="Arial" font-size="14.00">slug </text>
<text text-anchor="start" x="79.77" y="-317.2" font-family="Arial" font-size="14.00" fill="#666666">[varchar(100)]</text>
<polygon fill="none" stroke="black" points="43.2,-274.2 43.2,-305 328.15,-305 328.15,-274.2 43.2,-274.2"/>
<text text-anchor="start" x="50.2" y="-286.4" font-family="Arial" font-size="14.00">plan </text>
<text text-anchor="start" x="80.56" y="-286.4" font-family="Arial" font-size="14.00" fill="#666666">[varchar(50)]</text>
<polygon fill="none" stroke="black" points="43.2,-243.4 43.2,-274.2 328.15,-274.2 328.15,-243.4 43.2,-243.4"/>
<text text-anchor="start" x="50.2" y="-255.6" font-family="Arial" font-size="14.00">settings </text>
<text text-anchor="start" x="102.34" y="-255.6" font-family="Arial" font-size="14.00" fill="#666666">[jsonb]</text>
<polygon fill="none" stroke="black" points="43.2,-212.6 43.2,-243.4 328.15,-243.4 328.15,-212.6 43.2,-212.6"/>
<text text-anchor="start" x="50.2" y="-224.8" font-family="Arial" font-size="14.00">max_employees </text>
<text text-anchor="start" x="156.03" y="-224.8" font-family="Arial" font-size="14.00" fill="#666666">[integer]</text>
<polygon fill="none" stroke="black" points="43.2,-181.8 43.2,-212.6 328.15,-212.6 328.15,-181.8 43.2,-181.8"/>
<text text-anchor="start" x="50.2" y="-194" font-family="Arial" font-size="14.00">claude_api_token </text>
<text text-anchor="start" x="163.85" y="-194" font-family="Arial" font-size="14.00" fill="#666666">[text]</text>
<polygon fill="none" stroke="black" points="43.2,-151 43.2,-181.8 328.15,-181.8 328.15,-151 43.2,-151"/>
<text text-anchor="start" x="50.2" y="-163.2" font-family="Arial" font-size="14.00">created_at </text>
<text text-anchor="start" x="120.25" y="-163.2" font-family="Arial" font-size="14.00" fill="#666666">[timestamp without time zone]</text>
<polygon fill="none" stroke="black" points="43.2,-120.2 43.2,-151 328.15,-151 328.15,-120.2 43.2,-120.2"/>
<text text-anchor="start" x="50.2" y="-132.4" font-family="Arial" font-size="14.00">updated_at </text>
<text text-anchor="start" x="124.16" y="-132.4" font-family="Arial" font-size="14.00" fill="#666666">[timestamp without time zone]</text>
</g>
<!-- public.invitations&#45;&gt;public.organizations -->
<g id="edge1" class="edge">
<title>public.invitations:org_id&#45;&gt;public.organizations:id</title>
<path fill="none" stroke="black" d="M423.67,-985.4C367.5,-931.71 394.3,-382 329.15,-382"/>
<polygon fill="black" stroke="black" points="423.57,-985.35 430.84,-993.57 428.44,-987.55 432.39,-989.33 432.39,-989.33 432.39,-989.33 428.44,-987.55 434.54,-985.36 423.57,-985.35"/>
<text text-anchor="start" x="62.01" y="-999.6" font-family="Arial" font-size="10.00">FOREIGN KEY (org_id) REFERENCES organizations(id) ON DELETE CASCADE</text>
</g>
<!-- public.employees -->
<g id="node3" class="node">
<title>public.employees</title>
<polygon fill="#efefef" stroke="none" points="432.83,-474.4 432.83,-510 714.52,-510 714.52,-474.4 432.83,-474.4"/>
<polygon fill="none" stroke="black" points="432.83,-474.4 432.83,-510 714.52,-510 714.52,-474.4 432.83,-474.4"/>
<text text-anchor="start" x="448.2" y="-487.8" font-family="Arial Bold" font-size="18.00">public.employees</text>
<text text-anchor="start" x="574.66" y="-487.8" font-family="Arial" font-size="14.00">    </text>
<text text-anchor="start" x="605.78" y="-487.8" font-family="Arial" font-size="14.00" fill="#666666">[BASE TABLE]</text>
<polygon fill="none" stroke="black" points="432.83,-443.6 432.83,-474.4 714.52,-474.4 714.52,-443.6 432.83,-443.6"/>
<text text-anchor="start" x="439.83" y="-455.8" font-family="Arial" font-size="14.00">id </text>
<text text-anchor="start" x="454.62" y="-455.8" font-family="Arial" font-size="14.00" fill="#666666">[uuid]</text>
<polygon fill="none" stroke="black" points="432.83,-412.8 432.83,-443.6 714.52,-443.6 714.52,-412.8 432.83,-412.8"/>
<text text-anchor="start" x="439.83" y="-425" font-family="Arial" font-size="14.00">org_id </text>
<text text-anchor="start" x="482.64" y="-425" font-family="Arial" font-size="14.00" fill="#666666">[uuid]</text>
<polygon fill="none" stroke="black" points="432.83,-382 432.83,-412.8 714.52,-412.8 714.52,-382 432.83,-382"/>
<text text-anchor="start" x="439.83" y="-394.2" font-family="Arial" font-size="14.00">team_id </text>
<text text-anchor="start" x="493.53" y="-394.2" font-family="Arial" font-size="14.00" fill="#666666">[uuid]</text>
<polygon fill="none" stroke="black" points="432.83,-351.2 432.83,-382 714.52,-382 714.52,-351.2 432.83,-351.2"/>
<text text-anchor="start" x="439.83" y="-363.4" font-family="Arial" font-size="14.00">role_id </text>
<text text-anchor="start" x="485.75" y="-363.4" font-family="Arial" font-size="14.00" fill="#666666">[uuid]</text>
<polygon fill="none" stroke="black" points="432.83,-320.4 432.83,-351.2 714.52,-351.2 714.52,-320.4 432.83,-320.4"/>
<text text-anchor="start" x="439.83" y="-332.6" font-family="Arial" font-size="14.00">email </text>
<text text-anchor="start" x="477.18" y="-332.6" font-family="Arial" font-size="14.00" fill="#666666">[varchar(255)]</text>
<polygon fill="none" stroke="black" points="432.83,-289.6 432.83,-320.4 714.52,-320.4 714.52,-289.6 432.83,-289.6"/>
<text text-anchor="start" x="439.83" y="-301.8" font-family="Arial" font-size="14.00">full_name </text>
<text text-anchor="start" x="504.42" y="-301.8" font-family="Arial" font-size="14.00" fill="#666666">[varchar(255)]</text>
<polygon fill="none" stroke="black" points="432.83,-258.8 432.83,-289.6 714.52,-289.6 714.52,-258.8 432.83,-258.8"/>
<text text-anchor="start" x="439.83" y="-271" font-family="Arial" font-size="14.00">password_hash </text>
<text text-anchor="start" x="541.78" y="-271" font-family="Arial" font-size="14.00" fill="#666666">[varchar(255)]</text>
<polygon fill="none" stroke="black" points="432.83,-228 432.83,-258.8 714.52,-258.8 714.52,-228 432.83,-228"/>
<text text-anchor="start" x="439.83" y="-240.2" font-family="Arial" font-size="14.00">status </text>
<text text-anchor="start" x="481.07" y="-240.2" font-family="Arial" font-size="14.00" fill="#666666">[varchar(50)]</text>
<polygon fill="none" stroke="black" points="432.83,-197.2 432.83,-228 714.52,-228 714.52,-197.2 432.83,-197.2"/>
<text text-anchor="start" x="439.83" y="-209.4" font-family="Arial" font-size="14.00">preferences </text>
<text text-anchor="start" x="517.65" y="-209.4" font-family="Arial" font-size="14.00" fill="#666666">[jsonb]</text>
<polygon fill="none" stroke="black" points="432.83,-166.4 432.83,-197.2 714.52,-197.2 714.52,-166.4 432.83,-166.4"/>
<text text-anchor="start" x="439.83" y="-178.6" font-family="Arial" font-size="14.00">personal_claude_token </text>
<text text-anchor="start" x="588.5" y="-178.6" font-family="Arial" font-size="14.00" fill="#666666">[text]</text>
<polygon fill="none" stroke="black" points="432.83,-135.6 432.83,-166.4 714.52,-166.4 714.52,-135.6 432.83,-135.6"/>
<text text-anchor="start" x="439.83" y="-147.8" font-family="Arial" font-size="14.00">last_login_at </text>
<text text-anchor="start" x="522.33" y="-147.8" font-family="Arial" font-size="14.00" fill="#666666">[timestamp without time zone]</text>
<polygon fill="none" stroke="black" points="432.83,-104.8 432.83,-135.6 714.52,-135.6 714.52,-104.8 432.83,-104.8"/>
<text text-anchor="start" x="439.83" y="-117" font-family="Arial" font-size="14.00">created_at </text>
<text text-anchor="start" x="509.88" y="-117" font-family="Arial" font-size="14.00" fill="#666666">[timestamp without time zone]</text>
<polygon fill="none" stroke="black" points="432.83,-74 432.83,-104.8 714.52,-104.8 714.52,-74 432.83,-74"/>
<text text-anchor="start" x="439.83" y="-86.2" font-family="Arial" font-size="14.00">updated_at </text>
<text text-anchor="start" x="513.79" y="-86.2" font-family="Arial" font-size="14.00" fill="#666666">[timestamp without time zone]</text>
<polygon fill="none" stroke="black" points="432.83,-43.2 432.83,-74 714.52,-74 714.52,-43.2 432.83,-43.2"/>
<text text-anchor="start" x="439.83" y="-55.4" font-family="Arial" font-size="14.00">deleted_at </text>
<text text-anchor="start" x="509.11" y="-55.4" font-family="Arial" font-size="14.00" fill="#666666">[timestamp without time zone]</text>
</g>
<!-- public.invitations&#45;&gt;public.employees -->
<g id="edge2" class="edge">
<title>public.invitations:inviter_id&#45;&gt;public.employees:id</title>
<path fill="none" stroke="black" d="M723.27,-954.17C769.84,-903.79 767.91,-459 715.52,-459"/>
<polygon fill="black" stroke="black" points="723.53,-954.04 712.58,-954.65 718.79,-956.5 714.95,-958.49 714.95,-958.49 714.95,-958.49 718.79,-956.5 716.72,-962.64 723.53,-954.04"/>
<text text-anchor="start" x="721.35" y="-968.8" font-family="Arial" font-size="10.00">FOREIGN KEY (inviter_id) REFERENCES employees(id) ON DELETE CASCADE</text>
</g>
<!-- public.invitations&#45;&gt;public.employees -->
<g id="edge5" class="edge">
<title>public.invitations:accepted_by&#45;&gt;public.employees:id</title>
<path fill="none" stroke="black" d="M724.16,-740.74C777.45,-712.97 775.22,-459 715.52,-459"/>
<polygon fill="black" stroke="black" points="724.38,-740.69 713.58,-738.75 719.2,-741.98 715,-743.04 715,-743.04 715,-743.04 719.2,-741.98 715.77,-747.48 724.38,-740.69"/>
<text text-anchor="start" x="721.35" y="-753.2" font-family="Arial" font-size="10.00">FOREIGN KEY (accepted_by) REFERENCES employees(id) ON DELETE SET NULL</text>
</g>
<!-- public.roles -->
<g id="node4" class="node">
<title>public.roles</title>
<polygon fill="#efefef" stroke="none" points="819.1,-351.2 819.1,-386.8 1092.25,-386.8 1092.25,-351.2 819.1,-351.2"/>
<polygon fill="none" stroke="black" points="819.1,-351.2 819.1,-386.8 1092.25,-386.8 1092.25,-351.2 819.1,-351.2"/>
<text text-anchor="start" x="851.19" y="-364.6" font-family="Arial Bold" font-size="18.00">public.roles</text>
<text text-anchor="start" x="935.67" y="-364.6" font-family="Arial" font-size="14.00">    </text>
<text text-anchor="start" x="966.79" y="-364.6" font-family="Arial" font-size="14.00" fill="#666666">[BASE TABLE]</text>
<polygon fill="none" stroke="black" points="819.1,-320.4 819.1,-351.2 1092.25,-351.2 1092.25,-320.4 819.1,-320.4"/>
<text text-anchor="start" x="826.1" y="-332.6" font-family="Arial" font-size="14.00">id </text>
<text text-anchor="start" x="840.89" y="-332.6" font-family="Arial" font-size="14.00" fill="#666666">[uuid]</text>
<polygon fill="none" stroke="black" points="819.1,-289.6 819.1,-320.4 1092.25,-320.4 1092.25,-289.6 819.1,-289.6"/>
<text text-anchor="start" x="826.1" y="-301.8" font-family="Arial" font-size="14.00">name </text>
<text text-anchor="start" x="865.01" y="-301.8" font-family="Arial" font-size="14.00" fill="#666666">[varchar(100)]</text>
<polygon fill="none" stroke="black" points="819.1,-258.8 819.1,-289.6 1092.25,-289.6 1092.25,-258.8 819.1,-258.8"/>
<text text-anchor="start" x="826.1" y="-271" font-family="Arial" font-size="14.00">description </text>
<text text-anchor="start" x="897.7" y="-271" font-family="Arial" font-size="14.00" fill="#666666">[text]</text>
<polygon fill="none" stroke="black" points="819.1,-228 819.1,-258.8 1092.25,-258.8 1092.25,-228 819.1,-228"/>
<text text-anchor="start" x="826.1" y="-240.2" font-family="Arial" font-size="14.00">permissions </text>
<text text-anchor="start" x="904.68" y="-240.2" font-family="Arial" font-size="14.00" fill="#666666">[jsonb]</text>
<polygon fill="none" stroke="black" points="819.1,-197.2 819.1,-228 1092.25,-228 1092.25,-197.2 819.1,-197.2"/>
<text text-anchor="start" x="826.1" y="-209.4" font-family="Arial" font-size="14.00">created_at </text>
<text text-anchor="start" x="896.15" y="-209.4" font-family="Arial" font-size="14.00" fill="#666666">[timestamp without time zone]</text>
<polygon fill="none" stroke="black" points="819.1,-166.4 819.1,-197.2 1092.25,-197.2 1092.25,-166.4 819.1,-166.4"/>
<text text-anchor="start" x="826.1" y="-178.6" font-family="Arial" font-size="14.00">updated_at </text>
<text text-anchor="start" x="900.06" y="-178.6" font-family="Arial" font-size="14.00" fill="#666666">[timestamp without time zone]</text>
</g>
<!-- public.invitations&#45;&gt;public.roles -->
<g id="edge3" class="edge">
<title>public.invitations:role_id&#45;&gt;public.roles:id</title>
<path fill="none" stroke="black" d="M723.69,-892.68C775.59,-839.55 758.01,-335.8 818.1,-335.8"/>
<polygon fill="black" stroke="black" points="723.66,-892.7 712.69,-893 718.85,-895.02 714.96,-896.91 714.96,-896.91 714.96,-896.91 718.85,-895.02 716.62,-901.1 723.66,-892.7"/>
<text text-anchor="start" x="721.35" y="-907.2" font-family="Arial" font-size="10.00">FOREIGN KEY (role_id) REFERENCES roles(id)</text>
</g>
<!-- public.teams -->
<g id="node5" class="node">
<title>public.teams</title>
<polygon fill="#efefef" stroke="none" points="1197.1,-351.2 1197.1,-386.8 1470.25,-386.8 1470.25,-351.2 1197.1,-351.2"/>
<polygon fill="none" stroke="black" points="1197.1,-351.2 1197.1,-386.8 1470.25,-386.8 1470.25,-351.2 1197.1,-351.2"/>
<text text-anchor="start" x="1225.69" y="-364.6" font-family="Arial Bold" font-size="18.00">public.teams</text>
<text text-anchor="start" x="1317.17" y="-364.6" font-family="Arial" font-size="14.00">    </text>
<text text-anchor="start" x="1348.29" y="-364.6" font-family="Arial" font-size="14.00" fill="#666666">[BASE TABLE]</text>
<polygon fill="none" stroke="black" points="1197.1,-320.4 1197.1,-351.2 1470.25,-351.2 1470.25,-320.4 1197.1,-320.4"/>
<text text-anchor="start" x="1204.1" y="-332.6" font-family="Arial" font-size="14.00">id </text>
<text text-anchor="start" x="1218.89" y="-332.6" font-family="Arial" font-size="14.00" fill="#666666">[uuid]</text>
<polygon fill="none" stroke="black" points="1197.1,-289.6 1197.1,-320.4 1470.25,-320.4 1470.25,-289.6 1197.1,-289.6"/>
<text text-anchor="start" x="1204.1" y="-301.8" font-family="Arial" font-size="14.00">org_id </text>
<text text-anchor="start" x="1246.91" y="-301.8" font-family="Arial" font-size="14.00" fill="#666666">[uuid]</text>
<polygon fill="none" stroke="black" points="1197.1,-258.8 1197.1,-289.6 1470.25,-289.6 1470.25,-258.8 1197.1,-258.8"/>
<text text-anchor="start" x="1204.1" y="-271" font-family="Arial" font-size="14.00">name </text>
<text text-anchor="start" x="1243.01" y="-271" font-family="Arial" font-size="14.00" fill="#666666">[varchar(255)]</text>
<polygon fill="none" stroke="black" points="1197.1,-228 1197.1,-258.8 1470.25,-258.8 1470.25,-228 1197.1,-228"/>
<text text-anchor="start" x="1204.1" y="-240.2" font-family="Arial" font-size="14.00">description </text>
<text text-anchor="start" x="1275.7" y="-240.2" font-family="Arial" font-size="14.00" fill="#666666">[text]</text>
<polygon fill="none" stroke="black" points="1197.1,-197.2 1197.1,-228 1470.25,-228 1470.25,-197.2 1197.1,-197.2"/>
<text text-anchor="start" x="1204.1" y="-209.4" font-family="Arial" font-size="14.00">created_at </text>
<text text-anchor="start" x="1274.15" y="-209.4" font-family="Arial" font-size="14.00" fill="#666666">[timestamp without time zone]</text>
<polygon fill="none" stroke="black" points="1197.1,-166.4 1197.1,-197.2 1470.25,-197.2 1470.25,-166.4 1197.1,-166.4"/>
<text text-anchor="start" x="1204.1" y="-178.6" font-family="Arial" font-size="14.00">updated_at </text>
<text text-anchor="start" x="1278.06" y="-178.6" font-family="Arial" font-size="14.00" fill="#666666">[timestamp without time zone]</text>
</g>
<!-- public.invitations&#45;&gt;public.teams -->
<g id="edge4" class="edge">
<title>public.invitations:team_id&#45;&gt;public.teams:id</title>
<path fill="none" stroke="black" d="M724.64,-866.33C952.75,-862.98 1015.59,-747.27 1144.68,-553.2 1199.66,-470.53 1096.81,-335.8 1196.1,-335.8"/>
<polygon fill="black" stroke="black" points="724.69,-866.32 714.66,-861.9 719.35,-866.36 715.02,-866.4 715.02,-866.4 715.02,-866.4 719.35,-866.36 714.72,-870.9 724.69,-866.32"/>
<text text-anchor="start" x="721.35" y="-876.4" font-family="Arial" font-size="10.00">FOREIGN KEY (team_id) REFERENCES teams(id) ON DELETE SET NULL</text>
</g>
</g>
</svg>
