<?xml version="1.0" encoding="UTF-8" standalone="no"?>
<!DOCTYPE svg PUBLIC "-//W3C//DTD SVG 1.1//EN"
 "http://www.w3.org/Graphics/SVG/1.1/DTD/svg11.dtd">
<!-- Generated by graphviz version 12.1.2 (20240928.0832)
 -->
<!-- Title: public.organizations Pages: 1 -->
<svg width="2812pt" height="1033pt"
 viewBox="0.00 0.00 2812.02 1033.20" xmlns="http://www.w3.org/2000/svg" xmlns:xlink="http://www.w3.org/1999/xlink">
<g id="graph0" class="graph" transform="scale(1 1) rotate(0) translate(4 1029.2)">
<title>public.organizations</title>
<polygon fill="white" stroke="none" points="-4,4 -4,-1029.2 2808.02,-1029.2 2808.02,4 -4,4"/>
<!-- public.organizations -->
<g id="node1" class="node">
<title>public.organizations</title>
<polygon fill="#efefef" stroke="none" points="1250.02,-354.2 1250.02,-389.8 1534.97,-389.8 1534.97,-354.2 1250.02,-354.2"/>
<polygon fill="none" stroke="black" points="1250.02,-354.2 1250.02,-389.8 1534.97,-389.8 1534.97,-354.2 1250.02,-354.2"/>
<text text-anchor="start" x="1257.02" y="-367.6" font-family="Arial Bold" font-size="18.00">public.organizations</text>
<text text-anchor="start" x="1403.48" y="-367.6" font-family="Arial" font-size="14.00">    </text>
<text text-anchor="start" x="1434.6" y="-367.6" font-family="Arial" font-size="14.00" fill="#666666">[BASE TABLE]</text>
<polygon fill="none" stroke="black" points="1250.02,-323.4 1250.02,-354.2 1534.97,-354.2 1534.97,-323.4 1250.02,-323.4"/>
<text text-anchor="start" x="1257.02" y="-335.6" font-family="Arial" font-size="14.00">id </text>
<text text-anchor="start" x="1271.81" y="-335.6" font-family="Arial" font-size="14.00" fill="#666666">[uuid]</text>
<polygon fill="none" stroke="black" points="1250.02,-292.6 1250.02,-323.4 1534.97,-323.4 1534.97,-292.6 1250.02,-292.6"/>
<text text-anchor="start" x="1257.02" y="-304.8" font-family="Arial" font-size="14.00">name </text>
<text text-anchor="start" x="1295.93" y="-304.8" font-family="Arial" font-size="14.00" fill="#666666">[varchar(255)]</text>
<polygon fill="none" stroke="black" points="1250.02,-261.8 1250.02,-292.6 1534.97,-292.6 1534.97,-261.8 1250.02,-261.8"/>
<text text-anchor="start" x="1257.02" y="-274" font-family="Arial" font-size="14.00">slug </text>
<text text-anchor="start" x="1286.59" y="-274" font-family="Arial" font-size="14.00" fill="#666666">[varchar(100)]</text>
<polygon fill="none" stroke="black" points="1250.02,-231 1250.02,-261.8 1534.97,-261.8 1534.97,-231 1250.02,-231"/>
<text text-anchor="start" x="1257.02" y="-243.2" font-family="Arial" font-size="14.00">plan </text>
<text text-anchor="start" x="1287.38" y="-243.2" font-family="Arial" font-size="14.00" fill="#666666">[varchar(50)]</text>
<polygon fill="none" stroke="black" points="1250.02,-200.2 1250.02,-231 1534.97,-231 1534.97,-200.2 1250.02,-200.2"/>
<text text-anchor="start" x="1257.02" y="-212.4" font-family="Arial" font-size="14.00">settings </text>
<text text-anchor="start" x="1309.16" y="-212.4" font-family="Arial" font-size="14.00" fill="#666666">[jsonb]</text>
<polygon fill="none" stroke="black" points="1250.02,-169.4 1250.02,-200.2 1534.97,-200.2 1534.97,-169.4 1250.02,-169.4"/>
<text text-anchor="start" x="1257.02" y="-181.6" font-family="Arial" font-size="14.00">max_employees </text>
<text text-anchor="start" x="1362.85" y="-181.6" font-family="Arial" font-size="14.00" fill="#666666">[integer]</text>
<polygon fill="none" stroke="black" points="1250.02,-138.6 1250.02,-169.4 1534.97,-169.4 1534.97,-138.6 1250.02,-138.6"/>
<text text-anchor="start" x="1257.02" y="-150.8" font-family="Arial" font-size="14.00">max_agents_per_employee </text>
<text text-anchor="start" x="1433.69" y="-150.8" font-family="Arial" font-size="14.00" fill="#666666">[integer]</text>
<polygon fill="none" stroke="black" points="1250.02,-107.8 1250.02,-138.6 1534.97,-138.6 1534.97,-107.8 1250.02,-107.8"/>
<text text-anchor="start" x="1257.02" y="-120" font-family="Arial" font-size="14.00">claude_api_token </text>
<text text-anchor="start" x="1370.67" y="-120" font-family="Arial" font-size="14.00" fill="#666666">[text]</text>
<polygon fill="none" stroke="black" points="1250.02,-77 1250.02,-107.8 1534.97,-107.8 1534.97,-77 1250.02,-77"/>
<text text-anchor="start" x="1257.02" y="-89.2" font-family="Arial" font-size="14.00">created_at </text>
<text text-anchor="start" x="1327.07" y="-89.2" font-family="Arial" font-size="14.00" fill="#666666">[timestamp without time zone]</text>
<polygon fill="none" stroke="black" points="1250.02,-46.2 1250.02,-77 1534.97,-77 1534.97,-46.2 1250.02,-46.2"/>
<text text-anchor="start" x="1257.02" y="-58.4" font-family="Arial" font-size="14.00">updated_at </text>
<text text-anchor="start" x="1330.98" y="-58.4" font-family="Arial" font-size="14.00" fill="#666666">[timestamp without time zone]</text>
<polygon fill="none" stroke="black" stroke-width="3" points="1248.52,-44.7 1248.52,-391.3 1536.47,-391.3 1536.47,-44.7 1248.52,-44.7"/>
</g>
<!-- public.subscriptions -->
<g id="node2" class="node">
<title>public.subscriptions</title>
<polygon fill="#efefef" stroke="none" points="43.2,-884.8 43.2,-920.4 363.79,-920.4 363.79,-884.8 43.2,-884.8"/>
<polygon fill="none" stroke="black" points="43.2,-884.8 43.2,-920.4 363.79,-920.4 363.79,-884.8 43.2,-884.8"/>
<text text-anchor="start" x="69.01" y="-898.2" font-family="Arial Bold" font-size="18.00">public.subscriptions</text>
<text text-anchor="start" x="213.5" y="-898.2" font-family="Arial" font-size="14.00">    </text>
<text text-anchor="start" x="244.61" y="-898.2" font-family="Arial" font-size="14.00" fill="#666666">[BASE TABLE]</text>
<polygon fill="none" stroke="black" points="43.2,-854 43.2,-884.8 363.79,-884.8 363.79,-854 43.2,-854"/>
<text text-anchor="start" x="50.2" y="-866.2" font-family="Arial" font-size="14.00">id </text>
<text text-anchor="start" x="64.99" y="-866.2" font-family="Arial" font-size="14.00" fill="#666666">[uuid]</text>
<polygon fill="none" stroke="black" points="43.2,-823.2 43.2,-854 363.79,-854 363.79,-823.2 43.2,-823.2"/>
<text text-anchor="start" x="50.2" y="-835.4" font-family="Arial" font-size="14.00">org_id </text>
<text text-anchor="start" x="93.01" y="-835.4" font-family="Arial" font-size="14.00" fill="#666666">[uuid]</text>
<polygon fill="none" stroke="black" points="43.2,-792.4 43.2,-823.2 363.79,-823.2 363.79,-792.4 43.2,-792.4"/>
<text text-anchor="start" x="50.2" y="-804.6" font-family="Arial" font-size="14.00">plan_type </text>
<text text-anchor="start" x="114.81" y="-804.6" font-family="Arial" font-size="14.00" fill="#666666">[varchar(50)]</text>
<polygon fill="none" stroke="black" points="43.2,-761.6 43.2,-792.4 363.79,-792.4 363.79,-761.6 43.2,-761.6"/>
<text text-anchor="start" x="50.2" y="-773.8" font-family="Arial" font-size="14.00">monthly_budget_usd </text>
<text text-anchor="start" x="184.08" y="-773.8" font-family="Arial" font-size="14.00" fill="#666666">[numeric(10,2)]</text>
<polygon fill="none" stroke="black" points="43.2,-730.8 43.2,-761.6 363.79,-761.6 363.79,-730.8 43.2,-730.8"/>
<text text-anchor="start" x="50.2" y="-743" font-family="Arial" font-size="14.00">current_spending_usd </text>
<text text-anchor="start" x="192.63" y="-743" font-family="Arial" font-size="14.00" fill="#666666">[numeric(10,2)]</text>
<polygon fill="none" stroke="black" points="43.2,-700 43.2,-730.8 363.79,-730.8 363.79,-700 43.2,-700"/>
<text text-anchor="start" x="50.2" y="-712.2" font-family="Arial" font-size="14.00">billing_period_start </text>
<text text-anchor="start" x="171.61" y="-712.2" font-family="Arial" font-size="14.00" fill="#666666">[timestamp without time zone]</text>
<polygon fill="none" stroke="black" points="43.2,-669.2 43.2,-700 363.79,-700 363.79,-669.2 43.2,-669.2"/>
<text text-anchor="start" x="50.2" y="-681.4" font-family="Arial" font-size="14.00">billing_period_end </text>
<text text-anchor="start" x="167.74" y="-681.4" font-family="Arial" font-size="14.00" fill="#666666">[timestamp without time zone]</text>
<polygon fill="none" stroke="black" points="43.2,-638.4 43.2,-669.2 363.79,-669.2 363.79,-638.4 43.2,-638.4"/>
<text text-anchor="start" x="50.2" y="-650.6" font-family="Arial" font-size="14.00">status </text>
<text text-anchor="start" x="91.44" y="-650.6" font-family="Arial" font-size="14.00" fill="#666666">[varchar(50)]</text>
<polygon fill="none" stroke="black" points="43.2,-607.6 43.2,-638.4 363.79,-638.4 363.79,-607.6 43.2,-607.6"/>
<text text-anchor="start" x="50.2" y="-619.8" font-family="Arial" font-size="14.00">created_at </text>
<text text-anchor="start" x="120.25" y="-619.8" font-family="Arial" font-size="14.00" fill="#666666">[timestamp without time zone]</text>
<polygon fill="none" stroke="black" points="43.2,-576.8 43.2,-607.6 363.79,-607.6 363.79,-576.8 43.2,-576.8"/>
<text text-anchor="start" x="50.2" y="-589" font-family="Arial" font-size="14.00">updated_at </text>
<text text-anchor="start" x="124.16" y="-589" font-family="Arial" font-size="14.00" fill="#666666">[timestamp without time zone]</text>
</g>
<!-- public.subscriptions&#45;&gt;public.organizations -->
<g id="edge1" class="edge">
<title>public.subscriptions:org_id&#45;&gt;public.organizations:id</title>
<path fill="none" stroke="black" d="M374.87,-836.79C439.33,-811.45 360.54,-528.12 415.5,-472 481.11,-404.99 1155.23,-338.8 1249.02,-338.8"/>
<polygon fill="black" stroke="black" points="374.96,-836.77 364.32,-834.11 369.71,-837.71 365.45,-838.48 365.45,-838.48 365.45,-838.48 369.71,-837.71 365.92,-842.97 374.96,-836.77"/>
<text text-anchor="start" x="182.8" y="-822.6" font-family="Arial" font-size="10.00">FOREIGN KEY (org_id) REFERENCES organizations(id) ON DELETE CASCADE</text>
</g>
<!-- public.teams -->
<g id="node3" class="node">
<title>public.teams</title>
<polygon fill="#efefef" stroke="none" points="467.92,-823.2 467.92,-858.8 741.07,-858.8 741.07,-823.2 467.92,-823.2"/>
<polygon fill="none" stroke="black" points="467.92,-823.2 467.92,-858.8 741.07,-858.8 741.07,-823.2 467.92,-823.2"/>
<text text-anchor="start" x="496.51" y="-836.6" font-family="Arial Bold" font-size="18.00">public.teams</text>
<text text-anchor="start" x="587.99" y="-836.6" font-family="Arial" font-size="14.00">    </text>
<text text-anchor="start" x="619.11" y="-836.6" font-family="Arial" font-size="14.00" fill="#666666">[BASE TABLE]</text>
<polygon fill="none" stroke="black" points="467.92,-792.4 467.92,-823.2 741.07,-823.2 741.07,-792.4 467.92,-792.4"/>
<text text-anchor="start" x="474.92" y="-804.6" font-family="Arial" font-size="14.00">id </text>
<text text-anchor="start" x="489.71" y="-804.6" font-family="Arial" font-size="14.00" fill="#666666">[uuid]</text>
<polygon fill="none" stroke="black" points="467.92,-761.6 467.92,-792.4 741.07,-792.4 741.07,-761.6 467.92,-761.6"/>
<text text-anchor="start" x="474.92" y="-773.8" font-family="Arial" font-size="14.00">org_id </text>
<text text-anchor="start" x="517.73" y="-773.8" font-family="Arial" font-size="14.00" fill="#666666">[uuid]</text>
<polygon fill="none" stroke="black" points="467.92,-730.8 467.92,-761.6 741.07,-761.6 741.07,-730.8 467.92,-730.8"/>
<text text-anchor="start" x="474.92" y="-743" font-family="Arial" font-size="14.00">name </text>
<text text-anchor="start" x="513.83" y="-743" font-family="Arial" font-size="14.00" fill="#666666">[varchar(255)]</text>
<polygon fill="none" stroke="black" points="467.92,-700 467.92,-730.8 741.07,-730.8 741.07,-700 467.92,-700"/>
<text text-anchor="start" x="474.92" y="-712.2" font-family="Arial" font-size="14.00">description </text>
<text text-anchor="start" x="546.52" y="-712.2" font-family="Arial" font-size="14.00" fill="#666666">[text]</text>
<polygon fill="none" stroke="black" points="467.92,-669.2 467.92,-700 741.07,-700 741.07,-669.2 467.92,-669.2"/>
<text text-anchor="start" x="474.92" y="-681.4" font-family="Arial" font-size="14.00">created_at </text>
<text text-anchor="start" x="544.97" y="-681.4" font-family="Arial" font-size="14.00" fill="#666666">[timestamp without time zone]</text>
<polygon fill="none" stroke="black" points="467.92,-638.4 467.92,-669.2 741.07,-669.2 741.07,-638.4 467.92,-638.4"/>
<text text-anchor="start" x="474.92" y="-650.6" font-family="Arial" font-size="14.00">updated_at </text>
<text text-anchor="start" x="548.88" y="-650.6" font-family="Arial" font-size="14.00" fill="#666666">[timestamp without time zone]</text>
</g>
<!-- public.teams&#45;&gt;public.organizations -->
<g id="edge2" class="edge">
<title>public.teams:org_id&#45;&gt;public.organizations:id</title>
<path fill="none" stroke="black" d="M752.2,-774.8C804.24,-749.86 750.33,-520.56 793.5,-472 863.57,-393.18 1143.55,-338.8 1249.02,-338.8"/>
<polygon fill="black" stroke="black" points="752.17,-774.81 741.44,-772.53 746.95,-775.94 742.72,-776.86 742.72,-776.86 742.72,-776.86 746.95,-775.94 743.35,-781.33 752.17,-774.81"/>
<text text-anchor="start" x="749.07" y="-787" font-family="Arial" font-size="10.00">FOREIGN KEY (org_id) REFERENCES organizations(id) ON DELETE CASCADE</text>
</g>
<!-- public.employees -->
<g id="node4" class="node">
<title>public.employees</title>
<polygon fill="#efefef" stroke="none" points="845.65,-946.4 845.65,-982 1127.34,-982 1127.34,-946.4 845.65,-946.4"/>
<polygon fill="none" stroke="black" points="845.65,-946.4 845.65,-982 1127.34,-982 1127.34,-946.4 845.65,-946.4"/>
<text text-anchor="start" x="861.02" y="-959.8" font-family="Arial Bold" font-size="18.00">public.employees</text>
<text text-anchor="start" x="987.48" y="-959.8" font-family="Arial" font-size="14.00">    </text>
<text text-anchor="start" x="1018.6" y="-959.8" font-family="Arial" font-size="14.00" fill="#666666">[BASE TABLE]</text>
<polygon fill="none" stroke="black" points="845.65,-915.6 845.65,-946.4 1127.34,-946.4 1127.34,-915.6 845.65,-915.6"/>
<text text-anchor="start" x="852.65" y="-927.8" font-family="Arial" font-size="14.00">id </text>
<text text-anchor="start" x="867.44" y="-927.8" font-family="Arial" font-size="14.00" fill="#666666">[uuid]</text>
<polygon fill="none" stroke="black" points="845.65,-884.8 845.65,-915.6 1127.34,-915.6 1127.34,-884.8 845.65,-884.8"/>
<text text-anchor="start" x="852.65" y="-897" font-family="Arial" font-size="14.00">org_id </text>
<text text-anchor="start" x="895.46" y="-897" font-family="Arial" font-size="14.00" fill="#666666">[uuid]</text>
<polygon fill="none" stroke="black" points="845.65,-854 845.65,-884.8 1127.34,-884.8 1127.34,-854 845.65,-854"/>
<text text-anchor="start" x="852.65" y="-866.2" font-family="Arial" font-size="14.00">team_id </text>
<text text-anchor="start" x="906.35" y="-866.2" font-family="Arial" font-size="14.00" fill="#666666">[uuid]</text>
<polygon fill="none" stroke="black" points="845.65,-823.2 845.65,-854 1127.34,-854 1127.34,-823.2 845.65,-823.2"/>
<text text-anchor="start" x="852.65" y="-835.4" font-family="Arial" font-size="14.00">role_id </text>
<text text-anchor="start" x="898.57" y="-835.4" font-family="Arial" font-size="14.00" fill="#666666">[uuid]</text>
<polygon fill="none" stroke="black" points="845.65,-792.4 845.65,-823.2 1127.34,-823.2 1127.34,-792.4 845.65,-792.4"/>
<text text-anchor="start" x="852.65" y="-804.6" font-family="Arial" font-size="14.00">email </text>
<text text-anchor="start" x="890" y="-804.6" font-family="Arial" font-size="14.00" fill="#666666">[varchar(255)]</text>
<polygon fill="none" stroke="black" points="845.65,-761.6 845.65,-792.4 1127.34,-792.4 1127.34,-761.6 845.65,-761.6"/>
<text text-anchor="start" x="852.65" y="-773.8" font-family="Arial" font-size="14.00">full_name </text>
<text text-anchor="start" x="917.24" y="-773.8" font-family="Arial" font-size="14.00" fill="#666666">[varchar(255)]</text>
<polygon fill="none" stroke="black" points="845.65,-730.8 845.65,-761.6 1127.34,-761.6 1127.34,-730.8 845.65,-730.8"/>
<text text-anchor="start" x="852.65" y="-743" font-family="Arial" font-size="14.00">password_hash </text>
<text text-anchor="start" x="954.6" y="-743" font-family="Arial" font-size="14.00" fill="#666666">[varchar(255)]</text>
<polygon fill="none" stroke="black" points="845.65,-700 845.65,-730.8 1127.34,-730.8 1127.34,-700 845.65,-700"/>
<text text-anchor="start" x="852.65" y="-712.2" font-family="Arial" font-size="14.00">status </text>
<text text-anchor="start" x="893.89" y="-712.2" font-family="Arial" font-size="14.00" fill="#666666">[varchar(50)]</text>
<polygon fill="none" stroke="black" points="845.65,-669.2 845.65,-700 1127.34,-700 1127.34,-669.2 845.65,-669.2"/>
<text text-anchor="start" x="852.65" y="-681.4" font-family="Arial" font-size="14.00">preferences </text>
<text text-anchor="start" x="930.47" y="-681.4" font-family="Arial" font-size="14.00" fill="#666666">[jsonb]</text>
<polygon fill="none" stroke="black" points="845.65,-638.4 845.65,-669.2 1127.34,-669.2 1127.34,-638.4 845.65,-638.4"/>
<text text-anchor="start" x="852.65" y="-650.6" font-family="Arial" font-size="14.00">personal_claude_token </text>
<text text-anchor="start" x="1001.32" y="-650.6" font-family="Arial" font-size="14.00" fill="#666666">[text]</text>
<polygon fill="none" stroke="black" points="845.65,-607.6 845.65,-638.4 1127.34,-638.4 1127.34,-607.6 845.65,-607.6"/>
<text text-anchor="start" x="852.65" y="-619.8" font-family="Arial" font-size="14.00">last_login_at </text>
<text text-anchor="start" x="935.15" y="-619.8" font-family="Arial" font-size="14.00" fill="#666666">[timestamp without time zone]</text>
<polygon fill="none" stroke="black" points="845.65,-576.8 845.65,-607.6 1127.34,-607.6 1127.34,-576.8 845.65,-576.8"/>
<text text-anchor="start" x="852.65" y="-589" font-family="Arial" font-size="14.00">created_at </text>
<text text-anchor="start" x="922.7" y="-589" font-family="Arial" font-size="14.00" fill="#666666">[timestamp without time zone]</text>
<polygon fill="none" stroke="black" points="845.65,-546 845.65,-576.8 1127.34,-576.8 1127.34,-546 845.65,-546"/>
<text text-anchor="start" x="852.65" y="-558.2" font-family="Arial" font-size="14.00">updated_at </text>
<text text-anchor="start" x="926.61" y="-558.2" font-family="Arial" font-size="14.00" fill="#666666">[timestamp without time zone]</text>
<polygon fill="none" stroke="black" points="845.65,-515.2 845.65,-546 1127.34,-546 1127.34,-515.2 845.65,-515.2"/>
<text text-anchor="start" x="852.65" y="-527.4" font-family="Arial" font-size="14.00">deleted_at </text>
<text text-anchor="start" x="921.93" y="-527.4" font-family="Arial" font-size="14.00" fill="#666666">[timestamp without time zone]</text>
</g>
<!-- public.employees&#45;&gt;public.organizations -->
<g id="edge3" class="edge">
<title>public.employees:org_id&#45;&gt;public.organizations:id</title>
<path fill="none" stroke="black" d="M1137.37,-895.07C1174.88,-849.49 1166.3,-514.65 1179.5,-472 1199.23,-408.2 1182.24,-338.8 1249.02,-338.8"/>
<polygon fill="black" stroke="black" points="1137.32,-895.09 1126.41,-896.12 1132.69,-897.73 1128.92,-899.87 1128.92,-899.87 1128.92,-899.87 1132.69,-897.73 1130.85,-903.95 1137.32,-895.09"/>
<text text-anchor="start" x="1135.34" y="-910.2" font-family="Arial" font-size="10.00">FOREIGN KEY (org_id) REFERENCES organizations(id) ON DELETE CASCADE</text>
</g>
<!-- public.org_agent_configs -->
<g id="node5" class="node">
<title>public.org_agent_configs</title>
<polygon fill="#efefef" stroke="none" points="1231.52,-838.6 1231.52,-874.2 1553.47,-874.2 1553.47,-838.6 1231.52,-838.6"/>
<polygon fill="none" stroke="black" points="1231.52,-838.6 1231.52,-874.2 1553.47,-874.2 1553.47,-838.6 1231.52,-838.6"/>
<text text-anchor="start" x="1238.52" y="-852" font-family="Arial Bold" font-size="18.00">public.org_agent_configs</text>
<text text-anchor="start" x="1421.98" y="-852" font-family="Arial" font-size="14.00">    </text>
<text text-anchor="start" x="1453.1" y="-852" font-family="Arial" font-size="14.00" fill="#666666">[BASE TABLE]</text>
<polygon fill="none" stroke="black" points="1231.52,-807.8 1231.52,-838.6 1553.47,-838.6 1553.47,-807.8 1231.52,-807.8"/>
<text text-anchor="start" x="1238.52" y="-820" font-family="Arial" font-size="14.00">id </text>
<text text-anchor="start" x="1253.31" y="-820" font-family="Arial" font-size="14.00" fill="#666666">[uuid]</text>
<polygon fill="none" stroke="black" points="1231.52,-777 1231.52,-807.8 1553.47,-807.8 1553.47,-777 1231.52,-777"/>
<text text-anchor="start" x="1238.52" y="-789.2" font-family="Arial" font-size="14.00">org_id </text>
<text text-anchor="start" x="1281.33" y="-789.2" font-family="Arial" font-size="14.00" fill="#666666">[uuid]</text>
<polygon fill="none" stroke="black" points="1231.52,-746.2 1231.52,-777 1553.47,-777 1553.47,-746.2 1231.52,-746.2"/>
<text text-anchor="start" x="1238.52" y="-758.4" font-family="Arial" font-size="14.00">agent_id </text>
<text text-anchor="start" x="1296.13" y="-758.4" font-family="Arial" font-size="14.00" fill="#666666">[uuid]</text>
<polygon fill="none" stroke="black" points="1231.52,-715.4 1231.52,-746.2 1553.47,-746.2 1553.47,-715.4 1231.52,-715.4"/>
<text text-anchor="start" x="1238.52" y="-727.6" font-family="Arial" font-size="14.00">config </text>
<text text-anchor="start" x="1279.77" y="-727.6" font-family="Arial" font-size="14.00" fill="#666666">[jsonb]</text>
<polygon fill="none" stroke="black" points="1231.52,-684.6 1231.52,-715.4 1553.47,-715.4 1553.47,-684.6 1231.52,-684.6"/>
<text text-anchor="start" x="1238.52" y="-696.8" font-family="Arial" font-size="14.00">is_enabled </text>
<text text-anchor="start" x="1310.14" y="-696.8" font-family="Arial" font-size="14.00" fill="#666666">[boolean]</text>
<polygon fill="none" stroke="black" points="1231.52,-653.8 1231.52,-684.6 1553.47,-684.6 1553.47,-653.8 1231.52,-653.8"/>
<text text-anchor="start" x="1238.52" y="-666" font-family="Arial" font-size="14.00">created_at </text>
<text text-anchor="start" x="1308.57" y="-666" font-family="Arial" font-size="14.00" fill="#666666">[timestamp without time zone]</text>
<polygon fill="none" stroke="black" points="1231.52,-623 1231.52,-653.8 1553.47,-653.8 1553.47,-623 1231.52,-623"/>
<text text-anchor="start" x="1238.52" y="-635.2" font-family="Arial" font-size="14.00">updated_at </text>
<text text-anchor="start" x="1312.48" y="-635.2" font-family="Arial" font-size="14.00" fill="#666666">[timestamp without time zone]</text>
</g>
<!-- public.org_agent_configs&#45;&gt;public.organizations -->
<g id="edge4" class="edge">
<title>public.org_agent_configs:org_id&#45;&gt;public.organizations:id</title>
<path fill="none" stroke="black" d="M1563.37,-786.99C1602.39,-735.81 1583.16,-338.8 1535.97,-338.8"/>
<polygon fill="black" stroke="black" points="1563.3,-787.03 1552.42,-788.38 1558.74,-789.8 1555.04,-792.05 1555.04,-792.05 1555.04,-792.05 1558.74,-789.8 1557.09,-796.07 1563.3,-787.03"/>
<text text-anchor="start" x="1561.47" y="-802.4" font-family="Arial" font-size="10.00">FOREIGN KEY (org_id) REFERENCES organizations(id) ON DELETE CASCADE</text>
</g>
<!-- public.invitations -->
<g id="node6" class="node">
<title>public.invitations</title>
<polygon fill="#efefef" stroke="none" points="1657.82,-931 1657.82,-966.6 1937.17,-966.6 1937.17,-931 1657.82,-931"/>
<polygon fill="none" stroke="black" points="1657.82,-931 1657.82,-966.6 1937.17,-966.6 1937.17,-931 1657.82,-931"/>
<text text-anchor="start" x="1672.51" y="-944.4" font-family="Arial Bold" font-size="18.00">public.invitations</text>
<text text-anchor="start" x="1798" y="-944.4" font-family="Arial" font-size="14.00">    </text>
<text text-anchor="start" x="1829.11" y="-944.4" font-family="Arial" font-size="14.00" fill="#666666">[BASE TABLE]</text>
<polygon fill="none" stroke="black" points="1657.82,-900.2 1657.82,-931 1937.17,-931 1937.17,-900.2 1657.82,-900.2"/>
<text text-anchor="start" x="1664.82" y="-912.4" font-family="Arial" font-size="14.00">id </text>
<text text-anchor="start" x="1679.6" y="-912.4" font-family="Arial" font-size="14.00" fill="#666666">[uuid]</text>
<polygon fill="none" stroke="black" points="1657.82,-869.4 1657.82,-900.2 1937.17,-900.2 1937.17,-869.4 1657.82,-869.4"/>
<text text-anchor="start" x="1664.82" y="-881.6" font-family="Arial" font-size="14.00">org_id </text>
<text text-anchor="start" x="1707.62" y="-881.6" font-family="Arial" font-size="14.00" fill="#666666">[uuid]</text>
<polygon fill="none" stroke="black" points="1657.82,-838.6 1657.82,-869.4 1937.17,-869.4 1937.17,-838.6 1657.82,-838.6"/>
<text text-anchor="start" x="1664.82" y="-850.8" font-family="Arial" font-size="14.00">inviter_id </text>
<text text-anchor="start" x="1724.73" y="-850.8" font-family="Arial" font-size="14.00" fill="#666666">[uuid]</text>
<polygon fill="none" stroke="black" points="1657.82,-807.8 1657.82,-838.6 1937.17,-838.6 1937.17,-807.8 1657.82,-807.8"/>
<text text-anchor="start" x="1664.82" y="-820" font-family="Arial" font-size="14.00">email </text>
<text text-anchor="start" x="1702.16" y="-820" font-family="Arial" font-size="14.00" fill="#666666">[varchar(255)]</text>
<polygon fill="none" stroke="black" points="1657.82,-777 1657.82,-807.8 1937.17,-807.8 1937.17,-777 1657.82,-777"/>
<text text-anchor="start" x="1664.82" y="-789.2" font-family="Arial" font-size="14.00">role_id </text>
<text text-anchor="start" x="1710.73" y="-789.2" font-family="Arial" font-size="14.00" fill="#666666">[uuid]</text>
<polygon fill="none" stroke="black" points="1657.82,-746.2 1657.82,-777 1937.17,-777 1937.17,-746.2 1657.82,-746.2"/>
<text text-anchor="start" x="1664.82" y="-758.4" font-family="Arial" font-size="14.00">team_id </text>
<text text-anchor="start" x="1718.51" y="-758.4" font-family="Arial" font-size="14.00" fill="#666666">[uuid]</text>
<polygon fill="none" stroke="black" points="1657.82,-715.4 1657.82,-746.2 1937.17,-746.2 1937.17,-715.4 1657.82,-715.4"/>
<text text-anchor="start" x="1664.82" y="-727.6" font-family="Arial" font-size="14.00">token </text>
<text text-anchor="start" x="1702.95" y="-727.6" font-family="Arial" font-size="14.00" fill="#666666">[varchar(64)]</text>
<polygon fill="none" stroke="black" points="1657.82,-684.6 1657.82,-715.4 1937.17,-715.4 1937.17,-684.6 1657.82,-684.6"/>
<text text-anchor="start" x="1664.82" y="-696.8" font-family="Arial" font-size="14.00">status </text>
<text text-anchor="start" x="1706.06" y="-696.8" font-family="Arial" font-size="14.00" fill="#666666">[varchar(50)]</text>
<polygon fill="none" stroke="black" points="1657.82,-653.8 1657.82,-684.6 1937.17,-684.6 1937.17,-653.8 1657.82,-653.8"/>
<text text-anchor="start" x="1664.82" y="-666" font-family="Arial" font-size="14.00">expires_at </text>
<text text-anchor="start" x="1733.3" y="-666" font-family="Arial" font-size="14.00" fill="#666666">[timestamp without time zone]</text>
<polygon fill="none" stroke="black" points="1657.82,-623 1657.82,-653.8 1937.17,-653.8 1937.17,-623 1657.82,-623"/>
<text text-anchor="start" x="1664.82" y="-635.2" font-family="Arial" font-size="14.00">accepted_by </text>
<text text-anchor="start" x="1748.1" y="-635.2" font-family="Arial" font-size="14.00" fill="#666666">[uuid]</text>
<polygon fill="none" stroke="black" points="1657.82,-592.2 1657.82,-623 1937.17,-623 1937.17,-592.2 1657.82,-592.2"/>
<text text-anchor="start" x="1664.82" y="-604.4" font-family="Arial" font-size="14.00">accepted_at </text>
<text text-anchor="start" x="1744.99" y="-604.4" font-family="Arial" font-size="14.00" fill="#666666">[timestamp without time zone]</text>
<polygon fill="none" stroke="black" points="1657.82,-561.4 1657.82,-592.2 1937.17,-592.2 1937.17,-561.4 1657.82,-561.4"/>
<text text-anchor="start" x="1664.82" y="-573.6" font-family="Arial" font-size="14.00">created_at </text>
<text text-anchor="start" x="1734.87" y="-573.6" font-family="Arial" font-size="14.00" fill="#666666">[timestamp without time zone]</text>
<polygon fill="none" stroke="black" points="1657.82,-530.6 1657.82,-561.4 1937.17,-561.4 1937.17,-530.6 1657.82,-530.6"/>
<text text-anchor="start" x="1664.82" y="-542.8" font-family="Arial" font-size="14.00">updated_at </text>
<text text-anchor="start" x="1738.78" y="-542.8" font-family="Arial" font-size="14.00" fill="#666666">[timestamp without time zone]</text>
</g>
<!-- public.invitations&#45;&gt;public.organizations -->
<g id="edge5" class="edge">
<title>public.invitations:org_id&#45;&gt;public.organizations:id</title>
<path fill="none" stroke="black" d="M1646.71,-883.35C1569.59,-859.8 1631.95,-556.8 1605.5,-472 1585.61,-408.25 1602.75,-338.8 1535.97,-338.8"/>
<polygon fill="black" stroke="black" points="1646.59,-883.33 1655.85,-889.21 1651.87,-884.09 1656.16,-884.7 1656.16,-884.7 1656.16,-884.7 1651.87,-884.09 1657.13,-880.3 1646.59,-883.33"/>
<text text-anchor="start" x="1380.33" y="-868.8" font-family="Arial" font-size="10.00">FOREIGN KEY (org_id) REFERENCES organizations(id) ON DELETE CASCADE</text>
</g>
<!-- public.activity_logs -->
<g id="node7" class="node">
<title>public.activity_logs</title>
<polygon fill="#efefef" stroke="none" points="2042.01,-884.8 2042.01,-920.4 2322.98,-920.4 2322.98,-884.8 2042.01,-884.8"/>
<polygon fill="none" stroke="black" points="2042.01,-884.8 2042.01,-920.4 2322.98,-920.4 2322.98,-884.8 2042.01,-884.8"/>
<text text-anchor="start" x="2049.01" y="-898.2" font-family="Arial Bold" font-size="18.00">public.activity_logs</text>
<text text-anchor="start" x="2191.49" y="-898.2" font-family="Arial" font-size="14.00">    </text>
<text text-anchor="start" x="2222.61" y="-898.2" font-family="Arial" font-size="14.00" fill="#666666">[BASE TABLE]</text>
<polygon fill="none" stroke="black" points="2042.01,-854 2042.01,-884.8 2322.98,-884.8 2322.98,-854 2042.01,-854"/>
<text text-anchor="start" x="2049.01" y="-866.2" font-family="Arial" font-size="14.00">id </text>
<text text-anchor="start" x="2063.8" y="-866.2" font-family="Arial" font-size="14.00" fill="#666666">[uuid]</text>
<polygon fill="none" stroke="black" points="2042.01,-823.2 2042.01,-854 2322.98,-854 2322.98,-823.2 2042.01,-823.2"/>
<text text-anchor="start" x="2049.01" y="-835.4" font-family="Arial" font-size="14.00">org_id </text>
<text text-anchor="start" x="2091.82" y="-835.4" font-family="Arial" font-size="14.00" fill="#666666">[uuid]</text>
<polygon fill="none" stroke="black" points="2042.01,-792.4 2042.01,-823.2 2322.98,-823.2 2322.98,-792.4 2042.01,-792.4"/>
<text text-anchor="start" x="2049.01" y="-804.6" font-family="Arial" font-size="14.00">employee_id </text>
<text text-anchor="start" x="2132.29" y="-804.6" font-family="Arial" font-size="14.00" fill="#666666">[uuid]</text>
<polygon fill="none" stroke="black" points="2042.01,-761.6 2042.01,-792.4 2322.98,-792.4 2322.98,-761.6 2042.01,-761.6"/>
<text text-anchor="start" x="2049.01" y="-773.8" font-family="Arial" font-size="14.00">session_id </text>
<text text-anchor="start" x="2119.05" y="-773.8" font-family="Arial" font-size="14.00" fill="#666666">[uuid]</text>
<polygon fill="none" stroke="black" points="2042.01,-730.8 2042.01,-761.6 2322.98,-761.6 2322.98,-730.8 2042.01,-730.8"/>
<text text-anchor="start" x="2049.01" y="-743" font-family="Arial" font-size="14.00">agent_id </text>
<text text-anchor="start" x="2106.62" y="-743" font-family="Arial" font-size="14.00" fill="#666666">[uuid]</text>
<polygon fill="none" stroke="black" points="2042.01,-700 2042.01,-730.8 2322.98,-730.8 2322.98,-700 2042.01,-700"/>
<text text-anchor="start" x="2049.01" y="-712.2" font-family="Arial" font-size="14.00">event_type </text>
<text text-anchor="start" x="2121.4" y="-712.2" font-family="Arial" font-size="14.00" fill="#666666">[varchar(100)]</text>
<polygon fill="none" stroke="black" points="2042.01,-669.2 2042.01,-700 2322.98,-700 2322.98,-669.2 2042.01,-669.2"/>
<text text-anchor="start" x="2049.01" y="-681.4" font-family="Arial" font-size="14.00">event_category </text>
<text text-anchor="start" x="2148.63" y="-681.4" font-family="Arial" font-size="14.00" fill="#666666">[varchar(50)]</text>
<polygon fill="none" stroke="black" points="2042.01,-638.4 2042.01,-669.2 2322.98,-669.2 2322.98,-638.4 2042.01,-638.4"/>
<text text-anchor="start" x="2049.01" y="-650.6" font-family="Arial" font-size="14.00">content </text>
<text text-anchor="start" x="2098.82" y="-650.6" font-family="Arial" font-size="14.00" fill="#666666">[text]</text>
<polygon fill="none" stroke="black" points="2042.01,-607.6 2042.01,-638.4 2322.98,-638.4 2322.98,-607.6 2042.01,-607.6"/>
<text text-anchor="start" x="2049.01" y="-619.8" font-family="Arial" font-size="14.00">payload </text>
<text text-anchor="start" x="2101.94" y="-619.8" font-family="Arial" font-size="14.00" fill="#666666">[jsonb]</text>
<polygon fill="none" stroke="black" points="2042.01,-576.8 2042.01,-607.6 2322.98,-607.6 2322.98,-576.8 2042.01,-576.8"/>
<text text-anchor="start" x="2049.01" y="-589" font-family="Arial" font-size="14.00">created_at </text>
<text text-anchor="start" x="2119.06" y="-589" font-family="Arial" font-size="14.00" fill="#666666">[timestamp without time zone]</text>
</g>
<!-- public.activity_logs&#45;&gt;public.organizations -->
<g id="edge6" class="edge">
<title>public.activity_logs:org_id&#45;&gt;public.organizations:id</title>
<path fill="none" stroke="black" d="M2030.91,-836.81C1966.06,-811.75 2040.85,-531.46 1989.5,-472 1920.84,-392.5 1641.01,-338.8 1535.97,-338.8"/>
<polygon fill="black" stroke="black" points="2030.84,-836.79 2039.9,-842.97 2036.09,-837.73 2040.35,-838.48 2040.35,-838.48 2040.35,-838.48 2036.09,-837.73 2041.47,-834.11 2030.84,-836.79"/>
<text text-anchor="start" x="2048.01" y="-848.6" font-family="Arial" font-size="10.00">FOREIGN KEY (org_id) REFERENCES organizations(id) ON DELETE CASCADE</text>
</g>
<!-- public.usage_records -->
<g id="node8" class="node">
<title>public.usage_records</title>
<polygon fill="#efefef" stroke="none" points="2427.03,-915.6 2427.03,-951.2 2717.96,-951.2 2717.96,-915.6 2427.03,-915.6"/>
<polygon fill="none" stroke="black" points="2427.03,-915.6 2427.03,-951.2 2717.96,-951.2 2717.96,-915.6 2427.03,-915.6"/>
<text text-anchor="start" x="2434.03" y="-929" font-family="Arial Bold" font-size="18.00">public.usage_records</text>
<text text-anchor="start" x="2586.47" y="-929" font-family="Arial" font-size="14.00">    </text>
<text text-anchor="start" x="2617.59" y="-929" font-family="Arial" font-size="14.00" fill="#666666">[BASE TABLE]</text>
<polygon fill="none" stroke="black" points="2427.03,-884.8 2427.03,-915.6 2717.96,-915.6 2717.96,-884.8 2427.03,-884.8"/>
<text text-anchor="start" x="2434.03" y="-897" font-family="Arial" font-size="14.00">id </text>
<text text-anchor="start" x="2448.81" y="-897" font-family="Arial" font-size="14.00" fill="#666666">[uuid]</text>
<polygon fill="none" stroke="black" points="2427.03,-854 2427.03,-884.8 2717.96,-884.8 2717.96,-854 2427.03,-854"/>
<text text-anchor="start" x="2434.03" y="-866.2" font-family="Arial" font-size="14.00">org_id </text>
<text text-anchor="start" x="2476.83" y="-866.2" font-family="Arial" font-size="14.00" fill="#666666">[uuid]</text>
<polygon fill="none" stroke="black" points="2427.03,-823.2 2427.03,-854 2717.96,-854 2717.96,-823.2 2427.03,-823.2"/>
<text text-anchor="start" x="2434.03" y="-835.4" font-family="Arial" font-size="14.00">employee_id </text>
<text text-anchor="start" x="2517.3" y="-835.4" font-family="Arial" font-size="14.00" fill="#666666">[uuid]</text>
<polygon fill="none" stroke="black" points="2427.03,-792.4 2427.03,-823.2 2717.96,-823.2 2717.96,-792.4 2427.03,-792.4"/>
<text text-anchor="start" x="2434.03" y="-804.6" font-family="Arial" font-size="14.00">agent_config_id </text>
<text text-anchor="start" x="2536.78" y="-804.6" font-family="Arial" font-size="14.00" fill="#666666">[uuid]</text>
<polygon fill="none" stroke="black" points="2427.03,-761.6 2427.03,-792.4 2717.96,-792.4 2717.96,-761.6 2427.03,-761.6"/>
<text text-anchor="start" x="2434.03" y="-773.8" font-family="Arial" font-size="14.00">resource_type </text>
<text text-anchor="start" x="2526.63" y="-773.8" font-family="Arial" font-size="14.00" fill="#666666">[varchar(50)]</text>
<polygon fill="none" stroke="black" points="2427.03,-730.8 2427.03,-761.6 2717.96,-761.6 2717.96,-730.8 2427.03,-730.8"/>
<text text-anchor="start" x="2434.03" y="-743" font-family="Arial" font-size="14.00">quantity </text>
<text text-anchor="start" x="2486.95" y="-743" font-family="Arial" font-size="14.00" fill="#666666">[bigint]</text>
<polygon fill="none" stroke="black" points="2427.03,-700 2427.03,-730.8 2717.96,-730.8 2717.96,-700 2427.03,-700"/>
<text text-anchor="start" x="2434.03" y="-712.2" font-family="Arial" font-size="14.00">cost_usd </text>
<text text-anchor="start" x="2493.95" y="-712.2" font-family="Arial" font-size="14.00" fill="#666666">[numeric(10,4)]</text>
<polygon fill="none" stroke="black" points="2427.03,-669.2 2427.03,-700 2717.96,-700 2717.96,-669.2 2427.03,-669.2"/>
<text text-anchor="start" x="2434.03" y="-681.4" font-family="Arial" font-size="14.00">period_start </text>
<text text-anchor="start" x="2511.85" y="-681.4" font-family="Arial" font-size="14.00" fill="#666666">[timestamp without time zone]</text>
<polygon fill="none" stroke="black" points="2427.03,-638.4 2427.03,-669.2 2717.96,-669.2 2717.96,-638.4 2427.03,-638.4"/>
<text text-anchor="start" x="2434.03" y="-650.6" font-family="Arial" font-size="14.00">period_end </text>
<text text-anchor="start" x="2507.98" y="-650.6" font-family="Arial" font-size="14.00" fill="#666666">[timestamp without time zone]</text>
<polygon fill="none" stroke="black" points="2427.03,-607.6 2427.03,-638.4 2717.96,-638.4 2717.96,-607.6 2427.03,-607.6"/>
<text text-anchor="start" x="2434.03" y="-619.8" font-family="Arial" font-size="14.00">metadata </text>
<text text-anchor="start" x="2496.29" y="-619.8" font-family="Arial" font-size="14.00" fill="#666666">[jsonb]</text>
<polygon fill="none" stroke="black" points="2427.03,-576.8 2427.03,-607.6 2717.96,-607.6 2717.96,-576.8 2427.03,-576.8"/>
<text text-anchor="start" x="2434.03" y="-589" font-family="Arial" font-size="14.00">token_source </text>
<text text-anchor="start" x="2521.97" y="-589" font-family="Arial" font-size="14.00" fill="#666666">[varchar(20)]</text>
<polygon fill="none" stroke="black" points="2427.03,-546 2427.03,-576.8 2717.96,-576.8 2717.96,-546 2427.03,-546"/>
<text text-anchor="start" x="2434.03" y="-558.2" font-family="Arial" font-size="14.00">created_at </text>
<text text-anchor="start" x="2504.08" y="-558.2" font-family="Arial" font-size="14.00" fill="#666666">[timestamp without time zone]</text>
</g>
<!-- public.usage_records&#45;&gt;public.organizations -->
<g id="edge7" class="edge">
<title>public.usage_records:org_id&#45;&gt;public.organizations:id</title>
<path fill="none" stroke="black" d="M2416.01,-867.76C2344.97,-842.5 2434.92,-533.29 2375.5,-472 2309.75,-404.19 1630.42,-338.8 1535.97,-338.8"/>
<polygon fill="black" stroke="black" points="2415.83,-867.73 2424.97,-873.79 2421.09,-868.59 2425.37,-869.29 2425.37,-869.29 2425.37,-869.29 2421.09,-868.59 2426.43,-864.91 2415.83,-867.73"/>
<text text-anchor="start" x="2433.03" y="-879.4" font-family="Arial" font-size="10.00">FOREIGN KEY (org_id) REFERENCES organizations(id) ON DELETE CASCADE</text>
</g>
</g>
</svg>
