<?xml version="1.0" encoding="UTF-8" standalone="no"?>
<!DOCTYPE svg PUBLIC "-//W3C//DTD SVG 1.1//EN"
 "http://www.w3.org/Graphics/SVG/1.1/DTD/svg11.dtd">
<!-- Generated by graphviz version 12.1.2 (20240928.0832)
 -->
<!-- Title: public.employee_mcp_configs Pages: 1 -->
<svg width="1183pt" height="1095pt"
 viewBox="0.00 0.00 1183.15 1094.80" xmlns="http://www.w3.org/2000/svg" xmlns:xlink="http://www.w3.org/1999/xlink">
<g id="graph0" class="graph" transform="scale(1 1) rotate(0) translate(4 1090.8)">
<title>public.employee_mcp_configs</title>
<polygon fill="white" stroke="none" points="-4,4 -4,-1090.8 1179.15,-1090.8 1179.15,4 -4,4"/>
<!-- public.employee_mcp_configs -->
<g id="node1" class="node">
<title>public.employee_mcp_configs</title>
<polygon fill="#efefef" stroke="none" points="396.77,-1005 396.77,-1040.6 756.7,-1040.6 756.7,-1005 396.77,-1005"/>
<polygon fill="none" stroke="black" points="396.77,-1005 396.77,-1040.6 756.7,-1040.6 756.7,-1005 396.77,-1005"/>
<text text-anchor="start" x="403.77" y="-1018.4" font-family="Arial Bold" font-size="18.00">public.employee_mcp_configs</text>
<text text-anchor="start" x="625.21" y="-1018.4" font-family="Arial" font-size="14.00">    </text>
<text text-anchor="start" x="656.33" y="-1018.4" font-family="Arial" font-size="14.00" fill="#666666">[BASE TABLE]</text>
<polygon fill="none" stroke="black" points="396.77,-974.2 396.77,-1005 756.7,-1005 756.7,-974.2 396.77,-974.2"/>
<text text-anchor="start" x="403.77" y="-986.4" font-family="Arial" font-size="14.00">id </text>
<text text-anchor="start" x="418.56" y="-986.4" font-family="Arial" font-size="14.00" fill="#666666">[uuid]</text>
<polygon fill="none" stroke="black" points="396.77,-943.4 396.77,-974.2 756.7,-974.2 756.7,-943.4 396.77,-943.4"/>
<text text-anchor="start" x="403.77" y="-955.6" font-family="Arial" font-size="14.00">employee_id </text>
<text text-anchor="start" x="487.05" y="-955.6" font-family="Arial" font-size="14.00" fill="#666666">[uuid]</text>
<polygon fill="none" stroke="black" points="396.77,-912.6 396.77,-943.4 756.7,-943.4 756.7,-912.6 396.77,-912.6"/>
<text text-anchor="start" x="403.77" y="-924.8" font-family="Arial" font-size="14.00">mcp_catalog_id </text>
<text text-anchor="start" x="505.72" y="-924.8" font-family="Arial" font-size="14.00" fill="#666666">[uuid]</text>
<polygon fill="none" stroke="black" points="396.77,-881.8 396.77,-912.6 756.7,-912.6 756.7,-881.8 396.77,-881.8"/>
<text text-anchor="start" x="403.77" y="-894" font-family="Arial" font-size="14.00">status </text>
<text text-anchor="start" x="445.01" y="-894" font-family="Arial" font-size="14.00" fill="#666666">[varchar(50)]</text>
<polygon fill="none" stroke="black" points="396.77,-851 396.77,-881.8 756.7,-881.8 756.7,-851 396.77,-851"/>
<text text-anchor="start" x="403.77" y="-863.2" font-family="Arial" font-size="14.00">connection_config </text>
<text text-anchor="start" x="520.52" y="-863.2" font-family="Arial" font-size="14.00" fill="#666666">[jsonb]</text>
<polygon fill="none" stroke="black" points="396.77,-820.2 396.77,-851 756.7,-851 756.7,-820.2 396.77,-820.2"/>
<text text-anchor="start" x="403.77" y="-832.4" font-family="Arial" font-size="14.00">credentials_encrypted </text>
<text text-anchor="start" x="544.63" y="-832.4" font-family="Arial" font-size="14.00" fill="#666666">[text]</text>
<polygon fill="none" stroke="black" points="396.77,-789.4 396.77,-820.2 756.7,-820.2 756.7,-789.4 396.77,-789.4"/>
<text text-anchor="start" x="403.77" y="-801.6" font-family="Arial" font-size="14.00">sync_token </text>
<text text-anchor="start" x="478.48" y="-801.6" font-family="Arial" font-size="14.00" fill="#666666">[varchar(255)]</text>
<polygon fill="none" stroke="black" points="396.77,-758.6 396.77,-789.4 756.7,-789.4 756.7,-758.6 396.77,-758.6"/>
<text text-anchor="start" x="403.77" y="-770.8" font-family="Arial" font-size="14.00">last_sync_at </text>
<text text-anchor="start" x="485.48" y="-770.8" font-family="Arial" font-size="14.00" fill="#666666">[timestamp without time zone]</text>
<polygon fill="none" stroke="black" points="396.77,-727.8 396.77,-758.6 756.7,-758.6 756.7,-727.8 396.77,-727.8"/>
<text text-anchor="start" x="403.77" y="-740" font-family="Arial" font-size="14.00">created_at </text>
<text text-anchor="start" x="473.82" y="-740" font-family="Arial" font-size="14.00" fill="#666666">[timestamp without time zone]</text>
<polygon fill="none" stroke="black" points="396.77,-697 396.77,-727.8 756.7,-727.8 756.7,-697 396.77,-697"/>
<text text-anchor="start" x="403.77" y="-709.2" font-family="Arial" font-size="14.00">updated_at </text>
<text text-anchor="start" x="477.73" y="-709.2" font-family="Arial" font-size="14.00" fill="#666666">[timestamp without time zone]</text>
<polygon fill="none" stroke="black" points="396.77,-666.2 396.77,-697 756.7,-697 756.7,-666.2 396.77,-666.2"/>
<text text-anchor="start" x="403.77" y="-678.4" font-family="Arial" font-size="14.00">is_enabled </text>
<text text-anchor="start" x="475.39" y="-678.4" font-family="Arial" font-size="14.00" fill="#666666">[boolean]</text>
<polygon fill="none" stroke="black" stroke-width="3" points="395.27,-664.7 395.27,-1042.1 758.2,-1042.1 758.2,-664.7 395.27,-664.7"/>
</g>
<!-- public.employees -->
<g id="node2" class="node">
<title>public.employees</title>
<polygon fill="#efefef" stroke="none" points="243.89,-489.8 243.89,-525.4 525.58,-525.4 525.58,-489.8 243.89,-489.8"/>
<polygon fill="none" stroke="black" points="243.89,-489.8 243.89,-525.4 525.58,-525.4 525.58,-489.8 243.89,-489.8"/>
<text text-anchor="start" x="259.26" y="-503.2" font-family="Arial Bold" font-size="18.00">public.employees</text>
<text text-anchor="start" x="385.73" y="-503.2" font-family="Arial" font-size="14.00">    </text>
<text text-anchor="start" x="416.84" y="-503.2" font-family="Arial" font-size="14.00" fill="#666666">[BASE TABLE]</text>
<polygon fill="none" stroke="black" points="243.89,-459 243.89,-489.8 525.58,-489.8 525.58,-459 243.89,-459"/>
<text text-anchor="start" x="250.89" y="-471.2" font-family="Arial" font-size="14.00">id </text>
<text text-anchor="start" x="265.68" y="-471.2" font-family="Arial" font-size="14.00" fill="#666666">[uuid]</text>
<polygon fill="none" stroke="black" points="243.89,-428.2 243.89,-459 525.58,-459 525.58,-428.2 243.89,-428.2"/>
<text text-anchor="start" x="250.89" y="-440.4" font-family="Arial" font-size="14.00">org_id </text>
<text text-anchor="start" x="293.7" y="-440.4" font-family="Arial" font-size="14.00" fill="#666666">[uuid]</text>
<polygon fill="none" stroke="black" points="243.89,-397.4 243.89,-428.2 525.58,-428.2 525.58,-397.4 243.89,-397.4"/>
<text text-anchor="start" x="250.89" y="-409.6" font-family="Arial" font-size="14.00">team_id </text>
<text text-anchor="start" x="304.59" y="-409.6" font-family="Arial" font-size="14.00" fill="#666666">[uuid]</text>
<polygon fill="none" stroke="black" points="243.89,-366.6 243.89,-397.4 525.58,-397.4 525.58,-366.6 243.89,-366.6"/>
<text text-anchor="start" x="250.89" y="-378.8" font-family="Arial" font-size="14.00">role_id </text>
<text text-anchor="start" x="296.81" y="-378.8" font-family="Arial" font-size="14.00" fill="#666666">[uuid]</text>
<polygon fill="none" stroke="black" points="243.89,-335.8 243.89,-366.6 525.58,-366.6 525.58,-335.8 243.89,-335.8"/>
<text text-anchor="start" x="250.89" y="-348" font-family="Arial" font-size="14.00">email </text>
<text text-anchor="start" x="288.24" y="-348" font-family="Arial" font-size="14.00" fill="#666666">[varchar(255)]</text>
<polygon fill="none" stroke="black" points="243.89,-305 243.89,-335.8 525.58,-335.8 525.58,-305 243.89,-305"/>
<text text-anchor="start" x="250.89" y="-317.2" font-family="Arial" font-size="14.00">full_name </text>
<text text-anchor="start" x="315.49" y="-317.2" font-family="Arial" font-size="14.00" fill="#666666">[varchar(255)]</text>
<polygon fill="none" stroke="black" points="243.89,-274.2 243.89,-305 525.58,-305 525.58,-274.2 243.89,-274.2"/>
<text text-anchor="start" x="250.89" y="-286.4" font-family="Arial" font-size="14.00">password_hash </text>
<text text-anchor="start" x="352.84" y="-286.4" font-family="Arial" font-size="14.00" fill="#666666">[varchar(255)]</text>
<polygon fill="none" stroke="black" points="243.89,-243.4 243.89,-274.2 525.58,-274.2 525.58,-243.4 243.89,-243.4"/>
<text text-anchor="start" x="250.89" y="-255.6" font-family="Arial" font-size="14.00">status </text>
<text text-anchor="start" x="292.13" y="-255.6" font-family="Arial" font-size="14.00" fill="#666666">[varchar(50)]</text>
<polygon fill="none" stroke="black" points="243.89,-212.6 243.89,-243.4 525.58,-243.4 525.58,-212.6 243.89,-212.6"/>
<text text-anchor="start" x="250.89" y="-224.8" font-family="Arial" font-size="14.00">preferences </text>
<text text-anchor="start" x="328.71" y="-224.8" font-family="Arial" font-size="14.00" fill="#666666">[jsonb]</text>
<polygon fill="none" stroke="black" points="243.89,-181.8 243.89,-212.6 525.58,-212.6 525.58,-181.8 243.89,-181.8"/>
<text text-anchor="start" x="250.89" y="-194" font-family="Arial" font-size="14.00">personal_claude_token </text>
<text text-anchor="start" x="399.56" y="-194" font-family="Arial" font-size="14.00" fill="#666666">[text]</text>
<polygon fill="none" stroke="black" points="243.89,-151 243.89,-181.8 525.58,-181.8 525.58,-151 243.89,-151"/>
<text text-anchor="start" x="250.89" y="-163.2" font-family="Arial" font-size="14.00">last_login_at </text>
<text text-anchor="start" x="333.4" y="-163.2" font-family="Arial" font-size="14.00" fill="#666666">[timestamp without time zone]</text>
<polygon fill="none" stroke="black" points="243.89,-120.2 243.89,-151 525.58,-151 525.58,-120.2 243.89,-120.2"/>
<text text-anchor="start" x="250.89" y="-132.4" font-family="Arial" font-size="14.00">created_at </text>
<text text-anchor="start" x="320.94" y="-132.4" font-family="Arial" font-size="14.00" fill="#666666">[timestamp without time zone]</text>
<polygon fill="none" stroke="black" points="243.89,-89.4 243.89,-120.2 525.58,-120.2 525.58,-89.4 243.89,-89.4"/>
<text text-anchor="start" x="250.89" y="-101.6" font-family="Arial" font-size="14.00">updated_at </text>
<text text-anchor="start" x="324.85" y="-101.6" font-family="Arial" font-size="14.00" fill="#666666">[timestamp without time zone]</text>
<polygon fill="none" stroke="black" points="243.89,-58.6 243.89,-89.4 525.58,-89.4 525.58,-58.6 243.89,-58.6"/>
<text text-anchor="start" x="250.89" y="-70.8" font-family="Arial" font-size="14.00">deleted_at </text>
<text text-anchor="start" x="320.18" y="-70.8" font-family="Arial" font-size="14.00" fill="#666666">[timestamp without time zone]</text>
</g>
<!-- public.employee_mcp_configs&#45;&gt;public.employees -->
<g id="edge1" class="edge">
<title>public.employee_mcp_configs:employee_id&#45;&gt;public.employees:id</title>
<path fill="none" stroke="black" d="M385.54,-958.45C248.34,-948.81 314.1,-741.61 396.77,-620 431.42,-569.02 490.73,-619.44 525.58,-568.6 549.25,-534.06 568.45,-474.4 526.58,-474.4"/>
<polygon fill="black" stroke="black" points="385.44,-958.45 395.28,-963.29 390.78,-958.63 395.1,-958.78 395.1,-958.78 395.1,-958.78 390.78,-958.63 395.59,-954.29 385.44,-958.45"/>
<text text-anchor="start" x="7" y="-968.8" font-family="Arial" font-size="10.00">FOREIGN KEY (employee_id) REFERENCES employees(id) ON DELETE CASCADE</text>
</g>
<!-- public.mcp_catalog -->
<g id="node3" class="node">
<title>public.mcp_catalog</title>
<polygon fill="#efefef" stroke="none" points="629.77,-505.2 629.77,-540.8 909.71,-540.8 909.71,-505.2 629.77,-505.2"/>
<polygon fill="none" stroke="black" points="629.77,-505.2 629.77,-540.8 909.71,-540.8 909.71,-505.2 629.77,-505.2"/>
<text text-anchor="start" x="636.77" y="-518.6" font-family="Arial Bold" font-size="18.00">public.mcp_catalog</text>
<text text-anchor="start" x="778.22" y="-518.6" font-family="Arial" font-size="14.00">    </text>
<text text-anchor="start" x="809.34" y="-518.6" font-family="Arial" font-size="14.00" fill="#666666">[BASE TABLE]</text>
<polygon fill="none" stroke="black" points="629.77,-474.4 629.77,-505.2 909.71,-505.2 909.71,-474.4 629.77,-474.4"/>
<text text-anchor="start" x="636.77" y="-486.6" font-family="Arial" font-size="14.00">id </text>
<text text-anchor="start" x="651.55" y="-486.6" font-family="Arial" font-size="14.00" fill="#666666">[uuid]</text>
<polygon fill="none" stroke="black" points="629.77,-443.6 629.77,-474.4 909.71,-474.4 909.71,-443.6 629.77,-443.6"/>
<text text-anchor="start" x="636.77" y="-455.8" font-family="Arial" font-size="14.00">name </text>
<text text-anchor="start" x="675.68" y="-455.8" font-family="Arial" font-size="14.00" fill="#666666">[varchar(255)]</text>
<polygon fill="none" stroke="black" points="629.77,-412.8 629.77,-443.6 909.71,-443.6 909.71,-412.8 629.77,-412.8"/>
<text text-anchor="start" x="636.77" y="-425" font-family="Arial" font-size="14.00">provider </text>
<text text-anchor="start" x="691.24" y="-425" font-family="Arial" font-size="14.00" fill="#666666">[varchar(255)]</text>
<polygon fill="none" stroke="black" points="629.77,-382 629.77,-412.8 909.71,-412.8 909.71,-382 629.77,-382"/>
<text text-anchor="start" x="636.77" y="-394.2" font-family="Arial" font-size="14.00">version </text>
<text text-anchor="start" x="685.79" y="-394.2" font-family="Arial" font-size="14.00" fill="#666666">[varchar(50)]</text>
<polygon fill="none" stroke="black" points="629.77,-351.2 629.77,-382 909.71,-382 909.71,-351.2 629.77,-351.2"/>
<text text-anchor="start" x="636.77" y="-363.4" font-family="Arial" font-size="14.00">description </text>
<text text-anchor="start" x="708.36" y="-363.4" font-family="Arial" font-size="14.00" fill="#666666">[text]</text>
<polygon fill="none" stroke="black" points="629.77,-320.4 629.77,-351.2 909.71,-351.2 909.71,-320.4 629.77,-320.4"/>
<text text-anchor="start" x="636.77" y="-332.6" font-family="Arial" font-size="14.00">connection_schema </text>
<text text-anchor="start" x="765.18" y="-332.6" font-family="Arial" font-size="14.00" fill="#666666">[jsonb]</text>
<polygon fill="none" stroke="black" points="629.77,-289.6 629.77,-320.4 909.71,-320.4 909.71,-289.6 629.77,-289.6"/>
<text text-anchor="start" x="636.77" y="-301.8" font-family="Arial" font-size="14.00">capabilities </text>
<text text-anchor="start" x="709.92" y="-301.8" font-family="Arial" font-size="14.00" fill="#666666">[jsonb]</text>
<polygon fill="none" stroke="black" points="629.77,-258.8 629.77,-289.6 909.71,-289.6 909.71,-258.8 629.77,-258.8"/>
<text text-anchor="start" x="636.77" y="-271" font-family="Arial" font-size="14.00">requires_credentials </text>
<text text-anchor="start" x="766.73" y="-271" font-family="Arial" font-size="14.00" fill="#666666">[boolean]</text>
<polygon fill="none" stroke="black" points="629.77,-228 629.77,-258.8 909.71,-258.8 909.71,-228 629.77,-228"/>
<text text-anchor="start" x="636.77" y="-240.2" font-family="Arial" font-size="14.00">is_approved </text>
<text text-anchor="start" x="716.93" y="-240.2" font-family="Arial" font-size="14.00" fill="#666666">[boolean]</text>
<polygon fill="none" stroke="black" points="629.77,-197.2 629.77,-228 909.71,-228 909.71,-197.2 629.77,-197.2"/>
<text text-anchor="start" x="636.77" y="-209.4" font-family="Arial" font-size="14.00">category_id </text>
<text text-anchor="start" x="713.04" y="-209.4" font-family="Arial" font-size="14.00" fill="#666666">[uuid]</text>
<polygon fill="none" stroke="black" points="629.77,-166.4 629.77,-197.2 909.71,-197.2 909.71,-166.4 629.77,-166.4"/>
<text text-anchor="start" x="636.77" y="-178.6" font-family="Arial" font-size="14.00">created_at </text>
<text text-anchor="start" x="706.81" y="-178.6" font-family="Arial" font-size="14.00" fill="#666666">[timestamp without time zone]</text>
<polygon fill="none" stroke="black" points="629.77,-135.6 629.77,-166.4 909.71,-166.4 909.71,-135.6 629.77,-135.6"/>
<text text-anchor="start" x="636.77" y="-147.8" font-family="Arial" font-size="14.00">updated_at </text>
<text text-anchor="start" x="710.73" y="-147.8" font-family="Arial" font-size="14.00" fill="#666666">[timestamp without time zone]</text>
<polygon fill="none" stroke="black" points="629.77,-104.8 629.77,-135.6 909.71,-135.6 909.71,-104.8 629.77,-104.8"/>
<text text-anchor="start" x="636.77" y="-117" font-family="Arial" font-size="14.00">docker_image </text>
<text text-anchor="start" x="728.59" y="-117" font-family="Arial" font-size="14.00" fill="#666666">[varchar(255)]</text>
<polygon fill="none" stroke="black" points="629.77,-74 629.77,-104.8 909.71,-104.8 909.71,-74 629.77,-74"/>
<text text-anchor="start" x="636.77" y="-86.2" font-family="Arial" font-size="14.00">config_template </text>
<text text-anchor="start" x="739.5" y="-86.2" font-family="Arial" font-size="14.00" fill="#666666">[jsonb]</text>
<polygon fill="none" stroke="black" points="629.77,-43.2 629.77,-74 909.71,-74 909.71,-43.2 629.77,-43.2"/>
<text text-anchor="start" x="636.77" y="-55.4" font-family="Arial" font-size="14.00">required_env_vars </text>
<text text-anchor="start" x="756.61" y="-55.4" font-family="Arial" font-size="14.00" fill="#666666">[jsonb]</text>
</g>
<!-- public.employee_mcp_configs&#45;&gt;public.mcp_catalog -->
<g id="edge2" class="edge">
<title>public.employee_mcp_configs:mcp_catalog_id&#45;&gt;public.mcp_catalog:id</title>
<path fill="none" stroke="black" d="M768.13,-927.59C891.66,-917.57 837.24,-726.2 756.7,-620 721.27,-573.28 665.37,-630.59 629.77,-584 604.34,-550.73 586.9,-489.8 628.77,-489.8"/>
<polygon fill="black" stroke="black" points="768.03,-927.59 757.86,-923.49 762.7,-927.8 758.37,-927.97 758.37,-927.97 758.37,-927.97 762.7,-927.8 758.21,-932.48 768.03,-927.59"/>
<text text-anchor="start" x="764.7" y="-938" font-family="Arial" font-size="10.00">FOREIGN KEY (mcp_catalog_id) REFERENCES mcp_catalog(id) ON DELETE CASCADE</text>
</g>
</g>
</svg>
