<?xml version="1.0" encoding="UTF-8" standalone="no"?>
<!DOCTYPE svg PUBLIC "-//W3C//DTD SVG 1.1//EN"
 "http://www.w3.org/Graphics/SVG/1.1/DTD/svg11.dtd">
<!-- Generated by graphviz version 12.1.2 (20240928.0832)
 -->
<!-- Title: public.organizations Pages: 1 -->
<svg width="2002pt" height="941pt"
 viewBox="0.00 0.00 2002.02 940.80" xmlns="http://www.w3.org/2000/svg" xmlns:xlink="http://www.w3.org/1999/xlink">
<g id="graph0" class="graph" transform="scale(1 1) rotate(0) translate(4 936.8)">
<title>public.organizations</title>
<polygon fill="white" stroke="none" points="-4,4 -4,-936.8 1998.02,-936.8 1998.02,4 -4,4"/>
<!-- public.organizations -->
<g id="node1" class="node">
<title>public.organizations</title>
<polygon fill="#efefef" stroke="none" points="844.02,-323.4 844.02,-359 1128.97,-359 1128.97,-323.4 844.02,-323.4"/>
<polygon fill="none" stroke="black" points="844.02,-323.4 844.02,-359 1128.97,-359 1128.97,-323.4 844.02,-323.4"/>
<text text-anchor="start" x="851.02" y="-336.8" font-family="Arial Bold" font-size="18.00">public.organizations</text>
<text text-anchor="start" x="997.48" y="-336.8" font-family="Arial" font-size="14.00">    </text>
<text text-anchor="start" x="1028.6" y="-336.8" font-family="Arial" font-size="14.00" fill="#666666">[BASE TABLE]</text>
<polygon fill="none" stroke="black" points="844.02,-292.6 844.02,-323.4 1128.97,-323.4 1128.97,-292.6 844.02,-292.6"/>
<text text-anchor="start" x="851.02" y="-304.8" font-family="Arial" font-size="14.00">id </text>
<text text-anchor="start" x="865.81" y="-304.8" font-family="Arial" font-size="14.00" fill="#666666">[uuid]</text>
<polygon fill="none" stroke="black" points="844.02,-261.8 844.02,-292.6 1128.97,-292.6 1128.97,-261.8 844.02,-261.8"/>
<text text-anchor="start" x="851.02" y="-274" font-family="Arial" font-size="14.00">name </text>
<text text-anchor="start" x="889.93" y="-274" font-family="Arial" font-size="14.00" fill="#666666">[varchar(255)]</text>
<polygon fill="none" stroke="black" points="844.02,-231 844.02,-261.8 1128.97,-261.8 1128.97,-231 844.02,-231"/>
<text text-anchor="start" x="851.02" y="-243.2" font-family="Arial" font-size="14.00">slug </text>
<text text-anchor="start" x="880.59" y="-243.2" font-family="Arial" font-size="14.00" fill="#666666">[varchar(100)]</text>
<polygon fill="none" stroke="black" points="844.02,-200.2 844.02,-231 1128.97,-231 1128.97,-200.2 844.02,-200.2"/>
<text text-anchor="start" x="851.02" y="-212.4" font-family="Arial" font-size="14.00">plan </text>
<text text-anchor="start" x="881.38" y="-212.4" font-family="Arial" font-size="14.00" fill="#666666">[varchar(50)]</text>
<polygon fill="none" stroke="black" points="844.02,-169.4 844.02,-200.2 1128.97,-200.2 1128.97,-169.4 844.02,-169.4"/>
<text text-anchor="start" x="851.02" y="-181.6" font-family="Arial" font-size="14.00">settings </text>
<text text-anchor="start" x="903.16" y="-181.6" font-family="Arial" font-size="14.00" fill="#666666">[jsonb]</text>
<polygon fill="none" stroke="black" points="844.02,-138.6 844.02,-169.4 1128.97,-169.4 1128.97,-138.6 844.02,-138.6"/>
<text text-anchor="start" x="851.02" y="-150.8" font-family="Arial" font-size="14.00">max_employees </text>
<text text-anchor="start" x="956.85" y="-150.8" font-family="Arial" font-size="14.00" fill="#666666">[integer]</text>
<polygon fill="none" stroke="black" points="844.02,-107.8 844.02,-138.6 1128.97,-138.6 1128.97,-107.8 844.02,-107.8"/>
<text text-anchor="start" x="851.02" y="-120" font-family="Arial" font-size="14.00">max_agents_per_employee </text>
<text text-anchor="start" x="1027.69" y="-120" font-family="Arial" font-size="14.00" fill="#666666">[integer]</text>
<polygon fill="none" stroke="black" points="844.02,-77 844.02,-107.8 1128.97,-107.8 1128.97,-77 844.02,-77"/>
<text text-anchor="start" x="851.02" y="-89.2" font-family="Arial" font-size="14.00">created_at </text>
<text text-anchor="start" x="921.07" y="-89.2" font-family="Arial" font-size="14.00" fill="#666666">[timestamp without time zone]</text>
<polygon fill="none" stroke="black" points="844.02,-46.2 844.02,-77 1128.97,-77 1128.97,-46.2 844.02,-46.2"/>
<text text-anchor="start" x="851.02" y="-58.4" font-family="Arial" font-size="14.00">updated_at </text>
<text text-anchor="start" x="924.98" y="-58.4" font-family="Arial" font-size="14.00" fill="#666666">[timestamp without time zone]</text>
<polygon fill="none" stroke="black" stroke-width="3" points="842.52,-44.7 842.52,-360.5 1130.47,-360.5 1130.47,-44.7 842.52,-44.7"/>
</g>
<!-- public.subscriptions -->
<g id="node2" class="node">
<title>public.subscriptions</title>
<polygon fill="#efefef" stroke="none" points="43.2,-823.2 43.2,-858.8 363.79,-858.8 363.79,-823.2 43.2,-823.2"/>
<polygon fill="none" stroke="black" points="43.2,-823.2 43.2,-858.8 363.79,-858.8 363.79,-823.2 43.2,-823.2"/>
<text text-anchor="start" x="69.01" y="-836.6" font-family="Arial Bold" font-size="18.00">public.subscriptions</text>
<text text-anchor="start" x="213.5" y="-836.6" font-family="Arial" font-size="14.00">    </text>
<text text-anchor="start" x="244.61" y="-836.6" font-family="Arial" font-size="14.00" fill="#666666">[BASE TABLE]</text>
<polygon fill="none" stroke="black" points="43.2,-792.4 43.2,-823.2 363.79,-823.2 363.79,-792.4 43.2,-792.4"/>
<text text-anchor="start" x="50.2" y="-804.6" font-family="Arial" font-size="14.00">id </text>
<text text-anchor="start" x="64.99" y="-804.6" font-family="Arial" font-size="14.00" fill="#666666">[uuid]</text>
<polygon fill="none" stroke="black" points="43.2,-761.6 43.2,-792.4 363.79,-792.4 363.79,-761.6 43.2,-761.6"/>
<text text-anchor="start" x="50.2" y="-773.8" font-family="Arial" font-size="14.00">org_id </text>
<text text-anchor="start" x="93.01" y="-773.8" font-family="Arial" font-size="14.00" fill="#666666">[uuid]</text>
<polygon fill="none" stroke="black" points="43.2,-730.8 43.2,-761.6 363.79,-761.6 363.79,-730.8 43.2,-730.8"/>
<text text-anchor="start" x="50.2" y="-743" font-family="Arial" font-size="14.00">plan_type </text>
<text text-anchor="start" x="114.81" y="-743" font-family="Arial" font-size="14.00" fill="#666666">[varchar(50)]</text>
<polygon fill="none" stroke="black" points="43.2,-700 43.2,-730.8 363.79,-730.8 363.79,-700 43.2,-700"/>
<text text-anchor="start" x="50.2" y="-712.2" font-family="Arial" font-size="14.00">monthly_budget_usd </text>
<text text-anchor="start" x="184.08" y="-712.2" font-family="Arial" font-size="14.00" fill="#666666">[numeric(10,2)]</text>
<polygon fill="none" stroke="black" points="43.2,-669.2 43.2,-700 363.79,-700 363.79,-669.2 43.2,-669.2"/>
<text text-anchor="start" x="50.2" y="-681.4" font-family="Arial" font-size="14.00">current_spending_usd </text>
<text text-anchor="start" x="192.63" y="-681.4" font-family="Arial" font-size="14.00" fill="#666666">[numeric(10,2)]</text>
<polygon fill="none" stroke="black" points="43.2,-638.4 43.2,-669.2 363.79,-669.2 363.79,-638.4 43.2,-638.4"/>
<text text-anchor="start" x="50.2" y="-650.6" font-family="Arial" font-size="14.00">billing_period_start </text>
<text text-anchor="start" x="171.61" y="-650.6" font-family="Arial" font-size="14.00" fill="#666666">[timestamp without time zone]</text>
<polygon fill="none" stroke="black" points="43.2,-607.6 43.2,-638.4 363.79,-638.4 363.79,-607.6 43.2,-607.6"/>
<text text-anchor="start" x="50.2" y="-619.8" font-family="Arial" font-size="14.00">billing_period_end </text>
<text text-anchor="start" x="167.74" y="-619.8" font-family="Arial" font-size="14.00" fill="#666666">[timestamp without time zone]</text>
<polygon fill="none" stroke="black" points="43.2,-576.8 43.2,-607.6 363.79,-607.6 363.79,-576.8 43.2,-576.8"/>
<text text-anchor="start" x="50.2" y="-589" font-family="Arial" font-size="14.00">status </text>
<text text-anchor="start" x="91.44" y="-589" font-family="Arial" font-size="14.00" fill="#666666">[varchar(50)]</text>
<polygon fill="none" stroke="black" points="43.2,-546 43.2,-576.8 363.79,-576.8 363.79,-546 43.2,-546"/>
<text text-anchor="start" x="50.2" y="-558.2" font-family="Arial" font-size="14.00">created_at </text>
<text text-anchor="start" x="120.25" y="-558.2" font-family="Arial" font-size="14.00" fill="#666666">[timestamp without time zone]</text>
<polygon fill="none" stroke="black" points="43.2,-515.2 43.2,-546 363.79,-546 363.79,-515.2 43.2,-515.2"/>
<text text-anchor="start" x="50.2" y="-527.4" font-family="Arial" font-size="14.00">updated_at </text>
<text text-anchor="start" x="124.16" y="-527.4" font-family="Arial" font-size="14.00" fill="#666666">[timestamp without time zone]</text>
</g>
<!-- public.subscriptions&#45;&gt;public.organizations -->
<g id="edge1" class="edge">
<title>public.subscriptions:org_id&#45;&gt;public.organizations:id</title>
<path fill="none" stroke="black" d="M374.81,-775.07C433.33,-750.33 368.74,-495.67 415.5,-441.2 480.31,-365.69 743.51,-308 843.02,-308"/>
<polygon fill="black" stroke="black" points="374.94,-775.04 364.27,-772.52 369.7,-776.05 365.45,-776.87 365.45,-776.87 365.45,-776.87 369.7,-776.05 365.97,-781.36 374.94,-775.04"/>
<text text-anchor="start" x="182.8" y="-761" font-family="Arial" font-size="10.00">FOREIGN KEY (org_id) REFERENCES organizations(id) ON DELETE CASCADE</text>
</g>
<!-- public.teams -->
<g id="node3" class="node">
<title>public.teams</title>
<polygon fill="#efefef" stroke="none" points="467.92,-761.6 467.92,-797.2 741.07,-797.2 741.07,-761.6 467.92,-761.6"/>
<polygon fill="none" stroke="black" points="467.92,-761.6 467.92,-797.2 741.07,-797.2 741.07,-761.6 467.92,-761.6"/>
<text text-anchor="start" x="496.51" y="-775" font-family="Arial Bold" font-size="18.00">public.teams</text>
<text text-anchor="start" x="587.99" y="-775" font-family="Arial" font-size="14.00">    </text>
<text text-anchor="start" x="619.11" y="-775" font-family="Arial" font-size="14.00" fill="#666666">[BASE TABLE]</text>
<polygon fill="none" stroke="black" points="467.92,-730.8 467.92,-761.6 741.07,-761.6 741.07,-730.8 467.92,-730.8"/>
<text text-anchor="start" x="474.92" y="-743" font-family="Arial" font-size="14.00">id </text>
<text text-anchor="start" x="489.71" y="-743" font-family="Arial" font-size="14.00" fill="#666666">[uuid]</text>
<polygon fill="none" stroke="black" points="467.92,-700 467.92,-730.8 741.07,-730.8 741.07,-700 467.92,-700"/>
<text text-anchor="start" x="474.92" y="-712.2" font-family="Arial" font-size="14.00">org_id </text>
<text text-anchor="start" x="517.73" y="-712.2" font-family="Arial" font-size="14.00" fill="#666666">[uuid]</text>
<polygon fill="none" stroke="black" points="467.92,-669.2 467.92,-700 741.07,-700 741.07,-669.2 467.92,-669.2"/>
<text text-anchor="start" x="474.92" y="-681.4" font-family="Arial" font-size="14.00">name </text>
<text text-anchor="start" x="513.83" y="-681.4" font-family="Arial" font-size="14.00" fill="#666666">[varchar(255)]</text>
<polygon fill="none" stroke="black" points="467.92,-638.4 467.92,-669.2 741.07,-669.2 741.07,-638.4 467.92,-638.4"/>
<text text-anchor="start" x="474.92" y="-650.6" font-family="Arial" font-size="14.00">description </text>
<text text-anchor="start" x="546.52" y="-650.6" font-family="Arial" font-size="14.00" fill="#666666">[text]</text>
<polygon fill="none" stroke="black" points="467.92,-607.6 467.92,-638.4 741.07,-638.4 741.07,-607.6 467.92,-607.6"/>
<text text-anchor="start" x="474.92" y="-619.8" font-family="Arial" font-size="14.00">created_at </text>
<text text-anchor="start" x="544.97" y="-619.8" font-family="Arial" font-size="14.00" fill="#666666">[timestamp without time zone]</text>
<polygon fill="none" stroke="black" points="467.92,-576.8 467.92,-607.6 741.07,-607.6 741.07,-576.8 467.92,-576.8"/>
<text text-anchor="start" x="474.92" y="-589" font-family="Arial" font-size="14.00">updated_at </text>
<text text-anchor="start" x="548.88" y="-589" font-family="Arial" font-size="14.00" fill="#666666">[timestamp without time zone]</text>
</g>
<!-- public.teams&#45;&gt;public.organizations -->
<g id="edge2" class="edge">
<title>public.teams:org_id&#45;&gt;public.organizations:id</title>
<path fill="none" stroke="black" d="M752.07,-713.27C801.03,-690.8 777.89,-497.44 793.5,-441.2 810.38,-380.34 779.86,-308 843.02,-308"/>
<polygon fill="black" stroke="black" points="752.17,-713.24 741.46,-710.93 746.96,-714.36 742.72,-715.26 742.72,-715.26 742.72,-715.26 746.96,-714.36 743.33,-719.73 752.17,-713.24"/>
<text text-anchor="start" x="749.07" y="-725.4" font-family="Arial" font-size="10.00">FOREIGN KEY (org_id) REFERENCES organizations(id) ON DELETE CASCADE</text>
</g>
<!-- public.employees -->
<g id="node4" class="node">
<title>public.employees</title>
<polygon fill="#efefef" stroke="none" points="845.65,-854 845.65,-889.6 1127.34,-889.6 1127.34,-854 845.65,-854"/>
<polygon fill="none" stroke="black" points="845.65,-854 845.65,-889.6 1127.34,-889.6 1127.34,-854 845.65,-854"/>
<text text-anchor="start" x="861.02" y="-867.4" font-family="Arial Bold" font-size="18.00">public.employees</text>
<text text-anchor="start" x="987.48" y="-867.4" font-family="Arial" font-size="14.00">    </text>
<text text-anchor="start" x="1018.6" y="-867.4" font-family="Arial" font-size="14.00" fill="#666666">[BASE TABLE]</text>
<polygon fill="none" stroke="black" points="845.65,-823.2 845.65,-854 1127.34,-854 1127.34,-823.2 845.65,-823.2"/>
<text text-anchor="start" x="852.65" y="-835.4" font-family="Arial" font-size="14.00">id </text>
<text text-anchor="start" x="867.44" y="-835.4" font-family="Arial" font-size="14.00" fill="#666666">[uuid]</text>
<polygon fill="none" stroke="black" points="845.65,-792.4 845.65,-823.2 1127.34,-823.2 1127.34,-792.4 845.65,-792.4"/>
<text text-anchor="start" x="852.65" y="-804.6" font-family="Arial" font-size="14.00">org_id </text>
<text text-anchor="start" x="895.46" y="-804.6" font-family="Arial" font-size="14.00" fill="#666666">[uuid]</text>
<polygon fill="none" stroke="black" points="845.65,-761.6 845.65,-792.4 1127.34,-792.4 1127.34,-761.6 845.65,-761.6"/>
<text text-anchor="start" x="852.65" y="-773.8" font-family="Arial" font-size="14.00">team_id </text>
<text text-anchor="start" x="906.35" y="-773.8" font-family="Arial" font-size="14.00" fill="#666666">[uuid]</text>
<polygon fill="none" stroke="black" points="845.65,-730.8 845.65,-761.6 1127.34,-761.6 1127.34,-730.8 845.65,-730.8"/>
<text text-anchor="start" x="852.65" y="-743" font-family="Arial" font-size="14.00">role_id </text>
<text text-anchor="start" x="898.57" y="-743" font-family="Arial" font-size="14.00" fill="#666666">[uuid]</text>
<polygon fill="none" stroke="black" points="845.65,-700 845.65,-730.8 1127.34,-730.8 1127.34,-700 845.65,-700"/>
<text text-anchor="start" x="852.65" y="-712.2" font-family="Arial" font-size="14.00">email </text>
<text text-anchor="start" x="890" y="-712.2" font-family="Arial" font-size="14.00" fill="#666666">[varchar(255)]</text>
<polygon fill="none" stroke="black" points="845.65,-669.2 845.65,-700 1127.34,-700 1127.34,-669.2 845.65,-669.2"/>
<text text-anchor="start" x="852.65" y="-681.4" font-family="Arial" font-size="14.00">full_name </text>
<text text-anchor="start" x="917.24" y="-681.4" font-family="Arial" font-size="14.00" fill="#666666">[varchar(255)]</text>
<polygon fill="none" stroke="black" points="845.65,-638.4 845.65,-669.2 1127.34,-669.2 1127.34,-638.4 845.65,-638.4"/>
<text text-anchor="start" x="852.65" y="-650.6" font-family="Arial" font-size="14.00">password_hash </text>
<text text-anchor="start" x="954.6" y="-650.6" font-family="Arial" font-size="14.00" fill="#666666">[varchar(255)]</text>
<polygon fill="none" stroke="black" points="845.65,-607.6 845.65,-638.4 1127.34,-638.4 1127.34,-607.6 845.65,-607.6"/>
<text text-anchor="start" x="852.65" y="-619.8" font-family="Arial" font-size="14.00">status </text>
<text text-anchor="start" x="893.89" y="-619.8" font-family="Arial" font-size="14.00" fill="#666666">[varchar(50)]</text>
<polygon fill="none" stroke="black" points="845.65,-576.8 845.65,-607.6 1127.34,-607.6 1127.34,-576.8 845.65,-576.8"/>
<text text-anchor="start" x="852.65" y="-589" font-family="Arial" font-size="14.00">preferences </text>
<text text-anchor="start" x="930.47" y="-589" font-family="Arial" font-size="14.00" fill="#666666">[jsonb]</text>
<polygon fill="none" stroke="black" points="845.65,-546 845.65,-576.8 1127.34,-576.8 1127.34,-546 845.65,-546"/>
<text text-anchor="start" x="852.65" y="-558.2" font-family="Arial" font-size="14.00">last_login_at </text>
<text text-anchor="start" x="935.15" y="-558.2" font-family="Arial" font-size="14.00" fill="#666666">[timestamp without time zone]</text>
<polygon fill="none" stroke="black" points="845.65,-515.2 845.65,-546 1127.34,-546 1127.34,-515.2 845.65,-515.2"/>
<text text-anchor="start" x="852.65" y="-527.4" font-family="Arial" font-size="14.00">created_at </text>
<text text-anchor="start" x="922.7" y="-527.4" font-family="Arial" font-size="14.00" fill="#666666">[timestamp without time zone]</text>
<polygon fill="none" stroke="black" points="845.65,-484.4 845.65,-515.2 1127.34,-515.2 1127.34,-484.4 845.65,-484.4"/>
<text text-anchor="start" x="852.65" y="-496.6" font-family="Arial" font-size="14.00">updated_at </text>
<text text-anchor="start" x="926.61" y="-496.6" font-family="Arial" font-size="14.00" fill="#666666">[timestamp without time zone]</text>
</g>
<!-- public.employees&#45;&gt;public.organizations -->
<g id="edge3" class="edge">
<title>public.employees:org_id&#45;&gt;public.organizations:id</title>
<path fill="none" stroke="black" d="M1137.26,-803.17C1183.88,-752.79 1182.36,-308 1129.97,-308"/>
<polygon fill="black" stroke="black" points="1137.51,-803.04 1126.56,-803.65 1132.78,-805.5 1128.93,-807.49 1128.93,-807.49 1128.93,-807.49 1132.78,-805.5 1130.71,-811.64 1137.51,-803.04"/>
<text text-anchor="start" x="757.35" y="-817.8" font-family="Arial" font-size="10.00">FOREIGN KEY (org_id) REFERENCES organizations(id) ON DELETE CASCADE</text>
</g>
<!-- public.activity_logs -->
<g id="node5" class="node">
<title>public.activity_logs</title>
<polygon fill="#efefef" stroke="none" points="1232.01,-777 1232.01,-812.6 1512.98,-812.6 1512.98,-777 1232.01,-777"/>
<polygon fill="none" stroke="black" points="1232.01,-777 1232.01,-812.6 1512.98,-812.6 1512.98,-777 1232.01,-777"/>
<text text-anchor="start" x="1239.01" y="-790.4" font-family="Arial Bold" font-size="18.00">public.activity_logs</text>
<text text-anchor="start" x="1381.49" y="-790.4" font-family="Arial" font-size="14.00">    </text>
<text text-anchor="start" x="1412.61" y="-790.4" font-family="Arial" font-size="14.00" fill="#666666">[BASE TABLE]</text>
<polygon fill="none" stroke="black" points="1232.01,-746.2 1232.01,-777 1512.98,-777 1512.98,-746.2 1232.01,-746.2"/>
<text text-anchor="start" x="1239.01" y="-758.4" font-family="Arial" font-size="14.00">id </text>
<text text-anchor="start" x="1253.8" y="-758.4" font-family="Arial" font-size="14.00" fill="#666666">[uuid]</text>
<polygon fill="none" stroke="black" points="1232.01,-715.4 1232.01,-746.2 1512.98,-746.2 1512.98,-715.4 1232.01,-715.4"/>
<text text-anchor="start" x="1239.01" y="-727.6" font-family="Arial" font-size="14.00">org_id </text>
<text text-anchor="start" x="1281.82" y="-727.6" font-family="Arial" font-size="14.00" fill="#666666">[uuid]</text>
<polygon fill="none" stroke="black" points="1232.01,-684.6 1232.01,-715.4 1512.98,-715.4 1512.98,-684.6 1232.01,-684.6"/>
<text text-anchor="start" x="1239.01" y="-696.8" font-family="Arial" font-size="14.00">employee_id </text>
<text text-anchor="start" x="1322.29" y="-696.8" font-family="Arial" font-size="14.00" fill="#666666">[uuid]</text>
<polygon fill="none" stroke="black" points="1232.01,-653.8 1232.01,-684.6 1512.98,-684.6 1512.98,-653.8 1232.01,-653.8"/>
<text text-anchor="start" x="1239.01" y="-666" font-family="Arial" font-size="14.00">event_type </text>
<text text-anchor="start" x="1311.4" y="-666" font-family="Arial" font-size="14.00" fill="#666666">[varchar(100)]</text>
<polygon fill="none" stroke="black" points="1232.01,-623 1232.01,-653.8 1512.98,-653.8 1512.98,-623 1232.01,-623"/>
<text text-anchor="start" x="1239.01" y="-635.2" font-family="Arial" font-size="14.00">event_category </text>
<text text-anchor="start" x="1338.63" y="-635.2" font-family="Arial" font-size="14.00" fill="#666666">[varchar(50)]</text>
<polygon fill="none" stroke="black" points="1232.01,-592.2 1232.01,-623 1512.98,-623 1512.98,-592.2 1232.01,-592.2"/>
<text text-anchor="start" x="1239.01" y="-604.4" font-family="Arial" font-size="14.00">payload </text>
<text text-anchor="start" x="1291.94" y="-604.4" font-family="Arial" font-size="14.00" fill="#666666">[jsonb]</text>
<polygon fill="none" stroke="black" points="1232.01,-561.4 1232.01,-592.2 1512.98,-592.2 1512.98,-561.4 1232.01,-561.4"/>
<text text-anchor="start" x="1239.01" y="-573.6" font-family="Arial" font-size="14.00">created_at </text>
<text text-anchor="start" x="1309.06" y="-573.6" font-family="Arial" font-size="14.00" fill="#666666">[timestamp without time zone]</text>
</g>
<!-- public.activity_logs&#45;&gt;public.organizations -->
<g id="edge4" class="edge">
<title>public.activity_logs:org_id&#45;&gt;public.organizations:id</title>
<path fill="none" stroke="black" d="M1220.81,-728.69C1169.01,-705.66 1195.71,-500.69 1179.5,-441.2 1162.89,-380.26 1193.13,-308 1129.97,-308"/>
<polygon fill="black" stroke="black" points="1220.89,-728.71 1229.77,-735.14 1226.12,-729.79 1230.36,-730.66 1230.36,-730.66 1230.36,-730.66 1226.12,-729.79 1231.59,-726.33 1220.89,-728.71"/>
<text text-anchor="start" x="1238.01" y="-740.8" font-family="Arial" font-size="10.00">FOREIGN KEY (org_id) REFERENCES organizations(id) ON DELETE CASCADE</text>
</g>
<!-- public.usage_records -->
<g id="node6" class="node">
<title>public.usage_records</title>
<polygon fill="#efefef" stroke="none" points="1617.03,-838.6 1617.03,-874.2 1907.96,-874.2 1907.96,-838.6 1617.03,-838.6"/>
<polygon fill="none" stroke="black" points="1617.03,-838.6 1617.03,-874.2 1907.96,-874.2 1907.96,-838.6 1617.03,-838.6"/>
<text text-anchor="start" x="1624.03" y="-852" font-family="Arial Bold" font-size="18.00">public.usage_records</text>
<text text-anchor="start" x="1776.47" y="-852" font-family="Arial" font-size="14.00">    </text>
<text text-anchor="start" x="1807.59" y="-852" font-family="Arial" font-size="14.00" fill="#666666">[BASE TABLE]</text>
<polygon fill="none" stroke="black" points="1617.03,-807.8 1617.03,-838.6 1907.96,-838.6 1907.96,-807.8 1617.03,-807.8"/>
<text text-anchor="start" x="1624.03" y="-820" font-family="Arial" font-size="14.00">id </text>
<text text-anchor="start" x="1638.81" y="-820" font-family="Arial" font-size="14.00" fill="#666666">[uuid]</text>
<polygon fill="none" stroke="black" points="1617.03,-777 1617.03,-807.8 1907.96,-807.8 1907.96,-777 1617.03,-777"/>
<text text-anchor="start" x="1624.03" y="-789.2" font-family="Arial" font-size="14.00">org_id </text>
<text text-anchor="start" x="1666.83" y="-789.2" font-family="Arial" font-size="14.00" fill="#666666">[uuid]</text>
<polygon fill="none" stroke="black" points="1617.03,-746.2 1617.03,-777 1907.96,-777 1907.96,-746.2 1617.03,-746.2"/>
<text text-anchor="start" x="1624.03" y="-758.4" font-family="Arial" font-size="14.00">employee_id </text>
<text text-anchor="start" x="1707.3" y="-758.4" font-family="Arial" font-size="14.00" fill="#666666">[uuid]</text>
<polygon fill="none" stroke="black" points="1617.03,-715.4 1617.03,-746.2 1907.96,-746.2 1907.96,-715.4 1617.03,-715.4"/>
<text text-anchor="start" x="1624.03" y="-727.6" font-family="Arial" font-size="14.00">agent_config_id </text>
<text text-anchor="start" x="1726.78" y="-727.6" font-family="Arial" font-size="14.00" fill="#666666">[uuid]</text>
<polygon fill="none" stroke="black" points="1617.03,-684.6 1617.03,-715.4 1907.96,-715.4 1907.96,-684.6 1617.03,-684.6"/>
<text text-anchor="start" x="1624.03" y="-696.8" font-family="Arial" font-size="14.00">resource_type </text>
<text text-anchor="start" x="1716.63" y="-696.8" font-family="Arial" font-size="14.00" fill="#666666">[varchar(50)]</text>
<polygon fill="none" stroke="black" points="1617.03,-653.8 1617.03,-684.6 1907.96,-684.6 1907.96,-653.8 1617.03,-653.8"/>
<text text-anchor="start" x="1624.03" y="-666" font-family="Arial" font-size="14.00">quantity </text>
<text text-anchor="start" x="1676.95" y="-666" font-family="Arial" font-size="14.00" fill="#666666">[bigint]</text>
<polygon fill="none" stroke="black" points="1617.03,-623 1617.03,-653.8 1907.96,-653.8 1907.96,-623 1617.03,-623"/>
<text text-anchor="start" x="1624.03" y="-635.2" font-family="Arial" font-size="14.00">cost_usd </text>
<text text-anchor="start" x="1683.95" y="-635.2" font-family="Arial" font-size="14.00" fill="#666666">[numeric(10,4)]</text>
<polygon fill="none" stroke="black" points="1617.03,-592.2 1617.03,-623 1907.96,-623 1907.96,-592.2 1617.03,-592.2"/>
<text text-anchor="start" x="1624.03" y="-604.4" font-family="Arial" font-size="14.00">period_start </text>
<text text-anchor="start" x="1701.85" y="-604.4" font-family="Arial" font-size="14.00" fill="#666666">[timestamp without time zone]</text>
<polygon fill="none" stroke="black" points="1617.03,-561.4 1617.03,-592.2 1907.96,-592.2 1907.96,-561.4 1617.03,-561.4"/>
<text text-anchor="start" x="1624.03" y="-573.6" font-family="Arial" font-size="14.00">period_end </text>
<text text-anchor="start" x="1697.98" y="-573.6" font-family="Arial" font-size="14.00" fill="#666666">[timestamp without time zone]</text>
<polygon fill="none" stroke="black" points="1617.03,-530.6 1617.03,-561.4 1907.96,-561.4 1907.96,-530.6 1617.03,-530.6"/>
<text text-anchor="start" x="1624.03" y="-542.8" font-family="Arial" font-size="14.00">metadata </text>
<text text-anchor="start" x="1686.29" y="-542.8" font-family="Arial" font-size="14.00" fill="#666666">[jsonb]</text>
<polygon fill="none" stroke="black" points="1617.03,-499.8 1617.03,-530.6 1907.96,-530.6 1907.96,-499.8 1617.03,-499.8"/>
<text text-anchor="start" x="1624.03" y="-512" font-family="Arial" font-size="14.00">created_at </text>
<text text-anchor="start" x="1694.08" y="-512" font-family="Arial" font-size="14.00" fill="#666666">[timestamp without time zone]</text>
</g>
<!-- public.usage_records&#45;&gt;public.organizations -->
<g id="edge5" class="edge">
<title>public.usage_records:org_id&#45;&gt;public.organizations:id</title>
<path fill="none" stroke="black" d="M1605.95,-790.53C1544.36,-765.6 1614.39,-498.27 1565.5,-441.2 1499.64,-364.35 1231.18,-308 1129.97,-308"/>
<polygon fill="black" stroke="black" points="1605.87,-790.52 1614.88,-796.76 1611.11,-791.49 1615.37,-792.28 1615.37,-792.28 1615.37,-792.28 1611.11,-791.49 1616.52,-787.91 1605.87,-790.52"/>
<text text-anchor="start" x="1623.03" y="-802.4" font-family="Arial" font-size="10.00">FOREIGN KEY (org_id) REFERENCES organizations(id) ON DELETE CASCADE</text>
</g>
</g>
</svg>
