<?xml version="1.0" encoding="UTF-8" standalone="no"?>
<!DOCTYPE svg PUBLIC "-//W3C//DTD SVG 1.1//EN"
 "http://www.w3.org/Graphics/SVG/1.1/DTD/svg11.dtd">
<!-- Generated by graphviz version 12.1.2 (20240928.0832)
 -->
<!-- Title: public.teams Pages: 1 -->
<svg width="1646pt" height="1376pt"
 viewBox="0.00 0.00 1646.41 1376.00" xmlns="http://www.w3.org/2000/svg" xmlns:xlink="http://www.w3.org/1999/xlink">
<g id="graph0" class="graph" transform="scale(1 1) rotate(0) translate(4 1372)">
<title>public.teams</title>
<polygon fill="white" stroke="none" points="-4,4 -4,-1372 1642.41,-1372 1642.41,4 -4,4"/>
<!-- public.teams -->
<g id="node1" class="node">
<title>public.teams</title>
<polygon fill="#efefef" stroke="none" points="670.55,-697 670.55,-732.6 943.69,-732.6 943.69,-697 670.55,-697"/>
<polygon fill="none" stroke="black" points="670.55,-697 670.55,-732.6 943.69,-732.6 943.69,-697 670.55,-697"/>
<text text-anchor="start" x="699.14" y="-710.4" font-family="Arial Bold" font-size="18.00">public.teams</text>
<text text-anchor="start" x="790.61" y="-710.4" font-family="Arial" font-size="14.00">    </text>
<text text-anchor="start" x="821.73" y="-710.4" font-family="Arial" font-size="14.00" fill="#666666">[BASE TABLE]</text>
<polygon fill="none" stroke="black" points="670.55,-666.2 670.55,-697 943.69,-697 943.69,-666.2 670.55,-666.2"/>
<text text-anchor="start" x="677.55" y="-678.4" font-family="Arial" font-size="14.00">id </text>
<text text-anchor="start" x="692.33" y="-678.4" font-family="Arial" font-size="14.00" fill="#666666">[uuid]</text>
<polygon fill="none" stroke="black" points="670.55,-635.4 670.55,-666.2 943.69,-666.2 943.69,-635.4 670.55,-635.4"/>
<text text-anchor="start" x="677.55" y="-647.6" font-family="Arial" font-size="14.00">org_id </text>
<text text-anchor="start" x="720.36" y="-647.6" font-family="Arial" font-size="14.00" fill="#666666">[uuid]</text>
<polygon fill="none" stroke="black" points="670.55,-604.6 670.55,-635.4 943.69,-635.4 943.69,-604.6 670.55,-604.6"/>
<text text-anchor="start" x="677.55" y="-616.8" font-family="Arial" font-size="14.00">name </text>
<text text-anchor="start" x="716.46" y="-616.8" font-family="Arial" font-size="14.00" fill="#666666">[varchar(255)]</text>
<polygon fill="none" stroke="black" points="670.55,-573.8 670.55,-604.6 943.69,-604.6 943.69,-573.8 670.55,-573.8"/>
<text text-anchor="start" x="677.55" y="-586" font-family="Arial" font-size="14.00">description </text>
<text text-anchor="start" x="749.14" y="-586" font-family="Arial" font-size="14.00" fill="#666666">[text]</text>
<polygon fill="none" stroke="black" points="670.55,-543 670.55,-573.8 943.69,-573.8 943.69,-543 670.55,-543"/>
<text text-anchor="start" x="677.55" y="-555.2" font-family="Arial" font-size="14.00">created_at </text>
<text text-anchor="start" x="747.6" y="-555.2" font-family="Arial" font-size="14.00" fill="#666666">[timestamp without time zone]</text>
<polygon fill="none" stroke="black" points="670.55,-512.2 670.55,-543 943.69,-543 943.69,-512.2 670.55,-512.2"/>
<text text-anchor="start" x="677.55" y="-524.4" font-family="Arial" font-size="14.00">updated_at </text>
<text text-anchor="start" x="751.51" y="-524.4" font-family="Arial" font-size="14.00" fill="#666666">[timestamp without time zone]</text>
<polygon fill="none" stroke="black" stroke-width="3" points="669.05,-510.7 669.05,-734.1 945.19,-734.1 945.19,-510.7 669.05,-510.7"/>
</g>
<!-- public.organizations -->
<g id="node6" class="node">
<title>public.organizations</title>
<polygon fill="#efefef" stroke="none" points="664.65,-351.2 664.65,-386.8 949.6,-386.8 949.6,-351.2 664.65,-351.2"/>
<polygon fill="none" stroke="black" points="664.65,-351.2 664.65,-386.8 949.6,-386.8 949.6,-351.2 664.65,-351.2"/>
<text text-anchor="start" x="671.65" y="-364.6" font-family="Arial Bold" font-size="18.00">public.organizations</text>
<text text-anchor="start" x="818.11" y="-364.6" font-family="Arial" font-size="14.00">    </text>
<text text-anchor="start" x="849.22" y="-364.6" font-family="Arial" font-size="14.00" fill="#666666">[BASE TABLE]</text>
<polygon fill="none" stroke="black" points="664.65,-320.4 664.65,-351.2 949.6,-351.2 949.6,-320.4 664.65,-320.4"/>
<text text-anchor="start" x="671.65" y="-332.6" font-family="Arial" font-size="14.00">id </text>
<text text-anchor="start" x="686.43" y="-332.6" font-family="Arial" font-size="14.00" fill="#666666">[uuid]</text>
<polygon fill="none" stroke="black" points="664.65,-289.6 664.65,-320.4 949.6,-320.4 949.6,-289.6 664.65,-289.6"/>
<text text-anchor="start" x="671.65" y="-301.8" font-family="Arial" font-size="14.00">name </text>
<text text-anchor="start" x="710.56" y="-301.8" font-family="Arial" font-size="14.00" fill="#666666">[varchar(255)]</text>
<polygon fill="none" stroke="black" points="664.65,-258.8 664.65,-289.6 949.6,-289.6 949.6,-258.8 664.65,-258.8"/>
<text text-anchor="start" x="671.65" y="-271" font-family="Arial" font-size="14.00">slug </text>
<text text-anchor="start" x="701.22" y="-271" font-family="Arial" font-size="14.00" fill="#666666">[varchar(100)]</text>
<polygon fill="none" stroke="black" points="664.65,-228 664.65,-258.8 949.6,-258.8 949.6,-228 664.65,-228"/>
<text text-anchor="start" x="671.65" y="-240.2" font-family="Arial" font-size="14.00">plan </text>
<text text-anchor="start" x="702" y="-240.2" font-family="Arial" font-size="14.00" fill="#666666">[varchar(50)]</text>
<polygon fill="none" stroke="black" points="664.65,-197.2 664.65,-228 949.6,-228 949.6,-197.2 664.65,-197.2"/>
<text text-anchor="start" x="671.65" y="-209.4" font-family="Arial" font-size="14.00">settings </text>
<text text-anchor="start" x="723.78" y="-209.4" font-family="Arial" font-size="14.00" fill="#666666">[jsonb]</text>
<polygon fill="none" stroke="black" points="664.65,-166.4 664.65,-197.2 949.6,-197.2 949.6,-166.4 664.65,-166.4"/>
<text text-anchor="start" x="671.65" y="-178.6" font-family="Arial" font-size="14.00">max_employees </text>
<text text-anchor="start" x="777.47" y="-178.6" font-family="Arial" font-size="14.00" fill="#666666">[integer]</text>
<polygon fill="none" stroke="black" points="664.65,-135.6 664.65,-166.4 949.6,-166.4 949.6,-135.6 664.65,-135.6"/>
<text text-anchor="start" x="671.65" y="-147.8" font-family="Arial" font-size="14.00">max_agents_per_employee </text>
<text text-anchor="start" x="848.31" y="-147.8" font-family="Arial" font-size="14.00" fill="#666666">[integer]</text>
<polygon fill="none" stroke="black" points="664.65,-104.8 664.65,-135.6 949.6,-135.6 949.6,-104.8 664.65,-104.8"/>
<text text-anchor="start" x="671.65" y="-117" font-family="Arial" font-size="14.00">claude_api_token </text>
<text text-anchor="start" x="785.29" y="-117" font-family="Arial" font-size="14.00" fill="#666666">[text]</text>
<polygon fill="none" stroke="black" points="664.65,-74 664.65,-104.8 949.6,-104.8 949.6,-74 664.65,-74"/>
<text text-anchor="start" x="671.65" y="-86.2" font-family="Arial" font-size="14.00">created_at </text>
<text text-anchor="start" x="741.69" y="-86.2" font-family="Arial" font-size="14.00" fill="#666666">[timestamp without time zone]</text>
<polygon fill="none" stroke="black" points="664.65,-43.2 664.65,-74 949.6,-74 949.6,-43.2 664.65,-43.2"/>
<text text-anchor="start" x="671.65" y="-55.4" font-family="Arial" font-size="14.00">updated_at </text>
<text text-anchor="start" x="745.6" y="-55.4" font-family="Arial" font-size="14.00" fill="#666666">[timestamp without time zone]</text>
</g>
<!-- public.teams&#45;&gt;public.organizations -->
<g id="edge5" class="edge">
<title>public.teams:org_id&#45;&gt;public.organizations:id</title>
<path fill="none" stroke="black" d="M955.1,-650.2C1084.92,-635.01 1087.06,-335.8 950.6,-335.8"/>
<polygon fill="black" stroke="black" points="955.01,-650.21 944.77,-646.29 949.68,-650.51 945.36,-650.76 945.36,-650.76 945.36,-650.76 949.68,-650.51 945.28,-655.27 955.01,-650.21"/>
<text text-anchor="start" x="951.69" y="-660.8" font-family="Arial" font-size="10.00">FOREIGN KEY (org_id) REFERENCES organizations(id) ON DELETE CASCADE</text>
</g>
<!-- public.employees -->
<g id="node2" class="node">
<title>public.employees</title>
<polygon fill="#efefef" stroke="none" points="70.28,-1289.2 70.28,-1324.8 351.96,-1324.8 351.96,-1289.2 70.28,-1289.2"/>
<polygon fill="none" stroke="black" points="70.28,-1289.2 70.28,-1324.8 351.96,-1324.8 351.96,-1289.2 70.28,-1289.2"/>
<text text-anchor="start" x="85.64" y="-1302.6" font-family="Arial Bold" font-size="18.00">public.employees</text>
<text text-anchor="start" x="212.11" y="-1302.6" font-family="Arial" font-size="14.00">    </text>
<text text-anchor="start" x="243.23" y="-1302.6" font-family="Arial" font-size="14.00" fill="#666666">[BASE TABLE]</text>
<polygon fill="none" stroke="black" points="70.28,-1258.4 70.28,-1289.2 351.96,-1289.2 351.96,-1258.4 70.28,-1258.4"/>
<text text-anchor="start" x="77.28" y="-1270.6" font-family="Arial" font-size="14.00">id </text>
<text text-anchor="start" x="92.06" y="-1270.6" font-family="Arial" font-size="14.00" fill="#666666">[uuid]</text>
<polygon fill="none" stroke="black" points="70.28,-1227.6 70.28,-1258.4 351.96,-1258.4 351.96,-1227.6 70.28,-1227.6"/>
<text text-anchor="start" x="77.28" y="-1239.8" font-family="Arial" font-size="14.00">org_id </text>
<text text-anchor="start" x="120.08" y="-1239.8" font-family="Arial" font-size="14.00" fill="#666666">[uuid]</text>
<polygon fill="none" stroke="black" points="70.28,-1196.8 70.28,-1227.6 351.96,-1227.6 351.96,-1196.8 70.28,-1196.8"/>
<text text-anchor="start" x="77.28" y="-1209" font-family="Arial" font-size="14.00">team_id </text>
<text text-anchor="start" x="130.97" y="-1209" font-family="Arial" font-size="14.00" fill="#666666">[uuid]</text>
<polygon fill="none" stroke="black" points="70.28,-1166 70.28,-1196.8 351.96,-1196.8 351.96,-1166 70.28,-1166"/>
<text text-anchor="start" x="77.28" y="-1178.2" font-family="Arial" font-size="14.00">role_id </text>
<text text-anchor="start" x="123.19" y="-1178.2" font-family="Arial" font-size="14.00" fill="#666666">[uuid]</text>
<polygon fill="none" stroke="black" points="70.28,-1135.2 70.28,-1166 351.96,-1166 351.96,-1135.2 70.28,-1135.2"/>
<text text-anchor="start" x="77.28" y="-1147.4" font-family="Arial" font-size="14.00">email </text>
<text text-anchor="start" x="114.62" y="-1147.4" font-family="Arial" font-size="14.00" fill="#666666">[varchar(255)]</text>
<polygon fill="none" stroke="black" points="70.28,-1104.4 70.28,-1135.2 351.96,-1135.2 351.96,-1104.4 70.28,-1104.4"/>
<text text-anchor="start" x="77.28" y="-1116.6" font-family="Arial" font-size="14.00">full_name </text>
<text text-anchor="start" x="141.87" y="-1116.6" font-family="Arial" font-size="14.00" fill="#666666">[varchar(255)]</text>
<polygon fill="none" stroke="black" points="70.28,-1073.6 70.28,-1104.4 351.96,-1104.4 351.96,-1073.6 70.28,-1073.6"/>
<text text-anchor="start" x="77.28" y="-1085.8" font-family="Arial" font-size="14.00">password_hash </text>
<text text-anchor="start" x="179.23" y="-1085.8" font-family="Arial" font-size="14.00" fill="#666666">[varchar(255)]</text>
<polygon fill="none" stroke="black" points="70.28,-1042.8 70.28,-1073.6 351.96,-1073.6 351.96,-1042.8 70.28,-1042.8"/>
<text text-anchor="start" x="77.28" y="-1055" font-family="Arial" font-size="14.00">status </text>
<text text-anchor="start" x="118.52" y="-1055" font-family="Arial" font-size="14.00" fill="#666666">[varchar(50)]</text>
<polygon fill="none" stroke="black" points="70.28,-1012 70.28,-1042.8 351.96,-1042.8 351.96,-1012 70.28,-1012"/>
<text text-anchor="start" x="77.28" y="-1024.2" font-family="Arial" font-size="14.00">preferences </text>
<text text-anchor="start" x="155.1" y="-1024.2" font-family="Arial" font-size="14.00" fill="#666666">[jsonb]</text>
<polygon fill="none" stroke="black" points="70.28,-981.2 70.28,-1012 351.96,-1012 351.96,-981.2 70.28,-981.2"/>
<text text-anchor="start" x="77.28" y="-993.4" font-family="Arial" font-size="14.00">personal_claude_token </text>
<text text-anchor="start" x="225.94" y="-993.4" font-family="Arial" font-size="14.00" fill="#666666">[text]</text>
<polygon fill="none" stroke="black" points="70.28,-950.4 70.28,-981.2 351.96,-981.2 351.96,-950.4 70.28,-950.4"/>
<text text-anchor="start" x="77.28" y="-962.6" font-family="Arial" font-size="14.00">last_login_at </text>
<text text-anchor="start" x="159.78" y="-962.6" font-family="Arial" font-size="14.00" fill="#666666">[timestamp without time zone]</text>
<polygon fill="none" stroke="black" points="70.28,-919.6 70.28,-950.4 351.96,-950.4 351.96,-919.6 70.28,-919.6"/>
<text text-anchor="start" x="77.28" y="-931.8" font-family="Arial" font-size="14.00">created_at </text>
<text text-anchor="start" x="147.32" y="-931.8" font-family="Arial" font-size="14.00" fill="#666666">[timestamp without time zone]</text>
<polygon fill="none" stroke="black" points="70.28,-888.8 70.28,-919.6 351.96,-919.6 351.96,-888.8 70.28,-888.8"/>
<text text-anchor="start" x="77.28" y="-901" font-family="Arial" font-size="14.00">updated_at </text>
<text text-anchor="start" x="151.23" y="-901" font-family="Arial" font-size="14.00" fill="#666666">[timestamp without time zone]</text>
<polygon fill="none" stroke="black" points="70.28,-858 70.28,-888.8 351.96,-888.8 351.96,-858 70.28,-858"/>
<text text-anchor="start" x="77.28" y="-870.2" font-family="Arial" font-size="14.00">deleted_at </text>
<text text-anchor="start" x="146.56" y="-870.2" font-family="Arial" font-size="14.00" fill="#666666">[timestamp without time zone]</text>
</g>
<!-- public.employees&#45;&gt;public.teams -->
<g id="edge1" class="edge">
<title>public.employees:team_id&#45;&gt;public.teams:id</title>
<path fill="none" stroke="black" d="M363.04,-1210.6C434.91,-1185.98 354.73,-884.45 404.12,-814.8 480.47,-707.14 537.56,-681.6 669.55,-681.6"/>
<polygon fill="black" stroke="black" points="363.17,-1210.58 352.59,-1207.7 357.9,-1211.42 353.63,-1212.1 353.63,-1212.1 353.63,-1212.1 357.9,-1211.42 354,-1216.59 363.17,-1210.58"/>
<text text-anchor="start" x="7" y="-1222.2" font-family="Arial" font-size="10.00">FOREIGN KEY (team_id) REFERENCES teams(id) ON DELETE SET NULL</text>
</g>
<!-- public.team_policies -->
<g id="node3" class="node">
<title>public.team_policies</title>
<polygon fill="#efefef" stroke="none" points="456.15,-1150.6 456.15,-1186.2 744.09,-1186.2 744.09,-1150.6 456.15,-1150.6"/>
<polygon fill="none" stroke="black" points="456.15,-1150.6 456.15,-1186.2 744.09,-1186.2 744.09,-1150.6 456.15,-1150.6"/>
<text text-anchor="start" x="463.15" y="-1164" font-family="Arial Bold" font-size="18.00">public.team_policies</text>
<text text-anchor="start" x="612.6" y="-1164" font-family="Arial" font-size="14.00">    </text>
<text text-anchor="start" x="643.72" y="-1164" font-family="Arial" font-size="14.00" fill="#666666">[BASE TABLE]</text>
<polygon fill="none" stroke="black" points="456.15,-1119.8 456.15,-1150.6 744.09,-1150.6 744.09,-1119.8 456.15,-1119.8"/>
<text text-anchor="start" x="463.15" y="-1132" font-family="Arial" font-size="14.00">id </text>
<text text-anchor="start" x="477.93" y="-1132" font-family="Arial" font-size="14.00" fill="#666666">[uuid]</text>
<polygon fill="none" stroke="black" points="456.15,-1089 456.15,-1119.8 744.09,-1119.8 744.09,-1089 456.15,-1089"/>
<text text-anchor="start" x="463.15" y="-1101.2" font-family="Arial" font-size="14.00">team_id </text>
<text text-anchor="start" x="516.84" y="-1101.2" font-family="Arial" font-size="14.00" fill="#666666">[uuid]</text>
<polygon fill="none" stroke="black" points="456.15,-1058.2 456.15,-1089 744.09,-1089 744.09,-1058.2 456.15,-1058.2"/>
<text text-anchor="start" x="463.15" y="-1070.4" font-family="Arial" font-size="14.00">policy_id </text>
<text text-anchor="start" x="521.51" y="-1070.4" font-family="Arial" font-size="14.00" fill="#666666">[uuid]</text>
<polygon fill="none" stroke="black" points="456.15,-1027.4 456.15,-1058.2 744.09,-1058.2 744.09,-1027.4 456.15,-1027.4"/>
<text text-anchor="start" x="463.15" y="-1039.6" font-family="Arial" font-size="14.00">overrides </text>
<text text-anchor="start" x="524.62" y="-1039.6" font-family="Arial" font-size="14.00" fill="#666666">[jsonb]</text>
<polygon fill="none" stroke="black" points="456.15,-996.6 456.15,-1027.4 744.09,-1027.4 744.09,-996.6 456.15,-996.6"/>
<text text-anchor="start" x="463.15" y="-1008.8" font-family="Arial" font-size="14.00">created_at </text>
<text text-anchor="start" x="533.19" y="-1008.8" font-family="Arial" font-size="14.00" fill="#666666">[timestamp without time zone]</text>
</g>
<!-- public.team_policies&#45;&gt;public.teams -->
<g id="edge2" class="edge">
<title>public.team_policies:team_id&#45;&gt;public.teams:id</title>
<path fill="none" stroke="black" d="M755.06,-1103.97C919.23,-1088.86 482.2,-681.6 669.55,-681.6"/>
<polygon fill="black" stroke="black" points="755.42,-1103.95 745.23,-1099.89 750.09,-1104.18 745.76,-1104.37 745.76,-1104.37 745.76,-1104.37 750.09,-1104.18 745.62,-1108.88 755.42,-1103.95"/>
<text text-anchor="start" x="752.09" y="-1114.4" font-family="Arial" font-size="10.00">FOREIGN KEY (team_id) REFERENCES teams(id) ON DELETE CASCADE</text>
</g>
<!-- public.team_agent_configs -->
<g id="node4" class="node">
<title>public.team_agent_configs</title>
<polygon fill="#efefef" stroke="none" points="848.66,-1181.4 848.66,-1217 1181.59,-1217 1181.59,-1181.4 848.66,-1181.4"/>
<polygon fill="none" stroke="black" points="848.66,-1181.4 848.66,-1217 1181.59,-1217 1181.59,-1181.4 848.66,-1181.4"/>
<text text-anchor="start" x="855.66" y="-1194.8" font-family="Arial Bold" font-size="18.00">public.team_agent_configs</text>
<text text-anchor="start" x="1050.1" y="-1194.8" font-family="Arial" font-size="14.00">    </text>
<text text-anchor="start" x="1081.21" y="-1194.8" font-family="Arial" font-size="14.00" fill="#666666">[BASE TABLE]</text>
<polygon fill="none" stroke="black" points="848.66,-1150.6 848.66,-1181.4 1181.59,-1181.4 1181.59,-1150.6 848.66,-1150.6"/>
<text text-anchor="start" x="855.66" y="-1162.8" font-family="Arial" font-size="14.00">id </text>
<text text-anchor="start" x="870.44" y="-1162.8" font-family="Arial" font-size="14.00" fill="#666666">[uuid]</text>
<polygon fill="none" stroke="black" points="848.66,-1119.8 848.66,-1150.6 1181.59,-1150.6 1181.59,-1119.8 848.66,-1119.8"/>
<text text-anchor="start" x="855.66" y="-1132" font-family="Arial" font-size="14.00">team_id </text>
<text text-anchor="start" x="909.35" y="-1132" font-family="Arial" font-size="14.00" fill="#666666">[uuid]</text>
<polygon fill="none" stroke="black" points="848.66,-1089 848.66,-1119.8 1181.59,-1119.8 1181.59,-1089 848.66,-1089"/>
<text text-anchor="start" x="855.66" y="-1101.2" font-family="Arial" font-size="14.00">agent_id </text>
<text text-anchor="start" x="913.26" y="-1101.2" font-family="Arial" font-size="14.00" fill="#666666">[uuid]</text>
<polygon fill="none" stroke="black" points="848.66,-1058.2 848.66,-1089 1181.59,-1089 1181.59,-1058.2 848.66,-1058.2"/>
<text text-anchor="start" x="855.66" y="-1070.4" font-family="Arial" font-size="14.00">config_override </text>
<text text-anchor="start" x="955.27" y="-1070.4" font-family="Arial" font-size="14.00" fill="#666666">[jsonb]</text>
<polygon fill="none" stroke="black" points="848.66,-1027.4 848.66,-1058.2 1181.59,-1058.2 1181.59,-1027.4 848.66,-1027.4"/>
<text text-anchor="start" x="855.66" y="-1039.6" font-family="Arial" font-size="14.00">is_enabled </text>
<text text-anchor="start" x="927.27" y="-1039.6" font-family="Arial" font-size="14.00" fill="#666666">[boolean]</text>
<polygon fill="none" stroke="black" points="848.66,-996.6 848.66,-1027.4 1181.59,-1027.4 1181.59,-996.6 848.66,-996.6"/>
<text text-anchor="start" x="855.66" y="-1008.8" font-family="Arial" font-size="14.00">created_at </text>
<text text-anchor="start" x="925.7" y="-1008.8" font-family="Arial" font-size="14.00" fill="#666666">[timestamp without time zone]</text>
<polygon fill="none" stroke="black" points="848.66,-965.8 848.66,-996.6 1181.59,-996.6 1181.59,-965.8 848.66,-965.8"/>
<text text-anchor="start" x="855.66" y="-978" font-family="Arial" font-size="14.00">updated_at </text>
<text text-anchor="start" x="929.61" y="-978" font-family="Arial" font-size="14.00" fill="#666666">[timestamp without time zone]</text>
</g>
<!-- public.team_agent_configs&#45;&gt;public.teams -->
<g id="edge3" class="edge">
<title>public.team_agent_configs:team_id&#45;&gt;public.teams:id</title>
<path fill="none" stroke="black" d="M837.31,-1134.65C758.42,-1125.7 822.31,-1009.49 848.66,-922.6 870.88,-849.29 921.26,-852.05 943.69,-778.8 956.34,-737.49 987.89,-681.6 944.69,-681.6"/>
<polygon fill="black" stroke="black" points="837.34,-1134.65 847.08,-1139.68 842.66,-1134.93 846.99,-1135.16 846.99,-1135.16 846.99,-1135.16 842.66,-1134.93 847.56,-1130.69 837.34,-1134.65"/>
<text text-anchor="start" x="854.66" y="-1145.2" font-family="Arial" font-size="10.00">FOREIGN KEY (team_id) REFERENCES teams(id) ON DELETE CASCADE</text>
</g>
<!-- public.invitations -->
<g id="node5" class="node">
<title>public.invitations</title>
<polygon fill="#efefef" stroke="none" points="1286.44,-1273.8 1286.44,-1309.4 1565.8,-1309.4 1565.8,-1273.8 1286.44,-1273.8"/>
<polygon fill="none" stroke="black" points="1286.44,-1273.8 1286.44,-1309.4 1565.8,-1309.4 1565.8,-1273.8 1286.44,-1273.8"/>
<text text-anchor="start" x="1301.13" y="-1287.2" font-family="Arial Bold" font-size="18.00">public.invitations</text>
<text text-anchor="start" x="1426.62" y="-1287.2" font-family="Arial" font-size="14.00">    </text>
<text text-anchor="start" x="1457.74" y="-1287.2" font-family="Arial" font-size="14.00" fill="#666666">[BASE TABLE]</text>
<polygon fill="none" stroke="black" points="1286.44,-1243 1286.44,-1273.8 1565.8,-1273.8 1565.8,-1243 1286.44,-1243"/>
<text text-anchor="start" x="1293.44" y="-1255.2" font-family="Arial" font-size="14.00">id </text>
<text text-anchor="start" x="1308.23" y="-1255.2" font-family="Arial" font-size="14.00" fill="#666666">[uuid]</text>
<polygon fill="none" stroke="black" points="1286.44,-1212.2 1286.44,-1243 1565.8,-1243 1565.8,-1212.2 1286.44,-1212.2"/>
<text text-anchor="start" x="1293.44" y="-1224.4" font-family="Arial" font-size="14.00">org_id </text>
<text text-anchor="start" x="1336.25" y="-1224.4" font-family="Arial" font-size="14.00" fill="#666666">[uuid]</text>
<polygon fill="none" stroke="black" points="1286.44,-1181.4 1286.44,-1212.2 1565.8,-1212.2 1565.8,-1181.4 1286.44,-1181.4"/>
<text text-anchor="start" x="1293.44" y="-1193.6" font-family="Arial" font-size="14.00">inviter_id </text>
<text text-anchor="start" x="1353.36" y="-1193.6" font-family="Arial" font-size="14.00" fill="#666666">[uuid]</text>
<polygon fill="none" stroke="black" points="1286.44,-1150.6 1286.44,-1181.4 1565.8,-1181.4 1565.8,-1150.6 1286.44,-1150.6"/>
<text text-anchor="start" x="1293.44" y="-1162.8" font-family="Arial" font-size="14.00">email </text>
<text text-anchor="start" x="1330.79" y="-1162.8" font-family="Arial" font-size="14.00" fill="#666666">[varchar(255)]</text>
<polygon fill="none" stroke="black" points="1286.44,-1119.8 1286.44,-1150.6 1565.8,-1150.6 1565.8,-1119.8 1286.44,-1119.8"/>
<text text-anchor="start" x="1293.44" y="-1132" font-family="Arial" font-size="14.00">role_id </text>
<text text-anchor="start" x="1339.36" y="-1132" font-family="Arial" font-size="14.00" fill="#666666">[uuid]</text>
<polygon fill="none" stroke="black" points="1286.44,-1089 1286.44,-1119.8 1565.8,-1119.8 1565.8,-1089 1286.44,-1089"/>
<text text-anchor="start" x="1293.44" y="-1101.2" font-family="Arial" font-size="14.00">team_id </text>
<text text-anchor="start" x="1347.14" y="-1101.2" font-family="Arial" font-size="14.00" fill="#666666">[uuid]</text>
<polygon fill="none" stroke="black" points="1286.44,-1058.2 1286.44,-1089 1565.8,-1089 1565.8,-1058.2 1286.44,-1058.2"/>
<text text-anchor="start" x="1293.44" y="-1070.4" font-family="Arial" font-size="14.00">token </text>
<text text-anchor="start" x="1331.58" y="-1070.4" font-family="Arial" font-size="14.00" fill="#666666">[varchar(64)]</text>
<polygon fill="none" stroke="black" points="1286.44,-1027.4 1286.44,-1058.2 1565.8,-1058.2 1565.8,-1027.4 1286.44,-1027.4"/>
<text text-anchor="start" x="1293.44" y="-1039.6" font-family="Arial" font-size="14.00">status </text>
<text text-anchor="start" x="1334.68" y="-1039.6" font-family="Arial" font-size="14.00" fill="#666666">[varchar(50)]</text>
<polygon fill="none" stroke="black" points="1286.44,-996.6 1286.44,-1027.4 1565.8,-1027.4 1565.8,-996.6 1286.44,-996.6"/>
<text text-anchor="start" x="1293.44" y="-1008.8" font-family="Arial" font-size="14.00">expires_at </text>
<text text-anchor="start" x="1361.92" y="-1008.8" font-family="Arial" font-size="14.00" fill="#666666">[timestamp without time zone]</text>
<polygon fill="none" stroke="black" points="1286.44,-965.8 1286.44,-996.6 1565.8,-996.6 1565.8,-965.8 1286.44,-965.8"/>
<text text-anchor="start" x="1293.44" y="-978" font-family="Arial" font-size="14.00">accepted_by </text>
<text text-anchor="start" x="1376.72" y="-978" font-family="Arial" font-size="14.00" fill="#666666">[uuid]</text>
<polygon fill="none" stroke="black" points="1286.44,-935 1286.44,-965.8 1565.8,-965.8 1565.8,-935 1286.44,-935"/>
<text text-anchor="start" x="1293.44" y="-947.2" font-family="Arial" font-size="14.00">accepted_at </text>
<text text-anchor="start" x="1373.61" y="-947.2" font-family="Arial" font-size="14.00" fill="#666666">[timestamp without time zone]</text>
<polygon fill="none" stroke="black" points="1286.44,-904.2 1286.44,-935 1565.8,-935 1565.8,-904.2 1286.44,-904.2"/>
<text text-anchor="start" x="1293.44" y="-916.4" font-family="Arial" font-size="14.00">created_at </text>
<text text-anchor="start" x="1363.49" y="-916.4" font-family="Arial" font-size="14.00" fill="#666666">[timestamp without time zone]</text>
<polygon fill="none" stroke="black" points="1286.44,-873.4 1286.44,-904.2 1565.8,-904.2 1565.8,-873.4 1286.44,-873.4"/>
<text text-anchor="start" x="1293.44" y="-885.6" font-family="Arial" font-size="14.00">updated_at </text>
<text text-anchor="start" x="1367.4" y="-885.6" font-family="Arial" font-size="14.00" fill="#666666">[timestamp without time zone]</text>
</g>
<!-- public.invitations&#45;&gt;public.teams -->
<g id="edge4" class="edge">
<title>public.invitations:team_id&#45;&gt;public.teams:id</title>
<path fill="none" stroke="black" d="M1275.45,-1102.19C1225.9,-1078.05 1271.8,-863.6 1234.12,-814.8 1147.59,-702.71 1086.3,-681.6 944.69,-681.6"/>
<polygon fill="black" stroke="black" points="1275.35,-1102.17 1284.14,-1108.72 1280.56,-1103.32 1284.79,-1104.26 1284.79,-1104.26 1284.79,-1104.26 1280.56,-1103.32 1286.09,-1099.93 1275.35,-1102.17"/>
<text text-anchor="start" x="1292.44" y="-1114.4" font-family="Arial" font-size="10.00">FOREIGN KEY (team_id) REFERENCES teams(id) ON DELETE SET NULL</text>
</g>
</g>
</svg>
