<?xml version="1.0" encoding="UTF-8" standalone="no"?>
<!DOCTYPE svg PUBLIC "-//W3C//DTD SVG 1.1//EN"
 "http://www.w3.org/Graphics/SVG/1.1/DTD/svg11.dtd">
<!-- Generated by graphviz version 12.1.2 (20240928.0832)
 -->
<!-- Title: public.employee_policies Pages: 1 -->
<svg width="1092pt" height="879pt"
 viewBox="0.00 0.00 1091.68 879.20" xmlns="http://www.w3.org/2000/svg" xmlns:xlink="http://www.w3.org/1999/xlink">
<g id="graph0" class="graph" transform="scale(1 1) rotate(0) translate(4 875.2)">
<title>public.employee_policies</title>
<polygon fill="white" stroke="none" points="-4,4 -4,-875.2 1087.68,-875.2 1087.68,4 -4,4"/>
<!-- public.employee_policies -->
<g id="node1" class="node">
<title>public.employee_policies</title>
<polygon fill="#efefef" stroke="none" points="396.77,-789.4 396.77,-825 719.71,-825 719.71,-789.4 396.77,-789.4"/>
<polygon fill="none" stroke="black" points="396.77,-789.4 396.77,-825 719.71,-825 719.71,-789.4 396.77,-789.4"/>
<text text-anchor="start" x="403.77" y="-802.8" font-family="Arial Bold" font-size="18.00">public.employee_policies</text>
<text text-anchor="start" x="588.22" y="-802.8" font-family="Arial" font-size="14.00">    </text>
<text text-anchor="start" x="619.34" y="-802.8" font-family="Arial" font-size="14.00" fill="#666666">[BASE TABLE]</text>
<polygon fill="none" stroke="black" points="396.77,-758.6 396.77,-789.4 719.71,-789.4 719.71,-758.6 396.77,-758.6"/>
<text text-anchor="start" x="403.77" y="-770.8" font-family="Arial" font-size="14.00">id </text>
<text text-anchor="start" x="418.56" y="-770.8" font-family="Arial" font-size="14.00" fill="#666666">[uuid]</text>
<polygon fill="none" stroke="black" points="396.77,-727.8 396.77,-758.6 719.71,-758.6 719.71,-727.8 396.77,-727.8"/>
<text text-anchor="start" x="403.77" y="-740" font-family="Arial" font-size="14.00">employee_id </text>
<text text-anchor="start" x="487.05" y="-740" font-family="Arial" font-size="14.00" fill="#666666">[uuid]</text>
<polygon fill="none" stroke="black" points="396.77,-697 396.77,-727.8 719.71,-727.8 719.71,-697 396.77,-697"/>
<text text-anchor="start" x="403.77" y="-709.2" font-family="Arial" font-size="14.00">policy_id </text>
<text text-anchor="start" x="462.14" y="-709.2" font-family="Arial" font-size="14.00" fill="#666666">[uuid]</text>
<polygon fill="none" stroke="black" points="396.77,-666.2 396.77,-697 719.71,-697 719.71,-666.2 396.77,-666.2"/>
<text text-anchor="start" x="403.77" y="-678.4" font-family="Arial" font-size="14.00">overrides </text>
<text text-anchor="start" x="465.24" y="-678.4" font-family="Arial" font-size="14.00" fill="#666666">[jsonb]</text>
<polygon fill="none" stroke="black" points="396.77,-635.4 396.77,-666.2 719.71,-666.2 719.71,-635.4 396.77,-635.4"/>
<text text-anchor="start" x="403.77" y="-647.6" font-family="Arial" font-size="14.00">created_at </text>
<text text-anchor="start" x="473.82" y="-647.6" font-family="Arial" font-size="14.00" fill="#666666">[timestamp without time zone]</text>
<polygon fill="none" stroke="black" stroke-width="3" points="395.27,-633.9 395.27,-826.5 721.21,-826.5 721.21,-633.9 395.27,-633.9"/>
</g>
<!-- public.employees -->
<g id="node2" class="node">
<title>public.employees</title>
<polygon fill="#efefef" stroke="none" points="226.4,-474.4 226.4,-510 508.08,-510 508.08,-474.4 226.4,-474.4"/>
<polygon fill="none" stroke="black" points="226.4,-474.4 226.4,-510 508.08,-510 508.08,-474.4 226.4,-474.4"/>
<text text-anchor="start" x="241.76" y="-487.8" font-family="Arial Bold" font-size="18.00">public.employees</text>
<text text-anchor="start" x="368.23" y="-487.8" font-family="Arial" font-size="14.00">    </text>
<text text-anchor="start" x="399.35" y="-487.8" font-family="Arial" font-size="14.00" fill="#666666">[BASE TABLE]</text>
<polygon fill="none" stroke="black" points="226.4,-443.6 226.4,-474.4 508.08,-474.4 508.08,-443.6 226.4,-443.6"/>
<text text-anchor="start" x="233.4" y="-455.8" font-family="Arial" font-size="14.00">id </text>
<text text-anchor="start" x="248.18" y="-455.8" font-family="Arial" font-size="14.00" fill="#666666">[uuid]</text>
<polygon fill="none" stroke="black" points="226.4,-412.8 226.4,-443.6 508.08,-443.6 508.08,-412.8 226.4,-412.8"/>
<text text-anchor="start" x="233.4" y="-425" font-family="Arial" font-size="14.00">org_id </text>
<text text-anchor="start" x="276.2" y="-425" font-family="Arial" font-size="14.00" fill="#666666">[uuid]</text>
<polygon fill="none" stroke="black" points="226.4,-382 226.4,-412.8 508.08,-412.8 508.08,-382 226.4,-382"/>
<text text-anchor="start" x="233.4" y="-394.2" font-family="Arial" font-size="14.00">team_id </text>
<text text-anchor="start" x="287.09" y="-394.2" font-family="Arial" font-size="14.00" fill="#666666">[uuid]</text>
<polygon fill="none" stroke="black" points="226.4,-351.2 226.4,-382 508.08,-382 508.08,-351.2 226.4,-351.2"/>
<text text-anchor="start" x="233.4" y="-363.4" font-family="Arial" font-size="14.00">role_id </text>
<text text-anchor="start" x="279.31" y="-363.4" font-family="Arial" font-size="14.00" fill="#666666">[uuid]</text>
<polygon fill="none" stroke="black" points="226.4,-320.4 226.4,-351.2 508.08,-351.2 508.08,-320.4 226.4,-320.4"/>
<text text-anchor="start" x="233.4" y="-332.6" font-family="Arial" font-size="14.00">email </text>
<text text-anchor="start" x="270.74" y="-332.6" font-family="Arial" font-size="14.00" fill="#666666">[varchar(255)]</text>
<polygon fill="none" stroke="black" points="226.4,-289.6 226.4,-320.4 508.08,-320.4 508.08,-289.6 226.4,-289.6"/>
<text text-anchor="start" x="233.4" y="-301.8" font-family="Arial" font-size="14.00">full_name </text>
<text text-anchor="start" x="297.99" y="-301.8" font-family="Arial" font-size="14.00" fill="#666666">[varchar(255)]</text>
<polygon fill="none" stroke="black" points="226.4,-258.8 226.4,-289.6 508.08,-289.6 508.08,-258.8 226.4,-258.8"/>
<text text-anchor="start" x="233.4" y="-271" font-family="Arial" font-size="14.00">password_hash </text>
<text text-anchor="start" x="335.35" y="-271" font-family="Arial" font-size="14.00" fill="#666666">[varchar(255)]</text>
<polygon fill="none" stroke="black" points="226.4,-228 226.4,-258.8 508.08,-258.8 508.08,-228 226.4,-228"/>
<text text-anchor="start" x="233.4" y="-240.2" font-family="Arial" font-size="14.00">status </text>
<text text-anchor="start" x="274.64" y="-240.2" font-family="Arial" font-size="14.00" fill="#666666">[varchar(50)]</text>
<polygon fill="none" stroke="black" points="226.4,-197.2 226.4,-228 508.08,-228 508.08,-197.2 226.4,-197.2"/>
<text text-anchor="start" x="233.4" y="-209.4" font-family="Arial" font-size="14.00">preferences </text>
<text text-anchor="start" x="311.22" y="-209.4" font-family="Arial" font-size="14.00" fill="#666666">[jsonb]</text>
<polygon fill="none" stroke="black" points="226.4,-166.4 226.4,-197.2 508.08,-197.2 508.08,-166.4 226.4,-166.4"/>
<text text-anchor="start" x="233.4" y="-178.6" font-family="Arial" font-size="14.00">last_login_at </text>
<text text-anchor="start" x="315.9" y="-178.6" font-family="Arial" font-size="14.00" fill="#666666">[timestamp without time zone]</text>
<polygon fill="none" stroke="black" points="226.4,-135.6 226.4,-166.4 508.08,-166.4 508.08,-135.6 226.4,-135.6"/>
<text text-anchor="start" x="233.4" y="-147.8" font-family="Arial" font-size="14.00">created_at </text>
<text text-anchor="start" x="303.44" y="-147.8" font-family="Arial" font-size="14.00" fill="#666666">[timestamp without time zone]</text>
<polygon fill="none" stroke="black" points="226.4,-104.8 226.4,-135.6 508.08,-135.6 508.08,-104.8 226.4,-104.8"/>
<text text-anchor="start" x="233.4" y="-117" font-family="Arial" font-size="14.00">updated_at </text>
<text text-anchor="start" x="307.35" y="-117" font-family="Arial" font-size="14.00" fill="#666666">[timestamp without time zone]</text>
<polygon fill="none" stroke="black" points="226.4,-74 226.4,-104.8 508.08,-104.8 508.08,-74 226.4,-74"/>
<text text-anchor="start" x="233.4" y="-86.2" font-family="Arial" font-size="14.00">deleted_at </text>
<text text-anchor="start" x="302.68" y="-86.2" font-family="Arial" font-size="14.00" fill="#666666">[timestamp without time zone]</text>
<polygon fill="none" stroke="black" points="226.4,-43.2 226.4,-74 508.08,-74 508.08,-43.2 226.4,-43.2"/>
<text text-anchor="start" x="233.4" y="-55.4" font-family="Arial" font-size="14.00">personal_claude_token </text>
<text text-anchor="start" x="382.06" y="-55.4" font-family="Arial" font-size="14.00" fill="#666666">[text]</text>
</g>
<!-- public.employee_policies&#45;&gt;public.employees -->
<g id="edge1" class="edge">
<title>public.employee_policies:employee_id&#45;&gt;public.employees:id</title>
<path fill="none" stroke="black" d="M385.4,-742.34C330.53,-732.53 358.54,-641.4 396.77,-589.2 427.5,-547.26 477.27,-595.08 508.08,-553.2 532.9,-519.48 550.95,-459 509.08,-459"/>
<polygon fill="black" stroke="black" points="385.47,-742.34 395.07,-747.66 390.79,-742.79 395.11,-743.14 395.11,-743.14 395.11,-743.14 390.79,-742.79 395.81,-738.69 385.47,-742.34"/>
<text text-anchor="start" x="7" y="-753.2" font-family="Arial" font-size="10.00">FOREIGN KEY (employee_id) REFERENCES employees(id) ON DELETE CASCADE</text>
</g>
<!-- public.policies -->
<g id="node3" class="node">
<title>public.policies</title>
<polygon fill="#efefef" stroke="none" points="612.67,-366.6 612.67,-402.2 885.81,-402.2 885.81,-366.6 612.67,-366.6"/>
<polygon fill="none" stroke="black" points="612.67,-366.6 612.67,-402.2 885.81,-402.2 885.81,-366.6 612.67,-366.6"/>
<text text-anchor="start" x="634.26" y="-380" font-family="Arial Bold" font-size="18.00">public.policies</text>
<text text-anchor="start" x="739.73" y="-380" font-family="Arial" font-size="14.00">    </text>
<text text-anchor="start" x="770.85" y="-380" font-family="Arial" font-size="14.00" fill="#666666">[BASE TABLE]</text>
<polygon fill="none" stroke="black" points="612.67,-335.8 612.67,-366.6 885.81,-366.6 885.81,-335.8 612.67,-335.8"/>
<text text-anchor="start" x="619.67" y="-348" font-family="Arial" font-size="14.00">id </text>
<text text-anchor="start" x="634.46" y="-348" font-family="Arial" font-size="14.00" fill="#666666">[uuid]</text>
<polygon fill="none" stroke="black" points="612.67,-305 612.67,-335.8 885.81,-335.8 885.81,-305 612.67,-305"/>
<text text-anchor="start" x="619.67" y="-317.2" font-family="Arial" font-size="14.00">name </text>
<text text-anchor="start" x="658.58" y="-317.2" font-family="Arial" font-size="14.00" fill="#666666">[varchar(100)]</text>
<polygon fill="none" stroke="black" points="612.67,-274.2 612.67,-305 885.81,-305 885.81,-274.2 612.67,-274.2"/>
<text text-anchor="start" x="619.67" y="-286.4" font-family="Arial" font-size="14.00">type </text>
<text text-anchor="start" x="650.02" y="-286.4" font-family="Arial" font-size="14.00" fill="#666666">[varchar(50)]</text>
<polygon fill="none" stroke="black" points="612.67,-243.4 612.67,-274.2 885.81,-274.2 885.81,-243.4 612.67,-243.4"/>
<text text-anchor="start" x="619.67" y="-255.6" font-family="Arial" font-size="14.00">rules </text>
<text text-anchor="start" x="653.9" y="-255.6" font-family="Arial" font-size="14.00" fill="#666666">[jsonb]</text>
<polygon fill="none" stroke="black" points="612.67,-212.6 612.67,-243.4 885.81,-243.4 885.81,-212.6 612.67,-212.6"/>
<text text-anchor="start" x="619.67" y="-224.8" font-family="Arial" font-size="14.00">severity </text>
<text text-anchor="start" x="671.79" y="-224.8" font-family="Arial" font-size="14.00" fill="#666666">[varchar(20)]</text>
<polygon fill="none" stroke="black" points="612.67,-181.8 612.67,-212.6 885.81,-212.6 885.81,-181.8 612.67,-181.8"/>
<text text-anchor="start" x="619.67" y="-194" font-family="Arial" font-size="14.00">created_at </text>
<text text-anchor="start" x="689.72" y="-194" font-family="Arial" font-size="14.00" fill="#666666">[timestamp without time zone]</text>
<polygon fill="none" stroke="black" points="612.67,-151 612.67,-181.8 885.81,-181.8 885.81,-151 612.67,-151"/>
<text text-anchor="start" x="619.67" y="-163.2" font-family="Arial" font-size="14.00">updated_at </text>
<text text-anchor="start" x="693.63" y="-163.2" font-family="Arial" font-size="14.00" fill="#666666">[timestamp without time zone]</text>
</g>
<!-- public.employee_policies&#45;&gt;public.policies -->
<g id="edge2" class="edge">
<title>public.employee_policies:policy_id&#45;&gt;public.policies:id</title>
<path fill="none" stroke="black" d="M730.92,-711.37C770.18,-702.47 735.92,-637.46 719.71,-589.2 694.34,-513.67 638.13,-520.9 612.67,-445.4 599.29,-405.73 569.8,-351.2 611.67,-351.2"/>
<polygon fill="black" stroke="black" points="730.99,-711.37 720.59,-707.89 725.68,-711.9 721.37,-712.33 721.37,-712.33 721.37,-712.33 725.68,-711.9 721.49,-716.84 730.99,-711.37"/>
<text text-anchor="start" x="727.71" y="-722.4" font-family="Arial" font-size="10.00">FOREIGN KEY (policy_id) REFERENCES policies(id) ON DELETE CASCADE</text>
</g>
</g>
</svg>
