<?xml version="1.0" encoding="UTF-8" standalone="no"?>
<!DOCTYPE svg PUBLIC "-//W3C//DTD SVG 1.1//EN"
 "http://www.w3.org/Graphics/SVG/1.1/DTD/svg11.dtd">
<!-- Generated by graphviz version 12.1.2 (20240928.0832)
 -->
<!-- Title: public.tools Pages: 1 -->
<svg width="669pt" height="664pt"
 viewBox="0.00 0.00 668.55 663.60" xmlns="http://www.w3.org/2000/svg" xmlns:xlink="http://www.w3.org/1999/xlink">
<g id="graph0" class="graph" transform="scale(1 1) rotate(0) translate(4 659.6)">
<title>public.tools</title>
<polygon fill="white" stroke="none" points="-4,4 -4,-659.6 664.55,-659.6 664.55,4 -4,4"/>
<!-- public.tools -->
<g id="node1" class="node">
<title>public.tools</title>
<polygon fill="#efefef" stroke="none" points="46.2,-292.6 46.2,-328.2 319.34,-328.2 319.34,-292.6 46.2,-292.6"/>
<polygon fill="none" stroke="black" points="46.2,-292.6 46.2,-328.2 319.34,-328.2 319.34,-292.6 46.2,-292.6"/>
<text text-anchor="start" x="78.28" y="-306" font-family="Arial Bold" font-size="18.00">public.tools</text>
<text text-anchor="start" x="162.78" y="-306" font-family="Arial" font-size="14.00">    </text>
<text text-anchor="start" x="193.89" y="-306" font-family="Arial" font-size="14.00" fill="#666666">[BASE TABLE]</text>
<polygon fill="none" stroke="black" points="46.2,-261.8 46.2,-292.6 319.34,-292.6 319.34,-261.8 46.2,-261.8"/>
<text text-anchor="start" x="53.2" y="-274" font-family="Arial" font-size="14.00">id </text>
<text text-anchor="start" x="67.99" y="-274" font-family="Arial" font-size="14.00" fill="#666666">[uuid]</text>
<polygon fill="none" stroke="black" points="46.2,-231 46.2,-261.8 319.34,-261.8 319.34,-231 46.2,-231"/>
<text text-anchor="start" x="53.2" y="-243.2" font-family="Arial" font-size="14.00">name </text>
<text text-anchor="start" x="92.11" y="-243.2" font-family="Arial" font-size="14.00" fill="#666666">[varchar(100)]</text>
<polygon fill="none" stroke="black" points="46.2,-200.2 46.2,-231 319.34,-231 319.34,-200.2 46.2,-200.2"/>
<text text-anchor="start" x="53.2" y="-212.4" font-family="Arial" font-size="14.00">type </text>
<text text-anchor="start" x="83.55" y="-212.4" font-family="Arial" font-size="14.00" fill="#666666">[varchar(50)]</text>
<polygon fill="none" stroke="black" points="46.2,-169.4 46.2,-200.2 319.34,-200.2 319.34,-169.4 46.2,-169.4"/>
<text text-anchor="start" x="53.2" y="-181.6" font-family="Arial" font-size="14.00">description </text>
<text text-anchor="start" x="124.79" y="-181.6" font-family="Arial" font-size="14.00" fill="#666666">[text]</text>
<polygon fill="none" stroke="black" points="46.2,-138.6 46.2,-169.4 319.34,-169.4 319.34,-138.6 46.2,-138.6"/>
<text text-anchor="start" x="53.2" y="-150.8" font-family="Arial" font-size="14.00">schema </text>
<text text-anchor="start" x="106.11" y="-150.8" font-family="Arial" font-size="14.00" fill="#666666">[jsonb]</text>
<polygon fill="none" stroke="black" points="46.2,-107.8 46.2,-138.6 319.34,-138.6 319.34,-107.8 46.2,-107.8"/>
<text text-anchor="start" x="53.2" y="-120" font-family="Arial" font-size="14.00">requires_approval </text>
<text text-anchor="start" x="169.16" y="-120" font-family="Arial" font-size="14.00" fill="#666666">[boolean]</text>
<polygon fill="none" stroke="black" points="46.2,-77 46.2,-107.8 319.34,-107.8 319.34,-77 46.2,-77"/>
<text text-anchor="start" x="53.2" y="-89.2" font-family="Arial" font-size="14.00">created_at </text>
<text text-anchor="start" x="123.25" y="-89.2" font-family="Arial" font-size="14.00" fill="#666666">[timestamp without time zone]</text>
<polygon fill="none" stroke="black" points="46.2,-46.2 46.2,-77 319.34,-77 319.34,-46.2 46.2,-46.2"/>
<text text-anchor="start" x="53.2" y="-58.4" font-family="Arial" font-size="14.00">updated_at </text>
<text text-anchor="start" x="127.16" y="-58.4" font-family="Arial" font-size="14.00" fill="#666666">[timestamp without time zone]</text>
<polygon fill="none" stroke="black" stroke-width="3" points="44.7,-44.7 44.7,-329.7 320.84,-329.7 320.84,-44.7 44.7,-44.7"/>
</g>
<!-- public.agent_tools -->
<g id="node2" class="node">
<title>public.agent_tools</title>
<polygon fill="#efefef" stroke="none" points="47.29,-576.8 47.29,-612.4 318.26,-612.4 318.26,-576.8 47.29,-576.8"/>
<polygon fill="none" stroke="black" points="47.29,-576.8 47.29,-612.4 318.26,-612.4 318.26,-576.8 47.29,-576.8"/>
<text text-anchor="start" x="54.29" y="-590.2" font-family="Arial Bold" font-size="18.00">public.agent_tools</text>
<text text-anchor="start" x="186.77" y="-590.2" font-family="Arial" font-size="14.00">    </text>
<text text-anchor="start" x="217.88" y="-590.2" font-family="Arial" font-size="14.00" fill="#666666">[BASE TABLE]</text>
<polygon fill="none" stroke="black" points="47.29,-546 47.29,-576.8 318.26,-576.8 318.26,-546 47.29,-546"/>
<text text-anchor="start" x="54.29" y="-558.2" font-family="Arial" font-size="14.00">agent_id </text>
<text text-anchor="start" x="111.89" y="-558.2" font-family="Arial" font-size="14.00" fill="#666666">[uuid]</text>
<polygon fill="none" stroke="black" points="47.29,-515.2 47.29,-546 318.26,-546 318.26,-515.2 47.29,-515.2"/>
<text text-anchor="start" x="54.29" y="-527.4" font-family="Arial" font-size="14.00">tool_id </text>
<text text-anchor="start" x="99.43" y="-527.4" font-family="Arial" font-size="14.00" fill="#666666">[uuid]</text>
<polygon fill="none" stroke="black" points="47.29,-484.4 47.29,-515.2 318.26,-515.2 318.26,-484.4 47.29,-484.4"/>
<text text-anchor="start" x="54.29" y="-496.6" font-family="Arial" font-size="14.00">config </text>
<text text-anchor="start" x="95.54" y="-496.6" font-family="Arial" font-size="14.00" fill="#666666">[jsonb]</text>
<polygon fill="none" stroke="black" points="47.29,-453.6 47.29,-484.4 318.26,-484.4 318.26,-453.6 47.29,-453.6"/>
<text text-anchor="start" x="54.29" y="-465.8" font-family="Arial" font-size="14.00">created_at </text>
<text text-anchor="start" x="124.34" y="-465.8" font-family="Arial" font-size="14.00" fill="#666666">[timestamp without time zone]</text>
</g>
<!-- public.agent_tools&#45;&gt;public.tools -->
<g id="edge1" class="edge">
<title>public.agent_tools:tool_id&#45;&gt;public.tools:id</title>
<path fill="none" stroke="black" d="M329.17,-527.75C375.48,-499.91 373.14,-277.2 320.34,-277.2"/>
<polygon fill="black" stroke="black" points="329.19,-527.75 318.33,-526.18 324.06,-529.22 319.9,-530.42 319.9,-530.42 319.9,-530.42 324.06,-529.22 320.82,-534.83 329.19,-527.75"/>
<text text-anchor="start" x="326.26" y="-540.6" font-family="Arial" font-size="10.00">FOREIGN KEY (tool_id) REFERENCES tools(id) ON DELETE CASCADE</text>
</g>
</g>
</svg>
