<?xml version="1.0" encoding="UTF-8" standalone="no"?>
<!DOCTYPE svg PUBLIC "-//W3C//DTD SVG 1.1//EN"
 "http://www.w3.org/Graphics/SVG/1.1/DTD/svg11.dtd">
<!-- Generated by graphviz version 12.1.2 (20240928.0832)
 -->
<!-- Title: public.teams Pages: 1 -->
<svg width="1233pt" height="1314pt"
 viewBox="0.00 0.00 1232.79 1314.40" xmlns="http://www.w3.org/2000/svg" xmlns:xlink="http://www.w3.org/1999/xlink">
<g id="graph0" class="graph" transform="scale(1 1) rotate(0) translate(4 1310.4)">
<title>public.teams</title>
<polygon fill="white" stroke="none" points="-4,4 -4,-1310.4 1228.79,-1310.4 1228.79,4 -4,4"/>
<!-- public.teams -->
<g id="node1" class="node">
<title>public.teams</title>
<polygon fill="#efefef" stroke="none" points="463.55,-666.2 463.55,-701.8 736.69,-701.8 736.69,-666.2 463.55,-666.2"/>
<polygon fill="none" stroke="black" points="463.55,-666.2 463.55,-701.8 736.69,-701.8 736.69,-666.2 463.55,-666.2"/>
<text text-anchor="start" x="492.14" y="-679.6" font-family="Arial Bold" font-size="18.00">public.teams</text>
<text text-anchor="start" x="583.61" y="-679.6" font-family="Arial" font-size="14.00">    </text>
<text text-anchor="start" x="614.73" y="-679.6" font-family="Arial" font-size="14.00" fill="#666666">[BASE TABLE]</text>
<polygon fill="none" stroke="black" points="463.55,-635.4 463.55,-666.2 736.69,-666.2 736.69,-635.4 463.55,-635.4"/>
<text text-anchor="start" x="470.55" y="-647.6" font-family="Arial" font-size="14.00">id </text>
<text text-anchor="start" x="485.33" y="-647.6" font-family="Arial" font-size="14.00" fill="#666666">[uuid]</text>
<polygon fill="none" stroke="black" points="463.55,-604.6 463.55,-635.4 736.69,-635.4 736.69,-604.6 463.55,-604.6"/>
<text text-anchor="start" x="470.55" y="-616.8" font-family="Arial" font-size="14.00">org_id </text>
<text text-anchor="start" x="513.36" y="-616.8" font-family="Arial" font-size="14.00" fill="#666666">[uuid]</text>
<polygon fill="none" stroke="black" points="463.55,-573.8 463.55,-604.6 736.69,-604.6 736.69,-573.8 463.55,-573.8"/>
<text text-anchor="start" x="470.55" y="-586" font-family="Arial" font-size="14.00">name </text>
<text text-anchor="start" x="509.46" y="-586" font-family="Arial" font-size="14.00" fill="#666666">[varchar(255)]</text>
<polygon fill="none" stroke="black" points="463.55,-543 463.55,-573.8 736.69,-573.8 736.69,-543 463.55,-543"/>
<text text-anchor="start" x="470.55" y="-555.2" font-family="Arial" font-size="14.00">description </text>
<text text-anchor="start" x="542.14" y="-555.2" font-family="Arial" font-size="14.00" fill="#666666">[text]</text>
<polygon fill="none" stroke="black" points="463.55,-512.2 463.55,-543 736.69,-543 736.69,-512.2 463.55,-512.2"/>
<text text-anchor="start" x="470.55" y="-524.4" font-family="Arial" font-size="14.00">created_at </text>
<text text-anchor="start" x="540.6" y="-524.4" font-family="Arial" font-size="14.00" fill="#666666">[timestamp without time zone]</text>
<polygon fill="none" stroke="black" points="463.55,-481.4 463.55,-512.2 736.69,-512.2 736.69,-481.4 463.55,-481.4"/>
<text text-anchor="start" x="470.55" y="-493.6" font-family="Arial" font-size="14.00">updated_at </text>
<text text-anchor="start" x="544.51" y="-493.6" font-family="Arial" font-size="14.00" fill="#666666">[timestamp without time zone]</text>
<polygon fill="none" stroke="black" stroke-width="3" points="462.05,-479.9 462.05,-703.3 738.19,-703.3 738.19,-479.9 462.05,-479.9"/>
</g>
<!-- public.organizations -->
<g id="node5" class="node">
<title>public.organizations</title>
<polygon fill="#efefef" stroke="none" points="457.65,-320.4 457.65,-356 742.6,-356 742.6,-320.4 457.65,-320.4"/>
<polygon fill="none" stroke="black" points="457.65,-320.4 457.65,-356 742.6,-356 742.6,-320.4 457.65,-320.4"/>
<text text-anchor="start" x="464.65" y="-333.8" font-family="Arial Bold" font-size="18.00">public.organizations</text>
<text text-anchor="start" x="611.11" y="-333.8" font-family="Arial" font-size="14.00">    </text>
<text text-anchor="start" x="642.22" y="-333.8" font-family="Arial" font-size="14.00" fill="#666666">[BASE TABLE]</text>
<polygon fill="none" stroke="black" points="457.65,-289.6 457.65,-320.4 742.6,-320.4 742.6,-289.6 457.65,-289.6"/>
<text text-anchor="start" x="464.65" y="-301.8" font-family="Arial" font-size="14.00">id </text>
<text text-anchor="start" x="479.43" y="-301.8" font-family="Arial" font-size="14.00" fill="#666666">[uuid]</text>
<polygon fill="none" stroke="black" points="457.65,-258.8 457.65,-289.6 742.6,-289.6 742.6,-258.8 457.65,-258.8"/>
<text text-anchor="start" x="464.65" y="-271" font-family="Arial" font-size="14.00">name </text>
<text text-anchor="start" x="503.56" y="-271" font-family="Arial" font-size="14.00" fill="#666666">[varchar(255)]</text>
<polygon fill="none" stroke="black" points="457.65,-228 457.65,-258.8 742.6,-258.8 742.6,-228 457.65,-228"/>
<text text-anchor="start" x="464.65" y="-240.2" font-family="Arial" font-size="14.00">slug </text>
<text text-anchor="start" x="494.22" y="-240.2" font-family="Arial" font-size="14.00" fill="#666666">[varchar(100)]</text>
<polygon fill="none" stroke="black" points="457.65,-197.2 457.65,-228 742.6,-228 742.6,-197.2 457.65,-197.2"/>
<text text-anchor="start" x="464.65" y="-209.4" font-family="Arial" font-size="14.00">plan </text>
<text text-anchor="start" x="495" y="-209.4" font-family="Arial" font-size="14.00" fill="#666666">[varchar(50)]</text>
<polygon fill="none" stroke="black" points="457.65,-166.4 457.65,-197.2 742.6,-197.2 742.6,-166.4 457.65,-166.4"/>
<text text-anchor="start" x="464.65" y="-178.6" font-family="Arial" font-size="14.00">settings </text>
<text text-anchor="start" x="516.78" y="-178.6" font-family="Arial" font-size="14.00" fill="#666666">[jsonb]</text>
<polygon fill="none" stroke="black" points="457.65,-135.6 457.65,-166.4 742.6,-166.4 742.6,-135.6 457.65,-135.6"/>
<text text-anchor="start" x="464.65" y="-147.8" font-family="Arial" font-size="14.00">max_employees </text>
<text text-anchor="start" x="570.47" y="-147.8" font-family="Arial" font-size="14.00" fill="#666666">[integer]</text>
<polygon fill="none" stroke="black" points="457.65,-104.8 457.65,-135.6 742.6,-135.6 742.6,-104.8 457.65,-104.8"/>
<text text-anchor="start" x="464.65" y="-117" font-family="Arial" font-size="14.00">max_agents_per_employee </text>
<text text-anchor="start" x="641.31" y="-117" font-family="Arial" font-size="14.00" fill="#666666">[integer]</text>
<polygon fill="none" stroke="black" points="457.65,-74 457.65,-104.8 742.6,-104.8 742.6,-74 457.65,-74"/>
<text text-anchor="start" x="464.65" y="-86.2" font-family="Arial" font-size="14.00">created_at </text>
<text text-anchor="start" x="534.69" y="-86.2" font-family="Arial" font-size="14.00" fill="#666666">[timestamp without time zone]</text>
<polygon fill="none" stroke="black" points="457.65,-43.2 457.65,-74 742.6,-74 742.6,-43.2 457.65,-43.2"/>
<text text-anchor="start" x="464.65" y="-55.4" font-family="Arial" font-size="14.00">updated_at </text>
<text text-anchor="start" x="538.6" y="-55.4" font-family="Arial" font-size="14.00" fill="#666666">[timestamp without time zone]</text>
</g>
<!-- public.teams&#45;&gt;public.organizations -->
<g id="edge4" class="edge">
<title>public.teams:org_id&#45;&gt;public.organizations:id</title>
<path fill="none" stroke="black" d="M748.1,-619.4C877.92,-604.21 880.06,-305 743.6,-305"/>
<polygon fill="black" stroke="black" points="748.01,-619.41 737.77,-615.49 742.68,-619.71 738.36,-619.96 738.36,-619.96 738.36,-619.96 742.68,-619.71 738.28,-624.47 748.01,-619.41"/>
<text text-anchor="start" x="744.69" y="-630" font-family="Arial" font-size="10.00">FOREIGN KEY (org_id) REFERENCES organizations(id) ON DELETE CASCADE</text>
</g>
<!-- public.employees -->
<g id="node2" class="node">
<title>public.employees</title>
<polygon fill="#efefef" stroke="none" points="70.28,-1227.6 70.28,-1263.2 351.96,-1263.2 351.96,-1227.6 70.28,-1227.6"/>
<polygon fill="none" stroke="black" points="70.28,-1227.6 70.28,-1263.2 351.96,-1263.2 351.96,-1227.6 70.28,-1227.6"/>
<text text-anchor="start" x="85.64" y="-1241" font-family="Arial Bold" font-size="18.00">public.employees</text>
<text text-anchor="start" x="212.11" y="-1241" font-family="Arial" font-size="14.00">    </text>
<text text-anchor="start" x="243.23" y="-1241" font-family="Arial" font-size="14.00" fill="#666666">[BASE TABLE]</text>
<polygon fill="none" stroke="black" points="70.28,-1196.8 70.28,-1227.6 351.96,-1227.6 351.96,-1196.8 70.28,-1196.8"/>
<text text-anchor="start" x="77.28" y="-1209" font-family="Arial" font-size="14.00">id </text>
<text text-anchor="start" x="92.06" y="-1209" font-family="Arial" font-size="14.00" fill="#666666">[uuid]</text>
<polygon fill="none" stroke="black" points="70.28,-1166 70.28,-1196.8 351.96,-1196.8 351.96,-1166 70.28,-1166"/>
<text text-anchor="start" x="77.28" y="-1178.2" font-family="Arial" font-size="14.00">org_id </text>
<text text-anchor="start" x="120.08" y="-1178.2" font-family="Arial" font-size="14.00" fill="#666666">[uuid]</text>
<polygon fill="none" stroke="black" points="70.28,-1135.2 70.28,-1166 351.96,-1166 351.96,-1135.2 70.28,-1135.2"/>
<text text-anchor="start" x="77.28" y="-1147.4" font-family="Arial" font-size="14.00">team_id </text>
<text text-anchor="start" x="130.97" y="-1147.4" font-family="Arial" font-size="14.00" fill="#666666">[uuid]</text>
<polygon fill="none" stroke="black" points="70.28,-1104.4 70.28,-1135.2 351.96,-1135.2 351.96,-1104.4 70.28,-1104.4"/>
<text text-anchor="start" x="77.28" y="-1116.6" font-family="Arial" font-size="14.00">role_id </text>
<text text-anchor="start" x="123.19" y="-1116.6" font-family="Arial" font-size="14.00" fill="#666666">[uuid]</text>
<polygon fill="none" stroke="black" points="70.28,-1073.6 70.28,-1104.4 351.96,-1104.4 351.96,-1073.6 70.28,-1073.6"/>
<text text-anchor="start" x="77.28" y="-1085.8" font-family="Arial" font-size="14.00">email </text>
<text text-anchor="start" x="114.62" y="-1085.8" font-family="Arial" font-size="14.00" fill="#666666">[varchar(255)]</text>
<polygon fill="none" stroke="black" points="70.28,-1042.8 70.28,-1073.6 351.96,-1073.6 351.96,-1042.8 70.28,-1042.8"/>
<text text-anchor="start" x="77.28" y="-1055" font-family="Arial" font-size="14.00">full_name </text>
<text text-anchor="start" x="141.87" y="-1055" font-family="Arial" font-size="14.00" fill="#666666">[varchar(255)]</text>
<polygon fill="none" stroke="black" points="70.28,-1012 70.28,-1042.8 351.96,-1042.8 351.96,-1012 70.28,-1012"/>
<text text-anchor="start" x="77.28" y="-1024.2" font-family="Arial" font-size="14.00">password_hash </text>
<text text-anchor="start" x="179.23" y="-1024.2" font-family="Arial" font-size="14.00" fill="#666666">[varchar(255)]</text>
<polygon fill="none" stroke="black" points="70.28,-981.2 70.28,-1012 351.96,-1012 351.96,-981.2 70.28,-981.2"/>
<text text-anchor="start" x="77.28" y="-993.4" font-family="Arial" font-size="14.00">status </text>
<text text-anchor="start" x="118.52" y="-993.4" font-family="Arial" font-size="14.00" fill="#666666">[varchar(50)]</text>
<polygon fill="none" stroke="black" points="70.28,-950.4 70.28,-981.2 351.96,-981.2 351.96,-950.4 70.28,-950.4"/>
<text text-anchor="start" x="77.28" y="-962.6" font-family="Arial" font-size="14.00">preferences </text>
<text text-anchor="start" x="155.1" y="-962.6" font-family="Arial" font-size="14.00" fill="#666666">[jsonb]</text>
<polygon fill="none" stroke="black" points="70.28,-919.6 70.28,-950.4 351.96,-950.4 351.96,-919.6 70.28,-919.6"/>
<text text-anchor="start" x="77.28" y="-931.8" font-family="Arial" font-size="14.00">last_login_at </text>
<text text-anchor="start" x="159.78" y="-931.8" font-family="Arial" font-size="14.00" fill="#666666">[timestamp without time zone]</text>
<polygon fill="none" stroke="black" points="70.28,-888.8 70.28,-919.6 351.96,-919.6 351.96,-888.8 70.28,-888.8"/>
<text text-anchor="start" x="77.28" y="-901" font-family="Arial" font-size="14.00">created_at </text>
<text text-anchor="start" x="147.32" y="-901" font-family="Arial" font-size="14.00" fill="#666666">[timestamp without time zone]</text>
<polygon fill="none" stroke="black" points="70.28,-858 70.28,-888.8 351.96,-888.8 351.96,-858 70.28,-858"/>
<text text-anchor="start" x="77.28" y="-870.2" font-family="Arial" font-size="14.00">updated_at </text>
<text text-anchor="start" x="151.23" y="-870.2" font-family="Arial" font-size="14.00" fill="#666666">[timestamp without time zone]</text>
<polygon fill="none" stroke="black" points="70.28,-827.2 70.28,-858 351.96,-858 351.96,-827.2 70.28,-827.2"/>
<text text-anchor="start" x="77.28" y="-839.4" font-family="Arial" font-size="14.00">deleted_at </text>
<text text-anchor="start" x="146.56" y="-839.4" font-family="Arial" font-size="14.00" fill="#666666">[timestamp without time zone]</text>
</g>
<!-- public.employees&#45;&gt;public.teams -->
<g id="edge1" class="edge">
<title>public.employees:team_id&#45;&gt;public.teams:id</title>
<path fill="none" stroke="black" d="M363.25,-1148.9C430.57,-1125.19 382.71,-859.59 404.12,-784 421.74,-721.8 397.9,-650.8 462.55,-650.8"/>
<polygon fill="black" stroke="black" points="363.16,-1148.92 352.56,-1146.11 357.9,-1149.79 353.62,-1150.49 353.62,-1150.49 353.62,-1150.49 357.9,-1149.79 354.03,-1154.99 363.16,-1148.92"/>
<text text-anchor="start" x="7" y="-1160.6" font-family="Arial" font-size="10.00">FOREIGN KEY (team_id) REFERENCES teams(id) ON DELETE SET NULL</text>
</g>
<!-- public.team_policies -->
<g id="node3" class="node">
<title>public.team_policies</title>
<polygon fill="#efefef" stroke="none" points="456.15,-1104.4 456.15,-1140 744.09,-1140 744.09,-1104.4 456.15,-1104.4"/>
<polygon fill="none" stroke="black" points="456.15,-1104.4 456.15,-1140 744.09,-1140 744.09,-1104.4 456.15,-1104.4"/>
<text text-anchor="start" x="463.15" y="-1117.8" font-family="Arial Bold" font-size="18.00">public.team_policies</text>
<text text-anchor="start" x="612.6" y="-1117.8" font-family="Arial" font-size="14.00">    </text>
<text text-anchor="start" x="643.72" y="-1117.8" font-family="Arial" font-size="14.00" fill="#666666">[BASE TABLE]</text>
<polygon fill="none" stroke="black" points="456.15,-1073.6 456.15,-1104.4 744.09,-1104.4 744.09,-1073.6 456.15,-1073.6"/>
<text text-anchor="start" x="463.15" y="-1085.8" font-family="Arial" font-size="14.00">id </text>
<text text-anchor="start" x="477.93" y="-1085.8" font-family="Arial" font-size="14.00" fill="#666666">[uuid]</text>
<polygon fill="none" stroke="black" points="456.15,-1042.8 456.15,-1073.6 744.09,-1073.6 744.09,-1042.8 456.15,-1042.8"/>
<text text-anchor="start" x="463.15" y="-1055" font-family="Arial" font-size="14.00">team_id </text>
<text text-anchor="start" x="516.84" y="-1055" font-family="Arial" font-size="14.00" fill="#666666">[uuid]</text>
<polygon fill="none" stroke="black" points="456.15,-1012 456.15,-1042.8 744.09,-1042.8 744.09,-1012 456.15,-1012"/>
<text text-anchor="start" x="463.15" y="-1024.2" font-family="Arial" font-size="14.00">policy_id </text>
<text text-anchor="start" x="521.51" y="-1024.2" font-family="Arial" font-size="14.00" fill="#666666">[uuid]</text>
<polygon fill="none" stroke="black" points="456.15,-981.2 456.15,-1012 744.09,-1012 744.09,-981.2 456.15,-981.2"/>
<text text-anchor="start" x="463.15" y="-993.4" font-family="Arial" font-size="14.00">overrides </text>
<text text-anchor="start" x="524.62" y="-993.4" font-family="Arial" font-size="14.00" fill="#666666">[jsonb]</text>
<polygon fill="none" stroke="black" points="456.15,-950.4 456.15,-981.2 744.09,-981.2 744.09,-950.4 456.15,-950.4"/>
<text text-anchor="start" x="463.15" y="-962.6" font-family="Arial" font-size="14.00">created_at </text>
<text text-anchor="start" x="533.19" y="-962.6" font-family="Arial" font-size="14.00" fill="#666666">[timestamp without time zone]</text>
</g>
<!-- public.team_policies&#45;&gt;public.teams -->
<g id="edge2" class="edge">
<title>public.team_policies:team_id&#45;&gt;public.teams:id</title>
<path fill="none" stroke="black" d="M753.65,-1052.75C789.18,-1004.4 779.87,-650.8 737.69,-650.8"/>
<polygon fill="black" stroke="black" points="753.81,-1052.64 742.96,-1054.23 749.31,-1055.51 745.66,-1057.84 745.66,-1057.84 745.66,-1057.84 749.31,-1055.51 747.8,-1061.81 753.81,-1052.64"/>
<text text-anchor="start" x="575.34" y="-1042.2" font-family="Arial" font-size="10.00">FOREIGN KEY (team_id) REFERENCES teams(id) ON DELETE CASCADE</text>
</g>
<!-- public.team_agent_configs -->
<g id="node4" class="node">
<title>public.team_agent_configs</title>
<polygon fill="#efefef" stroke="none" points="848.66,-1135.2 848.66,-1170.8 1181.59,-1170.8 1181.59,-1135.2 848.66,-1135.2"/>
<polygon fill="none" stroke="black" points="848.66,-1135.2 848.66,-1170.8 1181.59,-1170.8 1181.59,-1135.2 848.66,-1135.2"/>
<text text-anchor="start" x="855.66" y="-1148.6" font-family="Arial Bold" font-size="18.00">public.team_agent_configs</text>
<text text-anchor="start" x="1050.1" y="-1148.6" font-family="Arial" font-size="14.00">    </text>
<text text-anchor="start" x="1081.21" y="-1148.6" font-family="Arial" font-size="14.00" fill="#666666">[BASE TABLE]</text>
<polygon fill="none" stroke="black" points="848.66,-1104.4 848.66,-1135.2 1181.59,-1135.2 1181.59,-1104.4 848.66,-1104.4"/>
<text text-anchor="start" x="855.66" y="-1116.6" font-family="Arial" font-size="14.00">id </text>
<text text-anchor="start" x="870.44" y="-1116.6" font-family="Arial" font-size="14.00" fill="#666666">[uuid]</text>
<polygon fill="none" stroke="black" points="848.66,-1073.6 848.66,-1104.4 1181.59,-1104.4 1181.59,-1073.6 848.66,-1073.6"/>
<text text-anchor="start" x="855.66" y="-1085.8" font-family="Arial" font-size="14.00">team_id </text>
<text text-anchor="start" x="909.35" y="-1085.8" font-family="Arial" font-size="14.00" fill="#666666">[uuid]</text>
<polygon fill="none" stroke="black" points="848.66,-1042.8 848.66,-1073.6 1181.59,-1073.6 1181.59,-1042.8 848.66,-1042.8"/>
<text text-anchor="start" x="855.66" y="-1055" font-family="Arial" font-size="14.00">agent_id </text>
<text text-anchor="start" x="913.26" y="-1055" font-family="Arial" font-size="14.00" fill="#666666">[uuid]</text>
<polygon fill="none" stroke="black" points="848.66,-1012 848.66,-1042.8 1181.59,-1042.8 1181.59,-1012 848.66,-1012"/>
<text text-anchor="start" x="855.66" y="-1024.2" font-family="Arial" font-size="14.00">config_override </text>
<text text-anchor="start" x="955.27" y="-1024.2" font-family="Arial" font-size="14.00" fill="#666666">[jsonb]</text>
<polygon fill="none" stroke="black" points="848.66,-981.2 848.66,-1012 1181.59,-1012 1181.59,-981.2 848.66,-981.2"/>
<text text-anchor="start" x="855.66" y="-993.4" font-family="Arial" font-size="14.00">is_enabled </text>
<text text-anchor="start" x="927.27" y="-993.4" font-family="Arial" font-size="14.00" fill="#666666">[boolean]</text>
<polygon fill="none" stroke="black" points="848.66,-950.4 848.66,-981.2 1181.59,-981.2 1181.59,-950.4 848.66,-950.4"/>
<text text-anchor="start" x="855.66" y="-962.6" font-family="Arial" font-size="14.00">created_at </text>
<text text-anchor="start" x="925.7" y="-962.6" font-family="Arial" font-size="14.00" fill="#666666">[timestamp without time zone]</text>
<polygon fill="none" stroke="black" points="848.66,-919.6 848.66,-950.4 1181.59,-950.4 1181.59,-919.6 848.66,-919.6"/>
<text text-anchor="start" x="855.66" y="-931.8" font-family="Arial" font-size="14.00">updated_at </text>
<text text-anchor="start" x="929.61" y="-931.8" font-family="Arial" font-size="14.00" fill="#666666">[timestamp without time zone]</text>
</g>
<!-- public.team_agent_configs&#45;&gt;public.teams -->
<g id="edge3" class="edge">
<title>public.team_agent_configs:team_id&#45;&gt;public.teams:id</title>
<path fill="none" stroke="black" d="M837.64,-1087.07C782.65,-1064.26 814.76,-846.39 796.12,-784 777.61,-722.06 802.34,-650.8 737.69,-650.8"/>
<polygon fill="black" stroke="black" points="837.51,-1087.04 846.47,-1093.35 842.75,-1088.05 847,-1088.87 847,-1088.87 847,-1088.87 842.75,-1088.05 848.18,-1084.52 837.51,-1087.04"/>
<text text-anchor="start" x="501.14" y="-1099" font-family="Arial" font-size="10.00">FOREIGN KEY (team_id) REFERENCES teams(id) ON DELETE CASCADE</text>
</g>
</g>
</svg>
