<?xml version="1.0" encoding="UTF-8" standalone="no"?>
<!DOCTYPE svg PUBLIC "-//W3C//DTD SVG 1.1//EN"
 "http://www.w3.org/Graphics/SVG/1.1/DTD/svg11.dtd">
<!-- Generated by graphviz version 12.1.2 (20240928.0832)
 -->
<!-- Title: public.teams Pages: 1 -->
<svg width="1206pt" height="1376pt"
 viewBox="0.00 0.00 1205.71 1376.00" xmlns="http://www.w3.org/2000/svg" xmlns:xlink="http://www.w3.org/1999/xlink">
<g id="graph0" class="graph" transform="scale(1 1) rotate(0) translate(4 1372)">
<title>public.teams</title>
<polygon fill="white" stroke="none" points="-4,4 -4,-1372 1201.71,-1372 1201.71,4 -4,4"/>
<!-- public.teams -->
<g id="node1" class="node">
<title>public.teams</title>
<polygon fill="#efefef" stroke="none" points="436.47,-697 436.47,-732.6 709.62,-732.6 709.62,-697 436.47,-697"/>
<polygon fill="none" stroke="black" points="436.47,-697 436.47,-732.6 709.62,-732.6 709.62,-697 436.47,-697"/>
<text text-anchor="start" x="465.06" y="-710.4" font-family="Arial Bold" font-size="18.00">public.teams</text>
<text text-anchor="start" x="556.54" y="-710.4" font-family="Arial" font-size="14.00">    </text>
<text text-anchor="start" x="587.66" y="-710.4" font-family="Arial" font-size="14.00" fill="#666666">[BASE TABLE]</text>
<polygon fill="none" stroke="black" points="436.47,-666.2 436.47,-697 709.62,-697 709.62,-666.2 436.47,-666.2"/>
<text text-anchor="start" x="443.47" y="-678.4" font-family="Arial" font-size="14.00">id </text>
<text text-anchor="start" x="458.26" y="-678.4" font-family="Arial" font-size="14.00" fill="#666666">[uuid]</text>
<polygon fill="none" stroke="black" points="436.47,-635.4 436.47,-666.2 709.62,-666.2 709.62,-635.4 436.47,-635.4"/>
<text text-anchor="start" x="443.47" y="-647.6" font-family="Arial" font-size="14.00">org_id </text>
<text text-anchor="start" x="486.28" y="-647.6" font-family="Arial" font-size="14.00" fill="#666666">[uuid]</text>
<polygon fill="none" stroke="black" points="436.47,-604.6 436.47,-635.4 709.62,-635.4 709.62,-604.6 436.47,-604.6"/>
<text text-anchor="start" x="443.47" y="-616.8" font-family="Arial" font-size="14.00">name </text>
<text text-anchor="start" x="482.38" y="-616.8" font-family="Arial" font-size="14.00" fill="#666666">[varchar(255)]</text>
<polygon fill="none" stroke="black" points="436.47,-573.8 436.47,-604.6 709.62,-604.6 709.62,-573.8 436.47,-573.8"/>
<text text-anchor="start" x="443.47" y="-586" font-family="Arial" font-size="14.00">description </text>
<text text-anchor="start" x="515.07" y="-586" font-family="Arial" font-size="14.00" fill="#666666">[text]</text>
<polygon fill="none" stroke="black" points="436.47,-543 436.47,-573.8 709.62,-573.8 709.62,-543 436.47,-543"/>
<text text-anchor="start" x="443.47" y="-555.2" font-family="Arial" font-size="14.00">created_at </text>
<text text-anchor="start" x="513.52" y="-555.2" font-family="Arial" font-size="14.00" fill="#666666">[timestamp without time zone]</text>
<polygon fill="none" stroke="black" points="436.47,-512.2 436.47,-543 709.62,-543 709.62,-512.2 436.47,-512.2"/>
<text text-anchor="start" x="443.47" y="-524.4" font-family="Arial" font-size="14.00">updated_at </text>
<text text-anchor="start" x="517.43" y="-524.4" font-family="Arial" font-size="14.00" fill="#666666">[timestamp without time zone]</text>
<polygon fill="none" stroke="black" stroke-width="3" points="434.97,-510.7 434.97,-734.1 711.12,-734.1 711.12,-510.7 434.97,-510.7"/>
</g>
<!-- public.organizations -->
<g id="node5" class="node">
<title>public.organizations</title>
<polygon fill="#efefef" stroke="none" points="430.57,-351.2 430.57,-386.8 715.52,-386.8 715.52,-351.2 430.57,-351.2"/>
<polygon fill="none" stroke="black" points="430.57,-351.2 430.57,-386.8 715.52,-386.8 715.52,-351.2 430.57,-351.2"/>
<text text-anchor="start" x="437.57" y="-364.6" font-family="Arial Bold" font-size="18.00">public.organizations</text>
<text text-anchor="start" x="584.03" y="-364.6" font-family="Arial" font-size="14.00">    </text>
<text text-anchor="start" x="615.15" y="-364.6" font-family="Arial" font-size="14.00" fill="#666666">[BASE TABLE]</text>
<polygon fill="none" stroke="black" points="430.57,-320.4 430.57,-351.2 715.52,-351.2 715.52,-320.4 430.57,-320.4"/>
<text text-anchor="start" x="437.57" y="-332.6" font-family="Arial" font-size="14.00">id </text>
<text text-anchor="start" x="452.36" y="-332.6" font-family="Arial" font-size="14.00" fill="#666666">[uuid]</text>
<polygon fill="none" stroke="black" points="430.57,-289.6 430.57,-320.4 715.52,-320.4 715.52,-289.6 430.57,-289.6"/>
<text text-anchor="start" x="437.57" y="-301.8" font-family="Arial" font-size="14.00">name </text>
<text text-anchor="start" x="476.48" y="-301.8" font-family="Arial" font-size="14.00" fill="#666666">[varchar(255)]</text>
<polygon fill="none" stroke="black" points="430.57,-258.8 430.57,-289.6 715.52,-289.6 715.52,-258.8 430.57,-258.8"/>
<text text-anchor="start" x="437.57" y="-271" font-family="Arial" font-size="14.00">slug </text>
<text text-anchor="start" x="467.14" y="-271" font-family="Arial" font-size="14.00" fill="#666666">[varchar(100)]</text>
<polygon fill="none" stroke="black" points="430.57,-228 430.57,-258.8 715.52,-258.8 715.52,-228 430.57,-228"/>
<text text-anchor="start" x="437.57" y="-240.2" font-family="Arial" font-size="14.00">plan </text>
<text text-anchor="start" x="467.93" y="-240.2" font-family="Arial" font-size="14.00" fill="#666666">[varchar(50)]</text>
<polygon fill="none" stroke="black" points="430.57,-197.2 430.57,-228 715.52,-228 715.52,-197.2 430.57,-197.2"/>
<text text-anchor="start" x="437.57" y="-209.4" font-family="Arial" font-size="14.00">settings </text>
<text text-anchor="start" x="489.71" y="-209.4" font-family="Arial" font-size="14.00" fill="#666666">[jsonb]</text>
<polygon fill="none" stroke="black" points="430.57,-166.4 430.57,-197.2 715.52,-197.2 715.52,-166.4 430.57,-166.4"/>
<text text-anchor="start" x="437.57" y="-178.6" font-family="Arial" font-size="14.00">max_employees </text>
<text text-anchor="start" x="543.4" y="-178.6" font-family="Arial" font-size="14.00" fill="#666666">[integer]</text>
<polygon fill="none" stroke="black" points="430.57,-135.6 430.57,-166.4 715.52,-166.4 715.52,-135.6 430.57,-135.6"/>
<text text-anchor="start" x="437.57" y="-147.8" font-family="Arial" font-size="14.00">max_agents_per_employee </text>
<text text-anchor="start" x="614.24" y="-147.8" font-family="Arial" font-size="14.00" fill="#666666">[integer]</text>
<polygon fill="none" stroke="black" points="430.57,-104.8 430.57,-135.6 715.52,-135.6 715.52,-104.8 430.57,-104.8"/>
<text text-anchor="start" x="437.57" y="-117" font-family="Arial" font-size="14.00">created_at </text>
<text text-anchor="start" x="507.62" y="-117" font-family="Arial" font-size="14.00" fill="#666666">[timestamp without time zone]</text>
<polygon fill="none" stroke="black" points="430.57,-74 430.57,-104.8 715.52,-104.8 715.52,-74 430.57,-74"/>
<text text-anchor="start" x="437.57" y="-86.2" font-family="Arial" font-size="14.00">updated_at </text>
<text text-anchor="start" x="511.53" y="-86.2" font-family="Arial" font-size="14.00" fill="#666666">[timestamp without time zone]</text>
<polygon fill="none" stroke="black" points="430.57,-43.2 430.57,-74 715.52,-74 715.52,-43.2 430.57,-43.2"/>
<text text-anchor="start" x="437.57" y="-55.4" font-family="Arial" font-size="14.00">claude_api_token </text>
<text text-anchor="start" x="551.22" y="-55.4" font-family="Arial" font-size="14.00" fill="#666666">[text]</text>
</g>
<!-- public.teams&#45;&gt;public.organizations -->
<g id="edge4" class="edge">
<title>public.teams:org_id&#45;&gt;public.organizations:id</title>
<path fill="none" stroke="black" d="M721.02,-650.2C850.85,-635.01 852.99,-335.8 716.52,-335.8"/>
<polygon fill="black" stroke="black" points="720.93,-650.21 710.69,-646.29 715.61,-650.51 711.28,-650.76 711.28,-650.76 711.28,-650.76 715.61,-650.51 711.21,-655.27 720.93,-650.21"/>
<text text-anchor="start" x="717.62" y="-660.8" font-family="Arial" font-size="10.00">FOREIGN KEY (org_id) REFERENCES organizations(id) ON DELETE CASCADE</text>
</g>
<!-- public.employees -->
<g id="node2" class="node">
<title>public.employees</title>
<polygon fill="#efefef" stroke="none" points="43.2,-1289.2 43.2,-1324.8 324.89,-1324.8 324.89,-1289.2 43.2,-1289.2"/>
<polygon fill="none" stroke="black" points="43.2,-1289.2 43.2,-1324.8 324.89,-1324.8 324.89,-1289.2 43.2,-1289.2"/>
<text text-anchor="start" x="58.57" y="-1302.6" font-family="Arial Bold" font-size="18.00">public.employees</text>
<text text-anchor="start" x="185.03" y="-1302.6" font-family="Arial" font-size="14.00">    </text>
<text text-anchor="start" x="216.15" y="-1302.6" font-family="Arial" font-size="14.00" fill="#666666">[BASE TABLE]</text>
<polygon fill="none" stroke="black" points="43.2,-1258.4 43.2,-1289.2 324.89,-1289.2 324.89,-1258.4 43.2,-1258.4"/>
<text text-anchor="start" x="50.2" y="-1270.6" font-family="Arial" font-size="14.00">id </text>
<text text-anchor="start" x="64.99" y="-1270.6" font-family="Arial" font-size="14.00" fill="#666666">[uuid]</text>
<polygon fill="none" stroke="black" points="43.2,-1227.6 43.2,-1258.4 324.89,-1258.4 324.89,-1227.6 43.2,-1227.6"/>
<text text-anchor="start" x="50.2" y="-1239.8" font-family="Arial" font-size="14.00">org_id </text>
<text text-anchor="start" x="93.01" y="-1239.8" font-family="Arial" font-size="14.00" fill="#666666">[uuid]</text>
<polygon fill="none" stroke="black" points="43.2,-1196.8 43.2,-1227.6 324.89,-1227.6 324.89,-1196.8 43.2,-1196.8"/>
<text text-anchor="start" x="50.2" y="-1209" font-family="Arial" font-size="14.00">team_id </text>
<text text-anchor="start" x="103.9" y="-1209" font-family="Arial" font-size="14.00" fill="#666666">[uuid]</text>
<polygon fill="none" stroke="black" points="43.2,-1166 43.2,-1196.8 324.89,-1196.8 324.89,-1166 43.2,-1166"/>
<text text-anchor="start" x="50.2" y="-1178.2" font-family="Arial" font-size="14.00">role_id </text>
<text text-anchor="start" x="96.12" y="-1178.2" font-family="Arial" font-size="14.00" fill="#666666">[uuid]</text>
<polygon fill="none" stroke="black" points="43.2,-1135.2 43.2,-1166 324.89,-1166 324.89,-1135.2 43.2,-1135.2"/>
<text text-anchor="start" x="50.2" y="-1147.4" font-family="Arial" font-size="14.00">email </text>
<text text-anchor="start" x="87.54" y="-1147.4" font-family="Arial" font-size="14.00" fill="#666666">[varchar(255)]</text>
<polygon fill="none" stroke="black" points="43.2,-1104.4 43.2,-1135.2 324.89,-1135.2 324.89,-1104.4 43.2,-1104.4"/>
<text text-anchor="start" x="50.2" y="-1116.6" font-family="Arial" font-size="14.00">full_name </text>
<text text-anchor="start" x="114.79" y="-1116.6" font-family="Arial" font-size="14.00" fill="#666666">[varchar(255)]</text>
<polygon fill="none" stroke="black" points="43.2,-1073.6 43.2,-1104.4 324.89,-1104.4 324.89,-1073.6 43.2,-1073.6"/>
<text text-anchor="start" x="50.2" y="-1085.8" font-family="Arial" font-size="14.00">password_hash </text>
<text text-anchor="start" x="152.15" y="-1085.8" font-family="Arial" font-size="14.00" fill="#666666">[varchar(255)]</text>
<polygon fill="none" stroke="black" points="43.2,-1042.8 43.2,-1073.6 324.89,-1073.6 324.89,-1042.8 43.2,-1042.8"/>
<text text-anchor="start" x="50.2" y="-1055" font-family="Arial" font-size="14.00">status </text>
<text text-anchor="start" x="91.44" y="-1055" font-family="Arial" font-size="14.00" fill="#666666">[varchar(50)]</text>
<polygon fill="none" stroke="black" points="43.2,-1012 43.2,-1042.8 324.89,-1042.8 324.89,-1012 43.2,-1012"/>
<text text-anchor="start" x="50.2" y="-1024.2" font-family="Arial" font-size="14.00">preferences </text>
<text text-anchor="start" x="128.02" y="-1024.2" font-family="Arial" font-size="14.00" fill="#666666">[jsonb]</text>
<polygon fill="none" stroke="black" points="43.2,-981.2 43.2,-1012 324.89,-1012 324.89,-981.2 43.2,-981.2"/>
<text text-anchor="start" x="50.2" y="-993.4" font-family="Arial" font-size="14.00">last_login_at </text>
<text text-anchor="start" x="132.7" y="-993.4" font-family="Arial" font-size="14.00" fill="#666666">[timestamp without time zone]</text>
<polygon fill="none" stroke="black" points="43.2,-950.4 43.2,-981.2 324.89,-981.2 324.89,-950.4 43.2,-950.4"/>
<text text-anchor="start" x="50.2" y="-962.6" font-family="Arial" font-size="14.00">created_at </text>
<text text-anchor="start" x="120.25" y="-962.6" font-family="Arial" font-size="14.00" fill="#666666">[timestamp without time zone]</text>
<polygon fill="none" stroke="black" points="43.2,-919.6 43.2,-950.4 324.89,-950.4 324.89,-919.6 43.2,-919.6"/>
<text text-anchor="start" x="50.2" y="-931.8" font-family="Arial" font-size="14.00">updated_at </text>
<text text-anchor="start" x="124.16" y="-931.8" font-family="Arial" font-size="14.00" fill="#666666">[timestamp without time zone]</text>
<polygon fill="none" stroke="black" points="43.2,-888.8 43.2,-919.6 324.89,-919.6 324.89,-888.8 43.2,-888.8"/>
<text text-anchor="start" x="50.2" y="-901" font-family="Arial" font-size="14.00">deleted_at </text>
<text text-anchor="start" x="119.48" y="-901" font-family="Arial" font-size="14.00" fill="#666666">[timestamp without time zone]</text>
<polygon fill="none" stroke="black" points="43.2,-858 43.2,-888.8 324.89,-888.8 324.89,-858 43.2,-858"/>
<text text-anchor="start" x="50.2" y="-870.2" font-family="Arial" font-size="14.00">personal_claude_token </text>
<text text-anchor="start" x="198.87" y="-870.2" font-family="Arial" font-size="14.00" fill="#666666">[text]</text>
</g>
<!-- public.employees&#45;&gt;public.teams -->
<g id="edge1" class="edge">
<title>public.employees:team_id&#45;&gt;public.teams:id</title>
<path fill="none" stroke="black" d="M336.1,-1210.66C410.01,-1187.02 354.21,-897.08 377.04,-814.8 394.33,-752.51 370.83,-681.6 435.47,-681.6"/>
<polygon fill="black" stroke="black" points="336.11,-1210.66 325.55,-1207.7 330.83,-1211.46 326.55,-1212.1 326.55,-1212.1 326.55,-1212.1 330.83,-1211.46 326.89,-1216.6 336.11,-1210.66"/>
<text text-anchor="start" x="332.89" y="-1222.2" font-family="Arial" font-size="10.00">FOREIGN KEY (team_id) REFERENCES teams(id) ON DELETE SET NULL</text>
</g>
<!-- public.team_policies -->
<g id="node3" class="node">
<title>public.team_policies</title>
<polygon fill="#efefef" stroke="none" points="429.07,-1150.6 429.07,-1186.2 717.02,-1186.2 717.02,-1150.6 429.07,-1150.6"/>
<polygon fill="none" stroke="black" points="429.07,-1150.6 429.07,-1186.2 717.02,-1186.2 717.02,-1150.6 429.07,-1150.6"/>
<text text-anchor="start" x="436.07" y="-1164" font-family="Arial Bold" font-size="18.00">public.team_policies</text>
<text text-anchor="start" x="585.53" y="-1164" font-family="Arial" font-size="14.00">    </text>
<text text-anchor="start" x="616.65" y="-1164" font-family="Arial" font-size="14.00" fill="#666666">[BASE TABLE]</text>
<polygon fill="none" stroke="black" points="429.07,-1119.8 429.07,-1150.6 717.02,-1150.6 717.02,-1119.8 429.07,-1119.8"/>
<text text-anchor="start" x="436.07" y="-1132" font-family="Arial" font-size="14.00">id </text>
<text text-anchor="start" x="450.86" y="-1132" font-family="Arial" font-size="14.00" fill="#666666">[uuid]</text>
<polygon fill="none" stroke="black" points="429.07,-1089 429.07,-1119.8 717.02,-1119.8 717.02,-1089 429.07,-1089"/>
<text text-anchor="start" x="436.07" y="-1101.2" font-family="Arial" font-size="14.00">team_id </text>
<text text-anchor="start" x="489.77" y="-1101.2" font-family="Arial" font-size="14.00" fill="#666666">[uuid]</text>
<polygon fill="none" stroke="black" points="429.07,-1058.2 429.07,-1089 717.02,-1089 717.02,-1058.2 429.07,-1058.2"/>
<text text-anchor="start" x="436.07" y="-1070.4" font-family="Arial" font-size="14.00">policy_id </text>
<text text-anchor="start" x="494.44" y="-1070.4" font-family="Arial" font-size="14.00" fill="#666666">[uuid]</text>
<polygon fill="none" stroke="black" points="429.07,-1027.4 429.07,-1058.2 717.02,-1058.2 717.02,-1027.4 429.07,-1027.4"/>
<text text-anchor="start" x="436.07" y="-1039.6" font-family="Arial" font-size="14.00">overrides </text>
<text text-anchor="start" x="497.54" y="-1039.6" font-family="Arial" font-size="14.00" fill="#666666">[jsonb]</text>
<polygon fill="none" stroke="black" points="429.07,-996.6 429.07,-1027.4 717.02,-1027.4 717.02,-996.6 429.07,-996.6"/>
<text text-anchor="start" x="436.07" y="-1008.8" font-family="Arial" font-size="14.00">created_at </text>
<text text-anchor="start" x="506.12" y="-1008.8" font-family="Arial" font-size="14.00" fill="#666666">[timestamp without time zone]</text>
</g>
<!-- public.team_policies&#45;&gt;public.teams -->
<g id="edge2" class="edge">
<title>public.team_policies:team_id&#45;&gt;public.teams:id</title>
<path fill="none" stroke="black" d="M726.66,-1099.05C763.85,-1050.11 754.48,-681.6 710.62,-681.6"/>
<polygon fill="black" stroke="black" points="726.81,-1098.96 715.94,-1100.4 722.27,-1101.77 718.59,-1104.05 718.59,-1104.05 718.59,-1104.05 722.27,-1101.77 720.67,-1108.05 726.81,-1098.96"/>
<text text-anchor="start" x="548.26" y="-1088.4" font-family="Arial" font-size="10.00">FOREIGN KEY (team_id) REFERENCES teams(id) ON DELETE CASCADE</text>
</g>
<!-- public.team_agent_configs -->
<g id="node4" class="node">
<title>public.team_agent_configs</title>
<polygon fill="#efefef" stroke="none" points="821.58,-1181.4 821.58,-1217 1154.51,-1217 1154.51,-1181.4 821.58,-1181.4"/>
<polygon fill="none" stroke="black" points="821.58,-1181.4 821.58,-1217 1154.51,-1217 1154.51,-1181.4 821.58,-1181.4"/>
<text text-anchor="start" x="828.58" y="-1194.8" font-family="Arial Bold" font-size="18.00">public.team_agent_configs</text>
<text text-anchor="start" x="1023.02" y="-1194.8" font-family="Arial" font-size="14.00">    </text>
<text text-anchor="start" x="1054.14" y="-1194.8" font-family="Arial" font-size="14.00" fill="#666666">[BASE TABLE]</text>
<polygon fill="none" stroke="black" points="821.58,-1150.6 821.58,-1181.4 1154.51,-1181.4 1154.51,-1150.6 821.58,-1150.6"/>
<text text-anchor="start" x="828.58" y="-1162.8" font-family="Arial" font-size="14.00">id </text>
<text text-anchor="start" x="843.37" y="-1162.8" font-family="Arial" font-size="14.00" fill="#666666">[uuid]</text>
<polygon fill="none" stroke="black" points="821.58,-1119.8 821.58,-1150.6 1154.51,-1150.6 1154.51,-1119.8 821.58,-1119.8"/>
<text text-anchor="start" x="828.58" y="-1132" font-family="Arial" font-size="14.00">team_id </text>
<text text-anchor="start" x="882.28" y="-1132" font-family="Arial" font-size="14.00" fill="#666666">[uuid]</text>
<polygon fill="none" stroke="black" points="821.58,-1089 821.58,-1119.8 1154.51,-1119.8 1154.51,-1089 821.58,-1089"/>
<text text-anchor="start" x="828.58" y="-1101.2" font-family="Arial" font-size="14.00">agent_id </text>
<text text-anchor="start" x="886.19" y="-1101.2" font-family="Arial" font-size="14.00" fill="#666666">[uuid]</text>
<polygon fill="none" stroke="black" points="821.58,-1058.2 821.58,-1089 1154.51,-1089 1154.51,-1058.2 821.58,-1058.2"/>
<text text-anchor="start" x="828.58" y="-1070.4" font-family="Arial" font-size="14.00">config_override </text>
<text text-anchor="start" x="928.19" y="-1070.4" font-family="Arial" font-size="14.00" fill="#666666">[jsonb]</text>
<polygon fill="none" stroke="black" points="821.58,-1027.4 821.58,-1058.2 1154.51,-1058.2 1154.51,-1027.4 821.58,-1027.4"/>
<text text-anchor="start" x="828.58" y="-1039.6" font-family="Arial" font-size="14.00">is_enabled </text>
<text text-anchor="start" x="900.19" y="-1039.6" font-family="Arial" font-size="14.00" fill="#666666">[boolean]</text>
<polygon fill="none" stroke="black" points="821.58,-996.6 821.58,-1027.4 1154.51,-1027.4 1154.51,-996.6 821.58,-996.6"/>
<text text-anchor="start" x="828.58" y="-1008.8" font-family="Arial" font-size="14.00">created_at </text>
<text text-anchor="start" x="898.63" y="-1008.8" font-family="Arial" font-size="14.00" fill="#666666">[timestamp without time zone]</text>
<polygon fill="none" stroke="black" points="821.58,-965.8 821.58,-996.6 1154.51,-996.6 1154.51,-965.8 821.58,-965.8"/>
<text text-anchor="start" x="828.58" y="-978" font-family="Arial" font-size="14.00">updated_at </text>
<text text-anchor="start" x="902.54" y="-978" font-family="Arial" font-size="14.00" fill="#666666">[timestamp without time zone]</text>
</g>
<!-- public.team_agent_configs&#45;&gt;public.teams -->
<g id="edge3" class="edge">
<title>public.team_agent_configs:team_id&#45;&gt;public.teams:id</title>
<path fill="none" stroke="black" d="M810.44,-1133.31C752.47,-1110.15 788.38,-880.46 769.04,-814.8 750.78,-752.79 775.26,-681.6 710.62,-681.6"/>
<polygon fill="black" stroke="black" points="810.42,-1133.31 819.43,-1139.56 815.66,-1134.28 819.92,-1135.08 819.92,-1135.08 819.92,-1135.08 815.66,-1134.28 821.07,-1130.71 810.42,-1133.31"/>
<text text-anchor="start" x="474.06" y="-1145.2" font-family="Arial" font-size="10.00">FOREIGN KEY (team_id) REFERENCES teams(id) ON DELETE CASCADE</text>
</g>
</g>
</svg>
