<?xml version="1.0" encoding="UTF-8" standalone="no"?>
<!DOCTYPE svg PUBLIC "-//W3C//DTD SVG 1.1//EN"
 "http://www.w3.org/Graphics/SVG/1.1/DTD/svg11.dtd">
<!-- Generated by graphviz version 12.1.2 (20240928.0832)
 -->
<!-- Title: public.teams Pages: 1 -->
<svg width="2031pt" height="1376pt"
 viewBox="0.00 0.00 2031.15 1376.00" xmlns="http://www.w3.org/2000/svg" xmlns:xlink="http://www.w3.org/1999/xlink">
<g id="graph0" class="graph" transform="scale(1 1) rotate(0) translate(4 1372)">
<title>public.teams</title>
<polygon fill="white" stroke="none" points="-4,4 -4,-1372 2027.15,-1372 2027.15,4 -4,4"/>
<!-- public.teams -->
<g id="node1" class="node">
<title>public.teams</title>
<polygon fill="#efefef" stroke="none" points="878.55,-697 878.55,-732.6 1151.69,-732.6 1151.69,-697 878.55,-697"/>
<polygon fill="none" stroke="black" points="878.55,-697 878.55,-732.6 1151.69,-732.6 1151.69,-697 878.55,-697"/>
<text text-anchor="start" x="907.14" y="-710.4" font-family="Arial Bold" font-size="18.00">public.teams</text>
<text text-anchor="start" x="998.61" y="-710.4" font-family="Arial" font-size="14.00">    </text>
<text text-anchor="start" x="1029.73" y="-710.4" font-family="Arial" font-size="14.00" fill="#666666">[BASE TABLE]</text>
<polygon fill="none" stroke="black" points="878.55,-666.2 878.55,-697 1151.69,-697 1151.69,-666.2 878.55,-666.2"/>
<text text-anchor="start" x="885.55" y="-678.4" font-family="Arial" font-size="14.00">id </text>
<text text-anchor="start" x="900.33" y="-678.4" font-family="Arial" font-size="14.00" fill="#666666">[uuid]</text>
<polygon fill="none" stroke="black" points="878.55,-635.4 878.55,-666.2 1151.69,-666.2 1151.69,-635.4 878.55,-635.4"/>
<text text-anchor="start" x="885.55" y="-647.6" font-family="Arial" font-size="14.00">org_id </text>
<text text-anchor="start" x="928.36" y="-647.6" font-family="Arial" font-size="14.00" fill="#666666">[uuid]</text>
<polygon fill="none" stroke="black" points="878.55,-604.6 878.55,-635.4 1151.69,-635.4 1151.69,-604.6 878.55,-604.6"/>
<text text-anchor="start" x="885.55" y="-616.8" font-family="Arial" font-size="14.00">name </text>
<text text-anchor="start" x="924.46" y="-616.8" font-family="Arial" font-size="14.00" fill="#666666">[varchar(255)]</text>
<polygon fill="none" stroke="black" points="878.55,-573.8 878.55,-604.6 1151.69,-604.6 1151.69,-573.8 878.55,-573.8"/>
<text text-anchor="start" x="885.55" y="-586" font-family="Arial" font-size="14.00">description </text>
<text text-anchor="start" x="957.14" y="-586" font-family="Arial" font-size="14.00" fill="#666666">[text]</text>
<polygon fill="none" stroke="black" points="878.55,-543 878.55,-573.8 1151.69,-573.8 1151.69,-543 878.55,-543"/>
<text text-anchor="start" x="885.55" y="-555.2" font-family="Arial" font-size="14.00">created_at </text>
<text text-anchor="start" x="955.6" y="-555.2" font-family="Arial" font-size="14.00" fill="#666666">[timestamp without time zone]</text>
<polygon fill="none" stroke="black" points="878.55,-512.2 878.55,-543 1151.69,-543 1151.69,-512.2 878.55,-512.2"/>
<text text-anchor="start" x="885.55" y="-524.4" font-family="Arial" font-size="14.00">updated_at </text>
<text text-anchor="start" x="959.51" y="-524.4" font-family="Arial" font-size="14.00" fill="#666666">[timestamp without time zone]</text>
<polygon fill="none" stroke="black" stroke-width="3" points="877.05,-510.7 877.05,-734.1 1153.19,-734.1 1153.19,-510.7 877.05,-510.7"/>
</g>
<!-- public.organizations -->
<g id="node7" class="node">
<title>public.organizations</title>
<polygon fill="#efefef" stroke="none" points="872.65,-351.2 872.65,-386.8 1157.6,-386.8 1157.6,-351.2 872.65,-351.2"/>
<polygon fill="none" stroke="black" points="872.65,-351.2 872.65,-386.8 1157.6,-386.8 1157.6,-351.2 872.65,-351.2"/>
<text text-anchor="start" x="879.65" y="-364.6" font-family="Arial Bold" font-size="18.00">public.organizations</text>
<text text-anchor="start" x="1026.11" y="-364.6" font-family="Arial" font-size="14.00">    </text>
<text text-anchor="start" x="1057.22" y="-364.6" font-family="Arial" font-size="14.00" fill="#666666">[BASE TABLE]</text>
<polygon fill="none" stroke="black" points="872.65,-320.4 872.65,-351.2 1157.6,-351.2 1157.6,-320.4 872.65,-320.4"/>
<text text-anchor="start" x="879.65" y="-332.6" font-family="Arial" font-size="14.00">id </text>
<text text-anchor="start" x="894.43" y="-332.6" font-family="Arial" font-size="14.00" fill="#666666">[uuid]</text>
<polygon fill="none" stroke="black" points="872.65,-289.6 872.65,-320.4 1157.6,-320.4 1157.6,-289.6 872.65,-289.6"/>
<text text-anchor="start" x="879.65" y="-301.8" font-family="Arial" font-size="14.00">name </text>
<text text-anchor="start" x="918.56" y="-301.8" font-family="Arial" font-size="14.00" fill="#666666">[varchar(255)]</text>
<polygon fill="none" stroke="black" points="872.65,-258.8 872.65,-289.6 1157.6,-289.6 1157.6,-258.8 872.65,-258.8"/>
<text text-anchor="start" x="879.65" y="-271" font-family="Arial" font-size="14.00">slug </text>
<text text-anchor="start" x="909.22" y="-271" font-family="Arial" font-size="14.00" fill="#666666">[varchar(100)]</text>
<polygon fill="none" stroke="black" points="872.65,-228 872.65,-258.8 1157.6,-258.8 1157.6,-228 872.65,-228"/>
<text text-anchor="start" x="879.65" y="-240.2" font-family="Arial" font-size="14.00">plan </text>
<text text-anchor="start" x="910" y="-240.2" font-family="Arial" font-size="14.00" fill="#666666">[varchar(50)]</text>
<polygon fill="none" stroke="black" points="872.65,-197.2 872.65,-228 1157.6,-228 1157.6,-197.2 872.65,-197.2"/>
<text text-anchor="start" x="879.65" y="-209.4" font-family="Arial" font-size="14.00">settings </text>
<text text-anchor="start" x="931.78" y="-209.4" font-family="Arial" font-size="14.00" fill="#666666">[jsonb]</text>
<polygon fill="none" stroke="black" points="872.65,-166.4 872.65,-197.2 1157.6,-197.2 1157.6,-166.4 872.65,-166.4"/>
<text text-anchor="start" x="879.65" y="-178.6" font-family="Arial" font-size="14.00">max_employees </text>
<text text-anchor="start" x="985.47" y="-178.6" font-family="Arial" font-size="14.00" fill="#666666">[integer]</text>
<polygon fill="none" stroke="black" points="872.65,-135.6 872.65,-166.4 1157.6,-166.4 1157.6,-135.6 872.65,-135.6"/>
<text text-anchor="start" x="879.65" y="-147.8" font-family="Arial" font-size="14.00">max_agents_per_employee </text>
<text text-anchor="start" x="1056.31" y="-147.8" font-family="Arial" font-size="14.00" fill="#666666">[integer]</text>
<polygon fill="none" stroke="black" points="872.65,-104.8 872.65,-135.6 1157.6,-135.6 1157.6,-104.8 872.65,-104.8"/>
<text text-anchor="start" x="879.65" y="-117" font-family="Arial" font-size="14.00">claude_api_token </text>
<text text-anchor="start" x="993.29" y="-117" font-family="Arial" font-size="14.00" fill="#666666">[text]</text>
<polygon fill="none" stroke="black" points="872.65,-74 872.65,-104.8 1157.6,-104.8 1157.6,-74 872.65,-74"/>
<text text-anchor="start" x="879.65" y="-86.2" font-family="Arial" font-size="14.00">created_at </text>
<text text-anchor="start" x="949.69" y="-86.2" font-family="Arial" font-size="14.00" fill="#666666">[timestamp without time zone]</text>
<polygon fill="none" stroke="black" points="872.65,-43.2 872.65,-74 1157.6,-74 1157.6,-43.2 872.65,-43.2"/>
<text text-anchor="start" x="879.65" y="-55.4" font-family="Arial" font-size="14.00">updated_at </text>
<text text-anchor="start" x="953.6" y="-55.4" font-family="Arial" font-size="14.00" fill="#666666">[timestamp without time zone]</text>
</g>
<!-- public.teams&#45;&gt;public.organizations -->
<g id="edge6" class="edge">
<title>public.teams:org_id&#45;&gt;public.organizations:id</title>
<path fill="none" stroke="black" d="M1163.1,-650.2C1292.92,-635.01 1295.06,-335.8 1158.6,-335.8"/>
<polygon fill="black" stroke="black" points="1163.01,-650.21 1152.77,-646.29 1157.68,-650.51 1153.36,-650.76 1153.36,-650.76 1153.36,-650.76 1157.68,-650.51 1153.28,-655.27 1163.01,-650.21"/>
<text text-anchor="start" x="1159.69" y="-660.8" font-family="Arial" font-size="10.00">FOREIGN KEY (org_id) REFERENCES organizations(id) ON DELETE CASCADE</text>
</g>
<!-- public.employees -->
<g id="node2" class="node">
<title>public.employees</title>
<polygon fill="#efefef" stroke="none" points="70.28,-1289.2 70.28,-1324.8 351.96,-1324.8 351.96,-1289.2 70.28,-1289.2"/>
<polygon fill="none" stroke="black" points="70.28,-1289.2 70.28,-1324.8 351.96,-1324.8 351.96,-1289.2 70.28,-1289.2"/>
<text text-anchor="start" x="85.64" y="-1302.6" font-family="Arial Bold" font-size="18.00">public.employees</text>
<text text-anchor="start" x="212.11" y="-1302.6" font-family="Arial" font-size="14.00">    </text>
<text text-anchor="start" x="243.23" y="-1302.6" font-family="Arial" font-size="14.00" fill="#666666">[BASE TABLE]</text>
<polygon fill="none" stroke="black" points="70.28,-1258.4 70.28,-1289.2 351.96,-1289.2 351.96,-1258.4 70.28,-1258.4"/>
<text text-anchor="start" x="77.28" y="-1270.6" font-family="Arial" font-size="14.00">id </text>
<text text-anchor="start" x="92.06" y="-1270.6" font-family="Arial" font-size="14.00" fill="#666666">[uuid]</text>
<polygon fill="none" stroke="black" points="70.28,-1227.6 70.28,-1258.4 351.96,-1258.4 351.96,-1227.6 70.28,-1227.6"/>
<text text-anchor="start" x="77.28" y="-1239.8" font-family="Arial" font-size="14.00">org_id </text>
<text text-anchor="start" x="120.08" y="-1239.8" font-family="Arial" font-size="14.00" fill="#666666">[uuid]</text>
<polygon fill="none" stroke="black" points="70.28,-1196.8 70.28,-1227.6 351.96,-1227.6 351.96,-1196.8 70.28,-1196.8"/>
<text text-anchor="start" x="77.28" y="-1209" font-family="Arial" font-size="14.00">team_id </text>
<text text-anchor="start" x="130.97" y="-1209" font-family="Arial" font-size="14.00" fill="#666666">[uuid]</text>
<polygon fill="none" stroke="black" points="70.28,-1166 70.28,-1196.8 351.96,-1196.8 351.96,-1166 70.28,-1166"/>
<text text-anchor="start" x="77.28" y="-1178.2" font-family="Arial" font-size="14.00">role_id </text>
<text text-anchor="start" x="123.19" y="-1178.2" font-family="Arial" font-size="14.00" fill="#666666">[uuid]</text>
<polygon fill="none" stroke="black" points="70.28,-1135.2 70.28,-1166 351.96,-1166 351.96,-1135.2 70.28,-1135.2"/>
<text text-anchor="start" x="77.28" y="-1147.4" font-family="Arial" font-size="14.00">email </text>
<text text-anchor="start" x="114.62" y="-1147.4" font-family="Arial" font-size="14.00" fill="#666666">[varchar(255)]</text>
<polygon fill="none" stroke="black" points="70.28,-1104.4 70.28,-1135.2 351.96,-1135.2 351.96,-1104.4 70.28,-1104.4"/>
<text text-anchor="start" x="77.28" y="-1116.6" font-family="Arial" font-size="14.00">full_name </text>
<text text-anchor="start" x="141.87" y="-1116.6" font-family="Arial" font-size="14.00" fill="#666666">[varchar(255)]</text>
<polygon fill="none" stroke="black" points="70.28,-1073.6 70.28,-1104.4 351.96,-1104.4 351.96,-1073.6 70.28,-1073.6"/>
<text text-anchor="start" x="77.28" y="-1085.8" font-family="Arial" font-size="14.00">password_hash </text>
<text text-anchor="start" x="179.23" y="-1085.8" font-family="Arial" font-size="14.00" fill="#666666">[varchar(255)]</text>
<polygon fill="none" stroke="black" points="70.28,-1042.8 70.28,-1073.6 351.96,-1073.6 351.96,-1042.8 70.28,-1042.8"/>
<text text-anchor="start" x="77.28" y="-1055" font-family="Arial" font-size="14.00">status </text>
<text text-anchor="start" x="118.52" y="-1055" font-family="Arial" font-size="14.00" fill="#666666">[varchar(50)]</text>
<polygon fill="none" stroke="black" points="70.28,-1012 70.28,-1042.8 351.96,-1042.8 351.96,-1012 70.28,-1012"/>
<text text-anchor="start" x="77.28" y="-1024.2" font-family="Arial" font-size="14.00">preferences </text>
<text text-anchor="start" x="155.1" y="-1024.2" font-family="Arial" font-size="14.00" fill="#666666">[jsonb]</text>
<polygon fill="none" stroke="black" points="70.28,-981.2 70.28,-1012 351.96,-1012 351.96,-981.2 70.28,-981.2"/>
<text text-anchor="start" x="77.28" y="-993.4" font-family="Arial" font-size="14.00">personal_claude_token </text>
<text text-anchor="start" x="225.94" y="-993.4" font-family="Arial" font-size="14.00" fill="#666666">[text]</text>
<polygon fill="none" stroke="black" points="70.28,-950.4 70.28,-981.2 351.96,-981.2 351.96,-950.4 70.28,-950.4"/>
<text text-anchor="start" x="77.28" y="-962.6" font-family="Arial" font-size="14.00">last_login_at </text>
<text text-anchor="start" x="159.78" y="-962.6" font-family="Arial" font-size="14.00" fill="#666666">[timestamp without time zone]</text>
<polygon fill="none" stroke="black" points="70.28,-919.6 70.28,-950.4 351.96,-950.4 351.96,-919.6 70.28,-919.6"/>
<text text-anchor="start" x="77.28" y="-931.8" font-family="Arial" font-size="14.00">created_at </text>
<text text-anchor="start" x="147.32" y="-931.8" font-family="Arial" font-size="14.00" fill="#666666">[timestamp without time zone]</text>
<polygon fill="none" stroke="black" points="70.28,-888.8 70.28,-919.6 351.96,-919.6 351.96,-888.8 70.28,-888.8"/>
<text text-anchor="start" x="77.28" y="-901" font-family="Arial" font-size="14.00">updated_at </text>
<text text-anchor="start" x="151.23" y="-901" font-family="Arial" font-size="14.00" fill="#666666">[timestamp without time zone]</text>
<polygon fill="none" stroke="black" points="70.28,-858 70.28,-888.8 351.96,-888.8 351.96,-858 70.28,-858"/>
<text text-anchor="start" x="77.28" y="-870.2" font-family="Arial" font-size="14.00">deleted_at </text>
<text text-anchor="start" x="146.56" y="-870.2" font-family="Arial" font-size="14.00" fill="#666666">[timestamp without time zone]</text>
</g>
<!-- public.employees&#45;&gt;public.teams -->
<g id="edge1" class="edge">
<title>public.employees:team_id&#45;&gt;public.teams:id</title>
<path fill="none" stroke="black" d="M363.01,-1210.58C434.38,-1185.57 348.31,-879.43 404.12,-814.8 475.55,-732.08 768.26,-681.6 877.55,-681.6"/>
<polygon fill="black" stroke="black" points="363.17,-1210.55 352.58,-1207.7 357.9,-1211.4 353.63,-1212.09 353.63,-1212.09 353.63,-1212.09 357.9,-1211.4 354.01,-1216.59 363.17,-1210.55"/>
<text text-anchor="start" x="7" y="-1222.2" font-family="Arial" font-size="10.00">FOREIGN KEY (team_id) REFERENCES teams(id) ON DELETE SET NULL</text>
</g>
<!-- public.team_policies -->
<g id="node3" class="node">
<title>public.team_policies</title>
<polygon fill="#efefef" stroke="none" points="456.15,-1150.6 456.15,-1186.2 744.09,-1186.2 744.09,-1150.6 456.15,-1150.6"/>
<polygon fill="none" stroke="black" points="456.15,-1150.6 456.15,-1186.2 744.09,-1186.2 744.09,-1150.6 456.15,-1150.6"/>
<text text-anchor="start" x="463.15" y="-1164" font-family="Arial Bold" font-size="18.00">public.team_policies</text>
<text text-anchor="start" x="612.6" y="-1164" font-family="Arial" font-size="14.00">    </text>
<text text-anchor="start" x="643.72" y="-1164" font-family="Arial" font-size="14.00" fill="#666666">[BASE TABLE]</text>
<polygon fill="none" stroke="black" points="456.15,-1119.8 456.15,-1150.6 744.09,-1150.6 744.09,-1119.8 456.15,-1119.8"/>
<text text-anchor="start" x="463.15" y="-1132" font-family="Arial" font-size="14.00">id </text>
<text text-anchor="start" x="477.93" y="-1132" font-family="Arial" font-size="14.00" fill="#666666">[uuid]</text>
<polygon fill="none" stroke="black" points="456.15,-1089 456.15,-1119.8 744.09,-1119.8 744.09,-1089 456.15,-1089"/>
<text text-anchor="start" x="463.15" y="-1101.2" font-family="Arial" font-size="14.00">team_id </text>
<text text-anchor="start" x="516.84" y="-1101.2" font-family="Arial" font-size="14.00" fill="#666666">[uuid]</text>
<polygon fill="none" stroke="black" points="456.15,-1058.2 456.15,-1089 744.09,-1089 744.09,-1058.2 456.15,-1058.2"/>
<text text-anchor="start" x="463.15" y="-1070.4" font-family="Arial" font-size="14.00">policy_id </text>
<text text-anchor="start" x="521.51" y="-1070.4" font-family="Arial" font-size="14.00" fill="#666666">[uuid]</text>
<polygon fill="none" stroke="black" points="456.15,-1027.4 456.15,-1058.2 744.09,-1058.2 744.09,-1027.4 456.15,-1027.4"/>
<text text-anchor="start" x="463.15" y="-1039.6" font-family="Arial" font-size="14.00">overrides </text>
<text text-anchor="start" x="524.62" y="-1039.6" font-family="Arial" font-size="14.00" fill="#666666">[jsonb]</text>
<polygon fill="none" stroke="black" points="456.15,-996.6 456.15,-1027.4 744.09,-1027.4 744.09,-996.6 456.15,-996.6"/>
<text text-anchor="start" x="463.15" y="-1008.8" font-family="Arial" font-size="14.00">created_at </text>
<text text-anchor="start" x="533.19" y="-1008.8" font-family="Arial" font-size="14.00" fill="#666666">[timestamp without time zone]</text>
</g>
<!-- public.team_policies&#45;&gt;public.teams -->
<g id="edge2" class="edge">
<title>public.team_policies:team_id&#45;&gt;public.teams:id</title>
<path fill="none" stroke="black" d="M755.24,-1102.27C806.39,-1079.05 774.31,-872.46 796.12,-814.8 820.66,-749.9 808.16,-681.6 877.55,-681.6"/>
<polygon fill="black" stroke="black" points="755.21,-1102.28 744.5,-1099.93 749.99,-1103.37 745.75,-1104.26 745.75,-1104.26 745.75,-1104.26 749.99,-1103.37 746.35,-1108.74 755.21,-1102.28"/>
<text text-anchor="start" x="752.09" y="-1114.4" font-family="Arial" font-size="10.00">FOREIGN KEY (team_id) REFERENCES teams(id) ON DELETE CASCADE</text>
</g>
<!-- public.team_agent_configs -->
<g id="node4" class="node">
<title>public.team_agent_configs</title>
<polygon fill="#efefef" stroke="none" points="848.66,-1181.4 848.66,-1217 1181.59,-1217 1181.59,-1181.4 848.66,-1181.4"/>
<polygon fill="none" stroke="black" points="848.66,-1181.4 848.66,-1217 1181.59,-1217 1181.59,-1181.4 848.66,-1181.4"/>
<text text-anchor="start" x="855.66" y="-1194.8" font-family="Arial Bold" font-size="18.00">public.team_agent_configs</text>
<text text-anchor="start" x="1050.1" y="-1194.8" font-family="Arial" font-size="14.00">    </text>
<text text-anchor="start" x="1081.21" y="-1194.8" font-family="Arial" font-size="14.00" fill="#666666">[BASE TABLE]</text>
<polygon fill="none" stroke="black" points="848.66,-1150.6 848.66,-1181.4 1181.59,-1181.4 1181.59,-1150.6 848.66,-1150.6"/>
<text text-anchor="start" x="855.66" y="-1162.8" font-family="Arial" font-size="14.00">id </text>
<text text-anchor="start" x="870.44" y="-1162.8" font-family="Arial" font-size="14.00" fill="#666666">[uuid]</text>
<polygon fill="none" stroke="black" points="848.66,-1119.8 848.66,-1150.6 1181.59,-1150.6 1181.59,-1119.8 848.66,-1119.8"/>
<text text-anchor="start" x="855.66" y="-1132" font-family="Arial" font-size="14.00">team_id </text>
<text text-anchor="start" x="909.35" y="-1132" font-family="Arial" font-size="14.00" fill="#666666">[uuid]</text>
<polygon fill="none" stroke="black" points="848.66,-1089 848.66,-1119.8 1181.59,-1119.8 1181.59,-1089 848.66,-1089"/>
<text text-anchor="start" x="855.66" y="-1101.2" font-family="Arial" font-size="14.00">agent_id </text>
<text text-anchor="start" x="913.26" y="-1101.2" font-family="Arial" font-size="14.00" fill="#666666">[uuid]</text>
<polygon fill="none" stroke="black" points="848.66,-1058.2 848.66,-1089 1181.59,-1089 1181.59,-1058.2 848.66,-1058.2"/>
<text text-anchor="start" x="855.66" y="-1070.4" font-family="Arial" font-size="14.00">config_override </text>
<text text-anchor="start" x="955.27" y="-1070.4" font-family="Arial" font-size="14.00" fill="#666666">[jsonb]</text>
<polygon fill="none" stroke="black" points="848.66,-1027.4 848.66,-1058.2 1181.59,-1058.2 1181.59,-1027.4 848.66,-1027.4"/>
<text text-anchor="start" x="855.66" y="-1039.6" font-family="Arial" font-size="14.00">is_enabled </text>
<text text-anchor="start" x="927.27" y="-1039.6" font-family="Arial" font-size="14.00" fill="#666666">[boolean]</text>
<polygon fill="none" stroke="black" points="848.66,-996.6 848.66,-1027.4 1181.59,-1027.4 1181.59,-996.6 848.66,-996.6"/>
<text text-anchor="start" x="855.66" y="-1008.8" font-family="Arial" font-size="14.00">created_at </text>
<text text-anchor="start" x="925.7" y="-1008.8" font-family="Arial" font-size="14.00" fill="#666666">[timestamp without time zone]</text>
<polygon fill="none" stroke="black" points="848.66,-965.8 848.66,-996.6 1181.59,-996.6 1181.59,-965.8 848.66,-965.8"/>
<text text-anchor="start" x="855.66" y="-978" font-family="Arial" font-size="14.00">updated_at </text>
<text text-anchor="start" x="929.61" y="-978" font-family="Arial" font-size="14.00" fill="#666666">[timestamp without time zone]</text>
</g>
<!-- public.team_agent_configs&#45;&gt;public.teams -->
<g id="edge3" class="edge">
<title>public.team_agent_configs:team_id&#45;&gt;public.teams:id</title>
<path fill="none" stroke="black" d="M1191.37,-1129.79C1229.16,-1078.61 1199.95,-681.6 1152.69,-681.6"/>
<polygon fill="black" stroke="black" points="1191.38,-1129.78 1180.51,-1131.19 1186.84,-1132.58 1183.15,-1134.85 1183.15,-1134.85 1183.15,-1134.85 1186.84,-1132.58 1185.23,-1138.86 1191.38,-1129.78"/>
<text text-anchor="start" x="836.07" y="-1145.2" font-family="Arial" font-size="10.00">FOREIGN KEY (team_id) REFERENCES teams(id) ON DELETE CASCADE</text>
</g>
<!-- public.invitations -->
<g id="node5" class="node">
<title>public.invitations</title>
<polygon fill="#efefef" stroke="none" points="1286.44,-1273.8 1286.44,-1309.4 1565.8,-1309.4 1565.8,-1273.8 1286.44,-1273.8"/>
<polygon fill="none" stroke="black" points="1286.44,-1273.8 1286.44,-1309.4 1565.8,-1309.4 1565.8,-1273.8 1286.44,-1273.8"/>
<text text-anchor="start" x="1301.13" y="-1287.2" font-family="Arial Bold" font-size="18.00">public.invitations</text>
<text text-anchor="start" x="1426.62" y="-1287.2" font-family="Arial" font-size="14.00">    </text>
<text text-anchor="start" x="1457.74" y="-1287.2" font-family="Arial" font-size="14.00" fill="#666666">[BASE TABLE]</text>
<polygon fill="none" stroke="black" points="1286.44,-1243 1286.44,-1273.8 1565.8,-1273.8 1565.8,-1243 1286.44,-1243"/>
<text text-anchor="start" x="1293.44" y="-1255.2" font-family="Arial" font-size="14.00">id </text>
<text text-anchor="start" x="1308.23" y="-1255.2" font-family="Arial" font-size="14.00" fill="#666666">[uuid]</text>
<polygon fill="none" stroke="black" points="1286.44,-1212.2 1286.44,-1243 1565.8,-1243 1565.8,-1212.2 1286.44,-1212.2"/>
<text text-anchor="start" x="1293.44" y="-1224.4" font-family="Arial" font-size="14.00">org_id </text>
<text text-anchor="start" x="1336.25" y="-1224.4" font-family="Arial" font-size="14.00" fill="#666666">[uuid]</text>
<polygon fill="none" stroke="black" points="1286.44,-1181.4 1286.44,-1212.2 1565.8,-1212.2 1565.8,-1181.4 1286.44,-1181.4"/>
<text text-anchor="start" x="1293.44" y="-1193.6" font-family="Arial" font-size="14.00">inviter_id </text>
<text text-anchor="start" x="1353.36" y="-1193.6" font-family="Arial" font-size="14.00" fill="#666666">[uuid]</text>
<polygon fill="none" stroke="black" points="1286.44,-1150.6 1286.44,-1181.4 1565.8,-1181.4 1565.8,-1150.6 1286.44,-1150.6"/>
<text text-anchor="start" x="1293.44" y="-1162.8" font-family="Arial" font-size="14.00">email </text>
<text text-anchor="start" x="1330.79" y="-1162.8" font-family="Arial" font-size="14.00" fill="#666666">[varchar(255)]</text>
<polygon fill="none" stroke="black" points="1286.44,-1119.8 1286.44,-1150.6 1565.8,-1150.6 1565.8,-1119.8 1286.44,-1119.8"/>
<text text-anchor="start" x="1293.44" y="-1132" font-family="Arial" font-size="14.00">role_id </text>
<text text-anchor="start" x="1339.36" y="-1132" font-family="Arial" font-size="14.00" fill="#666666">[uuid]</text>
<polygon fill="none" stroke="black" points="1286.44,-1089 1286.44,-1119.8 1565.8,-1119.8 1565.8,-1089 1286.44,-1089"/>
<text text-anchor="start" x="1293.44" y="-1101.2" font-family="Arial" font-size="14.00">team_id </text>
<text text-anchor="start" x="1347.14" y="-1101.2" font-family="Arial" font-size="14.00" fill="#666666">[uuid]</text>
<polygon fill="none" stroke="black" points="1286.44,-1058.2 1286.44,-1089 1565.8,-1089 1565.8,-1058.2 1286.44,-1058.2"/>
<text text-anchor="start" x="1293.44" y="-1070.4" font-family="Arial" font-size="14.00">token </text>
<text text-anchor="start" x="1331.58" y="-1070.4" font-family="Arial" font-size="14.00" fill="#666666">[varchar(64)]</text>
<polygon fill="none" stroke="black" points="1286.44,-1027.4 1286.44,-1058.2 1565.8,-1058.2 1565.8,-1027.4 1286.44,-1027.4"/>
<text text-anchor="start" x="1293.44" y="-1039.6" font-family="Arial" font-size="14.00">status </text>
<text text-anchor="start" x="1334.68" y="-1039.6" font-family="Arial" font-size="14.00" fill="#666666">[varchar(50)]</text>
<polygon fill="none" stroke="black" points="1286.44,-996.6 1286.44,-1027.4 1565.8,-1027.4 1565.8,-996.6 1286.44,-996.6"/>
<text text-anchor="start" x="1293.44" y="-1008.8" font-family="Arial" font-size="14.00">expires_at </text>
<text text-anchor="start" x="1361.92" y="-1008.8" font-family="Arial" font-size="14.00" fill="#666666">[timestamp without time zone]</text>
<polygon fill="none" stroke="black" points="1286.44,-965.8 1286.44,-996.6 1565.8,-996.6 1565.8,-965.8 1286.44,-965.8"/>
<text text-anchor="start" x="1293.44" y="-978" font-family="Arial" font-size="14.00">accepted_by </text>
<text text-anchor="start" x="1376.72" y="-978" font-family="Arial" font-size="14.00" fill="#666666">[uuid]</text>
<polygon fill="none" stroke="black" points="1286.44,-935 1286.44,-965.8 1565.8,-965.8 1565.8,-935 1286.44,-935"/>
<text text-anchor="start" x="1293.44" y="-947.2" font-family="Arial" font-size="14.00">accepted_at </text>
<text text-anchor="start" x="1373.61" y="-947.2" font-family="Arial" font-size="14.00" fill="#666666">[timestamp without time zone]</text>
<polygon fill="none" stroke="black" points="1286.44,-904.2 1286.44,-935 1565.8,-935 1565.8,-904.2 1286.44,-904.2"/>
<text text-anchor="start" x="1293.44" y="-916.4" font-family="Arial" font-size="14.00">created_at </text>
<text text-anchor="start" x="1363.49" y="-916.4" font-family="Arial" font-size="14.00" fill="#666666">[timestamp without time zone]</text>
<polygon fill="none" stroke="black" points="1286.44,-873.4 1286.44,-904.2 1565.8,-904.2 1565.8,-873.4 1286.44,-873.4"/>
<text text-anchor="start" x="1293.44" y="-885.6" font-family="Arial" font-size="14.00">updated_at </text>
<text text-anchor="start" x="1367.4" y="-885.6" font-family="Arial" font-size="14.00" fill="#666666">[timestamp without time zone]</text>
</g>
<!-- public.invitations&#45;&gt;public.teams -->
<g id="edge4" class="edge">
<title>public.invitations:team_id&#45;&gt;public.teams:id</title>
<path fill="none" stroke="black" d="M1275.29,-1102.27C1224.1,-1079.05 1255.96,-872.46 1234.12,-814.8 1209.54,-749.91 1222.08,-681.6 1152.69,-681.6"/>
<polygon fill="black" stroke="black" points="1275.33,-1102.28 1284.19,-1108.74 1280.55,-1103.37 1284.79,-1104.26 1284.79,-1104.26 1284.79,-1104.26 1280.55,-1103.37 1286.04,-1099.93 1275.33,-1102.28"/>
<text text-anchor="start" x="1292.44" y="-1114.4" font-family="Arial" font-size="10.00">FOREIGN KEY (team_id) REFERENCES teams(id) ON DELETE SET NULL</text>
</g>
<!-- public.tool_policies -->
<g id="node6" class="node">
<title>public.tool_policies</title>
<polygon fill="#efefef" stroke="none" points="1670.64,-1243 1670.64,-1278.6 1951.6,-1278.6 1951.6,-1243 1670.64,-1243"/>
<polygon fill="none" stroke="black" points="1670.64,-1243 1670.64,-1278.6 1951.6,-1278.6 1951.6,-1243 1670.64,-1243"/>
<text text-anchor="start" x="1677.64" y="-1256.4" font-family="Arial Bold" font-size="18.00">public.tool_policies</text>
<text text-anchor="start" x="1820.12" y="-1256.4" font-family="Arial" font-size="14.00">    </text>
<text text-anchor="start" x="1851.23" y="-1256.4" font-family="Arial" font-size="14.00" fill="#666666">[BASE TABLE]</text>
<polygon fill="none" stroke="black" points="1670.64,-1212.2 1670.64,-1243 1951.6,-1243 1951.6,-1212.2 1670.64,-1212.2"/>
<text text-anchor="start" x="1677.64" y="-1224.4" font-family="Arial" font-size="14.00">id </text>
<text text-anchor="start" x="1692.42" y="-1224.4" font-family="Arial" font-size="14.00" fill="#666666">[uuid]</text>
<polygon fill="none" stroke="black" points="1670.64,-1181.4 1670.64,-1212.2 1951.6,-1212.2 1951.6,-1181.4 1670.64,-1181.4"/>
<text text-anchor="start" x="1677.64" y="-1193.6" font-family="Arial" font-size="14.00">org_id </text>
<text text-anchor="start" x="1720.44" y="-1193.6" font-family="Arial" font-size="14.00" fill="#666666">[uuid]</text>
<polygon fill="none" stroke="black" points="1670.64,-1150.6 1670.64,-1181.4 1951.6,-1181.4 1951.6,-1150.6 1670.64,-1150.6"/>
<text text-anchor="start" x="1677.64" y="-1162.8" font-family="Arial" font-size="14.00">team_id </text>
<text text-anchor="start" x="1731.33" y="-1162.8" font-family="Arial" font-size="14.00" fill="#666666">[uuid]</text>
<polygon fill="none" stroke="black" points="1670.64,-1119.8 1670.64,-1150.6 1951.6,-1150.6 1951.6,-1119.8 1670.64,-1119.8"/>
<text text-anchor="start" x="1677.64" y="-1132" font-family="Arial" font-size="14.00">employee_id </text>
<text text-anchor="start" x="1760.91" y="-1132" font-family="Arial" font-size="14.00" fill="#666666">[uuid]</text>
<polygon fill="none" stroke="black" points="1670.64,-1089 1670.64,-1119.8 1951.6,-1119.8 1951.6,-1089 1670.64,-1089"/>
<text text-anchor="start" x="1677.64" y="-1101.2" font-family="Arial" font-size="14.00">tool_name </text>
<text text-anchor="start" x="1746.9" y="-1101.2" font-family="Arial" font-size="14.00" fill="#666666">[varchar(255)]</text>
<polygon fill="none" stroke="black" points="1670.64,-1058.2 1670.64,-1089 1951.6,-1089 1951.6,-1058.2 1670.64,-1058.2"/>
<text text-anchor="start" x="1677.64" y="-1070.4" font-family="Arial" font-size="14.00">conditions </text>
<text text-anchor="start" x="1744.57" y="-1070.4" font-family="Arial" font-size="14.00" fill="#666666">[jsonb]</text>
<polygon fill="none" stroke="black" points="1670.64,-1027.4 1670.64,-1058.2 1951.6,-1058.2 1951.6,-1027.4 1670.64,-1027.4"/>
<text text-anchor="start" x="1677.64" y="-1039.6" font-family="Arial" font-size="14.00">action </text>
<text text-anchor="start" x="1718.88" y="-1039.6" font-family="Arial" font-size="14.00" fill="#666666">[varchar(20)]</text>
<polygon fill="none" stroke="black" points="1670.64,-996.6 1670.64,-1027.4 1951.6,-1027.4 1951.6,-996.6 1670.64,-996.6"/>
<text text-anchor="start" x="1677.64" y="-1008.8" font-family="Arial" font-size="14.00">reason </text>
<text text-anchor="start" x="1724.33" y="-1008.8" font-family="Arial" font-size="14.00" fill="#666666">[text]</text>
<polygon fill="none" stroke="black" points="1670.64,-965.8 1670.64,-996.6 1951.6,-996.6 1951.6,-965.8 1670.64,-965.8"/>
<text text-anchor="start" x="1677.64" y="-978" font-family="Arial" font-size="14.00">created_by </text>
<text text-anchor="start" x="1750.79" y="-978" font-family="Arial" font-size="14.00" fill="#666666">[uuid]</text>
<polygon fill="none" stroke="black" points="1670.64,-935 1670.64,-965.8 1951.6,-965.8 1951.6,-935 1670.64,-935"/>
<text text-anchor="start" x="1677.64" y="-947.2" font-family="Arial" font-size="14.00">created_at </text>
<text text-anchor="start" x="1747.68" y="-947.2" font-family="Arial" font-size="14.00" fill="#666666">[timestamp without time zone]</text>
<polygon fill="none" stroke="black" points="1670.64,-904.2 1670.64,-935 1951.6,-935 1951.6,-904.2 1670.64,-904.2"/>
<text text-anchor="start" x="1677.64" y="-916.4" font-family="Arial" font-size="14.00">updated_at </text>
<text text-anchor="start" x="1751.59" y="-916.4" font-family="Arial" font-size="14.00" fill="#666666">[timestamp without time zone]</text>
</g>
<!-- public.tool_policies&#45;&gt;public.teams -->
<g id="edge5" class="edge">
<title>public.tool_policies:team_id&#45;&gt;public.teams:id</title>
<path fill="none" stroke="black" d="M1659.56,-1164.13C1597.9,-1139.15 1667.63,-871.38 1618.12,-814.8 1547.28,-733.84 1260.27,-681.6 1152.69,-681.6"/>
<polygon fill="black" stroke="black" points="1659.48,-1164.12 1668.49,-1170.36 1664.72,-1165.09 1668.98,-1165.88 1668.98,-1165.88 1668.98,-1165.88 1664.72,-1165.09 1670.13,-1161.51 1659.48,-1164.12"/>
<text text-anchor="start" x="1676.64" y="-1176" font-family="Arial" font-size="10.00">FOREIGN KEY (team_id) REFERENCES teams(id) ON DELETE CASCADE</text>
</g>
</g>
</svg>
