<?xml version="1.0" encoding="UTF-8" standalone="no"?>
<!DOCTYPE svg PUBLIC "-//W3C//DTD SVG 1.1//EN"
 "http://www.w3.org/Graphics/SVG/1.1/DTD/svg11.dtd">
<!-- Generated by graphviz version 12.1.2 (20240928.0832)
 -->
<!-- Title: public.roles Pages: 1 -->
<svg width="760pt" height="910pt"
 viewBox="0.00 0.00 759.92 910.00" xmlns="http://www.w3.org/2000/svg" xmlns:xlink="http://www.w3.org/1999/xlink">
<g id="graph0" class="graph" transform="scale(1 1) rotate(0) translate(4 906)">
<title>public.roles</title>
<polygon fill="white" stroke="none" points="-4,4 -4,-906 755.92,-906 755.92,4 -4,4"/>
<!-- public.roles -->
<g id="node1" class="node">
<title>public.roles</title>
<polygon fill="#efefef" stroke="none" points="239.47,-231 239.47,-266.6 512.62,-266.6 512.62,-231 239.47,-231"/>
<polygon fill="none" stroke="black" points="239.47,-231 239.47,-266.6 512.62,-266.6 512.62,-231 239.47,-231"/>
<text text-anchor="start" x="271.56" y="-244.4" font-family="Arial Bold" font-size="18.00">public.roles</text>
<text text-anchor="start" x="356.04" y="-244.4" font-family="Arial" font-size="14.00">    </text>
<text text-anchor="start" x="387.16" y="-244.4" font-family="Arial" font-size="14.00" fill="#666666">[BASE TABLE]</text>
<polygon fill="none" stroke="black" points="239.47,-200.2 239.47,-231 512.62,-231 512.62,-200.2 239.47,-200.2"/>
<text text-anchor="start" x="246.47" y="-212.4" font-family="Arial" font-size="14.00">id </text>
<text text-anchor="start" x="261.26" y="-212.4" font-family="Arial" font-size="14.00" fill="#666666">[uuid]</text>
<polygon fill="none" stroke="black" points="239.47,-169.4 239.47,-200.2 512.62,-200.2 512.62,-169.4 239.47,-169.4"/>
<text text-anchor="start" x="246.47" y="-181.6" font-family="Arial" font-size="14.00">name </text>
<text text-anchor="start" x="285.38" y="-181.6" font-family="Arial" font-size="14.00" fill="#666666">[varchar(100)]</text>
<polygon fill="none" stroke="black" points="239.47,-138.6 239.47,-169.4 512.62,-169.4 512.62,-138.6 239.47,-138.6"/>
<text text-anchor="start" x="246.47" y="-150.8" font-family="Arial" font-size="14.00">description </text>
<text text-anchor="start" x="318.07" y="-150.8" font-family="Arial" font-size="14.00" fill="#666666">[text]</text>
<polygon fill="none" stroke="black" points="239.47,-107.8 239.47,-138.6 512.62,-138.6 512.62,-107.8 239.47,-107.8"/>
<text text-anchor="start" x="246.47" y="-120" font-family="Arial" font-size="14.00">permissions </text>
<text text-anchor="start" x="325.05" y="-120" font-family="Arial" font-size="14.00" fill="#666666">[jsonb]</text>
<polygon fill="none" stroke="black" points="239.47,-77 239.47,-107.8 512.62,-107.8 512.62,-77 239.47,-77"/>
<text text-anchor="start" x="246.47" y="-89.2" font-family="Arial" font-size="14.00">created_at </text>
<text text-anchor="start" x="316.52" y="-89.2" font-family="Arial" font-size="14.00" fill="#666666">[timestamp without time zone]</text>
<polygon fill="none" stroke="black" points="239.47,-46.2 239.47,-77 512.62,-77 512.62,-46.2 239.47,-46.2"/>
<text text-anchor="start" x="246.47" y="-58.4" font-family="Arial" font-size="14.00">updated_at </text>
<text text-anchor="start" x="320.43" y="-58.4" font-family="Arial" font-size="14.00" fill="#666666">[timestamp without time zone]</text>
<polygon fill="none" stroke="black" stroke-width="3" points="237.97,-44.7 237.97,-268.1 514.12,-268.1 514.12,-44.7 237.97,-44.7"/>
</g>
<!-- public.employees -->
<g id="node2" class="node">
<title>public.employees</title>
<polygon fill="#efefef" stroke="none" points="43.2,-823.2 43.2,-858.8 324.89,-858.8 324.89,-823.2 43.2,-823.2"/>
<polygon fill="none" stroke="black" points="43.2,-823.2 43.2,-858.8 324.89,-858.8 324.89,-823.2 43.2,-823.2"/>
<text text-anchor="start" x="58.57" y="-836.6" font-family="Arial Bold" font-size="18.00">public.employees</text>
<text text-anchor="start" x="185.03" y="-836.6" font-family="Arial" font-size="14.00">    </text>
<text text-anchor="start" x="216.15" y="-836.6" font-family="Arial" font-size="14.00" fill="#666666">[BASE TABLE]</text>
<polygon fill="none" stroke="black" points="43.2,-792.4 43.2,-823.2 324.89,-823.2 324.89,-792.4 43.2,-792.4"/>
<text text-anchor="start" x="50.2" y="-804.6" font-family="Arial" font-size="14.00">id </text>
<text text-anchor="start" x="64.99" y="-804.6" font-family="Arial" font-size="14.00" fill="#666666">[uuid]</text>
<polygon fill="none" stroke="black" points="43.2,-761.6 43.2,-792.4 324.89,-792.4 324.89,-761.6 43.2,-761.6"/>
<text text-anchor="start" x="50.2" y="-773.8" font-family="Arial" font-size="14.00">org_id </text>
<text text-anchor="start" x="93.01" y="-773.8" font-family="Arial" font-size="14.00" fill="#666666">[uuid]</text>
<polygon fill="none" stroke="black" points="43.2,-730.8 43.2,-761.6 324.89,-761.6 324.89,-730.8 43.2,-730.8"/>
<text text-anchor="start" x="50.2" y="-743" font-family="Arial" font-size="14.00">team_id </text>
<text text-anchor="start" x="103.9" y="-743" font-family="Arial" font-size="14.00" fill="#666666">[uuid]</text>
<polygon fill="none" stroke="black" points="43.2,-700 43.2,-730.8 324.89,-730.8 324.89,-700 43.2,-700"/>
<text text-anchor="start" x="50.2" y="-712.2" font-family="Arial" font-size="14.00">role_id </text>
<text text-anchor="start" x="96.12" y="-712.2" font-family="Arial" font-size="14.00" fill="#666666">[uuid]</text>
<polygon fill="none" stroke="black" points="43.2,-669.2 43.2,-700 324.89,-700 324.89,-669.2 43.2,-669.2"/>
<text text-anchor="start" x="50.2" y="-681.4" font-family="Arial" font-size="14.00">email </text>
<text text-anchor="start" x="87.54" y="-681.4" font-family="Arial" font-size="14.00" fill="#666666">[varchar(255)]</text>
<polygon fill="none" stroke="black" points="43.2,-638.4 43.2,-669.2 324.89,-669.2 324.89,-638.4 43.2,-638.4"/>
<text text-anchor="start" x="50.2" y="-650.6" font-family="Arial" font-size="14.00">full_name </text>
<text text-anchor="start" x="114.79" y="-650.6" font-family="Arial" font-size="14.00" fill="#666666">[varchar(255)]</text>
<polygon fill="none" stroke="black" points="43.2,-607.6 43.2,-638.4 324.89,-638.4 324.89,-607.6 43.2,-607.6"/>
<text text-anchor="start" x="50.2" y="-619.8" font-family="Arial" font-size="14.00">password_hash </text>
<text text-anchor="start" x="152.15" y="-619.8" font-family="Arial" font-size="14.00" fill="#666666">[varchar(255)]</text>
<polygon fill="none" stroke="black" points="43.2,-576.8 43.2,-607.6 324.89,-607.6 324.89,-576.8 43.2,-576.8"/>
<text text-anchor="start" x="50.2" y="-589" font-family="Arial" font-size="14.00">status </text>
<text text-anchor="start" x="91.44" y="-589" font-family="Arial" font-size="14.00" fill="#666666">[varchar(50)]</text>
<polygon fill="none" stroke="black" points="43.2,-546 43.2,-576.8 324.89,-576.8 324.89,-546 43.2,-546"/>
<text text-anchor="start" x="50.2" y="-558.2" font-family="Arial" font-size="14.00">preferences </text>
<text text-anchor="start" x="128.02" y="-558.2" font-family="Arial" font-size="14.00" fill="#666666">[jsonb]</text>
<polygon fill="none" stroke="black" points="43.2,-515.2 43.2,-546 324.89,-546 324.89,-515.2 43.2,-515.2"/>
<text text-anchor="start" x="50.2" y="-527.4" font-family="Arial" font-size="14.00">personal_claude_token </text>
<text text-anchor="start" x="198.87" y="-527.4" font-family="Arial" font-size="14.00" fill="#666666">[text]</text>
<polygon fill="none" stroke="black" points="43.2,-484.4 43.2,-515.2 324.89,-515.2 324.89,-484.4 43.2,-484.4"/>
<text text-anchor="start" x="50.2" y="-496.6" font-family="Arial" font-size="14.00">last_login_at </text>
<text text-anchor="start" x="132.7" y="-496.6" font-family="Arial" font-size="14.00" fill="#666666">[timestamp without time zone]</text>
<polygon fill="none" stroke="black" points="43.2,-453.6 43.2,-484.4 324.89,-484.4 324.89,-453.6 43.2,-453.6"/>
<text text-anchor="start" x="50.2" y="-465.8" font-family="Arial" font-size="14.00">created_at </text>
<text text-anchor="start" x="120.25" y="-465.8" font-family="Arial" font-size="14.00" fill="#666666">[timestamp without time zone]</text>
<polygon fill="none" stroke="black" points="43.2,-422.8 43.2,-453.6 324.89,-453.6 324.89,-422.8 43.2,-422.8"/>
<text text-anchor="start" x="50.2" y="-435" font-family="Arial" font-size="14.00">updated_at </text>
<text text-anchor="start" x="124.16" y="-435" font-family="Arial" font-size="14.00" fill="#666666">[timestamp without time zone]</text>
<polygon fill="none" stroke="black" points="43.2,-392 43.2,-422.8 324.89,-422.8 324.89,-392 43.2,-392"/>
<text text-anchor="start" x="50.2" y="-404.2" font-family="Arial" font-size="14.00">deleted_at </text>
<text text-anchor="start" x="119.48" y="-404.2" font-family="Arial" font-size="14.00" fill="#666666">[timestamp without time zone]</text>
</g>
<!-- public.employees&#45;&gt;public.roles -->
<g id="edge1" class="edge">
<title>public.employees:role_id&#45;&gt;public.roles:id</title>
<path fill="none" stroke="black" d="M336.16,-713.64C403.99,-689.02 368,-413.57 324.89,-348.8 302.06,-314.51 262.43,-347.01 239.47,-312.8 215.4,-276.93 195.27,-215.6 238.47,-215.6"/>
<polygon fill="black" stroke="black" points="336.07,-713.65 325.46,-710.91 330.82,-714.56 326.55,-715.29 326.55,-715.29 326.55,-715.29 330.82,-714.56 326.98,-719.78 336.07,-713.65"/>
<text text-anchor="start" x="332.89" y="-725.4" font-family="Arial" font-size="10.00">FOREIGN KEY (role_id) REFERENCES roles(id)</text>
</g>
<!-- public.invitations -->
<g id="node3" class="node">
<title>public.invitations</title>
<polygon fill="#efefef" stroke="none" points="429.37,-807.8 429.37,-843.4 708.72,-843.4 708.72,-807.8 429.37,-807.8"/>
<polygon fill="none" stroke="black" points="429.37,-807.8 429.37,-843.4 708.72,-843.4 708.72,-807.8 429.37,-807.8"/>
<text text-anchor="start" x="444.05" y="-821.2" font-family="Arial Bold" font-size="18.00">public.invitations</text>
<text text-anchor="start" x="569.54" y="-821.2" font-family="Arial" font-size="14.00">    </text>
<text text-anchor="start" x="600.66" y="-821.2" font-family="Arial" font-size="14.00" fill="#666666">[BASE TABLE]</text>
<polygon fill="none" stroke="black" points="429.37,-777 429.37,-807.8 708.72,-807.8 708.72,-777 429.37,-777"/>
<text text-anchor="start" x="436.37" y="-789.2" font-family="Arial" font-size="14.00">id </text>
<text text-anchor="start" x="451.15" y="-789.2" font-family="Arial" font-size="14.00" fill="#666666">[uuid]</text>
<polygon fill="none" stroke="black" points="429.37,-746.2 429.37,-777 708.72,-777 708.72,-746.2 429.37,-746.2"/>
<text text-anchor="start" x="436.37" y="-758.4" font-family="Arial" font-size="14.00">org_id </text>
<text text-anchor="start" x="479.17" y="-758.4" font-family="Arial" font-size="14.00" fill="#666666">[uuid]</text>
<polygon fill="none" stroke="black" points="429.37,-715.4 429.37,-746.2 708.72,-746.2 708.72,-715.4 429.37,-715.4"/>
<text text-anchor="start" x="436.37" y="-727.6" font-family="Arial" font-size="14.00">inviter_id </text>
<text text-anchor="start" x="496.28" y="-727.6" font-family="Arial" font-size="14.00" fill="#666666">[uuid]</text>
<polygon fill="none" stroke="black" points="429.37,-684.6 429.37,-715.4 708.72,-715.4 708.72,-684.6 429.37,-684.6"/>
<text text-anchor="start" x="436.37" y="-696.8" font-family="Arial" font-size="14.00">email </text>
<text text-anchor="start" x="473.71" y="-696.8" font-family="Arial" font-size="14.00" fill="#666666">[varchar(255)]</text>
<polygon fill="none" stroke="black" points="429.37,-653.8 429.37,-684.6 708.72,-684.6 708.72,-653.8 429.37,-653.8"/>
<text text-anchor="start" x="436.37" y="-666" font-family="Arial" font-size="14.00">role_id </text>
<text text-anchor="start" x="482.28" y="-666" font-family="Arial" font-size="14.00" fill="#666666">[uuid]</text>
<polygon fill="none" stroke="black" points="429.37,-623 429.37,-653.8 708.72,-653.8 708.72,-623 429.37,-623"/>
<text text-anchor="start" x="436.37" y="-635.2" font-family="Arial" font-size="14.00">team_id </text>
<text text-anchor="start" x="490.06" y="-635.2" font-family="Arial" font-size="14.00" fill="#666666">[uuid]</text>
<polygon fill="none" stroke="black" points="429.37,-592.2 429.37,-623 708.72,-623 708.72,-592.2 429.37,-592.2"/>
<text text-anchor="start" x="436.37" y="-604.4" font-family="Arial" font-size="14.00">token </text>
<text text-anchor="start" x="474.5" y="-604.4" font-family="Arial" font-size="14.00" fill="#666666">[varchar(64)]</text>
<polygon fill="none" stroke="black" points="429.37,-561.4 429.37,-592.2 708.72,-592.2 708.72,-561.4 429.37,-561.4"/>
<text text-anchor="start" x="436.37" y="-573.6" font-family="Arial" font-size="14.00">status </text>
<text text-anchor="start" x="477.61" y="-573.6" font-family="Arial" font-size="14.00" fill="#666666">[varchar(50)]</text>
<polygon fill="none" stroke="black" points="429.37,-530.6 429.37,-561.4 708.72,-561.4 708.72,-530.6 429.37,-530.6"/>
<text text-anchor="start" x="436.37" y="-542.8" font-family="Arial" font-size="14.00">expires_at </text>
<text text-anchor="start" x="504.85" y="-542.8" font-family="Arial" font-size="14.00" fill="#666666">[timestamp without time zone]</text>
<polygon fill="none" stroke="black" points="429.37,-499.8 429.37,-530.6 708.72,-530.6 708.72,-499.8 429.37,-499.8"/>
<text text-anchor="start" x="436.37" y="-512" font-family="Arial" font-size="14.00">accepted_by </text>
<text text-anchor="start" x="519.65" y="-512" font-family="Arial" font-size="14.00" fill="#666666">[uuid]</text>
<polygon fill="none" stroke="black" points="429.37,-469 429.37,-499.8 708.72,-499.8 708.72,-469 429.37,-469"/>
<text text-anchor="start" x="436.37" y="-481.2" font-family="Arial" font-size="14.00">accepted_at </text>
<text text-anchor="start" x="516.54" y="-481.2" font-family="Arial" font-size="14.00" fill="#666666">[timestamp without time zone]</text>
<polygon fill="none" stroke="black" points="429.37,-438.2 429.37,-469 708.72,-469 708.72,-438.2 429.37,-438.2"/>
<text text-anchor="start" x="436.37" y="-450.4" font-family="Arial" font-size="14.00">created_at </text>
<text text-anchor="start" x="506.41" y="-450.4" font-family="Arial" font-size="14.00" fill="#666666">[timestamp without time zone]</text>
<polygon fill="none" stroke="black" points="429.37,-407.4 429.37,-438.2 708.72,-438.2 708.72,-407.4 429.37,-407.4"/>
<text text-anchor="start" x="436.37" y="-419.6" font-family="Arial" font-size="14.00">updated_at </text>
<text text-anchor="start" x="510.32" y="-419.6" font-family="Arial" font-size="14.00" fill="#666666">[timestamp without time zone]</text>
</g>
<!-- public.invitations&#45;&gt;public.roles -->
<g id="edge2" class="edge">
<title>public.invitations:role_id&#45;&gt;public.roles:id</title>
<path fill="none" stroke="black" d="M418.16,-667.06C364.48,-642.87 398.06,-420.1 429.37,-364.2 450.61,-326.26 491.24,-350.67 512.62,-312.8 533.86,-275.18 556.82,-215.6 513.62,-215.6"/>
<polygon fill="black" stroke="black" points="418.25,-667.08 427.12,-673.54 423.47,-668.18 427.71,-669.06 427.71,-669.06 427.71,-669.06 423.47,-668.18 428.96,-664.73 418.25,-667.08"/>
<text text-anchor="start" x="377.41" y="-653.2" font-family="Arial" font-size="10.00">FOREIGN KEY (role_id) REFERENCES roles(id)</text>
</g>
</g>
</svg>
