<?xml version="1.0" encoding="UTF-8" standalone="no"?>
<!DOCTYPE svg PUBLIC "-//W3C//DTD SVG 1.1//EN"
 "http://www.w3.org/Graphics/SVG/1.1/DTD/svg11.dtd">
<!-- Generated by graphviz version 12.1.2 (20240928.0832)
 -->
<!-- Title: public.organizations Pages: 1 -->
<svg width="2043pt" height="1033pt"
 viewBox="0.00 0.00 2043.02 1033.20" xmlns="http://www.w3.org/2000/svg" xmlns:xlink="http://www.w3.org/1999/xlink">
<g id="graph0" class="graph" transform="scale(1 1) rotate(0) translate(4 1029.2)">
<title>public.organizations</title>
<polygon fill="white" stroke="none" points="-4,4 -4,-1029.2 2039.02,-1029.2 2039.02,4 -4,4"/>
<!-- public.organizations -->
<g id="node1" class="node">
<title>public.organizations</title>
<polygon fill="#efefef" stroke="none" points="844.02,-354.2 844.02,-389.8 1128.97,-389.8 1128.97,-354.2 844.02,-354.2"/>
<polygon fill="none" stroke="black" points="844.02,-354.2 844.02,-389.8 1128.97,-389.8 1128.97,-354.2 844.02,-354.2"/>
<text text-anchor="start" x="851.02" y="-367.6" font-family="Arial Bold" font-size="18.00">public.organizations</text>
<text text-anchor="start" x="997.48" y="-367.6" font-family="Arial" font-size="14.00">    </text>
<text text-anchor="start" x="1028.6" y="-367.6" font-family="Arial" font-size="14.00" fill="#666666">[BASE TABLE]</text>
<polygon fill="none" stroke="black" points="844.02,-323.4 844.02,-354.2 1128.97,-354.2 1128.97,-323.4 844.02,-323.4"/>
<text text-anchor="start" x="851.02" y="-335.6" font-family="Arial" font-size="14.00">id </text>
<text text-anchor="start" x="865.81" y="-335.6" font-family="Arial" font-size="14.00" fill="#666666">[uuid]</text>
<polygon fill="none" stroke="black" points="844.02,-292.6 844.02,-323.4 1128.97,-323.4 1128.97,-292.6 844.02,-292.6"/>
<text text-anchor="start" x="851.02" y="-304.8" font-family="Arial" font-size="14.00">name </text>
<text text-anchor="start" x="889.93" y="-304.8" font-family="Arial" font-size="14.00" fill="#666666">[varchar(255)]</text>
<polygon fill="none" stroke="black" points="844.02,-261.8 844.02,-292.6 1128.97,-292.6 1128.97,-261.8 844.02,-261.8"/>
<text text-anchor="start" x="851.02" y="-274" font-family="Arial" font-size="14.00">slug </text>
<text text-anchor="start" x="880.59" y="-274" font-family="Arial" font-size="14.00" fill="#666666">[varchar(100)]</text>
<polygon fill="none" stroke="black" points="844.02,-231 844.02,-261.8 1128.97,-261.8 1128.97,-231 844.02,-231"/>
<text text-anchor="start" x="851.02" y="-243.2" font-family="Arial" font-size="14.00">plan </text>
<text text-anchor="start" x="881.38" y="-243.2" font-family="Arial" font-size="14.00" fill="#666666">[varchar(50)]</text>
<polygon fill="none" stroke="black" points="844.02,-200.2 844.02,-231 1128.97,-231 1128.97,-200.2 844.02,-200.2"/>
<text text-anchor="start" x="851.02" y="-212.4" font-family="Arial" font-size="14.00">settings </text>
<text text-anchor="start" x="903.16" y="-212.4" font-family="Arial" font-size="14.00" fill="#666666">[jsonb]</text>
<polygon fill="none" stroke="black" points="844.02,-169.4 844.02,-200.2 1128.97,-200.2 1128.97,-169.4 844.02,-169.4"/>
<text text-anchor="start" x="851.02" y="-181.6" font-family="Arial" font-size="14.00">max_employees </text>
<text text-anchor="start" x="956.85" y="-181.6" font-family="Arial" font-size="14.00" fill="#666666">[integer]</text>
<polygon fill="none" stroke="black" points="844.02,-138.6 844.02,-169.4 1128.97,-169.4 1128.97,-138.6 844.02,-138.6"/>
<text text-anchor="start" x="851.02" y="-150.8" font-family="Arial" font-size="14.00">max_agents_per_employee </text>
<text text-anchor="start" x="1027.69" y="-150.8" font-family="Arial" font-size="14.00" fill="#666666">[integer]</text>
<polygon fill="none" stroke="black" points="844.02,-107.8 844.02,-138.6 1128.97,-138.6 1128.97,-107.8 844.02,-107.8"/>
<text text-anchor="start" x="851.02" y="-120" font-family="Arial" font-size="14.00">claude_api_token </text>
<text text-anchor="start" x="964.67" y="-120" font-family="Arial" font-size="14.00" fill="#666666">[text]</text>
<polygon fill="none" stroke="black" points="844.02,-77 844.02,-107.8 1128.97,-107.8 1128.97,-77 844.02,-77"/>
<text text-anchor="start" x="851.02" y="-89.2" font-family="Arial" font-size="14.00">created_at </text>
<text text-anchor="start" x="921.07" y="-89.2" font-family="Arial" font-size="14.00" fill="#666666">[timestamp without time zone]</text>
<polygon fill="none" stroke="black" points="844.02,-46.2 844.02,-77 1128.97,-77 1128.97,-46.2 844.02,-46.2"/>
<text text-anchor="start" x="851.02" y="-58.4" font-family="Arial" font-size="14.00">updated_at </text>
<text text-anchor="start" x="924.98" y="-58.4" font-family="Arial" font-size="14.00" fill="#666666">[timestamp without time zone]</text>
<polygon fill="none" stroke="black" stroke-width="3" points="842.52,-44.7 842.52,-391.3 1130.47,-391.3 1130.47,-44.7 842.52,-44.7"/>
</g>
<!-- public.subscriptions -->
<g id="node2" class="node">
<title>public.subscriptions</title>
<polygon fill="#efefef" stroke="none" points="43.2,-884.8 43.2,-920.4 363.79,-920.4 363.79,-884.8 43.2,-884.8"/>
<polygon fill="none" stroke="black" points="43.2,-884.8 43.2,-920.4 363.79,-920.4 363.79,-884.8 43.2,-884.8"/>
<text text-anchor="start" x="69.01" y="-898.2" font-family="Arial Bold" font-size="18.00">public.subscriptions</text>
<text text-anchor="start" x="213.5" y="-898.2" font-family="Arial" font-size="14.00">    </text>
<text text-anchor="start" x="244.61" y="-898.2" font-family="Arial" font-size="14.00" fill="#666666">[BASE TABLE]</text>
<polygon fill="none" stroke="black" points="43.2,-854 43.2,-884.8 363.79,-884.8 363.79,-854 43.2,-854"/>
<text text-anchor="start" x="50.2" y="-866.2" font-family="Arial" font-size="14.00">id </text>
<text text-anchor="start" x="64.99" y="-866.2" font-family="Arial" font-size="14.00" fill="#666666">[uuid]</text>
<polygon fill="none" stroke="black" points="43.2,-823.2 43.2,-854 363.79,-854 363.79,-823.2 43.2,-823.2"/>
<text text-anchor="start" x="50.2" y="-835.4" font-family="Arial" font-size="14.00">org_id </text>
<text text-anchor="start" x="93.01" y="-835.4" font-family="Arial" font-size="14.00" fill="#666666">[uuid]</text>
<polygon fill="none" stroke="black" points="43.2,-792.4 43.2,-823.2 363.79,-823.2 363.79,-792.4 43.2,-792.4"/>
<text text-anchor="start" x="50.2" y="-804.6" font-family="Arial" font-size="14.00">plan_type </text>
<text text-anchor="start" x="114.81" y="-804.6" font-family="Arial" font-size="14.00" fill="#666666">[varchar(50)]</text>
<polygon fill="none" stroke="black" points="43.2,-761.6 43.2,-792.4 363.79,-792.4 363.79,-761.6 43.2,-761.6"/>
<text text-anchor="start" x="50.2" y="-773.8" font-family="Arial" font-size="14.00">monthly_budget_usd </text>
<text text-anchor="start" x="184.08" y="-773.8" font-family="Arial" font-size="14.00" fill="#666666">[numeric(10,2)]</text>
<polygon fill="none" stroke="black" points="43.2,-730.8 43.2,-761.6 363.79,-761.6 363.79,-730.8 43.2,-730.8"/>
<text text-anchor="start" x="50.2" y="-743" font-family="Arial" font-size="14.00">current_spending_usd </text>
<text text-anchor="start" x="192.63" y="-743" font-family="Arial" font-size="14.00" fill="#666666">[numeric(10,2)]</text>
<polygon fill="none" stroke="black" points="43.2,-700 43.2,-730.8 363.79,-730.8 363.79,-700 43.2,-700"/>
<text text-anchor="start" x="50.2" y="-712.2" font-family="Arial" font-size="14.00">billing_period_start </text>
<text text-anchor="start" x="171.61" y="-712.2" font-family="Arial" font-size="14.00" fill="#666666">[timestamp without time zone]</text>
<polygon fill="none" stroke="black" points="43.2,-669.2 43.2,-700 363.79,-700 363.79,-669.2 43.2,-669.2"/>
<text text-anchor="start" x="50.2" y="-681.4" font-family="Arial" font-size="14.00">billing_period_end </text>
<text text-anchor="start" x="167.74" y="-681.4" font-family="Arial" font-size="14.00" fill="#666666">[timestamp without time zone]</text>
<polygon fill="none" stroke="black" points="43.2,-638.4 43.2,-669.2 363.79,-669.2 363.79,-638.4 43.2,-638.4"/>
<text text-anchor="start" x="50.2" y="-650.6" font-family="Arial" font-size="14.00">status </text>
<text text-anchor="start" x="91.44" y="-650.6" font-family="Arial" font-size="14.00" fill="#666666">[varchar(50)]</text>
<polygon fill="none" stroke="black" points="43.2,-607.6 43.2,-638.4 363.79,-638.4 363.79,-607.6 43.2,-607.6"/>
<text text-anchor="start" x="50.2" y="-619.8" font-family="Arial" font-size="14.00">created_at </text>
<text text-anchor="start" x="120.25" y="-619.8" font-family="Arial" font-size="14.00" fill="#666666">[timestamp without time zone]</text>
<polygon fill="none" stroke="black" points="43.2,-576.8 43.2,-607.6 363.79,-607.6 363.79,-576.8 43.2,-576.8"/>
<text text-anchor="start" x="50.2" y="-589" font-family="Arial" font-size="14.00">updated_at </text>
<text text-anchor="start" x="124.16" y="-589" font-family="Arial" font-size="14.00" fill="#666666">[timestamp without time zone]</text>
</g>
<!-- public.subscriptions&#45;&gt;public.organizations -->
<g id="edge1" class="edge">
<title>public.subscriptions:org_id&#45;&gt;public.organizations:id</title>
<path fill="none" stroke="black" d="M374.89,-836.81C439.7,-811.79 364.71,-531.92 415.5,-472 479.84,-396.09 743.51,-338.8 843.02,-338.8"/>
<polygon fill="black" stroke="black" points="374.97,-836.8 364.34,-834.11 369.72,-837.73 365.45,-838.48 365.45,-838.48 365.45,-838.48 369.72,-837.73 365.91,-842.97 374.97,-836.8"/>
<text text-anchor="start" x="371.79" y="-848.6" font-family="Arial" font-size="10.00">FOREIGN KEY (org_id) REFERENCES organizations(id) ON DELETE CASCADE</text>
</g>
<!-- public.teams -->
<g id="node3" class="node">
<title>public.teams</title>
<polygon fill="#efefef" stroke="none" points="467.92,-823.2 467.92,-858.8 741.07,-858.8 741.07,-823.2 467.92,-823.2"/>
<polygon fill="none" stroke="black" points="467.92,-823.2 467.92,-858.8 741.07,-858.8 741.07,-823.2 467.92,-823.2"/>
<text text-anchor="start" x="496.51" y="-836.6" font-family="Arial Bold" font-size="18.00">public.teams</text>
<text text-anchor="start" x="587.99" y="-836.6" font-family="Arial" font-size="14.00">    </text>
<text text-anchor="start" x="619.11" y="-836.6" font-family="Arial" font-size="14.00" fill="#666666">[BASE TABLE]</text>
<polygon fill="none" stroke="black" points="467.92,-792.4 467.92,-823.2 741.07,-823.2 741.07,-792.4 467.92,-792.4"/>
<text text-anchor="start" x="474.92" y="-804.6" font-family="Arial" font-size="14.00">id </text>
<text text-anchor="start" x="489.71" y="-804.6" font-family="Arial" font-size="14.00" fill="#666666">[uuid]</text>
<polygon fill="none" stroke="black" points="467.92,-761.6 467.92,-792.4 741.07,-792.4 741.07,-761.6 467.92,-761.6"/>
<text text-anchor="start" x="474.92" y="-773.8" font-family="Arial" font-size="14.00">org_id </text>
<text text-anchor="start" x="517.73" y="-773.8" font-family="Arial" font-size="14.00" fill="#666666">[uuid]</text>
<polygon fill="none" stroke="black" points="467.92,-730.8 467.92,-761.6 741.07,-761.6 741.07,-730.8 467.92,-730.8"/>
<text text-anchor="start" x="474.92" y="-743" font-family="Arial" font-size="14.00">name </text>
<text text-anchor="start" x="513.83" y="-743" font-family="Arial" font-size="14.00" fill="#666666">[varchar(255)]</text>
<polygon fill="none" stroke="black" points="467.92,-700 467.92,-730.8 741.07,-730.8 741.07,-700 467.92,-700"/>
<text text-anchor="start" x="474.92" y="-712.2" font-family="Arial" font-size="14.00">description </text>
<text text-anchor="start" x="546.52" y="-712.2" font-family="Arial" font-size="14.00" fill="#666666">[text]</text>
<polygon fill="none" stroke="black" points="467.92,-669.2 467.92,-700 741.07,-700 741.07,-669.2 467.92,-669.2"/>
<text text-anchor="start" x="474.92" y="-681.4" font-family="Arial" font-size="14.00">created_at </text>
<text text-anchor="start" x="544.97" y="-681.4" font-family="Arial" font-size="14.00" fill="#666666">[timestamp without time zone]</text>
<polygon fill="none" stroke="black" points="467.92,-638.4 467.92,-669.2 741.07,-669.2 741.07,-638.4 467.92,-638.4"/>
<text text-anchor="start" x="474.92" y="-650.6" font-family="Arial" font-size="14.00">updated_at </text>
<text text-anchor="start" x="548.88" y="-650.6" font-family="Arial" font-size="14.00" fill="#666666">[timestamp without time zone]</text>
</g>
<!-- public.teams&#45;&gt;public.organizations -->
<g id="edge2" class="edge">
<title>public.teams:org_id&#45;&gt;public.organizations:id</title>
<path fill="none" stroke="black" d="M752.1,-775.07C807.25,-752.31 776.66,-534.9 793.5,-472 809.82,-410.99 779.86,-338.8 843.02,-338.8"/>
<polygon fill="black" stroke="black" points="752.22,-775.05 741.55,-772.52 746.98,-776.06 742.72,-776.87 742.72,-776.87 742.72,-776.87 746.98,-776.06 743.25,-781.36 752.22,-775.05"/>
<text text-anchor="start" x="749.07" y="-787" font-family="Arial" font-size="10.00">FOREIGN KEY (org_id) REFERENCES organizations(id) ON DELETE CASCADE</text>
</g>
<!-- public.employees -->
<g id="node4" class="node">
<title>public.employees</title>
<polygon fill="#efefef" stroke="none" points="845.65,-946.4 845.65,-982 1127.34,-982 1127.34,-946.4 845.65,-946.4"/>
<polygon fill="none" stroke="black" points="845.65,-946.4 845.65,-982 1127.34,-982 1127.34,-946.4 845.65,-946.4"/>
<text text-anchor="start" x="861.02" y="-959.8" font-family="Arial Bold" font-size="18.00">public.employees</text>
<text text-anchor="start" x="987.48" y="-959.8" font-family="Arial" font-size="14.00">    </text>
<text text-anchor="start" x="1018.6" y="-959.8" font-family="Arial" font-size="14.00" fill="#666666">[BASE TABLE]</text>
<polygon fill="none" stroke="black" points="845.65,-915.6 845.65,-946.4 1127.34,-946.4 1127.34,-915.6 845.65,-915.6"/>
<text text-anchor="start" x="852.65" y="-927.8" font-family="Arial" font-size="14.00">id </text>
<text text-anchor="start" x="867.44" y="-927.8" font-family="Arial" font-size="14.00" fill="#666666">[uuid]</text>
<polygon fill="none" stroke="black" points="845.65,-884.8 845.65,-915.6 1127.34,-915.6 1127.34,-884.8 845.65,-884.8"/>
<text text-anchor="start" x="852.65" y="-897" font-family="Arial" font-size="14.00">org_id </text>
<text text-anchor="start" x="895.46" y="-897" font-family="Arial" font-size="14.00" fill="#666666">[uuid]</text>
<polygon fill="none" stroke="black" points="845.65,-854 845.65,-884.8 1127.34,-884.8 1127.34,-854 845.65,-854"/>
<text text-anchor="start" x="852.65" y="-866.2" font-family="Arial" font-size="14.00">team_id </text>
<text text-anchor="start" x="906.35" y="-866.2" font-family="Arial" font-size="14.00" fill="#666666">[uuid]</text>
<polygon fill="none" stroke="black" points="845.65,-823.2 845.65,-854 1127.34,-854 1127.34,-823.2 845.65,-823.2"/>
<text text-anchor="start" x="852.65" y="-835.4" font-family="Arial" font-size="14.00">role_id </text>
<text text-anchor="start" x="898.57" y="-835.4" font-family="Arial" font-size="14.00" fill="#666666">[uuid]</text>
<polygon fill="none" stroke="black" points="845.65,-792.4 845.65,-823.2 1127.34,-823.2 1127.34,-792.4 845.65,-792.4"/>
<text text-anchor="start" x="852.65" y="-804.6" font-family="Arial" font-size="14.00">email </text>
<text text-anchor="start" x="890" y="-804.6" font-family="Arial" font-size="14.00" fill="#666666">[varchar(255)]</text>
<polygon fill="none" stroke="black" points="845.65,-761.6 845.65,-792.4 1127.34,-792.4 1127.34,-761.6 845.65,-761.6"/>
<text text-anchor="start" x="852.65" y="-773.8" font-family="Arial" font-size="14.00">full_name </text>
<text text-anchor="start" x="917.24" y="-773.8" font-family="Arial" font-size="14.00" fill="#666666">[varchar(255)]</text>
<polygon fill="none" stroke="black" points="845.65,-730.8 845.65,-761.6 1127.34,-761.6 1127.34,-730.8 845.65,-730.8"/>
<text text-anchor="start" x="852.65" y="-743" font-family="Arial" font-size="14.00">password_hash </text>
<text text-anchor="start" x="954.6" y="-743" font-family="Arial" font-size="14.00" fill="#666666">[varchar(255)]</text>
<polygon fill="none" stroke="black" points="845.65,-700 845.65,-730.8 1127.34,-730.8 1127.34,-700 845.65,-700"/>
<text text-anchor="start" x="852.65" y="-712.2" font-family="Arial" font-size="14.00">status </text>
<text text-anchor="start" x="893.89" y="-712.2" font-family="Arial" font-size="14.00" fill="#666666">[varchar(50)]</text>
<polygon fill="none" stroke="black" points="845.65,-669.2 845.65,-700 1127.34,-700 1127.34,-669.2 845.65,-669.2"/>
<text text-anchor="start" x="852.65" y="-681.4" font-family="Arial" font-size="14.00">preferences </text>
<text text-anchor="start" x="930.47" y="-681.4" font-family="Arial" font-size="14.00" fill="#666666">[jsonb]</text>
<polygon fill="none" stroke="black" points="845.65,-638.4 845.65,-669.2 1127.34,-669.2 1127.34,-638.4 845.65,-638.4"/>
<text text-anchor="start" x="852.65" y="-650.6" font-family="Arial" font-size="14.00">personal_claude_token </text>
<text text-anchor="start" x="1001.32" y="-650.6" font-family="Arial" font-size="14.00" fill="#666666">[text]</text>
<polygon fill="none" stroke="black" points="845.65,-607.6 845.65,-638.4 1127.34,-638.4 1127.34,-607.6 845.65,-607.6"/>
<text text-anchor="start" x="852.65" y="-619.8" font-family="Arial" font-size="14.00">last_login_at </text>
<text text-anchor="start" x="935.15" y="-619.8" font-family="Arial" font-size="14.00" fill="#666666">[timestamp without time zone]</text>
<polygon fill="none" stroke="black" points="845.65,-576.8 845.65,-607.6 1127.34,-607.6 1127.34,-576.8 845.65,-576.8"/>
<text text-anchor="start" x="852.65" y="-589" font-family="Arial" font-size="14.00">created_at </text>
<text text-anchor="start" x="922.7" y="-589" font-family="Arial" font-size="14.00" fill="#666666">[timestamp without time zone]</text>
<polygon fill="none" stroke="black" points="845.65,-546 845.65,-576.8 1127.34,-576.8 1127.34,-546 845.65,-546"/>
<text text-anchor="start" x="852.65" y="-558.2" font-family="Arial" font-size="14.00">updated_at </text>
<text text-anchor="start" x="926.61" y="-558.2" font-family="Arial" font-size="14.00" fill="#666666">[timestamp without time zone]</text>
<polygon fill="none" stroke="black" points="845.65,-515.2 845.65,-546 1127.34,-546 1127.34,-515.2 845.65,-515.2"/>
<text text-anchor="start" x="852.65" y="-527.4" font-family="Arial" font-size="14.00">deleted_at </text>
<text text-anchor="start" x="921.93" y="-527.4" font-family="Arial" font-size="14.00" fill="#666666">[timestamp without time zone]</text>
</g>
<!-- public.employees&#45;&gt;public.organizations -->
<g id="edge3" class="edge">
<title>public.employees:org_id&#45;&gt;public.organizations:id</title>
<path fill="none" stroke="black" d="M1137.7,-895.68C1190.71,-842.55 1189.06,-338.8 1129.97,-338.8"/>
<polygon fill="black" stroke="black" points="1137.65,-895.71 1126.69,-896 1132.84,-898.03 1128.94,-899.91 1128.94,-899.91 1128.94,-899.91 1132.84,-898.03 1130.6,-904.11 1137.65,-895.71"/>
<text text-anchor="start" x="1135.34" y="-910.2" font-family="Arial" font-size="10.00">FOREIGN KEY (org_id) REFERENCES organizations(id) ON DELETE CASCADE</text>
</g>
<!-- public.org_agent_configs -->
<g id="node5" class="node">
<title>public.org_agent_configs</title>
<polygon fill="#efefef" stroke="none" points="1231.52,-838.6 1231.52,-874.2 1553.47,-874.2 1553.47,-838.6 1231.52,-838.6"/>
<polygon fill="none" stroke="black" points="1231.52,-838.6 1231.52,-874.2 1553.47,-874.2 1553.47,-838.6 1231.52,-838.6"/>
<text text-anchor="start" x="1238.52" y="-852" font-family="Arial Bold" font-size="18.00">public.org_agent_configs</text>
<text text-anchor="start" x="1421.98" y="-852" font-family="Arial" font-size="14.00">    </text>
<text text-anchor="start" x="1453.1" y="-852" font-family="Arial" font-size="14.00" fill="#666666">[BASE TABLE]</text>
<polygon fill="none" stroke="black" points="1231.52,-807.8 1231.52,-838.6 1553.47,-838.6 1553.47,-807.8 1231.52,-807.8"/>
<text text-anchor="start" x="1238.52" y="-820" font-family="Arial" font-size="14.00">id </text>
<text text-anchor="start" x="1253.31" y="-820" font-family="Arial" font-size="14.00" fill="#666666">[uuid]</text>
<polygon fill="none" stroke="black" points="1231.52,-777 1231.52,-807.8 1553.47,-807.8 1553.47,-777 1231.52,-777"/>
<text text-anchor="start" x="1238.52" y="-789.2" font-family="Arial" font-size="14.00">org_id </text>
<text text-anchor="start" x="1281.33" y="-789.2" font-family="Arial" font-size="14.00" fill="#666666">[uuid]</text>
<polygon fill="none" stroke="black" points="1231.52,-746.2 1231.52,-777 1553.47,-777 1553.47,-746.2 1231.52,-746.2"/>
<text text-anchor="start" x="1238.52" y="-758.4" font-family="Arial" font-size="14.00">agent_id </text>
<text text-anchor="start" x="1296.13" y="-758.4" font-family="Arial" font-size="14.00" fill="#666666">[uuid]</text>
<polygon fill="none" stroke="black" points="1231.52,-715.4 1231.52,-746.2 1553.47,-746.2 1553.47,-715.4 1231.52,-715.4"/>
<text text-anchor="start" x="1238.52" y="-727.6" font-family="Arial" font-size="14.00">config </text>
<text text-anchor="start" x="1279.77" y="-727.6" font-family="Arial" font-size="14.00" fill="#666666">[jsonb]</text>
<polygon fill="none" stroke="black" points="1231.52,-684.6 1231.52,-715.4 1553.47,-715.4 1553.47,-684.6 1231.52,-684.6"/>
<text text-anchor="start" x="1238.52" y="-696.8" font-family="Arial" font-size="14.00">is_enabled </text>
<text text-anchor="start" x="1310.14" y="-696.8" font-family="Arial" font-size="14.00" fill="#666666">[boolean]</text>
<polygon fill="none" stroke="black" points="1231.52,-653.8 1231.52,-684.6 1553.47,-684.6 1553.47,-653.8 1231.52,-653.8"/>
<text text-anchor="start" x="1238.52" y="-666" font-family="Arial" font-size="14.00">created_at </text>
<text text-anchor="start" x="1308.57" y="-666" font-family="Arial" font-size="14.00" fill="#666666">[timestamp without time zone]</text>
<polygon fill="none" stroke="black" points="1231.52,-623 1231.52,-653.8 1553.47,-653.8 1553.47,-623 1231.52,-623"/>
<text text-anchor="start" x="1238.52" y="-635.2" font-family="Arial" font-size="14.00">updated_at </text>
<text text-anchor="start" x="1312.48" y="-635.2" font-family="Arial" font-size="14.00" fill="#666666">[timestamp without time zone]</text>
</g>
<!-- public.org_agent_configs&#45;&gt;public.organizations -->
<g id="edge4" class="edge">
<title>public.org_agent_configs:org_id&#45;&gt;public.organizations:id</title>
<path fill="none" stroke="black" d="M1220.39,-790.76C1134.47,-761.07 1229.59,-338.8 1129.97,-338.8"/>
<polygon fill="black" stroke="black" points="1220.32,-790.75 1229.47,-796.79 1225.59,-791.6 1229.86,-792.29 1229.86,-792.29 1229.86,-792.29 1225.59,-791.6 1230.91,-787.9 1220.32,-790.75"/>
<text text-anchor="start" x="1237.52" y="-802.4" font-family="Arial" font-size="10.00">FOREIGN KEY (org_id) REFERENCES organizations(id) ON DELETE CASCADE</text>
</g>
<!-- public.usage_records -->
<g id="node6" class="node">
<title>public.usage_records</title>
<polygon fill="#efefef" stroke="none" points="1658.03,-915.6 1658.03,-951.2 1948.96,-951.2 1948.96,-915.6 1658.03,-915.6"/>
<polygon fill="none" stroke="black" points="1658.03,-915.6 1658.03,-951.2 1948.96,-951.2 1948.96,-915.6 1658.03,-915.6"/>
<text text-anchor="start" x="1665.03" y="-929" font-family="Arial Bold" font-size="18.00">public.usage_records</text>
<text text-anchor="start" x="1817.47" y="-929" font-family="Arial" font-size="14.00">    </text>
<text text-anchor="start" x="1848.59" y="-929" font-family="Arial" font-size="14.00" fill="#666666">[BASE TABLE]</text>
<polygon fill="none" stroke="black" points="1658.03,-884.8 1658.03,-915.6 1948.96,-915.6 1948.96,-884.8 1658.03,-884.8"/>
<text text-anchor="start" x="1665.03" y="-897" font-family="Arial" font-size="14.00">id </text>
<text text-anchor="start" x="1679.81" y="-897" font-family="Arial" font-size="14.00" fill="#666666">[uuid]</text>
<polygon fill="none" stroke="black" points="1658.03,-854 1658.03,-884.8 1948.96,-884.8 1948.96,-854 1658.03,-854"/>
<text text-anchor="start" x="1665.03" y="-866.2" font-family="Arial" font-size="14.00">org_id </text>
<text text-anchor="start" x="1707.83" y="-866.2" font-family="Arial" font-size="14.00" fill="#666666">[uuid]</text>
<polygon fill="none" stroke="black" points="1658.03,-823.2 1658.03,-854 1948.96,-854 1948.96,-823.2 1658.03,-823.2"/>
<text text-anchor="start" x="1665.03" y="-835.4" font-family="Arial" font-size="14.00">employee_id </text>
<text text-anchor="start" x="1748.3" y="-835.4" font-family="Arial" font-size="14.00" fill="#666666">[uuid]</text>
<polygon fill="none" stroke="black" points="1658.03,-792.4 1658.03,-823.2 1948.96,-823.2 1948.96,-792.4 1658.03,-792.4"/>
<text text-anchor="start" x="1665.03" y="-804.6" font-family="Arial" font-size="14.00">agent_config_id </text>
<text text-anchor="start" x="1767.78" y="-804.6" font-family="Arial" font-size="14.00" fill="#666666">[uuid]</text>
<polygon fill="none" stroke="black" points="1658.03,-761.6 1658.03,-792.4 1948.96,-792.4 1948.96,-761.6 1658.03,-761.6"/>
<text text-anchor="start" x="1665.03" y="-773.8" font-family="Arial" font-size="14.00">resource_type </text>
<text text-anchor="start" x="1757.63" y="-773.8" font-family="Arial" font-size="14.00" fill="#666666">[varchar(50)]</text>
<polygon fill="none" stroke="black" points="1658.03,-730.8 1658.03,-761.6 1948.96,-761.6 1948.96,-730.8 1658.03,-730.8"/>
<text text-anchor="start" x="1665.03" y="-743" font-family="Arial" font-size="14.00">quantity </text>
<text text-anchor="start" x="1717.95" y="-743" font-family="Arial" font-size="14.00" fill="#666666">[bigint]</text>
<polygon fill="none" stroke="black" points="1658.03,-700 1658.03,-730.8 1948.96,-730.8 1948.96,-700 1658.03,-700"/>
<text text-anchor="start" x="1665.03" y="-712.2" font-family="Arial" font-size="14.00">cost_usd </text>
<text text-anchor="start" x="1724.95" y="-712.2" font-family="Arial" font-size="14.00" fill="#666666">[numeric(10,4)]</text>
<polygon fill="none" stroke="black" points="1658.03,-669.2 1658.03,-700 1948.96,-700 1948.96,-669.2 1658.03,-669.2"/>
<text text-anchor="start" x="1665.03" y="-681.4" font-family="Arial" font-size="14.00">period_start </text>
<text text-anchor="start" x="1742.85" y="-681.4" font-family="Arial" font-size="14.00" fill="#666666">[timestamp without time zone]</text>
<polygon fill="none" stroke="black" points="1658.03,-638.4 1658.03,-669.2 1948.96,-669.2 1948.96,-638.4 1658.03,-638.4"/>
<text text-anchor="start" x="1665.03" y="-650.6" font-family="Arial" font-size="14.00">period_end </text>
<text text-anchor="start" x="1738.98" y="-650.6" font-family="Arial" font-size="14.00" fill="#666666">[timestamp without time zone]</text>
<polygon fill="none" stroke="black" points="1658.03,-607.6 1658.03,-638.4 1948.96,-638.4 1948.96,-607.6 1658.03,-607.6"/>
<text text-anchor="start" x="1665.03" y="-619.8" font-family="Arial" font-size="14.00">metadata </text>
<text text-anchor="start" x="1727.29" y="-619.8" font-family="Arial" font-size="14.00" fill="#666666">[jsonb]</text>
<polygon fill="none" stroke="black" points="1658.03,-576.8 1658.03,-607.6 1948.96,-607.6 1948.96,-576.8 1658.03,-576.8"/>
<text text-anchor="start" x="1665.03" y="-589" font-family="Arial" font-size="14.00">token_source </text>
<text text-anchor="start" x="1752.97" y="-589" font-family="Arial" font-size="14.00" fill="#666666">[varchar(20)]</text>
<polygon fill="none" stroke="black" points="1658.03,-546 1658.03,-576.8 1948.96,-576.8 1948.96,-546 1658.03,-546"/>
<text text-anchor="start" x="1665.03" y="-558.2" font-family="Arial" font-size="14.00">created_at </text>
<text text-anchor="start" x="1735.08" y="-558.2" font-family="Arial" font-size="14.00" fill="#666666">[timestamp without time zone]</text>
</g>
<!-- public.usage_records&#45;&gt;public.organizations -->
<g id="edge5" class="edge">
<title>public.usage_records:org_id&#45;&gt;public.organizations:id</title>
<path fill="none" stroke="black" d="M1646.98,-867.78C1575.58,-842.77 1661.38,-536.58 1605.5,-472 1533.69,-389.02 1239.71,-338.8 1129.97,-338.8"/>
<polygon fill="black" stroke="black" points="1646.83,-867.75 1655.98,-873.79 1652.09,-868.6 1656.37,-869.29 1656.37,-869.29 1656.37,-869.29 1652.09,-868.6 1657.42,-864.9 1646.83,-867.75"/>
<text text-anchor="start" x="1664.03" y="-879.4" font-family="Arial" font-size="10.00">FOREIGN KEY (org_id) REFERENCES organizations(id) ON DELETE CASCADE</text>
</g>
</g>
</svg>
