<?xml version="1.0" encoding="UTF-8" standalone="no"?>
<!DOCTYPE svg PUBLIC "-//W3C//DTD SVG 1.1//EN"
 "http://www.w3.org/Graphics/SVG/1.1/DTD/svg11.dtd">
<!-- Generated by graphviz version 12.1.2 (20240928.0832)
 -->
<!-- Title: public.webhook_deliveries Pages: 1 -->
<svg width="1166pt" height="1187pt"
 viewBox="0.00 0.00 1166.19 1187.20" xmlns="http://www.w3.org/2000/svg" xmlns:xlink="http://www.w3.org/1999/xlink">
<g id="graph0" class="graph" transform="scale(1 1) rotate(0) translate(4 1183.2)">
<title>public.webhook_deliveries</title>
<polygon fill="white" stroke="none" points="-4,4 -4,-1183.2 1162.19,-1183.2 1162.19,4 -4,4"/>
<!-- public.webhook_deliveries -->
<g id="node1" class="node">
<title>public.webhook_deliveries</title>
<polygon fill="#efefef" stroke="none" points="452.38,-1097.4 452.38,-1133 785.32,-1133 785.32,-1097.4 452.38,-1097.4"/>
<polygon fill="none" stroke="black" points="452.38,-1097.4 452.38,-1133 785.32,-1133 785.32,-1097.4 452.38,-1097.4"/>
<text text-anchor="start" x="459.38" y="-1110.8" font-family="Arial Bold" font-size="18.00">public.webhook_deliveries</text>
<text text-anchor="start" x="653.83" y="-1110.8" font-family="Arial" font-size="14.00">    </text>
<text text-anchor="start" x="684.95" y="-1110.8" font-family="Arial" font-size="14.00" fill="#666666">[BASE TABLE]</text>
<polygon fill="none" stroke="black" points="452.38,-1066.6 452.38,-1097.4 785.32,-1097.4 785.32,-1066.6 452.38,-1066.6"/>
<text text-anchor="start" x="459.38" y="-1078.8" font-family="Arial" font-size="14.00">id </text>
<text text-anchor="start" x="474.17" y="-1078.8" font-family="Arial" font-size="14.00" fill="#666666">[uuid]</text>
<polygon fill="none" stroke="black" points="452.38,-1035.8 452.38,-1066.6 785.32,-1066.6 785.32,-1035.8 452.38,-1035.8"/>
<text text-anchor="start" x="459.38" y="-1048" font-family="Arial" font-size="14.00">destination_id </text>
<text text-anchor="start" x="549.67" y="-1048" font-family="Arial" font-size="14.00" fill="#666666">[uuid]</text>
<polygon fill="none" stroke="black" points="452.38,-1005 452.38,-1035.8 785.32,-1035.8 785.32,-1005 452.38,-1005"/>
<text text-anchor="start" x="459.38" y="-1017.2" font-family="Arial" font-size="14.00">log_id </text>
<text text-anchor="start" x="500.64" y="-1017.2" font-family="Arial" font-size="14.00" fill="#666666">[uuid]</text>
<polygon fill="none" stroke="black" points="452.38,-974.2 452.38,-1005 785.32,-1005 785.32,-974.2 452.38,-974.2"/>
<text text-anchor="start" x="459.38" y="-986.4" font-family="Arial" font-size="14.00">status </text>
<text text-anchor="start" x="500.62" y="-986.4" font-family="Arial" font-size="14.00" fill="#666666">[varchar(50)]</text>
<polygon fill="none" stroke="black" points="452.38,-943.4 452.38,-974.2 785.32,-974.2 785.32,-943.4 452.38,-943.4"/>
<text text-anchor="start" x="459.38" y="-955.6" font-family="Arial" font-size="14.00">attempts </text>
<text text-anchor="start" x="516.96" y="-955.6" font-family="Arial" font-size="14.00" fill="#666666">[integer]</text>
<polygon fill="none" stroke="black" points="452.38,-912.6 452.38,-943.4 785.32,-943.4 785.32,-912.6 452.38,-912.6"/>
<text text-anchor="start" x="459.38" y="-924.8" font-family="Arial" font-size="14.00">last_attempt_at </text>
<text text-anchor="start" x="559" y="-924.8" font-family="Arial" font-size="14.00" fill="#666666">[timestamp without time zone]</text>
<polygon fill="none" stroke="black" points="452.38,-881.8 452.38,-912.6 785.32,-912.6 785.32,-881.8 452.38,-881.8"/>
<text text-anchor="start" x="459.38" y="-894" font-family="Arial" font-size="14.00">next_retry_at </text>
<text text-anchor="start" x="544.98" y="-894" font-family="Arial" font-size="14.00" fill="#666666">[timestamp without time zone]</text>
<polygon fill="none" stroke="black" points="452.38,-851 452.38,-881.8 785.32,-881.8 785.32,-851 452.38,-851"/>
<text text-anchor="start" x="459.38" y="-863.2" font-family="Arial" font-size="14.00">response_status </text>
<text text-anchor="start" x="566" y="-863.2" font-family="Arial" font-size="14.00" fill="#666666">[integer]</text>
<polygon fill="none" stroke="black" points="452.38,-820.2 452.38,-851 785.32,-851 785.32,-820.2 452.38,-820.2"/>
<text text-anchor="start" x="459.38" y="-832.4" font-family="Arial" font-size="14.00">response_body </text>
<text text-anchor="start" x="559.01" y="-832.4" font-family="Arial" font-size="14.00" fill="#666666">[text]</text>
<polygon fill="none" stroke="black" points="452.38,-789.4 452.38,-820.2 785.32,-820.2 785.32,-789.4 452.38,-789.4"/>
<text text-anchor="start" x="459.38" y="-801.6" font-family="Arial" font-size="14.00">error_message </text>
<text text-anchor="start" x="557.42" y="-801.6" font-family="Arial" font-size="14.00" fill="#666666">[text]</text>
<polygon fill="none" stroke="black" points="452.38,-758.6 452.38,-789.4 785.32,-789.4 785.32,-758.6 452.38,-758.6"/>
<text text-anchor="start" x="459.38" y="-770.8" font-family="Arial" font-size="14.00">created_at </text>
<text text-anchor="start" x="529.43" y="-770.8" font-family="Arial" font-size="14.00" fill="#666666">[timestamp without time zone]</text>
<polygon fill="none" stroke="black" points="452.38,-727.8 452.38,-758.6 785.32,-758.6 785.32,-727.8 452.38,-727.8"/>
<text text-anchor="start" x="459.38" y="-740" font-family="Arial" font-size="14.00">delivered_at </text>
<text text-anchor="start" x="539.55" y="-740" font-family="Arial" font-size="14.00" fill="#666666">[timestamp without time zone]</text>
<polygon fill="none" stroke="black" stroke-width="3" points="450.88,-726.3 450.88,-1134.5 786.82,-1134.5 786.82,-726.3 450.88,-726.3"/>
</g>
<!-- public.webhook_destinations -->
<g id="node2" class="node">
<title>public.webhook_destinations</title>
<polygon fill="#efefef" stroke="none" points="235.37,-566.8 235.37,-602.4 584.33,-602.4 584.33,-566.8 235.37,-566.8"/>
<polygon fill="none" stroke="black" points="235.37,-566.8 235.37,-602.4 584.33,-602.4 584.33,-566.8 235.37,-566.8"/>
<text text-anchor="start" x="242.37" y="-580.2" font-family="Arial Bold" font-size="18.00">public.webhook_destinations</text>
<text text-anchor="start" x="452.84" y="-580.2" font-family="Arial" font-size="14.00">    </text>
<text text-anchor="start" x="483.96" y="-580.2" font-family="Arial" font-size="14.00" fill="#666666">[BASE TABLE]</text>
<polygon fill="none" stroke="black" points="235.37,-536 235.37,-566.8 584.33,-566.8 584.33,-536 235.37,-536"/>
<text text-anchor="start" x="242.37" y="-548.2" font-family="Arial" font-size="14.00">id </text>
<text text-anchor="start" x="257.16" y="-548.2" font-family="Arial" font-size="14.00" fill="#666666">[uuid]</text>
<polygon fill="none" stroke="black" points="235.37,-505.2 235.37,-536 584.33,-536 584.33,-505.2 235.37,-505.2"/>
<text text-anchor="start" x="242.37" y="-517.4" font-family="Arial" font-size="14.00">org_id </text>
<text text-anchor="start" x="285.18" y="-517.4" font-family="Arial" font-size="14.00" fill="#666666">[uuid]</text>
<polygon fill="none" stroke="black" points="235.37,-474.4 235.37,-505.2 584.33,-505.2 584.33,-474.4 235.37,-474.4"/>
<text text-anchor="start" x="242.37" y="-486.6" font-family="Arial" font-size="14.00">name </text>
<text text-anchor="start" x="281.28" y="-486.6" font-family="Arial" font-size="14.00" fill="#666666">[varchar(100)]</text>
<polygon fill="none" stroke="black" points="235.37,-443.6 235.37,-474.4 584.33,-474.4 584.33,-443.6 235.37,-443.6"/>
<text text-anchor="start" x="242.37" y="-455.8" font-family="Arial" font-size="14.00">url </text>
<text text-anchor="start" x="261.82" y="-455.8" font-family="Arial" font-size="14.00" fill="#666666">[text]</text>
<polygon fill="none" stroke="black" points="235.37,-412.8 235.37,-443.6 584.33,-443.6 584.33,-412.8 235.37,-412.8"/>
<text text-anchor="start" x="242.37" y="-425" font-family="Arial" font-size="14.00">auth_type </text>
<text text-anchor="start" x="307.76" y="-425" font-family="Arial" font-size="14.00" fill="#666666">[varchar(50)]</text>
<polygon fill="none" stroke="black" points="235.37,-382 235.37,-412.8 584.33,-412.8 584.33,-382 235.37,-382"/>
<text text-anchor="start" x="242.37" y="-394.2" font-family="Arial" font-size="14.00">auth_config </text>
<text text-anchor="start" x="318.65" y="-394.2" font-family="Arial" font-size="14.00" fill="#666666">[jsonb]</text>
<polygon fill="none" stroke="black" points="235.37,-351.2 235.37,-382 584.33,-382 584.33,-351.2 235.37,-351.2"/>
<text text-anchor="start" x="242.37" y="-363.4" font-family="Arial" font-size="14.00">event_types </text>
<text text-anchor="start" x="321.76" y="-363.4" font-family="Arial" font-size="14.00" fill="#666666">[text[]]</text>
<polygon fill="none" stroke="black" points="235.37,-320.4 235.37,-351.2 584.33,-351.2 584.33,-320.4 235.37,-320.4"/>
<text text-anchor="start" x="242.37" y="-332.6" font-family="Arial" font-size="14.00">event_filter </text>
<text text-anchor="start" x="314.74" y="-332.6" font-family="Arial" font-size="14.00" fill="#666666">[jsonb]</text>
<polygon fill="none" stroke="black" points="235.37,-289.6 235.37,-320.4 584.33,-320.4 584.33,-289.6 235.37,-289.6"/>
<text text-anchor="start" x="242.37" y="-301.8" font-family="Arial" font-size="14.00">enabled </text>
<text text-anchor="start" x="296.09" y="-301.8" font-family="Arial" font-size="14.00" fill="#666666">[boolean]</text>
<polygon fill="none" stroke="black" points="235.37,-258.8 235.37,-289.6 584.33,-289.6 584.33,-258.8 235.37,-258.8"/>
<text text-anchor="start" x="242.37" y="-271" font-family="Arial" font-size="14.00">batch_size </text>
<text text-anchor="start" x="313.19" y="-271" font-family="Arial" font-size="14.00" fill="#666666">[integer]</text>
<polygon fill="none" stroke="black" points="235.37,-228 235.37,-258.8 584.33,-258.8 584.33,-228 235.37,-228"/>
<text text-anchor="start" x="242.37" y="-240.2" font-family="Arial" font-size="14.00">timeout_ms </text>
<text text-anchor="start" x="318.62" y="-240.2" font-family="Arial" font-size="14.00" fill="#666666">[integer]</text>
<polygon fill="none" stroke="black" points="235.37,-197.2 235.37,-228 584.33,-228 584.33,-197.2 235.37,-197.2"/>
<text text-anchor="start" x="242.37" y="-209.4" font-family="Arial" font-size="14.00">retry_max </text>
<text text-anchor="start" x="308.5" y="-209.4" font-family="Arial" font-size="14.00" fill="#666666">[integer]</text>
<polygon fill="none" stroke="black" points="235.37,-166.4 235.37,-197.2 584.33,-197.2 584.33,-166.4 235.37,-166.4"/>
<text text-anchor="start" x="242.37" y="-178.6" font-family="Arial" font-size="14.00">retry_backoff_ms </text>
<text text-anchor="start" x="353.63" y="-178.6" font-family="Arial" font-size="14.00" fill="#666666">[integer]</text>
<polygon fill="none" stroke="black" points="235.37,-135.6 235.37,-166.4 584.33,-166.4 584.33,-135.6 235.37,-135.6"/>
<text text-anchor="start" x="242.37" y="-147.8" font-family="Arial" font-size="14.00">signing_secret </text>
<text text-anchor="start" x="336.54" y="-147.8" font-family="Arial" font-size="14.00" fill="#666666">[varchar(255)]</text>
<polygon fill="none" stroke="black" points="235.37,-104.8 235.37,-135.6 584.33,-135.6 584.33,-104.8 235.37,-104.8"/>
<text text-anchor="start" x="242.37" y="-117" font-family="Arial" font-size="14.00">created_by </text>
<text text-anchor="start" x="315.53" y="-117" font-family="Arial" font-size="14.00" fill="#666666">[uuid]</text>
<polygon fill="none" stroke="black" points="235.37,-74 235.37,-104.8 584.33,-104.8 584.33,-74 235.37,-74"/>
<text text-anchor="start" x="242.37" y="-86.2" font-family="Arial" font-size="14.00">created_at </text>
<text text-anchor="start" x="312.42" y="-86.2" font-family="Arial" font-size="14.00" fill="#666666">[timestamp without time zone]</text>
<polygon fill="none" stroke="black" points="235.37,-43.2 235.37,-74 584.33,-74 584.33,-43.2 235.37,-43.2"/>
<text text-anchor="start" x="242.37" y="-55.4" font-family="Arial" font-size="14.00">updated_at </text>
<text text-anchor="start" x="316.33" y="-55.4" font-family="Arial" font-size="14.00" fill="#666666">[timestamp without time zone]</text>
</g>
<!-- public.webhook_deliveries&#45;&gt;public.webhook_destinations -->
<g id="edge1" class="edge">
<title>public.webhook_deliveries:destination_id&#45;&gt;public.webhook_destinations:id</title>
<path fill="none" stroke="black" d="M441.11,-1050.87C289.94,-1040.97 354.65,-809.21 452.38,-681.6 489.34,-633.34 547.18,-693.71 584.33,-645.6 609.92,-612.46 627.2,-551.4 585.33,-551.4"/>
<polygon fill="black" stroke="black" points="441.05,-1050.87 450.9,-1055.69 446.39,-1051.04 450.71,-1051.18 450.71,-1051.18 450.71,-1051.18 446.39,-1051.04 451.19,-1046.69 441.05,-1050.87"/>
<text text-anchor="start" x="7" y="-1061.2" font-family="Arial" font-size="10.00">FOREIGN KEY (destination_id) REFERENCES webhook_destinations(id) ON DELETE CASCADE</text>
</g>
<!-- public.activity_logs -->
<g id="node3" class="node">
<title>public.activity_logs</title>
<polygon fill="#efefef" stroke="none" points="688.37,-474.4 688.37,-510 969.34,-510 969.34,-474.4 688.37,-474.4"/>
<polygon fill="none" stroke="black" points="688.37,-474.4 688.37,-510 969.34,-510 969.34,-474.4 688.37,-474.4"/>
<text text-anchor="start" x="695.37" y="-487.8" font-family="Arial Bold" font-size="18.00">public.activity_logs</text>
<text text-anchor="start" x="837.85" y="-487.8" font-family="Arial" font-size="14.00">    </text>
<text text-anchor="start" x="868.96" y="-487.8" font-family="Arial" font-size="14.00" fill="#666666">[BASE TABLE]</text>
<polygon fill="none" stroke="black" points="688.37,-443.6 688.37,-474.4 969.34,-474.4 969.34,-443.6 688.37,-443.6"/>
<text text-anchor="start" x="695.37" y="-455.8" font-family="Arial" font-size="14.00">id </text>
<text text-anchor="start" x="710.15" y="-455.8" font-family="Arial" font-size="14.00" fill="#666666">[uuid]</text>
<polygon fill="none" stroke="black" points="688.37,-412.8 688.37,-443.6 969.34,-443.6 969.34,-412.8 688.37,-412.8"/>
<text text-anchor="start" x="695.37" y="-425" font-family="Arial" font-size="14.00">org_id </text>
<text text-anchor="start" x="738.17" y="-425" font-family="Arial" font-size="14.00" fill="#666666">[uuid]</text>
<polygon fill="none" stroke="black" points="688.37,-382 688.37,-412.8 969.34,-412.8 969.34,-382 688.37,-382"/>
<text text-anchor="start" x="695.37" y="-394.2" font-family="Arial" font-size="14.00">employee_id </text>
<text text-anchor="start" x="778.64" y="-394.2" font-family="Arial" font-size="14.00" fill="#666666">[uuid]</text>
<polygon fill="none" stroke="black" points="688.37,-351.2 688.37,-382 969.34,-382 969.34,-351.2 688.37,-351.2"/>
<text text-anchor="start" x="695.37" y="-363.4" font-family="Arial" font-size="14.00">session_id </text>
<text text-anchor="start" x="765.41" y="-363.4" font-family="Arial" font-size="14.00" fill="#666666">[uuid]</text>
<polygon fill="none" stroke="black" points="688.37,-320.4 688.37,-351.2 969.34,-351.2 969.34,-320.4 688.37,-320.4"/>
<text text-anchor="start" x="695.37" y="-332.6" font-family="Arial" font-size="14.00">client_name </text>
<text text-anchor="start" x="774.75" y="-332.6" font-family="Arial" font-size="14.00" fill="#666666">[varchar(100)]</text>
<polygon fill="none" stroke="black" points="688.37,-289.6 688.37,-320.4 969.34,-320.4 969.34,-289.6 688.37,-289.6"/>
<text text-anchor="start" x="695.37" y="-301.8" font-family="Arial" font-size="14.00">client_version </text>
<text text-anchor="start" x="784.86" y="-301.8" font-family="Arial" font-size="14.00" fill="#666666">[varchar(50)]</text>
<polygon fill="none" stroke="black" points="688.37,-258.8 688.37,-289.6 969.34,-289.6 969.34,-258.8 688.37,-258.8"/>
<text text-anchor="start" x="695.37" y="-271" font-family="Arial" font-size="14.00">event_type </text>
<text text-anchor="start" x="767.75" y="-271" font-family="Arial" font-size="14.00" fill="#666666">[varchar(100)]</text>
<polygon fill="none" stroke="black" points="688.37,-228 688.37,-258.8 969.34,-258.8 969.34,-228 688.37,-228"/>
<text text-anchor="start" x="695.37" y="-240.2" font-family="Arial" font-size="14.00">event_category </text>
<text text-anchor="start" x="794.99" y="-240.2" font-family="Arial" font-size="14.00" fill="#666666">[varchar(50)]</text>
<polygon fill="none" stroke="black" points="688.37,-197.2 688.37,-228 969.34,-228 969.34,-197.2 688.37,-197.2"/>
<text text-anchor="start" x="695.37" y="-209.4" font-family="Arial" font-size="14.00">content </text>
<text text-anchor="start" x="745.18" y="-209.4" font-family="Arial" font-size="14.00" fill="#666666">[text]</text>
<polygon fill="none" stroke="black" points="688.37,-166.4 688.37,-197.2 969.34,-197.2 969.34,-166.4 688.37,-166.4"/>
<text text-anchor="start" x="695.37" y="-178.6" font-family="Arial" font-size="14.00">payload </text>
<text text-anchor="start" x="748.3" y="-178.6" font-family="Arial" font-size="14.00" fill="#666666">[jsonb]</text>
<polygon fill="none" stroke="black" points="688.37,-135.6 688.37,-166.4 969.34,-166.4 969.34,-135.6 688.37,-135.6"/>
<text text-anchor="start" x="695.37" y="-147.8" font-family="Arial" font-size="14.00">created_at </text>
<text text-anchor="start" x="765.42" y="-147.8" font-family="Arial" font-size="14.00" fill="#666666">[timestamp without time zone]</text>
</g>
<!-- public.webhook_deliveries&#45;&gt;public.activity_logs -->
<g id="edge2" class="edge">
<title>public.webhook_deliveries:log_id&#45;&gt;public.activity_logs:id</title>
<path fill="none" stroke="black" d="M796.49,-1020.08C932.08,-1011.24 832.25,-820.96 785.32,-681.6 762.5,-613.83 711.45,-620.88 688.37,-553.2 674.85,-513.57 645.5,-459 687.37,-459"/>
<polygon fill="black" stroke="black" points="796.65,-1020.08 786.51,-1015.89 791.32,-1020.24 786.99,-1020.38 786.99,-1020.38 786.99,-1020.38 791.32,-1020.24 786.8,-1024.89 796.65,-1020.08"/>
<text text-anchor="start" x="793.32" y="-1030.4" font-family="Arial" font-size="10.00">FOREIGN KEY (log_id) REFERENCES activity_logs(id) ON DELETE CASCADE</text>
</g>
</g>
</svg>
