<?xml version="1.0" encoding="UTF-8" standalone="no"?>
<!DOCTYPE svg PUBLIC "-//W3C//DTD SVG 1.1//EN"
 "http://www.w3.org/Graphics/SVG/1.1/DTD/svg11.dtd">
<!-- Generated by graphviz version 12.1.2 (20240928.0832)
 -->
<!-- Title: public.activity_logs Pages: 1 -->
<svg width="1064pt" height="879pt"
 viewBox="0.00 0.00 1064.18 879.20" xmlns="http://www.w3.org/2000/svg" xmlns:xlink="http://www.w3.org/1999/xlink">
<g id="graph0" class="graph" transform="scale(1 1) rotate(0) translate(4 875.2)">
<title>public.activity_logs</title>
<polygon fill="white" stroke="none" points="-4,4 -4,-875.2 1060.18,-875.2 1060.18,4 -4,4"/>
<!-- public.activity_logs -->
<g id="node1" class="node">
<title>public.activity_logs</title>
<polygon fill="#efefef" stroke="none" points="378.99,-789.4 378.99,-825 659.96,-825 659.96,-789.4 378.99,-789.4"/>
<polygon fill="none" stroke="black" points="378.99,-789.4 378.99,-825 659.96,-825 659.96,-789.4 378.99,-789.4"/>
<text text-anchor="start" x="385.99" y="-802.8" font-family="Arial Bold" font-size="18.00">public.activity_logs</text>
<text text-anchor="start" x="528.47" y="-802.8" font-family="Arial" font-size="14.00">    </text>
<text text-anchor="start" x="559.59" y="-802.8" font-family="Arial" font-size="14.00" fill="#666666">[BASE TABLE]</text>
<polygon fill="none" stroke="black" points="378.99,-758.6 378.99,-789.4 659.96,-789.4 659.96,-758.6 378.99,-758.6"/>
<text text-anchor="start" x="385.99" y="-770.8" font-family="Arial" font-size="14.00">id </text>
<text text-anchor="start" x="400.78" y="-770.8" font-family="Arial" font-size="14.00" fill="#666666">[uuid]</text>
<polygon fill="none" stroke="black" points="378.99,-727.8 378.99,-758.6 659.96,-758.6 659.96,-727.8 378.99,-727.8"/>
<text text-anchor="start" x="385.99" y="-740" font-family="Arial" font-size="14.00">org_id </text>
<text text-anchor="start" x="428.8" y="-740" font-family="Arial" font-size="14.00" fill="#666666">[uuid]</text>
<polygon fill="none" stroke="black" points="378.99,-697 378.99,-727.8 659.96,-727.8 659.96,-697 378.99,-697"/>
<text text-anchor="start" x="385.99" y="-709.2" font-family="Arial" font-size="14.00">employee_id </text>
<text text-anchor="start" x="469.26" y="-709.2" font-family="Arial" font-size="14.00" fill="#666666">[uuid]</text>
<polygon fill="none" stroke="black" points="378.99,-666.2 378.99,-697 659.96,-697 659.96,-666.2 378.99,-666.2"/>
<text text-anchor="start" x="385.99" y="-678.4" font-family="Arial" font-size="14.00">event_type </text>
<text text-anchor="start" x="458.38" y="-678.4" font-family="Arial" font-size="14.00" fill="#666666">[varchar(100)]</text>
<polygon fill="none" stroke="black" points="378.99,-635.4 378.99,-666.2 659.96,-666.2 659.96,-635.4 378.99,-635.4"/>
<text text-anchor="start" x="385.99" y="-647.6" font-family="Arial" font-size="14.00">event_category </text>
<text text-anchor="start" x="485.61" y="-647.6" font-family="Arial" font-size="14.00" fill="#666666">[varchar(50)]</text>
<polygon fill="none" stroke="black" points="378.99,-604.6 378.99,-635.4 659.96,-635.4 659.96,-604.6 378.99,-604.6"/>
<text text-anchor="start" x="385.99" y="-616.8" font-family="Arial" font-size="14.00">payload </text>
<text text-anchor="start" x="438.92" y="-616.8" font-family="Arial" font-size="14.00" fill="#666666">[jsonb]</text>
<polygon fill="none" stroke="black" points="378.99,-573.8 378.99,-604.6 659.96,-604.6 659.96,-573.8 378.99,-573.8"/>
<text text-anchor="start" x="385.99" y="-586" font-family="Arial" font-size="14.00">created_at </text>
<text text-anchor="start" x="456.04" y="-586" font-family="Arial" font-size="14.00" fill="#666666">[timestamp without time zone]</text>
<polygon fill="none" stroke="black" stroke-width="3" points="377.49,-572.3 377.49,-826.5 661.46,-826.5 661.46,-572.3 377.49,-572.3"/>
</g>
<!-- public.organizations -->
<g id="node2" class="node">
<title>public.organizations</title>
<polygon fill="#efefef" stroke="none" points="183,-366.6 183,-402.2 467.95,-402.2 467.95,-366.6 183,-366.6"/>
<polygon fill="none" stroke="black" points="183,-366.6 183,-402.2 467.95,-402.2 467.95,-366.6 183,-366.6"/>
<text text-anchor="start" x="190" y="-380" font-family="Arial Bold" font-size="18.00">public.organizations</text>
<text text-anchor="start" x="336.46" y="-380" font-family="Arial" font-size="14.00">    </text>
<text text-anchor="start" x="367.58" y="-380" font-family="Arial" font-size="14.00" fill="#666666">[BASE TABLE]</text>
<polygon fill="none" stroke="black" points="183,-335.8 183,-366.6 467.95,-366.6 467.95,-335.8 183,-335.8"/>
<text text-anchor="start" x="190" y="-348" font-family="Arial" font-size="14.00">id </text>
<text text-anchor="start" x="204.78" y="-348" font-family="Arial" font-size="14.00" fill="#666666">[uuid]</text>
<polygon fill="none" stroke="black" points="183,-305 183,-335.8 467.95,-335.8 467.95,-305 183,-305"/>
<text text-anchor="start" x="190" y="-317.2" font-family="Arial" font-size="14.00">name </text>
<text text-anchor="start" x="228.91" y="-317.2" font-family="Arial" font-size="14.00" fill="#666666">[varchar(255)]</text>
<polygon fill="none" stroke="black" points="183,-274.2 183,-305 467.95,-305 467.95,-274.2 183,-274.2"/>
<text text-anchor="start" x="190" y="-286.4" font-family="Arial" font-size="14.00">slug </text>
<text text-anchor="start" x="219.57" y="-286.4" font-family="Arial" font-size="14.00" fill="#666666">[varchar(100)]</text>
<polygon fill="none" stroke="black" points="183,-243.4 183,-274.2 467.95,-274.2 467.95,-243.4 183,-243.4"/>
<text text-anchor="start" x="190" y="-255.6" font-family="Arial" font-size="14.00">plan </text>
<text text-anchor="start" x="220.36" y="-255.6" font-family="Arial" font-size="14.00" fill="#666666">[varchar(50)]</text>
<polygon fill="none" stroke="black" points="183,-212.6 183,-243.4 467.95,-243.4 467.95,-212.6 183,-212.6"/>
<text text-anchor="start" x="190" y="-224.8" font-family="Arial" font-size="14.00">settings </text>
<text text-anchor="start" x="242.14" y="-224.8" font-family="Arial" font-size="14.00" fill="#666666">[jsonb]</text>
<polygon fill="none" stroke="black" points="183,-181.8 183,-212.6 467.95,-212.6 467.95,-181.8 183,-181.8"/>
<text text-anchor="start" x="190" y="-194" font-family="Arial" font-size="14.00">max_employees </text>
<text text-anchor="start" x="295.83" y="-194" font-family="Arial" font-size="14.00" fill="#666666">[integer]</text>
<polygon fill="none" stroke="black" points="183,-151 183,-181.8 467.95,-181.8 467.95,-151 183,-151"/>
<text text-anchor="start" x="190" y="-163.2" font-family="Arial" font-size="14.00">max_agents_per_employee </text>
<text text-anchor="start" x="366.67" y="-163.2" font-family="Arial" font-size="14.00" fill="#666666">[integer]</text>
<polygon fill="none" stroke="black" points="183,-120.2 183,-151 467.95,-151 467.95,-120.2 183,-120.2"/>
<text text-anchor="start" x="190" y="-132.4" font-family="Arial" font-size="14.00">created_at </text>
<text text-anchor="start" x="260.05" y="-132.4" font-family="Arial" font-size="14.00" fill="#666666">[timestamp without time zone]</text>
<polygon fill="none" stroke="black" points="183,-89.4 183,-120.2 467.95,-120.2 467.95,-89.4 183,-89.4"/>
<text text-anchor="start" x="190" y="-101.6" font-family="Arial" font-size="14.00">updated_at </text>
<text text-anchor="start" x="263.96" y="-101.6" font-family="Arial" font-size="14.00" fill="#666666">[timestamp without time zone]</text>
</g>
<!-- public.activity_logs&#45;&gt;public.organizations -->
<g id="edge1" class="edge">
<title>public.activity_logs:org_id&#45;&gt;public.organizations:id</title>
<path fill="none" stroke="black" d="M367.95,-742.68C286.46,-733.76 341.81,-612.04 378.99,-527.6 400.68,-478.33 446.11,-494.6 467.95,-445.4 484.93,-407.13 510.82,-351.2 468.95,-351.2"/>
<polygon fill="black" stroke="black" points="367.67,-742.67 377.42,-747.68 373,-742.94 377.32,-743.17 377.32,-743.17 377.32,-743.17 373,-742.94 377.89,-738.69 367.67,-742.67"/>
<text text-anchor="start" x="7" y="-753.2" font-family="Arial" font-size="10.00">FOREIGN KEY (org_id) REFERENCES organizations(id) ON DELETE CASCADE</text>
</g>
<!-- public.employees -->
<g id="node3" class="node">
<title>public.employees</title>
<polygon fill="#efefef" stroke="none" points="572.63,-412.8 572.63,-448.4 854.32,-448.4 854.32,-412.8 572.63,-412.8"/>
<polygon fill="none" stroke="black" points="572.63,-412.8 572.63,-448.4 854.32,-448.4 854.32,-412.8 572.63,-412.8"/>
<text text-anchor="start" x="588" y="-426.2" font-family="Arial Bold" font-size="18.00">public.employees</text>
<text text-anchor="start" x="714.46" y="-426.2" font-family="Arial" font-size="14.00">    </text>
<text text-anchor="start" x="745.58" y="-426.2" font-family="Arial" font-size="14.00" fill="#666666">[BASE TABLE]</text>
<polygon fill="none" stroke="black" points="572.63,-382 572.63,-412.8 854.32,-412.8 854.32,-382 572.63,-382"/>
<text text-anchor="start" x="579.63" y="-394.2" font-family="Arial" font-size="14.00">id </text>
<text text-anchor="start" x="594.42" y="-394.2" font-family="Arial" font-size="14.00" fill="#666666">[uuid]</text>
<polygon fill="none" stroke="black" points="572.63,-351.2 572.63,-382 854.32,-382 854.32,-351.2 572.63,-351.2"/>
<text text-anchor="start" x="579.63" y="-363.4" font-family="Arial" font-size="14.00">org_id </text>
<text text-anchor="start" x="622.44" y="-363.4" font-family="Arial" font-size="14.00" fill="#666666">[uuid]</text>
<polygon fill="none" stroke="black" points="572.63,-320.4 572.63,-351.2 854.32,-351.2 854.32,-320.4 572.63,-320.4"/>
<text text-anchor="start" x="579.63" y="-332.6" font-family="Arial" font-size="14.00">team_id </text>
<text text-anchor="start" x="633.33" y="-332.6" font-family="Arial" font-size="14.00" fill="#666666">[uuid]</text>
<polygon fill="none" stroke="black" points="572.63,-289.6 572.63,-320.4 854.32,-320.4 854.32,-289.6 572.63,-289.6"/>
<text text-anchor="start" x="579.63" y="-301.8" font-family="Arial" font-size="14.00">role_id </text>
<text text-anchor="start" x="625.55" y="-301.8" font-family="Arial" font-size="14.00" fill="#666666">[uuid]</text>
<polygon fill="none" stroke="black" points="572.63,-258.8 572.63,-289.6 854.32,-289.6 854.32,-258.8 572.63,-258.8"/>
<text text-anchor="start" x="579.63" y="-271" font-family="Arial" font-size="14.00">email </text>
<text text-anchor="start" x="616.97" y="-271" font-family="Arial" font-size="14.00" fill="#666666">[varchar(255)]</text>
<polygon fill="none" stroke="black" points="572.63,-228 572.63,-258.8 854.32,-258.8 854.32,-228 572.63,-228"/>
<text text-anchor="start" x="579.63" y="-240.2" font-family="Arial" font-size="14.00">full_name </text>
<text text-anchor="start" x="644.22" y="-240.2" font-family="Arial" font-size="14.00" fill="#666666">[varchar(255)]</text>
<polygon fill="none" stroke="black" points="572.63,-197.2 572.63,-228 854.32,-228 854.32,-197.2 572.63,-197.2"/>
<text text-anchor="start" x="579.63" y="-209.4" font-family="Arial" font-size="14.00">password_hash </text>
<text text-anchor="start" x="681.58" y="-209.4" font-family="Arial" font-size="14.00" fill="#666666">[varchar(255)]</text>
<polygon fill="none" stroke="black" points="572.63,-166.4 572.63,-197.2 854.32,-197.2 854.32,-166.4 572.63,-166.4"/>
<text text-anchor="start" x="579.63" y="-178.6" font-family="Arial" font-size="14.00">status </text>
<text text-anchor="start" x="620.87" y="-178.6" font-family="Arial" font-size="14.00" fill="#666666">[varchar(50)]</text>
<polygon fill="none" stroke="black" points="572.63,-135.6 572.63,-166.4 854.32,-166.4 854.32,-135.6 572.63,-135.6"/>
<text text-anchor="start" x="579.63" y="-147.8" font-family="Arial" font-size="14.00">preferences </text>
<text text-anchor="start" x="657.45" y="-147.8" font-family="Arial" font-size="14.00" fill="#666666">[jsonb]</text>
<polygon fill="none" stroke="black" points="572.63,-104.8 572.63,-135.6 854.32,-135.6 854.32,-104.8 572.63,-104.8"/>
<text text-anchor="start" x="579.63" y="-117" font-family="Arial" font-size="14.00">last_login_at </text>
<text text-anchor="start" x="662.13" y="-117" font-family="Arial" font-size="14.00" fill="#666666">[timestamp without time zone]</text>
<polygon fill="none" stroke="black" points="572.63,-74 572.63,-104.8 854.32,-104.8 854.32,-74 572.63,-74"/>
<text text-anchor="start" x="579.63" y="-86.2" font-family="Arial" font-size="14.00">created_at </text>
<text text-anchor="start" x="649.68" y="-86.2" font-family="Arial" font-size="14.00" fill="#666666">[timestamp without time zone]</text>
<polygon fill="none" stroke="black" points="572.63,-43.2 572.63,-74 854.32,-74 854.32,-43.2 572.63,-43.2"/>
<text text-anchor="start" x="579.63" y="-55.4" font-family="Arial" font-size="14.00">updated_at </text>
<text text-anchor="start" x="653.59" y="-55.4" font-family="Arial" font-size="14.00" fill="#666666">[timestamp without time zone]</text>
</g>
<!-- public.activity_logs&#45;&gt;public.employees -->
<g id="edge2" class="edge">
<title>public.activity_logs:employee_id&#45;&gt;public.employees:id</title>
<path fill="none" stroke="black" d="M671.31,-711.71C739.73,-702.02 703.77,-592.67 659.96,-527.6 636.51,-492.78 596.17,-526.36 572.63,-491.6 549.15,-456.93 529.76,-397.4 571.63,-397.4"/>
<polygon fill="black" stroke="black" points="671.27,-711.71 660.99,-707.89 665.95,-712.07 661.63,-712.36 661.63,-712.36 661.63,-712.36 665.95,-712.07 661.59,-716.87 671.27,-711.71"/>
<text text-anchor="start" x="667.96" y="-722.4" font-family="Arial" font-size="10.00">FOREIGN KEY (employee_id) REFERENCES employees(id) ON DELETE SET NULL</text>
</g>
</g>
</svg>
