<?xml version="1.0" encoding="UTF-8" standalone="no"?>
<!DOCTYPE svg PUBLIC "-//W3C//DTD SVG 1.1//EN"
 "http://www.w3.org/Graphics/SVG/1.1/DTD/svg11.dtd">
<!-- Generated by graphviz version 12.1.2 (20240928.0832)
 -->
<!-- Title: public.employees Pages: 1 -->
<svg width="3003pt" height="1407pt"
 viewBox="0.00 0.00 3002.91 1406.80" xmlns="http://www.w3.org/2000/svg" xmlns:xlink="http://www.w3.org/1999/xlink">
<g id="graph0" class="graph" transform="scale(1 1) rotate(0) translate(4 1402.8)">
<title>public.employees</title>
<polygon fill="white" stroke="none" points="-4,4 -4,-1402.8 2998.91,-1402.8 2998.91,4 -4,4"/>
<!-- public.employees -->
<g id="node1" class="node">
<title>public.employees</title>
<polygon fill="#efefef" stroke="none" points="1442.31,-820.2 1442.31,-855.8 1724,-855.8 1724,-820.2 1442.31,-820.2"/>
<polygon fill="none" stroke="black" points="1442.31,-820.2 1442.31,-855.8 1724,-855.8 1724,-820.2 1442.31,-820.2"/>
<text text-anchor="start" x="1457.68" y="-833.6" font-family="Arial Bold" font-size="18.00">public.employees</text>
<text text-anchor="start" x="1584.14" y="-833.6" font-family="Arial" font-size="14.00">    </text>
<text text-anchor="start" x="1615.26" y="-833.6" font-family="Arial" font-size="14.00" fill="#666666">[BASE TABLE]</text>
<polygon fill="none" stroke="black" points="1442.31,-789.4 1442.31,-820.2 1724,-820.2 1724,-789.4 1442.31,-789.4"/>
<text text-anchor="start" x="1449.31" y="-801.6" font-family="Arial" font-size="14.00">id </text>
<text text-anchor="start" x="1464.1" y="-801.6" font-family="Arial" font-size="14.00" fill="#666666">[uuid]</text>
<polygon fill="none" stroke="black" points="1442.31,-758.6 1442.31,-789.4 1724,-789.4 1724,-758.6 1442.31,-758.6"/>
<text text-anchor="start" x="1449.31" y="-770.8" font-family="Arial" font-size="14.00">org_id </text>
<text text-anchor="start" x="1492.12" y="-770.8" font-family="Arial" font-size="14.00" fill="#666666">[uuid]</text>
<polygon fill="none" stroke="black" points="1442.31,-727.8 1442.31,-758.6 1724,-758.6 1724,-727.8 1442.31,-727.8"/>
<text text-anchor="start" x="1449.31" y="-740" font-family="Arial" font-size="14.00">team_id </text>
<text text-anchor="start" x="1503.01" y="-740" font-family="Arial" font-size="14.00" fill="#666666">[uuid]</text>
<polygon fill="none" stroke="black" points="1442.31,-697 1442.31,-727.8 1724,-727.8 1724,-697 1442.31,-697"/>
<text text-anchor="start" x="1449.31" y="-709.2" font-family="Arial" font-size="14.00">role_id </text>
<text text-anchor="start" x="1495.23" y="-709.2" font-family="Arial" font-size="14.00" fill="#666666">[uuid]</text>
<polygon fill="none" stroke="black" points="1442.31,-666.2 1442.31,-697 1724,-697 1724,-666.2 1442.31,-666.2"/>
<text text-anchor="start" x="1449.31" y="-678.4" font-family="Arial" font-size="14.00">email </text>
<text text-anchor="start" x="1486.66" y="-678.4" font-family="Arial" font-size="14.00" fill="#666666">[varchar(255)]</text>
<polygon fill="none" stroke="black" points="1442.31,-635.4 1442.31,-666.2 1724,-666.2 1724,-635.4 1442.31,-635.4"/>
<text text-anchor="start" x="1449.31" y="-647.6" font-family="Arial" font-size="14.00">full_name </text>
<text text-anchor="start" x="1513.9" y="-647.6" font-family="Arial" font-size="14.00" fill="#666666">[varchar(255)]</text>
<polygon fill="none" stroke="black" points="1442.31,-604.6 1442.31,-635.4 1724,-635.4 1724,-604.6 1442.31,-604.6"/>
<text text-anchor="start" x="1449.31" y="-616.8" font-family="Arial" font-size="14.00">status </text>
<text text-anchor="start" x="1490.55" y="-616.8" font-family="Arial" font-size="14.00" fill="#666666">[varchar(50)]</text>
<polygon fill="none" stroke="black" points="1442.31,-573.8 1442.31,-604.6 1724,-604.6 1724,-573.8 1442.31,-573.8"/>
<text text-anchor="start" x="1449.31" y="-586" font-family="Arial" font-size="14.00">preferences </text>
<text text-anchor="start" x="1527.13" y="-586" font-family="Arial" font-size="14.00" fill="#666666">[jsonb]</text>
<polygon fill="none" stroke="black" points="1442.31,-543 1442.31,-573.8 1724,-573.8 1724,-543 1442.31,-543"/>
<text text-anchor="start" x="1449.31" y="-555.2" font-family="Arial" font-size="14.00">last_login_at </text>
<text text-anchor="start" x="1531.81" y="-555.2" font-family="Arial" font-size="14.00" fill="#666666">[timestamp without time zone]</text>
<polygon fill="none" stroke="black" points="1442.31,-512.2 1442.31,-543 1724,-543 1724,-512.2 1442.31,-512.2"/>
<text text-anchor="start" x="1449.31" y="-524.4" font-family="Arial" font-size="14.00">created_at </text>
<text text-anchor="start" x="1519.36" y="-524.4" font-family="Arial" font-size="14.00" fill="#666666">[timestamp without time zone]</text>
<polygon fill="none" stroke="black" points="1442.31,-481.4 1442.31,-512.2 1724,-512.2 1724,-481.4 1442.31,-481.4"/>
<text text-anchor="start" x="1449.31" y="-493.6" font-family="Arial" font-size="14.00">updated_at </text>
<text text-anchor="start" x="1523.27" y="-493.6" font-family="Arial" font-size="14.00" fill="#666666">[timestamp without time zone]</text>
<polygon fill="none" stroke="black" stroke-width="3" points="1440.81,-479.9 1440.81,-857.3 1725.5,-857.3 1725.5,-479.9 1440.81,-479.9"/>
</g>
<!-- public.organizations -->
<g id="node9" class="node">
<title>public.organizations</title>
<polygon fill="#efefef" stroke="none" points="1057.68,-320.4 1057.68,-356 1342.63,-356 1342.63,-320.4 1057.68,-320.4"/>
<polygon fill="none" stroke="black" points="1057.68,-320.4 1057.68,-356 1342.63,-356 1342.63,-320.4 1057.68,-320.4"/>
<text text-anchor="start" x="1064.68" y="-333.8" font-family="Arial Bold" font-size="18.00">public.organizations</text>
<text text-anchor="start" x="1211.14" y="-333.8" font-family="Arial" font-size="14.00">    </text>
<text text-anchor="start" x="1242.26" y="-333.8" font-family="Arial" font-size="14.00" fill="#666666">[BASE TABLE]</text>
<polygon fill="none" stroke="black" points="1057.68,-289.6 1057.68,-320.4 1342.63,-320.4 1342.63,-289.6 1057.68,-289.6"/>
<text text-anchor="start" x="1064.68" y="-301.8" font-family="Arial" font-size="14.00">id </text>
<text text-anchor="start" x="1079.47" y="-301.8" font-family="Arial" font-size="14.00" fill="#666666">[uuid]</text>
<polygon fill="none" stroke="black" points="1057.68,-258.8 1057.68,-289.6 1342.63,-289.6 1342.63,-258.8 1057.68,-258.8"/>
<text text-anchor="start" x="1064.68" y="-271" font-family="Arial" font-size="14.00">name </text>
<text text-anchor="start" x="1103.59" y="-271" font-family="Arial" font-size="14.00" fill="#666666">[varchar(255)]</text>
<polygon fill="none" stroke="black" points="1057.68,-228 1057.68,-258.8 1342.63,-258.8 1342.63,-228 1057.68,-228"/>
<text text-anchor="start" x="1064.68" y="-240.2" font-family="Arial" font-size="14.00">slug </text>
<text text-anchor="start" x="1094.25" y="-240.2" font-family="Arial" font-size="14.00" fill="#666666">[varchar(100)]</text>
<polygon fill="none" stroke="black" points="1057.68,-197.2 1057.68,-228 1342.63,-228 1342.63,-197.2 1057.68,-197.2"/>
<text text-anchor="start" x="1064.68" y="-209.4" font-family="Arial" font-size="14.00">plan </text>
<text text-anchor="start" x="1095.04" y="-209.4" font-family="Arial" font-size="14.00" fill="#666666">[varchar(50)]</text>
<polygon fill="none" stroke="black" points="1057.68,-166.4 1057.68,-197.2 1342.63,-197.2 1342.63,-166.4 1057.68,-166.4"/>
<text text-anchor="start" x="1064.68" y="-178.6" font-family="Arial" font-size="14.00">settings </text>
<text text-anchor="start" x="1116.82" y="-178.6" font-family="Arial" font-size="14.00" fill="#666666">[jsonb]</text>
<polygon fill="none" stroke="black" points="1057.68,-135.6 1057.68,-166.4 1342.63,-166.4 1342.63,-135.6 1057.68,-135.6"/>
<text text-anchor="start" x="1064.68" y="-147.8" font-family="Arial" font-size="14.00">max_employees </text>
<text text-anchor="start" x="1170.51" y="-147.8" font-family="Arial" font-size="14.00" fill="#666666">[integer]</text>
<polygon fill="none" stroke="black" points="1057.68,-104.8 1057.68,-135.6 1342.63,-135.6 1342.63,-104.8 1057.68,-104.8"/>
<text text-anchor="start" x="1064.68" y="-117" font-family="Arial" font-size="14.00">max_agents_per_employee </text>
<text text-anchor="start" x="1241.35" y="-117" font-family="Arial" font-size="14.00" fill="#666666">[integer]</text>
<polygon fill="none" stroke="black" points="1057.68,-74 1057.68,-104.8 1342.63,-104.8 1342.63,-74 1057.68,-74"/>
<text text-anchor="start" x="1064.68" y="-86.2" font-family="Arial" font-size="14.00">created_at </text>
<text text-anchor="start" x="1134.73" y="-86.2" font-family="Arial" font-size="14.00" fill="#666666">[timestamp without time zone]</text>
<polygon fill="none" stroke="black" points="1057.68,-43.2 1057.68,-74 1342.63,-74 1342.63,-43.2 1057.68,-43.2"/>
<text text-anchor="start" x="1064.68" y="-55.4" font-family="Arial" font-size="14.00">updated_at </text>
<text text-anchor="start" x="1138.64" y="-55.4" font-family="Arial" font-size="14.00" fill="#666666">[timestamp without time zone]</text>
</g>
<!-- public.employees&#45;&gt;public.organizations -->
<g id="edge8" class="edge">
<title>public.employees:org_id&#45;&gt;public.organizations:id</title>
<path fill="none" stroke="black" d="M1431.15,-772.39C1342.47,-742.49 1446.45,-305 1343.63,-305"/>
<polygon fill="black" stroke="black" points="1431.1,-772.39 1440.28,-778.39 1436.37,-773.22 1440.65,-773.9 1440.65,-773.9 1440.65,-773.9 1436.37,-773.22 1441.68,-769.5 1431.1,-772.39"/>
<text text-anchor="start" x="1070.32" y="-784" font-family="Arial" font-size="10.00">FOREIGN KEY (org_id) REFERENCES organizations(id) ON DELETE CASCADE</text>
</g>
<!-- public.teams -->
<g id="node10" class="node">
<title>public.teams</title>
<polygon fill="#efefef" stroke="none" points="1446.58,-274.2 1446.58,-309.8 1719.73,-309.8 1719.73,-274.2 1446.58,-274.2"/>
<polygon fill="none" stroke="black" points="1446.58,-274.2 1446.58,-309.8 1719.73,-309.8 1719.73,-274.2 1446.58,-274.2"/>
<text text-anchor="start" x="1475.17" y="-287.6" font-family="Arial Bold" font-size="18.00">public.teams</text>
<text text-anchor="start" x="1566.65" y="-287.6" font-family="Arial" font-size="14.00">    </text>
<text text-anchor="start" x="1597.77" y="-287.6" font-family="Arial" font-size="14.00" fill="#666666">[BASE TABLE]</text>
<polygon fill="none" stroke="black" points="1446.58,-243.4 1446.58,-274.2 1719.73,-274.2 1719.73,-243.4 1446.58,-243.4"/>
<text text-anchor="start" x="1453.58" y="-255.6" font-family="Arial" font-size="14.00">id </text>
<text text-anchor="start" x="1468.37" y="-255.6" font-family="Arial" font-size="14.00" fill="#666666">[uuid]</text>
<polygon fill="none" stroke="black" points="1446.58,-212.6 1446.58,-243.4 1719.73,-243.4 1719.73,-212.6 1446.58,-212.6"/>
<text text-anchor="start" x="1453.58" y="-224.8" font-family="Arial" font-size="14.00">org_id </text>
<text text-anchor="start" x="1496.39" y="-224.8" font-family="Arial" font-size="14.00" fill="#666666">[uuid]</text>
<polygon fill="none" stroke="black" points="1446.58,-181.8 1446.58,-212.6 1719.73,-212.6 1719.73,-181.8 1446.58,-181.8"/>
<text text-anchor="start" x="1453.58" y="-194" font-family="Arial" font-size="14.00">name </text>
<text text-anchor="start" x="1492.49" y="-194" font-family="Arial" font-size="14.00" fill="#666666">[varchar(255)]</text>
<polygon fill="none" stroke="black" points="1446.58,-151 1446.58,-181.8 1719.73,-181.8 1719.73,-151 1446.58,-151"/>
<text text-anchor="start" x="1453.58" y="-163.2" font-family="Arial" font-size="14.00">description </text>
<text text-anchor="start" x="1525.18" y="-163.2" font-family="Arial" font-size="14.00" fill="#666666">[text]</text>
<polygon fill="none" stroke="black" points="1446.58,-120.2 1446.58,-151 1719.73,-151 1719.73,-120.2 1446.58,-120.2"/>
<text text-anchor="start" x="1453.58" y="-132.4" font-family="Arial" font-size="14.00">created_at </text>
<text text-anchor="start" x="1523.63" y="-132.4" font-family="Arial" font-size="14.00" fill="#666666">[timestamp without time zone]</text>
<polygon fill="none" stroke="black" points="1446.58,-89.4 1446.58,-120.2 1719.73,-120.2 1719.73,-89.4 1446.58,-89.4"/>
<text text-anchor="start" x="1453.58" y="-101.6" font-family="Arial" font-size="14.00">updated_at </text>
<text text-anchor="start" x="1527.54" y="-101.6" font-family="Arial" font-size="14.00" fill="#666666">[timestamp without time zone]</text>
</g>
<!-- public.employees&#45;&gt;public.teams -->
<g id="edge9" class="edge">
<title>public.employees:team_id&#45;&gt;public.teams:id</title>
<path fill="none" stroke="black" d="M1733.86,-738.41C1778.15,-688.1 1771.4,-258.8 1720.73,-258.8"/>
<polygon fill="black" stroke="black" points="1734.09,-738.28 1723.15,-739.08 1729.4,-740.82 1725.59,-742.88 1725.59,-742.88 1725.59,-742.88 1729.4,-740.82 1727.43,-747 1734.09,-738.28"/>
<text text-anchor="start" x="1732" y="-753.2" font-family="Arial" font-size="10.00">FOREIGN KEY (team_id) REFERENCES teams(id) ON DELETE SET NULL</text>
</g>
<!-- public.roles -->
<g id="node11" class="node">
<title>public.roles</title>
<polygon fill="#efefef" stroke="none" points="1824.54,-258.8 1824.54,-294.4 2093.77,-294.4 2093.77,-258.8 1824.54,-258.8"/>
<polygon fill="none" stroke="black" points="1824.54,-258.8 1824.54,-294.4 2093.77,-294.4 2093.77,-258.8 1824.54,-258.8"/>
<text text-anchor="start" x="1854.67" y="-272.2" font-family="Arial Bold" font-size="18.00">public.roles</text>
<text text-anchor="start" x="1939.15" y="-272.2" font-family="Arial" font-size="14.00">    </text>
<text text-anchor="start" x="1970.27" y="-272.2" font-family="Arial" font-size="14.00" fill="#666666">[BASE TABLE]</text>
<polygon fill="none" stroke="black" points="1824.54,-228 1824.54,-258.8 2093.77,-258.8 2093.77,-228 1824.54,-228"/>
<text text-anchor="start" x="1831.54" y="-240.2" font-family="Arial" font-size="14.00">id </text>
<text text-anchor="start" x="1846.33" y="-240.2" font-family="Arial" font-size="14.00" fill="#666666">[uuid]</text>
<polygon fill="none" stroke="black" points="1824.54,-197.2 1824.54,-228 2093.77,-228 2093.77,-197.2 1824.54,-197.2"/>
<text text-anchor="start" x="1831.54" y="-209.4" font-family="Arial" font-size="14.00">name </text>
<text text-anchor="start" x="1870.45" y="-209.4" font-family="Arial" font-size="14.00" fill="#666666">[varchar(100)]</text>
<polygon fill="none" stroke="black" points="1824.54,-166.4 1824.54,-197.2 2093.77,-197.2 2093.77,-166.4 1824.54,-166.4"/>
<text text-anchor="start" x="1831.54" y="-178.6" font-family="Arial" font-size="14.00">description </text>
<text text-anchor="start" x="1903.13" y="-178.6" font-family="Arial" font-size="14.00" fill="#666666">[text]</text>
<polygon fill="none" stroke="black" points="1824.54,-135.6 1824.54,-166.4 2093.77,-166.4 2093.77,-135.6 1824.54,-135.6"/>
<text text-anchor="start" x="1831.54" y="-147.8" font-family="Arial" font-size="14.00">permissions </text>
<text text-anchor="start" x="1910.12" y="-147.8" font-family="Arial" font-size="14.00" fill="#666666">[jsonb]</text>
<polygon fill="none" stroke="black" points="1824.54,-104.8 1824.54,-135.6 2093.77,-135.6 2093.77,-104.8 1824.54,-104.8"/>
<text text-anchor="start" x="1831.54" y="-117" font-family="Arial" font-size="14.00">created_at </text>
<text text-anchor="start" x="1901.59" y="-117" font-family="Arial" font-size="14.00" fill="#666666">[timestamp without time zone]</text>
</g>
<!-- public.employees&#45;&gt;public.roles -->
<g id="edge10" class="edge">
<title>public.employees:role_id&#45;&gt;public.roles:id</title>
<path fill="none" stroke="black" d="M1735.16,-710.79C1823.93,-680.89 1720.68,-243.4 1823.54,-243.4"/>
<polygon fill="black" stroke="black" points="1735.21,-710.79 1724.63,-707.9 1729.94,-711.62 1725.66,-712.3 1725.66,-712.3 1725.66,-712.3 1729.94,-711.62 1726.03,-716.79 1735.21,-710.79"/>
<text text-anchor="start" x="1732" y="-722.4" font-family="Arial" font-size="10.00">FOREIGN KEY (role_id) REFERENCES roles(id)</text>
</g>
<!-- public.sessions -->
<g id="node2" class="node">
<title>public.sessions</title>
<polygon fill="#efefef" stroke="none" points="125.54,-1258.4 125.54,-1294 394.77,-1294 394.77,-1258.4 125.54,-1258.4"/>
<polygon fill="none" stroke="black" points="125.54,-1258.4 125.54,-1294 394.77,-1294 394.77,-1258.4 125.54,-1258.4"/>
<text text-anchor="start" x="143.66" y="-1271.8" font-family="Arial Bold" font-size="18.00">public.sessions</text>
<text text-anchor="start" x="252.16" y="-1271.8" font-family="Arial" font-size="14.00">    </text>
<text text-anchor="start" x="283.28" y="-1271.8" font-family="Arial" font-size="14.00" fill="#666666">[BASE TABLE]</text>
<polygon fill="none" stroke="black" points="125.54,-1227.6 125.54,-1258.4 394.77,-1258.4 394.77,-1227.6 125.54,-1227.6"/>
<text text-anchor="start" x="132.54" y="-1239.8" font-family="Arial" font-size="14.00">id </text>
<text text-anchor="start" x="147.33" y="-1239.8" font-family="Arial" font-size="14.00" fill="#666666">[uuid]</text>
<polygon fill="none" stroke="black" points="125.54,-1196.8 125.54,-1227.6 394.77,-1227.6 394.77,-1196.8 125.54,-1196.8"/>
<text text-anchor="start" x="132.54" y="-1209" font-family="Arial" font-size="14.00">employee_id </text>
<text text-anchor="start" x="215.81" y="-1209" font-family="Arial" font-size="14.00" fill="#666666">[uuid]</text>
<polygon fill="none" stroke="black" points="125.54,-1166 125.54,-1196.8 394.77,-1196.8 394.77,-1166 125.54,-1166"/>
<text text-anchor="start" x="132.54" y="-1178.2" font-family="Arial" font-size="14.00">token_hash </text>
<text text-anchor="start" x="208.82" y="-1178.2" font-family="Arial" font-size="14.00" fill="#666666">[varchar(255)]</text>
<polygon fill="none" stroke="black" points="125.54,-1135.2 125.54,-1166 394.77,-1166 394.77,-1135.2 125.54,-1135.2"/>
<text text-anchor="start" x="132.54" y="-1147.4" font-family="Arial" font-size="14.00">ip_address </text>
<text text-anchor="start" x="204.92" y="-1147.4" font-family="Arial" font-size="14.00" fill="#666666">[varchar(45)]</text>
<polygon fill="none" stroke="black" points="125.54,-1104.4 125.54,-1135.2 394.77,-1135.2 394.77,-1104.4 125.54,-1104.4"/>
<text text-anchor="start" x="132.54" y="-1116.6" font-family="Arial" font-size="14.00">user_agent </text>
<text text-anchor="start" x="206.48" y="-1116.6" font-family="Arial" font-size="14.00" fill="#666666">[text]</text>
<polygon fill="none" stroke="black" points="125.54,-1073.6 125.54,-1104.4 394.77,-1104.4 394.77,-1073.6 125.54,-1073.6"/>
<text text-anchor="start" x="132.54" y="-1085.8" font-family="Arial" font-size="14.00">expires_at </text>
<text text-anchor="start" x="201.02" y="-1085.8" font-family="Arial" font-size="14.00" fill="#666666">[timestamp without time zone]</text>
<polygon fill="none" stroke="black" points="125.54,-1042.8 125.54,-1073.6 394.77,-1073.6 394.77,-1042.8 125.54,-1042.8"/>
<text text-anchor="start" x="132.54" y="-1055" font-family="Arial" font-size="14.00">created_at </text>
<text text-anchor="start" x="202.59" y="-1055" font-family="Arial" font-size="14.00" fill="#666666">[timestamp without time zone]</text>
</g>
<!-- public.sessions&#45;&gt;public.employees -->
<g id="edge1" class="edge">
<title>public.sessions:employee_id&#45;&gt;public.employees:id</title>
<path fill="none" stroke="black" d="M405.95,-1211.72C510.45,-1201.22 359.87,-1020.86 447.16,-938 527.99,-861.27 1329.86,-804.8 1441.31,-804.8"/>
<polygon fill="black" stroke="black" points="406.1,-1211.71 395.89,-1207.69 400.77,-1211.96 396.44,-1212.17 396.44,-1212.17 396.44,-1212.17 400.77,-1211.96 396.32,-1216.68 406.1,-1211.71"/>
<text text-anchor="start" x="7" y="-1222.2" font-family="Arial" font-size="10.00">FOREIGN KEY (employee_id) REFERENCES employees(id) ON DELETE CASCADE</text>
</g>
<!-- public.employee_agent_configs -->
<g id="node3" class="node">
<title>public.employee_agent_configs</title>
<polygon fill="#efefef" stroke="none" points="499.2,-1304.6 499.2,-1340.2 867.12,-1340.2 867.12,-1304.6 499.2,-1304.6"/>
<polygon fill="none" stroke="black" points="499.2,-1304.6 499.2,-1340.2 867.12,-1340.2 867.12,-1304.6 499.2,-1304.6"/>
<text text-anchor="start" x="506.2" y="-1318" font-family="Arial Bold" font-size="18.00">public.employee_agent_configs</text>
<text text-anchor="start" x="735.63" y="-1318" font-family="Arial" font-size="14.00">    </text>
<text text-anchor="start" x="766.74" y="-1318" font-family="Arial" font-size="14.00" fill="#666666">[BASE TABLE]</text>
<polygon fill="none" stroke="black" points="499.2,-1273.8 499.2,-1304.6 867.12,-1304.6 867.12,-1273.8 499.2,-1273.8"/>
<text text-anchor="start" x="506.2" y="-1286" font-family="Arial" font-size="14.00">id </text>
<text text-anchor="start" x="520.98" y="-1286" font-family="Arial" font-size="14.00" fill="#666666">[uuid]</text>
<polygon fill="none" stroke="black" points="499.2,-1243 499.2,-1273.8 867.12,-1273.8 867.12,-1243 499.2,-1243"/>
<text text-anchor="start" x="506.2" y="-1255.2" font-family="Arial" font-size="14.00">employee_id </text>
<text text-anchor="start" x="589.47" y="-1255.2" font-family="Arial" font-size="14.00" fill="#666666">[uuid]</text>
<polygon fill="none" stroke="black" points="499.2,-1212.2 499.2,-1243 867.12,-1243 867.12,-1212.2 499.2,-1212.2"/>
<text text-anchor="start" x="506.2" y="-1224.4" font-family="Arial" font-size="14.00">agent_catalog_id </text>
<text text-anchor="start" x="616.73" y="-1224.4" font-family="Arial" font-size="14.00" fill="#666666">[uuid]</text>
<polygon fill="none" stroke="black" points="499.2,-1181.4 499.2,-1212.2 867.12,-1212.2 867.12,-1181.4 499.2,-1181.4"/>
<text text-anchor="start" x="506.2" y="-1193.6" font-family="Arial" font-size="14.00">name </text>
<text text-anchor="start" x="545.11" y="-1193.6" font-family="Arial" font-size="14.00" fill="#666666">[varchar(255)]</text>
<polygon fill="none" stroke="black" points="499.2,-1150.6 499.2,-1181.4 867.12,-1181.4 867.12,-1150.6 499.2,-1150.6"/>
<text text-anchor="start" x="506.2" y="-1162.8" font-family="Arial" font-size="14.00">status </text>
<text text-anchor="start" x="547.44" y="-1162.8" font-family="Arial" font-size="14.00" fill="#666666">[varchar(50)]</text>
<polygon fill="none" stroke="black" points="499.2,-1119.8 499.2,-1150.6 867.12,-1150.6 867.12,-1119.8 499.2,-1119.8"/>
<text text-anchor="start" x="506.2" y="-1132" font-family="Arial" font-size="14.00">config_override </text>
<text text-anchor="start" x="605.81" y="-1132" font-family="Arial" font-size="14.00" fill="#666666">[jsonb]</text>
<polygon fill="none" stroke="black" points="499.2,-1089 499.2,-1119.8 867.12,-1119.8 867.12,-1089 499.2,-1089"/>
<text text-anchor="start" x="506.2" y="-1101.2" font-family="Arial" font-size="14.00">sync_token </text>
<text text-anchor="start" x="580.91" y="-1101.2" font-family="Arial" font-size="14.00" fill="#666666">[varchar(255)]</text>
<polygon fill="none" stroke="black" points="499.2,-1058.2 499.2,-1089 867.12,-1089 867.12,-1058.2 499.2,-1058.2"/>
<text text-anchor="start" x="506.2" y="-1070.4" font-family="Arial" font-size="14.00">last_sync_at </text>
<text text-anchor="start" x="587.91" y="-1070.4" font-family="Arial" font-size="14.00" fill="#666666">[timestamp without time zone]</text>
<polygon fill="none" stroke="black" points="499.2,-1027.4 499.2,-1058.2 867.12,-1058.2 867.12,-1027.4 499.2,-1027.4"/>
<text text-anchor="start" x="506.2" y="-1039.6" font-family="Arial" font-size="14.00">created_at </text>
<text text-anchor="start" x="576.24" y="-1039.6" font-family="Arial" font-size="14.00" fill="#666666">[timestamp without time zone]</text>
<polygon fill="none" stroke="black" points="499.2,-996.6 499.2,-1027.4 867.12,-1027.4 867.12,-996.6 499.2,-996.6"/>
<text text-anchor="start" x="506.2" y="-1008.8" font-family="Arial" font-size="14.00">updated_at </text>
<text text-anchor="start" x="580.15" y="-1008.8" font-family="Arial" font-size="14.00" fill="#666666">[timestamp without time zone]</text>
</g>
<!-- public.employee_agent_configs&#45;&gt;public.employees -->
<g id="edge2" class="edge">
<title>public.employee_agent_configs:employee_id&#45;&gt;public.employees:id</title>
<path fill="none" stroke="black" d="M878.04,-1256.4C933.44,-1231.82 873.04,-988.56 919.16,-938 999.86,-849.53 1321.56,-804.8 1441.31,-804.8"/>
<polygon fill="black" stroke="black" points="878.25,-1256.35 867.55,-1253.92 873.02,-1257.41 868.77,-1258.27 868.77,-1258.27 868.77,-1258.27 873.02,-1257.41 869.33,-1262.74 878.25,-1256.35"/>
<text text-anchor="start" x="677.23" y="-1242.4" font-family="Arial" font-size="10.00">FOREIGN KEY (employee_id) REFERENCES employees(id) ON DELETE CASCADE</text>
</g>
<!-- public.employee_mcp_configs -->
<g id="node4" class="node">
<title>public.employee_mcp_configs</title>
<polygon fill="#efefef" stroke="none" points="971.19,-1304.6 971.19,-1340.2 1331.12,-1340.2 1331.12,-1304.6 971.19,-1304.6"/>
<polygon fill="none" stroke="black" points="971.19,-1304.6 971.19,-1340.2 1331.12,-1340.2 1331.12,-1304.6 971.19,-1304.6"/>
<text text-anchor="start" x="978.19" y="-1318" font-family="Arial Bold" font-size="18.00">public.employee_mcp_configs</text>
<text text-anchor="start" x="1199.63" y="-1318" font-family="Arial" font-size="14.00">    </text>
<text text-anchor="start" x="1230.75" y="-1318" font-family="Arial" font-size="14.00" fill="#666666">[BASE TABLE]</text>
<polygon fill="none" stroke="black" points="971.19,-1273.8 971.19,-1304.6 1331.12,-1304.6 1331.12,-1273.8 971.19,-1273.8"/>
<text text-anchor="start" x="978.19" y="-1286" font-family="Arial" font-size="14.00">id </text>
<text text-anchor="start" x="992.98" y="-1286" font-family="Arial" font-size="14.00" fill="#666666">[uuid]</text>
<polygon fill="none" stroke="black" points="971.19,-1243 971.19,-1273.8 1331.12,-1273.8 1331.12,-1243 971.19,-1243"/>
<text text-anchor="start" x="978.19" y="-1255.2" font-family="Arial" font-size="14.00">employee_id </text>
<text text-anchor="start" x="1061.47" y="-1255.2" font-family="Arial" font-size="14.00" fill="#666666">[uuid]</text>
<polygon fill="none" stroke="black" points="971.19,-1212.2 971.19,-1243 1331.12,-1243 1331.12,-1212.2 971.19,-1212.2"/>
<text text-anchor="start" x="978.19" y="-1224.4" font-family="Arial" font-size="14.00">mcp_catalog_id </text>
<text text-anchor="start" x="1080.14" y="-1224.4" font-family="Arial" font-size="14.00" fill="#666666">[uuid]</text>
<polygon fill="none" stroke="black" points="971.19,-1181.4 971.19,-1212.2 1331.12,-1212.2 1331.12,-1181.4 971.19,-1181.4"/>
<text text-anchor="start" x="978.19" y="-1193.6" font-family="Arial" font-size="14.00">status </text>
<text text-anchor="start" x="1019.43" y="-1193.6" font-family="Arial" font-size="14.00" fill="#666666">[varchar(50)]</text>
<polygon fill="none" stroke="black" points="971.19,-1150.6 971.19,-1181.4 1331.12,-1181.4 1331.12,-1150.6 971.19,-1150.6"/>
<text text-anchor="start" x="978.19" y="-1162.8" font-family="Arial" font-size="14.00">connection_config </text>
<text text-anchor="start" x="1094.94" y="-1162.8" font-family="Arial" font-size="14.00" fill="#666666">[jsonb]</text>
<polygon fill="none" stroke="black" points="971.19,-1119.8 971.19,-1150.6 1331.12,-1150.6 1331.12,-1119.8 971.19,-1119.8"/>
<text text-anchor="start" x="978.19" y="-1132" font-family="Arial" font-size="14.00">credentials_encrypted </text>
<text text-anchor="start" x="1119.05" y="-1132" font-family="Arial" font-size="14.00" fill="#666666">[text]</text>
<polygon fill="none" stroke="black" points="971.19,-1089 971.19,-1119.8 1331.12,-1119.8 1331.12,-1089 971.19,-1089"/>
<text text-anchor="start" x="978.19" y="-1101.2" font-family="Arial" font-size="14.00">sync_token </text>
<text text-anchor="start" x="1052.9" y="-1101.2" font-family="Arial" font-size="14.00" fill="#666666">[varchar(255)]</text>
<polygon fill="none" stroke="black" points="971.19,-1058.2 971.19,-1089 1331.12,-1089 1331.12,-1058.2 971.19,-1058.2"/>
<text text-anchor="start" x="978.19" y="-1070.4" font-family="Arial" font-size="14.00">last_sync_at </text>
<text text-anchor="start" x="1059.9" y="-1070.4" font-family="Arial" font-size="14.00" fill="#666666">[timestamp without time zone]</text>
<polygon fill="none" stroke="black" points="971.19,-1027.4 971.19,-1058.2 1331.12,-1058.2 1331.12,-1027.4 971.19,-1027.4"/>
<text text-anchor="start" x="978.19" y="-1039.6" font-family="Arial" font-size="14.00">created_at </text>
<text text-anchor="start" x="1048.24" y="-1039.6" font-family="Arial" font-size="14.00" fill="#666666">[timestamp without time zone]</text>
<polygon fill="none" stroke="black" points="971.19,-996.6 971.19,-1027.4 1331.12,-1027.4 1331.12,-996.6 971.19,-996.6"/>
<text text-anchor="start" x="978.19" y="-1008.8" font-family="Arial" font-size="14.00">updated_at </text>
<text text-anchor="start" x="1052.15" y="-1008.8" font-family="Arial" font-size="14.00" fill="#666666">[timestamp without time zone]</text>
</g>
<!-- public.employee_mcp_configs&#45;&gt;public.employees -->
<g id="edge3" class="edge">
<title>public.employee_mcp_configs:employee_id&#45;&gt;public.employees:id</title>
<path fill="none" stroke="black" d="M1342.25,-1256.51C1400.18,-1233.36 1363.93,-1003.68 1383.16,-938 1401.31,-876.01 1376.72,-804.8 1441.31,-804.8"/>
<polygon fill="black" stroke="black" points="1342.28,-1256.51 1331.63,-1253.91 1337.04,-1257.48 1332.78,-1258.28 1332.78,-1258.28 1332.78,-1258.28 1337.04,-1257.48 1333.27,-1262.76 1342.28,-1256.51"/>
<text text-anchor="start" x="1339.12" y="-1268.4" font-family="Arial" font-size="10.00">FOREIGN KEY (employee_id) REFERENCES employees(id) ON DELETE CASCADE</text>
</g>
<!-- public.agent_requests -->
<g id="node5" class="node">
<title>public.agent_requests</title>
<polygon fill="#efefef" stroke="none" points="1435.68,-1273.8 1435.68,-1309.4 1730.63,-1309.4 1730.63,-1273.8 1435.68,-1273.8"/>
<polygon fill="none" stroke="black" points="1435.68,-1273.8 1435.68,-1309.4 1730.63,-1309.4 1730.63,-1273.8 1435.68,-1273.8"/>
<text text-anchor="start" x="1442.68" y="-1287.2" font-family="Arial Bold" font-size="18.00">public.agent_requests</text>
<text text-anchor="start" x="1599.14" y="-1287.2" font-family="Arial" font-size="14.00">    </text>
<text text-anchor="start" x="1630.26" y="-1287.2" font-family="Arial" font-size="14.00" fill="#666666">[BASE TABLE]</text>
<polygon fill="none" stroke="black" points="1435.68,-1243 1435.68,-1273.8 1730.63,-1273.8 1730.63,-1243 1435.68,-1243"/>
<text text-anchor="start" x="1442.68" y="-1255.2" font-family="Arial" font-size="14.00">id </text>
<text text-anchor="start" x="1457.47" y="-1255.2" font-family="Arial" font-size="14.00" fill="#666666">[uuid]</text>
<polygon fill="none" stroke="black" points="1435.68,-1212.2 1435.68,-1243 1730.63,-1243 1730.63,-1212.2 1435.68,-1212.2"/>
<text text-anchor="start" x="1442.68" y="-1224.4" font-family="Arial" font-size="14.00">employee_id </text>
<text text-anchor="start" x="1525.96" y="-1224.4" font-family="Arial" font-size="14.00" fill="#666666">[uuid]</text>
<polygon fill="none" stroke="black" points="1435.68,-1181.4 1435.68,-1212.2 1730.63,-1212.2 1730.63,-1181.4 1435.68,-1181.4"/>
<text text-anchor="start" x="1442.68" y="-1193.6" font-family="Arial" font-size="14.00">request_type </text>
<text text-anchor="start" x="1527.52" y="-1193.6" font-family="Arial" font-size="14.00" fill="#666666">[varchar(50)]</text>
<polygon fill="none" stroke="black" points="1435.68,-1150.6 1435.68,-1181.4 1730.63,-1181.4 1730.63,-1150.6 1435.68,-1150.6"/>
<text text-anchor="start" x="1442.68" y="-1162.8" font-family="Arial" font-size="14.00">request_data </text>
<text text-anchor="start" x="1528.3" y="-1162.8" font-family="Arial" font-size="14.00" fill="#666666">[jsonb]</text>
<polygon fill="none" stroke="black" points="1435.68,-1119.8 1435.68,-1150.6 1730.63,-1150.6 1730.63,-1119.8 1435.68,-1119.8"/>
<text text-anchor="start" x="1442.68" y="-1132" font-family="Arial" font-size="14.00">status </text>
<text text-anchor="start" x="1483.93" y="-1132" font-family="Arial" font-size="14.00" fill="#666666">[varchar(50)]</text>
<polygon fill="none" stroke="black" points="1435.68,-1089 1435.68,-1119.8 1730.63,-1119.8 1730.63,-1089 1435.68,-1089"/>
<text text-anchor="start" x="1442.68" y="-1101.2" font-family="Arial" font-size="14.00">reason </text>
<text text-anchor="start" x="1489.38" y="-1101.2" font-family="Arial" font-size="14.00" fill="#666666">[text]</text>
<polygon fill="none" stroke="black" points="1435.68,-1058.2 1435.68,-1089 1730.63,-1089 1730.63,-1058.2 1435.68,-1058.2"/>
<text text-anchor="start" x="1442.68" y="-1070.4" font-family="Arial" font-size="14.00">created_at </text>
<text text-anchor="start" x="1512.73" y="-1070.4" font-family="Arial" font-size="14.00" fill="#666666">[timestamp without time zone]</text>
<polygon fill="none" stroke="black" points="1435.68,-1027.4 1435.68,-1058.2 1730.63,-1058.2 1730.63,-1027.4 1435.68,-1027.4"/>
<text text-anchor="start" x="1442.68" y="-1039.6" font-family="Arial" font-size="14.00">resolved_at </text>
<text text-anchor="start" x="1518.95" y="-1039.6" font-family="Arial" font-size="14.00" fill="#666666">[timestamp without time zone]</text>
</g>
<!-- public.agent_requests&#45;&gt;public.employees -->
<g id="edge4" class="edge">
<title>public.agent_requests:employee_id&#45;&gt;public.employees:id</title>
<path fill="none" stroke="black" d="M1740.28,-1222.25C1777.55,-1173.31 1768.86,-804.8 1725,-804.8"/>
<polygon fill="black" stroke="black" points="1740.42,-1222.17 1729.55,-1223.6 1735.88,-1224.97 1732.2,-1227.25 1732.2,-1227.25 1732.2,-1227.25 1735.88,-1224.97 1734.28,-1231.25 1740.42,-1222.17"/>
<text text-anchor="start" x="1540.74" y="-1211.6" font-family="Arial" font-size="10.00">FOREIGN KEY (employee_id) REFERENCES employees(id) ON DELETE CASCADE</text>
</g>
<!-- public.approvals -->
<g id="node6" class="node">
<title>public.approvals</title>
<polygon fill="#efefef" stroke="none" points="1835.43,-1258.4 1835.43,-1294 2110.88,-1294 2110.88,-1258.4 1835.43,-1258.4"/>
<polygon fill="none" stroke="black" points="1835.43,-1258.4 1835.43,-1294 2110.88,-1294 2110.88,-1258.4 1835.43,-1258.4"/>
<text text-anchor="start" x="1851.18" y="-1271.8" font-family="Arial Bold" font-size="18.00">public.approvals</text>
<text text-anchor="start" x="1970.65" y="-1271.8" font-family="Arial" font-size="14.00">    </text>
<text text-anchor="start" x="2001.76" y="-1271.8" font-family="Arial" font-size="14.00" fill="#666666">[BASE TABLE]</text>
<polygon fill="none" stroke="black" points="1835.43,-1227.6 1835.43,-1258.4 2110.88,-1258.4 2110.88,-1227.6 1835.43,-1227.6"/>
<text text-anchor="start" x="1842.43" y="-1239.8" font-family="Arial" font-size="14.00">id </text>
<text text-anchor="start" x="1857.21" y="-1239.8" font-family="Arial" font-size="14.00" fill="#666666">[uuid]</text>
<polygon fill="none" stroke="black" points="1835.43,-1196.8 1835.43,-1227.6 2110.88,-1227.6 2110.88,-1196.8 1835.43,-1196.8"/>
<text text-anchor="start" x="1842.43" y="-1209" font-family="Arial" font-size="14.00">request_id </text>
<text text-anchor="start" x="1911.7" y="-1209" font-family="Arial" font-size="14.00" fill="#666666">[uuid]</text>
<polygon fill="none" stroke="black" points="1835.43,-1166 1835.43,-1196.8 2110.88,-1196.8 2110.88,-1166 1835.43,-1166"/>
<text text-anchor="start" x="1842.43" y="-1178.2" font-family="Arial" font-size="14.00">approver_id </text>
<text text-anchor="start" x="1920.26" y="-1178.2" font-family="Arial" font-size="14.00" fill="#666666">[uuid]</text>
<polygon fill="none" stroke="black" points="1835.43,-1135.2 1835.43,-1166 2110.88,-1166 2110.88,-1135.2 1835.43,-1135.2"/>
<text text-anchor="start" x="1842.43" y="-1147.4" font-family="Arial" font-size="14.00">status </text>
<text text-anchor="start" x="1883.67" y="-1147.4" font-family="Arial" font-size="14.00" fill="#666666">[varchar(50)]</text>
<polygon fill="none" stroke="black" points="1835.43,-1104.4 1835.43,-1135.2 2110.88,-1135.2 2110.88,-1104.4 1835.43,-1104.4"/>
<text text-anchor="start" x="1842.43" y="-1116.6" font-family="Arial" font-size="14.00">comment </text>
<text text-anchor="start" x="1903.89" y="-1116.6" font-family="Arial" font-size="14.00" fill="#666666">[text]</text>
<polygon fill="none" stroke="black" points="1835.43,-1073.6 1835.43,-1104.4 2110.88,-1104.4 2110.88,-1073.6 1835.43,-1073.6"/>
<text text-anchor="start" x="1842.43" y="-1085.8" font-family="Arial" font-size="14.00">created_at </text>
<text text-anchor="start" x="1912.48" y="-1085.8" font-family="Arial" font-size="14.00" fill="#666666">[timestamp without time zone]</text>
<polygon fill="none" stroke="black" points="1835.43,-1042.8 1835.43,-1073.6 2110.88,-1073.6 2110.88,-1042.8 1835.43,-1042.8"/>
<text text-anchor="start" x="1842.43" y="-1055" font-family="Arial" font-size="14.00">resolved_at </text>
<text text-anchor="start" x="1918.7" y="-1055" font-family="Arial" font-size="14.00" fill="#666666">[timestamp without time zone]</text>
</g>
<!-- public.approvals&#45;&gt;public.employees -->
<g id="edge5" class="edge">
<title>public.approvals:approver_id&#45;&gt;public.employees:id</title>
<path fill="none" stroke="black" d="M1824.39,-1178.97C1781.76,-1156.67 1798.88,-987.15 1783.16,-938 1763.47,-876.48 1789.6,-804.8 1725,-804.8"/>
<polygon fill="black" stroke="black" points="1824.38,-1178.97 1833.05,-1185.7 1829.57,-1180.22 1833.78,-1181.24 1833.78,-1181.24 1833.78,-1181.24 1829.57,-1180.22 1835.16,-1176.95 1824.38,-1178.97"/>
<text text-anchor="start" x="1547.52" y="-1165.4" font-family="Arial" font-size="10.00">FOREIGN KEY (approver_id) REFERENCES employees(id) ON DELETE CASCADE</text>
</g>
<!-- public.activity_logs -->
<g id="node7" class="node">
<title>public.activity_logs</title>
<polygon fill="#efefef" stroke="none" points="2215.67,-1258.4 2215.67,-1294 2496.64,-1294 2496.64,-1258.4 2215.67,-1258.4"/>
<polygon fill="none" stroke="black" points="2215.67,-1258.4 2215.67,-1294 2496.64,-1294 2496.64,-1258.4 2215.67,-1258.4"/>
<text text-anchor="start" x="2222.67" y="-1271.8" font-family="Arial Bold" font-size="18.00">public.activity_logs</text>
<text text-anchor="start" x="2365.15" y="-1271.8" font-family="Arial" font-size="14.00">    </text>
<text text-anchor="start" x="2396.27" y="-1271.8" font-family="Arial" font-size="14.00" fill="#666666">[BASE TABLE]</text>
<polygon fill="none" stroke="black" points="2215.67,-1227.6 2215.67,-1258.4 2496.64,-1258.4 2496.64,-1227.6 2215.67,-1227.6"/>
<text text-anchor="start" x="2222.67" y="-1239.8" font-family="Arial" font-size="14.00">id </text>
<text text-anchor="start" x="2237.46" y="-1239.8" font-family="Arial" font-size="14.00" fill="#666666">[uuid]</text>
<polygon fill="none" stroke="black" points="2215.67,-1196.8 2215.67,-1227.6 2496.64,-1227.6 2496.64,-1196.8 2215.67,-1196.8"/>
<text text-anchor="start" x="2222.67" y="-1209" font-family="Arial" font-size="14.00">org_id </text>
<text text-anchor="start" x="2265.48" y="-1209" font-family="Arial" font-size="14.00" fill="#666666">[uuid]</text>
<polygon fill="none" stroke="black" points="2215.67,-1166 2215.67,-1196.8 2496.64,-1196.8 2496.64,-1166 2215.67,-1166"/>
<text text-anchor="start" x="2222.67" y="-1178.2" font-family="Arial" font-size="14.00">employee_id </text>
<text text-anchor="start" x="2305.95" y="-1178.2" font-family="Arial" font-size="14.00" fill="#666666">[uuid]</text>
<polygon fill="none" stroke="black" points="2215.67,-1135.2 2215.67,-1166 2496.64,-1166 2496.64,-1135.2 2215.67,-1135.2"/>
<text text-anchor="start" x="2222.67" y="-1147.4" font-family="Arial" font-size="14.00">event_type </text>
<text text-anchor="start" x="2295.06" y="-1147.4" font-family="Arial" font-size="14.00" fill="#666666">[varchar(100)]</text>
<polygon fill="none" stroke="black" points="2215.67,-1104.4 2215.67,-1135.2 2496.64,-1135.2 2496.64,-1104.4 2215.67,-1104.4"/>
<text text-anchor="start" x="2222.67" y="-1116.6" font-family="Arial" font-size="14.00">event_category </text>
<text text-anchor="start" x="2322.29" y="-1116.6" font-family="Arial" font-size="14.00" fill="#666666">[varchar(50)]</text>
<polygon fill="none" stroke="black" points="2215.67,-1073.6 2215.67,-1104.4 2496.64,-1104.4 2496.64,-1073.6 2215.67,-1073.6"/>
<text text-anchor="start" x="2222.67" y="-1085.8" font-family="Arial" font-size="14.00">payload </text>
<text text-anchor="start" x="2275.6" y="-1085.8" font-family="Arial" font-size="14.00" fill="#666666">[jsonb]</text>
<polygon fill="none" stroke="black" points="2215.67,-1042.8 2215.67,-1073.6 2496.64,-1073.6 2496.64,-1042.8 2215.67,-1042.8"/>
<text text-anchor="start" x="2222.67" y="-1055" font-family="Arial" font-size="14.00">created_at </text>
<text text-anchor="start" x="2292.72" y="-1055" font-family="Arial" font-size="14.00" fill="#666666">[timestamp without time zone]</text>
</g>
<!-- public.activity_logs&#45;&gt;public.employees -->
<g id="edge6" class="edge">
<title>public.activity_logs:employee_id&#45;&gt;public.employees:id</title>
<path fill="none" stroke="black" d="M2204.45,-1180.87C2112.75,-1170.74 2235.41,-1016.79 2163.16,-938 2094.38,-862.99 1826.77,-804.8 1725,-804.8"/>
<polygon fill="black" stroke="black" points="2204.35,-1180.87 2214.11,-1185.88 2209.68,-1181.14 2214,-1181.37 2214,-1181.37 2214,-1181.37 2209.68,-1181.14 2214.57,-1176.89 2204.35,-1180.87"/>
<text text-anchor="start" x="2221.67" y="-1191.4" font-family="Arial" font-size="10.00">FOREIGN KEY (employee_id) REFERENCES employees(id) ON DELETE SET NULL</text>
</g>
<!-- public.usage_records -->
<g id="node8" class="node">
<title>public.usage_records</title>
<polygon fill="#efefef" stroke="none" points="2600.69,-1320 2600.69,-1355.6 2891.62,-1355.6 2891.62,-1320 2600.69,-1320"/>
<polygon fill="none" stroke="black" points="2600.69,-1320 2600.69,-1355.6 2891.62,-1355.6 2891.62,-1320 2600.69,-1320"/>
<text text-anchor="start" x="2607.69" y="-1333.4" font-family="Arial Bold" font-size="18.00">public.usage_records</text>
<text text-anchor="start" x="2760.13" y="-1333.4" font-family="Arial" font-size="14.00">    </text>
<text text-anchor="start" x="2791.25" y="-1333.4" font-family="Arial" font-size="14.00" fill="#666666">[BASE TABLE]</text>
<polygon fill="none" stroke="black" points="2600.69,-1289.2 2600.69,-1320 2891.62,-1320 2891.62,-1289.2 2600.69,-1289.2"/>
<text text-anchor="start" x="2607.69" y="-1301.4" font-family="Arial" font-size="14.00">id </text>
<text text-anchor="start" x="2622.47" y="-1301.4" font-family="Arial" font-size="14.00" fill="#666666">[uuid]</text>
<polygon fill="none" stroke="black" points="2600.69,-1258.4 2600.69,-1289.2 2891.62,-1289.2 2891.62,-1258.4 2600.69,-1258.4"/>
<text text-anchor="start" x="2607.69" y="-1270.6" font-family="Arial" font-size="14.00">org_id </text>
<text text-anchor="start" x="2650.49" y="-1270.6" font-family="Arial" font-size="14.00" fill="#666666">[uuid]</text>
<polygon fill="none" stroke="black" points="2600.69,-1227.6 2600.69,-1258.4 2891.62,-1258.4 2891.62,-1227.6 2600.69,-1227.6"/>
<text text-anchor="start" x="2607.69" y="-1239.8" font-family="Arial" font-size="14.00">employee_id </text>
<text text-anchor="start" x="2690.96" y="-1239.8" font-family="Arial" font-size="14.00" fill="#666666">[uuid]</text>
<polygon fill="none" stroke="black" points="2600.69,-1196.8 2600.69,-1227.6 2891.62,-1227.6 2891.62,-1196.8 2600.69,-1196.8"/>
<text text-anchor="start" x="2607.69" y="-1209" font-family="Arial" font-size="14.00">agent_config_id </text>
<text text-anchor="start" x="2710.44" y="-1209" font-family="Arial" font-size="14.00" fill="#666666">[uuid]</text>
<polygon fill="none" stroke="black" points="2600.69,-1166 2600.69,-1196.8 2891.62,-1196.8 2891.62,-1166 2600.69,-1166"/>
<text text-anchor="start" x="2607.69" y="-1178.2" font-family="Arial" font-size="14.00">resource_type </text>
<text text-anchor="start" x="2700.29" y="-1178.2" font-family="Arial" font-size="14.00" fill="#666666">[varchar(50)]</text>
<polygon fill="none" stroke="black" points="2600.69,-1135.2 2600.69,-1166 2891.62,-1166 2891.62,-1135.2 2600.69,-1135.2"/>
<text text-anchor="start" x="2607.69" y="-1147.4" font-family="Arial" font-size="14.00">quantity </text>
<text text-anchor="start" x="2660.61" y="-1147.4" font-family="Arial" font-size="14.00" fill="#666666">[bigint]</text>
<polygon fill="none" stroke="black" points="2600.69,-1104.4 2600.69,-1135.2 2891.62,-1135.2 2891.62,-1104.4 2600.69,-1104.4"/>
<text text-anchor="start" x="2607.69" y="-1116.6" font-family="Arial" font-size="14.00">cost_usd </text>
<text text-anchor="start" x="2667.61" y="-1116.6" font-family="Arial" font-size="14.00" fill="#666666">[numeric(10,4)]</text>
<polygon fill="none" stroke="black" points="2600.69,-1073.6 2600.69,-1104.4 2891.62,-1104.4 2891.62,-1073.6 2600.69,-1073.6"/>
<text text-anchor="start" x="2607.69" y="-1085.8" font-family="Arial" font-size="14.00">period_start </text>
<text text-anchor="start" x="2685.51" y="-1085.8" font-family="Arial" font-size="14.00" fill="#666666">[timestamp without time zone]</text>
<polygon fill="none" stroke="black" points="2600.69,-1042.8 2600.69,-1073.6 2891.62,-1073.6 2891.62,-1042.8 2600.69,-1042.8"/>
<text text-anchor="start" x="2607.69" y="-1055" font-family="Arial" font-size="14.00">period_end </text>
<text text-anchor="start" x="2681.64" y="-1055" font-family="Arial" font-size="14.00" fill="#666666">[timestamp without time zone]</text>
<polygon fill="none" stroke="black" points="2600.69,-1012 2600.69,-1042.8 2891.62,-1042.8 2891.62,-1012 2600.69,-1012"/>
<text text-anchor="start" x="2607.69" y="-1024.2" font-family="Arial" font-size="14.00">metadata </text>
<text text-anchor="start" x="2669.95" y="-1024.2" font-family="Arial" font-size="14.00" fill="#666666">[jsonb]</text>
<polygon fill="none" stroke="black" points="2600.69,-981.2 2600.69,-1012 2891.62,-1012 2891.62,-981.2 2600.69,-981.2"/>
<text text-anchor="start" x="2607.69" y="-993.4" font-family="Arial" font-size="14.00">created_at </text>
<text text-anchor="start" x="2677.74" y="-993.4" font-family="Arial" font-size="14.00" fill="#666666">[timestamp without time zone]</text>
</g>
<!-- public.usage_records&#45;&gt;public.employees -->
<g id="edge7" class="edge">
<title>public.usage_records:employee_id&#45;&gt;public.employees:id</title>
<path fill="none" stroke="black" d="M2589.59,-1240.77C2537.95,-1215.57 2595.17,-983.83 2549.16,-938 2417.71,-807.08 1910.52,-804.8 1725,-804.8"/>
<polygon fill="black" stroke="black" points="2589.6,-1240.78 2598.39,-1247.32 2594.81,-1241.92 2599.03,-1242.86 2599.03,-1242.86 2599.03,-1242.86 2594.81,-1241.92 2600.33,-1238.53 2589.6,-1240.78"/>
<text text-anchor="start" x="2606.69" y="-1253" font-family="Arial" font-size="10.00">FOREIGN KEY (employee_id) REFERENCES employees(id) ON DELETE SET NULL</text>
</g>
</g>
</svg>
