<?xml version="1.0" encoding="UTF-8" standalone="no"?>
<!DOCTYPE svg PUBLIC "-//W3C//DTD SVG 1.1//EN"
 "http://www.w3.org/Graphics/SVG/1.1/DTD/svg11.dtd">
<!-- Generated by graphviz version 12.1.2 (20240928.0832)
 -->
<!-- Title: public.roles Pages: 1 -->
<svg width="566pt" height="910pt"
 viewBox="0.00 0.00 565.71 910.00" xmlns="http://www.w3.org/2000/svg" xmlns:xlink="http://www.w3.org/1999/xlink">
<g id="graph0" class="graph" transform="scale(1 1) rotate(0) translate(4 906)">
<title>public.roles</title>
<polygon fill="white" stroke="none" points="-4,4 -4,-906 561.71,-906 561.71,4 -4,4"/>
<!-- public.roles -->
<g id="node1" class="node">
<title>public.roles</title>
<polygon fill="#efefef" stroke="none" points="47.47,-231 47.47,-266.6 320.62,-266.6 320.62,-231 47.47,-231"/>
<polygon fill="none" stroke="black" points="47.47,-231 47.47,-266.6 320.62,-266.6 320.62,-231 47.47,-231"/>
<text text-anchor="start" x="79.56" y="-244.4" font-family="Arial Bold" font-size="18.00">public.roles</text>
<text text-anchor="start" x="164.04" y="-244.4" font-family="Arial" font-size="14.00">    </text>
<text text-anchor="start" x="195.16" y="-244.4" font-family="Arial" font-size="14.00" fill="#666666">[BASE TABLE]</text>
<polygon fill="none" stroke="black" points="47.47,-200.2 47.47,-231 320.62,-231 320.62,-200.2 47.47,-200.2"/>
<text text-anchor="start" x="54.47" y="-212.4" font-family="Arial" font-size="14.00">id </text>
<text text-anchor="start" x="69.26" y="-212.4" font-family="Arial" font-size="14.00" fill="#666666">[uuid]</text>
<polygon fill="none" stroke="black" points="47.47,-169.4 47.47,-200.2 320.62,-200.2 320.62,-169.4 47.47,-169.4"/>
<text text-anchor="start" x="54.47" y="-181.6" font-family="Arial" font-size="14.00">name </text>
<text text-anchor="start" x="93.38" y="-181.6" font-family="Arial" font-size="14.00" fill="#666666">[varchar(100)]</text>
<polygon fill="none" stroke="black" points="47.47,-138.6 47.47,-169.4 320.62,-169.4 320.62,-138.6 47.47,-138.6"/>
<text text-anchor="start" x="54.47" y="-150.8" font-family="Arial" font-size="14.00">description </text>
<text text-anchor="start" x="126.07" y="-150.8" font-family="Arial" font-size="14.00" fill="#666666">[text]</text>
<polygon fill="none" stroke="black" points="47.47,-107.8 47.47,-138.6 320.62,-138.6 320.62,-107.8 47.47,-107.8"/>
<text text-anchor="start" x="54.47" y="-120" font-family="Arial" font-size="14.00">permissions </text>
<text text-anchor="start" x="133.05" y="-120" font-family="Arial" font-size="14.00" fill="#666666">[jsonb]</text>
<polygon fill="none" stroke="black" points="47.47,-77 47.47,-107.8 320.62,-107.8 320.62,-77 47.47,-77"/>
<text text-anchor="start" x="54.47" y="-89.2" font-family="Arial" font-size="14.00">created_at </text>
<text text-anchor="start" x="124.52" y="-89.2" font-family="Arial" font-size="14.00" fill="#666666">[timestamp without time zone]</text>
<polygon fill="none" stroke="black" points="47.47,-46.2 47.47,-77 320.62,-77 320.62,-46.2 47.47,-46.2"/>
<text text-anchor="start" x="54.47" y="-58.4" font-family="Arial" font-size="14.00">updated_at </text>
<text text-anchor="start" x="128.43" y="-58.4" font-family="Arial" font-size="14.00" fill="#666666">[timestamp without time zone]</text>
<polygon fill="none" stroke="black" stroke-width="3" points="45.97,-44.7 45.97,-268.1 322.12,-268.1 322.12,-44.7 45.97,-44.7"/>
</g>
<!-- public.employees -->
<g id="node2" class="node">
<title>public.employees</title>
<polygon fill="#efefef" stroke="none" points="43.2,-823.2 43.2,-858.8 324.89,-858.8 324.89,-823.2 43.2,-823.2"/>
<polygon fill="none" stroke="black" points="43.2,-823.2 43.2,-858.8 324.89,-858.8 324.89,-823.2 43.2,-823.2"/>
<text text-anchor="start" x="58.57" y="-836.6" font-family="Arial Bold" font-size="18.00">public.employees</text>
<text text-anchor="start" x="185.03" y="-836.6" font-family="Arial" font-size="14.00">    </text>
<text text-anchor="start" x="216.15" y="-836.6" font-family="Arial" font-size="14.00" fill="#666666">[BASE TABLE]</text>
<polygon fill="none" stroke="black" points="43.2,-792.4 43.2,-823.2 324.89,-823.2 324.89,-792.4 43.2,-792.4"/>
<text text-anchor="start" x="50.2" y="-804.6" font-family="Arial" font-size="14.00">id </text>
<text text-anchor="start" x="64.99" y="-804.6" font-family="Arial" font-size="14.00" fill="#666666">[uuid]</text>
<polygon fill="none" stroke="black" points="43.2,-761.6 43.2,-792.4 324.89,-792.4 324.89,-761.6 43.2,-761.6"/>
<text text-anchor="start" x="50.2" y="-773.8" font-family="Arial" font-size="14.00">org_id </text>
<text text-anchor="start" x="93.01" y="-773.8" font-family="Arial" font-size="14.00" fill="#666666">[uuid]</text>
<polygon fill="none" stroke="black" points="43.2,-730.8 43.2,-761.6 324.89,-761.6 324.89,-730.8 43.2,-730.8"/>
<text text-anchor="start" x="50.2" y="-743" font-family="Arial" font-size="14.00">team_id </text>
<text text-anchor="start" x="103.9" y="-743" font-family="Arial" font-size="14.00" fill="#666666">[uuid]</text>
<polygon fill="none" stroke="black" points="43.2,-700 43.2,-730.8 324.89,-730.8 324.89,-700 43.2,-700"/>
<text text-anchor="start" x="50.2" y="-712.2" font-family="Arial" font-size="14.00">role_id </text>
<text text-anchor="start" x="96.12" y="-712.2" font-family="Arial" font-size="14.00" fill="#666666">[uuid]</text>
<polygon fill="none" stroke="black" points="43.2,-669.2 43.2,-700 324.89,-700 324.89,-669.2 43.2,-669.2"/>
<text text-anchor="start" x="50.2" y="-681.4" font-family="Arial" font-size="14.00">email </text>
<text text-anchor="start" x="87.54" y="-681.4" font-family="Arial" font-size="14.00" fill="#666666">[varchar(255)]</text>
<polygon fill="none" stroke="black" points="43.2,-638.4 43.2,-669.2 324.89,-669.2 324.89,-638.4 43.2,-638.4"/>
<text text-anchor="start" x="50.2" y="-650.6" font-family="Arial" font-size="14.00">full_name </text>
<text text-anchor="start" x="114.79" y="-650.6" font-family="Arial" font-size="14.00" fill="#666666">[varchar(255)]</text>
<polygon fill="none" stroke="black" points="43.2,-607.6 43.2,-638.4 324.89,-638.4 324.89,-607.6 43.2,-607.6"/>
<text text-anchor="start" x="50.2" y="-619.8" font-family="Arial" font-size="14.00">password_hash </text>
<text text-anchor="start" x="152.15" y="-619.8" font-family="Arial" font-size="14.00" fill="#666666">[varchar(255)]</text>
<polygon fill="none" stroke="black" points="43.2,-576.8 43.2,-607.6 324.89,-607.6 324.89,-576.8 43.2,-576.8"/>
<text text-anchor="start" x="50.2" y="-589" font-family="Arial" font-size="14.00">status </text>
<text text-anchor="start" x="91.44" y="-589" font-family="Arial" font-size="14.00" fill="#666666">[varchar(50)]</text>
<polygon fill="none" stroke="black" points="43.2,-546 43.2,-576.8 324.89,-576.8 324.89,-546 43.2,-546"/>
<text text-anchor="start" x="50.2" y="-558.2" font-family="Arial" font-size="14.00">preferences </text>
<text text-anchor="start" x="128.02" y="-558.2" font-family="Arial" font-size="14.00" fill="#666666">[jsonb]</text>
<polygon fill="none" stroke="black" points="43.2,-515.2 43.2,-546 324.89,-546 324.89,-515.2 43.2,-515.2"/>
<text text-anchor="start" x="50.2" y="-527.4" font-family="Arial" font-size="14.00">personal_claude_token </text>
<text text-anchor="start" x="198.87" y="-527.4" font-family="Arial" font-size="14.00" fill="#666666">[text]</text>
<polygon fill="none" stroke="black" points="43.2,-484.4 43.2,-515.2 324.89,-515.2 324.89,-484.4 43.2,-484.4"/>
<text text-anchor="start" x="50.2" y="-496.6" font-family="Arial" font-size="14.00">last_login_at </text>
<text text-anchor="start" x="132.7" y="-496.6" font-family="Arial" font-size="14.00" fill="#666666">[timestamp without time zone]</text>
<polygon fill="none" stroke="black" points="43.2,-453.6 43.2,-484.4 324.89,-484.4 324.89,-453.6 43.2,-453.6"/>
<text text-anchor="start" x="50.2" y="-465.8" font-family="Arial" font-size="14.00">created_at </text>
<text text-anchor="start" x="120.25" y="-465.8" font-family="Arial" font-size="14.00" fill="#666666">[timestamp without time zone]</text>
<polygon fill="none" stroke="black" points="43.2,-422.8 43.2,-453.6 324.89,-453.6 324.89,-422.8 43.2,-422.8"/>
<text text-anchor="start" x="50.2" y="-435" font-family="Arial" font-size="14.00">updated_at </text>
<text text-anchor="start" x="124.16" y="-435" font-family="Arial" font-size="14.00" fill="#666666">[timestamp without time zone]</text>
<polygon fill="none" stroke="black" points="43.2,-392 43.2,-422.8 324.89,-422.8 324.89,-392 43.2,-392"/>
<text text-anchor="start" x="50.2" y="-404.2" font-family="Arial" font-size="14.00">deleted_at </text>
<text text-anchor="start" x="119.48" y="-404.2" font-family="Arial" font-size="14.00" fill="#666666">[timestamp without time zone]</text>
</g>
<!-- public.employees&#45;&gt;public.roles -->
<g id="edge1" class="edge">
<title>public.employees:role_id&#45;&gt;public.roles:id</title>
<path fill="none" stroke="black" d="M335.04,-710.45C380.75,-658.55 373.9,-215.6 321.62,-215.6"/>
<polygon fill="black" stroke="black" points="334.98,-710.48 324.04,-711.28 330.29,-713.02 326.48,-715.08 326.48,-715.08 326.48,-715.08 330.29,-713.02 328.32,-719.2 334.98,-710.48"/>
<text text-anchor="start" x="332.89" y="-725.4" font-family="Arial" font-size="10.00">FOREIGN KEY (role_id) REFERENCES roles(id)</text>
</g>
</g>
</svg>
