<?xml version="1.0" encoding="UTF-8" standalone="no"?>
<!DOCTYPE svg PUBLIC "-//W3C//DTD SVG 1.1//EN"
 "http://www.w3.org/Graphics/SVG/1.1/DTD/svg11.dtd">
<!-- Generated by graphviz version 12.1.2 (20240928.0832)
 -->
<!-- Title: public.subscriptions Pages: 1 -->
<svg width="754pt" height="879pt"
 viewBox="0.00 0.00 753.78 879.20" xmlns="http://www.w3.org/2000/svg" xmlns:xlink="http://www.w3.org/1999/xlink">
<g id="graph0" class="graph" transform="scale(1 1) rotate(0) translate(4 875.2)">
<title>public.subscriptions</title>
<polygon fill="white" stroke="none" points="-4,4 -4,-875.2 749.78,-875.2 749.78,4 -4,4"/>
<!-- public.subscriptions -->
<g id="node1" class="node">
<title>public.subscriptions</title>
<polygon fill="#efefef" stroke="none" points="46.2,-789.4 46.2,-825 366.79,-825 366.79,-789.4 46.2,-789.4"/>
<polygon fill="none" stroke="black" points="46.2,-789.4 46.2,-825 366.79,-825 366.79,-789.4 46.2,-789.4"/>
<text text-anchor="start" x="72.01" y="-802.8" font-family="Arial Bold" font-size="18.00">public.subscriptions</text>
<text text-anchor="start" x="216.5" y="-802.8" font-family="Arial" font-size="14.00">    </text>
<text text-anchor="start" x="247.61" y="-802.8" font-family="Arial" font-size="14.00" fill="#666666">[BASE TABLE]</text>
<polygon fill="none" stroke="black" points="46.2,-758.6 46.2,-789.4 366.79,-789.4 366.79,-758.6 46.2,-758.6"/>
<text text-anchor="start" x="53.2" y="-770.8" font-family="Arial" font-size="14.00">id </text>
<text text-anchor="start" x="67.99" y="-770.8" font-family="Arial" font-size="14.00" fill="#666666">[uuid]</text>
<polygon fill="none" stroke="black" points="46.2,-727.8 46.2,-758.6 366.79,-758.6 366.79,-727.8 46.2,-727.8"/>
<text text-anchor="start" x="53.2" y="-740" font-family="Arial" font-size="14.00">org_id </text>
<text text-anchor="start" x="96.01" y="-740" font-family="Arial" font-size="14.00" fill="#666666">[uuid]</text>
<polygon fill="none" stroke="black" points="46.2,-697 46.2,-727.8 366.79,-727.8 366.79,-697 46.2,-697"/>
<text text-anchor="start" x="53.2" y="-709.2" font-family="Arial" font-size="14.00">plan_type </text>
<text text-anchor="start" x="117.81" y="-709.2" font-family="Arial" font-size="14.00" fill="#666666">[varchar(50)]</text>
<polygon fill="none" stroke="black" points="46.2,-666.2 46.2,-697 366.79,-697 366.79,-666.2 46.2,-666.2"/>
<text text-anchor="start" x="53.2" y="-678.4" font-family="Arial" font-size="14.00">monthly_budget_usd </text>
<text text-anchor="start" x="187.07" y="-678.4" font-family="Arial" font-size="14.00" fill="#666666">[numeric(10,2)]</text>
<polygon fill="none" stroke="black" points="46.2,-635.4 46.2,-666.2 366.79,-666.2 366.79,-635.4 46.2,-635.4"/>
<text text-anchor="start" x="53.2" y="-647.6" font-family="Arial" font-size="14.00">current_spending_usd </text>
<text text-anchor="start" x="195.63" y="-647.6" font-family="Arial" font-size="14.00" fill="#666666">[numeric(10,2)]</text>
<polygon fill="none" stroke="black" points="46.2,-604.6 46.2,-635.4 366.79,-635.4 366.79,-604.6 46.2,-604.6"/>
<text text-anchor="start" x="53.2" y="-616.8" font-family="Arial" font-size="14.00">billing_period_start </text>
<text text-anchor="start" x="174.61" y="-616.8" font-family="Arial" font-size="14.00" fill="#666666">[timestamp without time zone]</text>
<polygon fill="none" stroke="black" points="46.2,-573.8 46.2,-604.6 366.79,-604.6 366.79,-573.8 46.2,-573.8"/>
<text text-anchor="start" x="53.2" y="-586" font-family="Arial" font-size="14.00">billing_period_end </text>
<text text-anchor="start" x="170.74" y="-586" font-family="Arial" font-size="14.00" fill="#666666">[timestamp without time zone]</text>
<polygon fill="none" stroke="black" points="46.2,-543 46.2,-573.8 366.79,-573.8 366.79,-543 46.2,-543"/>
<text text-anchor="start" x="53.2" y="-555.2" font-family="Arial" font-size="14.00">status </text>
<text text-anchor="start" x="94.44" y="-555.2" font-family="Arial" font-size="14.00" fill="#666666">[varchar(50)]</text>
<polygon fill="none" stroke="black" points="46.2,-512.2 46.2,-543 366.79,-543 366.79,-512.2 46.2,-512.2"/>
<text text-anchor="start" x="53.2" y="-524.4" font-family="Arial" font-size="14.00">created_at </text>
<text text-anchor="start" x="123.25" y="-524.4" font-family="Arial" font-size="14.00" fill="#666666">[timestamp without time zone]</text>
<polygon fill="none" stroke="black" points="46.2,-481.4 46.2,-512.2 366.79,-512.2 366.79,-481.4 46.2,-481.4"/>
<text text-anchor="start" x="53.2" y="-493.6" font-family="Arial" font-size="14.00">updated_at </text>
<text text-anchor="start" x="127.16" y="-493.6" font-family="Arial" font-size="14.00" fill="#666666">[timestamp without time zone]</text>
<polygon fill="none" stroke="black" stroke-width="3" points="44.7,-479.9 44.7,-826.5 368.29,-826.5 368.29,-479.9 44.7,-479.9"/>
</g>
<!-- public.organizations -->
<g id="node2" class="node">
<title>public.organizations</title>
<polygon fill="#efefef" stroke="none" points="64.02,-320.4 64.02,-356 348.97,-356 348.97,-320.4 64.02,-320.4"/>
<polygon fill="none" stroke="black" points="64.02,-320.4 64.02,-356 348.97,-356 348.97,-320.4 64.02,-320.4"/>
<text text-anchor="start" x="71.02" y="-333.8" font-family="Arial Bold" font-size="18.00">public.organizations</text>
<text text-anchor="start" x="217.48" y="-333.8" font-family="Arial" font-size="14.00">    </text>
<text text-anchor="start" x="248.6" y="-333.8" font-family="Arial" font-size="14.00" fill="#666666">[BASE TABLE]</text>
<polygon fill="none" stroke="black" points="64.02,-289.6 64.02,-320.4 348.97,-320.4 348.97,-289.6 64.02,-289.6"/>
<text text-anchor="start" x="71.02" y="-301.8" font-family="Arial" font-size="14.00">id </text>
<text text-anchor="start" x="85.81" y="-301.8" font-family="Arial" font-size="14.00" fill="#666666">[uuid]</text>
<polygon fill="none" stroke="black" points="64.02,-258.8 64.02,-289.6 348.97,-289.6 348.97,-258.8 64.02,-258.8"/>
<text text-anchor="start" x="71.02" y="-271" font-family="Arial" font-size="14.00">name </text>
<text text-anchor="start" x="109.93" y="-271" font-family="Arial" font-size="14.00" fill="#666666">[varchar(255)]</text>
<polygon fill="none" stroke="black" points="64.02,-228 64.02,-258.8 348.97,-258.8 348.97,-228 64.02,-228"/>
<text text-anchor="start" x="71.02" y="-240.2" font-family="Arial" font-size="14.00">slug </text>
<text text-anchor="start" x="100.59" y="-240.2" font-family="Arial" font-size="14.00" fill="#666666">[varchar(100)]</text>
<polygon fill="none" stroke="black" points="64.02,-197.2 64.02,-228 348.97,-228 348.97,-197.2 64.02,-197.2"/>
<text text-anchor="start" x="71.02" y="-209.4" font-family="Arial" font-size="14.00">plan </text>
<text text-anchor="start" x="101.38" y="-209.4" font-family="Arial" font-size="14.00" fill="#666666">[varchar(50)]</text>
<polygon fill="none" stroke="black" points="64.02,-166.4 64.02,-197.2 348.97,-197.2 348.97,-166.4 64.02,-166.4"/>
<text text-anchor="start" x="71.02" y="-178.6" font-family="Arial" font-size="14.00">settings </text>
<text text-anchor="start" x="123.16" y="-178.6" font-family="Arial" font-size="14.00" fill="#666666">[jsonb]</text>
<polygon fill="none" stroke="black" points="64.02,-135.6 64.02,-166.4 348.97,-166.4 348.97,-135.6 64.02,-135.6"/>
<text text-anchor="start" x="71.02" y="-147.8" font-family="Arial" font-size="14.00">max_employees </text>
<text text-anchor="start" x="176.85" y="-147.8" font-family="Arial" font-size="14.00" fill="#666666">[integer]</text>
<polygon fill="none" stroke="black" points="64.02,-104.8 64.02,-135.6 348.97,-135.6 348.97,-104.8 64.02,-104.8"/>
<text text-anchor="start" x="71.02" y="-117" font-family="Arial" font-size="14.00">max_agents_per_employee </text>
<text text-anchor="start" x="247.69" y="-117" font-family="Arial" font-size="14.00" fill="#666666">[integer]</text>
<polygon fill="none" stroke="black" points="64.02,-74 64.02,-104.8 348.97,-104.8 348.97,-74 64.02,-74"/>
<text text-anchor="start" x="71.02" y="-86.2" font-family="Arial" font-size="14.00">created_at </text>
<text text-anchor="start" x="141.07" y="-86.2" font-family="Arial" font-size="14.00" fill="#666666">[timestamp without time zone]</text>
<polygon fill="none" stroke="black" points="64.02,-43.2 64.02,-74 348.97,-74 348.97,-43.2 64.02,-43.2"/>
<text text-anchor="start" x="71.02" y="-55.4" font-family="Arial" font-size="14.00">updated_at </text>
<text text-anchor="start" x="144.98" y="-55.4" font-family="Arial" font-size="14.00" fill="#666666">[timestamp without time zone]</text>
</g>
<!-- public.subscriptions&#45;&gt;public.organizations -->
<g id="edge1" class="edge">
<title>public.subscriptions:org_id&#45;&gt;public.organizations:id</title>
<path fill="none" stroke="black" d="M377.91,-741.53C463.86,-712.11 443.91,-305 349.97,-305"/>
<polygon fill="black" stroke="black" points="377.99,-741.51 367.39,-738.71 372.72,-742.38 368.45,-743.09 368.45,-743.09 368.45,-743.09 372.72,-742.38 368.86,-747.58 377.99,-741.51"/>
<text text-anchor="start" x="374.79" y="-753.2" font-family="Arial" font-size="10.00">FOREIGN KEY (org_id) REFERENCES organizations(id) ON DELETE CASCADE</text>
</g>
</g>
</svg>
