<?xml version="1.0" encoding="UTF-8" standalone="no"?>
<!DOCTYPE svg PUBLIC "-//W3C//DTD SVG 1.1//EN"
 "http://www.w3.org/Graphics/SVG/1.1/DTD/svg11.dtd">
<!-- Generated by graphviz version 12.1.2 (20240928.0832)
 -->
<!-- Title: public.tool_policies Pages: 1 -->
<svg width="1305pt" height="1064pt"
 viewBox="0.00 0.00 1304.93 1064.00" xmlns="http://www.w3.org/2000/svg" xmlns:xlink="http://www.w3.org/1999/xlink">
<g id="graph0" class="graph" transform="scale(1 1) rotate(0) translate(4 1060)">
<title>public.tool_policies</title>
<polygon fill="white" stroke="none" points="-4,4 -4,-1060 1300.93,-1060 1300.93,4 -4,4"/>
<!-- public.tool_policies -->
<g id="node1" class="node">
<title>public.tool_policies</title>
<polygon fill="#efefef" stroke="none" points="619.19,-974.2 619.19,-1009.8 900.16,-1009.8 900.16,-974.2 619.19,-974.2"/>
<polygon fill="none" stroke="black" points="619.19,-974.2 619.19,-1009.8 900.16,-1009.8 900.16,-974.2 619.19,-974.2"/>
<text text-anchor="start" x="626.19" y="-987.6" font-family="Arial Bold" font-size="18.00">public.tool_policies</text>
<text text-anchor="start" x="768.67" y="-987.6" font-family="Arial" font-size="14.00">    </text>
<text text-anchor="start" x="799.79" y="-987.6" font-family="Arial" font-size="14.00" fill="#666666">[BASE TABLE]</text>
<polygon fill="none" stroke="black" points="619.19,-943.4 619.19,-974.2 900.16,-974.2 900.16,-943.4 619.19,-943.4"/>
<text text-anchor="start" x="626.19" y="-955.6" font-family="Arial" font-size="14.00">id </text>
<text text-anchor="start" x="640.98" y="-955.6" font-family="Arial" font-size="14.00" fill="#666666">[uuid]</text>
<polygon fill="none" stroke="black" points="619.19,-912.6 619.19,-943.4 900.16,-943.4 900.16,-912.6 619.19,-912.6"/>
<text text-anchor="start" x="626.19" y="-924.8" font-family="Arial" font-size="14.00">org_id </text>
<text text-anchor="start" x="669" y="-924.8" font-family="Arial" font-size="14.00" fill="#666666">[uuid]</text>
<polygon fill="none" stroke="black" points="619.19,-881.8 619.19,-912.6 900.16,-912.6 900.16,-881.8 619.19,-881.8"/>
<text text-anchor="start" x="626.19" y="-894" font-family="Arial" font-size="14.00">team_id </text>
<text text-anchor="start" x="679.89" y="-894" font-family="Arial" font-size="14.00" fill="#666666">[uuid]</text>
<polygon fill="none" stroke="black" points="619.19,-851 619.19,-881.8 900.16,-881.8 900.16,-851 619.19,-851"/>
<text text-anchor="start" x="626.19" y="-863.2" font-family="Arial" font-size="14.00">employee_id </text>
<text text-anchor="start" x="709.47" y="-863.2" font-family="Arial" font-size="14.00" fill="#666666">[uuid]</text>
<polygon fill="none" stroke="black" points="619.19,-820.2 619.19,-851 900.16,-851 900.16,-820.2 619.19,-820.2"/>
<text text-anchor="start" x="626.19" y="-832.4" font-family="Arial" font-size="14.00">tool_name </text>
<text text-anchor="start" x="695.46" y="-832.4" font-family="Arial" font-size="14.00" fill="#666666">[varchar(255)]</text>
<polygon fill="none" stroke="black" points="619.19,-789.4 619.19,-820.2 900.16,-820.2 900.16,-789.4 619.19,-789.4"/>
<text text-anchor="start" x="626.19" y="-801.6" font-family="Arial" font-size="14.00">conditions </text>
<text text-anchor="start" x="693.12" y="-801.6" font-family="Arial" font-size="14.00" fill="#666666">[jsonb]</text>
<polygon fill="none" stroke="black" points="619.19,-758.6 619.19,-789.4 900.16,-789.4 900.16,-758.6 619.19,-758.6"/>
<text text-anchor="start" x="626.19" y="-770.8" font-family="Arial" font-size="14.00">action </text>
<text text-anchor="start" x="667.44" y="-770.8" font-family="Arial" font-size="14.00" fill="#666666">[varchar(20)]</text>
<polygon fill="none" stroke="black" points="619.19,-727.8 619.19,-758.6 900.16,-758.6 900.16,-727.8 619.19,-727.8"/>
<text text-anchor="start" x="626.19" y="-740" font-family="Arial" font-size="14.00">reason </text>
<text text-anchor="start" x="672.89" y="-740" font-family="Arial" font-size="14.00" fill="#666666">[text]</text>
<polygon fill="none" stroke="black" points="619.19,-697 619.19,-727.8 900.16,-727.8 900.16,-697 619.19,-697"/>
<text text-anchor="start" x="626.19" y="-709.2" font-family="Arial" font-size="14.00">created_by </text>
<text text-anchor="start" x="699.35" y="-709.2" font-family="Arial" font-size="14.00" fill="#666666">[uuid]</text>
<polygon fill="none" stroke="black" points="619.19,-666.2 619.19,-697 900.16,-697 900.16,-666.2 619.19,-666.2"/>
<text text-anchor="start" x="626.19" y="-678.4" font-family="Arial" font-size="14.00">created_at </text>
<text text-anchor="start" x="696.24" y="-678.4" font-family="Arial" font-size="14.00" fill="#666666">[timestamp without time zone]</text>
<polygon fill="none" stroke="black" points="619.19,-635.4 619.19,-666.2 900.16,-666.2 900.16,-635.4 619.19,-635.4"/>
<text text-anchor="start" x="626.19" y="-647.6" font-family="Arial" font-size="14.00">updated_at </text>
<text text-anchor="start" x="700.15" y="-647.6" font-family="Arial" font-size="14.00" fill="#666666">[timestamp without time zone]</text>
<polygon fill="none" stroke="black" stroke-width="3" points="617.69,-633.9 617.69,-1011.3 901.66,-1011.3 901.66,-633.9 617.69,-633.9"/>
</g>
<!-- public.organizations -->
<g id="node2" class="node">
<title>public.organizations</title>
<polygon fill="#efefef" stroke="none" points="43.2,-412.8 43.2,-448.4 328.15,-448.4 328.15,-412.8 43.2,-412.8"/>
<polygon fill="none" stroke="black" points="43.2,-412.8 43.2,-448.4 328.15,-448.4 328.15,-412.8 43.2,-412.8"/>
<text text-anchor="start" x="50.2" y="-426.2" font-family="Arial Bold" font-size="18.00">public.organizations</text>
<text text-anchor="start" x="196.66" y="-426.2" font-family="Arial" font-size="14.00">    </text>
<text text-anchor="start" x="227.78" y="-426.2" font-family="Arial" font-size="14.00" fill="#666666">[BASE TABLE]</text>
<polygon fill="none" stroke="black" points="43.2,-382 43.2,-412.8 328.15,-412.8 328.15,-382 43.2,-382"/>
<text text-anchor="start" x="50.2" y="-394.2" font-family="Arial" font-size="14.00">id </text>
<text text-anchor="start" x="64.99" y="-394.2" font-family="Arial" font-size="14.00" fill="#666666">[uuid]</text>
<polygon fill="none" stroke="black" points="43.2,-351.2 43.2,-382 328.15,-382 328.15,-351.2 43.2,-351.2"/>
<text text-anchor="start" x="50.2" y="-363.4" font-family="Arial" font-size="14.00">name </text>
<text text-anchor="start" x="89.11" y="-363.4" font-family="Arial" font-size="14.00" fill="#666666">[varchar(255)]</text>
<polygon fill="none" stroke="black" points="43.2,-320.4 43.2,-351.2 328.15,-351.2 328.15,-320.4 43.2,-320.4"/>
<text text-anchor="start" x="50.2" y="-332.6" font-family="Arial" font-size="14.00">slug </text>
<text text-anchor="start" x="79.77" y="-332.6" font-family="Arial" font-size="14.00" fill="#666666">[varchar(100)]</text>
<polygon fill="none" stroke="black" points="43.2,-289.6 43.2,-320.4 328.15,-320.4 328.15,-289.6 43.2,-289.6"/>
<text text-anchor="start" x="50.2" y="-301.8" font-family="Arial" font-size="14.00">plan </text>
<text text-anchor="start" x="80.56" y="-301.8" font-family="Arial" font-size="14.00" fill="#666666">[varchar(50)]</text>
<polygon fill="none" stroke="black" points="43.2,-258.8 43.2,-289.6 328.15,-289.6 328.15,-258.8 43.2,-258.8"/>
<text text-anchor="start" x="50.2" y="-271" font-family="Arial" font-size="14.00">settings </text>
<text text-anchor="start" x="102.34" y="-271" font-family="Arial" font-size="14.00" fill="#666666">[jsonb]</text>
<polygon fill="none" stroke="black" points="43.2,-228 43.2,-258.8 328.15,-258.8 328.15,-228 43.2,-228"/>
<text text-anchor="start" x="50.2" y="-240.2" font-family="Arial" font-size="14.00">max_employees </text>
<text text-anchor="start" x="156.03" y="-240.2" font-family="Arial" font-size="14.00" fill="#666666">[integer]</text>
<polygon fill="none" stroke="black" points="43.2,-197.2 43.2,-228 328.15,-228 328.15,-197.2 43.2,-197.2"/>
<text text-anchor="start" x="50.2" y="-209.4" font-family="Arial" font-size="14.00">max_agents_per_employee </text>
<text text-anchor="start" x="226.87" y="-209.4" font-family="Arial" font-size="14.00" fill="#666666">[integer]</text>
<polygon fill="none" stroke="black" points="43.2,-166.4 43.2,-197.2 328.15,-197.2 328.15,-166.4 43.2,-166.4"/>
<text text-anchor="start" x="50.2" y="-178.6" font-family="Arial" font-size="14.00">claude_api_token </text>
<text text-anchor="start" x="163.85" y="-178.6" font-family="Arial" font-size="14.00" fill="#666666">[text]</text>
<polygon fill="none" stroke="black" points="43.2,-135.6 43.2,-166.4 328.15,-166.4 328.15,-135.6 43.2,-135.6"/>
<text text-anchor="start" x="50.2" y="-147.8" font-family="Arial" font-size="14.00">created_at </text>
<text text-anchor="start" x="120.25" y="-147.8" font-family="Arial" font-size="14.00" fill="#666666">[timestamp without time zone]</text>
<polygon fill="none" stroke="black" points="43.2,-104.8 43.2,-135.6 328.15,-135.6 328.15,-104.8 43.2,-104.8"/>
<text text-anchor="start" x="50.2" y="-117" font-family="Arial" font-size="14.00">updated_at </text>
<text text-anchor="start" x="124.16" y="-117" font-family="Arial" font-size="14.00" fill="#666666">[timestamp without time zone]</text>
</g>
<!-- public.tool_policies&#45;&gt;public.organizations -->
<g id="edge1" class="edge">
<title>public.tool_policies:org_id&#45;&gt;public.organizations:id</title>
<path fill="none" stroke="black" d="M608,-927.82C422.22,-921.11 462.33,-728.69 379.68,-553.2 348.66,-487.34 401.94,-397.4 329.15,-397.4"/>
<polygon fill="black" stroke="black" points="607.86,-927.82 617.78,-932.49 613.19,-927.91 617.52,-927.99 617.52,-927.99 617.52,-927.99 613.19,-927.91 617.94,-923.49 607.86,-927.82"/>
<text text-anchor="start" x="247.2" y="-938" font-family="Arial" font-size="10.00">FOREIGN KEY (org_id) REFERENCES organizations(id) ON DELETE CASCADE</text>
</g>
<!-- public.teams -->
<g id="node3" class="node">
<title>public.teams</title>
<polygon fill="#efefef" stroke="none" points="432.1,-351.2 432.1,-386.8 705.25,-386.8 705.25,-351.2 432.1,-351.2"/>
<polygon fill="none" stroke="black" points="432.1,-351.2 432.1,-386.8 705.25,-386.8 705.25,-351.2 432.1,-351.2"/>
<text text-anchor="start" x="460.69" y="-364.6" font-family="Arial Bold" font-size="18.00">public.teams</text>
<text text-anchor="start" x="552.17" y="-364.6" font-family="Arial" font-size="14.00">    </text>
<text text-anchor="start" x="583.29" y="-364.6" font-family="Arial" font-size="14.00" fill="#666666">[BASE TABLE]</text>
<polygon fill="none" stroke="black" points="432.1,-320.4 432.1,-351.2 705.25,-351.2 705.25,-320.4 432.1,-320.4"/>
<text text-anchor="start" x="439.1" y="-332.6" font-family="Arial" font-size="14.00">id </text>
<text text-anchor="start" x="453.89" y="-332.6" font-family="Arial" font-size="14.00" fill="#666666">[uuid]</text>
<polygon fill="none" stroke="black" points="432.1,-289.6 432.1,-320.4 705.25,-320.4 705.25,-289.6 432.1,-289.6"/>
<text text-anchor="start" x="439.1" y="-301.8" font-family="Arial" font-size="14.00">org_id </text>
<text text-anchor="start" x="481.91" y="-301.8" font-family="Arial" font-size="14.00" fill="#666666">[uuid]</text>
<polygon fill="none" stroke="black" points="432.1,-258.8 432.1,-289.6 705.25,-289.6 705.25,-258.8 432.1,-258.8"/>
<text text-anchor="start" x="439.1" y="-271" font-family="Arial" font-size="14.00">name </text>
<text text-anchor="start" x="478.01" y="-271" font-family="Arial" font-size="14.00" fill="#666666">[varchar(255)]</text>
<polygon fill="none" stroke="black" points="432.1,-228 432.1,-258.8 705.25,-258.8 705.25,-228 432.1,-228"/>
<text text-anchor="start" x="439.1" y="-240.2" font-family="Arial" font-size="14.00">description </text>
<text text-anchor="start" x="510.7" y="-240.2" font-family="Arial" font-size="14.00" fill="#666666">[text]</text>
<polygon fill="none" stroke="black" points="432.1,-197.2 432.1,-228 705.25,-228 705.25,-197.2 432.1,-197.2"/>
<text text-anchor="start" x="439.1" y="-209.4" font-family="Arial" font-size="14.00">created_at </text>
<text text-anchor="start" x="509.15" y="-209.4" font-family="Arial" font-size="14.00" fill="#666666">[timestamp without time zone]</text>
<polygon fill="none" stroke="black" points="432.1,-166.4 432.1,-197.2 705.25,-197.2 705.25,-166.4 432.1,-166.4"/>
<text text-anchor="start" x="439.1" y="-178.6" font-family="Arial" font-size="14.00">updated_at </text>
<text text-anchor="start" x="513.06" y="-178.6" font-family="Arial" font-size="14.00" fill="#666666">[timestamp without time zone]</text>
</g>
<!-- public.tool_policies&#45;&gt;public.teams -->
<g id="edge2" class="edge">
<title>public.tool_policies:team_id&#45;&gt;public.teams:id</title>
<path fill="none" stroke="black" d="M607.86,-896.84C486.74,-887.98 586.29,-718.36 619.19,-589.2 639.04,-511.26 685.11,-507.87 705.25,-430 715.73,-389.46 748.12,-335.8 706.25,-335.8"/>
<polygon fill="black" stroke="black" points="607.86,-896.84 617.7,-901.69 613.19,-897.02 617.52,-897.18 617.52,-897.18 617.52,-897.18 613.19,-897.02 618.01,-892.69 607.86,-896.84"/>
<text text-anchor="start" x="271.67" y="-907.2" font-family="Arial" font-size="10.00">FOREIGN KEY (team_id) REFERENCES teams(id) ON DELETE CASCADE</text>
</g>
<!-- public.employees -->
<g id="node4" class="node">
<title>public.employees</title>
<polygon fill="#efefef" stroke="none" points="809.83,-474.4 809.83,-510 1091.52,-510 1091.52,-474.4 809.83,-474.4"/>
<polygon fill="none" stroke="black" points="809.83,-474.4 809.83,-510 1091.52,-510 1091.52,-474.4 809.83,-474.4"/>
<text text-anchor="start" x="825.2" y="-487.8" font-family="Arial Bold" font-size="18.00">public.employees</text>
<text text-anchor="start" x="951.66" y="-487.8" font-family="Arial" font-size="14.00">    </text>
<text text-anchor="start" x="982.78" y="-487.8" font-family="Arial" font-size="14.00" fill="#666666">[BASE TABLE]</text>
<polygon fill="none" stroke="black" points="809.83,-443.6 809.83,-474.4 1091.52,-474.4 1091.52,-443.6 809.83,-443.6"/>
<text text-anchor="start" x="816.83" y="-455.8" font-family="Arial" font-size="14.00">id </text>
<text text-anchor="start" x="831.62" y="-455.8" font-family="Arial" font-size="14.00" fill="#666666">[uuid]</text>
<polygon fill="none" stroke="black" points="809.83,-412.8 809.83,-443.6 1091.52,-443.6 1091.52,-412.8 809.83,-412.8"/>
<text text-anchor="start" x="816.83" y="-425" font-family="Arial" font-size="14.00">org_id </text>
<text text-anchor="start" x="859.64" y="-425" font-family="Arial" font-size="14.00" fill="#666666">[uuid]</text>
<polygon fill="none" stroke="black" points="809.83,-382 809.83,-412.8 1091.52,-412.8 1091.52,-382 809.83,-382"/>
<text text-anchor="start" x="816.83" y="-394.2" font-family="Arial" font-size="14.00">team_id </text>
<text text-anchor="start" x="870.53" y="-394.2" font-family="Arial" font-size="14.00" fill="#666666">[uuid]</text>
<polygon fill="none" stroke="black" points="809.83,-351.2 809.83,-382 1091.52,-382 1091.52,-351.2 809.83,-351.2"/>
<text text-anchor="start" x="816.83" y="-363.4" font-family="Arial" font-size="14.00">role_id </text>
<text text-anchor="start" x="862.75" y="-363.4" font-family="Arial" font-size="14.00" fill="#666666">[uuid]</text>
<polygon fill="none" stroke="black" points="809.83,-320.4 809.83,-351.2 1091.52,-351.2 1091.52,-320.4 809.83,-320.4"/>
<text text-anchor="start" x="816.83" y="-332.6" font-family="Arial" font-size="14.00">email </text>
<text text-anchor="start" x="854.18" y="-332.6" font-family="Arial" font-size="14.00" fill="#666666">[varchar(255)]</text>
<polygon fill="none" stroke="black" points="809.83,-289.6 809.83,-320.4 1091.52,-320.4 1091.52,-289.6 809.83,-289.6"/>
<text text-anchor="start" x="816.83" y="-301.8" font-family="Arial" font-size="14.00">full_name </text>
<text text-anchor="start" x="881.42" y="-301.8" font-family="Arial" font-size="14.00" fill="#666666">[varchar(255)]</text>
<polygon fill="none" stroke="black" points="809.83,-258.8 809.83,-289.6 1091.52,-289.6 1091.52,-258.8 809.83,-258.8"/>
<text text-anchor="start" x="816.83" y="-271" font-family="Arial" font-size="14.00">password_hash </text>
<text text-anchor="start" x="918.78" y="-271" font-family="Arial" font-size="14.00" fill="#666666">[varchar(255)]</text>
<polygon fill="none" stroke="black" points="809.83,-228 809.83,-258.8 1091.52,-258.8 1091.52,-228 809.83,-228"/>
<text text-anchor="start" x="816.83" y="-240.2" font-family="Arial" font-size="14.00">status </text>
<text text-anchor="start" x="858.07" y="-240.2" font-family="Arial" font-size="14.00" fill="#666666">[varchar(50)]</text>
<polygon fill="none" stroke="black" points="809.83,-197.2 809.83,-228 1091.52,-228 1091.52,-197.2 809.83,-197.2"/>
<text text-anchor="start" x="816.83" y="-209.4" font-family="Arial" font-size="14.00">preferences </text>
<text text-anchor="start" x="894.65" y="-209.4" font-family="Arial" font-size="14.00" fill="#666666">[jsonb]</text>
<polygon fill="none" stroke="black" points="809.83,-166.4 809.83,-197.2 1091.52,-197.2 1091.52,-166.4 809.83,-166.4"/>
<text text-anchor="start" x="816.83" y="-178.6" font-family="Arial" font-size="14.00">personal_claude_token </text>
<text text-anchor="start" x="965.5" y="-178.6" font-family="Arial" font-size="14.00" fill="#666666">[text]</text>
<polygon fill="none" stroke="black" points="809.83,-135.6 809.83,-166.4 1091.52,-166.4 1091.52,-135.6 809.83,-135.6"/>
<text text-anchor="start" x="816.83" y="-147.8" font-family="Arial" font-size="14.00">last_login_at </text>
<text text-anchor="start" x="899.33" y="-147.8" font-family="Arial" font-size="14.00" fill="#666666">[timestamp without time zone]</text>
<polygon fill="none" stroke="black" points="809.83,-104.8 809.83,-135.6 1091.52,-135.6 1091.52,-104.8 809.83,-104.8"/>
<text text-anchor="start" x="816.83" y="-117" font-family="Arial" font-size="14.00">created_at </text>
<text text-anchor="start" x="886.88" y="-117" font-family="Arial" font-size="14.00" fill="#666666">[timestamp without time zone]</text>
<polygon fill="none" stroke="black" points="809.83,-74 809.83,-104.8 1091.52,-104.8 1091.52,-74 809.83,-74"/>
<text text-anchor="start" x="816.83" y="-86.2" font-family="Arial" font-size="14.00">updated_at </text>
<text text-anchor="start" x="890.79" y="-86.2" font-family="Arial" font-size="14.00" fill="#666666">[timestamp without time zone]</text>
<polygon fill="none" stroke="black" points="809.83,-43.2 809.83,-74 1091.52,-74 1091.52,-43.2 809.83,-43.2"/>
<text text-anchor="start" x="816.83" y="-55.4" font-family="Arial" font-size="14.00">deleted_at </text>
<text text-anchor="start" x="886.11" y="-55.4" font-family="Arial" font-size="14.00" fill="#666666">[timestamp without time zone]</text>
</g>
<!-- public.tool_policies&#45;&gt;public.employees -->
<g id="edge3" class="edge">
<title>public.tool_policies:employee_id&#45;&gt;public.employees:id</title>
<path fill="none" stroke="black" d="M911.53,-865.95C1021.13,-856.19 967.45,-688.07 900.16,-589.2 875.84,-553.47 834.27,-588.84 809.83,-553.2 786.15,-518.67 766.96,-459 808.83,-459"/>
<polygon fill="black" stroke="black" points="911.48,-865.96 901.3,-861.89 906.15,-866.19 901.83,-866.37 901.83,-866.37 901.83,-866.37 906.15,-866.19 901.69,-870.88 911.48,-865.96"/>
<text text-anchor="start" x="908.16" y="-876.4" font-family="Arial" font-size="10.00">FOREIGN KEY (employee_id) REFERENCES employees(id) ON DELETE CASCADE</text>
</g>
<!-- public.tool_policies&#45;&gt;public.employees -->
<g id="edge4" class="edge">
<title>public.tool_policies:created_by&#45;&gt;public.employees:id</title>
<path fill="none" stroke="black" d="M911.3,-711.34C952.49,-701.89 928.96,-631.31 900.16,-589.2 875.76,-553.53 834.27,-588.84 809.83,-553.2 786.15,-518.67 766.96,-459 808.83,-459"/>
<polygon fill="black" stroke="black" points="911.44,-711.33 901.02,-707.89 906.13,-711.88 901.82,-712.33 901.82,-712.33 901.82,-712.33 906.13,-711.88 901.96,-716.84 911.44,-711.33"/>
<text text-anchor="start" x="908.16" y="-722.4" font-family="Arial" font-size="10.00">FOREIGN KEY (created_by) REFERENCES employees(id) ON DELETE SET NULL</text>
</g>
</g>
</svg>
