<?xml version="1.0" encoding="UTF-8" standalone="no"?>
<!DOCTYPE svg PUBLIC "-//W3C//DTD SVG 1.1//EN"
 "http://www.w3.org/Graphics/SVG/1.1/DTD/svg11.dtd">
<!-- Generated by graphviz version 12.1.2 (20240928.0832)
 -->
<!-- Title: public.employee_mcp_configs Pages: 1 -->
<svg width="1183pt" height="972pt"
 viewBox="0.00 0.00 1183.15 971.60" xmlns="http://www.w3.org/2000/svg" xmlns:xlink="http://www.w3.org/1999/xlink">
<g id="graph0" class="graph" transform="scale(1 1) rotate(0) translate(4 967.6)">
<title>public.employee_mcp_configs</title>
<polygon fill="white" stroke="none" points="-4,4 -4,-967.6 1179.15,-967.6 1179.15,4 -4,4"/>
<!-- public.employee_mcp_configs -->
<g id="node1" class="node">
<title>public.employee_mcp_configs</title>
<polygon fill="#efefef" stroke="none" points="396.77,-881.8 396.77,-917.4 756.7,-917.4 756.7,-881.8 396.77,-881.8"/>
<polygon fill="none" stroke="black" points="396.77,-881.8 396.77,-917.4 756.7,-917.4 756.7,-881.8 396.77,-881.8"/>
<text text-anchor="start" x="403.77" y="-895.2" font-family="Arial Bold" font-size="18.00">public.employee_mcp_configs</text>
<text text-anchor="start" x="625.21" y="-895.2" font-family="Arial" font-size="14.00">    </text>
<text text-anchor="start" x="656.33" y="-895.2" font-family="Arial" font-size="14.00" fill="#666666">[BASE TABLE]</text>
<polygon fill="none" stroke="black" points="396.77,-851 396.77,-881.8 756.7,-881.8 756.7,-851 396.77,-851"/>
<text text-anchor="start" x="403.77" y="-863.2" font-family="Arial" font-size="14.00">id </text>
<text text-anchor="start" x="418.56" y="-863.2" font-family="Arial" font-size="14.00" fill="#666666">[uuid]</text>
<polygon fill="none" stroke="black" points="396.77,-820.2 396.77,-851 756.7,-851 756.7,-820.2 396.77,-820.2"/>
<text text-anchor="start" x="403.77" y="-832.4" font-family="Arial" font-size="14.00">employee_id </text>
<text text-anchor="start" x="487.05" y="-832.4" font-family="Arial" font-size="14.00" fill="#666666">[uuid]</text>
<polygon fill="none" stroke="black" points="396.77,-789.4 396.77,-820.2 756.7,-820.2 756.7,-789.4 396.77,-789.4"/>
<text text-anchor="start" x="403.77" y="-801.6" font-family="Arial" font-size="14.00">mcp_catalog_id </text>
<text text-anchor="start" x="505.72" y="-801.6" font-family="Arial" font-size="14.00" fill="#666666">[uuid]</text>
<polygon fill="none" stroke="black" points="396.77,-758.6 396.77,-789.4 756.7,-789.4 756.7,-758.6 396.77,-758.6"/>
<text text-anchor="start" x="403.77" y="-770.8" font-family="Arial" font-size="14.00">status </text>
<text text-anchor="start" x="445.01" y="-770.8" font-family="Arial" font-size="14.00" fill="#666666">[varchar(50)]</text>
<polygon fill="none" stroke="black" points="396.77,-727.8 396.77,-758.6 756.7,-758.6 756.7,-727.8 396.77,-727.8"/>
<text text-anchor="start" x="403.77" y="-740" font-family="Arial" font-size="14.00">connection_config </text>
<text text-anchor="start" x="520.52" y="-740" font-family="Arial" font-size="14.00" fill="#666666">[jsonb]</text>
<polygon fill="none" stroke="black" points="396.77,-697 396.77,-727.8 756.7,-727.8 756.7,-697 396.77,-697"/>
<text text-anchor="start" x="403.77" y="-709.2" font-family="Arial" font-size="14.00">credentials_encrypted </text>
<text text-anchor="start" x="544.63" y="-709.2" font-family="Arial" font-size="14.00" fill="#666666">[text]</text>
<polygon fill="none" stroke="black" points="396.77,-666.2 396.77,-697 756.7,-697 756.7,-666.2 396.77,-666.2"/>
<text text-anchor="start" x="403.77" y="-678.4" font-family="Arial" font-size="14.00">sync_token </text>
<text text-anchor="start" x="478.48" y="-678.4" font-family="Arial" font-size="14.00" fill="#666666">[varchar(255)]</text>
<polygon fill="none" stroke="black" points="396.77,-635.4 396.77,-666.2 756.7,-666.2 756.7,-635.4 396.77,-635.4"/>
<text text-anchor="start" x="403.77" y="-647.6" font-family="Arial" font-size="14.00">last_sync_at </text>
<text text-anchor="start" x="485.48" y="-647.6" font-family="Arial" font-size="14.00" fill="#666666">[timestamp without time zone]</text>
<polygon fill="none" stroke="black" points="396.77,-604.6 396.77,-635.4 756.7,-635.4 756.7,-604.6 396.77,-604.6"/>
<text text-anchor="start" x="403.77" y="-616.8" font-family="Arial" font-size="14.00">created_at </text>
<text text-anchor="start" x="473.82" y="-616.8" font-family="Arial" font-size="14.00" fill="#666666">[timestamp without time zone]</text>
<polygon fill="none" stroke="black" points="396.77,-573.8 396.77,-604.6 756.7,-604.6 756.7,-573.8 396.77,-573.8"/>
<text text-anchor="start" x="403.77" y="-586" font-family="Arial" font-size="14.00">updated_at </text>
<text text-anchor="start" x="477.73" y="-586" font-family="Arial" font-size="14.00" fill="#666666">[timestamp without time zone]</text>
<polygon fill="none" stroke="black" stroke-width="3" points="395.27,-572.3 395.27,-918.9 758.2,-918.9 758.2,-572.3 395.27,-572.3"/>
</g>
<!-- public.employees -->
<g id="node2" class="node">
<title>public.employees</title>
<polygon fill="#efefef" stroke="none" points="243.89,-397.4 243.89,-433 525.58,-433 525.58,-397.4 243.89,-397.4"/>
<polygon fill="none" stroke="black" points="243.89,-397.4 243.89,-433 525.58,-433 525.58,-397.4 243.89,-397.4"/>
<text text-anchor="start" x="259.26" y="-410.8" font-family="Arial Bold" font-size="18.00">public.employees</text>
<text text-anchor="start" x="385.73" y="-410.8" font-family="Arial" font-size="14.00">    </text>
<text text-anchor="start" x="416.84" y="-410.8" font-family="Arial" font-size="14.00" fill="#666666">[BASE TABLE]</text>
<polygon fill="none" stroke="black" points="243.89,-366.6 243.89,-397.4 525.58,-397.4 525.58,-366.6 243.89,-366.6"/>
<text text-anchor="start" x="250.89" y="-378.8" font-family="Arial" font-size="14.00">id </text>
<text text-anchor="start" x="265.68" y="-378.8" font-family="Arial" font-size="14.00" fill="#666666">[uuid]</text>
<polygon fill="none" stroke="black" points="243.89,-335.8 243.89,-366.6 525.58,-366.6 525.58,-335.8 243.89,-335.8"/>
<text text-anchor="start" x="250.89" y="-348" font-family="Arial" font-size="14.00">org_id </text>
<text text-anchor="start" x="293.7" y="-348" font-family="Arial" font-size="14.00" fill="#666666">[uuid]</text>
<polygon fill="none" stroke="black" points="243.89,-305 243.89,-335.8 525.58,-335.8 525.58,-305 243.89,-305"/>
<text text-anchor="start" x="250.89" y="-317.2" font-family="Arial" font-size="14.00">team_id </text>
<text text-anchor="start" x="304.59" y="-317.2" font-family="Arial" font-size="14.00" fill="#666666">[uuid]</text>
<polygon fill="none" stroke="black" points="243.89,-274.2 243.89,-305 525.58,-305 525.58,-274.2 243.89,-274.2"/>
<text text-anchor="start" x="250.89" y="-286.4" font-family="Arial" font-size="14.00">role_id </text>
<text text-anchor="start" x="296.81" y="-286.4" font-family="Arial" font-size="14.00" fill="#666666">[uuid]</text>
<polygon fill="none" stroke="black" points="243.89,-243.4 243.89,-274.2 525.58,-274.2 525.58,-243.4 243.89,-243.4"/>
<text text-anchor="start" x="250.89" y="-255.6" font-family="Arial" font-size="14.00">email </text>
<text text-anchor="start" x="288.24" y="-255.6" font-family="Arial" font-size="14.00" fill="#666666">[varchar(255)]</text>
<polygon fill="none" stroke="black" points="243.89,-212.6 243.89,-243.4 525.58,-243.4 525.58,-212.6 243.89,-212.6"/>
<text text-anchor="start" x="250.89" y="-224.8" font-family="Arial" font-size="14.00">full_name </text>
<text text-anchor="start" x="315.49" y="-224.8" font-family="Arial" font-size="14.00" fill="#666666">[varchar(255)]</text>
<polygon fill="none" stroke="black" points="243.89,-181.8 243.89,-212.6 525.58,-212.6 525.58,-181.8 243.89,-181.8"/>
<text text-anchor="start" x="250.89" y="-194" font-family="Arial" font-size="14.00">status </text>
<text text-anchor="start" x="292.13" y="-194" font-family="Arial" font-size="14.00" fill="#666666">[varchar(50)]</text>
<polygon fill="none" stroke="black" points="243.89,-151 243.89,-181.8 525.58,-181.8 525.58,-151 243.89,-151"/>
<text text-anchor="start" x="250.89" y="-163.2" font-family="Arial" font-size="14.00">preferences </text>
<text text-anchor="start" x="328.71" y="-163.2" font-family="Arial" font-size="14.00" fill="#666666">[jsonb]</text>
<polygon fill="none" stroke="black" points="243.89,-120.2 243.89,-151 525.58,-151 525.58,-120.2 243.89,-120.2"/>
<text text-anchor="start" x="250.89" y="-132.4" font-family="Arial" font-size="14.00">last_login_at </text>
<text text-anchor="start" x="333.4" y="-132.4" font-family="Arial" font-size="14.00" fill="#666666">[timestamp without time zone]</text>
<polygon fill="none" stroke="black" points="243.89,-89.4 243.89,-120.2 525.58,-120.2 525.58,-89.4 243.89,-89.4"/>
<text text-anchor="start" x="250.89" y="-101.6" font-family="Arial" font-size="14.00">created_at </text>
<text text-anchor="start" x="320.94" y="-101.6" font-family="Arial" font-size="14.00" fill="#666666">[timestamp without time zone]</text>
<polygon fill="none" stroke="black" points="243.89,-58.6 243.89,-89.4 525.58,-89.4 525.58,-58.6 243.89,-58.6"/>
<text text-anchor="start" x="250.89" y="-70.8" font-family="Arial" font-size="14.00">updated_at </text>
<text text-anchor="start" x="324.85" y="-70.8" font-family="Arial" font-size="14.00" fill="#666666">[timestamp without time zone]</text>
</g>
<!-- public.employee_mcp_configs&#45;&gt;public.employees -->
<g id="edge1" class="edge">
<title>public.employee_mcp_configs:employee_id&#45;&gt;public.employees:id</title>
<path fill="none" stroke="black" d="M385.35,-835.2C262.11,-825.38 321.83,-637.81 396.77,-527.6 431.43,-476.63 490.73,-527.04 525.58,-476.2 549.25,-441.66 568.45,-382 526.58,-382"/>
<polygon fill="black" stroke="black" points="385.45,-835.2 395.27,-840.08 390.78,-835.41 395.1,-835.57 395.1,-835.57 395.1,-835.57 390.78,-835.41 395.61,-831.09 385.45,-835.2"/>
<text text-anchor="start" x="7" y="-845.6" font-family="Arial" font-size="10.00">FOREIGN KEY (employee_id) REFERENCES employees(id) ON DELETE CASCADE</text>
</g>
<!-- public.mcp_catalog -->
<g id="node3" class="node">
<title>public.mcp_catalog</title>
<polygon fill="#efefef" stroke="none" points="629.77,-412.8 629.77,-448.4 909.71,-448.4 909.71,-412.8 629.77,-412.8"/>
<polygon fill="none" stroke="black" points="629.77,-412.8 629.77,-448.4 909.71,-448.4 909.71,-412.8 629.77,-412.8"/>
<text text-anchor="start" x="636.77" y="-426.2" font-family="Arial Bold" font-size="18.00">public.mcp_catalog</text>
<text text-anchor="start" x="778.22" y="-426.2" font-family="Arial" font-size="14.00">    </text>
<text text-anchor="start" x="809.34" y="-426.2" font-family="Arial" font-size="14.00" fill="#666666">[BASE TABLE]</text>
<polygon fill="none" stroke="black" points="629.77,-382 629.77,-412.8 909.71,-412.8 909.71,-382 629.77,-382"/>
<text text-anchor="start" x="636.77" y="-394.2" font-family="Arial" font-size="14.00">id </text>
<text text-anchor="start" x="651.55" y="-394.2" font-family="Arial" font-size="14.00" fill="#666666">[uuid]</text>
<polygon fill="none" stroke="black" points="629.77,-351.2 629.77,-382 909.71,-382 909.71,-351.2 629.77,-351.2"/>
<text text-anchor="start" x="636.77" y="-363.4" font-family="Arial" font-size="14.00">name </text>
<text text-anchor="start" x="675.68" y="-363.4" font-family="Arial" font-size="14.00" fill="#666666">[varchar(255)]</text>
<polygon fill="none" stroke="black" points="629.77,-320.4 629.77,-351.2 909.71,-351.2 909.71,-320.4 629.77,-320.4"/>
<text text-anchor="start" x="636.77" y="-332.6" font-family="Arial" font-size="14.00">provider </text>
<text text-anchor="start" x="691.24" y="-332.6" font-family="Arial" font-size="14.00" fill="#666666">[varchar(255)]</text>
<polygon fill="none" stroke="black" points="629.77,-289.6 629.77,-320.4 909.71,-320.4 909.71,-289.6 629.77,-289.6"/>
<text text-anchor="start" x="636.77" y="-301.8" font-family="Arial" font-size="14.00">version </text>
<text text-anchor="start" x="685.79" y="-301.8" font-family="Arial" font-size="14.00" fill="#666666">[varchar(50)]</text>
<polygon fill="none" stroke="black" points="629.77,-258.8 629.77,-289.6 909.71,-289.6 909.71,-258.8 629.77,-258.8"/>
<text text-anchor="start" x="636.77" y="-271" font-family="Arial" font-size="14.00">description </text>
<text text-anchor="start" x="708.36" y="-271" font-family="Arial" font-size="14.00" fill="#666666">[text]</text>
<polygon fill="none" stroke="black" points="629.77,-228 629.77,-258.8 909.71,-258.8 909.71,-228 629.77,-228"/>
<text text-anchor="start" x="636.77" y="-240.2" font-family="Arial" font-size="14.00">connection_schema </text>
<text text-anchor="start" x="765.18" y="-240.2" font-family="Arial" font-size="14.00" fill="#666666">[jsonb]</text>
<polygon fill="none" stroke="black" points="629.77,-197.2 629.77,-228 909.71,-228 909.71,-197.2 629.77,-197.2"/>
<text text-anchor="start" x="636.77" y="-209.4" font-family="Arial" font-size="14.00">capabilities </text>
<text text-anchor="start" x="709.92" y="-209.4" font-family="Arial" font-size="14.00" fill="#666666">[jsonb]</text>
<polygon fill="none" stroke="black" points="629.77,-166.4 629.77,-197.2 909.71,-197.2 909.71,-166.4 629.77,-166.4"/>
<text text-anchor="start" x="636.77" y="-178.6" font-family="Arial" font-size="14.00">requires_credentials </text>
<text text-anchor="start" x="766.73" y="-178.6" font-family="Arial" font-size="14.00" fill="#666666">[boolean]</text>
<polygon fill="none" stroke="black" points="629.77,-135.6 629.77,-166.4 909.71,-166.4 909.71,-135.6 629.77,-135.6"/>
<text text-anchor="start" x="636.77" y="-147.8" font-family="Arial" font-size="14.00">is_approved </text>
<text text-anchor="start" x="716.93" y="-147.8" font-family="Arial" font-size="14.00" fill="#666666">[boolean]</text>
<polygon fill="none" stroke="black" points="629.77,-104.8 629.77,-135.6 909.71,-135.6 909.71,-104.8 629.77,-104.8"/>
<text text-anchor="start" x="636.77" y="-117" font-family="Arial" font-size="14.00">category_id </text>
<text text-anchor="start" x="713.04" y="-117" font-family="Arial" font-size="14.00" fill="#666666">[uuid]</text>
<polygon fill="none" stroke="black" points="629.77,-74 629.77,-104.8 909.71,-104.8 909.71,-74 629.77,-74"/>
<text text-anchor="start" x="636.77" y="-86.2" font-family="Arial" font-size="14.00">created_at </text>
<text text-anchor="start" x="706.81" y="-86.2" font-family="Arial" font-size="14.00" fill="#666666">[timestamp without time zone]</text>
<polygon fill="none" stroke="black" points="629.77,-43.2 629.77,-74 909.71,-74 909.71,-43.2 629.77,-43.2"/>
<text text-anchor="start" x="636.77" y="-55.4" font-family="Arial" font-size="14.00">updated_at </text>
<text text-anchor="start" x="710.73" y="-55.4" font-family="Arial" font-size="14.00" fill="#666666">[timestamp without time zone]</text>
</g>
<!-- public.employee_mcp_configs&#45;&gt;public.mcp_catalog -->
<g id="edge2" class="edge">
<title>public.employee_mcp_configs:mcp_catalog_id&#45;&gt;public.mcp_catalog:id</title>
<path fill="none" stroke="black" d="M768.09,-804.35C877.97,-794.38 828.98,-622.88 756.7,-527.6 721.26,-480.88 665.37,-538.19 629.77,-491.6 604.34,-458.33 586.9,-397.4 628.77,-397.4"/>
<polygon fill="black" stroke="black" points="768.03,-804.35 757.84,-800.29 762.7,-804.58 758.37,-804.77 758.37,-804.77 758.37,-804.77 762.7,-804.58 758.23,-809.28 768.03,-804.35"/>
<text text-anchor="start" x="764.7" y="-814.8" font-family="Arial" font-size="10.00">FOREIGN KEY (mcp_catalog_id) REFERENCES mcp_catalog(id) ON DELETE CASCADE</text>
</g>
</g>
</svg>
