<?xml version="1.0" encoding="UTF-8" standalone="no"?>
<!DOCTYPE svg PUBLIC "-//W3C//DTD SVG 1.1//EN"
 "http://www.w3.org/Graphics/SVG/1.1/DTD/svg11.dtd">
<!-- Generated by graphviz version 12.1.2 (20240928.0832)
 -->
<!-- Title: public.approvals Pages: 1 -->
<svg width="1084pt" height="879pt"
 viewBox="0.00 0.00 1083.68 879.20" xmlns="http://www.w3.org/2000/svg" xmlns:xlink="http://www.w3.org/1999/xlink">
<g id="graph0" class="graph" transform="scale(1 1) rotate(0) translate(4 875.2)">
<title>public.approvals</title>
<polygon fill="white" stroke="none" points="-4,4 -4,-875.2 1079.68,-875.2 1079.68,4 -4,4"/>
<!-- public.approvals -->
<g id="node1" class="node">
<title>public.approvals</title>
<polygon fill="#efefef" stroke="none" points="407.35,-789.4 407.35,-825 682.8,-825 682.8,-789.4 407.35,-789.4"/>
<polygon fill="none" stroke="black" points="407.35,-789.4 407.35,-825 682.8,-825 682.8,-789.4 407.35,-789.4"/>
<text text-anchor="start" x="423.1" y="-802.8" font-family="Arial Bold" font-size="18.00">public.approvals</text>
<text text-anchor="start" x="542.57" y="-802.8" font-family="Arial" font-size="14.00">    </text>
<text text-anchor="start" x="573.68" y="-802.8" font-family="Arial" font-size="14.00" fill="#666666">[BASE TABLE]</text>
<polygon fill="none" stroke="black" points="407.35,-758.6 407.35,-789.4 682.8,-789.4 682.8,-758.6 407.35,-758.6"/>
<text text-anchor="start" x="414.35" y="-770.8" font-family="Arial" font-size="14.00">id </text>
<text text-anchor="start" x="429.13" y="-770.8" font-family="Arial" font-size="14.00" fill="#666666">[uuid]</text>
<polygon fill="none" stroke="black" points="407.35,-727.8 407.35,-758.6 682.8,-758.6 682.8,-727.8 407.35,-727.8"/>
<text text-anchor="start" x="414.35" y="-740" font-family="Arial" font-size="14.00">request_id </text>
<text text-anchor="start" x="483.62" y="-740" font-family="Arial" font-size="14.00" fill="#666666">[uuid]</text>
<polygon fill="none" stroke="black" points="407.35,-697 407.35,-727.8 682.8,-727.8 682.8,-697 407.35,-697"/>
<text text-anchor="start" x="414.35" y="-709.2" font-family="Arial" font-size="14.00">approver_id </text>
<text text-anchor="start" x="492.18" y="-709.2" font-family="Arial" font-size="14.00" fill="#666666">[uuid]</text>
<polygon fill="none" stroke="black" points="407.35,-666.2 407.35,-697 682.8,-697 682.8,-666.2 407.35,-666.2"/>
<text text-anchor="start" x="414.35" y="-678.4" font-family="Arial" font-size="14.00">status </text>
<text text-anchor="start" x="455.59" y="-678.4" font-family="Arial" font-size="14.00" fill="#666666">[varchar(50)]</text>
<polygon fill="none" stroke="black" points="407.35,-635.4 407.35,-666.2 682.8,-666.2 682.8,-635.4 407.35,-635.4"/>
<text text-anchor="start" x="414.35" y="-647.6" font-family="Arial" font-size="14.00">comment </text>
<text text-anchor="start" x="475.81" y="-647.6" font-family="Arial" font-size="14.00" fill="#666666">[text]</text>
<polygon fill="none" stroke="black" points="407.35,-604.6 407.35,-635.4 682.8,-635.4 682.8,-604.6 407.35,-604.6"/>
<text text-anchor="start" x="414.35" y="-616.8" font-family="Arial" font-size="14.00">created_at </text>
<text text-anchor="start" x="484.4" y="-616.8" font-family="Arial" font-size="14.00" fill="#666666">[timestamp without time zone]</text>
<polygon fill="none" stroke="black" points="407.35,-573.8 407.35,-604.6 682.8,-604.6 682.8,-573.8 407.35,-573.8"/>
<text text-anchor="start" x="414.35" y="-586" font-family="Arial" font-size="14.00">resolved_at </text>
<text text-anchor="start" x="490.62" y="-586" font-family="Arial" font-size="14.00" fill="#666666">[timestamp without time zone]</text>
<polygon fill="none" stroke="black" stroke-width="3" points="405.85,-572.3 405.85,-826.5 684.3,-826.5 684.3,-572.3 405.85,-572.3"/>
</g>
<!-- public.agent_requests -->
<g id="node2" class="node">
<title>public.agent_requests</title>
<polygon fill="#efefef" stroke="none" points="201.6,-351.2 201.6,-386.8 496.55,-386.8 496.55,-351.2 201.6,-351.2"/>
<polygon fill="none" stroke="black" points="201.6,-351.2 201.6,-386.8 496.55,-386.8 496.55,-351.2 201.6,-351.2"/>
<text text-anchor="start" x="208.6" y="-364.6" font-family="Arial Bold" font-size="18.00">public.agent_requests</text>
<text text-anchor="start" x="365.06" y="-364.6" font-family="Arial" font-size="14.00">    </text>
<text text-anchor="start" x="396.18" y="-364.6" font-family="Arial" font-size="14.00" fill="#666666">[BASE TABLE]</text>
<polygon fill="none" stroke="black" points="201.6,-320.4 201.6,-351.2 496.55,-351.2 496.55,-320.4 201.6,-320.4"/>
<text text-anchor="start" x="208.6" y="-332.6" font-family="Arial" font-size="14.00">id </text>
<text text-anchor="start" x="223.39" y="-332.6" font-family="Arial" font-size="14.00" fill="#666666">[uuid]</text>
<polygon fill="none" stroke="black" points="201.6,-289.6 201.6,-320.4 496.55,-320.4 496.55,-289.6 201.6,-289.6"/>
<text text-anchor="start" x="208.6" y="-301.8" font-family="Arial" font-size="14.00">employee_id </text>
<text text-anchor="start" x="291.88" y="-301.8" font-family="Arial" font-size="14.00" fill="#666666">[uuid]</text>
<polygon fill="none" stroke="black" points="201.6,-258.8 201.6,-289.6 496.55,-289.6 496.55,-258.8 201.6,-258.8"/>
<text text-anchor="start" x="208.6" y="-271" font-family="Arial" font-size="14.00">request_type </text>
<text text-anchor="start" x="293.44" y="-271" font-family="Arial" font-size="14.00" fill="#666666">[varchar(50)]</text>
<polygon fill="none" stroke="black" points="201.6,-228 201.6,-258.8 496.55,-258.8 496.55,-228 201.6,-228"/>
<text text-anchor="start" x="208.6" y="-240.2" font-family="Arial" font-size="14.00">request_data </text>
<text text-anchor="start" x="294.22" y="-240.2" font-family="Arial" font-size="14.00" fill="#666666">[jsonb]</text>
<polygon fill="none" stroke="black" points="201.6,-197.2 201.6,-228 496.55,-228 496.55,-197.2 201.6,-197.2"/>
<text text-anchor="start" x="208.6" y="-209.4" font-family="Arial" font-size="14.00">status </text>
<text text-anchor="start" x="249.85" y="-209.4" font-family="Arial" font-size="14.00" fill="#666666">[varchar(50)]</text>
<polygon fill="none" stroke="black" points="201.6,-166.4 201.6,-197.2 496.55,-197.2 496.55,-166.4 201.6,-166.4"/>
<text text-anchor="start" x="208.6" y="-178.6" font-family="Arial" font-size="14.00">reason </text>
<text text-anchor="start" x="255.3" y="-178.6" font-family="Arial" font-size="14.00" fill="#666666">[text]</text>
<polygon fill="none" stroke="black" points="201.6,-135.6 201.6,-166.4 496.55,-166.4 496.55,-135.6 201.6,-135.6"/>
<text text-anchor="start" x="208.6" y="-147.8" font-family="Arial" font-size="14.00">created_at </text>
<text text-anchor="start" x="278.65" y="-147.8" font-family="Arial" font-size="14.00" fill="#666666">[timestamp without time zone]</text>
<polygon fill="none" stroke="black" points="201.6,-104.8 201.6,-135.6 496.55,-135.6 496.55,-104.8 201.6,-104.8"/>
<text text-anchor="start" x="208.6" y="-117" font-family="Arial" font-size="14.00">resolved_at </text>
<text text-anchor="start" x="284.87" y="-117" font-family="Arial" font-size="14.00" fill="#666666">[timestamp without time zone]</text>
</g>
<!-- public.approvals&#45;&gt;public.agent_requests -->
<g id="edge1" class="edge">
<title>public.approvals:request_id&#45;&gt;public.agent_requests:id</title>
<path fill="none" stroke="black" d="M396.33,-743.09C109.97,-736.46 492.08,-441.33 496.55,-430 511.9,-391.05 539.42,-335.8 497.55,-335.8"/>
<polygon fill="black" stroke="black" points="396.01,-743.08 405.96,-747.7 401.35,-743.14 405.68,-743.19 405.68,-743.19 405.68,-743.19 401.35,-743.14 406.07,-738.7 396.01,-743.08"/>
<text text-anchor="start" x="7" y="-753.2" font-family="Arial" font-size="10.00">FOREIGN KEY (request_id) REFERENCES agent_requests(id) ON DELETE CASCADE</text>
</g>
<!-- public.employees -->
<g id="node3" class="node">
<title>public.employees</title>
<polygon fill="#efefef" stroke="none" points="601.23,-412.8 601.23,-448.4 882.92,-448.4 882.92,-412.8 601.23,-412.8"/>
<polygon fill="none" stroke="black" points="601.23,-412.8 601.23,-448.4 882.92,-448.4 882.92,-412.8 601.23,-412.8"/>
<text text-anchor="start" x="616.6" y="-426.2" font-family="Arial Bold" font-size="18.00">public.employees</text>
<text text-anchor="start" x="743.06" y="-426.2" font-family="Arial" font-size="14.00">    </text>
<text text-anchor="start" x="774.18" y="-426.2" font-family="Arial" font-size="14.00" fill="#666666">[BASE TABLE]</text>
<polygon fill="none" stroke="black" points="601.23,-382 601.23,-412.8 882.92,-412.8 882.92,-382 601.23,-382"/>
<text text-anchor="start" x="608.23" y="-394.2" font-family="Arial" font-size="14.00">id </text>
<text text-anchor="start" x="623.02" y="-394.2" font-family="Arial" font-size="14.00" fill="#666666">[uuid]</text>
<polygon fill="none" stroke="black" points="601.23,-351.2 601.23,-382 882.92,-382 882.92,-351.2 601.23,-351.2"/>
<text text-anchor="start" x="608.23" y="-363.4" font-family="Arial" font-size="14.00">org_id </text>
<text text-anchor="start" x="651.04" y="-363.4" font-family="Arial" font-size="14.00" fill="#666666">[uuid]</text>
<polygon fill="none" stroke="black" points="601.23,-320.4 601.23,-351.2 882.92,-351.2 882.92,-320.4 601.23,-320.4"/>
<text text-anchor="start" x="608.23" y="-332.6" font-family="Arial" font-size="14.00">team_id </text>
<text text-anchor="start" x="661.93" y="-332.6" font-family="Arial" font-size="14.00" fill="#666666">[uuid]</text>
<polygon fill="none" stroke="black" points="601.23,-289.6 601.23,-320.4 882.92,-320.4 882.92,-289.6 601.23,-289.6"/>
<text text-anchor="start" x="608.23" y="-301.8" font-family="Arial" font-size="14.00">role_id </text>
<text text-anchor="start" x="654.15" y="-301.8" font-family="Arial" font-size="14.00" fill="#666666">[uuid]</text>
<polygon fill="none" stroke="black" points="601.23,-258.8 601.23,-289.6 882.92,-289.6 882.92,-258.8 601.23,-258.8"/>
<text text-anchor="start" x="608.23" y="-271" font-family="Arial" font-size="14.00">email </text>
<text text-anchor="start" x="645.58" y="-271" font-family="Arial" font-size="14.00" fill="#666666">[varchar(255)]</text>
<polygon fill="none" stroke="black" points="601.23,-228 601.23,-258.8 882.92,-258.8 882.92,-228 601.23,-228"/>
<text text-anchor="start" x="608.23" y="-240.2" font-family="Arial" font-size="14.00">full_name </text>
<text text-anchor="start" x="672.82" y="-240.2" font-family="Arial" font-size="14.00" fill="#666666">[varchar(255)]</text>
<polygon fill="none" stroke="black" points="601.23,-197.2 601.23,-228 882.92,-228 882.92,-197.2 601.23,-197.2"/>
<text text-anchor="start" x="608.23" y="-209.4" font-family="Arial" font-size="14.00">password_hash </text>
<text text-anchor="start" x="710.18" y="-209.4" font-family="Arial" font-size="14.00" fill="#666666">[varchar(255)]</text>
<polygon fill="none" stroke="black" points="601.23,-166.4 601.23,-197.2 882.92,-197.2 882.92,-166.4 601.23,-166.4"/>
<text text-anchor="start" x="608.23" y="-178.6" font-family="Arial" font-size="14.00">status </text>
<text text-anchor="start" x="649.47" y="-178.6" font-family="Arial" font-size="14.00" fill="#666666">[varchar(50)]</text>
<polygon fill="none" stroke="black" points="601.23,-135.6 601.23,-166.4 882.92,-166.4 882.92,-135.6 601.23,-135.6"/>
<text text-anchor="start" x="608.23" y="-147.8" font-family="Arial" font-size="14.00">preferences </text>
<text text-anchor="start" x="686.05" y="-147.8" font-family="Arial" font-size="14.00" fill="#666666">[jsonb]</text>
<polygon fill="none" stroke="black" points="601.23,-104.8 601.23,-135.6 882.92,-135.6 882.92,-104.8 601.23,-104.8"/>
<text text-anchor="start" x="608.23" y="-117" font-family="Arial" font-size="14.00">last_login_at </text>
<text text-anchor="start" x="690.73" y="-117" font-family="Arial" font-size="14.00" fill="#666666">[timestamp without time zone]</text>
<polygon fill="none" stroke="black" points="601.23,-74 601.23,-104.8 882.92,-104.8 882.92,-74 601.23,-74"/>
<text text-anchor="start" x="608.23" y="-86.2" font-family="Arial" font-size="14.00">created_at </text>
<text text-anchor="start" x="678.28" y="-86.2" font-family="Arial" font-size="14.00" fill="#666666">[timestamp without time zone]</text>
<polygon fill="none" stroke="black" points="601.23,-43.2 601.23,-74 882.92,-74 882.92,-43.2 601.23,-43.2"/>
<text text-anchor="start" x="608.23" y="-55.4" font-family="Arial" font-size="14.00">updated_at </text>
<text text-anchor="start" x="682.19" y="-55.4" font-family="Arial" font-size="14.00" fill="#666666">[timestamp without time zone]</text>
</g>
<!-- public.approvals&#45;&gt;public.employees -->
<g id="edge2" class="edge">
<title>public.approvals:approver_id&#45;&gt;public.employees:id</title>
<path fill="none" stroke="black" d="M694.15,-711.71C762.5,-702.06 725.81,-593.2 682.8,-527.6 661.08,-494.46 623.04,-524.68 601.23,-491.6 578.18,-456.64 558.36,-397.4 600.23,-397.4"/>
<polygon fill="black" stroke="black" points="694.11,-711.71 683.84,-707.89 688.79,-712.07 684.47,-712.36 684.47,-712.36 684.47,-712.36 688.79,-712.07 684.43,-716.87 694.11,-711.71"/>
<text text-anchor="start" x="690.8" y="-722.4" font-family="Arial" font-size="10.00">FOREIGN KEY (approver_id) REFERENCES employees(id) ON DELETE CASCADE</text>
</g>
</g>
</svg>
