<?xml version="1.0" encoding="UTF-8" standalone="no"?>
<!DOCTYPE svg PUBLIC "-//W3C//DTD SVG 1.1//EN"
 "http://www.w3.org/Graphics/SVG/1.1/DTD/svg11.dtd">
<!-- Generated by graphviz version 12.1.2 (20240928.0832)
 -->
<!-- Title: public.teams Pages: 1 -->
<svg width="1594pt" height="1345pt"
 viewBox="0.00 0.00 1594.41 1345.20" xmlns="http://www.w3.org/2000/svg" xmlns:xlink="http://www.w3.org/1999/xlink">
<g id="graph0" class="graph" transform="scale(1 1) rotate(0) translate(4 1341.2)">
<title>public.teams</title>
<polygon fill="white" stroke="none" points="-4,4 -4,-1341.2 1590.41,-1341.2 1590.41,4 -4,4"/>
<!-- public.teams -->
<g id="node1" class="node">
<title>public.teams</title>
<polygon fill="#efefef" stroke="none" points="654.55,-666.2 654.55,-701.8 927.69,-701.8 927.69,-666.2 654.55,-666.2"/>
<polygon fill="none" stroke="black" points="654.55,-666.2 654.55,-701.8 927.69,-701.8 927.69,-666.2 654.55,-666.2"/>
<text text-anchor="start" x="683.14" y="-679.6" font-family="Arial Bold" font-size="18.00">public.teams</text>
<text text-anchor="start" x="774.61" y="-679.6" font-family="Arial" font-size="14.00">    </text>
<text text-anchor="start" x="805.73" y="-679.6" font-family="Arial" font-size="14.00" fill="#666666">[BASE TABLE]</text>
<polygon fill="none" stroke="black" points="654.55,-635.4 654.55,-666.2 927.69,-666.2 927.69,-635.4 654.55,-635.4"/>
<text text-anchor="start" x="661.55" y="-647.6" font-family="Arial" font-size="14.00">id </text>
<text text-anchor="start" x="676.33" y="-647.6" font-family="Arial" font-size="14.00" fill="#666666">[uuid]</text>
<polygon fill="none" stroke="black" points="654.55,-604.6 654.55,-635.4 927.69,-635.4 927.69,-604.6 654.55,-604.6"/>
<text text-anchor="start" x="661.55" y="-616.8" font-family="Arial" font-size="14.00">org_id </text>
<text text-anchor="start" x="704.36" y="-616.8" font-family="Arial" font-size="14.00" fill="#666666">[uuid]</text>
<polygon fill="none" stroke="black" points="654.55,-573.8 654.55,-604.6 927.69,-604.6 927.69,-573.8 654.55,-573.8"/>
<text text-anchor="start" x="661.55" y="-586" font-family="Arial" font-size="14.00">name </text>
<text text-anchor="start" x="700.46" y="-586" font-family="Arial" font-size="14.00" fill="#666666">[varchar(255)]</text>
<polygon fill="none" stroke="black" points="654.55,-543 654.55,-573.8 927.69,-573.8 927.69,-543 654.55,-543"/>
<text text-anchor="start" x="661.55" y="-555.2" font-family="Arial" font-size="14.00">description </text>
<text text-anchor="start" x="733.14" y="-555.2" font-family="Arial" font-size="14.00" fill="#666666">[text]</text>
<polygon fill="none" stroke="black" points="654.55,-512.2 654.55,-543 927.69,-543 927.69,-512.2 654.55,-512.2"/>
<text text-anchor="start" x="661.55" y="-524.4" font-family="Arial" font-size="14.00">created_at </text>
<text text-anchor="start" x="731.6" y="-524.4" font-family="Arial" font-size="14.00" fill="#666666">[timestamp without time zone]</text>
<polygon fill="none" stroke="black" points="654.55,-481.4 654.55,-512.2 927.69,-512.2 927.69,-481.4 654.55,-481.4"/>
<text text-anchor="start" x="661.55" y="-493.6" font-family="Arial" font-size="14.00">updated_at </text>
<text text-anchor="start" x="735.51" y="-493.6" font-family="Arial" font-size="14.00" fill="#666666">[timestamp without time zone]</text>
<polygon fill="none" stroke="black" stroke-width="3" points="653.05,-479.9 653.05,-703.3 929.19,-703.3 929.19,-479.9 653.05,-479.9"/>
</g>
<!-- public.organizations -->
<g id="node6" class="node">
<title>public.organizations</title>
<polygon fill="#efefef" stroke="none" points="648.65,-320.4 648.65,-356 933.6,-356 933.6,-320.4 648.65,-320.4"/>
<polygon fill="none" stroke="black" points="648.65,-320.4 648.65,-356 933.6,-356 933.6,-320.4 648.65,-320.4"/>
<text text-anchor="start" x="655.65" y="-333.8" font-family="Arial Bold" font-size="18.00">public.organizations</text>
<text text-anchor="start" x="802.11" y="-333.8" font-family="Arial" font-size="14.00">    </text>
<text text-anchor="start" x="833.22" y="-333.8" font-family="Arial" font-size="14.00" fill="#666666">[BASE TABLE]</text>
<polygon fill="none" stroke="black" points="648.65,-289.6 648.65,-320.4 933.6,-320.4 933.6,-289.6 648.65,-289.6"/>
<text text-anchor="start" x="655.65" y="-301.8" font-family="Arial" font-size="14.00">id </text>
<text text-anchor="start" x="670.43" y="-301.8" font-family="Arial" font-size="14.00" fill="#666666">[uuid]</text>
<polygon fill="none" stroke="black" points="648.65,-258.8 648.65,-289.6 933.6,-289.6 933.6,-258.8 648.65,-258.8"/>
<text text-anchor="start" x="655.65" y="-271" font-family="Arial" font-size="14.00">name </text>
<text text-anchor="start" x="694.56" y="-271" font-family="Arial" font-size="14.00" fill="#666666">[varchar(255)]</text>
<polygon fill="none" stroke="black" points="648.65,-228 648.65,-258.8 933.6,-258.8 933.6,-228 648.65,-228"/>
<text text-anchor="start" x="655.65" y="-240.2" font-family="Arial" font-size="14.00">slug </text>
<text text-anchor="start" x="685.22" y="-240.2" font-family="Arial" font-size="14.00" fill="#666666">[varchar(100)]</text>
<polygon fill="none" stroke="black" points="648.65,-197.2 648.65,-228 933.6,-228 933.6,-197.2 648.65,-197.2"/>
<text text-anchor="start" x="655.65" y="-209.4" font-family="Arial" font-size="14.00">plan </text>
<text text-anchor="start" x="686" y="-209.4" font-family="Arial" font-size="14.00" fill="#666666">[varchar(50)]</text>
<polygon fill="none" stroke="black" points="648.65,-166.4 648.65,-197.2 933.6,-197.2 933.6,-166.4 648.65,-166.4"/>
<text text-anchor="start" x="655.65" y="-178.6" font-family="Arial" font-size="14.00">settings </text>
<text text-anchor="start" x="707.78" y="-178.6" font-family="Arial" font-size="14.00" fill="#666666">[jsonb]</text>
<polygon fill="none" stroke="black" points="648.65,-135.6 648.65,-166.4 933.6,-166.4 933.6,-135.6 648.65,-135.6"/>
<text text-anchor="start" x="655.65" y="-147.8" font-family="Arial" font-size="14.00">max_employees </text>
<text text-anchor="start" x="761.47" y="-147.8" font-family="Arial" font-size="14.00" fill="#666666">[integer]</text>
<polygon fill="none" stroke="black" points="648.65,-104.8 648.65,-135.6 933.6,-135.6 933.6,-104.8 648.65,-104.8"/>
<text text-anchor="start" x="655.65" y="-117" font-family="Arial" font-size="14.00">claude_api_token </text>
<text text-anchor="start" x="769.29" y="-117" font-family="Arial" font-size="14.00" fill="#666666">[text]</text>
<polygon fill="none" stroke="black" points="648.65,-74 648.65,-104.8 933.6,-104.8 933.6,-74 648.65,-74"/>
<text text-anchor="start" x="655.65" y="-86.2" font-family="Arial" font-size="14.00">created_at </text>
<text text-anchor="start" x="725.69" y="-86.2" font-family="Arial" font-size="14.00" fill="#666666">[timestamp without time zone]</text>
<polygon fill="none" stroke="black" points="648.65,-43.2 648.65,-74 933.6,-74 933.6,-43.2 648.65,-43.2"/>
<text text-anchor="start" x="655.65" y="-55.4" font-family="Arial" font-size="14.00">updated_at </text>
<text text-anchor="start" x="729.6" y="-55.4" font-family="Arial" font-size="14.00" fill="#666666">[timestamp without time zone]</text>
</g>
<!-- public.teams&#45;&gt;public.organizations -->
<g id="edge5" class="edge">
<title>public.teams:org_id&#45;&gt;public.organizations:id</title>
<path fill="none" stroke="black" d="M939.1,-619.4C1068.92,-604.21 1071.06,-305 934.6,-305"/>
<polygon fill="black" stroke="black" points="939.01,-619.41 928.77,-615.49 933.68,-619.71 929.36,-619.96 929.36,-619.96 929.36,-619.96 933.68,-619.71 929.28,-624.47 939.01,-619.41"/>
<text text-anchor="start" x="935.69" y="-630" font-family="Arial" font-size="10.00">FOREIGN KEY (org_id) REFERENCES organizations(id) ON DELETE CASCADE</text>
</g>
<!-- public.employees -->
<g id="node2" class="node">
<title>public.employees</title>
<polygon fill="#efefef" stroke="none" points="70.28,-1258.4 70.28,-1294 351.96,-1294 351.96,-1258.4 70.28,-1258.4"/>
<polygon fill="none" stroke="black" points="70.28,-1258.4 70.28,-1294 351.96,-1294 351.96,-1258.4 70.28,-1258.4"/>
<text text-anchor="start" x="85.64" y="-1271.8" font-family="Arial Bold" font-size="18.00">public.employees</text>
<text text-anchor="start" x="212.11" y="-1271.8" font-family="Arial" font-size="14.00">    </text>
<text text-anchor="start" x="243.23" y="-1271.8" font-family="Arial" font-size="14.00" fill="#666666">[BASE TABLE]</text>
<polygon fill="none" stroke="black" points="70.28,-1227.6 70.28,-1258.4 351.96,-1258.4 351.96,-1227.6 70.28,-1227.6"/>
<text text-anchor="start" x="77.28" y="-1239.8" font-family="Arial" font-size="14.00">id </text>
<text text-anchor="start" x="92.06" y="-1239.8" font-family="Arial" font-size="14.00" fill="#666666">[uuid]</text>
<polygon fill="none" stroke="black" points="70.28,-1196.8 70.28,-1227.6 351.96,-1227.6 351.96,-1196.8 70.28,-1196.8"/>
<text text-anchor="start" x="77.28" y="-1209" font-family="Arial" font-size="14.00">org_id </text>
<text text-anchor="start" x="120.08" y="-1209" font-family="Arial" font-size="14.00" fill="#666666">[uuid]</text>
<polygon fill="none" stroke="black" points="70.28,-1166 70.28,-1196.8 351.96,-1196.8 351.96,-1166 70.28,-1166"/>
<text text-anchor="start" x="77.28" y="-1178.2" font-family="Arial" font-size="14.00">team_id </text>
<text text-anchor="start" x="130.97" y="-1178.2" font-family="Arial" font-size="14.00" fill="#666666">[uuid]</text>
<polygon fill="none" stroke="black" points="70.28,-1135.2 70.28,-1166 351.96,-1166 351.96,-1135.2 70.28,-1135.2"/>
<text text-anchor="start" x="77.28" y="-1147.4" font-family="Arial" font-size="14.00">role_id </text>
<text text-anchor="start" x="123.19" y="-1147.4" font-family="Arial" font-size="14.00" fill="#666666">[uuid]</text>
<polygon fill="none" stroke="black" points="70.28,-1104.4 70.28,-1135.2 351.96,-1135.2 351.96,-1104.4 70.28,-1104.4"/>
<text text-anchor="start" x="77.28" y="-1116.6" font-family="Arial" font-size="14.00">email </text>
<text text-anchor="start" x="114.62" y="-1116.6" font-family="Arial" font-size="14.00" fill="#666666">[varchar(255)]</text>
<polygon fill="none" stroke="black" points="70.28,-1073.6 70.28,-1104.4 351.96,-1104.4 351.96,-1073.6 70.28,-1073.6"/>
<text text-anchor="start" x="77.28" y="-1085.8" font-family="Arial" font-size="14.00">full_name </text>
<text text-anchor="start" x="141.87" y="-1085.8" font-family="Arial" font-size="14.00" fill="#666666">[varchar(255)]</text>
<polygon fill="none" stroke="black" points="70.28,-1042.8 70.28,-1073.6 351.96,-1073.6 351.96,-1042.8 70.28,-1042.8"/>
<text text-anchor="start" x="77.28" y="-1055" font-family="Arial" font-size="14.00">password_hash </text>
<text text-anchor="start" x="179.23" y="-1055" font-family="Arial" font-size="14.00" fill="#666666">[varchar(255)]</text>
<polygon fill="none" stroke="black" points="70.28,-1012 70.28,-1042.8 351.96,-1042.8 351.96,-1012 70.28,-1012"/>
<text text-anchor="start" x="77.28" y="-1024.2" font-family="Arial" font-size="14.00">status </text>
<text text-anchor="start" x="118.52" y="-1024.2" font-family="Arial" font-size="14.00" fill="#666666">[varchar(50)]</text>
<polygon fill="none" stroke="black" points="70.28,-981.2 70.28,-1012 351.96,-1012 351.96,-981.2 70.28,-981.2"/>
<text text-anchor="start" x="77.28" y="-993.4" font-family="Arial" font-size="14.00">preferences </text>
<text text-anchor="start" x="155.1" y="-993.4" font-family="Arial" font-size="14.00" fill="#666666">[jsonb]</text>
<polygon fill="none" stroke="black" points="70.28,-950.4 70.28,-981.2 351.96,-981.2 351.96,-950.4 70.28,-950.4"/>
<text text-anchor="start" x="77.28" y="-962.6" font-family="Arial" font-size="14.00">personal_claude_token </text>
<text text-anchor="start" x="225.94" y="-962.6" font-family="Arial" font-size="14.00" fill="#666666">[text]</text>
<polygon fill="none" stroke="black" points="70.28,-919.6 70.28,-950.4 351.96,-950.4 351.96,-919.6 70.28,-919.6"/>
<text text-anchor="start" x="77.28" y="-931.8" font-family="Arial" font-size="14.00">last_login_at </text>
<text text-anchor="start" x="159.78" y="-931.8" font-family="Arial" font-size="14.00" fill="#666666">[timestamp without time zone]</text>
<polygon fill="none" stroke="black" points="70.28,-888.8 70.28,-919.6 351.96,-919.6 351.96,-888.8 70.28,-888.8"/>
<text text-anchor="start" x="77.28" y="-901" font-family="Arial" font-size="14.00">created_at </text>
<text text-anchor="start" x="147.32" y="-901" font-family="Arial" font-size="14.00" fill="#666666">[timestamp without time zone]</text>
<polygon fill="none" stroke="black" points="70.28,-858 70.28,-888.8 351.96,-888.8 351.96,-858 70.28,-858"/>
<text text-anchor="start" x="77.28" y="-870.2" font-family="Arial" font-size="14.00">updated_at </text>
<text text-anchor="start" x="151.23" y="-870.2" font-family="Arial" font-size="14.00" fill="#666666">[timestamp without time zone]</text>
<polygon fill="none" stroke="black" points="70.28,-827.2 70.28,-858 351.96,-858 351.96,-827.2 70.28,-827.2"/>
<text text-anchor="start" x="77.28" y="-839.4" font-family="Arial" font-size="14.00">deleted_at </text>
<text text-anchor="start" x="146.56" y="-839.4" font-family="Arial" font-size="14.00" fill="#666666">[timestamp without time zone]</text>
</g>
<!-- public.employees&#45;&gt;public.teams -->
<g id="edge1" class="edge">
<title>public.employees:team_id&#45;&gt;public.teams:id</title>
<path fill="none" stroke="black" d="M363.05,-1179.8C434.98,-1155.23 355.61,-854.27 404.12,-784 475.51,-680.57 527.87,-650.8 653.55,-650.8"/>
<polygon fill="black" stroke="black" points="363.17,-1179.78 352.59,-1176.9 357.9,-1180.62 353.63,-1181.3 353.63,-1181.3 353.63,-1181.3 357.9,-1180.62 354,-1185.79 363.17,-1179.78"/>
<text text-anchor="start" x="7" y="-1191.4" font-family="Arial" font-size="10.00">FOREIGN KEY (team_id) REFERENCES teams(id) ON DELETE SET NULL</text>
</g>
<!-- public.tool_policies -->
<g id="node3" class="node">
<title>public.tool_policies</title>
<polygon fill="#efefef" stroke="none" points="456.64,-1212.2 456.64,-1247.8 737.6,-1247.8 737.6,-1212.2 456.64,-1212.2"/>
<polygon fill="none" stroke="black" points="456.64,-1212.2 456.64,-1247.8 737.6,-1247.8 737.6,-1212.2 456.64,-1212.2"/>
<text text-anchor="start" x="463.64" y="-1225.6" font-family="Arial Bold" font-size="18.00">public.tool_policies</text>
<text text-anchor="start" x="606.12" y="-1225.6" font-family="Arial" font-size="14.00">    </text>
<text text-anchor="start" x="637.23" y="-1225.6" font-family="Arial" font-size="14.00" fill="#666666">[BASE TABLE]</text>
<polygon fill="none" stroke="black" points="456.64,-1181.4 456.64,-1212.2 737.6,-1212.2 737.6,-1181.4 456.64,-1181.4"/>
<text text-anchor="start" x="463.64" y="-1193.6" font-family="Arial" font-size="14.00">id </text>
<text text-anchor="start" x="478.42" y="-1193.6" font-family="Arial" font-size="14.00" fill="#666666">[uuid]</text>
<polygon fill="none" stroke="black" points="456.64,-1150.6 456.64,-1181.4 737.6,-1181.4 737.6,-1150.6 456.64,-1150.6"/>
<text text-anchor="start" x="463.64" y="-1162.8" font-family="Arial" font-size="14.00">org_id </text>
<text text-anchor="start" x="506.44" y="-1162.8" font-family="Arial" font-size="14.00" fill="#666666">[uuid]</text>
<polygon fill="none" stroke="black" points="456.64,-1119.8 456.64,-1150.6 737.6,-1150.6 737.6,-1119.8 456.64,-1119.8"/>
<text text-anchor="start" x="463.64" y="-1132" font-family="Arial" font-size="14.00">team_id </text>
<text text-anchor="start" x="517.33" y="-1132" font-family="Arial" font-size="14.00" fill="#666666">[uuid]</text>
<polygon fill="none" stroke="black" points="456.64,-1089 456.64,-1119.8 737.6,-1119.8 737.6,-1089 456.64,-1089"/>
<text text-anchor="start" x="463.64" y="-1101.2" font-family="Arial" font-size="14.00">employee_id </text>
<text text-anchor="start" x="546.91" y="-1101.2" font-family="Arial" font-size="14.00" fill="#666666">[uuid]</text>
<polygon fill="none" stroke="black" points="456.64,-1058.2 456.64,-1089 737.6,-1089 737.6,-1058.2 456.64,-1058.2"/>
<text text-anchor="start" x="463.64" y="-1070.4" font-family="Arial" font-size="14.00">tool_name </text>
<text text-anchor="start" x="532.9" y="-1070.4" font-family="Arial" font-size="14.00" fill="#666666">[varchar(255)]</text>
<polygon fill="none" stroke="black" points="456.64,-1027.4 456.64,-1058.2 737.6,-1058.2 737.6,-1027.4 456.64,-1027.4"/>
<text text-anchor="start" x="463.64" y="-1039.6" font-family="Arial" font-size="14.00">conditions </text>
<text text-anchor="start" x="530.57" y="-1039.6" font-family="Arial" font-size="14.00" fill="#666666">[jsonb]</text>
<polygon fill="none" stroke="black" points="456.64,-996.6 456.64,-1027.4 737.6,-1027.4 737.6,-996.6 456.64,-996.6"/>
<text text-anchor="start" x="463.64" y="-1008.8" font-family="Arial" font-size="14.00">action </text>
<text text-anchor="start" x="504.88" y="-1008.8" font-family="Arial" font-size="14.00" fill="#666666">[varchar(20)]</text>
<polygon fill="none" stroke="black" points="456.64,-965.8 456.64,-996.6 737.6,-996.6 737.6,-965.8 456.64,-965.8"/>
<text text-anchor="start" x="463.64" y="-978" font-family="Arial" font-size="14.00">reason </text>
<text text-anchor="start" x="510.33" y="-978" font-family="Arial" font-size="14.00" fill="#666666">[text]</text>
<polygon fill="none" stroke="black" points="456.64,-935 456.64,-965.8 737.6,-965.8 737.6,-935 456.64,-935"/>
<text text-anchor="start" x="463.64" y="-947.2" font-family="Arial" font-size="14.00">created_by </text>
<text text-anchor="start" x="536.79" y="-947.2" font-family="Arial" font-size="14.00" fill="#666666">[uuid]</text>
<polygon fill="none" stroke="black" points="456.64,-904.2 456.64,-935 737.6,-935 737.6,-904.2 456.64,-904.2"/>
<text text-anchor="start" x="463.64" y="-916.4" font-family="Arial" font-size="14.00">created_at </text>
<text text-anchor="start" x="533.68" y="-916.4" font-family="Arial" font-size="14.00" fill="#666666">[timestamp without time zone]</text>
<polygon fill="none" stroke="black" points="456.64,-873.4 456.64,-904.2 737.6,-904.2 737.6,-873.4 456.64,-873.4"/>
<text text-anchor="start" x="463.64" y="-885.6" font-family="Arial" font-size="14.00">updated_at </text>
<text text-anchor="start" x="537.59" y="-885.6" font-family="Arial" font-size="14.00" fill="#666666">[timestamp without time zone]</text>
</g>
<!-- public.tool_policies&#45;&gt;public.teams -->
<g id="edge2" class="edge">
<title>public.tool_policies:team_id&#45;&gt;public.teams:id</title>
<path fill="none" stroke="black" d="M748.76,-1133.09C801.78,-1109.22 762.37,-889.29 737.6,-830.2 717.53,-782.3 674.79,-795.83 654.55,-748 637.71,-708.22 610.35,-650.8 653.55,-650.8"/>
<polygon fill="black" stroke="black" points="748.72,-1133.1 738.02,-1130.73 743.5,-1134.18 739.26,-1135.06 739.26,-1135.06 739.26,-1135.06 743.5,-1134.18 739.85,-1139.54 748.72,-1133.1"/>
<text text-anchor="start" x="745.6" y="-1145.2" font-family="Arial" font-size="10.00">FOREIGN KEY (team_id) REFERENCES teams(id) ON DELETE CASCADE</text>
</g>
<!-- public.team_policies -->
<g id="node4" class="node">
<title>public.team_policies</title>
<polygon fill="#efefef" stroke="none" points="842.15,-1119.8 842.15,-1155.4 1130.09,-1155.4 1130.09,-1119.8 842.15,-1119.8"/>
<polygon fill="none" stroke="black" points="842.15,-1119.8 842.15,-1155.4 1130.09,-1155.4 1130.09,-1119.8 842.15,-1119.8"/>
<text text-anchor="start" x="849.15" y="-1133.2" font-family="Arial Bold" font-size="18.00">public.team_policies</text>
<text text-anchor="start" x="998.6" y="-1133.2" font-family="Arial" font-size="14.00">    </text>
<text text-anchor="start" x="1029.72" y="-1133.2" font-family="Arial" font-size="14.00" fill="#666666">[BASE TABLE]</text>
<polygon fill="none" stroke="black" points="842.15,-1089 842.15,-1119.8 1130.09,-1119.8 1130.09,-1089 842.15,-1089"/>
<text text-anchor="start" x="849.15" y="-1101.2" font-family="Arial" font-size="14.00">id </text>
<text text-anchor="start" x="863.93" y="-1101.2" font-family="Arial" font-size="14.00" fill="#666666">[uuid]</text>
<polygon fill="none" stroke="black" points="842.15,-1058.2 842.15,-1089 1130.09,-1089 1130.09,-1058.2 842.15,-1058.2"/>
<text text-anchor="start" x="849.15" y="-1070.4" font-family="Arial" font-size="14.00">team_id </text>
<text text-anchor="start" x="902.84" y="-1070.4" font-family="Arial" font-size="14.00" fill="#666666">[uuid]</text>
<polygon fill="none" stroke="black" points="842.15,-1027.4 842.15,-1058.2 1130.09,-1058.2 1130.09,-1027.4 842.15,-1027.4"/>
<text text-anchor="start" x="849.15" y="-1039.6" font-family="Arial" font-size="14.00">policy_id </text>
<text text-anchor="start" x="907.51" y="-1039.6" font-family="Arial" font-size="14.00" fill="#666666">[uuid]</text>
<polygon fill="none" stroke="black" points="842.15,-996.6 842.15,-1027.4 1130.09,-1027.4 1130.09,-996.6 842.15,-996.6"/>
<text text-anchor="start" x="849.15" y="-1008.8" font-family="Arial" font-size="14.00">overrides </text>
<text text-anchor="start" x="910.62" y="-1008.8" font-family="Arial" font-size="14.00" fill="#666666">[jsonb]</text>
<polygon fill="none" stroke="black" points="842.15,-965.8 842.15,-996.6 1130.09,-996.6 1130.09,-965.8 842.15,-965.8"/>
<text text-anchor="start" x="849.15" y="-978" font-family="Arial" font-size="14.00">created_at </text>
<text text-anchor="start" x="919.19" y="-978" font-family="Arial" font-size="14.00" fill="#666666">[timestamp without time zone]</text>
</g>
<!-- public.team_policies&#45;&gt;public.teams -->
<g id="edge3" class="edge">
<title>public.team_policies:team_id&#45;&gt;public.teams:id</title>
<path fill="none" stroke="black" d="M830.75,-1072.93C728.74,-1058.73 909.88,-823.09 927.69,-748 937.66,-705.96 971.89,-650.8 928.69,-650.8"/>
<polygon fill="black" stroke="black" points="830.83,-1072.93 840.52,-1078.07 836.16,-1073.28 840.48,-1073.56 840.48,-1073.56 840.48,-1073.56 836.16,-1073.28 841.1,-1069.09 830.83,-1072.93"/>
<text text-anchor="start" x="848.15" y="-1083.6" font-family="Arial" font-size="10.00">FOREIGN KEY (team_id) REFERENCES teams(id) ON DELETE CASCADE</text>
</g>
<!-- public.invitations -->
<g id="node5" class="node">
<title>public.invitations</title>
<polygon fill="#efefef" stroke="none" points="1234.44,-1243 1234.44,-1278.6 1513.8,-1278.6 1513.8,-1243 1234.44,-1243"/>
<polygon fill="none" stroke="black" points="1234.44,-1243 1234.44,-1278.6 1513.8,-1278.6 1513.8,-1243 1234.44,-1243"/>
<text text-anchor="start" x="1249.13" y="-1256.4" font-family="Arial Bold" font-size="18.00">public.invitations</text>
<text text-anchor="start" x="1374.62" y="-1256.4" font-family="Arial" font-size="14.00">    </text>
<text text-anchor="start" x="1405.74" y="-1256.4" font-family="Arial" font-size="14.00" fill="#666666">[BASE TABLE]</text>
<polygon fill="none" stroke="black" points="1234.44,-1212.2 1234.44,-1243 1513.8,-1243 1513.8,-1212.2 1234.44,-1212.2"/>
<text text-anchor="start" x="1241.44" y="-1224.4" font-family="Arial" font-size="14.00">id </text>
<text text-anchor="start" x="1256.23" y="-1224.4" font-family="Arial" font-size="14.00" fill="#666666">[uuid]</text>
<polygon fill="none" stroke="black" points="1234.44,-1181.4 1234.44,-1212.2 1513.8,-1212.2 1513.8,-1181.4 1234.44,-1181.4"/>
<text text-anchor="start" x="1241.44" y="-1193.6" font-family="Arial" font-size="14.00">org_id </text>
<text text-anchor="start" x="1284.25" y="-1193.6" font-family="Arial" font-size="14.00" fill="#666666">[uuid]</text>
<polygon fill="none" stroke="black" points="1234.44,-1150.6 1234.44,-1181.4 1513.8,-1181.4 1513.8,-1150.6 1234.44,-1150.6"/>
<text text-anchor="start" x="1241.44" y="-1162.8" font-family="Arial" font-size="14.00">inviter_id </text>
<text text-anchor="start" x="1301.36" y="-1162.8" font-family="Arial" font-size="14.00" fill="#666666">[uuid]</text>
<polygon fill="none" stroke="black" points="1234.44,-1119.8 1234.44,-1150.6 1513.8,-1150.6 1513.8,-1119.8 1234.44,-1119.8"/>
<text text-anchor="start" x="1241.44" y="-1132" font-family="Arial" font-size="14.00">email </text>
<text text-anchor="start" x="1278.79" y="-1132" font-family="Arial" font-size="14.00" fill="#666666">[varchar(255)]</text>
<polygon fill="none" stroke="black" points="1234.44,-1089 1234.44,-1119.8 1513.8,-1119.8 1513.8,-1089 1234.44,-1089"/>
<text text-anchor="start" x="1241.44" y="-1101.2" font-family="Arial" font-size="14.00">role_id </text>
<text text-anchor="start" x="1287.36" y="-1101.2" font-family="Arial" font-size="14.00" fill="#666666">[uuid]</text>
<polygon fill="none" stroke="black" points="1234.44,-1058.2 1234.44,-1089 1513.8,-1089 1513.8,-1058.2 1234.44,-1058.2"/>
<text text-anchor="start" x="1241.44" y="-1070.4" font-family="Arial" font-size="14.00">team_id </text>
<text text-anchor="start" x="1295.14" y="-1070.4" font-family="Arial" font-size="14.00" fill="#666666">[uuid]</text>
<polygon fill="none" stroke="black" points="1234.44,-1027.4 1234.44,-1058.2 1513.8,-1058.2 1513.8,-1027.4 1234.44,-1027.4"/>
<text text-anchor="start" x="1241.44" y="-1039.6" font-family="Arial" font-size="14.00">token </text>
<text text-anchor="start" x="1279.58" y="-1039.6" font-family="Arial" font-size="14.00" fill="#666666">[varchar(64)]</text>
<polygon fill="none" stroke="black" points="1234.44,-996.6 1234.44,-1027.4 1513.8,-1027.4 1513.8,-996.6 1234.44,-996.6"/>
<text text-anchor="start" x="1241.44" y="-1008.8" font-family="Arial" font-size="14.00">status </text>
<text text-anchor="start" x="1282.68" y="-1008.8" font-family="Arial" font-size="14.00" fill="#666666">[varchar(50)]</text>
<polygon fill="none" stroke="black" points="1234.44,-965.8 1234.44,-996.6 1513.8,-996.6 1513.8,-965.8 1234.44,-965.8"/>
<text text-anchor="start" x="1241.44" y="-978" font-family="Arial" font-size="14.00">expires_at </text>
<text text-anchor="start" x="1309.92" y="-978" font-family="Arial" font-size="14.00" fill="#666666">[timestamp without time zone]</text>
<polygon fill="none" stroke="black" points="1234.44,-935 1234.44,-965.8 1513.8,-965.8 1513.8,-935 1234.44,-935"/>
<text text-anchor="start" x="1241.44" y="-947.2" font-family="Arial" font-size="14.00">accepted_by </text>
<text text-anchor="start" x="1324.72" y="-947.2" font-family="Arial" font-size="14.00" fill="#666666">[uuid]</text>
<polygon fill="none" stroke="black" points="1234.44,-904.2 1234.44,-935 1513.8,-935 1513.8,-904.2 1234.44,-904.2"/>
<text text-anchor="start" x="1241.44" y="-916.4" font-family="Arial" font-size="14.00">accepted_at </text>
<text text-anchor="start" x="1321.61" y="-916.4" font-family="Arial" font-size="14.00" fill="#666666">[timestamp without time zone]</text>
<polygon fill="none" stroke="black" points="1234.44,-873.4 1234.44,-904.2 1513.8,-904.2 1513.8,-873.4 1234.44,-873.4"/>
<text text-anchor="start" x="1241.44" y="-885.6" font-family="Arial" font-size="14.00">created_at </text>
<text text-anchor="start" x="1311.49" y="-885.6" font-family="Arial" font-size="14.00" fill="#666666">[timestamp without time zone]</text>
<polygon fill="none" stroke="black" points="1234.44,-842.6 1234.44,-873.4 1513.8,-873.4 1513.8,-842.6 1234.44,-842.6"/>
<text text-anchor="start" x="1241.44" y="-854.8" font-family="Arial" font-size="14.00">updated_at </text>
<text text-anchor="start" x="1315.4" y="-854.8" font-family="Arial" font-size="14.00" fill="#666666">[timestamp without time zone]</text>
</g>
<!-- public.invitations&#45;&gt;public.teams -->
<g id="edge4" class="edge">
<title>public.invitations:team_id&#45;&gt;public.teams:id</title>
<path fill="none" stroke="black" d="M1223.43,-1071.4C1173.75,-1047.36 1218.5,-833.78 1182.12,-784 1107.04,-681.27 1055.94,-650.8 928.69,-650.8"/>
<polygon fill="black" stroke="black" points="1223.35,-1071.38 1232.15,-1077.92 1228.56,-1072.53 1232.79,-1073.46 1232.79,-1073.46 1232.79,-1073.46 1228.56,-1072.53 1234.08,-1069.13 1223.35,-1071.38"/>
<text text-anchor="start" x="1240.44" y="-1083.6" font-family="Arial" font-size="10.00">FOREIGN KEY (team_id) REFERENCES teams(id) ON DELETE SET NULL</text>
</g>
</g>
</svg>
