<?xml version="1.0" encoding="UTF-8" standalone="no"?>
<!DOCTYPE svg PUBLIC "-//W3C//DTD SVG 1.1//EN"
 "http://www.w3.org/Graphics/SVG/1.1/DTD/svg11.dtd">
<!-- Generated by graphviz version 12.1.2 (20240928.0832)
 -->
<!-- Title: public.employee_policies Pages: 1 -->
<svg width="1092pt" height="848pt"
 viewBox="0.00 0.00 1091.68 848.40" xmlns="http://www.w3.org/2000/svg" xmlns:xlink="http://www.w3.org/1999/xlink">
<g id="graph0" class="graph" transform="scale(1 1) rotate(0) translate(4 844.4)">
<title>public.employee_policies</title>
<polygon fill="white" stroke="none" points="-4,4 -4,-844.4 1087.68,-844.4 1087.68,4 -4,4"/>
<!-- public.employee_policies -->
<g id="node1" class="node">
<title>public.employee_policies</title>
<polygon fill="#efefef" stroke="none" points="396.77,-758.6 396.77,-794.2 719.71,-794.2 719.71,-758.6 396.77,-758.6"/>
<polygon fill="none" stroke="black" points="396.77,-758.6 396.77,-794.2 719.71,-794.2 719.71,-758.6 396.77,-758.6"/>
<text text-anchor="start" x="403.77" y="-772" font-family="Arial Bold" font-size="18.00">public.employee_policies</text>
<text text-anchor="start" x="588.22" y="-772" font-family="Arial" font-size="14.00">    </text>
<text text-anchor="start" x="619.34" y="-772" font-family="Arial" font-size="14.00" fill="#666666">[BASE TABLE]</text>
<polygon fill="none" stroke="black" points="396.77,-727.8 396.77,-758.6 719.71,-758.6 719.71,-727.8 396.77,-727.8"/>
<text text-anchor="start" x="403.77" y="-740" font-family="Arial" font-size="14.00">id </text>
<text text-anchor="start" x="418.56" y="-740" font-family="Arial" font-size="14.00" fill="#666666">[uuid]</text>
<polygon fill="none" stroke="black" points="396.77,-697 396.77,-727.8 719.71,-727.8 719.71,-697 396.77,-697"/>
<text text-anchor="start" x="403.77" y="-709.2" font-family="Arial" font-size="14.00">employee_id </text>
<text text-anchor="start" x="487.05" y="-709.2" font-family="Arial" font-size="14.00" fill="#666666">[uuid]</text>
<polygon fill="none" stroke="black" points="396.77,-666.2 396.77,-697 719.71,-697 719.71,-666.2 396.77,-666.2"/>
<text text-anchor="start" x="403.77" y="-678.4" font-family="Arial" font-size="14.00">policy_id </text>
<text text-anchor="start" x="462.14" y="-678.4" font-family="Arial" font-size="14.00" fill="#666666">[uuid]</text>
<polygon fill="none" stroke="black" points="396.77,-635.4 396.77,-666.2 719.71,-666.2 719.71,-635.4 396.77,-635.4"/>
<text text-anchor="start" x="403.77" y="-647.6" font-family="Arial" font-size="14.00">overrides </text>
<text text-anchor="start" x="465.24" y="-647.6" font-family="Arial" font-size="14.00" fill="#666666">[jsonb]</text>
<polygon fill="none" stroke="black" points="396.77,-604.6 396.77,-635.4 719.71,-635.4 719.71,-604.6 396.77,-604.6"/>
<text text-anchor="start" x="403.77" y="-616.8" font-family="Arial" font-size="14.00">created_at </text>
<text text-anchor="start" x="473.82" y="-616.8" font-family="Arial" font-size="14.00" fill="#666666">[timestamp without time zone]</text>
<polygon fill="none" stroke="black" stroke-width="3" points="395.27,-603.1 395.27,-795.7 721.21,-795.7 721.21,-603.1 395.27,-603.1"/>
</g>
<!-- public.employees -->
<g id="node2" class="node">
<title>public.employees</title>
<polygon fill="#efefef" stroke="none" points="226.4,-443.6 226.4,-479.2 508.08,-479.2 508.08,-443.6 226.4,-443.6"/>
<polygon fill="none" stroke="black" points="226.4,-443.6 226.4,-479.2 508.08,-479.2 508.08,-443.6 226.4,-443.6"/>
<text text-anchor="start" x="241.76" y="-457" font-family="Arial Bold" font-size="18.00">public.employees</text>
<text text-anchor="start" x="368.23" y="-457" font-family="Arial" font-size="14.00">    </text>
<text text-anchor="start" x="399.35" y="-457" font-family="Arial" font-size="14.00" fill="#666666">[BASE TABLE]</text>
<polygon fill="none" stroke="black" points="226.4,-412.8 226.4,-443.6 508.08,-443.6 508.08,-412.8 226.4,-412.8"/>
<text text-anchor="start" x="233.4" y="-425" font-family="Arial" font-size="14.00">id </text>
<text text-anchor="start" x="248.18" y="-425" font-family="Arial" font-size="14.00" fill="#666666">[uuid]</text>
<polygon fill="none" stroke="black" points="226.4,-382 226.4,-412.8 508.08,-412.8 508.08,-382 226.4,-382"/>
<text text-anchor="start" x="233.4" y="-394.2" font-family="Arial" font-size="14.00">org_id </text>
<text text-anchor="start" x="276.2" y="-394.2" font-family="Arial" font-size="14.00" fill="#666666">[uuid]</text>
<polygon fill="none" stroke="black" points="226.4,-351.2 226.4,-382 508.08,-382 508.08,-351.2 226.4,-351.2"/>
<text text-anchor="start" x="233.4" y="-363.4" font-family="Arial" font-size="14.00">team_id </text>
<text text-anchor="start" x="287.09" y="-363.4" font-family="Arial" font-size="14.00" fill="#666666">[uuid]</text>
<polygon fill="none" stroke="black" points="226.4,-320.4 226.4,-351.2 508.08,-351.2 508.08,-320.4 226.4,-320.4"/>
<text text-anchor="start" x="233.4" y="-332.6" font-family="Arial" font-size="14.00">role_id </text>
<text text-anchor="start" x="279.31" y="-332.6" font-family="Arial" font-size="14.00" fill="#666666">[uuid]</text>
<polygon fill="none" stroke="black" points="226.4,-289.6 226.4,-320.4 508.08,-320.4 508.08,-289.6 226.4,-289.6"/>
<text text-anchor="start" x="233.4" y="-301.8" font-family="Arial" font-size="14.00">email </text>
<text text-anchor="start" x="270.74" y="-301.8" font-family="Arial" font-size="14.00" fill="#666666">[varchar(255)]</text>
<polygon fill="none" stroke="black" points="226.4,-258.8 226.4,-289.6 508.08,-289.6 508.08,-258.8 226.4,-258.8"/>
<text text-anchor="start" x="233.4" y="-271" font-family="Arial" font-size="14.00">full_name </text>
<text text-anchor="start" x="297.99" y="-271" font-family="Arial" font-size="14.00" fill="#666666">[varchar(255)]</text>
<polygon fill="none" stroke="black" points="226.4,-228 226.4,-258.8 508.08,-258.8 508.08,-228 226.4,-228"/>
<text text-anchor="start" x="233.4" y="-240.2" font-family="Arial" font-size="14.00">password_hash </text>
<text text-anchor="start" x="335.35" y="-240.2" font-family="Arial" font-size="14.00" fill="#666666">[varchar(255)]</text>
<polygon fill="none" stroke="black" points="226.4,-197.2 226.4,-228 508.08,-228 508.08,-197.2 226.4,-197.2"/>
<text text-anchor="start" x="233.4" y="-209.4" font-family="Arial" font-size="14.00">status </text>
<text text-anchor="start" x="274.64" y="-209.4" font-family="Arial" font-size="14.00" fill="#666666">[varchar(50)]</text>
<polygon fill="none" stroke="black" points="226.4,-166.4 226.4,-197.2 508.08,-197.2 508.08,-166.4 226.4,-166.4"/>
<text text-anchor="start" x="233.4" y="-178.6" font-family="Arial" font-size="14.00">preferences </text>
<text text-anchor="start" x="311.22" y="-178.6" font-family="Arial" font-size="14.00" fill="#666666">[jsonb]</text>
<polygon fill="none" stroke="black" points="226.4,-135.6 226.4,-166.4 508.08,-166.4 508.08,-135.6 226.4,-135.6"/>
<text text-anchor="start" x="233.4" y="-147.8" font-family="Arial" font-size="14.00">last_login_at </text>
<text text-anchor="start" x="315.9" y="-147.8" font-family="Arial" font-size="14.00" fill="#666666">[timestamp without time zone]</text>
<polygon fill="none" stroke="black" points="226.4,-104.8 226.4,-135.6 508.08,-135.6 508.08,-104.8 226.4,-104.8"/>
<text text-anchor="start" x="233.4" y="-117" font-family="Arial" font-size="14.00">created_at </text>
<text text-anchor="start" x="303.44" y="-117" font-family="Arial" font-size="14.00" fill="#666666">[timestamp without time zone]</text>
<polygon fill="none" stroke="black" points="226.4,-74 226.4,-104.8 508.08,-104.8 508.08,-74 226.4,-74"/>
<text text-anchor="start" x="233.4" y="-86.2" font-family="Arial" font-size="14.00">updated_at </text>
<text text-anchor="start" x="307.35" y="-86.2" font-family="Arial" font-size="14.00" fill="#666666">[timestamp without time zone]</text>
<polygon fill="none" stroke="black" points="226.4,-43.2 226.4,-74 508.08,-74 508.08,-43.2 226.4,-43.2"/>
<text text-anchor="start" x="233.4" y="-55.4" font-family="Arial" font-size="14.00">deleted_at </text>
<text text-anchor="start" x="302.68" y="-55.4" font-family="Arial" font-size="14.00" fill="#666666">[timestamp without time zone]</text>
</g>
<!-- public.employee_policies&#45;&gt;public.employees -->
<g id="edge1" class="edge">
<title>public.employee_policies:employee_id&#45;&gt;public.employees:id</title>
<path fill="none" stroke="black" d="M385.4,-711.54C330.53,-701.73 358.54,-610.6 396.77,-558.4 427.5,-516.46 477.27,-564.28 508.08,-522.4 532.9,-488.68 550.95,-428.2 509.08,-428.2"/>
<polygon fill="black" stroke="black" points="385.47,-711.54 395.07,-716.86 390.79,-711.99 395.11,-712.34 395.11,-712.34 395.11,-712.34 390.79,-711.99 395.81,-707.89 385.47,-711.54"/>
<text text-anchor="start" x="7" y="-722.4" font-family="Arial" font-size="10.00">FOREIGN KEY (employee_id) REFERENCES employees(id) ON DELETE CASCADE</text>
</g>
<!-- public.policies -->
<g id="node3" class="node">
<title>public.policies</title>
<polygon fill="#efefef" stroke="none" points="612.67,-351.2 612.67,-386.8 885.81,-386.8 885.81,-351.2 612.67,-351.2"/>
<polygon fill="none" stroke="black" points="612.67,-351.2 612.67,-386.8 885.81,-386.8 885.81,-351.2 612.67,-351.2"/>
<text text-anchor="start" x="634.26" y="-364.6" font-family="Arial Bold" font-size="18.00">public.policies</text>
<text text-anchor="start" x="739.73" y="-364.6" font-family="Arial" font-size="14.00">    </text>
<text text-anchor="start" x="770.85" y="-364.6" font-family="Arial" font-size="14.00" fill="#666666">[BASE TABLE]</text>
<polygon fill="none" stroke="black" points="612.67,-320.4 612.67,-351.2 885.81,-351.2 885.81,-320.4 612.67,-320.4"/>
<text text-anchor="start" x="619.67" y="-332.6" font-family="Arial" font-size="14.00">id </text>
<text text-anchor="start" x="634.46" y="-332.6" font-family="Arial" font-size="14.00" fill="#666666">[uuid]</text>
<polygon fill="none" stroke="black" points="612.67,-289.6 612.67,-320.4 885.81,-320.4 885.81,-289.6 612.67,-289.6"/>
<text text-anchor="start" x="619.67" y="-301.8" font-family="Arial" font-size="14.00">name </text>
<text text-anchor="start" x="658.58" y="-301.8" font-family="Arial" font-size="14.00" fill="#666666">[varchar(100)]</text>
<polygon fill="none" stroke="black" points="612.67,-258.8 612.67,-289.6 885.81,-289.6 885.81,-258.8 612.67,-258.8"/>
<text text-anchor="start" x="619.67" y="-271" font-family="Arial" font-size="14.00">type </text>
<text text-anchor="start" x="650.02" y="-271" font-family="Arial" font-size="14.00" fill="#666666">[varchar(50)]</text>
<polygon fill="none" stroke="black" points="612.67,-228 612.67,-258.8 885.81,-258.8 885.81,-228 612.67,-228"/>
<text text-anchor="start" x="619.67" y="-240.2" font-family="Arial" font-size="14.00">rules </text>
<text text-anchor="start" x="653.9" y="-240.2" font-family="Arial" font-size="14.00" fill="#666666">[jsonb]</text>
<polygon fill="none" stroke="black" points="612.67,-197.2 612.67,-228 885.81,-228 885.81,-197.2 612.67,-197.2"/>
<text text-anchor="start" x="619.67" y="-209.4" font-family="Arial" font-size="14.00">severity </text>
<text text-anchor="start" x="671.79" y="-209.4" font-family="Arial" font-size="14.00" fill="#666666">[varchar(20)]</text>
<polygon fill="none" stroke="black" points="612.67,-166.4 612.67,-197.2 885.81,-197.2 885.81,-166.4 612.67,-166.4"/>
<text text-anchor="start" x="619.67" y="-178.6" font-family="Arial" font-size="14.00">created_at </text>
<text text-anchor="start" x="689.72" y="-178.6" font-family="Arial" font-size="14.00" fill="#666666">[timestamp without time zone]</text>
<polygon fill="none" stroke="black" points="612.67,-135.6 612.67,-166.4 885.81,-166.4 885.81,-135.6 612.67,-135.6"/>
<text text-anchor="start" x="619.67" y="-147.8" font-family="Arial" font-size="14.00">updated_at </text>
<text text-anchor="start" x="693.63" y="-147.8" font-family="Arial" font-size="14.00" fill="#666666">[timestamp without time zone]</text>
</g>
<!-- public.employee_policies&#45;&gt;public.policies -->
<g id="edge2" class="edge">
<title>public.employee_policies:policy_id&#45;&gt;public.policies:id</title>
<path fill="none" stroke="black" d="M730.94,-680.57C770.37,-671.61 737.24,-606.19 719.71,-558.4 694.13,-488.65 638.34,-499.72 612.67,-430 598.2,-390.71 569.8,-335.8 611.67,-335.8"/>
<polygon fill="black" stroke="black" points="730.99,-680.56 720.59,-677.09 725.68,-681.1 721.37,-681.53 721.37,-681.53 721.37,-681.53 725.68,-681.1 721.49,-686.04 730.99,-680.56"/>
<text text-anchor="start" x="727.71" y="-691.6" font-family="Arial" font-size="10.00">FOREIGN KEY (policy_id) REFERENCES policies(id) ON DELETE CASCADE</text>
</g>
</g>
</svg>
