<?xml version="1.0" encoding="UTF-8" standalone="no"?>
<!DOCTYPE svg PUBLIC "-//W3C//DTD SVG 1.1//EN"
 "http://www.w3.org/Graphics/SVG/1.1/DTD/svg11.dtd">
<!-- Generated by graphviz version 12.1.2 (20240928.0832)
 -->
<!-- Title: public.approvals Pages: 1 -->
<svg width="1084pt" height="910pt"
 viewBox="0.00 0.00 1083.68 910.00" xmlns="http://www.w3.org/2000/svg" xmlns:xlink="http://www.w3.org/1999/xlink">
<g id="graph0" class="graph" transform="scale(1 1) rotate(0) translate(4 906)">
<title>public.approvals</title>
<polygon fill="white" stroke="none" points="-4,4 -4,-906 1079.68,-906 1079.68,4 -4,4"/>
<!-- public.approvals -->
<g id="node1" class="node">
<title>public.approvals</title>
<polygon fill="#efefef" stroke="none" points="407.35,-820.2 407.35,-855.8 682.8,-855.8 682.8,-820.2 407.35,-820.2"/>
<polygon fill="none" stroke="black" points="407.35,-820.2 407.35,-855.8 682.8,-855.8 682.8,-820.2 407.35,-820.2"/>
<text text-anchor="start" x="423.1" y="-833.6" font-family="Arial Bold" font-size="18.00">public.approvals</text>
<text text-anchor="start" x="542.57" y="-833.6" font-family="Arial" font-size="14.00">    </text>
<text text-anchor="start" x="573.68" y="-833.6" font-family="Arial" font-size="14.00" fill="#666666">[BASE TABLE]</text>
<polygon fill="none" stroke="black" points="407.35,-789.4 407.35,-820.2 682.8,-820.2 682.8,-789.4 407.35,-789.4"/>
<text text-anchor="start" x="414.35" y="-801.6" font-family="Arial" font-size="14.00">id </text>
<text text-anchor="start" x="429.13" y="-801.6" font-family="Arial" font-size="14.00" fill="#666666">[uuid]</text>
<polygon fill="none" stroke="black" points="407.35,-758.6 407.35,-789.4 682.8,-789.4 682.8,-758.6 407.35,-758.6"/>
<text text-anchor="start" x="414.35" y="-770.8" font-family="Arial" font-size="14.00">request_id </text>
<text text-anchor="start" x="483.62" y="-770.8" font-family="Arial" font-size="14.00" fill="#666666">[uuid]</text>
<polygon fill="none" stroke="black" points="407.35,-727.8 407.35,-758.6 682.8,-758.6 682.8,-727.8 407.35,-727.8"/>
<text text-anchor="start" x="414.35" y="-740" font-family="Arial" font-size="14.00">approver_id </text>
<text text-anchor="start" x="492.18" y="-740" font-family="Arial" font-size="14.00" fill="#666666">[uuid]</text>
<polygon fill="none" stroke="black" points="407.35,-697 407.35,-727.8 682.8,-727.8 682.8,-697 407.35,-697"/>
<text text-anchor="start" x="414.35" y="-709.2" font-family="Arial" font-size="14.00">status </text>
<text text-anchor="start" x="455.59" y="-709.2" font-family="Arial" font-size="14.00" fill="#666666">[varchar(50)]</text>
<polygon fill="none" stroke="black" points="407.35,-666.2 407.35,-697 682.8,-697 682.8,-666.2 407.35,-666.2"/>
<text text-anchor="start" x="414.35" y="-678.4" font-family="Arial" font-size="14.00">comment </text>
<text text-anchor="start" x="475.81" y="-678.4" font-family="Arial" font-size="14.00" fill="#666666">[text]</text>
<polygon fill="none" stroke="black" points="407.35,-635.4 407.35,-666.2 682.8,-666.2 682.8,-635.4 407.35,-635.4"/>
<text text-anchor="start" x="414.35" y="-647.6" font-family="Arial" font-size="14.00">created_at </text>
<text text-anchor="start" x="484.4" y="-647.6" font-family="Arial" font-size="14.00" fill="#666666">[timestamp without time zone]</text>
<polygon fill="none" stroke="black" points="407.35,-604.6 407.35,-635.4 682.8,-635.4 682.8,-604.6 407.35,-604.6"/>
<text text-anchor="start" x="414.35" y="-616.8" font-family="Arial" font-size="14.00">resolved_at </text>
<text text-anchor="start" x="490.62" y="-616.8" font-family="Arial" font-size="14.00" fill="#666666">[timestamp without time zone]</text>
<polygon fill="none" stroke="black" stroke-width="3" points="405.85,-603.1 405.85,-857.3 684.3,-857.3 684.3,-603.1 405.85,-603.1"/>
</g>
<!-- public.agent_requests -->
<g id="node2" class="node">
<title>public.agent_requests</title>
<polygon fill="#efefef" stroke="none" points="201.6,-366.6 201.6,-402.2 496.55,-402.2 496.55,-366.6 201.6,-366.6"/>
<polygon fill="none" stroke="black" points="201.6,-366.6 201.6,-402.2 496.55,-402.2 496.55,-366.6 201.6,-366.6"/>
<text text-anchor="start" x="208.6" y="-380" font-family="Arial Bold" font-size="18.00">public.agent_requests</text>
<text text-anchor="start" x="365.06" y="-380" font-family="Arial" font-size="14.00">    </text>
<text text-anchor="start" x="396.18" y="-380" font-family="Arial" font-size="14.00" fill="#666666">[BASE TABLE]</text>
<polygon fill="none" stroke="black" points="201.6,-335.8 201.6,-366.6 496.55,-366.6 496.55,-335.8 201.6,-335.8"/>
<text text-anchor="start" x="208.6" y="-348" font-family="Arial" font-size="14.00">id </text>
<text text-anchor="start" x="223.39" y="-348" font-family="Arial" font-size="14.00" fill="#666666">[uuid]</text>
<polygon fill="none" stroke="black" points="201.6,-305 201.6,-335.8 496.55,-335.8 496.55,-305 201.6,-305"/>
<text text-anchor="start" x="208.6" y="-317.2" font-family="Arial" font-size="14.00">employee_id </text>
<text text-anchor="start" x="291.88" y="-317.2" font-family="Arial" font-size="14.00" fill="#666666">[uuid]</text>
<polygon fill="none" stroke="black" points="201.6,-274.2 201.6,-305 496.55,-305 496.55,-274.2 201.6,-274.2"/>
<text text-anchor="start" x="208.6" y="-286.4" font-family="Arial" font-size="14.00">request_type </text>
<text text-anchor="start" x="293.44" y="-286.4" font-family="Arial" font-size="14.00" fill="#666666">[varchar(50)]</text>
<polygon fill="none" stroke="black" points="201.6,-243.4 201.6,-274.2 496.55,-274.2 496.55,-243.4 201.6,-243.4"/>
<text text-anchor="start" x="208.6" y="-255.6" font-family="Arial" font-size="14.00">request_data </text>
<text text-anchor="start" x="294.22" y="-255.6" font-family="Arial" font-size="14.00" fill="#666666">[jsonb]</text>
<polygon fill="none" stroke="black" points="201.6,-212.6 201.6,-243.4 496.55,-243.4 496.55,-212.6 201.6,-212.6"/>
<text text-anchor="start" x="208.6" y="-224.8" font-family="Arial" font-size="14.00">status </text>
<text text-anchor="start" x="249.85" y="-224.8" font-family="Arial" font-size="14.00" fill="#666666">[varchar(50)]</text>
<polygon fill="none" stroke="black" points="201.6,-181.8 201.6,-212.6 496.55,-212.6 496.55,-181.8 201.6,-181.8"/>
<text text-anchor="start" x="208.6" y="-194" font-family="Arial" font-size="14.00">reason </text>
<text text-anchor="start" x="255.3" y="-194" font-family="Arial" font-size="14.00" fill="#666666">[text]</text>
<polygon fill="none" stroke="black" points="201.6,-151 201.6,-181.8 496.55,-181.8 496.55,-151 201.6,-151"/>
<text text-anchor="start" x="208.6" y="-163.2" font-family="Arial" font-size="14.00">created_at </text>
<text text-anchor="start" x="278.65" y="-163.2" font-family="Arial" font-size="14.00" fill="#666666">[timestamp without time zone]</text>
<polygon fill="none" stroke="black" points="201.6,-120.2 201.6,-151 496.55,-151 496.55,-120.2 201.6,-120.2"/>
<text text-anchor="start" x="208.6" y="-132.4" font-family="Arial" font-size="14.00">resolved_at </text>
<text text-anchor="start" x="284.87" y="-132.4" font-family="Arial" font-size="14.00" fill="#666666">[timestamp without time zone]</text>
</g>
<!-- public.approvals&#45;&gt;public.agent_requests -->
<g id="edge1" class="edge">
<title>public.approvals:request_id&#45;&gt;public.agent_requests:id</title>
<path fill="none" stroke="black" d="M395.99,-773.83C145.65,-765.62 493.48,-454.08 496.55,-445.4 510.49,-405.92 539.42,-351.2 497.55,-351.2"/>
<polygon fill="black" stroke="black" points="396.02,-773.83 405.94,-778.49 401.35,-773.92 405.68,-773.99 405.68,-773.99 405.68,-773.99 401.35,-773.92 406.09,-769.5 396.02,-773.83"/>
<text text-anchor="start" x="7" y="-784" font-family="Arial" font-size="10.00">FOREIGN KEY (request_id) REFERENCES agent_requests(id) ON DELETE CASCADE</text>
</g>
<!-- public.employees -->
<g id="node3" class="node">
<title>public.employees</title>
<polygon fill="#efefef" stroke="none" points="601.23,-443.6 601.23,-479.2 882.92,-479.2 882.92,-443.6 601.23,-443.6"/>
<polygon fill="none" stroke="black" points="601.23,-443.6 601.23,-479.2 882.92,-479.2 882.92,-443.6 601.23,-443.6"/>
<text text-anchor="start" x="616.6" y="-457" font-family="Arial Bold" font-size="18.00">public.employees</text>
<text text-anchor="start" x="743.06" y="-457" font-family="Arial" font-size="14.00">    </text>
<text text-anchor="start" x="774.18" y="-457" font-family="Arial" font-size="14.00" fill="#666666">[BASE TABLE]</text>
<polygon fill="none" stroke="black" points="601.23,-412.8 601.23,-443.6 882.92,-443.6 882.92,-412.8 601.23,-412.8"/>
<text text-anchor="start" x="608.23" y="-425" font-family="Arial" font-size="14.00">id </text>
<text text-anchor="start" x="623.02" y="-425" font-family="Arial" font-size="14.00" fill="#666666">[uuid]</text>
<polygon fill="none" stroke="black" points="601.23,-382 601.23,-412.8 882.92,-412.8 882.92,-382 601.23,-382"/>
<text text-anchor="start" x="608.23" y="-394.2" font-family="Arial" font-size="14.00">org_id </text>
<text text-anchor="start" x="651.04" y="-394.2" font-family="Arial" font-size="14.00" fill="#666666">[uuid]</text>
<polygon fill="none" stroke="black" points="601.23,-351.2 601.23,-382 882.92,-382 882.92,-351.2 601.23,-351.2"/>
<text text-anchor="start" x="608.23" y="-363.4" font-family="Arial" font-size="14.00">team_id </text>
<text text-anchor="start" x="661.93" y="-363.4" font-family="Arial" font-size="14.00" fill="#666666">[uuid]</text>
<polygon fill="none" stroke="black" points="601.23,-320.4 601.23,-351.2 882.92,-351.2 882.92,-320.4 601.23,-320.4"/>
<text text-anchor="start" x="608.23" y="-332.6" font-family="Arial" font-size="14.00">role_id </text>
<text text-anchor="start" x="654.15" y="-332.6" font-family="Arial" font-size="14.00" fill="#666666">[uuid]</text>
<polygon fill="none" stroke="black" points="601.23,-289.6 601.23,-320.4 882.92,-320.4 882.92,-289.6 601.23,-289.6"/>
<text text-anchor="start" x="608.23" y="-301.8" font-family="Arial" font-size="14.00">email </text>
<text text-anchor="start" x="645.58" y="-301.8" font-family="Arial" font-size="14.00" fill="#666666">[varchar(255)]</text>
<polygon fill="none" stroke="black" points="601.23,-258.8 601.23,-289.6 882.92,-289.6 882.92,-258.8 601.23,-258.8"/>
<text text-anchor="start" x="608.23" y="-271" font-family="Arial" font-size="14.00">full_name </text>
<text text-anchor="start" x="672.82" y="-271" font-family="Arial" font-size="14.00" fill="#666666">[varchar(255)]</text>
<polygon fill="none" stroke="black" points="601.23,-228 601.23,-258.8 882.92,-258.8 882.92,-228 601.23,-228"/>
<text text-anchor="start" x="608.23" y="-240.2" font-family="Arial" font-size="14.00">password_hash </text>
<text text-anchor="start" x="710.18" y="-240.2" font-family="Arial" font-size="14.00" fill="#666666">[varchar(255)]</text>
<polygon fill="none" stroke="black" points="601.23,-197.2 601.23,-228 882.92,-228 882.92,-197.2 601.23,-197.2"/>
<text text-anchor="start" x="608.23" y="-209.4" font-family="Arial" font-size="14.00">status </text>
<text text-anchor="start" x="649.47" y="-209.4" font-family="Arial" font-size="14.00" fill="#666666">[varchar(50)]</text>
<polygon fill="none" stroke="black" points="601.23,-166.4 601.23,-197.2 882.92,-197.2 882.92,-166.4 601.23,-166.4"/>
<text text-anchor="start" x="608.23" y="-178.6" font-family="Arial" font-size="14.00">preferences </text>
<text text-anchor="start" x="686.05" y="-178.6" font-family="Arial" font-size="14.00" fill="#666666">[jsonb]</text>
<polygon fill="none" stroke="black" points="601.23,-135.6 601.23,-166.4 882.92,-166.4 882.92,-135.6 601.23,-135.6"/>
<text text-anchor="start" x="608.23" y="-147.8" font-family="Arial" font-size="14.00">last_login_at </text>
<text text-anchor="start" x="690.73" y="-147.8" font-family="Arial" font-size="14.00" fill="#666666">[timestamp without time zone]</text>
<polygon fill="none" stroke="black" points="601.23,-104.8 601.23,-135.6 882.92,-135.6 882.92,-104.8 601.23,-104.8"/>
<text text-anchor="start" x="608.23" y="-117" font-family="Arial" font-size="14.00">created_at </text>
<text text-anchor="start" x="678.28" y="-117" font-family="Arial" font-size="14.00" fill="#666666">[timestamp without time zone]</text>
<polygon fill="none" stroke="black" points="601.23,-74 601.23,-104.8 882.92,-104.8 882.92,-74 601.23,-74"/>
<text text-anchor="start" x="608.23" y="-86.2" font-family="Arial" font-size="14.00">updated_at </text>
<text text-anchor="start" x="682.19" y="-86.2" font-family="Arial" font-size="14.00" fill="#666666">[timestamp without time zone]</text>
<polygon fill="none" stroke="black" points="601.23,-43.2 601.23,-74 882.92,-74 882.92,-43.2 601.23,-43.2"/>
<text text-anchor="start" x="608.23" y="-55.4" font-family="Arial" font-size="14.00">deleted_at </text>
<text text-anchor="start" x="677.51" y="-55.4" font-family="Arial" font-size="14.00" fill="#666666">[timestamp without time zone]</text>
</g>
<!-- public.approvals&#45;&gt;public.employees -->
<g id="edge2" class="edge">
<title>public.approvals:approver_id&#45;&gt;public.employees:id</title>
<path fill="none" stroke="black" d="M694.15,-742.51C762.5,-732.86 725.81,-624 682.8,-558.4 661.08,-525.26 623.04,-555.48 601.23,-522.4 578.18,-487.44 558.36,-428.2 600.23,-428.2"/>
<polygon fill="black" stroke="black" points="694.11,-742.51 683.84,-738.69 688.79,-742.87 684.47,-743.16 684.47,-743.16 684.47,-743.16 688.79,-742.87 684.43,-747.67 694.11,-742.51"/>
<text text-anchor="start" x="690.8" y="-753.2" font-family="Arial" font-size="10.00">FOREIGN KEY (approver_id) REFERENCES employees(id) ON DELETE CASCADE</text>
</g>
</g>
</svg>
