<?xml version="1.0" encoding="UTF-8" standalone="no"?>
<!DOCTYPE svg PUBLIC "-//W3C//DTD SVG 1.1//EN"
 "http://www.w3.org/Graphics/SVG/1.1/DTD/svg11.dtd">
<!-- Generated by graphviz version 12.1.2 (20240928.0832)
 -->
<!-- Title: public.policies Pages: 1 -->
<svg width="836pt" height="664pt"
 viewBox="0.00 0.00 835.99 663.60" xmlns="http://www.w3.org/2000/svg" xmlns:xlink="http://www.w3.org/1999/xlink">
<g id="graph0" class="graph" transform="scale(1 1) rotate(0) translate(4 659.6)">
<title>public.policies</title>
<polygon fill="white" stroke="none" points="-4,4 -4,-659.6 831.99,-659.6 831.99,4 -4,4"/>
<!-- public.policies -->
<g id="node1" class="node">
<title>public.policies</title>
<polygon fill="#efefef" stroke="none" points="276.42,-261.8 276.42,-297.4 549.57,-297.4 549.57,-261.8 276.42,-261.8"/>
<polygon fill="none" stroke="black" points="276.42,-261.8 276.42,-297.4 549.57,-297.4 549.57,-261.8 276.42,-261.8"/>
<text text-anchor="start" x="298.01" y="-275.2" font-family="Arial Bold" font-size="18.00">public.policies</text>
<text text-anchor="start" x="403.49" y="-275.2" font-family="Arial" font-size="14.00">    </text>
<text text-anchor="start" x="434.61" y="-275.2" font-family="Arial" font-size="14.00" fill="#666666">[BASE TABLE]</text>
<polygon fill="none" stroke="black" points="276.42,-231 276.42,-261.8 549.57,-261.8 549.57,-231 276.42,-231"/>
<text text-anchor="start" x="283.42" y="-243.2" font-family="Arial" font-size="14.00">id </text>
<text text-anchor="start" x="298.21" y="-243.2" font-family="Arial" font-size="14.00" fill="#666666">[uuid]</text>
<polygon fill="none" stroke="black" points="276.42,-200.2 276.42,-231 549.57,-231 549.57,-200.2 276.42,-200.2"/>
<text text-anchor="start" x="283.42" y="-212.4" font-family="Arial" font-size="14.00">name </text>
<text text-anchor="start" x="322.33" y="-212.4" font-family="Arial" font-size="14.00" fill="#666666">[varchar(100)]</text>
<polygon fill="none" stroke="black" points="276.42,-169.4 276.42,-200.2 549.57,-200.2 549.57,-169.4 276.42,-169.4"/>
<text text-anchor="start" x="283.42" y="-181.6" font-family="Arial" font-size="14.00">type </text>
<text text-anchor="start" x="313.78" y="-181.6" font-family="Arial" font-size="14.00" fill="#666666">[varchar(50)]</text>
<polygon fill="none" stroke="black" points="276.42,-138.6 276.42,-169.4 549.57,-169.4 549.57,-138.6 276.42,-138.6"/>
<text text-anchor="start" x="283.42" y="-150.8" font-family="Arial" font-size="14.00">rules </text>
<text text-anchor="start" x="317.66" y="-150.8" font-family="Arial" font-size="14.00" fill="#666666">[jsonb]</text>
<polygon fill="none" stroke="black" points="276.42,-107.8 276.42,-138.6 549.57,-138.6 549.57,-107.8 276.42,-107.8"/>
<text text-anchor="start" x="283.42" y="-120" font-family="Arial" font-size="14.00">severity </text>
<text text-anchor="start" x="335.55" y="-120" font-family="Arial" font-size="14.00" fill="#666666">[varchar(20)]</text>
<polygon fill="none" stroke="black" points="276.42,-77 276.42,-107.8 549.57,-107.8 549.57,-77 276.42,-77"/>
<text text-anchor="start" x="283.42" y="-89.2" font-family="Arial" font-size="14.00">created_at </text>
<text text-anchor="start" x="353.47" y="-89.2" font-family="Arial" font-size="14.00" fill="#666666">[timestamp without time zone]</text>
<polygon fill="none" stroke="black" points="276.42,-46.2 276.42,-77 549.57,-77 549.57,-46.2 276.42,-46.2"/>
<text text-anchor="start" x="283.42" y="-58.4" font-family="Arial" font-size="14.00">updated_at </text>
<text text-anchor="start" x="357.38" y="-58.4" font-family="Arial" font-size="14.00" fill="#666666">[timestamp without time zone]</text>
<polygon fill="none" stroke="black" stroke-width="3" points="274.92,-44.7 274.92,-298.9 551.07,-298.9 551.07,-44.7 274.92,-44.7"/>
</g>
<!-- public.agent_policies -->
<g id="node2" class="node">
<title>public.agent_policies</title>
<polygon fill="#efefef" stroke="none" points="70.02,-546 70.02,-581.6 361.97,-581.6 361.97,-546 70.02,-546"/>
<polygon fill="none" stroke="black" points="70.02,-546 70.02,-581.6 361.97,-581.6 361.97,-546 70.02,-546"/>
<text text-anchor="start" x="77.02" y="-559.4" font-family="Arial Bold" font-size="18.00">public.agent_policies</text>
<text text-anchor="start" x="230.48" y="-559.4" font-family="Arial" font-size="14.00">    </text>
<text text-anchor="start" x="261.6" y="-559.4" font-family="Arial" font-size="14.00" fill="#666666">[BASE TABLE]</text>
<polygon fill="none" stroke="black" points="70.02,-515.2 70.02,-546 361.97,-546 361.97,-515.2 70.02,-515.2"/>
<text text-anchor="start" x="77.02" y="-527.4" font-family="Arial" font-size="14.00">agent_id </text>
<text text-anchor="start" x="134.63" y="-527.4" font-family="Arial" font-size="14.00" fill="#666666">[uuid]</text>
<polygon fill="none" stroke="black" points="70.02,-484.4 70.02,-515.2 361.97,-515.2 361.97,-484.4 70.02,-484.4"/>
<text text-anchor="start" x="77.02" y="-496.6" font-family="Arial" font-size="14.00">policy_id </text>
<text text-anchor="start" x="135.39" y="-496.6" font-family="Arial" font-size="14.00" fill="#666666">[uuid]</text>
<polygon fill="none" stroke="black" points="70.02,-453.6 70.02,-484.4 361.97,-484.4 361.97,-453.6 70.02,-453.6"/>
<text text-anchor="start" x="77.02" y="-465.8" font-family="Arial" font-size="14.00">created_at </text>
<text text-anchor="start" x="147.07" y="-465.8" font-family="Arial" font-size="14.00" fill="#666666">[timestamp without time zone]</text>
</g>
<!-- public.agent_policies&#45;&gt;public.policies -->
<g id="edge1" class="edge">
<title>public.agent_policies:policy_id&#45;&gt;public.policies:id</title>
<path fill="none" stroke="black" d="M373.2,-498.21C398.07,-489.06 377.8,-442.4 361.97,-410.4 340.58,-367.17 297.8,-386.84 276.42,-343.6 257.28,-304.87 232.22,-246.4 275.42,-246.4"/>
<polygon fill="black" stroke="black" points="373.18,-498.21 362.61,-495.3 367.91,-499.03 363.63,-499.7 363.63,-499.7 363.63,-499.7 367.91,-499.03 363.99,-504.2 373.18,-498.21"/>
<text text-anchor="start" x="7" y="-509.8" font-family="Arial" font-size="10.00">FOREIGN KEY (policy_id) REFERENCES policies(id) ON DELETE CASCADE</text>
</g>
<!-- public.team_policies -->
<g id="node3" class="node">
<title>public.team_policies</title>
<polygon fill="#efefef" stroke="none" points="466.02,-576.8 466.02,-612.4 753.97,-612.4 753.97,-576.8 466.02,-576.8"/>
<polygon fill="none" stroke="black" points="466.02,-576.8 466.02,-612.4 753.97,-612.4 753.97,-576.8 466.02,-576.8"/>
<text text-anchor="start" x="473.02" y="-590.2" font-family="Arial Bold" font-size="18.00">public.team_policies</text>
<text text-anchor="start" x="622.48" y="-590.2" font-family="Arial" font-size="14.00">    </text>
<text text-anchor="start" x="653.6" y="-590.2" font-family="Arial" font-size="14.00" fill="#666666">[BASE TABLE]</text>
<polygon fill="none" stroke="black" points="466.02,-546 466.02,-576.8 753.97,-576.8 753.97,-546 466.02,-546"/>
<text text-anchor="start" x="473.02" y="-558.2" font-family="Arial" font-size="14.00">id </text>
<text text-anchor="start" x="487.81" y="-558.2" font-family="Arial" font-size="14.00" fill="#666666">[uuid]</text>
<polygon fill="none" stroke="black" points="466.02,-515.2 466.02,-546 753.97,-546 753.97,-515.2 466.02,-515.2"/>
<text text-anchor="start" x="473.02" y="-527.4" font-family="Arial" font-size="14.00">team_id </text>
<text text-anchor="start" x="526.72" y="-527.4" font-family="Arial" font-size="14.00" fill="#666666">[uuid]</text>
<polygon fill="none" stroke="black" points="466.02,-484.4 466.02,-515.2 753.97,-515.2 753.97,-484.4 466.02,-484.4"/>
<text text-anchor="start" x="473.02" y="-496.6" font-family="Arial" font-size="14.00">policy_id </text>
<text text-anchor="start" x="531.39" y="-496.6" font-family="Arial" font-size="14.00" fill="#666666">[uuid]</text>
<polygon fill="none" stroke="black" points="466.02,-453.6 466.02,-484.4 753.97,-484.4 753.97,-453.6 466.02,-453.6"/>
<text text-anchor="start" x="473.02" y="-465.8" font-family="Arial" font-size="14.00">overrides </text>
<text text-anchor="start" x="534.49" y="-465.8" font-family="Arial" font-size="14.00" fill="#666666">[jsonb]</text>
<polygon fill="none" stroke="black" points="466.02,-422.8 466.02,-453.6 753.97,-453.6 753.97,-422.8 466.02,-422.8"/>
<text text-anchor="start" x="473.02" y="-435" font-family="Arial" font-size="14.00">created_at </text>
<text text-anchor="start" x="543.07" y="-435" font-family="Arial" font-size="14.00" fill="#666666">[timestamp without time zone]</text>
</g>
<!-- public.team_policies&#45;&gt;public.policies -->
<g id="edge2" class="edge">
<title>public.team_policies:policy_id&#45;&gt;public.policies:id</title>
<path fill="none" stroke="black" d="M454.89,-498.71C415.12,-489.31 438.55,-420.98 466.02,-379.6 488.39,-345.92 527.17,-377.26 549.57,-343.6 573.5,-307.63 593.77,-246.4 550.57,-246.4"/>
<polygon fill="black" stroke="black" points="454.75,-498.7 464.21,-504.24 460.05,-499.27 464.36,-499.73 464.36,-499.73 464.36,-499.73 460.05,-499.27 465.17,-495.29 454.75,-498.7"/>
<text text-anchor="start" x="472.02" y="-509.8" font-family="Arial" font-size="10.00">FOREIGN KEY (policy_id) REFERENCES policies(id) ON DELETE CASCADE</text>
</g>
</g>
</svg>
