<?xml version="1.0" encoding="UTF-8" standalone="no"?>
<!DOCTYPE svg PUBLIC "-//W3C//DTD SVG 1.1//EN"
 "http://www.w3.org/Graphics/SVG/1.1/DTD/svg11.dtd">
<!-- Generated by graphviz version 12.1.2 (20240928.0832)
 -->
<!-- Title: public.organizations Pages: 1 -->
<svg width="2428pt" height="1033pt"
 viewBox="0.00 0.00 2428.02 1033.20" xmlns="http://www.w3.org/2000/svg" xmlns:xlink="http://www.w3.org/1999/xlink">
<g id="graph0" class="graph" transform="scale(1 1) rotate(0) translate(4 1029.2)">
<title>public.organizations</title>
<polygon fill="white" stroke="none" points="-4,4 -4,-1029.2 2424.02,-1029.2 2424.02,4 -4,4"/>
<!-- public.organizations -->
<g id="node1" class="node">
<title>public.organizations</title>
<polygon fill="#efefef" stroke="none" points="1047.02,-354.2 1047.02,-389.8 1331.97,-389.8 1331.97,-354.2 1047.02,-354.2"/>
<polygon fill="none" stroke="black" points="1047.02,-354.2 1047.02,-389.8 1331.97,-389.8 1331.97,-354.2 1047.02,-354.2"/>
<text text-anchor="start" x="1054.02" y="-367.6" font-family="Arial Bold" font-size="18.00">public.organizations</text>
<text text-anchor="start" x="1200.48" y="-367.6" font-family="Arial" font-size="14.00">    </text>
<text text-anchor="start" x="1231.6" y="-367.6" font-family="Arial" font-size="14.00" fill="#666666">[BASE TABLE]</text>
<polygon fill="none" stroke="black" points="1047.02,-323.4 1047.02,-354.2 1331.97,-354.2 1331.97,-323.4 1047.02,-323.4"/>
<text text-anchor="start" x="1054.02" y="-335.6" font-family="Arial" font-size="14.00">id </text>
<text text-anchor="start" x="1068.81" y="-335.6" font-family="Arial" font-size="14.00" fill="#666666">[uuid]</text>
<polygon fill="none" stroke="black" points="1047.02,-292.6 1047.02,-323.4 1331.97,-323.4 1331.97,-292.6 1047.02,-292.6"/>
<text text-anchor="start" x="1054.02" y="-304.8" font-family="Arial" font-size="14.00">name </text>
<text text-anchor="start" x="1092.93" y="-304.8" font-family="Arial" font-size="14.00" fill="#666666">[varchar(255)]</text>
<polygon fill="none" stroke="black" points="1047.02,-261.8 1047.02,-292.6 1331.97,-292.6 1331.97,-261.8 1047.02,-261.8"/>
<text text-anchor="start" x="1054.02" y="-274" font-family="Arial" font-size="14.00">slug </text>
<text text-anchor="start" x="1083.59" y="-274" font-family="Arial" font-size="14.00" fill="#666666">[varchar(100)]</text>
<polygon fill="none" stroke="black" points="1047.02,-231 1047.02,-261.8 1331.97,-261.8 1331.97,-231 1047.02,-231"/>
<text text-anchor="start" x="1054.02" y="-243.2" font-family="Arial" font-size="14.00">plan </text>
<text text-anchor="start" x="1084.38" y="-243.2" font-family="Arial" font-size="14.00" fill="#666666">[varchar(50)]</text>
<polygon fill="none" stroke="black" points="1047.02,-200.2 1047.02,-231 1331.97,-231 1331.97,-200.2 1047.02,-200.2"/>
<text text-anchor="start" x="1054.02" y="-212.4" font-family="Arial" font-size="14.00">settings </text>
<text text-anchor="start" x="1106.16" y="-212.4" font-family="Arial" font-size="14.00" fill="#666666">[jsonb]</text>
<polygon fill="none" stroke="black" points="1047.02,-169.4 1047.02,-200.2 1331.97,-200.2 1331.97,-169.4 1047.02,-169.4"/>
<text text-anchor="start" x="1054.02" y="-181.6" font-family="Arial" font-size="14.00">max_employees </text>
<text text-anchor="start" x="1159.85" y="-181.6" font-family="Arial" font-size="14.00" fill="#666666">[integer]</text>
<polygon fill="none" stroke="black" points="1047.02,-138.6 1047.02,-169.4 1331.97,-169.4 1331.97,-138.6 1047.02,-138.6"/>
<text text-anchor="start" x="1054.02" y="-150.8" font-family="Arial" font-size="14.00">max_agents_per_employee </text>
<text text-anchor="start" x="1230.69" y="-150.8" font-family="Arial" font-size="14.00" fill="#666666">[integer]</text>
<polygon fill="none" stroke="black" points="1047.02,-107.8 1047.02,-138.6 1331.97,-138.6 1331.97,-107.8 1047.02,-107.8"/>
<text text-anchor="start" x="1054.02" y="-120" font-family="Arial" font-size="14.00">claude_api_token </text>
<text text-anchor="start" x="1167.67" y="-120" font-family="Arial" font-size="14.00" fill="#666666">[text]</text>
<polygon fill="none" stroke="black" points="1047.02,-77 1047.02,-107.8 1331.97,-107.8 1331.97,-77 1047.02,-77"/>
<text text-anchor="start" x="1054.02" y="-89.2" font-family="Arial" font-size="14.00">created_at </text>
<text text-anchor="start" x="1124.07" y="-89.2" font-family="Arial" font-size="14.00" fill="#666666">[timestamp without time zone]</text>
<polygon fill="none" stroke="black" points="1047.02,-46.2 1047.02,-77 1331.97,-77 1331.97,-46.2 1047.02,-46.2"/>
<text text-anchor="start" x="1054.02" y="-58.4" font-family="Arial" font-size="14.00">updated_at </text>
<text text-anchor="start" x="1127.98" y="-58.4" font-family="Arial" font-size="14.00" fill="#666666">[timestamp without time zone]</text>
<polygon fill="none" stroke="black" stroke-width="3" points="1045.52,-44.7 1045.52,-391.3 1333.47,-391.3 1333.47,-44.7 1045.52,-44.7"/>
</g>
<!-- public.subscriptions -->
<g id="node2" class="node">
<title>public.subscriptions</title>
<polygon fill="#efefef" stroke="none" points="43.2,-884.8 43.2,-920.4 363.79,-920.4 363.79,-884.8 43.2,-884.8"/>
<polygon fill="none" stroke="black" points="43.2,-884.8 43.2,-920.4 363.79,-920.4 363.79,-884.8 43.2,-884.8"/>
<text text-anchor="start" x="69.01" y="-898.2" font-family="Arial Bold" font-size="18.00">public.subscriptions</text>
<text text-anchor="start" x="213.5" y="-898.2" font-family="Arial" font-size="14.00">    </text>
<text text-anchor="start" x="244.61" y="-898.2" font-family="Arial" font-size="14.00" fill="#666666">[BASE TABLE]</text>
<polygon fill="none" stroke="black" points="43.2,-854 43.2,-884.8 363.79,-884.8 363.79,-854 43.2,-854"/>
<text text-anchor="start" x="50.2" y="-866.2" font-family="Arial" font-size="14.00">id </text>
<text text-anchor="start" x="64.99" y="-866.2" font-family="Arial" font-size="14.00" fill="#666666">[uuid]</text>
<polygon fill="none" stroke="black" points="43.2,-823.2 43.2,-854 363.79,-854 363.79,-823.2 43.2,-823.2"/>
<text text-anchor="start" x="50.2" y="-835.4" font-family="Arial" font-size="14.00">org_id </text>
<text text-anchor="start" x="93.01" y="-835.4" font-family="Arial" font-size="14.00" fill="#666666">[uuid]</text>
<polygon fill="none" stroke="black" points="43.2,-792.4 43.2,-823.2 363.79,-823.2 363.79,-792.4 43.2,-792.4"/>
<text text-anchor="start" x="50.2" y="-804.6" font-family="Arial" font-size="14.00">plan_type </text>
<text text-anchor="start" x="114.81" y="-804.6" font-family="Arial" font-size="14.00" fill="#666666">[varchar(50)]</text>
<polygon fill="none" stroke="black" points="43.2,-761.6 43.2,-792.4 363.79,-792.4 363.79,-761.6 43.2,-761.6"/>
<text text-anchor="start" x="50.2" y="-773.8" font-family="Arial" font-size="14.00">monthly_budget_usd </text>
<text text-anchor="start" x="184.08" y="-773.8" font-family="Arial" font-size="14.00" fill="#666666">[numeric(10,2)]</text>
<polygon fill="none" stroke="black" points="43.2,-730.8 43.2,-761.6 363.79,-761.6 363.79,-730.8 43.2,-730.8"/>
<text text-anchor="start" x="50.2" y="-743" font-family="Arial" font-size="14.00">current_spending_usd </text>
<text text-anchor="start" x="192.63" y="-743" font-family="Arial" font-size="14.00" fill="#666666">[numeric(10,2)]</text>
<polygon fill="none" stroke="black" points="43.2,-700 43.2,-730.8 363.79,-730.8 363.79,-700 43.2,-700"/>
<text text-anchor="start" x="50.2" y="-712.2" font-family="Arial" font-size="14.00">billing_period_start </text>
<text text-anchor="start" x="171.61" y="-712.2" font-family="Arial" font-size="14.00" fill="#666666">[timestamp without time zone]</text>
<polygon fill="none" stroke="black" points="43.2,-669.2 43.2,-700 363.79,-700 363.79,-669.2 43.2,-669.2"/>
<text text-anchor="start" x="50.2" y="-681.4" font-family="Arial" font-size="14.00">billing_period_end </text>
<text text-anchor="start" x="167.74" y="-681.4" font-family="Arial" font-size="14.00" fill="#666666">[timestamp without time zone]</text>
<polygon fill="none" stroke="black" points="43.2,-638.4 43.2,-669.2 363.79,-669.2 363.79,-638.4 43.2,-638.4"/>
<text text-anchor="start" x="50.2" y="-650.6" font-family="Arial" font-size="14.00">status </text>
<text text-anchor="start" x="91.44" y="-650.6" font-family="Arial" font-size="14.00" fill="#666666">[varchar(50)]</text>
<polygon fill="none" stroke="black" points="43.2,-607.6 43.2,-638.4 363.79,-638.4 363.79,-607.6 43.2,-607.6"/>
<text text-anchor="start" x="50.2" y="-619.8" font-family="Arial" font-size="14.00">created_at </text>
<text text-anchor="start" x="120.25" y="-619.8" font-family="Arial" font-size="14.00" fill="#666666">[timestamp without time zone]</text>
<polygon fill="none" stroke="black" points="43.2,-576.8 43.2,-607.6 363.79,-607.6 363.79,-576.8 43.2,-576.8"/>
<text text-anchor="start" x="50.2" y="-589" font-family="Arial" font-size="14.00">updated_at </text>
<text text-anchor="start" x="124.16" y="-589" font-family="Arial" font-size="14.00" fill="#666666">[timestamp without time zone]</text>
</g>
<!-- public.subscriptions&#45;&gt;public.organizations -->
<g id="edge1" class="edge">
<title>public.subscriptions:org_id&#45;&gt;public.organizations:id</title>
<path fill="none" stroke="black" d="M374.88,-836.8C439.45,-811.57 361.95,-529.47 415.5,-472 513.11,-367.22 902.81,-338.8 1046.02,-338.8"/>
<polygon fill="black" stroke="black" points="374.96,-836.78 364.33,-834.11 369.71,-837.72 365.45,-838.48 365.45,-838.48 365.45,-838.48 369.71,-837.72 365.91,-842.97 374.96,-836.78"/>
<text text-anchor="start" x="182.8" y="-822.6" font-family="Arial" font-size="10.00">FOREIGN KEY (org_id) REFERENCES organizations(id) ON DELETE CASCADE</text>
</g>
<!-- public.teams -->
<g id="node3" class="node">
<title>public.teams</title>
<polygon fill="#efefef" stroke="none" points="467.92,-823.2 467.92,-858.8 741.07,-858.8 741.07,-823.2 467.92,-823.2"/>
<polygon fill="none" stroke="black" points="467.92,-823.2 467.92,-858.8 741.07,-858.8 741.07,-823.2 467.92,-823.2"/>
<text text-anchor="start" x="496.51" y="-836.6" font-family="Arial Bold" font-size="18.00">public.teams</text>
<text text-anchor="start" x="587.99" y="-836.6" font-family="Arial" font-size="14.00">    </text>
<text text-anchor="start" x="619.11" y="-836.6" font-family="Arial" font-size="14.00" fill="#666666">[BASE TABLE]</text>
<polygon fill="none" stroke="black" points="467.92,-792.4 467.92,-823.2 741.07,-823.2 741.07,-792.4 467.92,-792.4"/>
<text text-anchor="start" x="474.92" y="-804.6" font-family="Arial" font-size="14.00">id </text>
<text text-anchor="start" x="489.71" y="-804.6" font-family="Arial" font-size="14.00" fill="#666666">[uuid]</text>
<polygon fill="none" stroke="black" points="467.92,-761.6 467.92,-792.4 741.07,-792.4 741.07,-761.6 467.92,-761.6"/>
<text text-anchor="start" x="474.92" y="-773.8" font-family="Arial" font-size="14.00">org_id </text>
<text text-anchor="start" x="517.73" y="-773.8" font-family="Arial" font-size="14.00" fill="#666666">[uuid]</text>
<polygon fill="none" stroke="black" points="467.92,-730.8 467.92,-761.6 741.07,-761.6 741.07,-730.8 467.92,-730.8"/>
<text text-anchor="start" x="474.92" y="-743" font-family="Arial" font-size="14.00">name </text>
<text text-anchor="start" x="513.83" y="-743" font-family="Arial" font-size="14.00" fill="#666666">[varchar(255)]</text>
<polygon fill="none" stroke="black" points="467.92,-700 467.92,-730.8 741.07,-730.8 741.07,-700 467.92,-700"/>
<text text-anchor="start" x="474.92" y="-712.2" font-family="Arial" font-size="14.00">description </text>
<text text-anchor="start" x="546.52" y="-712.2" font-family="Arial" font-size="14.00" fill="#666666">[text]</text>
<polygon fill="none" stroke="black" points="467.92,-669.2 467.92,-700 741.07,-700 741.07,-669.2 467.92,-669.2"/>
<text text-anchor="start" x="474.92" y="-681.4" font-family="Arial" font-size="14.00">created_at </text>
<text text-anchor="start" x="544.97" y="-681.4" font-family="Arial" font-size="14.00" fill="#666666">[timestamp without time zone]</text>
<polygon fill="none" stroke="black" points="467.92,-638.4 467.92,-669.2 741.07,-669.2 741.07,-638.4 467.92,-638.4"/>
<text text-anchor="start" x="474.92" y="-650.6" font-family="Arial" font-size="14.00">updated_at </text>
<text text-anchor="start" x="548.88" y="-650.6" font-family="Arial" font-size="14.00" fill="#666666">[timestamp without time zone]</text>
</g>
<!-- public.teams&#45;&gt;public.organizations -->
<g id="edge2" class="edge">
<title>public.teams:org_id&#45;&gt;public.organizations:id</title>
<path fill="none" stroke="black" d="M752.25,-774.84C804.8,-750.31 755.41,-524.65 793.5,-472 867.87,-369.19 919.13,-338.8 1046.02,-338.8"/>
<polygon fill="black" stroke="black" points="752.18,-774.85 741.46,-772.53 746.96,-775.96 742.72,-776.86 742.72,-776.86 742.72,-776.86 746.96,-775.96 743.33,-781.33 752.18,-774.85"/>
<text text-anchor="start" x="749.07" y="-787" font-family="Arial" font-size="10.00">FOREIGN KEY (org_id) REFERENCES organizations(id) ON DELETE CASCADE</text>
</g>
<!-- public.employees -->
<g id="node4" class="node">
<title>public.employees</title>
<polygon fill="#efefef" stroke="none" points="845.65,-946.4 845.65,-982 1127.34,-982 1127.34,-946.4 845.65,-946.4"/>
<polygon fill="none" stroke="black" points="845.65,-946.4 845.65,-982 1127.34,-982 1127.34,-946.4 845.65,-946.4"/>
<text text-anchor="start" x="861.02" y="-959.8" font-family="Arial Bold" font-size="18.00">public.employees</text>
<text text-anchor="start" x="987.48" y="-959.8" font-family="Arial" font-size="14.00">    </text>
<text text-anchor="start" x="1018.6" y="-959.8" font-family="Arial" font-size="14.00" fill="#666666">[BASE TABLE]</text>
<polygon fill="none" stroke="black" points="845.65,-915.6 845.65,-946.4 1127.34,-946.4 1127.34,-915.6 845.65,-915.6"/>
<text text-anchor="start" x="852.65" y="-927.8" font-family="Arial" font-size="14.00">id </text>
<text text-anchor="start" x="867.44" y="-927.8" font-family="Arial" font-size="14.00" fill="#666666">[uuid]</text>
<polygon fill="none" stroke="black" points="845.65,-884.8 845.65,-915.6 1127.34,-915.6 1127.34,-884.8 845.65,-884.8"/>
<text text-anchor="start" x="852.65" y="-897" font-family="Arial" font-size="14.00">org_id </text>
<text text-anchor="start" x="895.46" y="-897" font-family="Arial" font-size="14.00" fill="#666666">[uuid]</text>
<polygon fill="none" stroke="black" points="845.65,-854 845.65,-884.8 1127.34,-884.8 1127.34,-854 845.65,-854"/>
<text text-anchor="start" x="852.65" y="-866.2" font-family="Arial" font-size="14.00">team_id </text>
<text text-anchor="start" x="906.35" y="-866.2" font-family="Arial" font-size="14.00" fill="#666666">[uuid]</text>
<polygon fill="none" stroke="black" points="845.65,-823.2 845.65,-854 1127.34,-854 1127.34,-823.2 845.65,-823.2"/>
<text text-anchor="start" x="852.65" y="-835.4" font-family="Arial" font-size="14.00">role_id </text>
<text text-anchor="start" x="898.57" y="-835.4" font-family="Arial" font-size="14.00" fill="#666666">[uuid]</text>
<polygon fill="none" stroke="black" points="845.65,-792.4 845.65,-823.2 1127.34,-823.2 1127.34,-792.4 845.65,-792.4"/>
<text text-anchor="start" x="852.65" y="-804.6" font-family="Arial" font-size="14.00">email </text>
<text text-anchor="start" x="890" y="-804.6" font-family="Arial" font-size="14.00" fill="#666666">[varchar(255)]</text>
<polygon fill="none" stroke="black" points="845.65,-761.6 845.65,-792.4 1127.34,-792.4 1127.34,-761.6 845.65,-761.6"/>
<text text-anchor="start" x="852.65" y="-773.8" font-family="Arial" font-size="14.00">full_name </text>
<text text-anchor="start" x="917.24" y="-773.8" font-family="Arial" font-size="14.00" fill="#666666">[varchar(255)]</text>
<polygon fill="none" stroke="black" points="845.65,-730.8 845.65,-761.6 1127.34,-761.6 1127.34,-730.8 845.65,-730.8"/>
<text text-anchor="start" x="852.65" y="-743" font-family="Arial" font-size="14.00">password_hash </text>
<text text-anchor="start" x="954.6" y="-743" font-family="Arial" font-size="14.00" fill="#666666">[varchar(255)]</text>
<polygon fill="none" stroke="black" points="845.65,-700 845.65,-730.8 1127.34,-730.8 1127.34,-700 845.65,-700"/>
<text text-anchor="start" x="852.65" y="-712.2" font-family="Arial" font-size="14.00">status </text>
<text text-anchor="start" x="893.89" y="-712.2" font-family="Arial" font-size="14.00" fill="#666666">[varchar(50)]</text>
<polygon fill="none" stroke="black" points="845.65,-669.2 845.65,-700 1127.34,-700 1127.34,-669.2 845.65,-669.2"/>
<text text-anchor="start" x="852.65" y="-681.4" font-family="Arial" font-size="14.00">preferences </text>
<text text-anchor="start" x="930.47" y="-681.4" font-family="Arial" font-size="14.00" fill="#666666">[jsonb]</text>
<polygon fill="none" stroke="black" points="845.65,-638.4 845.65,-669.2 1127.34,-669.2 1127.34,-638.4 845.65,-638.4"/>
<text text-anchor="start" x="852.65" y="-650.6" font-family="Arial" font-size="14.00">personal_claude_token </text>
<text text-anchor="start" x="1001.32" y="-650.6" font-family="Arial" font-size="14.00" fill="#666666">[text]</text>
<polygon fill="none" stroke="black" points="845.65,-607.6 845.65,-638.4 1127.34,-638.4 1127.34,-607.6 845.65,-607.6"/>
<text text-anchor="start" x="852.65" y="-619.8" font-family="Arial" font-size="14.00">last_login_at </text>
<text text-anchor="start" x="935.15" y="-619.8" font-family="Arial" font-size="14.00" fill="#666666">[timestamp without time zone]</text>
<polygon fill="none" stroke="black" points="845.65,-576.8 845.65,-607.6 1127.34,-607.6 1127.34,-576.8 845.65,-576.8"/>
<text text-anchor="start" x="852.65" y="-589" font-family="Arial" font-size="14.00">created_at </text>
<text text-anchor="start" x="922.7" y="-589" font-family="Arial" font-size="14.00" fill="#666666">[timestamp without time zone]</text>
<polygon fill="none" stroke="black" points="845.65,-546 845.65,-576.8 1127.34,-576.8 1127.34,-546 845.65,-546"/>
<text text-anchor="start" x="852.65" y="-558.2" font-family="Arial" font-size="14.00">updated_at </text>
<text text-anchor="start" x="926.61" y="-558.2" font-family="Arial" font-size="14.00" fill="#666666">[timestamp without time zone]</text>
<polygon fill="none" stroke="black" points="845.65,-515.2 845.65,-546 1127.34,-546 1127.34,-515.2 845.65,-515.2"/>
<text text-anchor="start" x="852.65" y="-527.4" font-family="Arial" font-size="14.00">deleted_at </text>
<text text-anchor="start" x="921.93" y="-527.4" font-family="Arial" font-size="14.00" fill="#666666">[timestamp without time zone]</text>
</g>
<!-- public.employees&#45;&gt;public.organizations -->
<g id="edge3" class="edge">
<title>public.employees:org_id&#45;&gt;public.organizations:id</title>
<path fill="none" stroke="black" d="M1137.13,-894.99C1172.8,-848.74 1151.48,-509.18 1127.34,-472 1106.04,-439.19 1068.45,-468.72 1047.02,-436 1023.35,-399.86 1002.82,-338.8 1046.02,-338.8"/>
<polygon fill="black" stroke="black" points="1137.23,-894.93 1126.33,-896.16 1132.64,-897.65 1128.92,-899.86 1128.92,-899.86 1128.92,-899.86 1132.64,-897.65 1130.92,-903.9 1137.23,-894.93"/>
<text text-anchor="start" x="1135.34" y="-910.2" font-family="Arial" font-size="10.00">FOREIGN KEY (org_id) REFERENCES organizations(id) ON DELETE CASCADE</text>
</g>
<!-- public.org_agent_configs -->
<g id="node5" class="node">
<title>public.org_agent_configs</title>
<polygon fill="#efefef" stroke="none" points="1231.52,-838.6 1231.52,-874.2 1553.47,-874.2 1553.47,-838.6 1231.52,-838.6"/>
<polygon fill="none" stroke="black" points="1231.52,-838.6 1231.52,-874.2 1553.47,-874.2 1553.47,-838.6 1231.52,-838.6"/>
<text text-anchor="start" x="1238.52" y="-852" font-family="Arial Bold" font-size="18.00">public.org_agent_configs</text>
<text text-anchor="start" x="1421.98" y="-852" font-family="Arial" font-size="14.00">    </text>
<text text-anchor="start" x="1453.1" y="-852" font-family="Arial" font-size="14.00" fill="#666666">[BASE TABLE]</text>
<polygon fill="none" stroke="black" points="1231.52,-807.8 1231.52,-838.6 1553.47,-838.6 1553.47,-807.8 1231.52,-807.8"/>
<text text-anchor="start" x="1238.52" y="-820" font-family="Arial" font-size="14.00">id </text>
<text text-anchor="start" x="1253.31" y="-820" font-family="Arial" font-size="14.00" fill="#666666">[uuid]</text>
<polygon fill="none" stroke="black" points="1231.52,-777 1231.52,-807.8 1553.47,-807.8 1553.47,-777 1231.52,-777"/>
<text text-anchor="start" x="1238.52" y="-789.2" font-family="Arial" font-size="14.00">org_id </text>
<text text-anchor="start" x="1281.33" y="-789.2" font-family="Arial" font-size="14.00" fill="#666666">[uuid]</text>
<polygon fill="none" stroke="black" points="1231.52,-746.2 1231.52,-777 1553.47,-777 1553.47,-746.2 1231.52,-746.2"/>
<text text-anchor="start" x="1238.52" y="-758.4" font-family="Arial" font-size="14.00">agent_id </text>
<text text-anchor="start" x="1296.13" y="-758.4" font-family="Arial" font-size="14.00" fill="#666666">[uuid]</text>
<polygon fill="none" stroke="black" points="1231.52,-715.4 1231.52,-746.2 1553.47,-746.2 1553.47,-715.4 1231.52,-715.4"/>
<text text-anchor="start" x="1238.52" y="-727.6" font-family="Arial" font-size="14.00">config </text>
<text text-anchor="start" x="1279.77" y="-727.6" font-family="Arial" font-size="14.00" fill="#666666">[jsonb]</text>
<polygon fill="none" stroke="black" points="1231.52,-684.6 1231.52,-715.4 1553.47,-715.4 1553.47,-684.6 1231.52,-684.6"/>
<text text-anchor="start" x="1238.52" y="-696.8" font-family="Arial" font-size="14.00">is_enabled </text>
<text text-anchor="start" x="1310.14" y="-696.8" font-family="Arial" font-size="14.00" fill="#666666">[boolean]</text>
<polygon fill="none" stroke="black" points="1231.52,-653.8 1231.52,-684.6 1553.47,-684.6 1553.47,-653.8 1231.52,-653.8"/>
<text text-anchor="start" x="1238.52" y="-666" font-family="Arial" font-size="14.00">created_at </text>
<text text-anchor="start" x="1308.57" y="-666" font-family="Arial" font-size="14.00" fill="#666666">[timestamp without time zone]</text>
<polygon fill="none" stroke="black" points="1231.52,-623 1231.52,-653.8 1553.47,-653.8 1553.47,-623 1231.52,-623"/>
<text text-anchor="start" x="1238.52" y="-635.2" font-family="Arial" font-size="14.00">updated_at </text>
<text text-anchor="start" x="1312.48" y="-635.2" font-family="Arial" font-size="14.00" fill="#666666">[timestamp without time zone]</text>
</g>
<!-- public.org_agent_configs&#45;&gt;public.organizations -->
<g id="edge4" class="edge">
<title>public.org_agent_configs:org_id&#45;&gt;public.organizations:id</title>
<path fill="none" stroke="black" d="M1220.18,-791.85C1141.2,-782.88 1204.07,-666.35 1231.52,-579.8 1255.1,-505.49 1308.19,-510.24 1331.97,-436 1345.15,-394.86 1376.17,-338.8 1332.97,-338.8"/>
<polygon fill="black" stroke="black" points="1220.2,-791.85 1229.95,-796.88 1225.53,-792.13 1229.86,-792.36 1229.86,-792.36 1229.86,-792.36 1225.53,-792.13 1230.43,-787.89 1220.2,-791.85"/>
<text text-anchor="start" x="1237.52" y="-802.4" font-family="Arial" font-size="10.00">FOREIGN KEY (org_id) REFERENCES organizations(id) ON DELETE CASCADE</text>
</g>
<!-- public.activity_logs -->
<g id="node6" class="node">
<title>public.activity_logs</title>
<polygon fill="#efefef" stroke="none" points="1658.01,-838.6 1658.01,-874.2 1938.98,-874.2 1938.98,-838.6 1658.01,-838.6"/>
<polygon fill="none" stroke="black" points="1658.01,-838.6 1658.01,-874.2 1938.98,-874.2 1938.98,-838.6 1658.01,-838.6"/>
<text text-anchor="start" x="1665.01" y="-852" font-family="Arial Bold" font-size="18.00">public.activity_logs</text>
<text text-anchor="start" x="1807.49" y="-852" font-family="Arial" font-size="14.00">    </text>
<text text-anchor="start" x="1838.61" y="-852" font-family="Arial" font-size="14.00" fill="#666666">[BASE TABLE]</text>
<polygon fill="none" stroke="black" points="1658.01,-807.8 1658.01,-838.6 1938.98,-838.6 1938.98,-807.8 1658.01,-807.8"/>
<text text-anchor="start" x="1665.01" y="-820" font-family="Arial" font-size="14.00">id </text>
<text text-anchor="start" x="1679.8" y="-820" font-family="Arial" font-size="14.00" fill="#666666">[uuid]</text>
<polygon fill="none" stroke="black" points="1658.01,-777 1658.01,-807.8 1938.98,-807.8 1938.98,-777 1658.01,-777"/>
<text text-anchor="start" x="1665.01" y="-789.2" font-family="Arial" font-size="14.00">org_id </text>
<text text-anchor="start" x="1707.82" y="-789.2" font-family="Arial" font-size="14.00" fill="#666666">[uuid]</text>
<polygon fill="none" stroke="black" points="1658.01,-746.2 1658.01,-777 1938.98,-777 1938.98,-746.2 1658.01,-746.2"/>
<text text-anchor="start" x="1665.01" y="-758.4" font-family="Arial" font-size="14.00">employee_id </text>
<text text-anchor="start" x="1748.29" y="-758.4" font-family="Arial" font-size="14.00" fill="#666666">[uuid]</text>
<polygon fill="none" stroke="black" points="1658.01,-715.4 1658.01,-746.2 1938.98,-746.2 1938.98,-715.4 1658.01,-715.4"/>
<text text-anchor="start" x="1665.01" y="-727.6" font-family="Arial" font-size="14.00">event_type </text>
<text text-anchor="start" x="1737.4" y="-727.6" font-family="Arial" font-size="14.00" fill="#666666">[varchar(100)]</text>
<polygon fill="none" stroke="black" points="1658.01,-684.6 1658.01,-715.4 1938.98,-715.4 1938.98,-684.6 1658.01,-684.6"/>
<text text-anchor="start" x="1665.01" y="-696.8" font-family="Arial" font-size="14.00">event_category </text>
<text text-anchor="start" x="1764.63" y="-696.8" font-family="Arial" font-size="14.00" fill="#666666">[varchar(50)]</text>
<polygon fill="none" stroke="black" points="1658.01,-653.8 1658.01,-684.6 1938.98,-684.6 1938.98,-653.8 1658.01,-653.8"/>
<text text-anchor="start" x="1665.01" y="-666" font-family="Arial" font-size="14.00">payload </text>
<text text-anchor="start" x="1717.94" y="-666" font-family="Arial" font-size="14.00" fill="#666666">[jsonb]</text>
<polygon fill="none" stroke="black" points="1658.01,-623 1658.01,-653.8 1938.98,-653.8 1938.98,-623 1658.01,-623"/>
<text text-anchor="start" x="1665.01" y="-635.2" font-family="Arial" font-size="14.00">created_at </text>
<text text-anchor="start" x="1735.06" y="-635.2" font-family="Arial" font-size="14.00" fill="#666666">[timestamp without time zone]</text>
</g>
<!-- public.activity_logs&#45;&gt;public.organizations -->
<g id="edge5" class="edge">
<title>public.activity_logs:org_id&#45;&gt;public.organizations:id</title>
<path fill="none" stroke="black" d="M1647.04,-790.43C1591.08,-766.27 1646.25,-527 1605.5,-472 1525.22,-363.69 1467.79,-338.8 1332.97,-338.8"/>
<polygon fill="black" stroke="black" points="1646.87,-790.4 1655.81,-796.75 1652.11,-791.43 1656.36,-792.27 1656.36,-792.27 1656.36,-792.27 1652.11,-791.43 1657.56,-787.92 1646.87,-790.4"/>
<text text-anchor="start" x="1664.01" y="-802.4" font-family="Arial" font-size="10.00">FOREIGN KEY (org_id) REFERENCES organizations(id) ON DELETE CASCADE</text>
</g>
<!-- public.usage_records -->
<g id="node7" class="node">
<title>public.usage_records</title>
<polygon fill="#efefef" stroke="none" points="2043.03,-915.6 2043.03,-951.2 2333.96,-951.2 2333.96,-915.6 2043.03,-915.6"/>
<polygon fill="none" stroke="black" points="2043.03,-915.6 2043.03,-951.2 2333.96,-951.2 2333.96,-915.6 2043.03,-915.6"/>
<text text-anchor="start" x="2050.03" y="-929" font-family="Arial Bold" font-size="18.00">public.usage_records</text>
<text text-anchor="start" x="2202.47" y="-929" font-family="Arial" font-size="14.00">    </text>
<text text-anchor="start" x="2233.59" y="-929" font-family="Arial" font-size="14.00" fill="#666666">[BASE TABLE]</text>
<polygon fill="none" stroke="black" points="2043.03,-884.8 2043.03,-915.6 2333.96,-915.6 2333.96,-884.8 2043.03,-884.8"/>
<text text-anchor="start" x="2050.03" y="-897" font-family="Arial" font-size="14.00">id </text>
<text text-anchor="start" x="2064.81" y="-897" font-family="Arial" font-size="14.00" fill="#666666">[uuid]</text>
<polygon fill="none" stroke="black" points="2043.03,-854 2043.03,-884.8 2333.96,-884.8 2333.96,-854 2043.03,-854"/>
<text text-anchor="start" x="2050.03" y="-866.2" font-family="Arial" font-size="14.00">org_id </text>
<text text-anchor="start" x="2092.83" y="-866.2" font-family="Arial" font-size="14.00" fill="#666666">[uuid]</text>
<polygon fill="none" stroke="black" points="2043.03,-823.2 2043.03,-854 2333.96,-854 2333.96,-823.2 2043.03,-823.2"/>
<text text-anchor="start" x="2050.03" y="-835.4" font-family="Arial" font-size="14.00">employee_id </text>
<text text-anchor="start" x="2133.3" y="-835.4" font-family="Arial" font-size="14.00" fill="#666666">[uuid]</text>
<polygon fill="none" stroke="black" points="2043.03,-792.4 2043.03,-823.2 2333.96,-823.2 2333.96,-792.4 2043.03,-792.4"/>
<text text-anchor="start" x="2050.03" y="-804.6" font-family="Arial" font-size="14.00">agent_config_id </text>
<text text-anchor="start" x="2152.78" y="-804.6" font-family="Arial" font-size="14.00" fill="#666666">[uuid]</text>
<polygon fill="none" stroke="black" points="2043.03,-761.6 2043.03,-792.4 2333.96,-792.4 2333.96,-761.6 2043.03,-761.6"/>
<text text-anchor="start" x="2050.03" y="-773.8" font-family="Arial" font-size="14.00">resource_type </text>
<text text-anchor="start" x="2142.63" y="-773.8" font-family="Arial" font-size="14.00" fill="#666666">[varchar(50)]</text>
<polygon fill="none" stroke="black" points="2043.03,-730.8 2043.03,-761.6 2333.96,-761.6 2333.96,-730.8 2043.03,-730.8"/>
<text text-anchor="start" x="2050.03" y="-743" font-family="Arial" font-size="14.00">quantity </text>
<text text-anchor="start" x="2102.95" y="-743" font-family="Arial" font-size="14.00" fill="#666666">[bigint]</text>
<polygon fill="none" stroke="black" points="2043.03,-700 2043.03,-730.8 2333.96,-730.8 2333.96,-700 2043.03,-700"/>
<text text-anchor="start" x="2050.03" y="-712.2" font-family="Arial" font-size="14.00">cost_usd </text>
<text text-anchor="start" x="2109.95" y="-712.2" font-family="Arial" font-size="14.00" fill="#666666">[numeric(10,4)]</text>
<polygon fill="none" stroke="black" points="2043.03,-669.2 2043.03,-700 2333.96,-700 2333.96,-669.2 2043.03,-669.2"/>
<text text-anchor="start" x="2050.03" y="-681.4" font-family="Arial" font-size="14.00">period_start </text>
<text text-anchor="start" x="2127.85" y="-681.4" font-family="Arial" font-size="14.00" fill="#666666">[timestamp without time zone]</text>
<polygon fill="none" stroke="black" points="2043.03,-638.4 2043.03,-669.2 2333.96,-669.2 2333.96,-638.4 2043.03,-638.4"/>
<text text-anchor="start" x="2050.03" y="-650.6" font-family="Arial" font-size="14.00">period_end </text>
<text text-anchor="start" x="2123.98" y="-650.6" font-family="Arial" font-size="14.00" fill="#666666">[timestamp without time zone]</text>
<polygon fill="none" stroke="black" points="2043.03,-607.6 2043.03,-638.4 2333.96,-638.4 2333.96,-607.6 2043.03,-607.6"/>
<text text-anchor="start" x="2050.03" y="-619.8" font-family="Arial" font-size="14.00">metadata </text>
<text text-anchor="start" x="2112.29" y="-619.8" font-family="Arial" font-size="14.00" fill="#666666">[jsonb]</text>
<polygon fill="none" stroke="black" points="2043.03,-576.8 2043.03,-607.6 2333.96,-607.6 2333.96,-576.8 2043.03,-576.8"/>
<text text-anchor="start" x="2050.03" y="-589" font-family="Arial" font-size="14.00">token_source </text>
<text text-anchor="start" x="2137.97" y="-589" font-family="Arial" font-size="14.00" fill="#666666">[varchar(20)]</text>
<polygon fill="none" stroke="black" points="2043.03,-546 2043.03,-576.8 2333.96,-576.8 2333.96,-546 2043.03,-546"/>
<text text-anchor="start" x="2050.03" y="-558.2" font-family="Arial" font-size="14.00">created_at </text>
<text text-anchor="start" x="2120.08" y="-558.2" font-family="Arial" font-size="14.00" fill="#666666">[timestamp without time zone]</text>
</g>
<!-- public.usage_records&#45;&gt;public.organizations -->
<g id="edge6" class="edge">
<title>public.usage_records:org_id&#45;&gt;public.organizations:id</title>
<path fill="none" stroke="black" d="M2032,-867.76C1960.87,-842.6 2049.62,-534.53 1991.5,-472 1889.85,-362.64 1482.27,-338.8 1332.97,-338.8"/>
<polygon fill="black" stroke="black" points="2031.83,-867.74 2040.97,-873.79 2037.09,-868.6 2041.37,-869.29 2041.37,-869.29 2041.37,-869.29 2037.09,-868.6 2042.42,-864.9 2031.83,-867.74"/>
<text text-anchor="start" x="2049.03" y="-879.4" font-family="Arial" font-size="10.00">FOREIGN KEY (org_id) REFERENCES organizations(id) ON DELETE CASCADE</text>
</g>
</g>
</svg>
