<svg xmlns="http://www.w3.org/2000/svg" width="456" height="256" class="svgbob">
  <style>.svgbob line, .svgbob path, .svgbob circle, .svgbob rect, .svgbob polygon {
  stroke: black;
  stroke-width: 2;
  stroke-opacity: 1;
  fill-opacity: 1;
  stroke-linecap: round;
  stroke-linejoin: miter;
}

.svgbob text {
  white-space: pre;
  fill: black;
  font-family: Iosevka Fixed, monospace;
  font-size: 14px;
}

.svgbob rect.backdrop {
  stroke: none;
  fill: white;
}

.svgbob .broken {
  stroke-dasharray: 8;
}

.svgbob .filled {
  fill: black;
}

.svgbob .bg_filled {
  fill: white;
  stroke-width: 1;
}

.svgbob .nofill {
  fill: white;
}

.svgbob .end_marked_arrow {
  marker-end: url(#arrow);
}

.svgbob .start_marked_arrow {
  marker-start: url(#arrow);
}

.svgbob .end_marked_diamond {
  marker-end: url(#diamond);
}

.svgbob .start_marked_diamond {
  marker-start: url(#diamond);
}

.svgbob .end_marked_circle {
  marker-end: url(#circle);
}

.svgbob .start_marked_circle {
  marker-start: url(#circle);
}

.svgbob .end_marked_open_circle {
  marker-end: url(#open_circle);
}

.svgbob .start_marked_open_circle {
  marker-start: url(#open_circle);
}

.svgbob .end_marked_big_open_circle {
  marker-end: url(#big_open_circle);
}

.svgbob .start_marked_big_open_circle {
  marker-start: url(#big_open_circle);
}

</style>
  <defs>
    <marker id="arrow" viewBox="-2 -2 8 8" refX="4" refY="2" markerWidth="7" markerHeight="7" orient="auto-start-reverse">
      <polygon points="0,0 0,4 4,2 0,0"></polygon>
    </marker>
    <marker id="diamond" viewBox="-2 -2 8 8" refX="4" refY="2" markerWidth="7" markerHeight="7" orient="auto-start-reverse">
      <polygon points="0,2 2,0 4,2 2,4 0,2"></polygon>
    </marker>
    <marker id="circle" viewBox="0 0 8 8" refX="4" refY="4" markerWidth="7" markerHeight="7" orient="auto-start-reverse">
      <circle cx="4" cy="4" r="2" class="filled"></circle>
    </marker>
    <marker id="open_circle" viewBox="0 0 8 8" refX="4" refY="4" markerWidth="7" markerHeight="7" orient="auto-start-reverse">
      <circle cx="4" cy="4" r="2" class="bg_filled"></circle>
    </marker>
    <marker id="big_open_circle" viewBox="0 0 8 8" refX="4" refY="4" markerWidth="7" markerHeight="7" orient="auto-start-reverse">
      <circle cx="4" cy="4" r="3" class="bg_filled"></circle>
    </marker>
  </defs>
  <rect class="backdrop" x="0" y="0" width="456" height="256"></rect>
  <text x="26" y="28" >MySite</text>
  <text x="322" y="28" >[Login]</text>
  <line x1="436" y1="16" x2="436" y2="32" class="solid"></line>
  <text x="26" y="60" >Home</text>
  <line x1="68" y1="48" x2="68" y2="64" class="solid"></line>
  <text x="82" y="60" >Products</text>
  <line x1="156" y1="48" x2="156" y2="64" class="solid"></line>
  <text x="170" y="60" >Pricing</text>
  <line x1="236" y1="48" x2="236" y2="64" class="solid"></line>
  <text x="250" y="60" >Docs</text>
  <line x1="292" y1="48" x2="292" y2="64" class="solid"></line>
  <text x="306" y="60" >About</text>
  <text x="178" y="92" >HERO</text>
  <text x="26" y="108" >[</text>
  <text x="42" y="108" >Headline</text>
  <text x="114" y="108" >goes</text>
  <text x="154" y="108" >here</text>
  <text x="194" y="108" >]</text>
  <text x="26" y="124" >[</text>
  <text x="42" y="124" >Subcopy</text>
  <text x="106" y="124" >lorem</text>
  <text x="154" y="124" >ipsum</text>
  <text x="202" y="124" >]</text>
  <path d="M 296,112 A 16,16 0,0,0 296,128" class="nofill"></path>
  <text x="298" y="124" >Get</text>
  <text x="330" y="124" >Started</text>
  <path d="M 384,112 A 16,16 0,0,1 384,128" class="nofill"></path>
  <text x="26" y="156" >[IMG]</text>
  <text x="82" y="156" >Card</text>
  <text x="122" y="156" >A</text>
  <text x="138" y="156" >Title</text>
  <line x1="220" y1="144" x2="220" y2="192" class="solid"></line>
  <text x="242" y="156" >[IMG]</text>
  <text x="298" y="156" >Card</text>
  <text x="338" y="156" >B</text>
  <text x="354" y="156" >Title</text>
  <text x="26" y="172" >short</text>
  <text x="74" y="172" >blurb</text>
  <text x="242" y="172" >short</text>
  <text x="290" y="172" >blurb</text>
  <path d="M 32,176 A 16,16 0,0,0 32,192" class="nofill"></path>
  <text x="34" y="188" >Action</text>
  <path d="M 80,176 A 16,16 0,0,1 80,192" class="nofill"></path>
  <path d="M 248,176 A 16,16 0,0,0 248,192" class="nofill"></path>
  <text x="250" y="188" >Action</text>
  <path d="M 296,176 A 16,16 0,0,1 296,192" class="nofill"></path>
  <text x="26" y="220" >Footer:</text>
  <text x="90" y="220" >links</text>
  <line x1="140" y1="208" x2="140" y2="224" class="solid"></line>
  <text x="154" y="220" >socials</text>
  <g>
    <line x1="4" y1="8" x2="444" y2="8" class="solid"></line>
    <line x1="4" y1="8" x2="4" y2="232" class="solid"></line>
    <line x1="4" y1="40" x2="444" y2="40" class="solid"></line>
    <line x1="444" y1="40" x2="444" y2="232" class="solid"></line>
    <line x1="4" y1="72" x2="444" y2="72" class="solid"></line>
    <line x1="4" y1="136" x2="444" y2="136" class="solid"></line>
    <line x1="4" y1="200" x2="444" y2="200" class="solid"></line>
    <line x1="4" y1="232" x2="444" y2="232" class="solid"></line>
  </g>
</svg>